<svg xmlns="http://www.w3.org/2000/svg" width="76.361" height="78.498" viewBox="0 0 76.361 78.498">
  <g id="system-update" transform="translate(-6.968)">
    <path id="Trazado_771995" data-name="Trazado 771995" d="M51.033,132.675V87.823H67.067l-.23.447a17.294,17.294,0,0,0-1.285,3.284l-.062.225H61.953a.766.766,0,0,0-.755.631,21.909,21.909,0,0,0,0,7.717.766.766,0,0,0,.755.631h3.538l.062.225a17.331,17.331,0,0,0,1.618,3.9l.115.2-2.5,2.5a.767.767,0,0,0-.087.98,21.7,21.7,0,0,0,5.455,5.455.767.767,0,0,0,.98-.087l2.5-2.5.2.115a17.5,17.5,0,0,0,3.905,1.618l.224.062v3.539a.766.766,0,0,0,.631.755,21.911,21.911,0,0,0,7.716,0,.766.766,0,0,0,.631-.755v-3.539l.224-.062a17.437,17.437,0,0,0,3.905-1.617l.2-.115,2.5,2.5a.767.767,0,0,0,.979.088,21.653,21.653,0,0,0,5.46-5.456.766.766,0,0,0-.087-.98l-2.5-2.5.115-.2a17.46,17.46,0,0,0,1.617-3.9l.063-.224h3.535a.766.766,0,0,0,.755-.631,21.632,21.632,0,0,0,0-7.717.766.766,0,0,0-.755-.631H99.424l-.062-.224a17.452,17.452,0,0,0-1.285-3.284l-.229-.447h16.031v44.852Zm7.226-11.165a.768.768,0,0,0-.767.767v6.68a.768.768,0,0,0,.767.767h48.4a.768.768,0,0,0,.767-.767v-6.68a.768.768,0,0,0-.767-.767Z" transform="translate(-37.309 -74.358)" fill="#e9e9ff"/>
    <path id="Trazado_771996" data-name="Trazado 771996" d="M21.668,110.421a2.7,2.7,0,0,1-2.7-2.7V58.434a2.7,2.7,0,0,1,2.7-2.7H38.333l-.387.52c-.131.176-.266.358-.393.54a.767.767,0,0,0,.087.98l1.345,1.347H23.12a.768.768,0,0,0-.767.767v46.386a.768.768,0,0,0,.767.767H87.5a.768.768,0,0,0,.767-.767V59.886a.768.768,0,0,0-.767-.767H71.637l1.345-1.347a.767.767,0,0,0,.087-.98c-.126-.182-.262-.364-.393-.54l-.387-.52H88.954a2.7,2.7,0,0,1,2.7,2.7v49.289a2.7,2.7,0,0,1-2.7,2.7H21.668Z" transform="translate(-10.163 -47.188)" fill="#445ea0"/>
    <path id="Trazado_771997" data-name="Trazado 771997" d="M216.524,422.435h12.1v3.816h-12.1Z" transform="translate(-177.428 -357.669)" fill="#445ea0"/>
    <path id="Trazado_771998" data-name="Trazado 771998" d="M205.608,101.622a9.125,9.125,0,1,1,9.125-9.125A9.135,9.135,0,0,1,205.608,101.622Z" transform="translate(-160.459 -70.59)" fill="#e9e9ff"/>
    <path id="Trazado_771999" data-name="Trazado 771999" d="M145.458,463.872V460.6a3.274,3.274,0,0,1,3.271-3.271h27.354a3.274,3.274,0,0,1,3.271,3.271v3.271Z" transform="translate(-117.257 -387.215)" fill="#293d7c"/>
    <path id="Trazado_772000" data-name="Trazado 772000" d="M103.164,322.7V317.55h46.864V322.7Zm30.905-1.439v-2.272h-1.534v2.272Zm-4.416,0v-2.272H128.12v2.272Zm-4.416,0v-2.272H123.7v2.272Zm-4.416,0v-2.272h-1.534v2.272Zm-4.411,0v-2.272h-1.534v2.272Zm-4.415,0v-2.272h-1.534v2.272Zm-4.416,0v-2.272h-1.534v2.272Z" transform="translate(-81.448 -268.864)" fill="#cfcfff"/>
    <path id="Trazado_772001" data-name="Trazado 772001" d="M145.172,52.133a20.442,20.442,0,0,1-2.69-.177l-.266-.035V48.429a.763.763,0,0,0-.6-.748,15.952,15.952,0,0,1-4.977-2.061.767.767,0,0,0-.951.107l-2.466,2.466-.213-.163a20.187,20.187,0,0,1-3.8-3.8l-.163-.213,2.466-2.47a.763.763,0,0,0,.106-.951,15.794,15.794,0,0,1-2.06-4.97.762.762,0,0,0-.748-.6h-3.492l-.035-.266a20.426,20.426,0,0,1,0-5.379l.035-.266h3.492a.762.762,0,0,0,.748-.6,15.782,15.782,0,0,1,2.06-4.974.763.763,0,0,0-.106-.951l-2.466-2.47.163-.213a20.187,20.187,0,0,1,3.8-3.8l.213-.163,2.466,2.466a.767.767,0,0,0,.951.107,15.953,15.953,0,0,1,4.977-2.061.763.763,0,0,0,.6-.748V12.213l.266-.036a20.277,20.277,0,0,1,5.38,0l.266.036V15.7a.763.763,0,0,0,.6.748,15.888,15.888,0,0,1,4.976,2.061.767.767,0,0,0,.951-.106l2.466-2.466.213.162a20.132,20.132,0,0,1,3.807,3.8l.163.213-2.467,2.47a.763.763,0,0,0-.106.951,15.885,15.885,0,0,1,2.061,4.976.763.763,0,0,0,.748.6h3.488l.036.266a20.02,20.02,0,0,1,0,5.38l-.036.266h-3.488a.763.763,0,0,0-.748.6,15.9,15.9,0,0,1-2.061,4.972.763.763,0,0,0,.106.951l2.466,2.47-.163.213a20.131,20.131,0,0,1-3.807,3.8l-.213.162-2.466-2.466a.767.767,0,0,0-.951-.106,15.89,15.89,0,0,1-4.976,2.061.763.763,0,0,0-.6.748v3.492l-.266.035a20.463,20.463,0,0,1-2.689.177Zm0-30.726a10.659,10.659,0,1,0,10.659,10.659,10.671,10.671,0,0,0-10.659-10.659Z" transform="translate(-100.025 -10.158)" fill="#0cb4fb"/>
    <path id="Trazado_772002" data-name="Trazado 772002" d="M41.95,49.814H44.1V52.7H41.95ZM34.183,21.907A10.965,10.965,0,1,1,45.149,32.872,10.978,10.978,0,0,1,34.183,21.907Zm2.147,0a8.818,8.818,0,1,0,8.818-8.818A8.828,8.828,0,0,0,36.33,21.907ZM24.292,52.7h2.147V49.813H24.292ZM83.329,11.246V60.535a4.542,4.542,0,0,1-4.537,4.537H53.041v3.2h5.785a5.117,5.117,0,0,1,5.111,5.111v4.038A1.074,1.074,0,0,1,62.863,78.5H27.434a1.074,1.074,0,0,1-1.074-1.074V73.387a5.117,5.117,0,0,1,5.111-5.111h5.785v-3.2H11.505a4.543,4.543,0,0,1-4.537-4.537V11.246A4.545,4.545,0,0,1,11.505,6.7H29.381A22.041,22.041,0,0,1,32.671,3.9a1.073,1.073,0,0,1,1.372.122l2.334,2.334A17.765,17.765,0,0,1,40.35,4.708v-3.3A1.073,1.073,0,0,1,41.23.351a22.037,22.037,0,0,1,7.832,0,1.073,1.073,0,0,1,.88,1.056v3.3a17.7,17.7,0,0,1,3.974,1.646L56.25,4.02A1.074,1.074,0,0,1,57.621,3.9,21.978,21.978,0,0,1,60.915,6.7H78.792a4.545,4.545,0,0,1,4.537,4.542Zm-51.475,2.3a15.478,15.478,0,0,0-2.021,4.878,1.074,1.074,0,0,1-1.047.838H25.562a20.118,20.118,0,0,0,0,5.3h3.223a1.074,1.074,0,0,1,1.047.838,15.487,15.487,0,0,0,2.021,4.874,1.074,1.074,0,0,1-.148,1.331l-2.277,2.28a19.838,19.838,0,0,0,3.745,3.746l2.276-2.276a1.074,1.074,0,0,1,1.331-.15,15.646,15.646,0,0,0,4.881,2.022A1.073,1.073,0,0,1,42.5,38.27v3.223a20.175,20.175,0,0,0,5.3,0V38.27a1.073,1.073,0,0,1,.836-1.047,15.582,15.582,0,0,0,4.88-2.021,1.073,1.073,0,0,1,1.332.149l2.277,2.277a19.785,19.785,0,0,0,3.749-3.746L58.592,31.6a1.073,1.073,0,0,1-.148-1.331,15.593,15.593,0,0,0,2.021-4.876,1.074,1.074,0,0,1,1.047-.835h3.22a19.716,19.716,0,0,0,0-5.3h-3.22a1.073,1.073,0,0,1-1.047-.836,15.585,15.585,0,0,0-2.021-4.88,1.074,1.074,0,0,1,.148-1.331l2.277-2.28A19.784,19.784,0,0,0,57.12,6.187L54.843,8.463a1.073,1.073,0,0,1-1.332.149,15.585,15.585,0,0,0-4.88-2.021A1.073,1.073,0,0,1,47.8,5.544V2.322a19.973,19.973,0,0,0-5.3,0V5.544a1.073,1.073,0,0,1-.836,1.047A15.645,15.645,0,0,0,36.78,8.613a1.073,1.073,0,0,1-1.331-.15L33.174,6.187a19.843,19.843,0,0,0-3.745,3.746l2.277,2.28a1.074,1.074,0,0,1,.148,1.332Zm-2.6.227H14.03V58.01H76.262V13.771H61.04a17.711,17.711,0,0,1,1.307,3.342h3.3A1.073,1.073,0,0,1,66.705,18a21.946,21.946,0,0,1,0,7.826,1.073,1.073,0,0,1-1.056.883h-3.3a17.722,17.722,0,0,1-1.646,3.97l2.335,2.338a1.073,1.073,0,0,1,.122,1.371,21.959,21.959,0,0,1-5.537,5.533,1.074,1.074,0,0,1-1.371-.123l-2.334-2.334a17.7,17.7,0,0,1-3.974,1.646v3.306a1.073,1.073,0,0,1-.883,1.056,22.213,22.213,0,0,1-7.825,0,1.073,1.073,0,0,1-.883-1.056V39.106a17.763,17.763,0,0,1-3.973-1.646l-2.334,2.334a1.073,1.073,0,0,1-1.372.122,22.008,22.008,0,0,1-5.532-5.532,1.073,1.073,0,0,1,.122-1.371L29.6,30.676a17.609,17.609,0,0,1-1.647-3.97h-3.3a1.073,1.073,0,0,1-1.056-.883,22.213,22.213,0,0,1,0-7.826,1.073,1.073,0,0,1,1.056-.883h3.3a17.559,17.559,0,0,1,1.308-3.342ZM53.041,70.423H31.472a2.967,2.967,0,0,0-2.964,2.964v2.964H61.79V73.387a2.967,2.967,0,0,0-2.964-2.964Zm-2.147-2.147v-3.2H39.4v3.2ZM81.182,11.246a2.4,2.4,0,0,0-2.39-2.395H62.737c.142.191.285.382.421.578a1.073,1.073,0,0,1-.122,1.371l-.822.823H77.336A1.074,1.074,0,0,1,78.409,12.7V59.084a1.074,1.074,0,0,1-1.074,1.074H12.957a1.074,1.074,0,0,1-1.074-1.074V12.7a1.074,1.074,0,0,1,1.074-1.074H28.083l-.822-.823a1.073,1.073,0,0,1-.122-1.371c.136-.2.279-.387.421-.578H11.505a2.4,2.4,0,0,0-2.39,2.395V60.535a2.393,2.393,0,0,0,2.39,2.39H78.792a2.393,2.393,0,0,0,2.39-2.39ZM37.534,52.7h2.147V49.813H37.534Zm-4.411,0H35.27V49.813H33.123Zm17.658,0h2.147V49.813H50.781Zm-4.416,0h2.147V49.813H46.365ZM19.876,54.6v-6.68a1.074,1.074,0,0,1,1.074-1.074h48.4a1.074,1.074,0,0,1,1.074,1.074V54.6a1.074,1.074,0,0,1-1.074,1.074h-48.4A1.074,1.074,0,0,1,19.876,54.6Zm2.147-1.074H68.274V48.992H22.023Zm6.684-.826h2.147V49.813H28.707Z" transform="translate(0 0)"/>
  </g>
</svg>
