<svg xmlns="http://www.w3.org/2000/svg" width="82.8" height="76.5" viewBox="0 0 82.8 76.5">
  <g id="_x35_33_x2C__Computer_x2C__Keyboard_x2C__Hardware_x2C__Connection" transform="translate(-30 -47.5)">
    <g id="Grupo_1044223" data-name="Grupo 1044223" transform="translate(30 47.5)">
      <path id="Trazado_771724" data-name="Trazado 771724" d="M116,276.37v27.36a3.87,3.87,0,0,1-3.87,3.87H38.87A3.871,3.871,0,0,1,35,303.73V276.37a3.871,3.871,0,0,1,3.87-3.87h73.26A3.87,3.87,0,0,1,116,276.37Z" transform="translate(-34.1 -232)" fill="#57606f"/>
      <path id="Trazado_771725" data-name="Trazado 771725" d="M141.6,417.9H120v-5.4h21.6Z" transform="translate(-103.8 -346.8)" fill="#95e6f9"/>
      <path id="Trazado_771726" data-name="Trazado 771726" d="M430,387.9v-5.4h5.4v10.8H430Z" transform="translate(-358 -322.2)" fill="#ff4957"/>
      <path id="Trazado_771727" data-name="Trazado 771727" d="M270,363.3v-5.4h5.4v-5.4h5.4v10.8H270Z" transform="translate(-226.8 -297.6)" fill="#ff4957"/>
      <g id="Grupo_1044222" data-name="Grupo 1044222" transform="translate(5.4 45)">
        <path id="Trazado_771728" data-name="Trazado 771728" d="M270,412.5h5.4v5.4H270Z" transform="translate(-232.2 -391.8)" fill="#a0b5c5"/>
        <path id="Trazado_771729" data-name="Trazado 771729" d="M90,412.5h5.4v5.4H90Z" transform="translate(-84.6 -391.8)" fill="#a0b5c5"/>
        <path id="Trazado_771730" data-name="Trazado 771730" d="M60,382.5h5.4v5.4H60Z" transform="translate(-60 -367.2)" fill="#a0b5c5"/>
        <path id="Trazado_771731" data-name="Trazado 771731" d="M120,382.5h5.4v5.4H120Z" transform="translate(-109.2 -367.2)" fill="#a0b5c5"/>
        <path id="Trazado_771732" data-name="Trazado 771732" d="M180,382.5h5.4v5.4H180Z" transform="translate(-158.4 -367.2)" fill="#a0b5c5"/>
        <path id="Trazado_771733" data-name="Trazado 771733" d="M240,382.5h5.4v5.4H240Z" transform="translate(-207.6 -367.2)" fill="#a0b5c5"/>
        <path id="Trazado_771734" data-name="Trazado 771734" d="M270,352.5h5.4v5.4H270Z" transform="translate(-232.2 -342.6)" fill="#a0b5c5"/>
        <path id="Trazado_771735" data-name="Trazado 771735" d="M210,352.5h5.4v5.4H210Z" transform="translate(-183 -342.6)" fill="#a0b5c5"/>
        <path id="Trazado_771736" data-name="Trazado 771736" d="M150,352.5h5.4v5.4H150Z" transform="translate(-133.8 -342.6)" fill="#a0b5c5"/>
        <path id="Trazado_771737" data-name="Trazado 771737" d="M90,352.5h5.4v5.4H90Z" transform="translate(-84.6 -342.6)" fill="#a0b5c5"/>
        <path id="Trazado_771738" data-name="Trazado 771738" d="M210,297.5h5.4v5.4H210Z" transform="translate(-183 -297.5)" fill="#a0b5c5"/>
        <path id="Trazado_771739" data-name="Trazado 771739" d="M270,297.5h5.4v5.4H270Z" transform="translate(-232.2 -297.5)" fill="#a0b5c5"/>
        <path id="Trazado_771740" data-name="Trazado 771740" d="M150,297.5h5.4v5.4H150Z" transform="translate(-133.8 -297.5)" fill="#a0b5c5"/>
        <path id="Trazado_771741" data-name="Trazado 771741" d="M370,382.5h5.4v5.4H370Z" transform="translate(-314.2 -367.2)" fill="#a0b5c5"/>
        <path id="Trazado_771742" data-name="Trazado 771742" d="M400,352.5h5.4v5.4H400Z" transform="translate(-338.8 -342.6)" fill="#a0b5c5"/>
      </g>
      <path id="Trazado_771743" data-name="Trazado 771743" d="M400,412.5h5.4v5.4H400Z" transform="translate(-333.4 -346.8)" fill="#59d9a4"/>
      <ellipse id="Elipse_6145" data-name="Elipse 6145" cx="1.142" cy="1.713" rx="1.142" ry="1.713" transform="translate(76.5 11.418)"/>
      <path id="Trazado_771744" data-name="Trazado 771744" d="M440,182.5h4.5v3.6H440Z" transform="translate(-366.2 -158.2)" fill="#a0b5c5"/>
      <circle id="Elipse_6146" data-name="Elipse 6146" cx="1.713" cy="1.713" r="1.713" transform="translate(75.358 33.112)"/>
      <path id="Trazado_771745" data-name="Trazado 771745" d="M430,352.5h5.4v5.4H430Z" transform="translate(-358 -297.6)" fill="#ffd400"/>
      <path id="Trazado_771746" data-name="Trazado 771746" d="M430,302.5h5.4v3.6H430Z" transform="translate(-358 -256.6)" fill="#ff4957"/>
      <path id="Trazado_771747" data-name="Trazado 771747" d="M407.2,177.9v1.8H400v-7.2h7.2v5.4Z" transform="translate(-333.4 -150)" fill="#7d89aa"/>
      <path id="Trazado_771748" data-name="Trazado 771748" d="M400,382.5h5.4v5.4H400Z" transform="translate(-333.4 -322.2)" fill="#d0dce7"/>
      <path id="Trazado_771749" data-name="Trazado 771749" d="M400,302.5h5.4v3.6H400Z" transform="translate(-333.4 -256.6)" fill="#95e6f9"/>
      <path id="Trazado_771750" data-name="Trazado 771750" d="M384.5,52.5A4.5,4.5,0,1,1,380,57,4.5,4.5,0,0,1,384.5,52.5Z" transform="translate(-317 -51.6)" fill="#f88f19"/>
      <path id="Trazado_771751" data-name="Trazado 771751" d="M370,412.5h5.4v5.4H370Z" transform="translate(-308.8 -346.8)" fill="#d0dce7"/>
      <path id="Trazado_771752" data-name="Trazado 771752" d="M370,352.5h5.4v5.4H370Z" transform="translate(-308.8 -297.6)" fill="#d0dce7"/>
      <path id="Trazado_771753" data-name="Trazado 771753" d="M370,302.5h5.4v3.6H370Z" transform="translate(-308.8 -256.6)" fill="#d7e816"/>
      <path id="Trazado_771754" data-name="Trazado 771754" d="M383.6,172.5v7.2H380v-7.2Z" transform="translate(-317 -150)" fill="#5c6887"/>
      <path id="Trazado_771755" data-name="Trazado 771755" d="M300,412.5h5.4v5.4H300Z" transform="translate(-251.4 -346.8)" fill="#d0dce7"/>
      <path id="Trazado_771756" data-name="Trazado 771756" d="M300,297.5h5.4v5.4H300Z" transform="translate(-251.4 -252.5)" fill="#d0dce7"/>
      <ellipse id="Elipse_6147" data-name="Elipse 6147" cx="1.713" cy="1.142" rx="1.713" ry="1.142" transform="translate(50.239 7.993)"/>
      <circle id="Elipse_6148" data-name="Elipse 6148" cx="1.142" cy="1.142" r="1.142" transform="translate(47.955 29.687)"/>
      <path id="Trazado_771757" data-name="Trazado 771757" d="M247.2,241.1v2.7H240v-2.7a3.6,3.6,0,0,1,7.2,0Z" transform="translate(-202.2 -203.3)" fill="#414a56"/>
      <path id="Trazado_771758" data-name="Trazado 771758" d="M240,412.5h5.4v5.4H240Z" transform="translate(-202.2 -346.8)" fill="#d0dce7"/>
      <path id="Trazado_771759" data-name="Trazado 771759" d="M240,352.5h5.4v5.4H240Z" transform="translate(-202.2 -297.6)" fill="#d0dce7"/>
      <path id="Trazado_771760" data-name="Trazado 771760" d="M240,297.5h5.4v5.4H240Z" transform="translate(-202.2 -252.5)" fill="#d0dce7"/>
      <path id="Trazado_771761" data-name="Trazado 771761" d="M210,382.5h5.4v5.4H210Z" transform="translate(-177.6 -322.2)" fill="#d0dce7"/>
      <path id="Trazado_771762" data-name="Trazado 771762" d="M180,352.5h5.4v5.4H180Z" transform="translate(-153 -297.6)" fill="#d0dce7"/>
      <path id="Trazado_771763" data-name="Trazado 771763" d="M180,297.5h5.4v5.4H180Z" transform="translate(-153 -252.5)" fill="#d0dce7"/>
      <path id="Trazado_771764" data-name="Trazado 771764" d="M150,382.5h5.4v5.4H150Z" transform="translate(-128.4 -322.2)" fill="#d0dce7"/>
      <ellipse id="Elipse_6149" data-name="Elipse 6149" cx="1.713" cy="1.142" rx="1.713" ry="1.142" transform="translate(22.836 0)"/>
      <ellipse id="Elipse_6150" data-name="Elipse 6150" cx="1.713" cy="1.142" rx="1.713" ry="1.142" transform="translate(22.836 31.97)"/>
      <path id="Trazado_771765" data-name="Trazado 771765" d="M120,352.5h5.4v5.4H120Z" transform="translate(-103.8 -297.6)" fill="#d0dce7"/>
      <path id="Trazado_771766" data-name="Trazado 771766" d="M120,297.5h5.4v5.4H120Z" transform="translate(-103.8 -252.5)" fill="#d0dce7"/>
      <path id="Trazado_771767" data-name="Trazado 771767" d="M90,382.5h5.4v5.4H90Z" transform="translate(-79.2 -322.2)" fill="#d0dce7"/>
      <path id="Trazado_771768" data-name="Trazado 771768" d="M73.6,202.5a3.6,3.6,0,1,1-3.6,3.6A3.6,3.6,0,0,1,73.6,202.5Z" transform="translate(-62.8 -174.6)" fill="#f88f19"/>
      <path id="Trazado_771769" data-name="Trazado 771769" d="M60,412.5h5.4v5.4H60Z" transform="translate(-54.6 -346.8)" fill="#d0dce7"/>
      <path id="Trazado_771770" data-name="Trazado 771770" d="M60,352.5h5.4v5.4H60Z" transform="translate(-54.6 -297.6)" fill="#d0dce7"/>
      <path id="Trazado_771771" data-name="Trazado 771771" d="M60,297.5h5.4v5.4H60Z" transform="translate(-54.6 -252.5)" fill="#95e6f9"/>
      <circle id="Elipse_6151" data-name="Elipse 6151" cx="1.142" cy="1.142" r="1.142" transform="translate(5.709 9.134)"/>
      <path id="Trazado_771772" data-name="Trazado 771772" d="M108.03,304.4H34.77A4.775,4.775,0,0,1,30,299.63V272.27a4.775,4.775,0,0,1,4.77-4.77H67.8a.9.9,0,0,1,0,1.8H34.77a2.973,2.973,0,0,0-2.97,2.97v27.36a2.973,2.973,0,0,0,2.97,2.97h73.26a2.973,2.973,0,0,0,2.97-2.97V272.27a2.973,2.973,0,0,0-2.97-2.97H75a.9.9,0,0,1,0-1.8h33.03a4.775,4.775,0,0,1,4.77,4.77v27.36A4.775,4.775,0,0,1,108.03,304.4Z" transform="translate(-30 -227.9)"/>
      <path id="Trazado_771773" data-name="Trazado 771773" d="M61.3,299.7H55.9a.9.9,0,0,1-.9-.9v-5.4a.9.9,0,0,1,.9-.9h5.4a.9.9,0,0,1,.9.9v5.4A.9.9,0,0,1,61.3,299.7Zm-4.5-1.8h3.6v-3.6H56.8Z" transform="translate(-50.5 -248.4)"/>
      <path id="Trazado_771774" data-name="Trazado 771774" d="M121.3,299.7h-5.4a.9.9,0,0,1-.9-.9v-5.4a.9.9,0,0,1,.9-.9h5.4a.9.9,0,1,1,0,1.8h-4.5v3.6h4.5a.9.9,0,1,1,0,1.8Z" transform="translate(-99.7 -248.4)"/>
      <path id="Trazado_771775" data-name="Trazado 771775" d="M151.3,299.7h-5.4a.9.9,0,0,1-.9-.9v-5.4a.9.9,0,0,1,.9-.9h5.4a.9.9,0,1,1,0,1.8h-4.5v3.6h4.5a.9.9,0,1,1,0,1.8Z" transform="translate(-124.3 -248.4)"/>
      <path id="Trazado_771776" data-name="Trazado 771776" d="M181.3,299.7h-5.4a.9.9,0,0,1-.9-.9v-5.4a.9.9,0,0,1,.9-.9h5.4a.9.9,0,1,1,0,1.8h-4.5v3.6h4.5a.9.9,0,1,1,0,1.8Z" transform="translate(-148.9 -248.4)"/>
      <path id="Trazado_771777" data-name="Trazado 771777" d="M211.3,299.7h-5.4a.9.9,0,0,1-.9-.9v-5.4a.9.9,0,0,1,.9-.9h5.4a.9.9,0,0,1,0,1.8h-4.5v3.6h4.5a.9.9,0,0,1,0,1.8Z" transform="translate(-173.5 -248.4)"/>
      <path id="Trazado_771778" data-name="Trazado 771778" d="M241.3,299.7h-5.4a.9.9,0,0,1-.9-.9v-5.4a.9.9,0,0,1,.9-.9h5.4a.9.9,0,0,1,0,1.8h-4.5v3.6h4.5a.9.9,0,0,1,0,1.8Z" transform="translate(-198.1 -248.4)"/>
      <path id="Trazado_771779" data-name="Trazado 771779" d="M271.3,299.7h-5.4a.9.9,0,0,1-.9-.9v-5.4a.9.9,0,0,1,.9-.9h5.4a.9.9,0,1,1,0,1.8h-4.5v3.6h4.5a.9.9,0,0,1,0,1.8Z" transform="translate(-222.7 -248.4)"/>
      <path id="Trazado_771780" data-name="Trazado 771780" d="M301.3,299.7h-5.4a.9.9,0,0,1-.9-.9v-5.4a.9.9,0,0,1,.9-.9h5.4a.9.9,0,0,1,.9.9v5.4A.9.9,0,0,1,301.3,299.7Zm-4.5-1.8h3.6v-3.6h-3.6Z" transform="translate(-247.3 -248.4)"/>
      <path id="Trazado_771781" data-name="Trazado 771781" d="M401.3,319.3h-5.4a.9.9,0,0,1,0-1.8h5.4a.9.9,0,1,1,0,1.8Z" transform="translate(-329.3 -268.9)"/>
      <path id="Trazado_771782" data-name="Trazado 771782" d="M401.3,299.3h-5.4a.9.9,0,1,1,0-1.8h5.4a.9.9,0,1,1,0,1.8Z" transform="translate(-329.3 -252.5)"/>
      <path id="Trazado_771783" data-name="Trazado 771783" d="M371.3,302.9h-5.4a.9.9,0,0,1-.9-.9v-3.6a.9.9,0,0,1,.9-.9h5.4a.9.9,0,0,1,.9.9V302A.9.9,0,0,1,371.3,302.9Zm-4.5-1.8h3.6v-1.8h-3.6Z" transform="translate(-304.7 -252.5)"/>
      <path id="Trazado_771784" data-name="Trazado 771784" d="M431.3,302.9h-5.4a.9.9,0,0,1-.9-.9v-3.6a.9.9,0,0,1,.9-.9h5.4a.9.9,0,0,1,.9.9V302A.9.9,0,0,1,431.3,302.9Zm-4.5-1.8h3.6v-1.8h-3.6Z" transform="translate(-353.9 -252.5)"/>
      <path id="Trazado_771785" data-name="Trazado 771785" d="M55.9,354.7a.9.9,0,0,1-.9-.9v-5.4a.9.9,0,0,1,.9-.9h5.4a.9.9,0,0,1,0,1.8H56.8v4.5A.9.9,0,0,1,55.9,354.7Z" transform="translate(-50.5 -293.5)"/>
      <path id="Trazado_771786" data-name="Trazado 771786" d="M85.9,354.7a.9.9,0,0,1-.9-.9v-5.4a.9.9,0,0,1,.9-.9h5.4a.9.9,0,0,1,0,1.8H86.8v4.5A.9.9,0,0,1,85.9,354.7Z" transform="translate(-75.1 -293.5)"/>
      <path id="Trazado_771787" data-name="Trazado 771787" d="M115.9,354.7a.9.9,0,0,1-.9-.9v-5.4a.9.9,0,0,1,.9-.9h5.4a.9.9,0,1,1,0,1.8h-4.5v4.5A.9.9,0,0,1,115.9,354.7Z" transform="translate(-99.7 -293.5)"/>
      <path id="Trazado_771788" data-name="Trazado 771788" d="M145.9,354.7a.9.9,0,0,1-.9-.9v-5.4a.9.9,0,0,1,.9-.9h5.4a.9.9,0,1,1,0,1.8h-4.5v4.5A.9.9,0,0,1,145.9,354.7Z" transform="translate(-124.3 -293.5)"/>
      <path id="Trazado_771789" data-name="Trazado 771789" d="M175.9,354.7a.9.9,0,0,1-.9-.9v-5.4a.9.9,0,0,1,.9-.9h5.4a.9.9,0,1,1,0,1.8h-4.5v4.5A.9.9,0,0,1,175.9,354.7Z" transform="translate(-148.9 -293.5)"/>
      <path id="Trazado_771790" data-name="Trazado 771790" d="M205.9,354.7a.9.9,0,0,1-.9-.9v-5.4a.9.9,0,0,1,.9-.9h5.4a.9.9,0,0,1,0,1.8h-4.5v4.5A.9.9,0,0,1,205.9,354.7Z" transform="translate(-173.5 -293.5)"/>
      <path id="Trazado_771791" data-name="Trazado 771791" d="M235.9,354.7a.9.9,0,0,1-.9-.9v-5.4a.9.9,0,0,1,.9-.9h5.4a.9.9,0,0,1,0,1.8h-4.5v4.5A.9.9,0,0,1,235.9,354.7Z" transform="translate(-198.1 -293.5)"/>
      <path id="Trazado_771792" data-name="Trazado 771792" d="M265.9,354.7a.9.9,0,0,1-.9-.9v-5.4a.9.9,0,0,1,.9-.9h5.4a.9.9,0,0,1,0,1.8h-4.5v4.5A.9.9,0,0,1,265.9,354.7Z" transform="translate(-222.7 -293.5)"/>
      <path id="Trazado_771793" data-name="Trazado 771793" d="M55.9,384.7a.9.9,0,0,1-.9-.9v-5.4a.9.9,0,0,1,.9-.9h5.4a.9.9,0,1,1,0,1.8H56.8v4.5A.9.9,0,0,1,55.9,384.7Z" transform="translate(-50.5 -318.1)"/>
      <path id="Trazado_771794" data-name="Trazado 771794" d="M85.9,384.7a.9.9,0,0,1-.9-.9v-5.4a.9.9,0,0,1,.9-.9h5.4a.9.9,0,1,1,0,1.8H86.8v4.5A.9.9,0,0,1,85.9,384.7Z" transform="translate(-75.1 -318.1)"/>
      <path id="Trazado_771795" data-name="Trazado 771795" d="M115.9,384.7a.9.9,0,0,1-.9-.9v-5.4a.9.9,0,0,1,.9-.9h5.4a.9.9,0,1,1,0,1.8h-4.5v4.5A.9.9,0,0,1,115.9,384.7Z" transform="translate(-99.7 -318.1)"/>
      <path id="Trazado_771796" data-name="Trazado 771796" d="M145.9,384.7a.9.9,0,0,1-.9-.9v-5.4a.9.9,0,0,1,.9-.9h5.4a.9.9,0,1,1,0,1.8h-4.5v4.5A.9.9,0,0,1,145.9,384.7Z" transform="translate(-124.3 -318.1)"/>
      <path id="Trazado_771797" data-name="Trazado 771797" d="M175.9,384.7a.9.9,0,0,1-.9-.9v-5.4a.9.9,0,0,1,.9-.9h5.4a.9.9,0,1,1,0,1.8h-4.5v4.5A.9.9,0,0,1,175.9,384.7Z" transform="translate(-148.9 -318.1)"/>
      <path id="Trazado_771798" data-name="Trazado 771798" d="M205.9,384.7a.9.9,0,0,1-.9-.9v-5.4a.9.9,0,0,1,.9-.9h5.4a.9.9,0,1,1,0,1.8h-4.5v4.5A.9.9,0,0,1,205.9,384.7Z" transform="translate(-173.5 -318.1)"/>
      <path id="Trazado_771799" data-name="Trazado 771799" d="M235.9,384.7a.9.9,0,0,1-.9-.9v-5.4a.9.9,0,0,1,.9-.9h5.4a.9.9,0,1,1,0,1.8h-4.5v4.5A.9.9,0,0,1,235.9,384.7Z" transform="translate(-198.1 -318.1)"/>
      <path id="Trazado_771800" data-name="Trazado 771800" d="M276.7,360.1a.9.9,0,0,1-.9-.9v-9.9h-3.6v4.5a.9.9,0,0,1-.9.9h-4.5v4.5a.9.9,0,1,1-1.8,0v-5.4a.9.9,0,0,1,.9-.9h4.5v-4.5a.9.9,0,0,1,.9-.9h5.4a.9.9,0,0,1,.9.9v10.8A.9.9,0,0,1,276.7,360.1Z" transform="translate(-222.7 -293.5)"/>
      <path id="Trazado_771801" data-name="Trazado 771801" d="M61.3,414.7H55.9a.9.9,0,0,1-.9-.9v-5.4a.9.9,0,0,1,.9-.9h5.4a.9.9,0,0,1,0,1.8H56.8v3.6h4.5a.9.9,0,1,1,0,1.8Z" transform="translate(-50.5 -342.7)"/>
      <path id="Trazado_771802" data-name="Trazado 771802" d="M91.3,414.7H85.9a.9.9,0,0,1-.9-.9v-5.4a.9.9,0,0,1,.9-.9h5.4a.9.9,0,0,1,0,1.8H86.8v3.6h4.5a.9.9,0,0,1,0,1.8Z" transform="translate(-75.1 -342.7)"/>
      <path id="Trazado_771803" data-name="Trazado 771803" d="M137.5,414.7H115.9a.9.9,0,0,1-.9-.9v-5.4a.9.9,0,0,1,.9-.9h21.6a.9.9,0,0,1,0,1.8H116.8v3.6h20.7a.9.9,0,0,1,0,1.8Z" transform="translate(-99.7 -342.7)"/>
      <path id="Trazado_771804" data-name="Trazado 771804" d="M241.3,414.7h-5.4a.9.9,0,0,1-.9-.9v-5.4a.9.9,0,0,1,.9-.9h5.4a.9.9,0,0,1,0,1.8h-4.5v3.6h4.5a.9.9,0,1,1,0,1.8Z" transform="translate(-198.1 -342.7)"/>
      <path id="Trazado_771805" data-name="Trazado 771805" d="M271.3,414.7h-5.4a.9.9,0,0,1-.9-.9v-5.4a.9.9,0,0,1,.9-.9h5.4a.9.9,0,0,1,0,1.8h-4.5v3.6h4.5a.9.9,0,0,1,0,1.8Z" transform="translate(-222.7 -342.7)"/>
      <path id="Trazado_771806" data-name="Trazado 771806" d="M301.3,414.7h-5.4a.9.9,0,0,1-.9-.9v-5.4a.9.9,0,0,1,.9-.9h5.4a.9.9,0,0,1,.9.9v5.4A.9.9,0,0,1,301.3,414.7Zm-4.5-1.8h3.6v-3.6h-3.6Z" transform="translate(-247.3 -342.7)"/>
      <path id="Trazado_771807" data-name="Trazado 771807" d="M401.3,349.3h-5.4a.9.9,0,0,1,0-1.8h5.4a.9.9,0,1,1,0,1.8Z" transform="translate(-329.3 -293.5)"/>
      <path id="Trazado_771808" data-name="Trazado 771808" d="M431.3,354.7a.9.9,0,0,1-.9-.9v-4.5h-3.6v4.5a.9.9,0,1,1-1.8,0v-5.4a.9.9,0,0,1,.9-.9h5.4a.9.9,0,0,1,.9.9v5.4A.9.9,0,0,1,431.3,354.7Z" transform="translate(-353.9 -293.5)"/>
      <path id="Trazado_771809" data-name="Trazado 771809" d="M401.3,379.3h-5.4a.9.9,0,1,1,0-1.8h5.4a.9.9,0,1,1,0,1.8Z" transform="translate(-329.3 -318.1)"/>
      <path id="Trazado_771810" data-name="Trazado 771810" d="M401.3,439.3h-5.4a.9.9,0,0,1,0-1.8h5.4a.9.9,0,1,1,0,1.8Z" transform="translate(-329.3 -367.3)"/>
      <path id="Trazado_771811" data-name="Trazado 771811" d="M401.3,409.3h-5.4a.9.9,0,0,1,0-1.8h5.4a.9.9,0,1,1,0,1.8Z" transform="translate(-329.3 -342.7)"/>
      <path id="Trazado_771812" data-name="Trazado 771812" d="M371.3,354.7a.9.9,0,0,1-.9-.9v-4.5h-3.6v4.5a.9.9,0,1,1-1.8,0v-5.4a.9.9,0,0,1,.9-.9h5.4a.9.9,0,0,1,.9.9v5.4A.9.9,0,0,1,371.3,354.7Z" transform="translate(-304.7 -293.5)"/>
      <path id="Trazado_771813" data-name="Trazado 771813" d="M371.3,384.7a.9.9,0,0,1-.9-.9v-4.5h-3.6v4.5a.9.9,0,0,1-1.8,0v-5.4a.9.9,0,0,1,.9-.9h5.4a.9.9,0,0,1,.9.9v5.4A.9.9,0,0,1,371.3,384.7Z" transform="translate(-304.7 -318.1)"/>
      <path id="Trazado_771814" data-name="Trazado 771814" d="M371.3,414.7h-5.4a.9.9,0,0,1-.9-.9v-5.4a.9.9,0,0,1,.9-.9h5.4a.9.9,0,0,1,.9.9v5.4A.9.9,0,0,1,371.3,414.7Zm-4.5-1.8h3.6v-3.6h-3.6Z" transform="translate(-304.7 -342.7)"/>
      <path id="Trazado_771815" data-name="Trazado 771815" d="M431.3,390.1h-5.4a.9.9,0,0,1-.9-.9V378.4a.9.9,0,0,1,.9-.9h5.4a.9.9,0,0,1,.9.9v10.8A.9.9,0,0,1,431.3,390.1Zm-4.5-1.8h3.6v-9h-3.6Z" transform="translate(-353.9 -318.1)"/>
      <path id="Trazado_771816" data-name="Trazado 771816" d="M243.1,240.6h-7.2a.9.9,0,0,1-.9-.9V237a4.5,4.5,0,0,1,9,0v2.7A.9.9,0,0,1,243.1,240.6Zm-6.3-1.8h5.4V237a2.7,2.7,0,0,0-5.4,0Z" transform="translate(-198.1 -199.2)"/>
      <path id="Trazado_771817" data-name="Trazado 771817" d="M277.5,189.3H255.9a.9.9,0,0,1,0-1.8h21.6a.9.9,0,1,1,0,1.8Z" transform="translate(-214.5 -162.3)"/>
      <path id="Trazado_771818" data-name="Trazado 771818" d="M132.9,119.6H113.55a8.55,8.55,0,0,1,0-17.1h7.83a12.434,12.434,0,0,1,12.42,12.42v3.78A.9.9,0,0,1,132.9,119.6Zm-19.35-15.3a6.75,6.75,0,0,0,0,13.5H132v-2.88a10.632,10.632,0,0,0-10.62-10.62Z" transform="translate(-91.5 -92.6)"/>
      <path id="Trazado_771819" data-name="Trazado 771819" d="M255.9,197.4a.9.9,0,0,1-.9-.9v-8.1a.9.9,0,1,1,1.8,0v8.1A.9.9,0,0,1,255.9,197.4Z" transform="translate(-214.5 -162.3)"/>
      <path id="Trazado_771820" data-name="Trazado 771820" d="M386.7,176.5H375.9a.9.9,0,0,1-.9-.9v-7.2a.9.9,0,0,1,.9-.9h10.8a.9.9,0,0,1,.9.9v1.8a.9.9,0,1,1-1.8,0v-.9h-9v5.4h9v-.9a.9.9,0,1,1,1.8,0v1.8A.9.9,0,0,1,386.7,176.5Z" transform="translate(-312.9 -145.9)"/>
      <path id="Trazado_771821" data-name="Trazado 771821" d="M440.4,182.9h-4.5a.9.9,0,0,1-.9-.9v-3.6a.9.9,0,0,1,.9-.9h4.5a.9.9,0,0,1,.9.9V182A.9.9,0,0,1,440.4,182.9Zm-3.6-1.8h2.7v-1.8h-2.7Z" transform="translate(-362.1 -154.1)"/>
      <path id="Trazado_771822" data-name="Trazado 771822" d="M395.9,176.5a.9.9,0,0,1-.9-.9v-7.2a.9.9,0,0,1,1.8,0v7.2A.9.9,0,0,1,395.9,176.5Z" transform="translate(-329.3 -145.9)"/>
      <path id="Trazado_771823" data-name="Trazado 771823" d="M380.4,58.3a5.4,5.4,0,1,1,5.4-5.4A5.406,5.406,0,0,1,380.4,58.3Zm0-9a3.6,3.6,0,1,0,3.6,3.6A3.6,3.6,0,0,0,380.4,49.3Z" transform="translate(-312.9 -47.5)"/>
      <path id="Trazado_771824" data-name="Trazado 771824" d="M69.5,206.5A4.5,4.5,0,1,1,74,202,4.505,4.505,0,0,1,69.5,206.5Zm0-7.2a2.7,2.7,0,1,0,2.7,2.7A2.7,2.7,0,0,0,69.5,199.3Z" transform="translate(-58.7 -170.5)"/>
      <path id="Trazado_771825" data-name="Trazado 771825" d="M116,276.37v27.36a3.87,3.87,0,0,1-3.87,3.87H38.87A3.871,3.871,0,0,1,35,303.73V276.37a3.871,3.871,0,0,1,3.87-3.87h73.26A3.87,3.87,0,0,1,116,276.37Z" transform="translate(-34.1 -232)" fill="#57606f"/>
      <path id="Trazado_771826" data-name="Trazado 771826" d="M141.6,417.9H120v-5.4h21.6Z" transform="translate(-103.8 -346.8)" fill="#95e6f9"/>
      <path id="Trazado_771827" data-name="Trazado 771827" d="M430,387.9v-5.4h5.4v10.8H430Z" transform="translate(-358 -322.2)" fill="#ff4957"/>
      <path id="Trazado_771828" data-name="Trazado 771828" d="M270,363.3v-5.4h5.4v-5.4h5.4v10.8H270Z" transform="translate(-226.8 -297.6)" fill="#ff4957"/>
      <path id="Trazado_771829" data-name="Trazado 771829" d="M270,412.5h5.4v5.4H270Z" transform="translate(-226.8 -346.8)" fill="#a0b5c5"/>
      <path id="Trazado_771830" data-name="Trazado 771830" d="M90,412.5h5.4v5.4H90Z" transform="translate(-79.2 -346.8)" fill="#a0b5c5"/>
      <path id="Trazado_771831" data-name="Trazado 771831" d="M60,382.5h5.4v5.4H60Z" transform="translate(-54.6 -322.2)" fill="#a0b5c5"/>
      <path id="Trazado_771832" data-name="Trazado 771832" d="M120,382.5h5.4v5.4H120Z" transform="translate(-103.8 -322.2)" fill="#a0b5c5"/>
      <path id="Trazado_771833" data-name="Trazado 771833" d="M180,382.5h5.4v5.4H180Z" transform="translate(-153 -322.2)" fill="#a0b5c5"/>
      <path id="Trazado_771834" data-name="Trazado 771834" d="M240,382.5h5.4v5.4H240Z" transform="translate(-202.2 -322.2)" fill="#a0b5c5"/>
      <path id="Trazado_771835" data-name="Trazado 771835" d="M270,352.5h5.4v5.4H270Z" transform="translate(-226.8 -297.6)" fill="#a0b5c5"/>
      <path id="Trazado_771836" data-name="Trazado 771836" d="M210,352.5h5.4v5.4H210Z" transform="translate(-177.6 -297.6)" fill="#a0b5c5"/>
      <path id="Trazado_771837" data-name="Trazado 771837" d="M150,352.5h5.4v5.4H150Z" transform="translate(-128.4 -297.6)" fill="#a0b5c5"/>
      <path id="Trazado_771838" data-name="Trazado 771838" d="M90,352.5h5.4v5.4H90Z" transform="translate(-79.2 -297.6)" fill="#a0b5c5"/>
      <path id="Trazado_771839" data-name="Trazado 771839" d="M210,297.5h5.4v5.4H210Z" transform="translate(-177.6 -252.5)" fill="#a0b5c5"/>
      <path id="Trazado_771840" data-name="Trazado 771840" d="M270,297.5h5.4v5.4H270Z" transform="translate(-226.8 -252.5)" fill="#a0b5c5"/>
      <path id="Trazado_771841" data-name="Trazado 771841" d="M150,297.5h5.4v5.4H150Z" transform="translate(-128.4 -252.5)" fill="#a0b5c5"/>
      <path id="Trazado_771842" data-name="Trazado 771842" d="M370,382.5h5.4v5.4H370Z" transform="translate(-308.8 -322.2)" fill="#a0b5c5"/>
      <path id="Trazado_771843" data-name="Trazado 771843" d="M400,352.5h5.4v5.4H400Z" transform="translate(-333.4 -297.6)" fill="#a0b5c5"/>
      <path id="Trazado_771844" data-name="Trazado 771844" d="M400,412.5h5.4v5.4H400Z" transform="translate(-333.4 -346.8)" fill="#59d9a4"/>
      <ellipse id="Elipse_6152" data-name="Elipse 6152" cx="1.142" cy="1.713" rx="1.142" ry="1.713" transform="translate(76.5 11.418)"/>
      <path id="Trazado_771845" data-name="Trazado 771845" d="M440,182.5h4.5v3.6H440Z" transform="translate(-366.2 -158.2)" fill="#a0b5c5"/>
      <circle id="Elipse_6153" data-name="Elipse 6153" cx="1.713" cy="1.713" r="1.713" transform="translate(75.358 33.112)"/>
      <path id="Trazado_771846" data-name="Trazado 771846" d="M430,352.5h5.4v5.4H430Z" transform="translate(-358 -297.6)" fill="#ffd400"/>
      <path id="Trazado_771847" data-name="Trazado 771847" d="M430,302.5h5.4v3.6H430Z" transform="translate(-358 -256.6)" fill="#ff4957"/>
      <path id="Trazado_771848" data-name="Trazado 771848" d="M407.2,177.9v1.8H400v-7.2h7.2v5.4Z" transform="translate(-333.4 -150)" fill="#7d89aa"/>
      <path id="Trazado_771849" data-name="Trazado 771849" d="M400,382.5h5.4v5.4H400Z" transform="translate(-333.4 -322.2)" fill="#d0dce7"/>
      <path id="Trazado_771850" data-name="Trazado 771850" d="M400,302.5h5.4v3.6H400Z" transform="translate(-333.4 -256.6)" fill="#95e6f9"/>
      <path id="Trazado_771851" data-name="Trazado 771851" d="M384.5,52.5A4.5,4.5,0,1,1,380,57,4.5,4.5,0,0,1,384.5,52.5Z" transform="translate(-317 -51.6)" fill="#f88f19"/>
      <path id="Trazado_771852" data-name="Trazado 771852" d="M370,412.5h5.4v5.4H370Z" transform="translate(-308.8 -346.8)" fill="#d0dce7"/>
      <path id="Trazado_771853" data-name="Trazado 771853" d="M370,352.5h5.4v5.4H370Z" transform="translate(-308.8 -297.6)" fill="#d0dce7"/>
      <path id="Trazado_771854" data-name="Trazado 771854" d="M370,302.5h5.4v3.6H370Z" transform="translate(-308.8 -256.6)" fill="#d7e816"/>
      <path id="Trazado_771855" data-name="Trazado 771855" d="M383.6,172.5v7.2H380v-7.2Z" transform="translate(-317 -150)" fill="#5c6887"/>
      <path id="Trazado_771856" data-name="Trazado 771856" d="M300,412.5h5.4v5.4H300Z" transform="translate(-251.4 -346.8)" fill="#d0dce7"/>
      <path id="Trazado_771857" data-name="Trazado 771857" d="M300,297.5h5.4v5.4H300Z" transform="translate(-251.4 -252.5)" fill="#d0dce7"/>
      <ellipse id="Elipse_6154" data-name="Elipse 6154" cx="1.713" cy="1.142" rx="1.713" ry="1.142" transform="translate(50.239 7.993)"/>
      <circle id="Elipse_6155" data-name="Elipse 6155" cx="1.142" cy="1.142" r="1.142" transform="translate(47.955 29.687)"/>
      <path id="Trazado_771858" data-name="Trazado 771858" d="M247.2,241.1v2.7H240v-2.7a3.6,3.6,0,0,1,7.2,0Z" transform="translate(-202.2 -203.3)" fill="#414a56"/>
      <path id="Trazado_771859" data-name="Trazado 771859" d="M240,412.5h5.4v5.4H240Z" transform="translate(-202.2 -346.8)" fill="#d0dce7"/>
      <path id="Trazado_771860" data-name="Trazado 771860" d="M240,352.5h5.4v5.4H240Z" transform="translate(-202.2 -297.6)" fill="#d0dce7"/>
      <path id="Trazado_771861" data-name="Trazado 771861" d="M240,297.5h5.4v5.4H240Z" transform="translate(-202.2 -252.5)" fill="#d0dce7"/>
      <path id="Trazado_771862" data-name="Trazado 771862" d="M210,382.5h5.4v5.4H210Z" transform="translate(-177.6 -322.2)" fill="#d0dce7"/>
      <path id="Trazado_771863" data-name="Trazado 771863" d="M180,352.5h5.4v5.4H180Z" transform="translate(-153 -297.6)" fill="#d0dce7"/>
      <path id="Trazado_771864" data-name="Trazado 771864" d="M180,297.5h5.4v5.4H180Z" transform="translate(-153 -252.5)" fill="#d0dce7"/>
      <path id="Trazado_771865" data-name="Trazado 771865" d="M150,382.5h5.4v5.4H150Z" transform="translate(-128.4 -322.2)" fill="#d0dce7"/>
      <ellipse id="Elipse_6156" data-name="Elipse 6156" cx="1.713" cy="1.142" rx="1.713" ry="1.142" transform="translate(22.836 0)"/>
      <ellipse id="Elipse_6157" data-name="Elipse 6157" cx="1.713" cy="1.142" rx="1.713" ry="1.142" transform="translate(22.836 31.97)"/>
      <path id="Trazado_771866" data-name="Trazado 771866" d="M120,352.5h5.4v5.4H120Z" transform="translate(-103.8 -297.6)" fill="#d0dce7"/>
      <path id="Trazado_771867" data-name="Trazado 771867" d="M120,297.5h5.4v5.4H120Z" transform="translate(-103.8 -252.5)" fill="#d0dce7"/>
      <path id="Trazado_771868" data-name="Trazado 771868" d="M90,382.5h5.4v5.4H90Z" transform="translate(-79.2 -322.2)" fill="#d0dce7"/>
      <path id="Trazado_771869" data-name="Trazado 771869" d="M73.6,202.5a3.6,3.6,0,1,1-3.6,3.6A3.6,3.6,0,0,1,73.6,202.5Z" transform="translate(-62.8 -174.6)" fill="#f88f19"/>
      <path id="Trazado_771870" data-name="Trazado 771870" d="M60,412.5h5.4v5.4H60Z" transform="translate(-54.6 -346.8)" fill="#d0dce7"/>
      <path id="Trazado_771871" data-name="Trazado 771871" d="M60,352.5h5.4v5.4H60Z" transform="translate(-54.6 -297.6)" fill="#d0dce7"/>
      <path id="Trazado_771872" data-name="Trazado 771872" d="M60,297.5h5.4v5.4H60Z" transform="translate(-54.6 -252.5)" fill="#95e6f9"/>
      <circle id="Elipse_6158" data-name="Elipse 6158" cx="1.142" cy="1.142" r="1.142" transform="translate(5.709 9.134)"/>
      <path id="Trazado_771873" data-name="Trazado 771873" d="M108.03,304.4H34.77A4.775,4.775,0,0,1,30,299.63V272.27a4.775,4.775,0,0,1,4.77-4.77H67.8a.9.9,0,0,1,0,1.8H34.77a2.973,2.973,0,0,0-2.97,2.97v27.36a2.973,2.973,0,0,0,2.97,2.97h73.26a2.973,2.973,0,0,0,2.97-2.97V272.27a2.973,2.973,0,0,0-2.97-2.97H75a.9.9,0,0,1,0-1.8h33.03a4.775,4.775,0,0,1,4.77,4.77v27.36A4.775,4.775,0,0,1,108.03,304.4Z" transform="translate(-30 -227.9)"/>
      <path id="Trazado_771874" data-name="Trazado 771874" d="M61.3,299.7H55.9a.9.9,0,0,1-.9-.9v-5.4a.9.9,0,0,1,.9-.9h5.4a.9.9,0,0,1,.9.9v5.4A.9.9,0,0,1,61.3,299.7Zm-4.5-1.8h3.6v-3.6H56.8Z" transform="translate(-50.5 -248.4)"/>
      <path id="Trazado_771875" data-name="Trazado 771875" d="M121.3,299.7h-5.4a.9.9,0,0,1-.9-.9v-5.4a.9.9,0,0,1,.9-.9h5.4a.9.9,0,1,1,0,1.8h-4.5v3.6h4.5a.9.9,0,1,1,0,1.8Z" transform="translate(-99.7 -248.4)"/>
      <path id="Trazado_771876" data-name="Trazado 771876" d="M151.3,299.7h-5.4a.9.9,0,0,1-.9-.9v-5.4a.9.9,0,0,1,.9-.9h5.4a.9.9,0,1,1,0,1.8h-4.5v3.6h4.5a.9.9,0,1,1,0,1.8Z" transform="translate(-124.3 -248.4)"/>
      <path id="Trazado_771877" data-name="Trazado 771877" d="M181.3,299.7h-5.4a.9.9,0,0,1-.9-.9v-5.4a.9.9,0,0,1,.9-.9h5.4a.9.9,0,1,1,0,1.8h-4.5v3.6h4.5a.9.9,0,1,1,0,1.8Z" transform="translate(-148.9 -248.4)"/>
      <path id="Trazado_771878" data-name="Trazado 771878" d="M211.3,299.7h-5.4a.9.9,0,0,1-.9-.9v-5.4a.9.9,0,0,1,.9-.9h5.4a.9.9,0,0,1,0,1.8h-4.5v3.6h4.5a.9.9,0,0,1,0,1.8Z" transform="translate(-173.5 -248.4)"/>
      <path id="Trazado_771879" data-name="Trazado 771879" d="M241.3,299.7h-5.4a.9.9,0,0,1-.9-.9v-5.4a.9.9,0,0,1,.9-.9h5.4a.9.9,0,0,1,0,1.8h-4.5v3.6h4.5a.9.9,0,0,1,0,1.8Z" transform="translate(-198.1 -248.4)"/>
      <path id="Trazado_771880" data-name="Trazado 771880" d="M271.3,299.7h-5.4a.9.9,0,0,1-.9-.9v-5.4a.9.9,0,0,1,.9-.9h5.4a.9.9,0,1,1,0,1.8h-4.5v3.6h4.5a.9.9,0,0,1,0,1.8Z" transform="translate(-222.7 -248.4)"/>
      <path id="Trazado_771881" data-name="Trazado 771881" d="M301.3,299.7h-5.4a.9.9,0,0,1-.9-.9v-5.4a.9.9,0,0,1,.9-.9h5.4a.9.9,0,0,1,.9.9v5.4A.9.9,0,0,1,301.3,299.7Zm-4.5-1.8h3.6v-3.6h-3.6Z" transform="translate(-247.3 -248.4)"/>
      <path id="Trazado_771882" data-name="Trazado 771882" d="M401.3,319.3h-5.4a.9.9,0,0,1,0-1.8h5.4a.9.9,0,1,1,0,1.8Z" transform="translate(-329.3 -268.9)"/>
      <path id="Trazado_771883" data-name="Trazado 771883" d="M401.3,299.3h-5.4a.9.9,0,1,1,0-1.8h5.4a.9.9,0,1,1,0,1.8Z" transform="translate(-329.3 -252.5)"/>
      <path id="Trazado_771884" data-name="Trazado 771884" d="M371.3,302.9h-5.4a.9.9,0,0,1-.9-.9v-3.6a.9.9,0,0,1,.9-.9h5.4a.9.9,0,0,1,.9.9V302A.9.9,0,0,1,371.3,302.9Zm-4.5-1.8h3.6v-1.8h-3.6Z" transform="translate(-304.7 -252.5)"/>
      <path id="Trazado_771885" data-name="Trazado 771885" d="M431.3,302.9h-5.4a.9.9,0,0,1-.9-.9v-3.6a.9.9,0,0,1,.9-.9h5.4a.9.9,0,0,1,.9.9V302A.9.9,0,0,1,431.3,302.9Zm-4.5-1.8h3.6v-1.8h-3.6Z" transform="translate(-353.9 -252.5)"/>
      <path id="Trazado_771886" data-name="Trazado 771886" d="M55.9,354.7a.9.9,0,0,1-.9-.9v-5.4a.9.9,0,0,1,.9-.9h5.4a.9.9,0,0,1,0,1.8H56.8v4.5A.9.9,0,0,1,55.9,354.7Z" transform="translate(-50.5 -293.5)"/>
      <path id="Trazado_771887" data-name="Trazado 771887" d="M85.9,354.7a.9.9,0,0,1-.9-.9v-5.4a.9.9,0,0,1,.9-.9h5.4a.9.9,0,0,1,0,1.8H86.8v4.5A.9.9,0,0,1,85.9,354.7Z" transform="translate(-75.1 -293.5)"/>
      <path id="Trazado_771888" data-name="Trazado 771888" d="M115.9,354.7a.9.9,0,0,1-.9-.9v-5.4a.9.9,0,0,1,.9-.9h5.4a.9.9,0,1,1,0,1.8h-4.5v4.5A.9.9,0,0,1,115.9,354.7Z" transform="translate(-99.7 -293.5)"/>
      <path id="Trazado_771889" data-name="Trazado 771889" d="M145.9,354.7a.9.9,0,0,1-.9-.9v-5.4a.9.9,0,0,1,.9-.9h5.4a.9.9,0,1,1,0,1.8h-4.5v4.5A.9.9,0,0,1,145.9,354.7Z" transform="translate(-124.3 -293.5)"/>
      <path id="Trazado_771890" data-name="Trazado 771890" d="M175.9,354.7a.9.9,0,0,1-.9-.9v-5.4a.9.9,0,0,1,.9-.9h5.4a.9.9,0,1,1,0,1.8h-4.5v4.5A.9.9,0,0,1,175.9,354.7Z" transform="translate(-148.9 -293.5)"/>
      <path id="Trazado_771891" data-name="Trazado 771891" d="M205.9,354.7a.9.9,0,0,1-.9-.9v-5.4a.9.9,0,0,1,.9-.9h5.4a.9.9,0,0,1,0,1.8h-4.5v4.5A.9.9,0,0,1,205.9,354.7Z" transform="translate(-173.5 -293.5)"/>
      <path id="Trazado_771892" data-name="Trazado 771892" d="M235.9,354.7a.9.9,0,0,1-.9-.9v-5.4a.9.9,0,0,1,.9-.9h5.4a.9.9,0,0,1,0,1.8h-4.5v4.5A.9.9,0,0,1,235.9,354.7Z" transform="translate(-198.1 -293.5)"/>
      <path id="Trazado_771893" data-name="Trazado 771893" d="M265.9,354.7a.9.9,0,0,1-.9-.9v-5.4a.9.9,0,0,1,.9-.9h5.4a.9.9,0,0,1,0,1.8h-4.5v4.5A.9.9,0,0,1,265.9,354.7Z" transform="translate(-222.7 -293.5)"/>
      <path id="Trazado_771894" data-name="Trazado 771894" d="M55.9,384.7a.9.9,0,0,1-.9-.9v-5.4a.9.9,0,0,1,.9-.9h5.4a.9.9,0,1,1,0,1.8H56.8v4.5A.9.9,0,0,1,55.9,384.7Z" transform="translate(-50.5 -318.1)"/>
      <path id="Trazado_771895" data-name="Trazado 771895" d="M85.9,384.7a.9.9,0,0,1-.9-.9v-5.4a.9.9,0,0,1,.9-.9h5.4a.9.9,0,1,1,0,1.8H86.8v4.5A.9.9,0,0,1,85.9,384.7Z" transform="translate(-75.1 -318.1)"/>
      <path id="Trazado_771896" data-name="Trazado 771896" d="M115.9,384.7a.9.9,0,0,1-.9-.9v-5.4a.9.9,0,0,1,.9-.9h5.4a.9.9,0,1,1,0,1.8h-4.5v4.5A.9.9,0,0,1,115.9,384.7Z" transform="translate(-99.7 -318.1)"/>
      <path id="Trazado_771897" data-name="Trazado 771897" d="M145.9,384.7a.9.9,0,0,1-.9-.9v-5.4a.9.9,0,0,1,.9-.9h5.4a.9.9,0,1,1,0,1.8h-4.5v4.5A.9.9,0,0,1,145.9,384.7Z" transform="translate(-124.3 -318.1)"/>
      <path id="Trazado_771898" data-name="Trazado 771898" d="M175.9,384.7a.9.9,0,0,1-.9-.9v-5.4a.9.9,0,0,1,.9-.9h5.4a.9.9,0,1,1,0,1.8h-4.5v4.5A.9.9,0,0,1,175.9,384.7Z" transform="translate(-148.9 -318.1)"/>
      <path id="Trazado_771899" data-name="Trazado 771899" d="M205.9,384.7a.9.9,0,0,1-.9-.9v-5.4a.9.9,0,0,1,.9-.9h5.4a.9.9,0,1,1,0,1.8h-4.5v4.5A.9.9,0,0,1,205.9,384.7Z" transform="translate(-173.5 -318.1)"/>
      <path id="Trazado_771900" data-name="Trazado 771900" d="M235.9,384.7a.9.9,0,0,1-.9-.9v-5.4a.9.9,0,0,1,.9-.9h5.4a.9.9,0,1,1,0,1.8h-4.5v4.5A.9.9,0,0,1,235.9,384.7Z" transform="translate(-198.1 -318.1)"/>
      <path id="Trazado_771901" data-name="Trazado 771901" d="M276.7,360.1a.9.9,0,0,1-.9-.9v-9.9h-3.6v4.5a.9.9,0,0,1-.9.9h-4.5v4.5a.9.9,0,1,1-1.8,0v-5.4a.9.9,0,0,1,.9-.9h4.5v-4.5a.9.9,0,0,1,.9-.9h5.4a.9.9,0,0,1,.9.9v10.8A.9.9,0,0,1,276.7,360.1Z" transform="translate(-222.7 -293.5)"/>
      <path id="Trazado_771902" data-name="Trazado 771902" d="M61.3,414.7H55.9a.9.9,0,0,1-.9-.9v-5.4a.9.9,0,0,1,.9-.9h5.4a.9.9,0,0,1,0,1.8H56.8v3.6h4.5a.9.9,0,1,1,0,1.8Z" transform="translate(-50.5 -342.7)"/>
      <path id="Trazado_771903" data-name="Trazado 771903" d="M91.3,414.7H85.9a.9.9,0,0,1-.9-.9v-5.4a.9.9,0,0,1,.9-.9h5.4a.9.9,0,0,1,0,1.8H86.8v3.6h4.5a.9.9,0,0,1,0,1.8Z" transform="translate(-75.1 -342.7)"/>
      <path id="Trazado_771904" data-name="Trazado 771904" d="M137.5,414.7H115.9a.9.9,0,0,1-.9-.9v-5.4a.9.9,0,0,1,.9-.9h21.6a.9.9,0,0,1,0,1.8H116.8v3.6h20.7a.9.9,0,0,1,0,1.8Z" transform="translate(-99.7 -342.7)"/>
      <path id="Trazado_771905" data-name="Trazado 771905" d="M241.3,414.7h-5.4a.9.9,0,0,1-.9-.9v-5.4a.9.9,0,0,1,.9-.9h5.4a.9.9,0,0,1,0,1.8h-4.5v3.6h4.5a.9.9,0,1,1,0,1.8Z" transform="translate(-198.1 -342.7)"/>
      <path id="Trazado_771906" data-name="Trazado 771906" d="M271.3,414.7h-5.4a.9.9,0,0,1-.9-.9v-5.4a.9.9,0,0,1,.9-.9h5.4a.9.9,0,0,1,0,1.8h-4.5v3.6h4.5a.9.9,0,0,1,0,1.8Z" transform="translate(-222.7 -342.7)"/>
      <path id="Trazado_771907" data-name="Trazado 771907" d="M301.3,414.7h-5.4a.9.9,0,0,1-.9-.9v-5.4a.9.9,0,0,1,.9-.9h5.4a.9.9,0,0,1,.9.9v5.4A.9.9,0,0,1,301.3,414.7Zm-4.5-1.8h3.6v-3.6h-3.6Z" transform="translate(-247.3 -342.7)"/>
      <path id="Trazado_771908" data-name="Trazado 771908" d="M401.3,349.3h-5.4a.9.9,0,0,1,0-1.8h5.4a.9.9,0,1,1,0,1.8Z" transform="translate(-329.3 -293.5)"/>
      <path id="Trazado_771909" data-name="Trazado 771909" d="M431.3,354.7a.9.9,0,0,1-.9-.9v-4.5h-3.6v4.5a.9.9,0,1,1-1.8,0v-5.4a.9.9,0,0,1,.9-.9h5.4a.9.9,0,0,1,.9.9v5.4A.9.9,0,0,1,431.3,354.7Z" transform="translate(-353.9 -293.5)"/>
      <path id="Trazado_771910" data-name="Trazado 771910" d="M401.3,379.3h-5.4a.9.9,0,1,1,0-1.8h5.4a.9.9,0,1,1,0,1.8Z" transform="translate(-329.3 -318.1)"/>
      <path id="Trazado_771911" data-name="Trazado 771911" d="M401.3,439.3h-5.4a.9.9,0,0,1,0-1.8h5.4a.9.9,0,1,1,0,1.8Z" transform="translate(-329.3 -367.3)"/>
      <path id="Trazado_771912" data-name="Trazado 771912" d="M401.3,409.3h-5.4a.9.9,0,0,1,0-1.8h5.4a.9.9,0,1,1,0,1.8Z" transform="translate(-329.3 -342.7)"/>
      <path id="Trazado_771913" data-name="Trazado 771913" d="M371.3,354.7a.9.9,0,0,1-.9-.9v-4.5h-3.6v4.5a.9.9,0,1,1-1.8,0v-5.4a.9.9,0,0,1,.9-.9h5.4a.9.9,0,0,1,.9.9v5.4A.9.9,0,0,1,371.3,354.7Z" transform="translate(-304.7 -293.5)"/>
      <path id="Trazado_771914" data-name="Trazado 771914" d="M371.3,384.7a.9.9,0,0,1-.9-.9v-4.5h-3.6v4.5a.9.9,0,0,1-1.8,0v-5.4a.9.9,0,0,1,.9-.9h5.4a.9.9,0,0,1,.9.9v5.4A.9.9,0,0,1,371.3,384.7Z" transform="translate(-304.7 -318.1)"/>
      <path id="Trazado_771915" data-name="Trazado 771915" d="M371.3,414.7h-5.4a.9.9,0,0,1-.9-.9v-5.4a.9.9,0,0,1,.9-.9h5.4a.9.9,0,0,1,.9.9v5.4A.9.9,0,0,1,371.3,414.7Zm-4.5-1.8h3.6v-3.6h-3.6Z" transform="translate(-304.7 -342.7)"/>
      <path id="Trazado_771916" data-name="Trazado 771916" d="M431.3,390.1h-5.4a.9.9,0,0,1-.9-.9V378.4a.9.9,0,0,1,.9-.9h5.4a.9.9,0,0,1,.9.9v10.8A.9.9,0,0,1,431.3,390.1Zm-4.5-1.8h3.6v-9h-3.6Z" transform="translate(-353.9 -318.1)"/>
      <path id="Trazado_771917" data-name="Trazado 771917" d="M243.1,240.6h-7.2a.9.9,0,0,1-.9-.9V237a4.5,4.5,0,0,1,9,0v2.7A.9.9,0,0,1,243.1,240.6Zm-6.3-1.8h5.4V237a2.7,2.7,0,0,0-5.4,0Z" transform="translate(-198.1 -199.2)"/>
      <path id="Trazado_771918" data-name="Trazado 771918" d="M277.5,189.3H255.9a.9.9,0,0,1,0-1.8h21.6a.9.9,0,1,1,0,1.8Z" transform="translate(-214.5 -162.3)"/>
      <path id="Trazado_771919" data-name="Trazado 771919" d="M132.9,119.6H113.55a8.55,8.55,0,0,1,0-17.1h7.83a12.434,12.434,0,0,1,12.42,12.42v3.78A.9.9,0,0,1,132.9,119.6Zm-19.35-15.3a6.75,6.75,0,0,0,0,13.5H132v-2.88a10.632,10.632,0,0,0-10.62-10.62Z" transform="translate(-91.5 -92.6)"/>
      <path id="Trazado_771920" data-name="Trazado 771920" d="M255.9,197.4a.9.9,0,0,1-.9-.9v-8.1a.9.9,0,1,1,1.8,0v8.1A.9.9,0,0,1,255.9,197.4Z" transform="translate(-214.5 -162.3)"/>
      <path id="Trazado_771921" data-name="Trazado 771921" d="M386.7,176.5H375.9a.9.9,0,0,1-.9-.9v-7.2a.9.9,0,0,1,.9-.9h10.8a.9.9,0,0,1,.9.9v1.8a.9.9,0,1,1-1.8,0v-.9h-9v5.4h9v-.9a.9.9,0,1,1,1.8,0v1.8A.9.9,0,0,1,386.7,176.5Z" transform="translate(-312.9 -145.9)"/>
      <path id="Trazado_771922" data-name="Trazado 771922" d="M440.4,182.9h-4.5a.9.9,0,0,1-.9-.9v-3.6a.9.9,0,0,1,.9-.9h4.5a.9.9,0,0,1,.9.9V182A.9.9,0,0,1,440.4,182.9Zm-3.6-1.8h2.7v-1.8h-2.7Z" transform="translate(-362.1 -154.1)"/>
      <path id="Trazado_771923" data-name="Trazado 771923" d="M395.9,176.5a.9.9,0,0,1-.9-.9v-7.2a.9.9,0,0,1,1.8,0v7.2A.9.9,0,0,1,395.9,176.5Z" transform="translate(-329.3 -145.9)"/>
      <path id="Trazado_771924" data-name="Trazado 771924" d="M380.4,58.3a5.4,5.4,0,1,1,5.4-5.4A5.406,5.406,0,0,1,380.4,58.3Zm0-9a3.6,3.6,0,1,0,3.6,3.6A3.6,3.6,0,0,0,380.4,49.3Z" transform="translate(-312.9 -47.5)"/>
      <path id="Trazado_771925" data-name="Trazado 771925" d="M69.5,206.5A4.5,4.5,0,1,1,74,202,4.505,4.505,0,0,1,69.5,206.5Zm0-7.2a2.7,2.7,0,1,0,2.7,2.7A2.7,2.7,0,0,0,69.5,199.3Z" transform="translate(-58.7 -170.5)"/>
    </g>
  </g>
</svg>
