<svg xmlns="http://www.w3.org/2000/svg" width="190" height="219" viewBox="0 0 190 219">
  <g id="Grupo_1044813" data-name="Grupo 1044813" transform="translate(-212 -599)">
    <rect id="Rectángulo_37187" data-name="Rectángulo 37187" width="190" height="219" rx="29" transform="translate(212 599)" fill="#ffb476"/>
    <g id="cpu" transform="translate(248 649.756)">
      <g id="Grupo_1044220" data-name="Grupo 1044220" transform="translate(1.895 1.895)">
        <g id="Grupo_1044208" data-name="Grupo 1044208" transform="translate(53.059 53.059)">
          <path id="Trazado_771706" data-name="Trazado 771706" d="M85.849,29H36.58v3.79a3.8,3.8,0,0,1-3.79,3.79H29V51.74h3.79a3.8,3.8,0,0,1,3.79,3.79,3.818,3.818,0,0,1-3.79,3.79H29v26.53a3.8,3.8,0,0,0,3.79,3.79H85.849a3.8,3.8,0,0,0,3.79-3.79V32.79A3.8,3.8,0,0,0,85.849,29Z" transform="translate(-29 -29)" fill="#aab2bd"/>
        </g>
        <g id="Grupo_1044209" data-name="Grupo 1044209" transform="translate(60.639 60.639)">
          <path id="Trazado_771707" data-name="Trazado 771707" d="M48.16,33h30.32V78.479H33V33H48.16Z" transform="translate(-33 -33)" fill="#ccd1d9"/>
        </g>
        <g id="Grupo_1044210" data-name="Grupo 1044210" transform="translate(72.009 72.009)">
          <path id="Trazado_771708" data-name="Trazado 771708" d="M39,39H61.74V61.74H39Z" transform="translate(-39 -39)" fill="#b4dd7f"/>
        </g>
        <g id="Grupo_1044211" data-name="Grupo 1044211">
          <path id="Trazado_771709" data-name="Trazado 771709" d="M57.849,1H4.79A3.8,3.8,0,0,0,1,4.79v7.58H4.79a3.8,3.8,0,0,1,3.79,3.79,3.705,3.705,0,0,1-1.118,2.672A3.705,3.705,0,0,1,4.79,19.95H1v37.9a3.8,3.8,0,0,0,3.79,3.79H57.849a3.8,3.8,0,0,0,3.79-3.79V4.79A3.8,3.8,0,0,0,57.849,1Z" transform="translate(-1 -1)" fill="#aab2bd"/>
        </g>
        <g id="Grupo_1044212" data-name="Grupo 1044212" transform="translate(7.58 7.58)">
          <path id="Trazado_771710" data-name="Trazado 771710" d="M50.479,5V50.479H5V5Z" transform="translate(-5 -5)" fill="#ccd1d9"/>
        </g>
        <g id="Grupo_1044213" data-name="Grupo 1044213" transform="translate(68.219 15.16)">
          <ellipse id="Elipse_6135" data-name="Elipse 6135" cx="4" cy="3.5" rx="4" ry="3.5" transform="translate(-0.114 0.434)" fill="#ff826e"/>
        </g>
        <g id="Grupo_1044214" data-name="Grupo 1044214" transform="translate(98.539 15.16)">
          <ellipse id="Elipse_6136" data-name="Elipse 6136" cx="4" cy="3.5" rx="4" ry="3.5" transform="translate(-0.434 0.434)" fill="#ff826e"/>
        </g>
        <g id="Grupo_1044215" data-name="Grupo 1044215" transform="translate(83.379)">
          <circle id="Elipse_6137" data-name="Elipse 6137" cx="4" cy="4" r="4" transform="translate(-0.274 -0.406)" fill="#ff826e"/>
        </g>
        <g id="Grupo_1044216" data-name="Grupo 1044216" transform="translate(15.16 98.539)">
          <circle id="Elipse_6138" data-name="Elipse 6138" cx="4" cy="4" r="4" transform="translate(-0.055 0.055)" fill="#ff826e"/>
        </g>
        <g id="Grupo_1044217" data-name="Grupo 1044217" transform="translate(0 83.379)">
          <circle id="Elipse_6139" data-name="Elipse 6139" cx="3.5" cy="3.5" r="3.5" transform="translate(0.105 0.215)" fill="#ff826e"/>
        </g>
        <g id="Grupo_1044218" data-name="Grupo 1044218" transform="translate(15.16 68.219)">
          <ellipse id="Elipse_6140" data-name="Elipse 6140" cx="4" cy="3.5" rx="4" ry="3.5" transform="translate(-0.055 0.374)" fill="#ff826e"/>
        </g>
        <g id="Grupo_1044219" data-name="Grupo 1044219" transform="translate(15.16 15.16)">
          <path id="Trazado_771711" data-name="Trazado 771711" d="M39.32,20.37v7.58l-2.8,1.023c-.076.171-.133.36-.208.531l1.251,2.691-5.363,5.363L29.5,36.307c-.171.076-.36.133-.531.208l-1.023,2.8H20.37l-1.023-2.8c-.171-.076-.36-.133-.531-.208l-2.691,1.251-5.363-5.363L12.013,29.5c-.076-.171-.133-.36-.208-.531L9,27.95V20.37l2.8-1.023c.076-.171.133-.36.208-.531l-1.251-2.691,5.363-5.363,2.691,1.251c.171-.076.36-.133.531-.208L20.37,9h7.58l1.023,2.8c.171.076.36.133.531.208l2.691-1.251,5.363,5.363-1.251,2.691c.076.171.133.36.208.531Zm-7.58,3.79a7.58,7.58,0,1,0-7.58,7.58A7.578,7.578,0,0,0,31.74,24.16Z" transform="translate(-9 -9)" fill="#fcd770"/>
        </g>
      </g>
      <g id="Grupo_1044221" data-name="Grupo 1044221">
        <path id="Trazado_771712" data-name="Trazado 771712" d="M39.606,31.083l2.5-.91V19.938l-2.5-.91,1.129-2.412L33.5,9.378l-2.412,1.128L30.173,8H19.936l-.908,2.5L16.616,9.376,9.378,16.615l1.129,2.412L8,19.936V30.171l2.5.91L9.374,33.493l7.239,7.239L19.025,39.6l.911,2.505H30.173l.908-2.5,2.412,1.128,7.239-7.239ZM38.32,27.516l-1.56.567-.839.387-.805,1.954,1.061,2.27-3.483,3.481-2.276-1.065-2.041.847-.86,2.363H22.593l-.568-1.56-.4-.847-1.931-.8-2.276,1.065L13.933,32.7l1.061-2.27-.843-2.048-2.361-.86V22.591l1.56-.567.839-.387.805-1.954-1.061-2.27,3.483-3.481L19.692,15l2.041-.847.86-2.361h4.923l.568,1.56.4.847,1.931.8,2.276-1.065,3.483,3.481-1.061,2.27.843,2.048,2.361.86Z" transform="translate(7.16 7.16)"/>
        <path id="Trazado_771713" data-name="Trazado 771713" d="M21.475,12a9.475,9.475,0,1,0,9.475,9.475A9.486,9.486,0,0,0,21.475,12Zm0,15.16a5.685,5.685,0,1,1,5.685-5.685A5.692,5.692,0,0,1,21.475,27.16Z" transform="translate(10.74 10.74)"/>
        <circle id="Elipse_6141" data-name="Elipse 6141" cx="2" cy="2" r="2" transform="translate(13 13.488)"/>
        <circle id="Elipse_6142" data-name="Elipse 6142" cx="2" cy="2" r="2" transform="translate(13 47.488)"/>
        <circle id="Elipse_6143" data-name="Elipse 6143" cx="2" cy="2" r="2" transform="translate(47 13.488)"/>
        <circle id="Elipse_6144" data-name="Elipse 6144" cx="2" cy="2" r="2" transform="translate(47 47.488)"/>
        <path id="Trazado_771714" data-name="Trazado 771714" d="M64.53,38H38V64.53H64.53ZM60.74,60.74H41.79V41.79H60.74Z" transform="translate(34.009 34.009)"/>
        <path id="Trazado_771715" data-name="Trazado 771715" d="M111.8,53.059H64.429V5.685A5.692,5.692,0,0,0,58.744,0H5.685A5.692,5.692,0,0,0,0,5.685V15.16H5.685a1.895,1.895,0,1,1,0,3.79H0V58.744a5.692,5.692,0,0,0,5.685,5.685H53.059v15.16h5.685a1.895,1.895,0,0,1,0,3.79H53.059V111.8a5.692,5.692,0,0,0,5.685,5.685H111.8a5.692,5.692,0,0,0,5.685-5.685V58.744A5.692,5.692,0,0,0,111.8,53.059ZM72.009,68.219v-3.79H75.8v3.79h3.79v-3.79h3.79v3.79h3.79v-3.79h3.79v3.79h3.79v-3.79h3.79v3.79h3.79v-3.79h3.79v7.58h-3.79V75.8h3.79v3.79h-3.79v3.79h3.79v3.79h-3.79v3.79h3.79v3.79h-3.79v3.79h3.79v7.58h-3.79v-3.79h-3.79v3.79h-3.79v-3.79h-3.79v3.79h-3.79v-3.79h-3.79v3.79h-3.79v-3.79H75.8v3.79h-3.79v-3.79h-3.79v3.79h-3.79v-7.58h3.79v-3.79h-3.79v-3.79h3.79v-3.79h-3.79v-3.79h3.79v-3.79h-3.79V75.8h3.79v-3.79h-3.79v-7.58h3.79v3.79ZM11.37,11.37H53.059V53.059H11.37ZM3.79,58.744v-36H5.685a5.621,5.621,0,0,0,1.895-.349V56.849H56.849V7.58H7.58v4.139a5.621,5.621,0,0,0-1.895-.349H3.79V5.685A1.9,1.9,0,0,1,5.685,3.79H58.744a1.9,1.9,0,0,1,1.895,1.895V58.744a1.9,1.9,0,0,1-1.895,1.895H5.685A1.9,1.9,0,0,1,3.79,58.744ZM58.744,75.8H56.849V64.429h1.895a5.621,5.621,0,0,0,1.895-.349V76.149A5.576,5.576,0,0,0,58.744,75.8Zm54.954,36A1.9,1.9,0,0,1,111.8,113.7H58.744a1.9,1.9,0,0,1-1.895-1.895V87.169h1.895a5.621,5.621,0,0,0,1.895-.349v23.088h49.269V60.639H64.08a5.621,5.621,0,0,0,.349-1.895V56.849H111.8a1.9,1.9,0,0,1,1.895,1.895Z"/>
        <path id="Trazado_771716" data-name="Trazado 771716" d="M42,42H53.37v3.79H42Z" transform="translate(37.589 37.589)"/>
        <path id="Trazado_771717" data-name="Trazado 771717" d="M42,46H53.37v3.79H42Z" transform="translate(37.589 41.169)"/>
        <path id="Trazado_771718" data-name="Trazado 771718" d="M5.685,44a5.685,5.685,0,1,0,5.336,7.58H49.269V47.79H11.021A5.677,5.677,0,0,0,5.685,44Zm0,7.58A1.895,1.895,0,1,1,7.58,49.685,1.9,1.9,0,0,1,5.685,51.58Z" transform="translate(0 39.379)"/>
        <path id="Trazado_771719" data-name="Trazado 771719" d="M28.121,39.79h-9.1a5.685,5.685,0,1,0,0,3.79h6.757l3.79,7.58H42.11V47.37h-10.2ZM13.685,43.58a1.895,1.895,0,1,1,1.895-1.895A1.9,1.9,0,0,1,13.685,43.58Z" transform="translate(7.16 32.219)"/>
        <path id="Trazado_771720" data-name="Trazado 771720" d="M25.779,57.58H19.021a5.685,5.685,0,1,0,0,3.79h9.1l3.79-7.58h10.2V50H29.569ZM13.685,61.37a1.895,1.895,0,1,1,1.895-1.895A1.9,1.9,0,0,1,13.685,61.37Z" transform="translate(7.16 44.749)"/>
        <path id="Trazado_771721" data-name="Trazado 771721" d="M57.58,19.021v6.757L50,29.569V42.11h3.79v-10.2l7.58-3.79v-9.1a5.685,5.685,0,1,0-3.79,0Zm1.895-7.231a1.895,1.895,0,1,1-1.895,1.895A1.9,1.9,0,0,1,59.475,11.79Z" transform="translate(44.749 7.16)"/>
        <path id="Trazado_771722" data-name="Trazado 771722" d="M39.79,19.021v9.1l7.58,3.79v10.2h3.79V29.569l-7.58-3.79V19.021a5.685,5.685,0,1,0-3.79,0Zm1.895-7.231a1.895,1.895,0,1,1-1.895,1.895A1.9,1.9,0,0,1,41.685,11.79Z" transform="translate(32.219 7.16)"/>
        <path id="Trazado_771723" data-name="Trazado 771723" d="M47.79,11.021V49.269h3.79V11.021a5.685,5.685,0,1,0-3.79,0ZM49.685,3.79A1.895,1.895,0,1,1,47.79,5.685,1.9,1.9,0,0,1,49.685,3.79Z" transform="translate(39.379)"/>
      </g>
    </g>
  </g>
</svg>
