<svg xmlns="http://www.w3.org/2000/svg" xmlns:xlink="http://www.w3.org/1999/xlink" width="505" height="181" viewBox="0 0 505 181">
  <defs>
    <linearGradient id="linear-gradient" x1="-35.965" y1="7.797" x2="-35.965" y2="7.769" gradientUnits="objectBoundingBox">
      <stop offset="0" stop-color="#fff"/>
      <stop offset="1" stop-color="#d2e6ee"/>
    </linearGradient>
    <linearGradient id="linear-gradient-2" x1="0" y1="0.5" x2="1" y2="0.5" xlink:href="#linear-gradient"/>
  </defs>
  <g id="Grupo_1044831" data-name="Grupo 1044831" transform="translate(-285 -2141)">
    <path id="Trazado_773061" data-name="Trazado 773061" d="M16,0H489a16,16,0,0,1,16,16V165a16,16,0,0,1-16,16H16A16,16,0,0,1,0,165V16A16,16,0,0,1,16,0Z" transform="translate(285 2141)" fill="#fff1ef"/>
    <path id="Path_69039" data-name="Path 69039" d="M735.165,814.917c0-.714-.012-1.322,0-1.931q.146-6.144.307-12.288c.03-1.082.147-2.162.17-3.243q.1-4.962.142-9.925a1.056,1.056,0,0,0-.332-.636,4.067,4.067,0,1,1,5.754-.064,1.206,1.206,0,0,0-.387.985c.089,3.055.162,6.111.24,9.167q.223,8.6.447,17.193c.005.214.024.428.042.741h1.419a4.19,4.19,0,0,1,4.391,3.979,4.046,4.046,0,0,1,0,.409q.01,6.035,0,12.07a4.155,4.155,0,0,1-4.373,4.334H695.179a4.157,4.157,0,0,1-4.4-4.368q-.01-6,0-12.011a4.2,4.2,0,0,1,4.425-4.414h39.959Zm-16.08,18.35c7.847,0,15.693-.021,23.541.018a2.017,2.017,0,0,0,2.3-2.33c-.068-3.863-.019-7.728-.023-11.592a1.774,1.774,0,0,0-2.01-2q-23.837,0-47.673,0a1.763,1.763,0,0,0-1.984,1.961q-.006,6,.006,12.007a2.33,2.33,0,0,0,.2.967,1.821,1.821,0,0,0,1.868.969q11.888-.013,23.775,0Zm19.3-44.669-.12-.025c-.009.1-.023.19-.025.285q-.155,5.692-.307,11.384c-.123,4.666-.235,9.333-.372,14-.015.5.078.711.63.685.876-.041.881-.007.866-.676-.069-2.758-.154-5.515-.21-8.272-.054-2.708-.068-5.415-.123-8.123-.021-.981-.128-1.96-.161-2.942-.071-2.1-.12-4.209-.179-6.313Zm1.53-4.589a1.612,1.612,0,1,0-1.708,1.585l.079,0a1.584,1.584,0,0,0,1.628-1.539v-.048Z" transform="translate(-386.583 1431.886)" fill="#00223d"/>
    <path id="Path_69040" data-name="Path 69040" d="M724.139,778.727a24.641,24.641,0,0,1,1.4-7.486,22.68,22.68,0,0,1,11.13-12.909,2.264,2.264,0,0,1,1.055-.3,1.077,1.077,0,0,1,1.036.9,1.155,1.155,0,0,1-.582,1.36c-.648.376-1.319.712-1.951,1.111A19.669,19.669,0,0,0,729.192,769a22.654,22.654,0,0,0-1.233,2.762A20.06,20.06,0,0,0,728.04,786c.088.24.2.474.276.717a1.223,1.223,0,0,1-.636,1.585,1.168,1.168,0,0,1-1.56-.546,1.248,1.248,0,0,1-.051-.124,31.534,31.534,0,0,1-1.287-4.107C724.45,781.947,724.343,780.326,724.139,778.727Z" transform="translate(-394.34 1436.982)" fill="#ff6148"/>
    <path id="Path_69041" data-name="Path 69041" d="M735.714,771.421l.415.127a4.2,4.2,0,0,1,1.466-2.64,15.723,15.723,0,0,1,4.447-3.186,1.206,1.206,0,0,1,1.8,1.018,1.333,1.333,0,0,1-.9,1.266,13.119,13.119,0,0,0-4.094,3.156,13.8,13.8,0,0,0-2.617,14.423c.051.147.121.29.173.441a1.207,1.207,0,0,1-.61,1.595l-.049.02a1.166,1.166,0,0,1-1.546-.576,1.226,1.226,0,0,1-.048-.123,29.163,29.163,0,0,1-1.112-3.91,14.42,14.42,0,0,1,.392-6.9,9.534,9.534,0,0,1,2.109-4.328A1.233,1.233,0,0,0,735.714,771.421Z" transform="translate(-396.353 1435.231)" fill="#ff6148"/>
    <path id="Path_69042" data-name="Path 69042" d="M741.336,782.266a9.884,9.884,0,0,1,5.541-8.9,1.24,1.24,0,0,1,1.938.692,1.152,1.152,0,0,1-.539,1.325c-.282.18-.593.313-.878.49a7.458,7.458,0,0,0-3.031,9.231c.338.844.225,1.433-.342,1.789a1.223,1.223,0,0,1-1.814-.6A9.583,9.583,0,0,1,741.336,782.266Z" transform="translate(-398.339 1433.467)" fill="#ff6148"/>
    <path id="Path_69044" data-name="Path 69044" d="M752.562,791.21c.058,2.1.107,4.21.179,6.314.034.979.141,1.96.161,2.942.055,2.707.07,5.415.124,8.122.055,2.758.14,5.516.209,8.272.017.67.009.636-.866.676-.553.025-.645-.186-.63-.685.137-4.666.25-9.333.372-14q.148-5.693.306-11.385c0-.094.017-.19.025-.284Z" transform="translate(-400.757 1429.274)" fill="#fff"/>
    <path id="Path_69046" data-name="Path 69046" d="M697.752,838.119a3.193,3.193,0,0,1,3.143-3.243h.051a3.218,3.218,0,1,1-3.194,3.244Zm3.337-.786a.772.772,0,0,0-.869.661.758.758,0,0,0,.675.857h.053a.751.751,0,0,0,.794-.706c0-.019,0-.038,0-.056a.727.727,0,0,0-.657-.756Z" transform="translate(-388.204 1419.115)" fill="#00223d"/>
    <path id="Path_69047" data-name="Path 69047" d="M711.8,834.872c1.83-.153,3.16,1.739,3.218,3.179a3.164,3.164,0,0,1-3.069,3.256l-.107,0a3.218,3.218,0,0,1-.042-6.436Zm.087,3.979a.729.729,0,0,0,.685-.763.768.768,0,0,0-1.536,0,.783.783,0,0,0,.8.766l.051,0Z" transform="translate(-390.727 1419.118)" fill="#00223d"/>
    <g id="Rectangle_28121" data-name="Rectangle 28121" transform="translate(503.776 2243.332)">
      <rect id="Rectángulo_31110" data-name="Rectángulo 31110" width="68.741" height="22.704" fill="url(#linear-gradient)"/>
      <path id="Rectángulo_31111" data-name="Rectángulo 31111" d="M-.5-.5H68.611V22.573H-.5ZM67.611.5H.5V21.573H67.611Z" transform="translate(0.315 0.315)" fill="#707070"/>
    </g>
    <g id="Group_41828" data-name="Group 41828" transform="translate(502.299 2240.298)">
      <path id="Path_69039-2" data-name="Path 69039" d="M1009.752,980.874c0-.92,8.2-.4,8.228,0h1.829a5.4,5.4,0,0,1,5.657,5.127c.008.176.009.352,0,.527q.014,7.775,0,15.552a5.354,5.354,0,0,1-5.635,5.584h-61.6a5.356,5.356,0,0,1-5.666-5.627q-.014-7.737,0-15.476a5.407,5.407,0,0,1,5.7-5.687Zm-20.719,23.643c10.11,0,20.221-.027,30.331.024,1.913.01,3.005-.883,2.968-3-.088-4.977-.026-9.957-.029-14.936a2.286,2.286,0,0,0-2.59-2.571q-30.713,0-61.426,0a2.271,2.271,0,0,0-2.556,2.527q-.008,7.736.007,15.471c0,.418,1.616,2.5,2.658,2.5q15.318-.016,30.634-.007Z" transform="translate(-952.56 -980.361)" fill="#00223d"/>
      <path id="Path_69046-2" data-name="Path 69046" d="M963.928,997.276a4.115,4.115,0,0,1,4.049-4.18h.067a4.146,4.146,0,1,1-4.116,4.18Zm4.3-1.014a1,1,0,0,0-1.119.852,1.191,1.191,0,0,0-.009.128.929.929,0,0,0,.879.976h.068a.969.969,0,0,0,1.024-.91c0-.024,0-.048,0-.072a.937.937,0,0,0-.847-.975Z" transform="translate(-955.203 -983.322)" fill="#00223d"/>
      <path id="Path_95199" data-name="Path 95199" d="M991.76,997.276a4.115,4.115,0,0,1,4.049-4.18h.067a4.146,4.146,0,1,1-4.116,4.18Zm4.3-1.014a1,1,0,0,0-1.119.852.905.905,0,0,0-.009.128.929.929,0,0,0,.879.976c.022,0,.045,0,.068,0a.969.969,0,0,0,1.024-.91c0-.024,0-.048,0-.072a.937.937,0,0,0-.847-.975Z" transform="translate(-961.675 -983.322)" fill="#00223d"/>
      <path id="Path_69047-2" data-name="Path 69047" d="M982.023,993.093c2.358-.2,4.072,2.24,4.146,4.1a4.076,4.076,0,0,1-3.953,4.194c-.046,0-.092,0-.138,0a4.146,4.146,0,1,1-.054-8.292Zm.113,5.126a.94.94,0,0,0,.883-.983.99.99,0,0,0-1.979,0,1.01,1.01,0,0,0,1.031.988l.065,0Z" transform="translate(-958.453 -983.318)" fill="#00223d"/>
      <path id="Path_95198" data-name="Path 95198" d="M1015.413,987.342c2.358-.2,4.072,2.24,4.146,4.1a4.076,4.076,0,0,1-3.953,4.195c-.046,0-.092,0-.138,0a4.146,4.146,0,1,1-.055-8.292Zm.113,5.126a.941.941,0,0,0,.883-.983.99.99,0,0,0-1.979,0,1.009,1.009,0,0,0,1.03.987c.022,0,.044,0,.065,0Z" transform="translate(-966.217 -981.981)" fill="#00223d"/>
      <path id="Path_95201" data-name="Path 95201" d="M1015.413,999.3c2.358-.2,4.072,2.24,4.146,4.1a4.076,4.076,0,0,1-3.953,4.2h-.138a4.146,4.146,0,1,1-.055-8.292Zm.113,5.126a.941.941,0,0,0,.883-.983.99.99,0,0,0-1.979,0,1.008,1.008,0,0,0,1.03.987l.065,0Z" transform="translate(-966.217 -984.763)" fill="#00223d"/>
      <path id="Path_95200" data-name="Path 95200" d="M1029.308,987.342c2.359-.2,4.072,2.24,4.146,4.1a4.075,4.075,0,0,1-3.953,4.195c-.046,0-.092,0-.138,0a4.146,4.146,0,0,1-.054-8.292Zm.113,5.126a.94.94,0,0,0,.883-.983.99.99,0,0,0-1.979,0,1.009,1.009,0,0,0,1.031.987c.021,0,.043,0,.065,0Z" transform="translate(-969.448 -981.981)" fill="#00223d"/>
      <path id="Path_95202" data-name="Path 95202" d="M1029.308,999.3c2.359-.2,4.072,2.24,4.146,4.1a4.076,4.076,0,0,1-3.953,4.2h-.138a4.146,4.146,0,0,1-.054-8.292Zm.113,5.126a.94.94,0,0,0,.883-.983.99.99,0,0,0-1.979,0,1.009,1.009,0,0,0,1.031.987l.065,0Z" transform="translate(-969.448 -984.763)" fill="#00223d"/>
    </g>
    <path id="Path_116867" data-name="Path 116867" d="M952.024,807.692h2.312a1.1,1.1,0,0,1,1.144,1.05h0a.383.383,0,0,1,0,.084c.009.726,0,1.452,0,2.178v.256h4.075a2.217,2.217,0,0,1,2.328,2.1h0v14.29a2.216,2.216,0,0,1-2.149,2.281h0a.783.783,0,0,1-.122,0h-.969v2.829q-.014,1.889-.031,3.783a1.085,1.085,0,0,1-1.07,1.1h-5.362a1.08,1.08,0,0,1-1.128-1.03v-.008a.487.487,0,0,1,0-.106v-2.429H910.609c0,.083-.012.162-.012.24v2.138a1.117,1.117,0,0,1-1.035,1.193h0a1.366,1.366,0,0,1-.158,0h-5.2a1.1,1.1,0,0,1-1.193-1,1.349,1.349,0,0,1,0-.175v-6.544h-.6a9.776,9.776,0,0,1-1.661-.094,2.121,2.121,0,0,1-1.636-2.106V813.61a2.223,2.223,0,0,1,2.086-2.352h4.63v-2.421a1.092,1.092,0,0,1,1.034-1.147h2.846V777.514a1.085,1.085,0,0,1,1-1.167h.011a1.1,1.1,0,0,1,1.193,1.009v.067c.009.277,0,.557,0,.834V807.7h2.552a1.1,1.1,0,0,1,1.141,1.049v2.5h30.688c0-.078.009-.156.009-.237,0-.682.015-1.365,0-2.044a1.176,1.176,0,0,1,1.056-1.278,1.143,1.143,0,0,1,.206,0c.71.034,1.424,0,2.135,0l.074-.015V777.514a1.122,1.122,0,0,1,1.05-1.184,1.11,1.11,0,0,1,.439.063,1.169,1.169,0,0,1,.742,1.184v8.959c0,.642-.022,1.287-.028,1.929,0,.2.028.411.028.614v18.383Zm-50.669,20.013h58.3V813.5h-58.3Zm55.047,2.232H905.257v1.919H956.4Zm-48.337-20.022v1.328h5.341v-1.328Zm45.187,0h-4.7v1.328h4.7Zm-48,25.5h3.119v-1.335h-3.119Zm51.139-1.335h-3.113v1.34h3.113Z" transform="translate(-490.613 1429.434)" fill="#12263f"/>
    <path id="Path_116868" data-name="Path 116868" d="M935.938,778.066a19.816,19.816,0,0,1,9.529,2.42,20.4,20.4,0,0,1,4.465,3.319,1.113,1.113,0,0,1,.167,1.566h0a1.119,1.119,0,0,1-.549.368,1.089,1.089,0,0,1-1.13-.3,17.791,17.791,0,0,0-3.559-2.746,17.382,17.382,0,0,0-6.412-2.24,17.668,17.668,0,0,0-14.93,4.913,1.154,1.154,0,0,1-1.377.305,1.1,1.1,0,0,1-.51-1.474,1.174,1.174,0,0,1,.221-.306,19.242,19.242,0,0,1,2.6-2.2,19.71,19.71,0,0,1,11.487-3.629Z" transform="translate(-495.823 1429.03)" fill="#ff6148"/>
    <path id="Path_116869" data-name="Path 116869" d="M936.662,786.153a15.67,15.67,0,0,1,11.194,4.518,1.114,1.114,0,0,1,.084,1.573h0l-.055.059a1.13,1.13,0,0,1-1.6-.059l0,0h0a13.4,13.4,0,0,0-18.852,0,1.112,1.112,0,0,1-1.639-1.5.641.641,0,0,1,.094-.09,15.59,15.59,0,0,1,3.422-2.559,15.306,15.306,0,0,1,6.419-1.893C936.094,786.172,936.462,786.153,936.662,786.153Z" transform="translate(-496.749 1427.149)" fill="#ff6148"/>
    <path id="Path_116870" data-name="Path 116870" d="M945.414,799.305a1.107,1.107,0,0,1-.789-.334,9.973,9.973,0,0,0-13.994-.075,1.16,1.16,0,0,1-1.3.327,1.085,1.085,0,0,1-.627-1.4v0a1.105,1.105,0,0,1,.29-.424,16.524,16.524,0,0,1,1.891-1.536,11.542,11.542,0,0,1,5.929-1.991,11.97,11.97,0,0,1,8.713,2.92c.23.193.454.4.668.608a1.118,1.118,0,0,1,.237,1.259A1.075,1.075,0,0,1,945.414,799.305Z" transform="translate(-497.477 1425.362)" fill="#ff6148"/>
    <path id="Path_116876" data-name="Path 116876" d="M943.413,836.907H925.121a1.12,1.12,0,0,1-1.2-.826,1.391,1.391,0,0,1-.034-.324v-6.073c0-.433.008-.863.018-1.3a1.071,1.071,0,0,1,.963-.929l34.55-.018h2.237a1.155,1.155,0,0,1,1.287,1v0a1.1,1.1,0,0,1,0,.284v6.906a1.137,1.137,0,0,1-.987,1.269h0a1.15,1.15,0,0,1-.272,0H943.413Zm17.3-7.239H926.109v5.008h34.609Z" transform="translate(-496.375 1417.551)" fill="#12263f"/>
    <path id="Path_116877" data-name="Path 116877" d="M919.961,832.17v3.566a1.123,1.123,0,0,1-1.072,1.168h-.041a1.111,1.111,0,0,1-1.1-1.121v-.038c0-1.035.013-2.069.013-3.1,0-1.35-.013-2.7-.013-4.048a1.1,1.1,0,0,1,1.036-1.162h.009a1.1,1.1,0,0,1,1.162,1.039v0a.942.942,0,0,1,0,.131c0,.891-.009,1.786-.015,2.68v.879Z" transform="translate(-494.947 1417.552)" fill="#12263f"/>
    <path id="Path_116878" data-name="Path 116878" d="M915.148,832.173v3.583a1.1,1.1,0,1,1-2.206.052h0V828.57a1.105,1.105,0,0,1,2.209-.083v.074C915.159,829.767,915.148,830.969,915.148,832.173Z" transform="translate(-493.829 1417.553)" fill="#12263f"/>
    <path id="Path_116880" data-name="Path 116880" d="M940.132,832.133a5.416,5.416,0,0,1,.87.09,1.074,1.074,0,0,1,.76,1.169,1.091,1.091,0,0,1-1.025.972c-.424.018-.848.022-1.272,0a1.073,1.073,0,0,1-1-1.141h0a1.084,1.084,0,0,1,1.056-1.053h.615Z" transform="translate(-499.763 1416.458)" fill="#12263f"/>
    <path id="Path_116881" data-name="Path 116881" d="M954.464,832.145a5.6,5.6,0,0,1,.826.068,1.094,1.094,0,0,1-.23,2.153,7.882,7.882,0,0,1-1.443-.05,1.03,1.03,0,0,1-.814-1.193,1.1,1.1,0,0,1,1.06-.954h.6Z" transform="translate(-503.093 1416.455)" fill="#12263f"/>
    <path id="Path_116882" data-name="Path 116882" d="M932.943,834.38c-.2,0-.4.009-.592,0a1.1,1.1,0,0,1-1.048-1.154v0a1.1,1.1,0,0,1,1.1-1.048h1.075a1.1,1.1,0,0,1,1.109,1.1h0a1.1,1.1,0,0,1-1.05,1.1c-.2.012-.4,0-.595,0Z" transform="translate(-498.098 1416.449)" fill="#12263f"/>
    <path id="Path_116883" data-name="Path 116883" d="M947.294,832.173h.549a1.11,1.11,0,0,1,1.1,1.044,1.088,1.088,0,0,1-.981,1.15,9.451,9.451,0,0,1-1.384,0,1.08,1.08,0,0,1-.951-1.128,1.1,1.1,0,0,1,1.057-1.063h.613Z" transform="translate(-501.428 1416.449)" fill="#12263f"/>
    <path id="Path_116884" data-name="Path 116884" d="M961.615,832.145a5.952,5.952,0,0,1,.851.068,1.085,1.085,0,0,1-.226,2.134c-.4.018-.786.028-1.178.018a1.1,1.1,0,0,1-1.091-1.115h0a1.106,1.106,0,0,1,1.119-1.091h.53Z" transform="translate(-504.764 1416.455)" fill="#12263f"/>
    <g id="Grupo_55561" data-name="Grupo 55561" transform="translate(703.074 2212.668)">
      <g id="Grupo_55559" data-name="Grupo 55559" transform="translate(0.828 0.801)">
        <g id="Grupo_55550" data-name="Grupo 55550" transform="translate(24.838 1.55)">
          <g id="Grupo_55544" data-name="Grupo 55544" transform="translate(9.135)">
            <path id="Trazado_118099" data-name="Trazado 118099" d="M671.025,976.865a1.632,1.632,0,0,1-1.525-1.646v-6.9a1.6,1.6,0,0,1,.469-1.134l4.273-4.273a1.6,1.6,0,0,1,1.134-.469h9.89a1.631,1.631,0,0,1,1.645,1.525,1.6,1.6,0,0,1-1.6,1.68h-9.183a.214.214,0,0,0-.151.062l-3.21,3.21a.214.214,0,0,0-.063.151v6.191A1.6,1.6,0,0,1,671.025,976.865Z" transform="translate(-669.5 -962.445)" fill="#f8f7f7"/>
          </g>
          <g id="Grupo_55545" data-name="Grupo 55545" transform="translate(9.135 35.575)">
            <path id="Trazado_118100" data-name="Trazado 118100" d="M671.025,1008.8a1.632,1.632,0,0,0-1.525,1.645v6.9a1.6,1.6,0,0,0,.469,1.134l4.273,4.273a1.6,1.6,0,0,0,1.134.47h9.89a1.631,1.631,0,0,0,1.645-1.525,1.6,1.6,0,0,0-1.6-1.68h-9.183a.211.211,0,0,1-.151-.063l-3.21-3.209a.216.216,0,0,1-.063-.151V1010.4A1.6,1.6,0,0,0,671.025,1008.8Z" transform="translate(-669.5 -1008.798)" fill="#f8f7f7"/>
          </g>
          <g id="Grupo_55546" data-name="Grupo 55546" transform="translate(9.669 11.27)">
            <path id="Trazado_118101" data-name="Trazado 118101" d="M686.108,980.335H671.216c-.563,0-1.02-.718-1.02-1.6s.457-1.6,1.02-1.6h14.892c.563,0,1.02.718,1.02,1.6s-.457,1.6-1.02,1.6Z" transform="translate(-670.196 -977.13)" fill="#f8f7f7"/>
          </g>
          <g id="Grupo_55547" data-name="Grupo 55547" transform="translate(9.669 35.521)">
            <path id="Trazado_118102" data-name="Trazado 118102" d="M686.108,1011.933H671.216c-.563,0-1.02-.718-1.02-1.6s.457-1.6,1.02-1.6h14.892c.563,0,1.02.718,1.02,1.6s-.457,1.6-1.02,1.6Z" transform="translate(-670.196 -1008.728)" fill="#f8f7f7"/>
          </g>
          <g id="Grupo_55548" data-name="Grupo 55548" transform="translate(0.107 11.27)">
            <path id="Trazado_118103" data-name="Trazado 118103" d="M668.422,1004.586a1.6,1.6,0,0,1-1.282-.639l-9.081-12.072a1.6,1.6,0,0,1,0-1.922l9.08-12.178a1.6,1.6,0,1,1,2.569,1.916l-8.363,11.217,8.359,11.112a1.6,1.6,0,0,1-1.279,2.566Z" transform="translate(-657.738 -977.13)" fill="#f8f7f7"/>
          </g>
          <g id="Grupo_55549" data-name="Grupo 55549" transform="translate(0 23.396)">
            <path id="Trazado_118104" data-name="Trazado 118104" d="M682.6,996.134H659.2a1.6,1.6,0,1,1,0-3.2h23.4a1.6,1.6,0,0,1,0,3.2Z" transform="translate(-657.598 -992.929)" fill="#f8f7f7"/>
          </g>
        </g>
        <g id="Grupo_55558" data-name="Grupo 55558" transform="translate(32.328)">
          <g id="Grupo_55551" data-name="Grupo 55551" transform="translate(14.304)">
            <path id="Trazado_118105" data-name="Trazado 118105" d="M692.461,963.631a3.206,3.206,0,0,0-4.3-3.014,3.453,3.453,0,0,0-.666.486,2.9,2.9,0,0,0-1.258,2.528,2.958,2.958,0,0,0,3.015,3.1,3.114,3.114,0,0,0,3.015-2.006A3.207,3.207,0,0,0,692.461,963.631Z" transform="translate(-686.052 -960.426)" fill="#b3e59f"/>
            <path id="Trazado_118106" data-name="Trazado 118106" d="M692.214,964.78a3.206,3.206,0,1,1-4.106-4.105,3.207,3.207,0,0,0,4.106,4.105Z" transform="translate(-685.994 -960.484)" fill="#95d6a4"/>
          </g>
          <g id="Grupo_55552" data-name="Grupo 55552" transform="translate(14.304 11.217)">
            <path id="Trazado_118107" data-name="Trazado 118107" d="M692.461,978.247a3.208,3.208,0,0,0-4.3-3.015,3.454,3.454,0,0,0-.666.487,2.9,2.9,0,0,0-1.258,2.528,2.958,2.958,0,0,0,3.015,3.1,3.115,3.115,0,0,0,3.015-2.006A3.213,3.213,0,0,0,692.461,978.247Z" transform="translate(-686.052 -975.042)" fill="#b3e59f"/>
            <path id="Trazado_118108" data-name="Trazado 118108" d="M692.214,979.4a3.206,3.206,0,1,1-4.106-4.105,3.208,3.208,0,0,0,4.106,4.105Z" transform="translate(-685.994 -975.1)" fill="#95d6a4"/>
          </g>
          <g id="Grupo_55553" data-name="Grupo 55553" transform="translate(0 11.217)">
            <path id="Trazado_118109" data-name="Trazado 118109" d="M673.824,978.247a3.208,3.208,0,0,0-4.3-3.015,3.43,3.43,0,0,0-.666.487,2.9,2.9,0,0,0-1.259,2.528,2.958,2.958,0,0,0,3.016,3.1,3.113,3.113,0,0,0,3.014-2.006A3.2,3.2,0,0,0,673.824,978.247Z" transform="translate(-667.414 -975.042)" fill="#b3e59f"/>
            <path id="Trazado_118110" data-name="Trazado 118110" d="M673.576,979.4a3.205,3.205,0,1,1-4.105-4.105,3.207,3.207,0,0,0,4.105,4.105Z" transform="translate(-667.357 -975.1)" fill="#95d6a4"/>
          </g>
          <g id="Grupo_55554" data-name="Grupo 55554" transform="translate(14.304 23.343)">
            <path id="Trazado_118111" data-name="Trazado 118111" d="M692.461,994.046a3.208,3.208,0,0,0-4.3-3.015,3.454,3.454,0,0,0-.666.487,2.9,2.9,0,0,0-1.258,2.528,2.958,2.958,0,0,0,3.015,3.1,3.115,3.115,0,0,0,3.015-2.006A3.215,3.215,0,0,0,692.461,994.046Z" transform="translate(-686.052 -990.841)" fill="#b3e59f"/>
            <path id="Trazado_118112" data-name="Trazado 118112" d="M692.214,995.2a3.206,3.206,0,1,1-4.106-4.105,3.208,3.208,0,0,0,4.106,4.105Z" transform="translate(-685.994 -990.899)" fill="#95d6a4"/>
          </g>
          <g id="Grupo_55555" data-name="Grupo 55555" transform="translate(14.304 35.468)">
            <path id="Trazado_118113" data-name="Trazado 118113" d="M692.461,1009.845a3.208,3.208,0,0,0-4.3-3.015,3.451,3.451,0,0,0-.666.487,2.9,2.9,0,0,0-1.258,2.528,2.958,2.958,0,0,0,3.015,3.1,3.115,3.115,0,0,0,3.015-2.006A3.213,3.213,0,0,0,692.461,1009.845Z" transform="translate(-686.052 -1006.64)" fill="#b3e59f"/>
            <path id="Trazado_118114" data-name="Trazado 118114" d="M692.214,1010.994a3.206,3.206,0,1,1-4.106-4.106,3.208,3.208,0,0,0,4.106,4.106Z" transform="translate(-685.994 -1006.698)" fill="#95d6a4"/>
          </g>
          <g id="Grupo_55556" data-name="Grupo 55556" transform="translate(0.095 35.468)">
            <path id="Trazado_118115" data-name="Trazado 118115" d="M673.948,1009.845a3.208,3.208,0,0,0-4.3-3.015,3.428,3.428,0,0,0-.666.487,2.9,2.9,0,0,0-1.258,2.528,2.958,2.958,0,0,0,3.015,3.1,3.115,3.115,0,0,0,3.015-2.006A3.213,3.213,0,0,0,673.948,1009.845Z" transform="translate(-667.538 -1006.64)" fill="#b3e59f"/>
            <path id="Trazado_118116" data-name="Trazado 118116" d="M673.7,1010.994a3.206,3.206,0,1,1-4.106-4.106,3.208,3.208,0,0,0,4.106,4.106Z" transform="translate(-667.481 -1006.698)" fill="#95d6a4"/>
          </g>
          <g id="Grupo_55557" data-name="Grupo 55557" transform="translate(14.304 46.653)">
            <path id="Trazado_118117" data-name="Trazado 118117" d="M692.461,1024.419a3.208,3.208,0,0,0-4.3-3.015,3.447,3.447,0,0,0-.666.486,2.9,2.9,0,0,0-1.258,2.529,2.958,2.958,0,0,0,3.015,3.1,3.115,3.115,0,0,0,3.015-2.006A3.213,3.213,0,0,0,692.461,1024.419Z" transform="translate(-686.052 -1021.214)" fill="#b3e59f"/>
            <path id="Trazado_118118" data-name="Trazado 118118" d="M692.214,1025.567a3.206,3.206,0,1,1-4.106-4.105,3.206,3.206,0,0,0,4.106,4.105Z" transform="translate(-685.994 -1021.272)" fill="#95d6a4"/>
          </g>
        </g>
        <path id="Trazado_118119" data-name="Trazado 118119" d="M651.717,974.6a1.064,1.064,0,0,1-.929.68c-5.822.349-10.567,5.673-10.567,11.584s4.745,11.274,10.566,11.623a1.065,1.065,0,0,1,.93.683l1.872,3.621,1.81,4.719,1.183,3.428a1.067,1.067,0,0,1,.061.536,2.148,2.148,0,0,1-2.124,1.83h-5.408a2.148,2.148,0,0,1-2.147-2.147v-2.312a2.146,2.146,0,0,0-1.47-2.038,28.568,28.568,0,0,1-3.368-1.174,2.148,2.148,0,0,0-2.484.4L638,1007.67c-.838.838-1.664,1.052-2.5.213l-4.277-4.276a2.149,2.149,0,0,1,0-3.038l1.638-1.636a2.146,2.146,0,0,0,.4-2.484,25.139,25.139,0,0,1-1.388-3.047,2.146,2.146,0,0,0-2.037-1.471h-2.313a2.148,2.148,0,0,1-2.147-2.147v-5.621a2.147,2.147,0,0,1,2.147-2.147h2.313a2.23,2.23,0,0,0,1.93-1.685,21,21,0,0,1,1.174-2.834,2.147,2.147,0,0,0-.4-2.484l-1.638-1.637a2.15,2.15,0,0,1,0-3.037l4.277-4.278a2.151,2.151,0,0,1,3.038,0l1.636,1.638a2.146,2.146,0,0,0,2.484.4,20.98,20.98,0,0,1,2.833-1.174,2.146,2.146,0,0,0,1.471-2.037v-2.313a2.148,2.148,0,0,1,2.147-2.147h5.942a2.148,2.148,0,0,1,2.124,1.829,1.066,1.066,0,0,1-.061.539l-3.238,8.374Z" transform="translate(-625.267 -960.426)" fill="url(#linear-gradient-2)"/>
        <path id="Trazado_118120" data-name="Trazado 118120" d="M656.824,1017.764a2.148,2.148,0,0,1-2.124,1.83h-5.942a2.148,2.148,0,0,1-2.147-2.147v-2.312a2.147,2.147,0,0,0-1.471-2.038,21,21,0,0,1-2.833-1.173,2.147,2.147,0,0,0-2.484.4l-1.636,1.637a2.148,2.148,0,0,1-3.038,0l-4.277-4.276a2.151,2.151,0,0,1,0-3.038l1.638-1.636a2.147,2.147,0,0,0,.4-2.484,21,21,0,0,1-1.174-2.834,2.146,2.146,0,0,0-2.038-1.471h-2.312a2.147,2.147,0,0,1-2.147-2.147v-6.049a2.148,2.148,0,0,1,2.147-2.147h2.312a2.143,2.143,0,0,0,1.986-1.333q-.037.685-.036,1.377a25.75,25.75,0,0,0,23.721,25.668l1.4,3.641a1.059,1.059,0,0,1,.061.537Z" transform="translate(-625.235 -966.498)" fill="url(#linear-gradient-2)"/>
        <path id="Trazado_118121" data-name="Trazado 118121" d="M656.761,1006.015c-.534.053-1.3.1-1.827.1a15.917,15.917,0,1,1,0-31.835c.456,0,1.329.071,1.794.111l-1.54,3.983a1.065,1.065,0,0,1-.929.68,11.111,11.111,0,0,0,0,22.18,1.065,1.065,0,0,1,.93.683Z" transform="translate(-628.439 -963.647)" fill="url(#linear-gradient-2)"/>
        <path id="Trazado_118122" data-name="Trazado 118122" d="M651.791,993.075a6.158,6.158,0,0,1,2.418-5.238,6.41,6.41,0,0,1,9.086,8.706,6.237,6.237,0,0,1-5.391,2.746A6,6,0,0,1,651.791,993.075Z" transform="translate(-631.41 -966.527)" fill="#b3e59f"/>
        <path id="Trazado_118123" data-name="Trazado 118123" d="M663.206,996.853a6.411,6.411,0,1,1-8.861-8.861,6.412,6.412,0,0,0,8.861,8.861Z" transform="translate(-631.32 -966.836)" fill="#95d6a4"/>
      </g>
      <g id="Grupo_55560" data-name="Grupo 55560" transform="translate(0 0)">
        <path id="Trazado_118124" data-name="Trazado 118124" d="M669.873,977.009h7.8a4.006,4.006,0,1,0,0-4.807h-7.8a4.048,4.048,0,0,0-.853-.837V968.6l2.865-2.865h5.751a4.007,4.007,0,1,0,.081-4.807H670.89a2.39,2.39,0,0,0-1.7.7l-4.273,4.273a2.39,2.39,0,0,0-.7,1.7v3.837a4.054,4.054,0,0,0-1.385,4.293l-3.08,4.131a7.211,7.211,0,1,0-.035,13.737l3.111,4.135a3.994,3.994,0,0,0,1.39,4.276v3.837a2.39,2.39,0,0,0,.7,1.7l4.273,4.273a2.39,2.39,0,0,0,1.7.7h6.828a4.006,4.006,0,1,0-.081-4.808h-5.751l-2.865-2.865V1002.1a4.04,4.04,0,0,0,.852-.837h7.8a4.006,4.006,0,1,0,0-4.807h-7.8a4,4,0,0,0-3.2-1.6h-.005l-3.117-4.144a7.154,7.154,0,0,0,.786-1.572h13.343a4.006,4.006,0,1,0,0-4.807h-4.653a.8.8,0,1,0,0,1.6h3.93a4.181,4.181,0,0,0,0,1.6H664.7a7.369,7.369,0,0,0,0-1.6h4.479a.8.8,0,1,0,0-1.6h-4.847a7.209,7.209,0,0,0-.765-1.54l3.113-4.175a4,4,0,0,0,3.191-1.6Zm11.006-4.807a2.4,2.4,0,1,1-2.4,2.4A2.406,2.406,0,0,1,680.878,972.2ZM670.6,973.8h6.358a4.181,4.181,0,0,0,0,1.6H670.6a4.024,4.024,0,0,0,0-1.6Zm10.283-12.82a2.4,2.4,0,1,1-2.4,2.4A2.406,2.406,0,0,1,680.878,960.984Zm0,46.685a2.4,2.4,0,1,1-2.4,2.4A2.406,2.406,0,0,1,680.878,1007.669Zm0-11.217a2.4,2.4,0,1,1-2.4,2.4A2.406,2.406,0,0,1,680.878,996.453Zm-10.283,1.6h6.358a4.181,4.181,0,0,0,0,1.6H670.6A4.18,4.18,0,0,0,670.6,998.055Zm10.283-13.728a2.4,2.4,0,1,1-2.4,2.4A2.406,2.406,0,0,1,680.878,984.327Zm-15.063-16.719a.8.8,0,0,1,.235-.567l4.273-4.273a.8.8,0,0,1,.567-.235h6.075a4.006,4.006,0,0,0-.022,1.6h-5.39a.8.8,0,0,0-.566.235l-3.334,3.334a.8.8,0,0,0-.235.566v2.4a4.138,4.138,0,0,0-1.6.021Zm-8.279,24.731a5.609,5.609,0,1,1,5.609-5.609A5.615,5.615,0,0,1,657.536,992.34Zm13.451,16.751a.8.8,0,0,0,.566.235h5.39a4.139,4.139,0,0,0,.022,1.6H670.89a.8.8,0,0,1-.567-.235l-4.273-4.273a.793.793,0,0,1-.235-.566v-3.084a4.2,4.2,0,0,0,1.6.022v2.4a.8.8,0,0,0,.235.566Zm-4.317-12.638a2.4,2.4,0,1,1-2.4,2.4A2.406,2.406,0,0,1,666.67,996.453Zm-1.718-1.214a4.019,4.019,0,0,0-1.279.965l-2.461-3.271a7.237,7.237,0,0,0,1.277-.968Zm-2.438-13.718a7.252,7.252,0,0,0-1.272-.974l2.442-3.276a4.016,4.016,0,0,0,1.284.959Zm1.753-6.915a2.4,2.4,0,1,1,2.4,2.4A2.407,2.407,0,0,1,664.266,974.606Z" transform="translate(-630.241 -959.382)" fill="#00223d"/>
        <path id="Trazado_118125" data-name="Trazado 118125" d="M649.528,1012.477H648.48a1.347,1.347,0,0,1-1.346-1.346v-2.312a2.942,2.942,0,0,0-2.02-2.8,20.292,20.292,0,0,1-2.725-1.129,2.944,2.944,0,0,0-3.411.546l-1.636,1.637a1.346,1.346,0,0,1-1.9,0l-4.277-4.276a1.35,1.35,0,0,1,0-1.9l1.638-1.637a2.943,2.943,0,0,0,.547-3.411,20.152,20.152,0,0,1-1.13-2.725,2.942,2.942,0,0,0-2.8-2.021H627.1a1.347,1.347,0,0,1-1.346-1.346v-6.048a1.348,1.348,0,0,1,1.346-1.346h2.313a2.942,2.942,0,0,0,2.8-2.02,20.3,20.3,0,0,1,1.129-2.725,2.944,2.944,0,0,0-.546-3.411l-1.637-1.635a1.351,1.351,0,0,1,0-1.9l4.277-4.277a1.351,1.351,0,0,1,1.9,0l1.636,1.639a2.944,2.944,0,0,0,3.411.546,20.241,20.241,0,0,1,2.724-1.13,2.942,2.942,0,0,0,2.021-2.8v-2.313a1.348,1.348,0,0,1,1.346-1.346h5.942a1.354,1.354,0,0,1,1.332,1.146.266.266,0,0,1-.017.132l-.812,2.1a.8.8,0,1,0,1.494.578l.813-2.1a1.875,1.875,0,0,0,.107-.946,2.966,2.966,0,0,0-2.917-2.512H648.48a2.953,2.953,0,0,0-2.949,2.949v2.313a1.341,1.341,0,0,1-.922,1.276,21.858,21.858,0,0,0-2.941,1.219,1.344,1.344,0,0,1-1.557-.249l-1.637-1.638a2.954,2.954,0,0,0-4.17,0l-4.278,4.278a2.955,2.955,0,0,0,0,4.17l1.638,1.636a1.343,1.343,0,0,1,.248,1.557,21.866,21.866,0,0,0-1.219,2.942,1.342,1.342,0,0,1-1.276.921H627.1a2.952,2.952,0,0,0-2.949,2.949v6.048A2.952,2.952,0,0,0,627.1,992.7h2.313a1.342,1.342,0,0,1,1.276.922,21.872,21.872,0,0,0,1.219,2.942,1.342,1.342,0,0,1-.248,1.556l-1.638,1.638a2.954,2.954,0,0,0,0,4.17l4.278,4.276a2.951,2.951,0,0,0,4.17,0l1.637-1.637a1.345,1.345,0,0,1,1.557-.248,21.881,21.881,0,0,0,2.942,1.219,1.343,1.343,0,0,1,.921,1.277v2.312a2.952,2.952,0,0,0,2.949,2.949h1.048a.8.8,0,1,0,0-1.6Z" transform="translate(-624.156 -959.382)" fill="#00223d"/>
        <path id="Trazado_118126" data-name="Trazado 118126" d="M655.658,1000.575a1.871,1.871,0,0,0-1.63-1.2,10.309,10.309,0,0,1,0-20.581,1.871,1.871,0,0,0,1.629-1.191l2.616-6.765a.8.8,0,0,0-1.494-.578l-.854,2.208c-.421-.031-.847-.048-1.27-.048a16.737,16.737,0,0,0-16.719,16.719,16.548,16.548,0,0,0,3.55,10.3.8.8,0,0,0,1.261-.988,14.969,14.969,0,0,1-3.209-9.314,15.133,15.133,0,0,1,15.116-15.116c.221,0,.443,0,.664.014l-1.156,2.989a.265.265,0,0,1-.23.17,11.912,11.912,0,0,0,0,23.779.263.263,0,0,1,.229.17l1.187,3.094a15.105,15.105,0,0,1-10.092-3.259.8.8,0,1,0-1,1.254,16.652,16.652,0,0,0,11.69,3.575l2.992,7.8a.267.267,0,0,1,.016.132,1.353,1.353,0,0,1-1.332,1.146h-1.155a.8.8,0,0,0,0,1.6h1.155a2.965,2.965,0,0,0,2.917-2.514,1.86,1.86,0,0,0-.105-.941Z" transform="translate(-627.36 -961.793)" fill="#00223d"/>
      </g>
    </g>
    <path id="Trazado_118141" data-name="Trazado 118141" d="M830.515,1104.729a7.062,7.062,0,0,0-2.36,13.724h4.719a7.062,7.062,0,0,0-2.359-13.724Z" transform="translate(-195.332 1126.875)" fill="#ff6148"/>
    <path id="Trazado_118142" data-name="Trazado 118142" d="M832.124,1143.52a1.77,1.77,0,0,1-1.77-1.77V1121.1a1.77,1.77,0,1,1,3.54,0v20.647A1.771,1.771,0,0,1,832.124,1143.52Z" transform="translate(-196.941 1123.479)" fill="#00223d"/>
    <path id="Trazado_118143" data-name="Trazado 118143" d="M830.515,1118.887a7.079,7.079,0,1,1,7.079-7.079A7.088,7.088,0,0,1,830.515,1118.887Zm0-10.619a3.54,3.54,0,1,0,3.54,3.54A3.544,3.544,0,0,0,830.515,1108.269Z" transform="translate(-195.332 1126.875)" fill="#00223d"/>
    <path id="Trazado_118144" data-name="Trazado 118144" d="M842.841,1125.9a1.771,1.771,0,0,1-1.251-3.025,24.506,24.506,0,0,0,7.268-17.5,24.777,24.777,0,1,0-49.554,0,24.526,24.526,0,0,0,7.266,17.506,1.771,1.771,0,0,1-2.5,2.509,28.044,28.044,0,0,1-8.306-20.015,28.316,28.316,0,1,1,56.632,0,28.027,28.027,0,0,1-8.308,20.013A1.763,1.763,0,0,1,842.841,1125.9Z" transform="translate(-188.898 1133.31)" fill="#00223d"/>
    <path id="Trazado_118145" data-name="Trazado 118145" d="M839.022,1122.085a1.771,1.771,0,0,1-1.246-3.028,15.14,15.14,0,0,0,4.5-10.824,15.338,15.338,0,1,0-30.676,0,15.146,15.146,0,0,0,4.5,10.826,1.771,1.771,0,0,1-2.5,2.514,18.669,18.669,0,0,1-5.547-13.339,18.878,18.878,0,0,1,37.755,0,18.65,18.65,0,0,1-5.55,13.336A1.756,1.756,0,0,1,839.022,1122.085Z" transform="translate(-191.757 1130.449)" fill="#00223d"/>
    <path id="Línea_1814" data-name="Línea 1814" d="M0,94.132a.5.5,0,0,1-.5-.5V90a.5.5,0,0,1,.5-.5.5.5,0,0,1,.5.5v3.632A.5.5,0,0,1,0,94.132ZM0,85.5A.5.5,0,0,1-.5,85V80a.5.5,0,0,1,.5-.5.5.5,0,0,1,.5.5v5A.5.5,0,0,1,0,85.5Zm0-10A.5.5,0,0,1-.5,75V70a.5.5,0,0,1,.5-.5.5.5,0,0,1,.5.5v5A.5.5,0,0,1,0,75.5Zm0-10A.5.5,0,0,1-.5,65V60a.5.5,0,0,1,.5-.5.5.5,0,0,1,.5.5v5A.5.5,0,0,1,0,65.5Zm0-10A.5.5,0,0,1-.5,55V50a.5.5,0,0,1,.5-.5.5.5,0,0,1,.5.5v5A.5.5,0,0,1,0,55.5Zm0-10A.5.5,0,0,1-.5,45V40a.5.5,0,0,1,.5-.5.5.5,0,0,1,.5.5v5A.5.5,0,0,1,0,45.5Zm0-10A.5.5,0,0,1-.5,35V30a.5.5,0,0,1,.5-.5.5.5,0,0,1,.5.5v5A.5.5,0,0,1,0,35.5Zm0-10A.5.5,0,0,1-.5,25V20a.5.5,0,0,1,.5-.5.5.5,0,0,1,.5.5v5A.5.5,0,0,1,0,25.5Zm0-10A.5.5,0,0,1-.5,15V10A.5.5,0,0,1,0,9.5a.5.5,0,0,1,.5.5v5A.5.5,0,0,1,0,15.5Zm0-10A.5.5,0,0,1-.5,5V0A.5.5,0,0,1,0-.5.5.5,0,0,1,.5,0V5A.5.5,0,0,1,0,5.5Z" transform="translate(388.07 2199.237)" fill="#083142"/>
    <path id="Línea_1815" data-name="Línea 1815" d="M0,94.132a.5.5,0,0,1-.5-.5V90a.5.5,0,0,1,.5-.5.5.5,0,0,1,.5.5v3.632A.5.5,0,0,1,0,94.132ZM0,85.5A.5.5,0,0,1-.5,85V80a.5.5,0,0,1,.5-.5.5.5,0,0,1,.5.5v5A.5.5,0,0,1,0,85.5Zm0-10A.5.5,0,0,1-.5,75V70a.5.5,0,0,1,.5-.5.5.5,0,0,1,.5.5v5A.5.5,0,0,1,0,75.5Zm0-10A.5.5,0,0,1-.5,65V60a.5.5,0,0,1,.5-.5.5.5,0,0,1,.5.5v5A.5.5,0,0,1,0,65.5Zm0-10A.5.5,0,0,1-.5,55V50a.5.5,0,0,1,.5-.5.5.5,0,0,1,.5.5v5A.5.5,0,0,1,0,55.5Zm0-10A.5.5,0,0,1-.5,45V40a.5.5,0,0,1,.5-.5.5.5,0,0,1,.5.5v5A.5.5,0,0,1,0,45.5Zm0-10A.5.5,0,0,1-.5,35V30a.5.5,0,0,1,.5-.5.5.5,0,0,1,.5.5v5A.5.5,0,0,1,0,35.5Zm0-10A.5.5,0,0,1-.5,25V20a.5.5,0,0,1,.5-.5.5.5,0,0,1,.5.5v5A.5.5,0,0,1,0,25.5Zm0-10A.5.5,0,0,1-.5,15V10A.5.5,0,0,1,0,9.5a.5.5,0,0,1,.5.5v5A.5.5,0,0,1,0,15.5Zm0-10A.5.5,0,0,1-.5,5V0A.5.5,0,0,1,0-.5.5.5,0,0,1,.5,0V5A.5.5,0,0,1,0,5.5Z" transform="translate(487.414 2199.237)" fill="#083142"/>
    <path id="Línea_1816" data-name="Línea 1816" d="M0,94.132a.5.5,0,0,1-.5-.5V90a.5.5,0,0,1,.5-.5.5.5,0,0,1,.5.5v3.632A.5.5,0,0,1,0,94.132ZM0,85.5A.5.5,0,0,1-.5,85V80a.5.5,0,0,1,.5-.5.5.5,0,0,1,.5.5v5A.5.5,0,0,1,0,85.5Zm0-10A.5.5,0,0,1-.5,75V70a.5.5,0,0,1,.5-.5.5.5,0,0,1,.5.5v5A.5.5,0,0,1,0,75.5Zm0-10A.5.5,0,0,1-.5,65V60a.5.5,0,0,1,.5-.5.5.5,0,0,1,.5.5v5A.5.5,0,0,1,0,65.5Zm0-10A.5.5,0,0,1-.5,55V50a.5.5,0,0,1,.5-.5.5.5,0,0,1,.5.5v5A.5.5,0,0,1,0,55.5Zm0-10A.5.5,0,0,1-.5,45V40a.5.5,0,0,1,.5-.5.5.5,0,0,1,.5.5v5A.5.5,0,0,1,0,45.5Zm0-10A.5.5,0,0,1-.5,35V30a.5.5,0,0,1,.5-.5.5.5,0,0,1,.5.5v5A.5.5,0,0,1,0,35.5Zm0-10A.5.5,0,0,1-.5,25V20a.5.5,0,0,1,.5-.5.5.5,0,0,1,.5.5v5A.5.5,0,0,1,0,25.5Zm0-10A.5.5,0,0,1-.5,15V10A.5.5,0,0,1,0,9.5a.5.5,0,0,1,.5.5v5A.5.5,0,0,1,0,15.5Zm0-10A.5.5,0,0,1-.5,5V0A.5.5,0,0,1,0-.5.5.5,0,0,1,.5,0V5A.5.5,0,0,1,0,5.5Z" transform="translate(587.586 2199.237)" fill="#083142"/>
    <path id="Línea_1817" data-name="Línea 1817" d="M0,94.132a.5.5,0,0,1-.5-.5V90a.5.5,0,0,1,.5-.5.5.5,0,0,1,.5.5v3.632A.5.5,0,0,1,0,94.132ZM0,85.5A.5.5,0,0,1-.5,85V80a.5.5,0,0,1,.5-.5.5.5,0,0,1,.5.5v5A.5.5,0,0,1,0,85.5Zm0-10A.5.5,0,0,1-.5,75V70a.5.5,0,0,1,.5-.5.5.5,0,0,1,.5.5v5A.5.5,0,0,1,0,75.5Zm0-10A.5.5,0,0,1-.5,65V60a.5.5,0,0,1,.5-.5.5.5,0,0,1,.5.5v5A.5.5,0,0,1,0,65.5Zm0-10A.5.5,0,0,1-.5,55V50a.5.5,0,0,1,.5-.5.5.5,0,0,1,.5.5v5A.5.5,0,0,1,0,55.5Zm0-10A.5.5,0,0,1-.5,45V40a.5.5,0,0,1,.5-.5.5.5,0,0,1,.5.5v5A.5.5,0,0,1,0,45.5Zm0-10A.5.5,0,0,1-.5,35V30a.5.5,0,0,1,.5-.5.5.5,0,0,1,.5.5v5A.5.5,0,0,1,0,35.5Zm0-10A.5.5,0,0,1-.5,25V20a.5.5,0,0,1,.5-.5.5.5,0,0,1,.5.5v5A.5.5,0,0,1,0,25.5Zm0-10A.5.5,0,0,1-.5,15V10A.5.5,0,0,1,0,9.5a.5.5,0,0,1,.5.5v5A.5.5,0,0,1,0,15.5Zm0-10A.5.5,0,0,1-.5,5V0A.5.5,0,0,1,0-.5.5.5,0,0,1,.5,0V5A.5.5,0,0,1,0,5.5Z" transform="translate(686.93 2199.569)" fill="#083142"/>
    <path id="Trazado_773062" data-name="Trazado 773062" d="M180.1,18.174a8.127,8.127,0,0,1-2.127.725,12.21,12.21,0,0,1-2.7.321,7.285,7.285,0,0,1-5.115-1.657,5.994,5.994,0,0,1-1.8-4.645,6.92,6.92,0,0,1,.91-3.56,5.9,5.9,0,0,1,2.562-2.364,8.766,8.766,0,0,1,3.894-.809,14.489,14.489,0,0,1,3.507.466V9.965a7.456,7.456,0,0,0-1.67-.549,9.275,9.275,0,0,0-1.749-.154,3.341,3.341,0,0,0-2.492.94,3.52,3.52,0,0,0-.927,2.584,3.609,3.609,0,0,0,.778,2.461,2.739,2.739,0,0,0,2.175.888,4.709,4.709,0,0,0,.958-.07v-1.8H173.89V11.389H180.1Zm8.473-4.966a3.6,3.6,0,0,0-1.169-.255q-1.854,0-1.854,2.145V19h-3.744V10h3.744v1.582h.035a2.81,2.81,0,0,1,.976-1.3,2.506,2.506,0,0,1,1.477-.444,1.269,1.269,0,0,1,.536.105ZM195.388,19V17.611h-.035a4.926,4.926,0,0,1-.839.94,3.23,3.23,0,0,1-.844.483,2.983,2.983,0,0,1-1.094.185,2.722,2.722,0,0,1-2.25-.958,4.429,4.429,0,0,1-.773-2.83V10H193.3v5.15q0,1.327.993,1.327a.972.972,0,0,0,.822-.36,1.642,1.642,0,0,0,.277-1.02V10h3.744v9Zm15.688-4.772a6.4,6.4,0,0,1-.5,2.61A4.046,4.046,0,0,1,209.16,18.6a3.564,3.564,0,0,1-2.057.624,2.755,2.755,0,0,1-2.4-1.151h-.035V23.14h-3.744V10h3.744v1.222h.035a3.171,3.171,0,0,1,1.16-1.059,3.364,3.364,0,0,1,1.617-.382,3.215,3.215,0,0,1,2.667,1.16A5.147,5.147,0,0,1,211.076,14.228Zm-3.8.114a2.346,2.346,0,0,0-.33-1.336,1.237,1.237,0,0,0-1.982.026,2.341,2.341,0,0,0-.369,1.4v.176a2.562,2.562,0,0,0,.316,1.362,1.044,1.044,0,0,0,.949.51,1.182,1.182,0,0,0,1.046-.558A2.849,2.849,0,0,0,207.279,14.342Zm15.214,0a4.687,4.687,0,0,1-1.375,3.577,6.355,6.355,0,0,1-7.664.031,4.546,4.546,0,0,1-1.367-3.5,4.692,4.692,0,0,1,.642-2.487,4.172,4.172,0,0,1,1.828-1.617,6.311,6.311,0,0,1,2.733-.562,6.113,6.113,0,0,1,2.773.589,4.286,4.286,0,0,1,1.8,1.635A4.452,4.452,0,0,1,222.493,14.342Zm-3.8.018q0-1.837-1.406-1.837t-1.406,1.925q0,2.03,1.424,2.03Q218.7,16.478,218.7,14.359ZM231.2,16.012a2.749,2.749,0,0,1-1.165,2.369,5.474,5.474,0,0,1-3.248.839,11.291,11.291,0,0,1-1.5-.123,9.257,9.257,0,0,1-1.455-.3V16.17a7.162,7.162,0,0,0,2.777.738q1.1,0,1.1-.571a.451.451,0,0,0-.255-.391,9.009,9.009,0,0,0-1.336-.514,3.773,3.773,0,0,1-1.74-1,2.382,2.382,0,0,1-.545-1.626,2.594,2.594,0,0,1,1.112-2.21,5.216,5.216,0,0,1,3.125-.813,9.931,9.931,0,0,1,2.5.343v2.522a7.549,7.549,0,0,0-1.213-.4,4.9,4.9,0,0,0-1.107-.158,1.205,1.205,0,0,0-.589.123.379.379,0,0,0-.22.343.478.478,0,0,0,.237.413,4.2,4.2,0,0,0,.949.378,4.4,4.4,0,0,1,1.978,1.037A2.272,2.272,0,0,1,231.2,16.012Zm16.137,1.731a5.116,5.116,0,0,1-1.63,4.039,6.962,6.962,0,0,1-4.759,1.446,9.93,9.93,0,0,1-1.635-.132,4.5,4.5,0,0,1-1.134-.3V19.861a5.656,5.656,0,0,0,2.663.773,3.122,3.122,0,0,0,2.013-.606,1.959,1.959,0,0,0,.756-1.608v-.554h-.035a2.909,2.909,0,0,1-1.112.984,3.23,3.23,0,0,1-1.516.369,3.4,3.4,0,0,1-2.751-1.208,5.045,5.045,0,0,1-1.011-3.335,5.964,5.964,0,0,1,.527-2.575,4.018,4.018,0,0,1,1.468-1.718,3.769,3.769,0,0,1,2.074-.6,2.6,2.6,0,0,1,2.32,1.151h.035V10h3.727Zm-3.665-3.5a2.02,2.02,0,0,0-.356-1.257,1.13,1.13,0,0,0-.945-.466,1.163,1.163,0,0,0-1.011.563,2.656,2.656,0,0,0-.378,1.5,2.6,2.6,0,0,0,.316,1.38,1.092,1.092,0,0,0,1,.51,1.161,1.161,0,0,0,1.006-.523,2.408,2.408,0,0,0,.365-1.4ZM249.142,19V5.676h3.744V19ZM264.7,14.342a4.687,4.687,0,0,1-1.375,3.577,6.355,6.355,0,0,1-7.664.031,4.546,4.546,0,0,1-1.367-3.5,4.692,4.692,0,0,1,.642-2.487,4.172,4.172,0,0,1,1.828-1.617A6.311,6.311,0,0,1,259.5,9.78a6.113,6.113,0,0,1,2.773.589A4.286,4.286,0,0,1,264.07,12,4.452,4.452,0,0,1,264.7,14.342Zm-3.8.018q0-1.837-1.406-1.837t-1.406,1.925q0,2.03,1.424,2.03Q260.9,16.478,260.9,14.359Zm15.346-.132a6.586,6.586,0,0,1-.488,2.615,3.975,3.975,0,0,1-1.384,1.758,3.486,3.486,0,0,1-2.03.62,3.2,3.2,0,0,1-1.49-.321,2.683,2.683,0,0,1-.98-.831h-.035V19H266.1V5.676h3.744v5.546h.035a3.083,3.083,0,0,1,1.191-1.055,3.567,3.567,0,0,1,1.657-.387,3.157,3.157,0,0,1,2.615,1.134A5.2,5.2,0,0,1,276.247,14.228Zm-3.8.114a2.234,2.234,0,0,0-.347-1.362,1.25,1.25,0,0,0-1.951.022,1.933,1.933,0,0,0-.382,1.244v.545a2,2,0,0,0,.343,1.23,1.094,1.094,0,0,0,.923.457,1.182,1.182,0,0,0,1.046-.558A2.849,2.849,0,0,0,272.45,14.342ZM282.646,19V17.629h-.035a2.944,2.944,0,0,1-2.742,1.591,2.625,2.625,0,0,1-2-.756,2.808,2.808,0,0,1-.721-2.021q0-2.654,3.261-3.076l2.232-.29a.851.851,0,0,0-.4-.721,1.8,1.8,0,0,0-1.063-.281,7,7,0,0,0-3.19.861V10.5a8.535,8.535,0,0,1,1.828-.519,10.639,10.639,0,0,1,1.881-.2,4.722,4.722,0,0,1,3.327.98,4.368,4.368,0,0,1,1.033,3.274V19Zm-2.215-3.059a.83.83,0,0,0,.233.606.888.888,0,0,0,.664.237,1.18,1.18,0,0,0,.954-.439,1.7,1.7,0,0,0,.365-1.125v-.343l-1.266.176Q280.431,15.212,280.431,15.941ZM287.752,19V5.676H291.5V19Zm8.771-3.437a1.265,1.265,0,0,0,.668.91,3.012,3.012,0,0,0,1.512.33,6.226,6.226,0,0,0,2.479-.5v2.373a8.908,8.908,0,0,1-3.3.545,5.214,5.214,0,0,1-3.665-1.2A4.277,4.277,0,0,1,292.9,14.7a5.467,5.467,0,0,1,.576-2.558,4.142,4.142,0,0,1,1.705-1.736,5.038,5.038,0,0,1,2.492-.628,4.9,4.9,0,0,1,2.391.545,3.63,3.63,0,0,1,1.507,1.529,4.906,4.906,0,0,1,.514,2.3v1.406Zm2.25-1.96q0-1.556-1.116-1.556a.944.944,0,0,0-.782.426,2.127,2.127,0,0,0-.369,1.129Zm11.918,2.408a2.749,2.749,0,0,1-1.165,2.369,5.474,5.474,0,0,1-3.248.839,11.291,11.291,0,0,1-1.5-.123,9.257,9.257,0,0,1-1.455-.3V16.17a7.162,7.162,0,0,0,2.777.738q1.1,0,1.1-.571a.451.451,0,0,0-.255-.391,9.009,9.009,0,0,0-1.336-.514,3.773,3.773,0,0,1-1.74-1,2.382,2.382,0,0,1-.545-1.626,2.594,2.594,0,0,1,1.112-2.21,5.216,5.216,0,0,1,3.125-.813,9.931,9.931,0,0,1,2.5.343v2.522a7.549,7.549,0,0,0-1.213-.4,4.9,4.9,0,0,0-1.107-.158,1.205,1.205,0,0,0-.589.123.379.379,0,0,0-.22.343.478.478,0,0,0,.237.413,4.2,4.2,0,0,0,.949.378,4.4,4.4,0,0,1,1.978,1.037A2.272,2.272,0,0,1,310.691,16.012Z" transform="translate(298 2153)" fill="#12263f"/>
    <path id="Trazado_773063" data-name="Trazado 773063" d="M-13.644,0h-1.7l1.066-5.027q.176-.8.457-1.8h-.047q-.082.188-.173.375t-.179.354q-.088.167-.164.3t-.135.214l-2.25,3.064h-1.324l-.873-3.006A1.7,1.7,0,0,1-19.02-5.8a2.882,2.882,0,0,1-.026-.4v-.627H-19.1q-.082.551-.161,1.014t-.144.779L-20.476,0h-1.705l1.787-8.4h2.25l.861,2.918q.041.141.076.3t.059.322q.023.161.035.311t.012.267h.029q.064-.129.138-.29t.152-.328q.079-.167.167-.322a2.542,2.542,0,0,1,.176-.272L-14.294-8.4h2.438Zm8.156-3.621a4.658,4.658,0,0,1-.082.855,4.21,4.21,0,0,1-.258.858,3.788,3.788,0,0,1-.454.794,2.936,2.936,0,0,1-.674.653,3.312,3.312,0,0,1-.914.442A3.911,3.911,0,0,1-9.05.146a3.189,3.189,0,0,1-1.163-.193A2.218,2.218,0,0,1-11.03-.58a2.167,2.167,0,0,1-.48-.806,3.105,3.105,0,0,1-.158-1,4.576,4.576,0,0,1,.088-.882,4.042,4.042,0,0,1,.272-.864,3.689,3.689,0,0,1,.472-.782,3.056,3.056,0,0,1,.686-.639,3.355,3.355,0,0,1,.911-.431,3.9,3.9,0,0,1,1.151-.158,3.191,3.191,0,0,1,1.11.179,2.223,2.223,0,0,1,.814.51,2.186,2.186,0,0,1,.5.8A2.971,2.971,0,0,1-5.487-3.621ZM-7.356-3.6a1.67,1.67,0,0,0-.059-.454,1.05,1.05,0,0,0-.173-.357.824.824,0,0,0-.278-.234.817.817,0,0,0-.381-.085,1.092,1.092,0,0,0-.659.211,1.808,1.808,0,0,0-.489.545,2.8,2.8,0,0,0-.3.75,3.374,3.374,0,0,0-.105.832,1.239,1.239,0,0,0,.249.826.81.81,0,0,0,.647.293,1.133,1.133,0,0,0,.671-.205,1.719,1.719,0,0,0,.486-.536,2.677,2.677,0,0,0,.3-.747A3.586,3.586,0,0,0-7.356-3.6Zm-.486-3.352H-9.22l1.846-1.9h1.693ZM.993-1.98Q.952-1.8.914-1.541T.844-1Q.812-.727.791-.46T.771,0H-1.1q0-.082.009-.22T-1.072-.5q.015-.146.029-.284t.021-.22h-.023a4.443,4.443,0,0,1-.378.469,2.447,2.447,0,0,1-.422.363,1.923,1.923,0,0,1-.489.237,1.883,1.883,0,0,1-.58.085,1.893,1.893,0,0,1-.776-.152,1.581,1.581,0,0,1-.583-.442,1.99,1.99,0,0,1-.366-.721,3.5,3.5,0,0,1-.126-.981A4.39,4.39,0,0,1-4.5-3.665a3.813,3.813,0,0,1,.765-1.274,3.7,3.7,0,0,1,1.222-.879A3.918,3.918,0,0,1-.876-6.146q.234,0,.478.023T0-6.07L.6-8.883H2.446ZM-.267-4.775a2.059,2.059,0,0,0-.3-.053,2.891,2.891,0,0,0-.313-.018,1.739,1.739,0,0,0-.709.135,1.789,1.789,0,0,0-.53.354,2.1,2.1,0,0,0-.378.5,3.2,3.2,0,0,0-.243.563,3.383,3.383,0,0,0-.129.551,3.349,3.349,0,0,0-.038.466,1.628,1.628,0,0,0,.047.4,1.012,1.012,0,0,0,.138.319.64.64,0,0,0,.234.211.709.709,0,0,0,.337.076.94.94,0,0,0,.577-.19,1.862,1.862,0,0,0,.451-.5,3.333,3.333,0,0,0,.331-.691,7.021,7.021,0,0,0,.223-.771Zm8.414.322a1.85,1.85,0,0,1-.2.85,1.7,1.7,0,0,1-.656.668,3.907,3.907,0,0,1-1.222.442,10.141,10.141,0,0,1-1.9.179.2.2,0,0,0-.012.062V-2.2a1.177,1.177,0,0,0,.059.363.829.829,0,0,0,.2.328,1.052,1.052,0,0,0,.378.237,1.634,1.634,0,0,0,.586.091,3.058,3.058,0,0,0,.46-.038,4.152,4.152,0,0,0,.507-.111A5.128,5.128,0,0,0,6.867-1.5a3.915,3.915,0,0,0,.472-.226L7.052-.346a3.886,3.886,0,0,1-.416.182,5.01,5.01,0,0,1-.507.158,4.929,4.929,0,0,1-.58.111,4.762,4.762,0,0,1-.63.041,3.071,3.071,0,0,1-1.166-.2,2.225,2.225,0,0,1-.8-.536,2.088,2.088,0,0,1-.46-.788,3.093,3.093,0,0,1-.146-.961A4.184,4.184,0,0,1,2.6-3.8,3.691,3.691,0,0,1,3.328-5.01a3.487,3.487,0,0,1,1.137-.829A3.5,3.5,0,0,1,5.95-6.146a3.168,3.168,0,0,1,1.008.141,1.922,1.922,0,0,1,.68.378,1.462,1.462,0,0,1,.387.542A1.675,1.675,0,0,1,8.147-4.453ZM6.384-4.43a.462.462,0,0,0-.161-.36.66.66,0,0,0-.454-.144,1.152,1.152,0,0,0-.5.111,1.53,1.53,0,0,0-.434.308,1.868,1.868,0,0,0-.337.469,2.424,2.424,0,0,0-.211.589A3.664,3.664,0,0,0,5.865-3.7.792.792,0,0,0,6.384-4.43ZM18.729-4.57a2.069,2.069,0,0,1-.018.234q-.018.146-.044.3t-.056.308q-.029.149-.053.255L17.827,0H15.97L16.7-3.422q.035-.187.07-.387a1.9,1.9,0,0,0,.035-.3.669.669,0,0,0-.141-.454.545.545,0,0,0-.434-.161.925.925,0,0,0-.475.152,2.185,2.185,0,0,0-.478.4,2.849,2.849,0,0,0-.4.563,2.371,2.371,0,0,0-.243.65L14.024,0H12.155l.732-3.422q.035-.187.07-.387a1.9,1.9,0,0,0,.035-.3.66.66,0,0,0-.144-.454.547.547,0,0,0-.431-.161.933.933,0,0,0-.48.152,2.092,2.092,0,0,0-.475.4,2.907,2.907,0,0,0-.393.565,2.44,2.44,0,0,0-.24.645L10.2,0H8.323l.891-4.113.105-.542q.053-.272.094-.521t.073-.463q.032-.214.05-.36h1.828q-.018.164-.038.343t-.041.343q-.021.164-.038.29t-.029.179h.023a4.262,4.262,0,0,1,.472-.519,3.4,3.4,0,0,1,.536-.41,2.793,2.793,0,0,1,.58-.272,1.88,1.88,0,0,1,.6-.1,1.425,1.425,0,0,1,1.061.363A1.591,1.591,0,0,1,14.9-4.775a4.173,4.173,0,0,1,.486-.557,3.278,3.278,0,0,1,.563-.434,2.764,2.764,0,0,1,.621-.281,2.21,2.21,0,0,1,.656-.1,1.457,1.457,0,0,1,1.122.407A1.657,1.657,0,0,1,18.729-4.57Z" transform="translate(335 2287)" fill="#12263f"/>
    <path id="Trazado_773064" data-name="Trazado 773064" d="M-11-6.264A2.328,2.328,0,0,1-11.2-5.3a2.335,2.335,0,0,1-.527.747,2.75,2.75,0,0,1-.782.516,3.535,3.535,0,0,1-.958.27v.023a1.282,1.282,0,0,1,.621.445,2.23,2.23,0,0,1,.387.873L-11.871,0H-13.9l-.457-2.162a1.525,1.525,0,0,0-.369-.788.968.968,0,0,0-.721-.267h-.322L-16.453,0h-1.91l1.787-8.4h2.871a3.953,3.953,0,0,1,1.248.173,2.3,2.3,0,0,1,.838.469,1.771,1.771,0,0,1,.469.683A2.28,2.28,0,0,1-11-6.264Zm-2.016.311a1,1,0,0,0-.287-.759,1.218,1.218,0,0,0-.867-.272h-.791l-.5,2.338h.768a2.32,2.32,0,0,0,.75-.108,1.547,1.547,0,0,0,.521-.287,1.156,1.156,0,0,0,.308-.416A1.236,1.236,0,0,0-13.02-5.953Zm8.59,2.332a4.658,4.658,0,0,1-.082.855,4.21,4.21,0,0,1-.258.858,3.788,3.788,0,0,1-.454.794A2.936,2.936,0,0,1-5.9-.46a3.312,3.312,0,0,1-.914.442A3.911,3.911,0,0,1-7.992.146,3.189,3.189,0,0,1-9.155-.047,2.218,2.218,0,0,1-9.973-.58a2.167,2.167,0,0,1-.48-.806,3.105,3.105,0,0,1-.158-1,4.576,4.576,0,0,1,.088-.882,4.042,4.042,0,0,1,.272-.864,3.689,3.689,0,0,1,.472-.782,3.056,3.056,0,0,1,.686-.639,3.355,3.355,0,0,1,.911-.431,3.9,3.9,0,0,1,1.151-.158,3.191,3.191,0,0,1,1.11.179,2.223,2.223,0,0,1,.814.51,2.186,2.186,0,0,1,.5.8A2.971,2.971,0,0,1-4.43-3.621ZM-6.3-3.6a1.67,1.67,0,0,0-.059-.454,1.05,1.05,0,0,0-.173-.357.824.824,0,0,0-.278-.234.817.817,0,0,0-.381-.085,1.092,1.092,0,0,0-.659.211,1.808,1.808,0,0,0-.489.545,2.8,2.8,0,0,0-.3.75,3.374,3.374,0,0,0-.105.832,1.239,1.239,0,0,0,.249.826.81.81,0,0,0,.647.293,1.133,1.133,0,0,0,.671-.205,1.719,1.719,0,0,0,.486-.536,2.677,2.677,0,0,0,.3-.747A3.586,3.586,0,0,0-6.3-3.6ZM2.092-1.992q-.053.264-.1.548T1.91-.9q-.035.264-.059.5T1.816,0H-.059q.018-.17.038-.346T.023-.677Q.047-.832.064-.955t.023-.176H.064a4.3,4.3,0,0,1-.489.521,3.368,3.368,0,0,1-.545.4,2.786,2.786,0,0,1-.586.261,2.053,2.053,0,0,1-.612.094A1.465,1.465,0,0,1-3.3-.267,1.645,1.645,0,0,1-3.68-1.43a2.069,2.069,0,0,1,.018-.234q.018-.146.044-.3t.053-.308q.026-.149.05-.255L-2.783-6H-.92l-.721,3.387q-.023.094-.044.2t-.035.205q-.015.1-.023.182a1.285,1.285,0,0,0-.009.129.592.592,0,0,0,.141.413.525.525,0,0,0,.41.155,1.1,1.1,0,0,0,.568-.164,1.974,1.974,0,0,0,.5-.428,2.88,2.88,0,0,0,.384-.592A2.836,2.836,0,0,0,.48-3.17L1.084-6H2.953ZM7.658-4.635h-1.4l-.48,2.244q-.012.076-.029.164t-.032.176q-.015.088-.026.167a.929.929,0,0,0-.012.132.457.457,0,0,0,.117.346.551.551,0,0,0,.387.111,1.159,1.159,0,0,0,.179-.018q.108-.018.223-.047t.22-.062q.105-.032.17-.056L6.686-.105a2.559,2.559,0,0,1-.258.082q-.152.041-.334.076T5.716.111a3.236,3.236,0,0,1-.384.023A2.1,2.1,0,0,1,4.588.021,1.19,1.19,0,0,1,4.11-.3a1.161,1.161,0,0,1-.252-.472,2.229,2.229,0,0,1-.073-.586q0-.094.012-.217t.032-.252q.021-.129.047-.261t.05-.243l.48-2.309H3.48L3.809-6h.885L5-7.406l1.951-.48L6.557-6H7.98Zm6.111.182a1.85,1.85,0,0,1-.2.85,1.7,1.7,0,0,1-.656.668,3.907,3.907,0,0,1-1.222.442,10.141,10.141,0,0,1-1.9.179.2.2,0,0,0-.012.062V-2.2a1.177,1.177,0,0,0,.059.363.829.829,0,0,0,.2.328,1.052,1.052,0,0,0,.378.237,1.634,1.634,0,0,0,.586.091,3.058,3.058,0,0,0,.46-.038,4.152,4.152,0,0,0,.507-.111,5.128,5.128,0,0,0,.513-.176,3.915,3.915,0,0,0,.472-.226L12.674-.346a3.886,3.886,0,0,1-.416.182,5.01,5.01,0,0,1-.507.158,4.929,4.929,0,0,1-.58.111,4.762,4.762,0,0,1-.63.041,3.071,3.071,0,0,1-1.166-.2,2.225,2.225,0,0,1-.8-.536,2.088,2.088,0,0,1-.46-.788,3.093,3.093,0,0,1-.146-.961A4.184,4.184,0,0,1,8.224-3.8,3.691,3.691,0,0,1,8.95-5.01a3.487,3.487,0,0,1,1.137-.829,3.5,3.5,0,0,1,1.485-.308,3.168,3.168,0,0,1,1.008.141,1.922,1.922,0,0,1,.68.378,1.462,1.462,0,0,1,.387.542A1.675,1.675,0,0,1,13.77-4.453Zm-1.764.023a.462.462,0,0,0-.161-.36.66.66,0,0,0-.454-.144,1.152,1.152,0,0,0-.5.111,1.53,1.53,0,0,0-.434.308,1.868,1.868,0,0,0-.337.469,2.424,2.424,0,0,0-.211.589,3.664,3.664,0,0,0,1.573-.24A.792.792,0,0,0,12.006-4.43Zm6.715.135h-.012a1.612,1.612,0,0,0-.313-.117,1.333,1.333,0,0,0-.354-.053,1.242,1.242,0,0,0-.621.155,1.674,1.674,0,0,0-.486.419,2.46,2.46,0,0,0-.354.618,4.7,4.7,0,0,0-.231.753L15.82,0H13.945l.82-3.826q.059-.275.114-.568t.105-.577q.05-.284.088-.548T15.135-6h1.834q-.018.17-.038.352T16.89-5.3q-.021.167-.041.3l-.032.211h.023A3.524,3.524,0,0,1,17.6-5.8a1.387,1.387,0,0,1,.929-.343,1.52,1.52,0,0,1,.3.029q.146.029.264.047Z" transform="translate(440 2287)" fill="#12263f"/>
    <path id="Trazado_773065" data-name="Trazado 773065" d="M-12.255-6.457q-.182-.111-.4-.22a3.614,3.614,0,0,0-.469-.19A4.2,4.2,0,0,0-13.649-7a3.048,3.048,0,0,0-.574-.053,1.529,1.529,0,0,0-.562.091,1.06,1.06,0,0,0-.363.226.821.821,0,0,0-.193.29.825.825,0,0,0-.059.29.986.986,0,0,0,.062.354,1.022,1.022,0,0,0,.193.311,2.126,2.126,0,0,0,.346.3q.214.155.519.343a6.812,6.812,0,0,1,.706.5,3.137,3.137,0,0,1,.524.533,2.116,2.116,0,0,1,.328.618,2.364,2.364,0,0,1,.111.75,2.787,2.787,0,0,1-.056.527,2.5,2.5,0,0,1-.19.577,2.344,2.344,0,0,1-.372.56,2.323,2.323,0,0,1-.595.475,3.378,3.378,0,0,1-.858.331,4.826,4.826,0,0,1-1.169.126A5.238,5.238,0,0,1-16.582.1a5.71,5.71,0,0,1-.674-.135,5.92,5.92,0,0,1-.595-.19,4.478,4.478,0,0,1-.486-.217l.322-1.664a4.427,4.427,0,0,0,.472.3,4.136,4.136,0,0,0,.533.246,3.557,3.557,0,0,0,.577.164,3.129,3.129,0,0,0,.6.059,1.922,1.922,0,0,0,.568-.073,1.036,1.036,0,0,0,.381-.2.749.749,0,0,0,.211-.3,1.016,1.016,0,0,0,.064-.363.94.94,0,0,0-.062-.349.91.91,0,0,0-.2-.3,2.376,2.376,0,0,0-.372-.3q-.231-.155-.565-.349A4.877,4.877,0,0,1-16.456-4a2.732,2.732,0,0,1-.5-.516,2.264,2.264,0,0,1-.328-.633,2.427,2.427,0,0,1-.117-.776,2.623,2.623,0,0,1,.182-.955,2.3,2.3,0,0,1,.568-.838,2.87,2.87,0,0,1,.987-.595,4.077,4.077,0,0,1,1.433-.226,5.69,5.69,0,0,1,.668.038q.322.038.615.1t.551.146q.258.082.469.17ZM-5.03,0H-6.952l-.141-3.551q0-.182.015-.4t.032-.363h-.023q-.023.088-.056.188t-.07.205q-.038.105-.076.2t-.073.173L-9.015,0h-1.957l-.4-6H-9.6v3.9q0,.135-.015.34a2.472,2.472,0,0,1-.044.34h.035q.023-.059.056-.152l.067-.2.07-.2a1.5,1.5,0,0,1,.07-.17L-7.538-6h1.787l.111,3.891q0,.064,0,.164t-.012.2q-.009.1-.018.193a1.249,1.249,0,0,1-.021.144h.041l.047-.152q.029-.094.064-.2t.07-.2q.035-.094.059-.152L-3.841-6h1.8ZM1.222-7.934a.93.93,0,0,1-.088.41A.987.987,0,0,1,.9-7.21a1.042,1.042,0,0,1-.352.2,1.32,1.32,0,0,1-.437.07A1.23,1.23,0,0,1-.3-7a1,1,0,0,1-.328-.187A.881.881,0,0,1-.85-7.477a.812.812,0,0,1-.079-.357.957.957,0,0,1,.085-.41.951.951,0,0,1,.234-.313,1.037,1.037,0,0,1,.354-.2A1.365,1.365,0,0,1,.19-8.83a1.2,1.2,0,0,1,.41.067,1.007,1.007,0,0,1,.325.188.881.881,0,0,1,.217.284A.812.812,0,0,1,1.222-7.934ZM.612-.053Q.507-.023.369.006T.076.062Q-.079.088-.246.1T-.577.117a1.946,1.946,0,0,1-.671-.1,1.231,1.231,0,0,1-.46-.287,1.124,1.124,0,0,1-.267-.439,1.761,1.761,0,0,1-.085-.56q0-.129.015-.287t.038-.331q.023-.173.056-.352t.067-.343q.023-.1.079-.366t.129-.612q.073-.346.155-.729t.155-.729q.073-.346.129-.612T-1.157-6H.718L0-2.625q-.047.205-.1.46a2.226,2.226,0,0,0-.053.442.337.337,0,0,0,.141.311.6.6,0,0,0,.322.088,1.511,1.511,0,0,0,.308-.032,1.619,1.619,0,0,0,.284-.085Q.829-1.09.759-.747T.612-.053ZM5.833-4.635h-1.4l-.48,2.244q-.012.076-.029.164t-.032.176q-.015.088-.026.167a.929.929,0,0,0-.012.132.457.457,0,0,0,.117.346.551.551,0,0,0,.387.111,1.159,1.159,0,0,0,.179-.018q.108-.018.223-.047t.22-.062q.105-.032.17-.056L4.86-.105A2.559,2.559,0,0,1,4.6-.023Q4.45.018,4.269.053T3.891.111a3.236,3.236,0,0,1-.384.023A2.1,2.1,0,0,1,2.763.021,1.19,1.19,0,0,1,2.285-.3a1.161,1.161,0,0,1-.252-.472,2.229,2.229,0,0,1-.073-.586q0-.094.012-.217T2-1.822q.021-.129.047-.261t.05-.243l.48-2.309H1.655L1.983-6h.885l.3-1.406,1.951-.48L4.731-6H6.155Zm5.232.281a1.867,1.867,0,0,0-.516-.264,2.052,2.052,0,0,0-.686-.111,1.521,1.521,0,0,0-.773.2,1.952,1.952,0,0,0-.586.516,2.4,2.4,0,0,0-.369.709,2.469,2.469,0,0,0-.129.773,1.39,1.39,0,0,0,.281.932,1.05,1.05,0,0,0,.844.328A2.017,2.017,0,0,0,9.5-1.307a2.9,2.9,0,0,0,.378-.1q.188-.062.36-.138a2.472,2.472,0,0,0,.313-.164L10.263-.287a3.99,3.99,0,0,1-.85.319,3.663,3.663,0,0,1-.9.114A2.693,2.693,0,0,1,7.482-.035a2.027,2.027,0,0,1-.741-.51,2.137,2.137,0,0,1-.448-.782,3.181,3.181,0,0,1-.149-1,4.2,4.2,0,0,1,.114-.981,3.992,3.992,0,0,1,.331-.9,3.712,3.712,0,0,1,.536-.779A3.367,3.367,0,0,1,7.857-5.6,3.577,3.577,0,0,1,8.771-6a3.91,3.91,0,0,1,1.081-.144,3.837,3.837,0,0,1,.51.032,4.025,4.025,0,0,1,.439.082,2.68,2.68,0,0,1,.352.111,2.182,2.182,0,0,1,.246.114Zm7.008-.217a2.069,2.069,0,0,1-.018.234q-.018.146-.044.3t-.056.308q-.029.149-.053.255L17.171,0H15.313l.721-3.422q.035-.187.07-.387a1.9,1.9,0,0,0,.035-.3.643.643,0,0,0-.149-.454.566.566,0,0,0-.437-.161.989.989,0,0,0-.483.144,2.077,2.077,0,0,0-.483.384,2.82,2.82,0,0,0-.41.563,2.385,2.385,0,0,0-.258.686L13.3,0H11.423L13.31-8.883h1.869l-.861,4.037h.023a4.009,4.009,0,0,1,.478-.519,3.416,3.416,0,0,1,.551-.41,2.927,2.927,0,0,1,.6-.272,1.961,1.961,0,0,1,.606-.1,1.461,1.461,0,0,1,1.116.407A1.641,1.641,0,0,1,18.073-4.57Z" transform="translate(535 2287)" fill="#12263f"/>
    <path id="Trazado_773066" data-name="Trazado 773066" d="M-28.778,0l-.24-1.869H-32.03L-33.015,0h-2.133L-30.3-8.4h2.256l1.2,8.4Zm-.686-6.158q-.006-.094-.009-.208t0-.22q0-.105.009-.19t.012-.126h-.035a1.182,1.182,0,0,1-.041.135q-.029.082-.067.179t-.088.2q-.05.105-.1.205l-1.535,2.859h2.162Zm8.631,1.8a1.867,1.867,0,0,0-.516-.264,2.052,2.052,0,0,0-.686-.111,1.521,1.521,0,0,0-.773.2,1.952,1.952,0,0,0-.586.516,2.4,2.4,0,0,0-.369.709,2.469,2.469,0,0,0-.129.773,1.39,1.39,0,0,0,.281.932,1.05,1.05,0,0,0,.844.328,2.017,2.017,0,0,0,.366-.035,2.9,2.9,0,0,0,.378-.1q.188-.062.36-.138a2.472,2.472,0,0,0,.313-.164l-.287,1.418a3.99,3.99,0,0,1-.85.319,3.663,3.663,0,0,1-.9.114,2.693,2.693,0,0,1-1.028-.182,2.027,2.027,0,0,1-.741-.51,2.137,2.137,0,0,1-.448-.782,3.181,3.181,0,0,1-.149-1,4.2,4.2,0,0,1,.114-.981,3.992,3.992,0,0,1,.331-.9,3.712,3.712,0,0,1,.536-.779,3.367,3.367,0,0,1,.732-.615,3.577,3.577,0,0,1,.914-.4,3.91,3.91,0,0,1,1.081-.144,3.837,3.837,0,0,1,.51.032,4.025,4.025,0,0,1,.439.082,2.68,2.68,0,0,1,.352.111,2.182,2.182,0,0,1,.246.114Zm5.543,0a1.867,1.867,0,0,0-.516-.264,2.052,2.052,0,0,0-.686-.111,1.521,1.521,0,0,0-.773.2,1.952,1.952,0,0,0-.586.516,2.4,2.4,0,0,0-.369.709,2.469,2.469,0,0,0-.129.773,1.39,1.39,0,0,0,.281.932,1.05,1.05,0,0,0,.844.328,2.017,2.017,0,0,0,.366-.035,2.9,2.9,0,0,0,.378-.1q.188-.062.36-.138a2.472,2.472,0,0,0,.313-.164l-.287,1.418a3.99,3.99,0,0,1-.85.319,3.663,3.663,0,0,1-.9.114,2.693,2.693,0,0,1-1.028-.182,2.027,2.027,0,0,1-.741-.51,2.137,2.137,0,0,1-.448-.782,3.181,3.181,0,0,1-.149-1,4.2,4.2,0,0,1,.114-.981,3.992,3.992,0,0,1,.331-.9,3.712,3.712,0,0,1,.536-.779A3.367,3.367,0,0,1-18.5-5.6a3.577,3.577,0,0,1,.914-.4A3.91,3.91,0,0,1-16.5-6.146a3.837,3.837,0,0,1,.51.032,4.025,4.025,0,0,1,.439.082,2.68,2.68,0,0,1,.352.111,2.182,2.182,0,0,1,.246.114Zm6.422-.1a1.85,1.85,0,0,1-.2.85,1.7,1.7,0,0,1-.656.668,3.907,3.907,0,0,1-1.222.442,10.141,10.141,0,0,1-1.9.179.2.2,0,0,0-.012.062V-2.2a1.177,1.177,0,0,0,.059.363.829.829,0,0,0,.2.328,1.052,1.052,0,0,0,.378.237,1.634,1.634,0,0,0,.586.091,3.058,3.058,0,0,0,.46-.038,4.152,4.152,0,0,0,.507-.111,5.128,5.128,0,0,0,.513-.176,3.915,3.915,0,0,0,.472-.226L-9.964-.346a3.886,3.886,0,0,1-.416.182,5.01,5.01,0,0,1-.507.158,4.929,4.929,0,0,1-.58.111,4.762,4.762,0,0,1-.63.041,3.071,3.071,0,0,1-1.166-.2,2.225,2.225,0,0,1-.8-.536,2.088,2.088,0,0,1-.46-.788,3.093,3.093,0,0,1-.146-.961A4.184,4.184,0,0,1-14.414-3.8a3.691,3.691,0,0,1,.727-1.213,3.487,3.487,0,0,1,1.137-.829,3.5,3.5,0,0,1,1.485-.308,3.168,3.168,0,0,1,1.008.141,1.922,1.922,0,0,1,.68.378,1.462,1.462,0,0,1,.387.542A1.675,1.675,0,0,1-8.868-4.453Zm-1.764.023a.462.462,0,0,0-.161-.36.66.66,0,0,0-.454-.144,1.152,1.152,0,0,0-.5.111,1.53,1.53,0,0,0-.434.308,1.868,1.868,0,0,0-.337.469,2.424,2.424,0,0,0-.211.589A3.664,3.664,0,0,0-11.15-3.7.792.792,0,0,0-10.632-4.43ZM-4-4.5a2.94,2.94,0,0,0-.287-.129q-.164-.064-.349-.117t-.378-.088a2.1,2.1,0,0,0-.375-.035A.915.915,0,0,0-6-4.705a.514.514,0,0,0-.185.4A.489.489,0,0,0-6-3.914a2.567,2.567,0,0,0,.48.3,5.8,5.8,0,0,1,.615.34,2,2,0,0,1,.439.375,1.4,1.4,0,0,1,.264.46,1.8,1.8,0,0,1,.088.589,1.872,1.872,0,0,1-.146.715,1.7,1.7,0,0,1-.475.642,2.491,2.491,0,0,1-.864.46A4.263,4.263,0,0,1-6.917.146q-.223,0-.475-.023t-.5-.064q-.246-.041-.472-.1a3.362,3.362,0,0,1-.4-.129l.275-1.412a3.788,3.788,0,0,0,.352.164,4.493,4.493,0,0,0,.425.149,4.38,4.38,0,0,0,.466.111,2.633,2.633,0,0,0,.475.044,1.132,1.132,0,0,0,.653-.152A.484.484,0,0,0-5.9-1.682a.539.539,0,0,0-.164-.39,2.006,2.006,0,0,0-.568-.354,4.658,4.658,0,0,1-.589-.328,2.086,2.086,0,0,1-.431-.375,1.411,1.411,0,0,1-.264-.457,1.719,1.719,0,0,1-.088-.568,1.969,1.969,0,0,1,.132-.688,1.711,1.711,0,0,1,.437-.645,2.31,2.31,0,0,1,.806-.475A3.591,3.591,0,0,1-5.4-6.146q.223,0,.457.021t.457.056q.223.035.422.082t.352.094Zm5.268,0a2.94,2.94,0,0,0-.287-.129Q.817-4.693.633-4.746T.255-4.834A2.1,2.1,0,0,0-.12-4.869a.915.915,0,0,0-.612.164.514.514,0,0,0-.185.4.489.489,0,0,0,.182.393,2.567,2.567,0,0,0,.48.3,5.8,5.8,0,0,1,.615.34A2,2,0,0,1,.8-2.895a1.4,1.4,0,0,1,.264.46,1.8,1.8,0,0,1,.088.589A1.872,1.872,0,0,1,1-1.131,1.7,1.7,0,0,1,.53-.489a2.491,2.491,0,0,1-.864.46A4.263,4.263,0,0,1-1.649.146q-.223,0-.475-.023t-.5-.064q-.246-.041-.472-.1A3.362,3.362,0,0,1-3.5-.17l.275-1.412a3.788,3.788,0,0,0,.352.164,4.493,4.493,0,0,0,.425.149,4.38,4.38,0,0,0,.466.111,2.633,2.633,0,0,0,.475.044A1.132,1.132,0,0,0-.85-1.266a.484.484,0,0,0,.214-.416A.539.539,0,0,0-.8-2.071a2.006,2.006,0,0,0-.568-.354,4.658,4.658,0,0,1-.589-.328,2.086,2.086,0,0,1-.431-.375,1.411,1.411,0,0,1-.264-.457,1.719,1.719,0,0,1-.088-.568,1.969,1.969,0,0,1,.132-.688,1.711,1.711,0,0,1,.437-.645,2.31,2.31,0,0,1,.806-.475A3.591,3.591,0,0,1-.132-6.146q.223,0,.457.021t.457.056q.223.035.422.082t.352.094ZM11.8-3.926a4.727,4.727,0,0,1-.105.987,4.546,4.546,0,0,1-.313.949,3.929,3.929,0,0,1-.524.844,3.433,3.433,0,0,1-.738.677,3.54,3.54,0,0,1-.952.451A3.941,3.941,0,0,1,8,.146,4.183,4.183,0,0,1,7.485.111,3.7,3.7,0,0,1,7,.023L6.413,2.76H4.544L5.985-4.02q.035-.182.082-.448t.088-.548q.041-.281.076-.545T6.272-6H8.095q-.006.088-.018.226t-.029.284q-.018.146-.038.284t-.032.226H8a3.2,3.2,0,0,1,.369-.457,2.5,2.5,0,0,1,.454-.369,2.232,2.232,0,0,1,.545-.249A2.156,2.156,0,0,1,10-6.146,1.783,1.783,0,0,1,10.734-6a1.549,1.549,0,0,1,.568.431,2.043,2.043,0,0,1,.369.7A3.112,3.112,0,0,1,11.8-3.926Zm-1.857.217a1.925,1.925,0,0,0-.038-.39.912.912,0,0,0-.132-.325.683.683,0,0,0-.243-.223.765.765,0,0,0-.372-.082.986.986,0,0,0-.592.19,1.866,1.866,0,0,0-.463.492,3.291,3.291,0,0,0-.337.674,5.111,5.111,0,0,0-.214.741L7.245-1.26a1.23,1.23,0,0,0,.167.041q.1.018.2.032t.2.023q.1.009.176.009a1.527,1.527,0,0,0,.794-.214A2.06,2.06,0,0,0,9.4-1.937a2.775,2.775,0,0,0,.4-.817A3.206,3.206,0,0,0,9.946-3.709Zm8.754.088a4.658,4.658,0,0,1-.082.855,4.21,4.21,0,0,1-.258.858,3.788,3.788,0,0,1-.454.794,2.936,2.936,0,0,1-.674.653,3.312,3.312,0,0,1-.914.442,3.911,3.911,0,0,1-1.181.164,3.189,3.189,0,0,1-1.163-.193,2.218,2.218,0,0,1-.817-.533,2.167,2.167,0,0,1-.48-.806,3.105,3.105,0,0,1-.158-1,4.576,4.576,0,0,1,.088-.882,4.042,4.042,0,0,1,.272-.864,3.689,3.689,0,0,1,.472-.782,3.056,3.056,0,0,1,.686-.639,3.355,3.355,0,0,1,.911-.431A3.9,3.9,0,0,1,16.1-6.146a3.191,3.191,0,0,1,1.11.179,2.223,2.223,0,0,1,.814.51,2.186,2.186,0,0,1,.5.8A2.971,2.971,0,0,1,18.7-3.621ZM16.831-3.6a1.67,1.67,0,0,0-.059-.454,1.05,1.05,0,0,0-.173-.357.824.824,0,0,0-.278-.234.817.817,0,0,0-.381-.085,1.092,1.092,0,0,0-.659.211,1.808,1.808,0,0,0-.489.545,2.8,2.8,0,0,0-.3.75,3.374,3.374,0,0,0-.105.832,1.239,1.239,0,0,0,.249.826.81.81,0,0,0,.647.293,1.133,1.133,0,0,0,.671-.205,1.719,1.719,0,0,0,.486-.536,2.677,2.677,0,0,0,.3-.747A3.586,3.586,0,0,0,16.831-3.6Zm5.977-4.336a.93.93,0,0,1-.088.41.987.987,0,0,1-.237.313,1.042,1.042,0,0,1-.352.2,1.32,1.32,0,0,1-.437.07A1.23,1.23,0,0,1,21.281-7a1,1,0,0,1-.328-.187.881.881,0,0,1-.217-.284.812.812,0,0,1-.079-.357.957.957,0,0,1,.085-.41.951.951,0,0,1,.234-.313,1.037,1.037,0,0,1,.354-.2,1.365,1.365,0,0,1,.445-.07,1.2,1.2,0,0,1,.41.067,1.007,1.007,0,0,1,.325.188.881.881,0,0,1,.217.284A.812.812,0,0,1,22.808-7.934ZM22.2-.053q-.105.029-.243.059t-.293.056Q21.507.088,21.34.1t-.331.015a1.946,1.946,0,0,1-.671-.1,1.231,1.231,0,0,1-.46-.287,1.124,1.124,0,0,1-.267-.439,1.761,1.761,0,0,1-.085-.56q0-.129.015-.287t.038-.331q.023-.173.056-.352t.067-.343q.023-.1.079-.366t.129-.612q.073-.346.155-.729t.155-.729q.073-.346.129-.612T20.429-6H22.3l-.715,3.375q-.047.205-.1.46a2.226,2.226,0,0,0-.053.442.337.337,0,0,0,.141.311.6.6,0,0,0,.322.088,1.511,1.511,0,0,0,.308-.032,1.619,1.619,0,0,0,.284-.085q-.076.352-.146.694T22.2-.053ZM29.616-4.57a2.069,2.069,0,0,1-.018.234q-.018.146-.044.3t-.056.308q-.029.149-.053.255L28.714,0H26.856l.721-3.422q.035-.187.07-.387a1.9,1.9,0,0,0,.035-.3.664.664,0,0,0-.144-.448.537.537,0,0,0-.431-.167,1.009,1.009,0,0,0-.5.149,2.084,2.084,0,0,0-.489.4,2.748,2.748,0,0,0-.4.565,2.413,2.413,0,0,0-.243.653L24.853,0H22.966l.891-4.113.105-.542q.053-.272.094-.521t.073-.463q.032-.214.05-.36h1.828q-.018.164-.038.343t-.041.343q-.021.164-.038.29t-.029.179h.023a3.89,3.89,0,0,1,.463-.507,3.443,3.443,0,0,1,.548-.413,2.927,2.927,0,0,1,.6-.278,1.971,1.971,0,0,1,.621-.1,1.446,1.446,0,0,1,1.122.413A1.661,1.661,0,0,1,29.616-4.57Zm4.98-.064H33.2l-.48,2.244q-.012.076-.029.164t-.032.176q-.015.088-.026.167a.929.929,0,0,0-.012.132.457.457,0,0,0,.117.346.551.551,0,0,0,.387.111,1.159,1.159,0,0,0,.179-.018q.108-.018.223-.047t.22-.062q.105-.032.17-.056L33.624-.105a2.559,2.559,0,0,1-.258.082q-.152.041-.334.076t-.378.059a3.236,3.236,0,0,1-.384.023,2.1,2.1,0,0,1-.744-.114A1.19,1.19,0,0,1,31.049-.3,1.161,1.161,0,0,1,30.8-.768a2.229,2.229,0,0,1-.073-.586q0-.094.012-.217t.032-.252q.021-.129.047-.261t.05-.243l.48-2.309h-.926L30.747-6h.885l.3-1.406,1.951-.48L33.5-6h1.424Z" transform="translate(639 2287)" fill="#12263f"/>
    <path id="Trazado_773067" data-name="Trazado 773067" d="M-10.831-6.5a2.048,2.048,0,0,1-.129.732,1.85,1.85,0,0,1-.384.612,2.287,2.287,0,0,1-.63.466,3.184,3.184,0,0,1-.873.287v.023a2.2,2.2,0,0,1,.7.214,1.716,1.716,0,0,1,.5.384,1.526,1.526,0,0,1,.3.516,1.864,1.864,0,0,1,.1.615A2.483,2.483,0,0,1-11.47-1.6a2.313,2.313,0,0,1-.668.841,3.276,3.276,0,0,1-1.11.56A5.368,5.368,0,0,1-14.8,0h-3.334l1.787-8.4h2.977a4.146,4.146,0,0,1,1.169.144,2.181,2.181,0,0,1,.788.4,1.522,1.522,0,0,1,.445.6A1.994,1.994,0,0,1-10.831-6.5Zm-1.992.369a1.021,1.021,0,0,0-.062-.366.648.648,0,0,0-.2-.272.955.955,0,0,0-.352-.173,1.954,1.954,0,0,0-.527-.062h-.779l-.434,1.992h.891a2.164,2.164,0,0,0,.609-.079,1.386,1.386,0,0,0,.46-.226.974.974,0,0,0,.29-.354A1.051,1.051,0,0,0-12.823-6.135Zm-.428,3.492a.883.883,0,0,0-.3-.7,1.355,1.355,0,0,0-.908-.264h-1l-.48,2.215h1.055a2.521,2.521,0,0,0,.744-.1,1.4,1.4,0,0,0,.507-.267,1.055,1.055,0,0,0,.29-.4A1.262,1.262,0,0,0-13.251-2.643ZM-5.78-4.295h-.012a1.612,1.612,0,0,0-.313-.117,1.333,1.333,0,0,0-.354-.053,1.242,1.242,0,0,0-.621.155,1.674,1.674,0,0,0-.486.419,2.46,2.46,0,0,0-.354.618,4.7,4.7,0,0,0-.231.753L-8.681,0h-1.875l.82-3.826q.059-.275.114-.568t.105-.577q.05-.284.088-.548T-9.366-6h1.834q-.018.17-.038.352t-.041.349q-.021.167-.041.3l-.032.211h.023A3.524,3.524,0,0,1-6.9-5.8a1.387,1.387,0,0,1,.929-.343,1.52,1.52,0,0,1,.3.029q.146.029.264.047Zm3.674-3.639a.93.93,0,0,1-.088.41.987.987,0,0,1-.237.313,1.042,1.042,0,0,1-.352.2,1.32,1.32,0,0,1-.437.07A1.23,1.23,0,0,1-3.633-7a1,1,0,0,1-.328-.187.881.881,0,0,1-.217-.284.812.812,0,0,1-.079-.357.957.957,0,0,1,.085-.41.951.951,0,0,1,.234-.313,1.037,1.037,0,0,1,.354-.2,1.365,1.365,0,0,1,.445-.07,1.2,1.2,0,0,1,.41.067,1.007,1.007,0,0,1,.325.188.881.881,0,0,1,.217.284A.812.812,0,0,1-2.106-7.934ZM-2.716-.053q-.105.029-.243.059t-.293.056Q-3.407.088-3.574.1t-.331.015a1.946,1.946,0,0,1-.671-.1,1.231,1.231,0,0,1-.46-.287A1.124,1.124,0,0,1-5.3-.712a1.761,1.761,0,0,1-.085-.56q0-.129.015-.287t.038-.331q.023-.173.056-.352t.067-.343q.023-.1.079-.366T-5-3.562q.073-.346.155-.729t.155-.729q.073-.346.129-.612T-4.485-6H-2.61l-.715,3.375q-.047.205-.1.46a2.226,2.226,0,0,0-.053.442.337.337,0,0,0,.141.311.6.6,0,0,0,.322.088,1.511,1.511,0,0,0,.308-.032,1.619,1.619,0,0,0,.284-.085q-.076.352-.146.694T-2.716-.053ZM4.075-1.98Q4.034-1.8,4-1.541T3.926-1q-.032.278-.053.545T3.853,0H1.978q0-.082.009-.22T2.01-.5q.015-.146.029-.284t.021-.22H2.036a4.443,4.443,0,0,1-.378.469,2.447,2.447,0,0,1-.422.363A1.923,1.923,0,0,1,.747.062a1.883,1.883,0,0,1-.58.085A1.893,1.893,0,0,1-.609-.006a1.581,1.581,0,0,1-.583-.442,1.99,1.99,0,0,1-.366-.721,3.5,3.5,0,0,1-.126-.981,4.39,4.39,0,0,1,.264-1.515A3.813,3.813,0,0,1-.656-4.939,3.7,3.7,0,0,1,.565-5.818a3.918,3.918,0,0,1,1.641-.328q.234,0,.478.023t.4.053l.6-2.812H5.528ZM2.815-4.775a2.059,2.059,0,0,0-.3-.053,2.891,2.891,0,0,0-.313-.018,1.739,1.739,0,0,0-.709.135,1.789,1.789,0,0,0-.53.354,2.1,2.1,0,0,0-.378.5A3.2,3.2,0,0,0,.346-3.3a3.383,3.383,0,0,0-.129.551,3.349,3.349,0,0,0-.038.466,1.628,1.628,0,0,0,.047.4,1.012,1.012,0,0,0,.138.319A.64.64,0,0,0,.6-1.348a.709.709,0,0,0,.337.076.94.94,0,0,0,.577-.19,1.862,1.862,0,0,0,.451-.5,3.333,3.333,0,0,0,.331-.691,7.021,7.021,0,0,0,.223-.771ZM10.925-.721A7.735,7.735,0,0,1,10.485.715a3.45,3.45,0,0,1-.744,1.116,3.218,3.218,0,0,1-1.178.727,5.072,5.072,0,0,1-1.74.261A4.319,4.319,0,0,1,5.774,2.7a4.721,4.721,0,0,1-.9-.319L5.206.891a3.726,3.726,0,0,0,.809.4,2.712,2.712,0,0,0,.926.158,2.365,2.365,0,0,0,.8-.123A1.637,1.637,0,0,0,8.332.967,1.958,1.958,0,0,0,8.745.372a3.9,3.9,0,0,0,.264-.817l.105-.527H9.091a3.783,3.783,0,0,1-.334.431,2.3,2.3,0,0,1-.4.354,1.954,1.954,0,0,1-.486.243,1.856,1.856,0,0,1-.6.091,1.806,1.806,0,0,1-.8-.167,1.606,1.606,0,0,1-.574-.466A2.07,2.07,0,0,1,5.546-1.2a3.387,3.387,0,0,1-.117-.92,4.658,4.658,0,0,1,.108-1,4.242,4.242,0,0,1,.325-.943,3.8,3.8,0,0,1,.545-.829,3.451,3.451,0,0,1,.765-.659,3.768,3.768,0,0,1,.981-.437,4.3,4.3,0,0,1,1.2-.158q.363,0,.724.026t.7.07q.343.044.653.1t.574.108Zm-1-4.066a2.423,2.423,0,0,0-.313-.044q-.179-.015-.378-.015a1.524,1.524,0,0,0-.759.2A2.019,2.019,0,0,0,7.86-4.1a2.713,2.713,0,0,0-.416.814,3.242,3.242,0,0,0-.152,1.008,1.731,1.731,0,0,0,.044.4.931.931,0,0,0,.138.319.682.682,0,0,0,.231.211.649.649,0,0,0,.319.076.986.986,0,0,0,.431-.094,1.289,1.289,0,0,0,.357-.255A1.9,1.9,0,0,0,9.1-1.992a3.656,3.656,0,0,0,.226-.445A4.767,4.767,0,0,0,9.5-2.912q.073-.24.12-.457Zm8.414.334a1.85,1.85,0,0,1-.2.85,1.7,1.7,0,0,1-.656.668,3.907,3.907,0,0,1-1.222.442,10.141,10.141,0,0,1-1.9.179.2.2,0,0,0-.012.062V-2.2a1.177,1.177,0,0,0,.059.363.829.829,0,0,0,.2.328A1.052,1.052,0,0,0,15-1.269a1.634,1.634,0,0,0,.586.091,3.058,3.058,0,0,0,.46-.038,4.152,4.152,0,0,0,.507-.111,5.128,5.128,0,0,0,.513-.176,3.915,3.915,0,0,0,.472-.226L17.247-.346a3.886,3.886,0,0,1-.416.182,5.01,5.01,0,0,1-.507.158,4.929,4.929,0,0,1-.58.111,4.762,4.762,0,0,1-.63.041,3.071,3.071,0,0,1-1.166-.2,2.225,2.225,0,0,1-.8-.536,2.088,2.088,0,0,1-.46-.788,3.093,3.093,0,0,1-.146-.961A4.184,4.184,0,0,1,12.8-3.8a3.691,3.691,0,0,1,.727-1.213,3.487,3.487,0,0,1,1.137-.829,3.5,3.5,0,0,1,1.485-.308,3.168,3.168,0,0,1,1.008.141,1.922,1.922,0,0,1,.68.378,1.462,1.462,0,0,1,.387.542A1.675,1.675,0,0,1,18.343-4.453Zm-1.764.023a.462.462,0,0,0-.161-.36.66.66,0,0,0-.454-.144,1.152,1.152,0,0,0-.5.111,1.53,1.53,0,0,0-.434.308,1.868,1.868,0,0,0-.337.469,2.424,2.424,0,0,0-.211.589,3.664,3.664,0,0,0,1.573-.24A.792.792,0,0,0,16.579-4.43Z" transform="translate(733 2287)" fill="#12263f"/>
  </g>
</svg>
