<svg xmlns="http://www.w3.org/2000/svg" xmlns:xlink="http://www.w3.org/1999/xlink" width="505" height="348" viewBox="0 0 505 348">
  <defs>
    <linearGradient id="linear-gradient" y1="0.499" x2="1" y2="0.499" gradientUnits="objectBoundingBox">
      <stop offset="0" stop-color="#fff"/>
      <stop offset="1" stop-color="#d2e6ee"/>
    </linearGradient>
    <linearGradient id="linear-gradient-2" x1="0" y1="0.5" x2="1" y2="0.5" xlink:href="#linear-gradient"/>
    <linearGradient id="linear-gradient-5" x1="0" y1="0.5" x2="1" y2="0.5" xlink:href="#linear-gradient"/>
  </defs>
  <g id="Grupo_1044832" data-name="Grupo 1044832" transform="translate(-810 -2037)">
    <path id="Trazado_773068" data-name="Trazado 773068" d="M13,0H492a13,13,0,0,1,13,13V335a13,13,0,0,1-13,13H13A13,13,0,0,1,0,335V13A13,13,0,0,1,13,0Z" transform="translate(810 2037)" fill="#fff1ef"/>
    <path id="Trazado_118062" data-name="Trazado 118062" d="M200.94,71.88l-5.88-28.77A5.17,5.17,0,0,0,190,39h-6.32a5.17,5.17,0,0,0-4.25,2.23l-1.07,1.54h-18l-1.07-1.54A5.17,5.17,0,0,0,155,39h-6.32a5.17,5.17,0,0,0-5.07,4.14l-5.88,28.77a8.243,8.243,0,0,0,16.15,3.31l2.34-11.33h26.25l2.34,11.33a8.243,8.243,0,0,0,16.15-3.31Z" transform="translate(709.408 2084.727)" fill="url(#linear-gradient)"/>
    <path id="Trazado_773081" data-name="Trazado 773081" d="M4.92,0A4.92,4.92,0,1,1,0,4.92,4.92,4.92,0,0,1,4.92,0Z" transform="translate(865.608 2143.666)" fill="url(#linear-gradient-2)"/>
    <path id="Trazado_773082" data-name="Trazado 773082" d="M4.92,0A4.92,4.92,0,1,1,0,4.92,4.92,4.92,0,0,1,4.92,0Z" transform="translate(882.018 2143.666)" fill="url(#linear-gradient-2)"/>
    <path id="Trazado_118064" data-name="Trazado 118064" d="M166.74,53.29h5.17v3.36h-5.17Z" transform="translate(709.408 2084.727)" fill="#b3e59f"/>
    <path id="Trazado_118065" data-name="Trazado 118065" d="M201.88,71.69,198.45,54.9a1,1,0,0,0-1.88.39L200,72.07a7.428,7.428,0,0,1,.15,1.48A7.28,7.28,0,0,1,185.73,75l-2.32-11.25a5.88,5.88,0,0,0-11.68-.85h-4.81a5.88,5.88,0,0,0-11.68.85L152.92,75a7.284,7.284,0,1,1-14.27-2.93l3.42-16.75a.959.959,0,1,0-1.88-.38l-3.42,16.75a9.184,9.184,0,0,0,18,3.66l1.64-8a5.88,5.88,0,0,0,10.48-2.6h4.81a5.88,5.88,0,0,0,10.48,2.6l1.64,8a9.21,9.21,0,0,0,18.22-1.84,9,9,0,0,0-.19-1.86Zm-36.8-7.82a4,4,0,0,1-7.92,0h0a4,4,0,0,1,7.92,0Zm16.41,0a4,4,0,1,1-7.92,0h0a4,4,0,1,1,7.92,0Z" transform="translate(709.408 2084.727)" fill="#12263f"/>
    <path id="Trazado_118066" data-name="Trazado 118066" d="M141.85,51.65A1,1,0,0,0,143,50.9l1.55-7.6a4.24,4.24,0,0,1,4.13-3.37H155a4.2,4.2,0,0,1,3.46,1.82l1.05,1.51,2.56,4.1a.94.94,0,0,0,1.32.31,1,1,0,0,0,.31-1.32L162,43.7h14.59L175,46.35a1,1,0,0,0,.31,1.32.94.94,0,0,0,.5.15,1,1,0,0,0,.82-.46l2.56-4.1,1-1.51a4.21,4.21,0,0,1,3.47-1.82H190a4.24,4.24,0,0,1,4.13,3.37l1.55,7.6a1,1,0,0,0,.94.77h.19a1,1,0,0,0,.75-1.13L196,42.91a6.16,6.16,0,0,0-6-4.9h-6.32a6.1,6.1,0,0,0-5,2.65l-.78,1.12h-5.37V38.07a1,1,0,0,0-1-1h-1.24v-5.5a1,1,0,1,0-1.91,0v5.5h-1.24a1,1,0,0,0-1,1v3.71H160.8l-.8-1.12A6.12,6.12,0,0,0,155,38h-6.32a6.16,6.16,0,0,0-6,4.9l-1.55,7.61a1,1,0,0,0,.75,1.13ZM168.09,39h2.47v2.75h-2.47Z" transform="translate(709.408 2084.727)" fill="#12263f"/>
    <path id="Trazado_118067" data-name="Trazado 118067" d="M185.6,48.41a2,2,0,1,0-2-2,2.05,2.05,0,0,0,2,2Z" transform="translate(709.408 2084.727)" fill="#12263f"/>
    <path id="Trazado_118068" data-name="Trazado 118068" d="M185.6,56.07a2.06,2.06,0,1,0-2-2,2.06,2.06,0,0,0,2,2Z" transform="translate(709.408 2084.727)" fill="#12263f"/>
    <path id="Trazado_118069" data-name="Trazado 118069" d="M189.43,52.24a2.05,2.05,0,1,0-2.05-2.05A2.05,2.05,0,0,0,189.43,52.24Z" transform="translate(709.408 2084.727)" fill="#12263f"/>
    <path id="Trazado_118070" data-name="Trazado 118070" d="M181.77,48.14a2,2,0,1,0,2,2A2,2,0,0,0,181.77,48.14Z" transform="translate(709.408 2084.727)" fill="#12263f"/>
    <path id="Trazado_118071" data-name="Trazado 118071" d="M151,57h4.1a1,1,0,0,0,1-1V53.2h2.87a1,1,0,0,0,1-1V48.1a1,1,0,0,0-1-1H156.1V44.31a1,1,0,0,0-1-1H151a1,1,0,0,0-1,1v2.87h-2.87a1,1,0,0,0-1,1v4.1a1,1,0,0,0,1,1H150v2.87a1,1,0,0,0,1,.85Zm-2.87-5.75V49.1H151a1,1,0,0,0,1-1V45.27h2.18v2.87a1,1,0,0,0,1,1H158v2.18h-2.9a1,1,0,0,0-1,1v2.87H152V52.24a1,1,0,0,0-1-1Z" transform="translate(709.408 2084.727)" fill="#12263f"/>
    <path id="Trazado_118072" data-name="Trazado 118072" d="M166.74,52.33a1,1,0,0,0-1,1v3.36a1,1,0,0,0,1,1h5.17a1,1,0,0,0,1-1v-3.4a1,1,0,0,0-1-1ZM171,55.69h-3.3V54.25H171Z" transform="translate(709.408 2084.727)" fill="#12263f"/>
    <path id="Trazado_118077" data-name="Trazado 118077" d="M87,160.34a1,1,0,0,0-1.32.65l-3.17,9.54L79.3,161a1.039,1.039,0,1,0-1.97.66l4.17,12.5a1.059,1.059,0,0,0,2,0l4.17-12.5a1.06,1.06,0,0,0-.67-1.32Z" transform="translate(1165.096 2117.222)" fill="#12263f"/>
    <path id="Trazado_118078" data-name="Trazado 118078" d="M97.05,152H55.41a3.14,3.14,0,0,0-3.13,3.12v25a3.14,3.14,0,0,0,3.13,3.13h17.7v2.24l-11.63,1.94a1,1,0,0,0-.86,1.2,1.06,1.06,0,0,0,1,.87h.17l12.41-2.07h4l12.41,2.07h.17a1.06,1.06,0,0,0,1-.87,1,1,0,0,0-.86-1.2l-11.63-1.94v-2.24h17.7a3.14,3.14,0,0,0,3.13-3.13v-25A3.13,3.13,0,0,0,97.05,152ZM77.27,185.27H75.19v-2.08h2.08Zm20.84-5.21h0a1,1,0,0,1-1,1.05H55.41a1,1,0,0,1-1-1.05v-25a1,1,0,0,1,1-1H97.06a1,1,0,0,1,1,1Z" transform="translate(1165.096 2117.222)" fill="#12263f"/>
    <path id="Trazado_118080" data-name="Trazado 118080" d="M75.18,160.28H64.78a1.045,1.045,0,1,0,0,2.09H69v11.45a1.045,1.045,0,0,0,2.09,0V162.37H75.2a1,1,0,0,0,1-1.05,1.07,1.07,0,0,0-1.02-1.04Z" transform="translate(1165.096 2117.222)" fill="#12263f"/>
    <path id="Trazado_773075" data-name="Trazado 773075" d="M0,0H21.3V29.08H0Z" transform="translate(1019.314 2136.85)" fill="url(#linear-gradient-2)"/>
    <path id="Trazado_118081" data-name="Trazado 118081" d="M321.907,34.75H340.37a2.423,2.423,0,0,1,2.42,2.42V49.54h-23.3V37.163A2.44,2.44,0,0,1,321.9,34.75ZM340.79,47.54V37.17a.42.42,0,0,0-.42-.42H321.915a.432.432,0,0,0-.425.425V47.54Z" transform="translate(698.824 2083.25)" fill="#173042"/>
    <path id="Trazado_118082" data-name="Trazado 118082" d="M285,34.75h33.54l-.417,1.3a3.847,3.847,0,0,0-.183,1.122V42.43l-29.12-.01v25h29.19V75.1h-4.559l.616,3.68h3.943v3.9a3.647,3.647,0,0,0,.173,1.053l.417,1.3H294.23a3.13,3.13,0,1,1,0-6.26h4.363l.615-3.68H285a3.844,3.844,0,0,1-3.84-3.84V38.59A3.844,3.844,0,0,1,285,34.75Zm30.959,2H285a1.842,1.842,0,0,0-1.84,1.84V71.26A1.842,1.842,0,0,0,285,73.1h16.571l-1.285,7.68H294.23a1.13,1.13,0,1,0,0,2.26h21.795q-.012-.168-.015-.336V80.78h-3.637l-1.285-7.68h4.921V69.42H286.82v-29l29.12.01V37.158Q315.942,36.954,315.959,36.75ZM319.49,51.8h23.3V82.671a2.4,2.4,0,0,1-.74,1.674,2.371,2.371,0,0,1-1.693.655h-18.48a2.391,2.391,0,0,1-2.385-2.253l0-.057Zm21.3,2h-19.3V82.653a.39.39,0,0,0,.387.348H340.41a.378.378,0,0,0,.262-.1.383.383,0,0,0,.118-.26Zm-9.63,16.46h.009a3.84,3.84,0,0,1-.009,7.68h-.027a3.84,3.84,0,0,1,.027-7.68Zm0,5.68a1.828,1.828,0,0,0,1.3-.534,1.84,1.84,0,1,0-1.309.534Z" transform="translate(698.824 2083.25)" fill="#173042"/>
    <path id="Trazado_773076" data-name="Trazado 773076" d="M1.89,0A1.89,1.89,0,1,1,0,1.89,1.89,1.89,0,0,1,1.89,0Z" transform="translate(1028.074 2155.609)" fill="#ff6148"/>
    <path id="Trazado_118083" data-name="Trazado 118083" d="M199.87,366.56H153.32a5.81,5.81,0,0,0-5.82,5.82v14.55a5.82,5.82,0,0,0,5.82,5.82h2.9v-5.1a5.11,5.11,0,0,1,5.1-5.09h30.55a5.1,5.1,0,0,1,5.09,5.09v5.1h2.91a5.83,5.83,0,0,0,5.82-5.82V372.38a5.82,5.82,0,0,0-5.82-5.82ZM156,377.36a2.7,2.7,0,1,1,1.919-.791,2.71,2.71,0,0,1-1.919.791Z" transform="translate(834.471 1898.939)" fill="url(#linear-gradient-5)"/>
    <path id="Trazado_118083_-_Contorno" data-name="Trazado 118083 - Contorno" d="M153.31,365.56h46.56a6.82,6.82,0,0,1,6.82,6.82v14.55a6.83,6.83,0,0,1-6.818,6.82H196.96a1,1,0,0,1-1-1v-5.1a4.108,4.108,0,0,0-4.092-4.09H161.32a4.119,4.119,0,0,0-4.1,4.094v5.1a1,1,0,0,1-1,1h-2.9a6.82,6.82,0,0,1-6.82-6.82V372.38a6.855,6.855,0,0,1,1.995-4.825A6.765,6.765,0,0,1,153.31,365.56Zm46.56,26.19a4.839,4.839,0,0,0,4.82-4.822V372.38a4.82,4.82,0,0,0-4.82-4.82H153.31a4.778,4.778,0,0,0-3.4,1.409,4.842,4.842,0,0,0-1.409,3.409V386.93a4.82,4.82,0,0,0,4.82,4.82h1.9v-4.1a6.11,6.11,0,0,1,6.1-6.09H191.87a6.112,6.112,0,0,1,6.09,6.088v4.1ZM156,370.94a3.714,3.714,0,0,1,2.626,6.336,3.676,3.676,0,0,1-2.616,1.084H156a3.71,3.71,0,0,1,0-7.42Zm.013,5.42h0a1.689,1.689,0,0,0,1.2-.5,1.714,1.714,0,1,0-1.212.5Z" transform="translate(834.471 1898.939)" fill="#00223d"/>
    <path id="Trazado_118084" data-name="Trazado 118084" d="M191.8,358.56H161.38a2.18,2.18,0,0,0,0,4.36H191.8a2.18,2.18,0,1,0,0-4.36Zm.07,27.64H161.32a1.45,1.45,0,0,0-1.46,1.45v16.74a2.9,2.9,0,0,0,2.91,2.9h27.64a2.9,2.9,0,0,0,2.91-2.9V387.65a1.45,1.45,0,0,0-1.45-1.45Zm-14.55,16.37H167.14a1.82,1.82,0,1,1,0-3.64h10.18a1.82,1.82,0,1,1,0,3.64Zm7.27-7.28H167.14a1.82,1.82,0,1,1,0-3.63h17.45a1.82,1.82,0,1,1,0,3.63Z" transform="translate(834.471 1898.939)" fill="#c6facc"/>
    <path id="Trazado_118084_-_Contorno" data-name="Trazado 118084 - Contorno" d="M161.38,357.56H191.8a3.18,3.18,0,1,1,0,6.36H161.38a3.18,3.18,0,0,1,0-6.36Zm30.42,4.36a1.18,1.18,0,0,0,0-2.36H161.38a1.18,1.18,0,0,0,0,2.36ZM161.31,385.2h30.56a2.45,2.45,0,0,1,2.45,2.45v16.74a3.926,3.926,0,0,1-1.147,2.762,3.875,3.875,0,0,1-2.753,1.138H162.76a3.875,3.875,0,0,1-2.753-1.138,3.926,3.926,0,0,1-1.147-2.762V387.65a2.466,2.466,0,0,1,.724-1.738A2.435,2.435,0,0,1,161.31,385.2Zm.01,2h-.01a.447.447,0,0,0-.317.131.453.453,0,0,0-.133.319v16.74a1.913,1.913,0,0,0,.559,1.346,1.888,1.888,0,0,0,1.341.554h27.66a1.888,1.888,0,0,0,1.341-.554,1.913,1.913,0,0,0,.559-1.346V387.65a.451.451,0,0,0-.45-.45Zm5.685,3.455c.056,0,.112,0,.168.005h17.384c.056,0,.112-.005.168-.005a2.82,2.82,0,0,1,0,5.64c-.056,0-.112,0-.168-.005H167.173a2.84,2.84,0,0,1-2.574-1.345,2.82,2.82,0,0,1,2.406-4.29Zm17.585,2.005H167.14l-.074,0a.827.827,0,0,0-.76.39.817.817,0,0,0,0,.855.827.827,0,0,0,.761.39l.074,0h17.45l.073,0a.82.82,0,1,0,0-1.635Zm-17.45,5.27h10.18a2.82,2.82,0,0,1,0,5.64H167.14a2.82,2.82,0,1,1,0-5.64Zm10.18,3.64a.82.82,0,0,0,0-1.64H167.14a.82.82,0,0,0,0,1.64Z" transform="translate(834.471 1898.939)" fill="#00223d"/>
    <path id="Path_123108" data-name="Path 123108" d="M418.46,293.73l-1.42,7c-1,4.79-1.91,9.59-2.92,14.38a4.4,4.4,0,0,1-5.52,3.63q-9.72-1.93-19.43-3.91a4.42,4.42,0,0,1-3.71-5,.679.679,0,0,1,0-.14,5.68,5.68,0,0,1,.2-1.14q4.17-20.68,8.35-41.37a8.65,8.65,0,0,1,.82-2.42,4,4,0,0,1,4.45-2.1q10.09,2,20.18,4.07a4.34,4.34,0,0,1,3.31,5.4c-1.37,7-2.8,14-4.21,21Zm1.68-21.84-23.34-4.71L389.39,304l23.34,4.7Zm-17.88,39.05a2.13,2.13,0,1,0-2.57,1.79,2.23,2.23,0,0,0,2.57-1.79Z" transform="translate(836.953 1848.438)" fill="#00223d"/>
    <path id="Trazado_773072" data-name="Trazado 773072" d="M7.81,0A7.81,7.81,0,1,1,0,7.81,7.81,7.81,0,0,1,7.81,0Z" transform="translate(1124.728 2280.432)" fill="#173042"/>
    <path id="Trazado_118085" data-name="Trazado 118085" d="M103.49,284.81H99l-2.7-4.73a3.55,3.55,0,0,0-3.07-1.78H77.81a3.54,3.54,0,0,0-3.07,1.78L72,284.81H59.76a3.54,3.54,0,0,0-3.54,3.53v29.4a3.55,3.55,0,0,0,3.54,3.54h43.73a3.54,3.54,0,0,0,3.53-3.54v-29.4a3.53,3.53,0,0,0-3.53-3.53ZM64,295.23a2.61,2.61,0,1,1,2.6-2.61A2.61,2.61,0,0,1,64,295.23Zm31.1,13.71a9.93,9.93,0,0,1-4.37,4.37C80,318.75,69.17,308,74.61,297.15A9.9,9.9,0,0,1,79,292.78c10.81-5.44,21.59,5.33,16.14,16.16Z" transform="translate(1047.657 1985.201)" fill="#173042"/>
    <path id="Trazado_118086" data-name="Trazado 118086" d="M318.93,381.62H302.65l-8.22,8.5-5.51,1.9,1.83-5.7,4.55-4.7H281.52v23.63h37.41Z" transform="translate(578.681 1895.881)" fill="#b3e59f" fill-rule="evenodd"/>
    <path id="Trazado_118087" data-name="Trazado 118087" d="M321,369.8h-5.46l8.27-8.55a1.09,1.09,0,0,0,0-1.52l-3.67-3.79a1,1,0,0,0-1.47,0l-13.4,13.86H279.44a3.18,3.18,0,0,0-3.12,3.22V407.4a3.17,3.17,0,0,0,3.12,3.22H321a3.17,3.17,0,0,0,3.12-3.22V373A3.18,3.18,0,0,0,321,369.8Zm-1.6-11.59,2.21,2.28-15.14,15.65-2.2-2.28ZM294,384.46l2.2,2.28-2.36,2.44-3.31,1.14,1.1-3.42Zm3.67.76-2.2-2.28,7.31-7.56,2.2,2.28Zm24.35,22.18a1.07,1.07,0,0,1-1,1.08H279.44a1.07,1.07,0,0,1-1-1.08V373a1.06,1.06,0,0,1,1-1.07h23.75L290,385.56a1.12,1.12,0,0,0-.25.42l-1.84,5.7a1.07,1.07,0,0,0,1.32,1.36l5.51-1.9a1,1,0,0,0,.4-.26L313.47,372H321a1.06,1.06,0,0,1,1,1.07V407.4Z" transform="translate(578.681 1895.881)" fill="#00223d"/>
    <path id="Trazado_118089" data-name="Trazado 118089" d="M318.93,375.17h-4.16a1.08,1.08,0,0,0,0,2.15h4.16a1.08,1.08,0,0,0,0-2.15Z" transform="translate(578.681 1895.881)" fill="#00223d"/>
    <path id="Trazado_118090" data-name="Trazado 118090" d="M385.54,192.66h-5.78a1.45,1.45,0,0,0,0,2.89h5.78a1.45,1.45,0,1,0,0-2.89Z" transform="translate(733.213 1966)" fill="#00223d"/>
    <path id="Trazado_118091" data-name="Trazado 118091" d="M411.55,192.66h-5.78a1.45,1.45,0,0,0,0,2.89h5.78a1.45,1.45,0,1,0,0-2.89Z" transform="translate(733.213 1966)" fill="#00223d"/>
    <path id="Trazado_118092" data-name="Trazado 118092" d="M414.44,137.75H376.87a1.44,1.44,0,0,0-1.44,1.44v49.14a1.43,1.43,0,0,0,1.44,1.44h37.57a1.44,1.44,0,0,0,1.45-1.44V139.19A1.45,1.45,0,0,0,414.44,137.75ZM413,186.88H378.32V140.64H413Z" transform="translate(733.213 1966)" fill="#00223d"/>
    <path id="Trazado_118093" data-name="Trazado 118093" d="M417.33,132H374a4.33,4.33,0,0,0-4.33,4.33V197a4.33,4.33,0,0,0,4.33,4.33h43.35a4.34,4.34,0,0,0,4.34-4.33V136.3A4.34,4.34,0,0,0,417.33,132Zm1.45,65a1.44,1.44,0,0,1-1.45,1.44H374a1.44,1.44,0,0,1-1.44-1.44V136.3a1.45,1.45,0,0,1,1.44-1.44h43.35a1.45,1.45,0,0,1,1.45,1.44Z" transform="translate(733.213 1966)" fill="#00223d"/>
    <path id="Línea_1818" data-name="Línea 1818" d="M0,262.5a.5.5,0,0,1-.5-.5v-2a.5.5,0,0,1,.5-.5.5.5,0,0,1,.5.5v2A.5.5,0,0,1,0,262.5Zm0-7a.5.5,0,0,1-.5-.5v-5a.5.5,0,0,1,.5-.5.5.5,0,0,1,.5.5v5A.5.5,0,0,1,0,255.5Zm0-10a.5.5,0,0,1-.5-.5v-5a.5.5,0,0,1,.5-.5.5.5,0,0,1,.5.5v5A.5.5,0,0,1,0,245.5Zm0-10a.5.5,0,0,1-.5-.5v-5a.5.5,0,0,1,.5-.5.5.5,0,0,1,.5.5v5A.5.5,0,0,1,0,235.5Zm0-10a.5.5,0,0,1-.5-.5v-5a.5.5,0,0,1,.5-.5.5.5,0,0,1,.5.5v5A.5.5,0,0,1,0,225.5Zm0-10a.5.5,0,0,1-.5-.5v-5a.5.5,0,0,1,.5-.5.5.5,0,0,1,.5.5v5A.5.5,0,0,1,0,215.5Zm0-10a.5.5,0,0,1-.5-.5v-5a.5.5,0,0,1,.5-.5.5.5,0,0,1,.5.5v5A.5.5,0,0,1,0,205.5Zm0-10a.5.5,0,0,1-.5-.5v-5a.5.5,0,0,1,.5-.5.5.5,0,0,1,.5.5v5A.5.5,0,0,1,0,195.5Zm0-10a.5.5,0,0,1-.5-.5v-5a.5.5,0,0,1,.5-.5.5.5,0,0,1,.5.5v5A.5.5,0,0,1,0,185.5Zm0-10a.5.5,0,0,1-.5-.5v-5a.5.5,0,0,1,.5-.5.5.5,0,0,1,.5.5v5A.5.5,0,0,1,0,175.5Zm0-10a.5.5,0,0,1-.5-.5v-5a.5.5,0,0,1,.5-.5.5.5,0,0,1,.5.5v5A.5.5,0,0,1,0,165.5Zm0-10a.5.5,0,0,1-.5-.5v-5a.5.5,0,0,1,.5-.5.5.5,0,0,1,.5.5v5A.5.5,0,0,1,0,155.5Zm0-10a.5.5,0,0,1-.5-.5v-5a.5.5,0,0,1,.5-.5.5.5,0,0,1,.5.5v5A.5.5,0,0,1,0,145.5Zm0-10a.5.5,0,0,1-.5-.5v-5a.5.5,0,0,1,.5-.5.5.5,0,0,1,.5.5v5A.5.5,0,0,1,0,135.5Zm0-10a.5.5,0,0,1-.5-.5v-5a.5.5,0,0,1,.5-.5.5.5,0,0,1,.5.5v5A.5.5,0,0,1,0,125.5Zm0-10a.5.5,0,0,1-.5-.5v-5a.5.5,0,0,1,.5-.5.5.5,0,0,1,.5.5v5A.5.5,0,0,1,0,115.5Zm0-10a.5.5,0,0,1-.5-.5v-5a.5.5,0,0,1,.5-.5.5.5,0,0,1,.5.5v5A.5.5,0,0,1,0,105.5Zm0-10A.5.5,0,0,1-.5,95V90a.5.5,0,0,1,.5-.5.5.5,0,0,1,.5.5v5A.5.5,0,0,1,0,95.5Zm0-10A.5.5,0,0,1-.5,85V80a.5.5,0,0,1,.5-.5.5.5,0,0,1,.5.5v5A.5.5,0,0,1,0,85.5Zm0-10A.5.5,0,0,1-.5,75V70a.5.5,0,0,1,.5-.5.5.5,0,0,1,.5.5v5A.5.5,0,0,1,0,75.5Zm0-10A.5.5,0,0,1-.5,65V60a.5.5,0,0,1,.5-.5.5.5,0,0,1,.5.5v5A.5.5,0,0,1,0,65.5Zm0-10A.5.5,0,0,1-.5,55V50a.5.5,0,0,1,.5-.5.5.5,0,0,1,.5.5v5A.5.5,0,0,1,0,55.5Zm0-10A.5.5,0,0,1-.5,45V40a.5.5,0,0,1,.5-.5.5.5,0,0,1,.5.5v5A.5.5,0,0,1,0,45.5Zm0-10A.5.5,0,0,1-.5,35V30a.5.5,0,0,1,.5-.5.5.5,0,0,1,.5.5v5A.5.5,0,0,1,0,35.5Zm0-10A.5.5,0,0,1-.5,25V20a.5.5,0,0,1,.5-.5.5.5,0,0,1,.5.5v5A.5.5,0,0,1,0,25.5Zm0-10A.5.5,0,0,1-.5,15V10A.5.5,0,0,1,0,9.5a.5.5,0,0,1,.5.5v5A.5.5,0,0,1,0,15.5Zm0-10A.5.5,0,0,1-.5,5V0A.5.5,0,0,1,0-.5.5.5,0,0,1,.5,0V5A.5.5,0,0,1,0,5.5Z" transform="translate(945.82 2103.5)" fill="#083142"/>
    <path id="Línea_1821" data-name="Línea 1821" d="M451.5.5H450a.5.5,0,0,1-.5-.5.5.5,0,0,1,.5-.5h1.5a.5.5,0,0,1,.5.5A.5.5,0,0,1,451.5.5ZM445,.5h-5a.5.5,0,0,1-.5-.5.5.5,0,0,1,.5-.5h5a.5.5,0,0,1,.5.5A.5.5,0,0,1,445,.5Zm-10,0h-5a.5.5,0,0,1-.5-.5.5.5,0,0,1,.5-.5h5a.5.5,0,0,1,.5.5A.5.5,0,0,1,435,.5Zm-10,0h-5a.5.5,0,0,1-.5-.5.5.5,0,0,1,.5-.5h5a.5.5,0,0,1,.5.5A.5.5,0,0,1,425,.5Zm-10,0h-5a.5.5,0,0,1-.5-.5.5.5,0,0,1,.5-.5h5a.5.5,0,0,1,.5.5A.5.5,0,0,1,415,.5Zm-10,0h-5a.5.5,0,0,1-.5-.5.5.5,0,0,1,.5-.5h5a.5.5,0,0,1,.5.5A.5.5,0,0,1,405,.5Zm-10,0h-5a.5.5,0,0,1-.5-.5.5.5,0,0,1,.5-.5h5a.5.5,0,0,1,.5.5A.5.5,0,0,1,395,.5Zm-10,0h-5a.5.5,0,0,1-.5-.5.5.5,0,0,1,.5-.5h5a.5.5,0,0,1,.5.5A.5.5,0,0,1,385,.5Zm-10,0h-5a.5.5,0,0,1-.5-.5.5.5,0,0,1,.5-.5h5a.5.5,0,0,1,.5.5A.5.5,0,0,1,375,.5Zm-10,0h-5a.5.5,0,0,1-.5-.5.5.5,0,0,1,.5-.5h5a.5.5,0,0,1,.5.5A.5.5,0,0,1,365,.5Zm-10,0h-5a.5.5,0,0,1-.5-.5.5.5,0,0,1,.5-.5h5a.5.5,0,0,1,.5.5A.5.5,0,0,1,355,.5Zm-10,0h-5a.5.5,0,0,1-.5-.5.5.5,0,0,1,.5-.5h5a.5.5,0,0,1,.5.5A.5.5,0,0,1,345,.5Zm-10,0h-5a.5.5,0,0,1-.5-.5.5.5,0,0,1,.5-.5h5a.5.5,0,0,1,.5.5A.5.5,0,0,1,335,.5Zm-10,0h-5a.5.5,0,0,1-.5-.5.5.5,0,0,1,.5-.5h5a.5.5,0,0,1,.5.5A.5.5,0,0,1,325,.5Zm-10,0h-5a.5.5,0,0,1-.5-.5.5.5,0,0,1,.5-.5h5a.5.5,0,0,1,.5.5A.5.5,0,0,1,315,.5Zm-10,0h-5a.5.5,0,0,1-.5-.5.5.5,0,0,1,.5-.5h5a.5.5,0,0,1,.5.5A.5.5,0,0,1,305,.5Zm-10,0h-5a.5.5,0,0,1-.5-.5.5.5,0,0,1,.5-.5h5a.5.5,0,0,1,.5.5A.5.5,0,0,1,295,.5Zm-10,0h-5a.5.5,0,0,1-.5-.5.5.5,0,0,1,.5-.5h5a.5.5,0,0,1,.5.5A.5.5,0,0,1,285,.5Zm-10,0h-5a.5.5,0,0,1-.5-.5.5.5,0,0,1,.5-.5h5a.5.5,0,0,1,.5.5A.5.5,0,0,1,275,.5Zm-10,0h-5a.5.5,0,0,1-.5-.5.5.5,0,0,1,.5-.5h5a.5.5,0,0,1,.5.5A.5.5,0,0,1,265,.5Zm-10,0h-5a.5.5,0,0,1-.5-.5.5.5,0,0,1,.5-.5h5a.5.5,0,0,1,.5.5A.5.5,0,0,1,255,.5Zm-10,0h-5a.5.5,0,0,1-.5-.5.5.5,0,0,1,.5-.5h5a.5.5,0,0,1,.5.5A.5.5,0,0,1,245,.5Zm-10,0h-5a.5.5,0,0,1-.5-.5.5.5,0,0,1,.5-.5h5a.5.5,0,0,1,.5.5A.5.5,0,0,1,235,.5Zm-10,0h-5a.5.5,0,0,1-.5-.5.5.5,0,0,1,.5-.5h5a.5.5,0,0,1,.5.5A.5.5,0,0,1,225,.5Zm-10,0h-5a.5.5,0,0,1-.5-.5.5.5,0,0,1,.5-.5h5a.5.5,0,0,1,.5.5A.5.5,0,0,1,215,.5Zm-10,0h-5a.5.5,0,0,1-.5-.5.5.5,0,0,1,.5-.5h5a.5.5,0,0,1,.5.5A.5.5,0,0,1,205,.5Zm-10,0h-5a.5.5,0,0,1-.5-.5.5.5,0,0,1,.5-.5h5a.5.5,0,0,1,.5.5A.5.5,0,0,1,195,.5Zm-10,0h-5a.5.5,0,0,1-.5-.5.5.5,0,0,1,.5-.5h5a.5.5,0,0,1,.5.5A.5.5,0,0,1,185,.5Zm-10,0h-5a.5.5,0,0,1-.5-.5.5.5,0,0,1,.5-.5h5a.5.5,0,0,1,.5.5A.5.5,0,0,1,175,.5Zm-10,0h-5a.5.5,0,0,1-.5-.5.5.5,0,0,1,.5-.5h5a.5.5,0,0,1,.5.5A.5.5,0,0,1,165,.5Zm-10,0h-5a.5.5,0,0,1-.5-.5.5.5,0,0,1,.5-.5h5a.5.5,0,0,1,.5.5A.5.5,0,0,1,155,.5Zm-10,0h-5a.5.5,0,0,1-.5-.5.5.5,0,0,1,.5-.5h5a.5.5,0,0,1,.5.5A.5.5,0,0,1,145,.5Zm-10,0h-5a.5.5,0,0,1-.5-.5.5.5,0,0,1,.5-.5h5a.5.5,0,0,1,.5.5A.5.5,0,0,1,135,.5Zm-10,0h-5a.5.5,0,0,1-.5-.5.5.5,0,0,1,.5-.5h5a.5.5,0,0,1,.5.5A.5.5,0,0,1,125,.5Zm-10,0h-5a.5.5,0,0,1-.5-.5.5.5,0,0,1,.5-.5h5a.5.5,0,0,1,.5.5A.5.5,0,0,1,115,.5Zm-10,0h-5a.5.5,0,0,1-.5-.5.5.5,0,0,1,.5-.5h5a.5.5,0,0,1,.5.5A.5.5,0,0,1,105,.5ZM95,.5H90a.5.5,0,0,1-.5-.5A.5.5,0,0,1,90-.5h5a.5.5,0,0,1,.5.5A.5.5,0,0,1,95,.5ZM85,.5H80a.5.5,0,0,1-.5-.5A.5.5,0,0,1,80-.5h5a.5.5,0,0,1,.5.5A.5.5,0,0,1,85,.5ZM75,.5H70a.5.5,0,0,1-.5-.5A.5.5,0,0,1,70-.5h5a.5.5,0,0,1,.5.5A.5.5,0,0,1,75,.5ZM65,.5H60a.5.5,0,0,1-.5-.5A.5.5,0,0,1,60-.5h5a.5.5,0,0,1,.5.5A.5.5,0,0,1,65,.5ZM55,.5H50a.5.5,0,0,1-.5-.5A.5.5,0,0,1,50-.5h5a.5.5,0,0,1,.5.5A.5.5,0,0,1,55,.5ZM45,.5H40a.5.5,0,0,1-.5-.5A.5.5,0,0,1,40-.5h5a.5.5,0,0,1,.5.5A.5.5,0,0,1,45,.5ZM35,.5H30a.5.5,0,0,1-.5-.5A.5.5,0,0,1,30-.5h5a.5.5,0,0,1,.5.5A.5.5,0,0,1,35,.5ZM25,.5H20a.5.5,0,0,1-.5-.5A.5.5,0,0,1,20-.5h5a.5.5,0,0,1,.5.5A.5.5,0,0,1,25,.5ZM15,.5H10A.5.5,0,0,1,9.5,0,.5.5,0,0,1,10-.5h5a.5.5,0,0,1,.5.5A.5.5,0,0,1,15,.5ZM5,.5H0A.5.5,0,0,1-.5,0,.5.5,0,0,1,0-.5H5a.5.5,0,0,1,.5.5A.5.5,0,0,1,5,.5Z" transform="translate(837 2234.5)" fill="#083142"/>
    <path id="Línea_1819" data-name="Línea 1819" d="M0,262.5a.5.5,0,0,1-.5-.5v-2a.5.5,0,0,1,.5-.5.5.5,0,0,1,.5.5v2A.5.5,0,0,1,0,262.5Zm0-7a.5.5,0,0,1-.5-.5v-5a.5.5,0,0,1,.5-.5.5.5,0,0,1,.5.5v5A.5.5,0,0,1,0,255.5Zm0-10a.5.5,0,0,1-.5-.5v-5a.5.5,0,0,1,.5-.5.5.5,0,0,1,.5.5v5A.5.5,0,0,1,0,245.5Zm0-10a.5.5,0,0,1-.5-.5v-5a.5.5,0,0,1,.5-.5.5.5,0,0,1,.5.5v5A.5.5,0,0,1,0,235.5Zm0-10a.5.5,0,0,1-.5-.5v-5a.5.5,0,0,1,.5-.5.5.5,0,0,1,.5.5v5A.5.5,0,0,1,0,225.5Zm0-10a.5.5,0,0,1-.5-.5v-5a.5.5,0,0,1,.5-.5.5.5,0,0,1,.5.5v5A.5.5,0,0,1,0,215.5Zm0-10a.5.5,0,0,1-.5-.5v-5a.5.5,0,0,1,.5-.5.5.5,0,0,1,.5.5v5A.5.5,0,0,1,0,205.5Zm0-10a.5.5,0,0,1-.5-.5v-5a.5.5,0,0,1,.5-.5.5.5,0,0,1,.5.5v5A.5.5,0,0,1,0,195.5Zm0-10a.5.5,0,0,1-.5-.5v-5a.5.5,0,0,1,.5-.5.5.5,0,0,1,.5.5v5A.5.5,0,0,1,0,185.5Zm0-10a.5.5,0,0,1-.5-.5v-5a.5.5,0,0,1,.5-.5.5.5,0,0,1,.5.5v5A.5.5,0,0,1,0,175.5Zm0-10a.5.5,0,0,1-.5-.5v-5a.5.5,0,0,1,.5-.5.5.5,0,0,1,.5.5v5A.5.5,0,0,1,0,165.5Zm0-10a.5.5,0,0,1-.5-.5v-5a.5.5,0,0,1,.5-.5.5.5,0,0,1,.5.5v5A.5.5,0,0,1,0,155.5Zm0-10a.5.5,0,0,1-.5-.5v-5a.5.5,0,0,1,.5-.5.5.5,0,0,1,.5.5v5A.5.5,0,0,1,0,145.5Zm0-10a.5.5,0,0,1-.5-.5v-5a.5.5,0,0,1,.5-.5.5.5,0,0,1,.5.5v5A.5.5,0,0,1,0,135.5Zm0-10a.5.5,0,0,1-.5-.5v-5a.5.5,0,0,1,.5-.5.5.5,0,0,1,.5.5v5A.5.5,0,0,1,0,125.5Zm0-10a.5.5,0,0,1-.5-.5v-5a.5.5,0,0,1,.5-.5.5.5,0,0,1,.5.5v5A.5.5,0,0,1,0,115.5Zm0-10a.5.5,0,0,1-.5-.5v-5a.5.5,0,0,1,.5-.5.5.5,0,0,1,.5.5v5A.5.5,0,0,1,0,105.5Zm0-10A.5.5,0,0,1-.5,95V90a.5.5,0,0,1,.5-.5.5.5,0,0,1,.5.5v5A.5.5,0,0,1,0,95.5Zm0-10A.5.5,0,0,1-.5,85V80a.5.5,0,0,1,.5-.5.5.5,0,0,1,.5.5v5A.5.5,0,0,1,0,85.5Zm0-10A.5.5,0,0,1-.5,75V70a.5.5,0,0,1,.5-.5.5.5,0,0,1,.5.5v5A.5.5,0,0,1,0,75.5Zm0-10A.5.5,0,0,1-.5,65V60a.5.5,0,0,1,.5-.5.5.5,0,0,1,.5.5v5A.5.5,0,0,1,0,65.5Zm0-10A.5.5,0,0,1-.5,55V50a.5.5,0,0,1,.5-.5.5.5,0,0,1,.5.5v5A.5.5,0,0,1,0,55.5Zm0-10A.5.5,0,0,1-.5,45V40a.5.5,0,0,1,.5-.5.5.5,0,0,1,.5.5v5A.5.5,0,0,1,0,45.5Zm0-10A.5.5,0,0,1-.5,35V30a.5.5,0,0,1,.5-.5.5.5,0,0,1,.5.5v5A.5.5,0,0,1,0,35.5Zm0-10A.5.5,0,0,1-.5,25V20a.5.5,0,0,1,.5-.5.5.5,0,0,1,.5.5v5A.5.5,0,0,1,0,25.5Zm0-10A.5.5,0,0,1-.5,15V10A.5.5,0,0,1,0,9.5a.5.5,0,0,1,.5.5v5A.5.5,0,0,1,0,15.5Zm0-10A.5.5,0,0,1-.5,5V0A.5.5,0,0,1,0-.5.5.5,0,0,1,.5,0V5A.5.5,0,0,1,0,5.5Z" transform="translate(1076.037 2103.5)" fill="#083142"/>
    <path id="Línea_1820" data-name="Línea 1820" d="M0,262.5a.5.5,0,0,1-.5-.5v-2a.5.5,0,0,1,.5-.5.5.5,0,0,1,.5.5v2A.5.5,0,0,1,0,262.5Zm0-7a.5.5,0,0,1-.5-.5v-5a.5.5,0,0,1,.5-.5.5.5,0,0,1,.5.5v5A.5.5,0,0,1,0,255.5Zm0-10a.5.5,0,0,1-.5-.5v-5a.5.5,0,0,1,.5-.5.5.5,0,0,1,.5.5v5A.5.5,0,0,1,0,245.5Zm0-10a.5.5,0,0,1-.5-.5v-5a.5.5,0,0,1,.5-.5.5.5,0,0,1,.5.5v5A.5.5,0,0,1,0,235.5Zm0-10a.5.5,0,0,1-.5-.5v-5a.5.5,0,0,1,.5-.5.5.5,0,0,1,.5.5v5A.5.5,0,0,1,0,225.5Zm0-10a.5.5,0,0,1-.5-.5v-5a.5.5,0,0,1,.5-.5.5.5,0,0,1,.5.5v5A.5.5,0,0,1,0,215.5Zm0-10a.5.5,0,0,1-.5-.5v-5a.5.5,0,0,1,.5-.5.5.5,0,0,1,.5.5v5A.5.5,0,0,1,0,205.5Zm0-10a.5.5,0,0,1-.5-.5v-5a.5.5,0,0,1,.5-.5.5.5,0,0,1,.5.5v5A.5.5,0,0,1,0,195.5Zm0-10a.5.5,0,0,1-.5-.5v-5a.5.5,0,0,1,.5-.5.5.5,0,0,1,.5.5v5A.5.5,0,0,1,0,185.5Zm0-10a.5.5,0,0,1-.5-.5v-5a.5.5,0,0,1,.5-.5.5.5,0,0,1,.5.5v5A.5.5,0,0,1,0,175.5Zm0-10a.5.5,0,0,1-.5-.5v-5a.5.5,0,0,1,.5-.5.5.5,0,0,1,.5.5v5A.5.5,0,0,1,0,165.5Zm0-10a.5.5,0,0,1-.5-.5v-5a.5.5,0,0,1,.5-.5.5.5,0,0,1,.5.5v5A.5.5,0,0,1,0,155.5Zm0-10a.5.5,0,0,1-.5-.5v-5a.5.5,0,0,1,.5-.5.5.5,0,0,1,.5.5v5A.5.5,0,0,1,0,145.5Zm0-10a.5.5,0,0,1-.5-.5v-5a.5.5,0,0,1,.5-.5.5.5,0,0,1,.5.5v5A.5.5,0,0,1,0,135.5Zm0-10a.5.5,0,0,1-.5-.5v-5a.5.5,0,0,1,.5-.5.5.5,0,0,1,.5.5v5A.5.5,0,0,1,0,125.5Zm0-10a.5.5,0,0,1-.5-.5v-5a.5.5,0,0,1,.5-.5.5.5,0,0,1,.5.5v5A.5.5,0,0,1,0,115.5Zm0-10a.5.5,0,0,1-.5-.5v-5a.5.5,0,0,1,.5-.5.5.5,0,0,1,.5.5v5A.5.5,0,0,1,0,105.5Zm0-10A.5.5,0,0,1-.5,95V90a.5.5,0,0,1,.5-.5.5.5,0,0,1,.5.5v5A.5.5,0,0,1,0,95.5Zm0-10A.5.5,0,0,1-.5,85V80a.5.5,0,0,1,.5-.5.5.5,0,0,1,.5.5v5A.5.5,0,0,1,0,85.5Zm0-10A.5.5,0,0,1-.5,75V70a.5.5,0,0,1,.5-.5.5.5,0,0,1,.5.5v5A.5.5,0,0,1,0,75.5Zm0-10A.5.5,0,0,1-.5,65V60a.5.5,0,0,1,.5-.5.5.5,0,0,1,.5.5v5A.5.5,0,0,1,0,65.5Zm0-10A.5.5,0,0,1-.5,55V50a.5.5,0,0,1,.5-.5.5.5,0,0,1,.5.5v5A.5.5,0,0,1,0,55.5Zm0-10A.5.5,0,0,1-.5,45V40a.5.5,0,0,1,.5-.5.5.5,0,0,1,.5.5v5A.5.5,0,0,1,0,45.5Zm0-10A.5.5,0,0,1-.5,35V30a.5.5,0,0,1,.5-.5.5.5,0,0,1,.5.5v5A.5.5,0,0,1,0,35.5Zm0-10A.5.5,0,0,1-.5,25V20a.5.5,0,0,1,.5-.5.5.5,0,0,1,.5.5v5A.5.5,0,0,1,0,25.5Zm0-10A.5.5,0,0,1-.5,15V10A.5.5,0,0,1,0,9.5a.5.5,0,0,1,.5.5v5A.5.5,0,0,1,0,15.5Zm0-10A.5.5,0,0,1-.5,5V0A.5.5,0,0,1,0-.5.5.5,0,0,1,.5,0V5A.5.5,0,0,1,0,5.5Z" transform="translate(1179.227 2103.5)" fill="#083142"/>
    <path id="Trazado_773069" data-name="Trazado 773069" d="M52.62,12.54a6.954,6.954,0,0,1-.8,3.388,5.542,5.542,0,0,1-2.3,2.272,7.189,7.189,0,0,1-3.445.8H40.737V6.4h5.221Q52.62,6.4,52.62,12.54Zm-4.034.035a3.627,3.627,0,0,0-.374-1.661,2.7,2.7,0,0,0-1.068-1.143,3.191,3.191,0,0,0-1.635-.4h-.976v6.662H45.6a2.736,2.736,0,0,0,2.175-.936A3.707,3.707,0,0,0,48.585,12.575Zm9.431-5a1.608,1.608,0,0,1-.576,1.283,2.252,2.252,0,0,1-1.516.492,2.2,2.2,0,0,1-1.5-.51,1.612,1.612,0,0,1-.584-1.266,1.561,1.561,0,0,1,.567-1.252,2.639,2.639,0,0,1,3.032,0A1.551,1.551,0,0,1,58.016,7.574ZM54.052,19V10H57.8v9Zm12.858-2.988a2.749,2.749,0,0,1-1.165,2.369,5.474,5.474,0,0,1-3.248.839A11.291,11.291,0,0,1,61,19.1a9.257,9.257,0,0,1-1.455-.3V16.17a7.162,7.162,0,0,0,2.777.738q1.1,0,1.1-.571a.451.451,0,0,0-.255-.391,9.009,9.009,0,0,0-1.336-.514,3.773,3.773,0,0,1-1.74-1,2.382,2.382,0,0,1-.545-1.626,2.594,2.594,0,0,1,1.112-2.21,5.216,5.216,0,0,1,3.125-.813,9.931,9.931,0,0,1,2.5.343v2.522a7.549,7.549,0,0,0-1.213-.4,4.9,4.9,0,0,0-1.107-.158,1.205,1.205,0,0,0-.589.123.379.379,0,0,0-.22.343.478.478,0,0,0,.237.413,4.2,4.2,0,0,0,.949.378,4.4,4.4,0,0,1,1.978,1.037A2.272,2.272,0,0,1,66.911,16.012Zm11.531-1.784a6.4,6.4,0,0,1-.5,2.61A4.046,4.046,0,0,1,76.526,18.6a3.564,3.564,0,0,1-2.057.624,2.755,2.755,0,0,1-2.4-1.151h-.035V23.14H68.291V10h3.744v1.222h.035a3.171,3.171,0,0,1,1.16-1.059,3.364,3.364,0,0,1,1.617-.382,3.215,3.215,0,0,1,2.667,1.16A5.147,5.147,0,0,1,78.442,14.228Zm-3.8.114a2.346,2.346,0,0,0-.33-1.336,1.237,1.237,0,0,0-1.982.026,2.341,2.341,0,0,0-.369,1.4v.176a2.562,2.562,0,0,0,.316,1.362,1.044,1.044,0,0,0,.949.51,1.182,1.182,0,0,0,1.046-.558A2.849,2.849,0,0,0,74.645,14.342Zm15.214,0a4.687,4.687,0,0,1-1.375,3.577,6.355,6.355,0,0,1-7.664.031,4.546,4.546,0,0,1-1.367-3.5,4.692,4.692,0,0,1,.642-2.487,4.172,4.172,0,0,1,1.828-1.617,6.311,6.311,0,0,1,2.733-.562,6.113,6.113,0,0,1,2.773.589A4.286,4.286,0,0,1,89.23,12,4.452,4.452,0,0,1,89.859,14.342Zm-3.8.018q0-1.837-1.406-1.837T83.25,14.447q0,2.03,1.424,2.03Q86.062,16.478,86.062,14.359Zm12.507,1.652A2.749,2.749,0,0,1,97.4,18.38a5.474,5.474,0,0,1-3.248.839,11.291,11.291,0,0,1-1.5-.123,9.257,9.257,0,0,1-1.455-.3V16.17a7.162,7.162,0,0,0,2.777.738q1.1,0,1.1-.571a.451.451,0,0,0-.255-.391,9.009,9.009,0,0,0-1.336-.514,3.773,3.773,0,0,1-1.74-1A2.382,2.382,0,0,1,91.2,12.8a2.594,2.594,0,0,1,1.112-2.21A5.216,5.216,0,0,1,95.44,9.78a9.931,9.931,0,0,1,2.5.343v2.522a7.549,7.549,0,0,0-1.213-.4,4.9,4.9,0,0,0-1.107-.158,1.205,1.205,0,0,0-.589.123.379.379,0,0,0-.22.343.478.478,0,0,0,.237.413,4.2,4.2,0,0,0,.949.378,4.4,4.4,0,0,1,1.978,1.037A2.272,2.272,0,0,1,98.569,16.012Zm5.344-8.437a1.608,1.608,0,0,1-.576,1.283,2.252,2.252,0,0,1-1.516.492,2.2,2.2,0,0,1-1.5-.51,1.612,1.612,0,0,1-.584-1.266,1.561,1.561,0,0,1,.567-1.252,2.639,2.639,0,0,1,3.032,0A1.551,1.551,0,0,1,103.913,7.574ZM99.949,19V10h3.744v9Zm11.883-.123a3.648,3.648,0,0,1-.835.233,7.634,7.634,0,0,1-1.4.11,3.357,3.357,0,0,1-2.448-.861,3.269,3.269,0,0,1-.883-2.452V12.593h-1.415V10h1.415V8.233l3.691-1.02V10h1.872v2.593h-1.872v2.7q0,1.187.94,1.187a2.551,2.551,0,0,0,.932-.193Zm5.133-11.3a1.608,1.608,0,0,1-.576,1.283,2.252,2.252,0,0,1-1.516.492,2.2,2.2,0,0,1-1.5-.51,1.612,1.612,0,0,1-.584-1.266,1.561,1.561,0,0,1,.567-1.252,2.639,2.639,0,0,1,3.032,0A1.551,1.551,0,0,1,116.964,7.574ZM113,19V10h3.744v9Zm12.1,0h-4.447l-3.006-9h3.9l1.1,4.913a11.366,11.366,0,0,1,.29,1.784h.053q.018-.176.048-.36T124.347,10h3.885Zm14.036-4.658a4.687,4.687,0,0,1-1.375,3.577,6.355,6.355,0,0,1-7.664.031,4.546,4.546,0,0,1-1.367-3.5,4.692,4.692,0,0,1,.642-2.487,4.172,4.172,0,0,1,1.828-1.617,6.311,6.311,0,0,1,2.733-.562,6.113,6.113,0,0,1,2.773.589,4.286,4.286,0,0,1,1.8,1.635A4.452,4.452,0,0,1,139.139,14.342Zm-3.8.018q0-1.837-1.406-1.837t-1.406,1.925q0,2.03,1.424,2.03Q135.342,16.478,135.342,14.359Zm12.507,1.652a2.749,2.749,0,0,1-1.165,2.369,5.474,5.474,0,0,1-3.248.839,11.291,11.291,0,0,1-1.5-.123,9.257,9.257,0,0,1-1.455-.3V16.17a7.162,7.162,0,0,0,2.777.738q1.1,0,1.1-.571a.451.451,0,0,0-.255-.391,9.009,9.009,0,0,0-1.336-.514,3.773,3.773,0,0,1-1.74-1,2.382,2.382,0,0,1-.545-1.626,2.594,2.594,0,0,1,1.112-2.21,5.216,5.216,0,0,1,3.125-.813,9.931,9.931,0,0,1,2.5.343v2.522a7.549,7.549,0,0,0-1.213-.4,4.9,4.9,0,0,0-1.107-.158,1.205,1.205,0,0,0-.589.123.379.379,0,0,0-.22.343.478.478,0,0,0,.237.413,4.2,4.2,0,0,0,.949.378,4.4,4.4,0,0,1,1.978,1.037A2.272,2.272,0,0,1,147.849,16.012Zm12.718,2.865a3.648,3.648,0,0,1-.835.233,7.634,7.634,0,0,1-1.4.11,3.357,3.357,0,0,1-2.448-.861A3.269,3.269,0,0,1,155,15.906V12.593h-1.415V10H155V8.233l3.691-1.02V10h1.872v2.593h-1.872v2.7q0,1.187.94,1.187a2.551,2.551,0,0,0,.932-.193Zm4.395-3.313a1.265,1.265,0,0,0,.668.91,3.012,3.012,0,0,0,1.512.33,6.226,6.226,0,0,0,2.479-.5v2.373a8.908,8.908,0,0,1-3.3.545,5.214,5.214,0,0,1-3.665-1.2,4.277,4.277,0,0,1-1.31-3.313,5.467,5.467,0,0,1,.576-2.558,4.142,4.142,0,0,1,1.705-1.736,5.038,5.038,0,0,1,2.492-.628,4.9,4.9,0,0,1,2.391.545,3.63,3.63,0,0,1,1.507,1.529,4.906,4.906,0,0,1,.514,2.3v1.406Zm2.25-1.96q0-1.556-1.116-1.556a.944.944,0,0,0-.782.426,2.127,2.127,0,0,0-.369,1.129Zm11.373-.4a3.6,3.6,0,0,0-1.169-.255q-1.854,0-1.854,2.145V19h-3.744V10h3.744v1.582h.035a2.81,2.81,0,0,1,.976-1.3,2.506,2.506,0,0,1,1.477-.444,1.269,1.269,0,0,1,.536.105ZM191.337,19V13.814a1.654,1.654,0,0,0-.233-.971.876.876,0,0,0-.76-.321.949.949,0,0,0-.809.391,1.79,1.79,0,0,0-.29,1.085v5H185.5V13.9q0-1.38-.94-1.38a1,1,0,0,0-.861.4,1.933,1.933,0,0,0-.29,1.147V19h-3.744V10h3.744v1.424h.035a2.9,2.9,0,0,1,.672-.769,3.946,3.946,0,0,1,1.042-.633,3.235,3.235,0,0,1,1.257-.242,3.181,3.181,0,0,1,1.613.378,2.931,2.931,0,0,1,1.094,1.2,3.207,3.207,0,0,1,1.266-1.165,3.772,3.772,0,0,1,1.758-.409,2.645,2.645,0,0,1,2.171.923,4.109,4.109,0,0,1,.756,2.663V19Zm9.4-11.426a1.608,1.608,0,0,1-.576,1.283,2.252,2.252,0,0,1-1.516.492,2.2,2.2,0,0,1-1.5-.51,1.612,1.612,0,0,1-.584-1.266,1.561,1.561,0,0,1,.567-1.252,2.639,2.639,0,0,1,3.032,0A1.551,1.551,0,0,1,200.733,7.574ZM196.769,19V10h3.744v9Zm11.382,0V14.087a2.184,2.184,0,0,0-.25-1.2.915.915,0,0,0-.813-.365.88.88,0,0,0-.756.378,1.613,1.613,0,0,0-.272.967V19h-3.744V10h3.744v1.406h.035a3.177,3.177,0,0,1,1.2-1.2,3.29,3.29,0,0,1,1.644-.426q2.953,0,2.953,3.727V19Zm10.424,0V17.629h-.035A2.944,2.944,0,0,1,215.8,19.22a2.625,2.625,0,0,1-2-.756,2.808,2.808,0,0,1-.721-2.021q0-2.654,3.261-3.076l2.232-.29a.851.851,0,0,0-.4-.721,1.8,1.8,0,0,0-1.063-.281,7,7,0,0,0-3.19.861V10.5a8.535,8.535,0,0,1,1.828-.519,10.639,10.639,0,0,1,1.881-.2,4.722,4.722,0,0,1,3.327.98,4.368,4.368,0,0,1,1.033,3.274V19Zm-2.215-3.059a.83.83,0,0,0,.233.606.888.888,0,0,0,.664.237,1.18,1.18,0,0,0,.954-.439,1.7,1.7,0,0,0,.365-1.125v-.343l-1.266.176Q216.36,15.212,216.36,15.941ZM223.681,19V5.676h3.744V19Zm8.771-3.437a1.265,1.265,0,0,0,.668.91,3.012,3.012,0,0,0,1.512.33,6.226,6.226,0,0,0,2.479-.5v2.373a8.908,8.908,0,0,1-3.3.545,5.214,5.214,0,0,1-3.665-1.2,4.277,4.277,0,0,1-1.31-3.313,5.467,5.467,0,0,1,.576-2.558,4.142,4.142,0,0,1,1.705-1.736A5.038,5.038,0,0,1,233.6,9.78a4.9,4.9,0,0,1,2.391.545,3.63,3.63,0,0,1,1.507,1.529,4.906,4.906,0,0,1,.514,2.3v1.406Zm2.25-1.96q0-1.556-1.116-1.556a.944.944,0,0,0-.782.426,2.127,2.127,0,0,0-.369,1.129Zm11.918,2.408a2.749,2.749,0,0,1-1.165,2.369,5.474,5.474,0,0,1-3.248.839,11.291,11.291,0,0,1-1.5-.123,9.257,9.257,0,0,1-1.455-.3V16.17a7.162,7.162,0,0,0,2.777.738q1.1,0,1.1-.571a.451.451,0,0,0-.255-.391,9.009,9.009,0,0,0-1.336-.514,3.773,3.773,0,0,1-1.74-1,2.382,2.382,0,0,1-.545-1.626,2.594,2.594,0,0,1,1.112-2.21,5.216,5.216,0,0,1,3.125-.813,9.931,9.931,0,0,1,2.5.343v2.522a7.549,7.549,0,0,0-1.213-.4,4.9,4.9,0,0,0-1.107-.158,1.205,1.205,0,0,0-.589.123.379.379,0,0,0-.22.343.478.478,0,0,0,.237.413,4.2,4.2,0,0,0,.949.378,4.4,4.4,0,0,1,1.978,1.037A2.272,2.272,0,0,1,246.621,16.012Zm16.392-1.67a4.687,4.687,0,0,1-1.375,3.577,6.355,6.355,0,0,1-7.664.031,4.546,4.546,0,0,1-1.367-3.5,4.692,4.692,0,0,1,.642-2.487,4.172,4.172,0,0,1,1.828-1.617,6.311,6.311,0,0,1,2.733-.562,6.113,6.113,0,0,1,2.773.589,4.286,4.286,0,0,1,1.8,1.635A4.452,4.452,0,0,1,263.012,14.342Zm-3.8.018q0-1.837-1.406-1.837T256.4,14.447q0,2.03,1.424,2.03Q259.215,16.478,259.215,14.359ZM275.422,19V17.954h-.035a3.089,3.089,0,0,1-1.169.927,3.331,3.331,0,0,1-1.424.338,3.663,3.663,0,0,1-2.03-.567,3.443,3.443,0,0,1-1.314-1.586,6.106,6.106,0,0,1-.435-2.408,5.925,5.925,0,0,1,.519-2.54,4.059,4.059,0,0,1,1.459-1.723A3.769,3.769,0,0,1,273.1,9.78a3.193,3.193,0,0,1,1.024.158,2.77,2.77,0,0,1,.817.426,1.273,1.273,0,0,1,.444.532h.035V5.676h3.744V19Zm.079-4.772a1.974,1.974,0,0,0-.356-1.257,1.2,1.2,0,0,0-1.951.11,2.593,2.593,0,0,0-.382,1.49q0,1.907,1.318,1.907a1.173,1.173,0,0,0,1-.514,2.531,2.531,0,0,0,.374-1.5Zm8.692,1.336a1.265,1.265,0,0,0,.668.91,3.012,3.012,0,0,0,1.512.33,6.226,6.226,0,0,0,2.479-.5v2.373a8.908,8.908,0,0,1-3.3.545,5.214,5.214,0,0,1-3.665-1.2,4.277,4.277,0,0,1-1.31-3.313,5.467,5.467,0,0,1,.576-2.558,4.142,4.142,0,0,1,1.705-1.736,5.038,5.038,0,0,1,2.492-.628,4.9,4.9,0,0,1,2.391.545,3.63,3.63,0,0,1,1.507,1.529,4.906,4.906,0,0,1,.514,2.3v1.406Zm2.25-1.96q0-1.556-1.116-1.556a.944.944,0,0,0-.782.426,2.127,2.127,0,0,0-.369,1.129ZM301.781,19V17.611h-.035a4.926,4.926,0,0,1-.839.94,3.23,3.23,0,0,1-.844.483,2.983,2.983,0,0,1-1.094.185,2.722,2.722,0,0,1-2.25-.958,4.429,4.429,0,0,1-.773-2.83V10h3.744v5.15q0,1.327.993,1.327a.972.972,0,0,0,.822-.36,1.642,1.642,0,0,0,.277-1.02V10h3.744v9Zm12.85-2.988a2.749,2.749,0,0,1-1.165,2.369,5.474,5.474,0,0,1-3.248.839,11.291,11.291,0,0,1-1.5-.123,9.257,9.257,0,0,1-1.455-.3V16.17a7.162,7.162,0,0,0,2.777.738q1.1,0,1.1-.571a.451.451,0,0,0-.255-.391,9.009,9.009,0,0,0-1.336-.514,3.773,3.773,0,0,1-1.74-1,2.382,2.382,0,0,1-.545-1.626,2.594,2.594,0,0,1,1.112-2.21A5.216,5.216,0,0,1,311.5,9.78a9.931,9.931,0,0,1,2.5.343v2.522a7.549,7.549,0,0,0-1.213-.4,4.9,4.9,0,0,0-1.107-.158,1.205,1.205,0,0,0-.589.123.379.379,0,0,0-.22.343.478.478,0,0,0,.237.413,4.2,4.2,0,0,0,.949.378,4.4,4.4,0,0,1,1.978,1.037A2.272,2.272,0,0,1,314.63,16.012ZM321.741,19V17.611h-.035a4.926,4.926,0,0,1-.839.94,3.23,3.23,0,0,1-.844.483,2.983,2.983,0,0,1-1.094.185,2.722,2.722,0,0,1-2.25-.958,4.429,4.429,0,0,1-.773-2.83V10h3.744v5.15q0,1.327.993,1.327a.972.972,0,0,0,.822-.36,1.642,1.642,0,0,0,.277-1.02V10h3.744v9Zm10.529,0V17.629h-.035a2.944,2.944,0,0,1-2.742,1.591,2.625,2.625,0,0,1-2-.756,2.808,2.808,0,0,1-.721-2.021q0-2.654,3.261-3.076l2.232-.29a.851.851,0,0,0-.4-.721,1.8,1.8,0,0,0-1.063-.281,7,7,0,0,0-3.19.861V10.5a8.535,8.535,0,0,1,1.828-.519,10.639,10.639,0,0,1,1.881-.2,4.722,4.722,0,0,1,3.327.98,4.368,4.368,0,0,1,1.033,3.274V19Zm-2.215-3.059a.83.83,0,0,0,.233.606.888.888,0,0,0,.664.237,1.18,1.18,0,0,0,.954-.439,1.7,1.7,0,0,0,.365-1.125v-.343L331,15.054Q330.055,15.212,330.055,15.941Zm14.089-2.733a3.6,3.6,0,0,0-1.169-.255q-1.854,0-1.854,2.145V19h-3.744V10h3.744v1.582h.035a2.81,2.81,0,0,1,.976-1.3,2.506,2.506,0,0,1,1.477-.444,1.269,1.269,0,0,1,.536.105Zm5.045-5.634a1.608,1.608,0,0,1-.576,1.283,2.252,2.252,0,0,1-1.516.492,2.2,2.2,0,0,1-1.5-.51,1.612,1.612,0,0,1-.584-1.266,1.561,1.561,0,0,1,.567-1.252,2.639,2.639,0,0,1,3.032,0A1.551,1.551,0,0,1,349.189,7.574ZM345.225,19V10h3.744v9Zm15.557-4.658a4.687,4.687,0,0,1-1.375,3.577,6.355,6.355,0,0,1-7.664.031,4.546,4.546,0,0,1-1.367-3.5,4.692,4.692,0,0,1,.642-2.487,4.172,4.172,0,0,1,1.828-1.617,6.311,6.311,0,0,1,2.733-.562,6.113,6.113,0,0,1,2.773.589,4.286,4.286,0,0,1,1.8,1.635A4.452,4.452,0,0,1,360.782,14.342Zm-3.8.018q0-1.837-1.406-1.837t-1.406,1.925q0,2.03,1.424,2.03Q356.985,16.478,356.985,14.359ZM374.115,8.4a3.3,3.3,0,0,0-1.081-.2,1.2,1.2,0,0,0-.923.321,1.22,1.22,0,0,0-.3.866V10H373.9v2.593h-2.083V19h-3.744V12.593h-1.512V10h1.512V9.174a3.659,3.659,0,0,1,.51-1.938,3.4,3.4,0,0,1,1.481-1.305,5.423,5.423,0,0,1,2.36-.466,6.406,6.406,0,0,1,1.7.193Zm4.79-.826a1.608,1.608,0,0,1-.576,1.283,2.252,2.252,0,0,1-1.516.492,2.2,2.2,0,0,1-1.5-.51,1.612,1.612,0,0,1-.584-1.266,1.561,1.561,0,0,1,.567-1.252,2.639,2.639,0,0,1,3.032,0A1.551,1.551,0,0,1,378.9,7.574ZM374.941,19V10h3.744v9Zm11.382,0V14.087a2.184,2.184,0,0,0-.25-1.2.915.915,0,0,0-.813-.365.88.88,0,0,0-.756.378,1.613,1.613,0,0,0-.272.967V19h-3.744V10h3.744v1.406h.035a3.177,3.177,0,0,1,1.2-1.2,3.29,3.29,0,0,1,1.644-.426q2.953,0,2.953,3.727V19Zm10.424,0V17.629h-.035a2.944,2.944,0,0,1-2.742,1.591,2.625,2.625,0,0,1-2-.756,2.808,2.808,0,0,1-.721-2.021q0-2.654,3.261-3.076l2.232-.29a.851.851,0,0,0-.4-.721,1.8,1.8,0,0,0-1.063-.281,7,7,0,0,0-3.19.861V10.5a8.535,8.535,0,0,1,1.828-.519,10.639,10.639,0,0,1,1.881-.2,4.722,4.722,0,0,1,3.327.98,4.368,4.368,0,0,1,1.033,3.274V19Zm-2.215-3.059a.83.83,0,0,0,.233.606.888.888,0,0,0,.664.237,1.18,1.18,0,0,0,.954-.439,1.7,1.7,0,0,0,.365-1.125v-.343l-1.266.176Q394.532,15.212,394.532,15.941ZM401.853,19V5.676H405.6V19Z" transform="translate(840 2056)" fill="#12263f"/>
    <path id="Trazado_773083" data-name="Trazado 773083" d="M-19.465,0h-1.729l-2.631-5.338q-.035-.07-.076-.164l-.082-.19q-.041-.1-.076-.185a1.247,1.247,0,0,1-.053-.158h-.035q-.029.217-.064.486a4.928,4.928,0,0,1-.1.533L-25.383,0h-1.775l1.775-8.4h1.875l2.52,5.139q.029.064.073.155t.088.188q.044.1.082.19a1.255,1.255,0,0,1,.056.164h.023q.006-.088.018-.2t.029-.22q.018-.111.038-.217t.038-.187L-19.477-8.4h1.787Zm8.145-3.621a4.658,4.658,0,0,1-.082.855,4.21,4.21,0,0,1-.258.858,3.788,3.788,0,0,1-.454.794,2.936,2.936,0,0,1-.674.653,3.312,3.312,0,0,1-.914.442,3.911,3.911,0,0,1-1.181.164,3.189,3.189,0,0,1-1.163-.193,2.218,2.218,0,0,1-.817-.533,2.167,2.167,0,0,1-.48-.806,3.105,3.105,0,0,1-.158-1,4.576,4.576,0,0,1,.088-.882,4.042,4.042,0,0,1,.272-.864,3.689,3.689,0,0,1,.472-.782,3.056,3.056,0,0,1,.686-.639,3.355,3.355,0,0,1,.911-.431,3.9,3.9,0,0,1,1.151-.158,3.191,3.191,0,0,1,1.11.179,2.223,2.223,0,0,1,.814.51,2.186,2.186,0,0,1,.5.8A2.971,2.971,0,0,1-11.32-3.621Zm-1.869.023a1.67,1.67,0,0,0-.059-.454,1.05,1.05,0,0,0-.173-.357.824.824,0,0,0-.278-.234.817.817,0,0,0-.381-.085,1.092,1.092,0,0,0-.659.211,1.808,1.808,0,0,0-.489.545,2.8,2.8,0,0,0-.3.75,3.374,3.374,0,0,0-.105.832,1.239,1.239,0,0,0,.249.826.81.81,0,0,0,.647.293,1.133,1.133,0,0,0,.671-.205,1.719,1.719,0,0,0,.486-.536,2.677,2.677,0,0,0,.3-.747A3.586,3.586,0,0,0-13.189-3.6ZM-6.41-4.635h-1.4l-.48,2.244q-.012.076-.029.164t-.032.176q-.015.088-.026.167a.929.929,0,0,0-.012.132.457.457,0,0,0,.117.346.551.551,0,0,0,.387.111,1.159,1.159,0,0,0,.179-.018q.108-.018.223-.047t.22-.062q.105-.032.17-.056L-7.383-.105a2.559,2.559,0,0,1-.258.082q-.152.041-.334.076t-.378.059a3.236,3.236,0,0,1-.384.023A2.1,2.1,0,0,1-9.48.021,1.19,1.19,0,0,1-9.958-.3a1.161,1.161,0,0,1-.252-.472,2.229,2.229,0,0,1-.073-.586q0-.094.012-.217t.032-.252q.021-.129.047-.261t.05-.243l.48-2.309h-.926L-10.26-6h.885l.3-1.406,1.951-.48L-7.512-6h1.424ZM-.3-4.453a1.85,1.85,0,0,1-.2.85,1.7,1.7,0,0,1-.656.668,3.907,3.907,0,0,1-1.222.442,10.141,10.141,0,0,1-1.9.179.2.2,0,0,0-.012.062V-2.2a1.177,1.177,0,0,0,.059.363.829.829,0,0,0,.2.328,1.052,1.052,0,0,0,.378.237,1.634,1.634,0,0,0,.586.091,3.058,3.058,0,0,0,.46-.038,4.152,4.152,0,0,0,.507-.111A5.128,5.128,0,0,0-1.579-1.5a3.915,3.915,0,0,0,.472-.226L-1.395-.346a3.886,3.886,0,0,1-.416.182,5.01,5.01,0,0,1-.507.158A4.929,4.929,0,0,1-2.9.105a4.762,4.762,0,0,1-.63.041,3.071,3.071,0,0,1-1.166-.2,2.225,2.225,0,0,1-.8-.536,2.088,2.088,0,0,1-.46-.788A3.093,3.093,0,0,1-6.1-2.338,4.184,4.184,0,0,1-5.845-3.8,3.691,3.691,0,0,1-5.118-5.01a3.487,3.487,0,0,1,1.137-.829A3.5,3.5,0,0,1-2.5-6.146a3.168,3.168,0,0,1,1.008.141,1.922,1.922,0,0,1,.68.378,1.462,1.462,0,0,1,.387.542A1.675,1.675,0,0,1-.3-4.453Zm-1.764.023a.462.462,0,0,0-.161-.36.66.66,0,0,0-.454-.144,1.152,1.152,0,0,0-.5.111,1.53,1.53,0,0,0-.434.308,1.868,1.868,0,0,0-.337.469,2.424,2.424,0,0,0-.211.589A3.664,3.664,0,0,0-2.581-3.7.792.792,0,0,0-2.062-4.43Zm8.6.527a5,5,0,0,1-.07.788,4.467,4.467,0,0,1-.243.888,4.169,4.169,0,0,1-.466.876,3.294,3.294,0,0,1-.735.759,3.624,3.624,0,0,1-1.052.536,4.507,4.507,0,0,1-1.418.2A5.5,5.5,0,0,1,1.866.1a5.5,5.5,0,0,1-.68-.129A5.374,5.374,0,0,1,.551-.231,3.445,3.445,0,0,1,0-.5L1.775-8.883H3.645L3.082-6.24q-.023.123-.062.281l-.076.316-.073.3q-.035.144-.064.243h.047a3.812,3.812,0,0,1,.363-.422,2.254,2.254,0,0,1,.425-.334,2.015,2.015,0,0,1,.5-.217,2.148,2.148,0,0,1,.586-.076,1.847,1.847,0,0,1,.729.141,1.53,1.53,0,0,1,.571.422,2.01,2.01,0,0,1,.375.7A3.22,3.22,0,0,1,6.539-3.9ZM4.682-3.7a1.33,1.33,0,0,0-.187-.753.681.681,0,0,0-.609-.278.92.92,0,0,0-.524.164,1.757,1.757,0,0,0-.439.437,3.108,3.108,0,0,0-.343.624,4.2,4.2,0,0,0-.229.732L2.039-1.307a1.424,1.424,0,0,0,.337.108,2.137,2.137,0,0,0,.442.044,1.379,1.379,0,0,0,.551-.108,1.634,1.634,0,0,0,.46-.3A2.169,2.169,0,0,0,4.2-2a2.956,2.956,0,0,0,.267-.533,3.358,3.358,0,0,0,.164-.583A3.166,3.166,0,0,0,4.682-3.7Zm8.754.076a4.658,4.658,0,0,1-.082.855,4.21,4.21,0,0,1-.258.858,3.788,3.788,0,0,1-.454.794,2.936,2.936,0,0,1-.674.653,3.312,3.312,0,0,1-.914.442A3.911,3.911,0,0,1,9.873.146,3.189,3.189,0,0,1,8.71-.047,2.218,2.218,0,0,1,7.893-.58a2.167,2.167,0,0,1-.48-.806,3.105,3.105,0,0,1-.158-1,4.576,4.576,0,0,1,.088-.882,4.042,4.042,0,0,1,.272-.864,3.689,3.689,0,0,1,.472-.782,3.056,3.056,0,0,1,.686-.639,3.355,3.355,0,0,1,.911-.431,3.9,3.9,0,0,1,1.151-.158,3.191,3.191,0,0,1,1.11.179,2.223,2.223,0,0,1,.814.51,2.186,2.186,0,0,1,.5.8A2.971,2.971,0,0,1,13.436-3.621ZM11.566-3.6a1.67,1.67,0,0,0-.059-.454,1.05,1.05,0,0,0-.173-.357.824.824,0,0,0-.278-.234.817.817,0,0,0-.381-.085,1.092,1.092,0,0,0-.659.211,1.808,1.808,0,0,0-.489.545,2.8,2.8,0,0,0-.3.75,3.374,3.374,0,0,0-.105.832,1.239,1.239,0,0,0,.249.826.81.81,0,0,0,.647.293,1.133,1.133,0,0,0,.671-.205,1.719,1.719,0,0,0,.486-.536,2.677,2.677,0,0,0,.3-.747A3.586,3.586,0,0,0,11.566-3.6Zm8.771-.023a4.658,4.658,0,0,1-.082.855A4.21,4.21,0,0,1,20-1.907a3.788,3.788,0,0,1-.454.794,2.936,2.936,0,0,1-.674.653,3.312,3.312,0,0,1-.914.442,3.911,3.911,0,0,1-1.181.164,3.189,3.189,0,0,1-1.163-.193,2.218,2.218,0,0,1-.817-.533,2.167,2.167,0,0,1-.48-.806,3.105,3.105,0,0,1-.158-1,4.576,4.576,0,0,1,.088-.882,4.042,4.042,0,0,1,.272-.864,3.689,3.689,0,0,1,.472-.782,3.056,3.056,0,0,1,.686-.639,3.355,3.355,0,0,1,.911-.431,3.9,3.9,0,0,1,1.151-.158,3.191,3.191,0,0,1,1.11.179,2.223,2.223,0,0,1,.814.51,2.186,2.186,0,0,1,.5.8A2.971,2.971,0,0,1,20.338-3.621ZM18.469-3.6a1.67,1.67,0,0,0-.059-.454,1.05,1.05,0,0,0-.173-.357.824.824,0,0,0-.278-.234.817.817,0,0,0-.381-.085,1.092,1.092,0,0,0-.659.211,1.808,1.808,0,0,0-.489.545,2.8,2.8,0,0,0-.3.75,3.374,3.374,0,0,0-.105.832,1.239,1.239,0,0,0,.249.826.81.81,0,0,0,.647.293,1.133,1.133,0,0,0,.671-.205,1.719,1.719,0,0,0,.486-.536,2.677,2.677,0,0,0,.3-.747A3.586,3.586,0,0,0,18.469-3.6Zm6.709.428L26.725,0H24.662L23.344-3.117h-.029L22.658,0H20.795l1.887-8.883h1.869L23.379-3.4H23.4L25.787-6h2.2Z" transform="translate(879 2331)" fill="#12263f"/>
    <path id="Trazado_773077" data-name="Trazado 773077" d="M-25.8,0h-1.893V-8.4H-25.8Zm11.256,0h-1.846V-3.422q0-1.307-.961-1.307a.883.883,0,0,0-.744.393,1.613,1.613,0,0,0-.287.979V0h-1.852V-3.457q0-1.271-.943-1.271a.9.9,0,0,0-.759.375,1.65,1.65,0,0,0-.284,1.02V0H-24.07V-6h1.852v.938h.023a2.214,2.214,0,0,1,.806-.782,2.214,2.214,0,0,1,1.134-.3,1.728,1.728,0,0,1,1.74,1.119A2.219,2.219,0,0,1-16.5-6.146q1.957,0,1.957,2.414Zm3.34-.7h-.023V2.76h-1.852V-6h1.852v.9h.023A2.177,2.177,0,0,1-9.275-6.146a2.169,2.169,0,0,1,1.8.8A3.405,3.405,0,0,1-6.838-3.17,3.691,3.691,0,0,1-7.579-.762,2.417,2.417,0,0,1-9.551.146,1.868,1.868,0,0,1-11.2-.7Zm-.053-2.461v.48a1.527,1.527,0,0,0,.328,1.014,1.068,1.068,0,0,0,.861.393,1.135,1.135,0,0,0,.981-.489,2.362,2.362,0,0,0,.349-1.386q0-1.582-1.23-1.582A1.155,1.155,0,0,0-10.9-4.3,1.718,1.718,0,0,0-11.256-3.158ZM-1.723-4.33A1.606,1.606,0,0,0-2.5-4.512a1.123,1.123,0,0,0-.943.442,1.93,1.93,0,0,0-.34,1.2V0H-5.637V-6h1.852v1.113h.023A1.6,1.6,0,0,1-2.18-6.105a1.192,1.192,0,0,1,.457.07ZM4.482-2.473H.568Q.662-1.166,2.215-1.166a3.214,3.214,0,0,0,1.74-.469V-.3A4.572,4.572,0,0,1,1.793.146,3.044,3.044,0,0,1-.463-.659a3.044,3.044,0,0,1-.8-2.247A3.211,3.211,0,0,1-.4-5.273a2.889,2.889,0,0,1,2.133-.873,2.622,2.622,0,0,1,2.03.779,3,3,0,0,1,.718,2.115ZM2.766-3.609Q2.766-4.9,1.723-4.9a1,1,0,0,0-.771.369,1.675,1.675,0,0,0-.4.92ZM5.191-.158v-1.5a3.942,3.942,0,0,0,.911.41,3.021,3.021,0,0,0,.858.135,1.841,1.841,0,0,0,.776-.135.435.435,0,0,0,.284-.41.379.379,0,0,0-.129-.293,1.2,1.2,0,0,0-.331-.205,3.757,3.757,0,0,0-.442-.158q-.24-.07-.463-.158a4.435,4.435,0,0,1-.63-.29,1.821,1.821,0,0,1-.457-.36A1.416,1.416,0,0,1,5.288-3.6a1.894,1.894,0,0,1-.1-.639,1.644,1.644,0,0,1,.22-.867A1.8,1.8,0,0,1,6-5.7a2.677,2.677,0,0,1,.838-.34,4.369,4.369,0,0,1,.981-.108,5.446,5.446,0,0,1,.809.062,6.035,6.035,0,0,1,.809.179v1.43a2.922,2.922,0,0,0-.753-.308,3.176,3.176,0,0,0-.788-.1,1.746,1.746,0,0,0-.343.032,1.129,1.129,0,0,0-.284.094.522.522,0,0,0-.193.158.364.364,0,0,0-.07.22.406.406,0,0,0,.105.281.916.916,0,0,0,.275.2,2.719,2.719,0,0,0,.378.152q.208.067.413.138a5.371,5.371,0,0,1,.668.281,2.136,2.136,0,0,1,.513.357,1.4,1.4,0,0,1,.328.48,1.708,1.708,0,0,1,.114.656,1.712,1.712,0,0,1-.231.911,1.853,1.853,0,0,1-.615.615,2.79,2.79,0,0,1-.885.346,4.9,4.9,0,0,1-1.04.108A5.362,5.362,0,0,1,5.191-.158Zm8.531.3a3.225,3.225,0,0,1-2.358-.841,3.048,3.048,0,0,1-.858-2.282A3.048,3.048,0,0,1,11.4-5.306,3.365,3.365,0,0,1,13.8-6.146a3.186,3.186,0,0,1,2.344.841A2.989,2.989,0,0,1,17-3.082a3.173,3.173,0,0,1-.876,2.361A3.261,3.261,0,0,1,13.723.146Zm.047-4.875a1.235,1.235,0,0,0-1.02.451A1.99,1.99,0,0,0,12.387-3q0,1.729,1.395,1.729,1.33,0,1.33-1.775Q15.111-4.729,13.77-4.729Zm8.344.4a1.606,1.606,0,0,0-.779-.182,1.123,1.123,0,0,0-.943.442,1.93,1.93,0,0,0-.34,1.2V0H18.2V-6h1.852v1.113h.023a1.6,1.6,0,0,1,1.582-1.219,1.192,1.192,0,0,1,.457.07ZM27.967,0H26.215V-.861h-.023A1.955,1.955,0,0,1,24.4.146a1.869,1.869,0,0,1-1.374-.5,1.774,1.774,0,0,1-.5-1.321q0-1.746,2.068-2.016L26.227-3.9q0-.984-1.066-.984a3.64,3.64,0,0,0-2.039.639V-5.643a4.587,4.587,0,0,1,1.058-.352A5.56,5.56,0,0,1,25.4-6.146a2.266,2.266,0,0,1,2.566,2.561Zm-1.74-2.437v-.4l-1.09.141q-.9.117-.9.814a.673.673,0,0,0,.22.519.844.844,0,0,0,.595.2,1.1,1.1,0,0,0,.85-.36A1.3,1.3,0,0,0,26.227-2.437Z" transform="translate(1011 2330)" fill="#12263f"/>
    <path id="Trazado_773078" data-name="Trazado 773078" d="M-14.329-.3a5.541,5.541,0,0,1-2.4.445A4.049,4.049,0,0,1-19.772-.99,4.155,4.155,0,0,1-20.88-4.02a4.439,4.439,0,0,1,1.245-3.27A4.355,4.355,0,0,1-16.4-8.543a6.043,6.043,0,0,1,2.074.311V-6.41a3.675,3.675,0,0,0-1.922-.5,2.549,2.549,0,0,0-1.91.744,2.761,2.761,0,0,0-.727,2.016A2.708,2.708,0,0,0-18.2-2.212a2.422,2.422,0,0,0,1.846.724,3.937,3.937,0,0,0,2.027-.539Zm6.275.3H-9.806V-.861h-.023A1.955,1.955,0,0,1-11.616.146a1.869,1.869,0,0,1-1.374-.5,1.774,1.774,0,0,1-.5-1.321q0-1.746,2.068-2.016L-9.794-3.9q0-.984-1.066-.984a3.64,3.64,0,0,0-2.039.639V-5.643a4.587,4.587,0,0,1,1.058-.352,5.56,5.56,0,0,1,1.222-.152A2.266,2.266,0,0,1-8.054-3.586Zm-1.74-2.437v-.4l-1.09.141q-.9.117-.9.814a.673.673,0,0,0,.22.519.844.844,0,0,0,.595.2,1.1,1.1,0,0,0,.85-.36A1.3,1.3,0,0,0-9.794-2.437Zm1.189-6.4-1.834,1.893h-1.336l1.523-1.893ZM2.938,0H1.093V-3.422q0-1.307-.961-1.307a.883.883,0,0,0-.744.393A1.613,1.613,0,0,0-.9-3.357V0H-2.751V-3.457q0-1.271-.943-1.271a.9.9,0,0,0-.759.375,1.65,1.65,0,0,0-.284,1.02V0H-6.589V-6h1.852v.938h.023a2.214,2.214,0,0,1,.806-.782,2.214,2.214,0,0,1,1.134-.3,1.728,1.728,0,0,1,1.74,1.119A2.219,2.219,0,0,1,.981-6.146q1.957,0,1.957,2.414ZM9.4,0H7.644V-.861H7.62A1.955,1.955,0,0,1,5.833.146a1.869,1.869,0,0,1-1.374-.5,1.774,1.774,0,0,1-.5-1.321q0-1.746,2.068-2.016L7.655-3.9q0-.984-1.066-.984a3.64,3.64,0,0,0-2.039.639V-5.643a4.587,4.587,0,0,1,1.058-.352,5.56,5.56,0,0,1,1.222-.152A2.266,2.266,0,0,1,9.4-3.586ZM7.655-2.437v-.4L6.565-2.7q-.9.117-.9.814a.673.673,0,0,0,.22.519.844.844,0,0,0,.595.2,1.1,1.1,0,0,0,.85-.36A1.3,1.3,0,0,0,7.655-2.437ZM14.774-4.33A1.606,1.606,0,0,0,14-4.512a1.123,1.123,0,0,0-.943.442,1.93,1.93,0,0,0-.34,1.2V0H10.86V-6h1.852v1.113h.023a1.6,1.6,0,0,1,1.582-1.219,1.192,1.192,0,0,1,.457.07ZM20.628,0H18.876V-.861h-.023A1.955,1.955,0,0,1,17.065.146a1.869,1.869,0,0,1-1.374-.5,1.774,1.774,0,0,1-.5-1.321q0-1.746,2.068-2.016L18.888-3.9q0-.984-1.066-.984a3.64,3.64,0,0,0-2.039.639V-5.643a4.587,4.587,0,0,1,1.058-.352,5.56,5.56,0,0,1,1.222-.152,2.266,2.266,0,0,1,2.566,2.561Zm-1.74-2.437v-.4L17.8-2.7q-.9.117-.9.814a.673.673,0,0,0,.22.519.844.844,0,0,0,.595.2,1.1,1.1,0,0,0,.85-.36A1.3,1.3,0,0,0,18.888-2.437Z" transform="translate(1127 2331)" fill="#12263f"/>
    <path id="Trazado_773079" data-name="Trazado 773079" d="M-17.965-6.861h-2.4V0h-1.9V-6.861h-2.385V-8.4h6.68ZM-12.7-2.473h-3.914q.094,1.307,1.646,1.307a3.214,3.214,0,0,0,1.74-.469V-.3a4.572,4.572,0,0,1-2.162.445,3.044,3.044,0,0,1-2.256-.806,3.044,3.044,0,0,1-.8-2.247,3.211,3.211,0,0,1,.867-2.367,2.889,2.889,0,0,1,2.133-.873,2.622,2.622,0,0,1,2.03.779A3,3,0,0,1-12.7-3.252ZM-14.42-3.609q0-1.289-1.043-1.289a1,1,0,0,0-.771.369,1.675,1.675,0,0,0-.4.92ZM-9.75,0H-11.6V-8.883H-9.75ZM-2.8-2.473H-6.715q.094,1.307,1.646,1.307a3.214,3.214,0,0,0,1.74-.469V-.3A4.572,4.572,0,0,1-5.49.146,3.044,3.044,0,0,1-7.746-.659a3.044,3.044,0,0,1-.8-2.247,3.211,3.211,0,0,1,.867-2.367,2.889,2.889,0,0,1,2.133-.873,2.622,2.622,0,0,1,2.03.779A3,3,0,0,1-2.8-3.252ZM-4.518-3.609q0-1.289-1.043-1.289a1,1,0,0,0-.771.369,1.675,1.675,0,0,0-.4.92ZM4.014-6,1.781,0H-.328L-2.455-6h1.98L.568-2.3A5.4,5.4,0,0,1,.773-1.236H.8a6.052,6.052,0,0,1,.217-1.031L2.08-6Zm1.729-.949a1.081,1.081,0,0,1-.768-.278.9.9,0,0,1-.3-.683.865.865,0,0,1,.3-.68,1.117,1.117,0,0,1,.768-.264,1.115,1.115,0,0,1,.771.264.869.869,0,0,1,.3.68.893.893,0,0,1-.3.691A1.1,1.1,0,0,1,5.742-6.949ZM6.656,0H4.8V-6H6.656ZM7.822-.158v-1.5a3.942,3.942,0,0,0,.911.41,3.021,3.021,0,0,0,.858.135,1.841,1.841,0,0,0,.776-.135.435.435,0,0,0,.284-.41.379.379,0,0,0-.129-.293,1.2,1.2,0,0,0-.331-.205,3.757,3.757,0,0,0-.442-.158q-.24-.07-.463-.158a4.435,4.435,0,0,1-.63-.29,1.821,1.821,0,0,1-.457-.36A1.416,1.416,0,0,1,7.919-3.6a1.894,1.894,0,0,1-.1-.639,1.644,1.644,0,0,1,.22-.867A1.8,1.8,0,0,1,8.628-5.7a2.677,2.677,0,0,1,.838-.34,4.369,4.369,0,0,1,.981-.108,5.446,5.446,0,0,1,.809.062,6.035,6.035,0,0,1,.809.179v1.43a2.922,2.922,0,0,0-.753-.308,3.176,3.176,0,0,0-.788-.1,1.746,1.746,0,0,0-.343.032,1.129,1.129,0,0,0-.284.094A.522.522,0,0,0,9.7-4.6a.364.364,0,0,0-.07.22.406.406,0,0,0,.105.281.916.916,0,0,0,.275.2,2.719,2.719,0,0,0,.378.152q.208.067.413.138a5.371,5.371,0,0,1,.668.281,2.136,2.136,0,0,1,.513.357,1.4,1.4,0,0,1,.328.48,1.708,1.708,0,0,1,.114.656,1.712,1.712,0,0,1-.231.911,1.853,1.853,0,0,1-.615.615A2.79,2.79,0,0,1,10.7.038a4.9,4.9,0,0,1-1.04.108A5.362,5.362,0,0,1,7.822-.158Zm8.531.3A3.225,3.225,0,0,1,14-.694a3.048,3.048,0,0,1-.858-2.282,3.048,3.048,0,0,1,.891-2.329,3.365,3.365,0,0,1,2.408-.841,3.186,3.186,0,0,1,2.344.841,2.989,2.989,0,0,1,.85,2.224,3.173,3.173,0,0,1-.876,2.361A3.261,3.261,0,0,1,16.354.146ZM16.4-4.729a1.235,1.235,0,0,0-1.02.451A1.99,1.99,0,0,0,15.018-3q0,1.729,1.395,1.729,1.33,0,1.33-1.775Q17.742-4.729,16.4-4.729Zm8.344.4a1.606,1.606,0,0,0-.779-.182,1.123,1.123,0,0,0-.943.442,1.93,1.93,0,0,0-.34,1.2V0H20.83V-6h1.852v1.113h.023a1.6,1.6,0,0,1,1.582-1.219,1.192,1.192,0,0,1,.457.07ZM-27.794,12h-1.893V3.6h1.893Zm7.523,0h-1.846V8.666q0-1.395-1-1.395a.988.988,0,0,0-.791.369,1.406,1.406,0,0,0-.311.938V12h-1.852V6h1.852v.949h.023a2.122,2.122,0,0,1,1.928-1.1q1.992,0,1.992,2.473Zm5.092-.07a2.737,2.737,0,0,1-1.236.217q-1.957,0-1.957-2.033V7.365h-.973V6h.973V4.705l1.846-.527V6h1.348V7.365h-1.348V9.791q0,.938.744.938a1.255,1.255,0,0,0,.6-.17Zm6.387-2.4h-3.914q.094,1.307,1.646,1.307a3.214,3.214,0,0,0,1.74-.469V11.7a4.572,4.572,0,0,1-2.162.445,3.044,3.044,0,0,1-2.256-.806,3.044,3.044,0,0,1-.8-2.247,3.211,3.211,0,0,1,.867-2.367,2.889,2.889,0,0,1,2.133-.873,2.622,2.622,0,0,1,2.03.779,3,3,0,0,1,.718,2.115Zm-1.717-1.137q0-1.289-1.043-1.289a1,1,0,0,0-.771.369,1.675,1.675,0,0,0-.4.92ZM-5.839,12H-7.69V3.117h1.852Zm2.5-6.949a1.081,1.081,0,0,1-.768-.278.9.9,0,0,1-.3-.683.865.865,0,0,1,.3-.68,1.117,1.117,0,0,1,.768-.264,1.115,1.115,0,0,1,.771.264.869.869,0,0,1,.3.68.893.893,0,0,1-.3.691A1.1,1.1,0,0,1-3.343,5.051ZM-2.429,12H-4.28V6h1.852Zm7.441-.686A3.4,3.4,0,0,1,4.046,13.9a3.918,3.918,0,0,1-2.8.917,4.44,4.44,0,0,1-1.922-.346V12.914a3.68,3.68,0,0,0,1.869.539,2.013,2.013,0,0,0,1.453-.5,1.777,1.777,0,0,0,.516-1.345v-.475H3.138a2.068,2.068,0,0,1-1.869,1.008,2.248,2.248,0,0,1-1.822-.809A3.279,3.279,0,0,1-1.228,9.17a3.652,3.652,0,0,1,.75-2.42,2.449,2.449,0,0,1,1.975-.9A1.822,1.822,0,0,1,3.138,6.7h.023V6H5.013Zm-1.828-2.2V8.643a1.458,1.458,0,0,0-.337-.97,1.09,1.09,0,0,0-.876-.4A1.133,1.133,0,0,0,1,7.752,2.259,2.259,0,0,0,.653,9.105a1.907,1.907,0,0,0,.334,1.187,1.088,1.088,0,0,0,.914.437,1.133,1.133,0,0,0,.929-.442A1.814,1.814,0,0,0,3.185,9.117Zm8.766.41H8.036q.094,1.307,1.646,1.307a3.214,3.214,0,0,0,1.74-.469V11.7a4.572,4.572,0,0,1-2.162.445A3.044,3.044,0,0,1,7,11.341a3.044,3.044,0,0,1-.8-2.247,3.211,3.211,0,0,1,.867-2.367A2.889,2.889,0,0,1,9.2,5.854a2.622,2.622,0,0,1,2.03.779,3,3,0,0,1,.718,2.115ZM10.233,8.391Q10.233,7.1,9.19,7.1a1,1,0,0,0-.771.369,1.675,1.675,0,0,0-.4.92ZM18.847,12H17V8.666q0-1.395-1-1.395a.988.988,0,0,0-.791.369,1.406,1.406,0,0,0-.311.938V12H13.052V6H14.9v.949h.023a2.122,2.122,0,0,1,1.928-1.1q1.992,0,1.992,2.473Zm5.092-.07a2.737,2.737,0,0,1-1.236.217q-1.957,0-1.957-2.033V7.365h-.973V6h.973V4.705l1.846-.527V6h1.348V7.365H22.591V9.791q0,.938.744.938a1.255,1.255,0,0,0,.6-.17Zm6.387-2.4H26.411q.094,1.307,1.646,1.307a3.214,3.214,0,0,0,1.74-.469V11.7a4.572,4.572,0,0,1-2.162.445,3.044,3.044,0,0,1-2.256-.806,3.044,3.044,0,0,1-.8-2.247,3.211,3.211,0,0,1,.867-2.367,2.889,2.889,0,0,1,2.133-.873,2.622,2.622,0,0,1,2.03.779,3,3,0,0,1,.718,2.115ZM28.608,8.391q0-1.289-1.043-1.289a1,1,0,0,0-.771.369,1.675,1.675,0,0,0-.4.92Z" transform="translate(1241 2331)" fill="#12263f"/>
    <path id="Trazado_773070" data-name="Trazado 773070" d="M-17.578-6.861h-2.4V0h-1.9V-6.861h-2.385V-8.4h6.68Zm5.262,4.389H-16.23q.094,1.307,1.646,1.307a3.214,3.214,0,0,0,1.74-.469V-.3a4.572,4.572,0,0,1-2.162.445,3.044,3.044,0,0,1-2.256-.806,3.044,3.044,0,0,1-.8-2.247A3.211,3.211,0,0,1-17.2-5.273a2.889,2.889,0,0,1,2.133-.873,2.622,2.622,0,0,1,2.03.779,3,3,0,0,1,.718,2.115Zm-1.717-1.137q0-1.289-1.043-1.289a1,1,0,0,0-.771.369,1.675,1.675,0,0,0-.4.92ZM-9.363,0h-1.852V-8.883h1.852Zm6.949-2.473H-6.328q.094,1.307,1.646,1.307a3.214,3.214,0,0,0,1.74-.469V-.3A4.572,4.572,0,0,1-5.1.146,3.044,3.044,0,0,1-7.359-.659a3.044,3.044,0,0,1-.8-2.247,3.211,3.211,0,0,1,.867-2.367,2.889,2.889,0,0,1,2.133-.873,2.622,2.622,0,0,1,2.03.779,3,3,0,0,1,.718,2.115ZM-4.131-3.609q0-1.289-1.043-1.289a1,1,0,0,0-.771.369,1.675,1.675,0,0,0-.4.92Zm.943-5.232L-5.021-6.949H-6.357l1.523-1.893ZM2.6-7.465a1.87,1.87,0,0,0-.686-.141q-.891,0-.891.967V-6H2.4v1.365H1.025V0H-.82V-4.635H-1.828V-6H-.82v-.744A2.16,2.16,0,0,1-.152-8.4a2.548,2.548,0,0,1,1.816-.627,3.19,3.19,0,0,1,.938.117ZM6.146.146A3.225,3.225,0,0,1,3.788-.694,3.048,3.048,0,0,1,2.93-2.977,3.048,3.048,0,0,1,3.82-5.306a3.365,3.365,0,0,1,2.408-.841,3.186,3.186,0,0,1,2.344.841,2.989,2.989,0,0,1,.85,2.224A3.173,3.173,0,0,1,8.546-.721,3.261,3.261,0,0,1,6.146.146Zm.047-4.875a1.235,1.235,0,0,0-1.02.451A1.99,1.99,0,0,0,4.811-3q0,1.729,1.395,1.729,1.33,0,1.33-1.775Q7.535-4.729,6.193-4.729ZM16.418,0H14.572V-3.334q0-1.395-1-1.395a.988.988,0,0,0-.791.369,1.406,1.406,0,0,0-.311.938V0H10.623V-6h1.852v.949H12.5a2.122,2.122,0,0,1,1.928-1.1q1.992,0,1.992,2.473Zm4.324.146a3.225,3.225,0,0,1-2.358-.841,3.048,3.048,0,0,1-.858-2.282,3.048,3.048,0,0,1,.891-2.329,3.365,3.365,0,0,1,2.408-.841,3.186,3.186,0,0,1,2.344.841,2.989,2.989,0,0,1,.85,2.224,3.173,3.173,0,0,1-.876,2.361A3.261,3.261,0,0,1,20.742.146Zm.047-4.875a1.235,1.235,0,0,0-1.02.451A1.99,1.99,0,0,0,19.406-3q0,1.729,1.395,1.729,1.33,0,1.33-1.775Q22.131-4.729,20.789-4.729ZM-13.456,11.783a3.661,3.661,0,0,1-1.811.363,3.062,3.062,0,0,1-2.238-.838,2.894,2.894,0,0,1-.855-2.162,3.188,3.188,0,0,1,.917-2.411,3.389,3.389,0,0,1,2.452-.882,3.146,3.146,0,0,1,1.535.281v1.57a2.111,2.111,0,0,0-1.295-.434,1.706,1.706,0,0,0-1.263.466,1.738,1.738,0,0,0-.466,1.286,1.71,1.71,0,0,0,.445,1.251,1.637,1.637,0,0,0,1.225.454,2.444,2.444,0,0,0,1.354-.434Zm6.6-2.256h-3.914q.094,1.307,1.646,1.307a3.214,3.214,0,0,0,1.74-.469V11.7a4.572,4.572,0,0,1-2.162.445,3.044,3.044,0,0,1-2.256-.806,3.044,3.044,0,0,1-.8-2.247,3.211,3.211,0,0,1,.867-2.367A2.889,2.889,0,0,1-9.6,5.854a2.622,2.622,0,0,1,2.03.779,3,3,0,0,1,.718,2.115ZM-8.569,8.391q0-1.289-1.043-1.289a1,1,0,0,0-.771.369,1.675,1.675,0,0,0-.4.92ZM-3.9,12H-5.751V3.117H-3.9Zm7.26,0H1.515v-.914H1.485A2.094,2.094,0,0,1-.349,12.146q-2.086,0-2.086-2.525V6H-.589V9.457q0,1.271,1.008,1.271a1,1,0,0,0,.8-.349,1.406,1.406,0,0,0,.3-.946V6H3.36Zm3.41,0H4.919V3.117H6.771Zm6.551,0H11.569v-.861h-.023a1.955,1.955,0,0,1-1.787,1.008,1.869,1.869,0,0,1-1.374-.5,1.774,1.774,0,0,1-.5-1.321q0-1.746,2.068-2.016L11.581,8.1q0-.984-1.066-.984a3.64,3.64,0,0,0-2.039.639V6.357a4.587,4.587,0,0,1,1.058-.352,5.56,5.56,0,0,1,1.222-.152,2.266,2.266,0,0,1,2.566,2.561Zm-1.74-2.437v-.4l-1.09.141q-.9.117-.9.814a.673.673,0,0,0,.22.519.844.844,0,0,0,.595.2,1.1,1.1,0,0,0,.85-.36A1.3,1.3,0,0,0,11.581,9.563ZM18.7,7.67a1.606,1.606,0,0,0-.779-.182,1.123,1.123,0,0,0-.943.442,1.93,1.93,0,0,0-.34,1.2V12H14.786V6h1.852V7.113h.023a1.6,1.6,0,0,1,1.582-1.219,1.192,1.192,0,0,1,.457.07Z" transform="translate(1239 2192)" fill="#12263f"/>
    <path id="Trazado_773074" data-name="Trazado 773074" d="M-28.608-.3a5.541,5.541,0,0,1-2.4.445A4.049,4.049,0,0,1-34.052-.99,4.155,4.155,0,0,1-35.159-4.02a4.439,4.439,0,0,1,1.245-3.27,4.355,4.355,0,0,1,3.231-1.254,6.043,6.043,0,0,1,2.074.311V-6.41a3.675,3.675,0,0,0-1.922-.5,2.549,2.549,0,0,0-1.91.744,2.761,2.761,0,0,0-.727,2.016,2.708,2.708,0,0,0,.686,1.942,2.422,2.422,0,0,0,1.846.724,3.937,3.937,0,0,0,2.027-.539Zm4.143.445a3.225,3.225,0,0,1-2.358-.841,3.048,3.048,0,0,1-.858-2.282,3.048,3.048,0,0,1,.891-2.329,3.365,3.365,0,0,1,2.408-.841,3.186,3.186,0,0,1,2.344.841,2.989,2.989,0,0,1,.85,2.224,3.173,3.173,0,0,1-.876,2.361A3.261,3.261,0,0,1-24.466.146Zm.047-4.875a1.235,1.235,0,0,0-1.02.451A1.99,1.99,0,0,0-25.8-3q0,1.729,1.395,1.729,1.33,0,1.33-1.775Q-23.077-4.729-24.419-4.729ZM-10.462,0h-1.846V-3.422q0-1.307-.961-1.307a.883.883,0,0,0-.744.393,1.613,1.613,0,0,0-.287.979V0h-1.852V-3.457q0-1.271-.943-1.271a.9.9,0,0,0-.759.375,1.65,1.65,0,0,0-.284,1.02V0h-1.852V-6h1.852v.938h.023a2.214,2.214,0,0,1,.806-.782,2.214,2.214,0,0,1,1.134-.3,1.728,1.728,0,0,1,1.74,1.119,2.219,2.219,0,0,1,2.016-1.119q1.957,0,1.957,2.414Zm3.34-.7h-.023V2.76H-9V-6h1.852v.9h.023A2.177,2.177,0,0,1-5.194-6.146a2.169,2.169,0,0,1,1.8.8A3.405,3.405,0,0,1-2.757-3.17,3.691,3.691,0,0,1-3.5-.762,2.417,2.417,0,0,1-5.47.146,1.868,1.868,0,0,1-7.122-.7Zm-.053-2.461v.48a1.527,1.527,0,0,0,.328,1.014,1.068,1.068,0,0,0,.861.393A1.135,1.135,0,0,0-5-1.761a2.362,2.362,0,0,0,.349-1.386q0-1.582-1.23-1.582a1.155,1.155,0,0,0-.929.431A1.718,1.718,0,0,0-7.175-3.158ZM4.146,0H2.3V-.914H2.271A2.094,2.094,0,0,1,.437.146q-2.086,0-2.086-2.525V-6H.2v3.457Q.2-1.271,1.2-1.271A1,1,0,0,0,2-1.62a1.406,1.406,0,0,0,.3-.946V-6H4.146ZM9.331-.07A2.737,2.737,0,0,1,8.095.146q-1.957,0-1.957-2.033V-4.635H5.165V-6h.973V-7.295l1.846-.527V-6H9.331v1.365H7.983v2.426q0,.938.744.938a1.255,1.255,0,0,0,.6-.17ZM15.366,0H13.614V-.861h-.023A1.955,1.955,0,0,1,11.8.146a1.869,1.869,0,0,1-1.374-.5,1.774,1.774,0,0,1-.5-1.321q0-1.746,2.068-2.016L13.626-3.9q0-.984-1.066-.984a3.64,3.64,0,0,0-2.039.639V-5.643a4.587,4.587,0,0,1,1.058-.352A5.56,5.56,0,0,1,12.8-6.146a2.266,2.266,0,0,1,2.566,2.561Zm-1.74-2.437v-.4l-1.09.141q-.9.117-.9.814a.673.673,0,0,0,.22.519.844.844,0,0,0,.595.2,1.1,1.1,0,0,0,.85-.36A1.3,1.3,0,0,0,13.626-2.437ZM22.7,0H20.851V-.826h-.023A2.076,2.076,0,0,1,18.97.146a2.275,2.275,0,0,1-1.811-.794,3.287,3.287,0,0,1-.686-2.218,3.577,3.577,0,0,1,.756-2.385,2.465,2.465,0,0,1,1.98-.9,1.685,1.685,0,0,1,1.617.832h.023V-8.883H22.7ZM20.886-2.918v-.451a1.42,1.42,0,0,0-.34-.973,1.122,1.122,0,0,0-.885-.387,1.115,1.115,0,0,0-.961.483,2.245,2.245,0,0,0-.346,1.327A1.942,1.942,0,0,0,18.688-1.7a1.109,1.109,0,0,0,.926.428,1.114,1.114,0,0,0,.917-.451A1.881,1.881,0,0,0,20.886-2.918ZM27.12.146a3.225,3.225,0,0,1-2.358-.841A3.048,3.048,0,0,1,23.9-2.977a3.048,3.048,0,0,1,.891-2.329A3.365,3.365,0,0,1,27.2-6.146a3.186,3.186,0,0,1,2.344.841,2.989,2.989,0,0,1,.85,2.224A3.173,3.173,0,0,1,29.52-.721,3.261,3.261,0,0,1,27.12.146Zm.047-4.875a1.235,1.235,0,0,0-1.02.451A1.99,1.99,0,0,0,25.784-3q0,1.729,1.395,1.729,1.33,0,1.33-1.775Q28.509-4.729,27.167-4.729Zm8.344.4a1.606,1.606,0,0,0-.779-.182,1.123,1.123,0,0,0-.943.442,1.93,1.93,0,0,0-.34,1.2V0H31.6V-6h1.852v1.113h.023a1.6,1.6,0,0,1,1.582-1.219,1.192,1.192,0,0,1,.457.07Z" transform="translate(1013 2192)" fill="#12263f"/>
    <path id="Trazado_773080" data-name="Trazado 773080" d="M-23.915-.3a5.541,5.541,0,0,1-2.4.445A4.049,4.049,0,0,1-29.358-.99,4.155,4.155,0,0,1-30.466-4.02a4.439,4.439,0,0,1,1.245-3.27,4.355,4.355,0,0,1,3.231-1.254,6.043,6.043,0,0,1,2.074.311V-6.41a3.675,3.675,0,0,0-1.922-.5,2.549,2.549,0,0,0-1.91.744,2.761,2.761,0,0,0-.727,2.016,2.708,2.708,0,0,0,.686,1.942,2.422,2.422,0,0,0,1.846.724,3.937,3.937,0,0,0,2.027-.539Zm4.143.445a3.225,3.225,0,0,1-2.358-.841,3.048,3.048,0,0,1-.858-2.282A3.048,3.048,0,0,1-22.1-5.306a3.365,3.365,0,0,1,2.408-.841,3.186,3.186,0,0,1,2.344.841,2.989,2.989,0,0,1,.85,2.224,3.173,3.173,0,0,1-.876,2.361A3.261,3.261,0,0,1-19.772.146Zm.047-4.875a1.235,1.235,0,0,0-1.02.451A1.99,1.99,0,0,0-21.108-3q0,1.729,1.395,1.729,1.33,0,1.33-1.775Q-18.384-4.729-19.726-4.729ZM-9.5,0h-1.846V-3.334q0-1.395-1-1.395a.988.988,0,0,0-.791.369,1.406,1.406,0,0,0-.311.938V0H-15.3V-6h1.852v.949h.023a2.122,2.122,0,0,1,1.928-1.1q1.992,0,1.992,2.473Zm1.072-.158v-1.5a3.942,3.942,0,0,0,.911.41,3.021,3.021,0,0,0,.858.135,1.841,1.841,0,0,0,.776-.135.435.435,0,0,0,.284-.41.379.379,0,0,0-.129-.293,1.2,1.2,0,0,0-.331-.205A3.757,3.757,0,0,0-6.5-2.314q-.24-.07-.463-.158a4.435,4.435,0,0,1-.63-.29,1.821,1.821,0,0,1-.457-.36A1.416,1.416,0,0,1-8.332-3.6a1.894,1.894,0,0,1-.1-.639,1.644,1.644,0,0,1,.22-.867A1.8,1.8,0,0,1-7.623-5.7a2.677,2.677,0,0,1,.838-.34A4.369,4.369,0,0,1-5.8-6.146,5.446,5.446,0,0,1-5-6.085a6.035,6.035,0,0,1,.809.179v1.43a2.922,2.922,0,0,0-.753-.308,3.176,3.176,0,0,0-.788-.1,1.746,1.746,0,0,0-.343.032,1.129,1.129,0,0,0-.284.094.522.522,0,0,0-.193.158.364.364,0,0,0-.07.22.406.406,0,0,0,.105.281.916.916,0,0,0,.275.2,2.719,2.719,0,0,0,.378.152q.208.067.413.138a5.371,5.371,0,0,1,.668.281,2.136,2.136,0,0,1,.513.357,1.4,1.4,0,0,1,.328.48,1.708,1.708,0,0,1,.114.656,1.712,1.712,0,0,1-.231.911,1.853,1.853,0,0,1-.615.615,2.79,2.79,0,0,1-.885.346,4.9,4.9,0,0,1-1.04.108A5.362,5.362,0,0,1-8.429-.158ZM.1.146A3.225,3.225,0,0,1-2.256-.694a3.048,3.048,0,0,1-.858-2.282,3.048,3.048,0,0,1,.891-2.329A3.365,3.365,0,0,1,.185-6.146a3.186,3.186,0,0,1,2.344.841,2.989,2.989,0,0,1,.85,2.224A3.173,3.173,0,0,1,2.5-.721,3.261,3.261,0,0,1,.1.146ZM.149-4.729a1.235,1.235,0,0,0-1.02.451A1.99,1.99,0,0,0-1.233-3q0,1.729,1.395,1.729,1.33,0,1.33-1.775Q1.491-4.729.149-4.729ZM6.431,0H4.579V-8.883H6.431Zm6.551,0H11.229V-.861h-.023A1.955,1.955,0,0,1,9.419.146a1.869,1.869,0,0,1-1.374-.5,1.774,1.774,0,0,1-.5-1.321q0-1.746,2.068-2.016L11.241-3.9q0-.984-1.066-.984a3.64,3.64,0,0,0-2.039.639V-5.643a4.587,4.587,0,0,1,1.058-.352,5.56,5.56,0,0,1,1.222-.152,2.266,2.266,0,0,1,2.566,2.561Zm-1.74-2.437v-.4l-1.09.141q-.9.117-.9.814a.673.673,0,0,0,.22.519.844.844,0,0,0,.595.2,1.1,1.1,0,0,0,.85-.36A1.3,1.3,0,0,0,11.241-2.437ZM23.628,0H21.776V-.826h-.023A2.076,2.076,0,0,1,19.9.146a2.275,2.275,0,0,1-1.811-.794A3.287,3.287,0,0,1,17.4-2.865a3.577,3.577,0,0,1,.756-2.385,2.465,2.465,0,0,1,1.98-.9,1.685,1.685,0,0,1,1.617.832h.023V-8.883h1.852ZM21.812-2.918v-.451a1.42,1.42,0,0,0-.34-.973,1.122,1.122,0,0,0-.885-.387,1.115,1.115,0,0,0-.961.483,2.245,2.245,0,0,0-.346,1.327A1.942,1.942,0,0,0,19.614-1.7a1.109,1.109,0,0,0,.926.428,1.114,1.114,0,0,0,.917-.451A1.881,1.881,0,0,0,21.812-2.918Zm8.766.445H26.663q.094,1.307,1.646,1.307a3.214,3.214,0,0,0,1.74-.469V-.3a4.572,4.572,0,0,1-2.162.445,3.044,3.044,0,0,1-2.256-.806,3.044,3.044,0,0,1-.8-2.247A3.211,3.211,0,0,1,25.7-5.273a2.889,2.889,0,0,1,2.133-.873,2.622,2.622,0,0,1,2.03.779,3,3,0,0,1,.718,2.115ZM28.86-3.609q0-1.289-1.043-1.289a1,1,0,0,0-.771.369,1.675,1.675,0,0,0-.4.92ZM-27.686,6l-2.232,6h-2.109l-2.127-6h1.98l1.043,3.7a5.4,5.4,0,0,1,.205,1.066h.023a6.052,6.052,0,0,1,.217-1.031L-29.619,6Zm1.729-.949a1.081,1.081,0,0,1-.768-.278.9.9,0,0,1-.3-.683.865.865,0,0,1,.3-.68,1.117,1.117,0,0,1,.768-.264,1.115,1.115,0,0,1,.771.264.869.869,0,0,1,.3.68.893.893,0,0,1-.3.691A1.1,1.1,0,0,1-25.957,5.051ZM-25.043,12h-1.852V6h1.852Zm7.43,0h-1.852v-.826h-.023a2.076,2.076,0,0,1-1.857.973,2.275,2.275,0,0,1-1.811-.794,3.287,3.287,0,0,1-.686-2.218,3.577,3.577,0,0,1,.756-2.385,2.465,2.465,0,0,1,1.98-.9,1.685,1.685,0,0,1,1.617.832h.023V3.117h1.852ZM-19.43,9.082V8.631a1.42,1.42,0,0,0-.34-.973,1.122,1.122,0,0,0-.885-.387,1.115,1.115,0,0,0-.961.483,2.245,2.245,0,0,0-.346,1.327,1.942,1.942,0,0,0,.334,1.219,1.109,1.109,0,0,0,.926.428,1.114,1.114,0,0,0,.917-.451A1.881,1.881,0,0,0-19.43,9.082Zm8.766.445h-3.914q.094,1.307,1.646,1.307a3.214,3.214,0,0,0,1.74-.469V11.7a4.572,4.572,0,0,1-2.162.445,3.044,3.044,0,0,1-2.256-.806,3.044,3.044,0,0,1-.8-2.247,3.211,3.211,0,0,1,.867-2.367,2.889,2.889,0,0,1,2.133-.873,2.622,2.622,0,0,1,2.03.779,3,3,0,0,1,.718,2.115Zm-1.717-1.137q0-1.289-1.043-1.289a1,1,0,0,0-.771.369,1.675,1.675,0,0,0-.4.92ZM-6.7,12.146a3.225,3.225,0,0,1-2.358-.841A3.048,3.048,0,0,1-9.92,9.023a3.048,3.048,0,0,1,.891-2.329,3.365,3.365,0,0,1,2.408-.841,3.186,3.186,0,0,1,2.344.841,2.989,2.989,0,0,1,.85,2.224A3.173,3.173,0,0,1-4.3,11.279,3.261,3.261,0,0,1-6.7,12.146Zm.047-4.875a1.235,1.235,0,0,0-1.02.451A1.99,1.99,0,0,0-8.039,9q0,1.729,1.395,1.729,1.33,0,1.33-1.775Q-5.314,7.271-6.656,7.271Zm5.344-2.221a1.081,1.081,0,0,1-.768-.278.9.9,0,0,1-.3-.683.865.865,0,0,1,.3-.68,1.117,1.117,0,0,1,.768-.264,1.115,1.115,0,0,1,.771.264.869.869,0,0,1,.3.68.893.893,0,0,1-.3.691A1.1,1.1,0,0,1-1.312,5.051ZM-.4,11.895a3.262,3.262,0,0,1-.65,2.127,2.281,2.281,0,0,1-1.875.8,2.593,2.593,0,0,1-.885-.176V13.189a1.442,1.442,0,0,0,.686.217q.873,0,.873-1.371V6H-.4ZM6.861,12H5.016v-.914H4.986a2.094,2.094,0,0,1-1.834,1.061q-2.086,0-2.086-2.525V6H2.912V9.457q0,1.271,1.008,1.271a1,1,0,0,0,.8-.349,1.406,1.406,0,0,0,.3-.946V6H6.861Zm6.949-2.473H9.9q.094,1.307,1.646,1.307a3.214,3.214,0,0,0,1.74-.469V11.7a4.572,4.572,0,0,1-2.162.445,3.044,3.044,0,0,1-2.256-.806,3.044,3.044,0,0,1-.8-2.247A3.211,3.211,0,0,1,8.93,6.727a2.889,2.889,0,0,1,2.133-.873,2.622,2.622,0,0,1,2.03.779,3,3,0,0,1,.718,2.115ZM12.094,8.391q0-1.289-1.043-1.289a1,1,0,0,0-.771.369,1.675,1.675,0,0,0-.4.92Zm8.7,2.924a3.4,3.4,0,0,1-.967,2.587,3.918,3.918,0,0,1-2.8.917,4.44,4.44,0,0,1-1.922-.346V12.914a3.68,3.68,0,0,0,1.869.539,2.013,2.013,0,0,0,1.453-.5,1.777,1.777,0,0,0,.516-1.345v-.475H18.92a2.068,2.068,0,0,1-1.869,1.008,2.248,2.248,0,0,1-1.822-.809,3.279,3.279,0,0,1-.674-2.168,3.652,3.652,0,0,1,.75-2.42,2.449,2.449,0,0,1,1.975-.9A1.822,1.822,0,0,1,18.92,6.7h.023V6h1.852Zm-1.828-2.2V8.643a1.458,1.458,0,0,0-.337-.97,1.09,1.09,0,0,0-.876-.4,1.133,1.133,0,0,0-.967.48,2.259,2.259,0,0,0-.352,1.354,1.907,1.907,0,0,0,.334,1.187,1.088,1.088,0,0,0,.914.437,1.133,1.133,0,0,0,.929-.442A1.814,1.814,0,0,0,18.967,9.117ZM25.2,12.146a3.225,3.225,0,0,1-2.358-.841,3.048,3.048,0,0,1-.858-2.282,3.048,3.048,0,0,1,.891-2.329,3.365,3.365,0,0,1,2.408-.841,3.186,3.186,0,0,1,2.344.841,2.989,2.989,0,0,1,.85,2.224,3.173,3.173,0,0,1-.876,2.361A3.261,3.261,0,0,1,25.2,12.146Zm.047-4.875a1.235,1.235,0,0,0-1.02.451A1.99,1.99,0,0,0,23.865,9q0,1.729,1.395,1.729,1.33,0,1.33-1.775Q26.59,7.271,25.248,7.271Zm4.037,4.57v-1.5a3.942,3.942,0,0,0,.911.41,3.021,3.021,0,0,0,.858.135,1.841,1.841,0,0,0,.776-.135.435.435,0,0,0,.284-.41.379.379,0,0,0-.129-.293,1.2,1.2,0,0,0-.331-.205,3.757,3.757,0,0,0-.442-.158q-.24-.07-.463-.158a4.435,4.435,0,0,1-.63-.29,1.821,1.821,0,0,1-.457-.36,1.416,1.416,0,0,1-.281-.475,1.894,1.894,0,0,1-.1-.639A1.644,1.644,0,0,1,29.5,6.9a1.8,1.8,0,0,1,.586-.595,2.677,2.677,0,0,1,.838-.34,4.369,4.369,0,0,1,.981-.108,5.446,5.446,0,0,1,.809.062,6.035,6.035,0,0,1,.809.179v1.43a2.922,2.922,0,0,0-.753-.308,3.176,3.176,0,0,0-.788-.1,1.746,1.746,0,0,0-.343.032,1.129,1.129,0,0,0-.284.094.522.522,0,0,0-.193.158.364.364,0,0,0-.07.22A.406.406,0,0,0,31.2,7.9a.916.916,0,0,0,.275.2,2.719,2.719,0,0,0,.378.152q.208.067.413.138a5.371,5.371,0,0,1,.668.281,2.136,2.136,0,0,1,.513.357,1.4,1.4,0,0,1,.328.48,1.922,1.922,0,0,1-.117,1.567,1.853,1.853,0,0,1-.615.615,2.79,2.79,0,0,1-.885.346,4.9,4.9,0,0,1-1.04.108A5.362,5.362,0,0,1,29.285,11.842Z" transform="translate(879 2192)" fill="#12263f"/>
    <path id="Trazado_773073" data-name="Trazado 773073" d="M-10.274-6.861h-2.367L-14.095,0H-16l1.447-6.861h-2.4l.334-1.541H-9.94ZM-4.749-1.98q-.041.182-.079.439T-4.9-1q-.032.278-.053.545T-4.972,0H-6.847q0-.088.009-.226t.021-.281q.012-.144.026-.281t.026-.231h-.023q-.17.229-.352.439a2.351,2.351,0,0,1-.4.372,1.953,1.953,0,0,1-.5.258,1.88,1.88,0,0,1-.63.1,1.847,1.847,0,0,1-.782-.158,1.549,1.549,0,0,1-.577-.457,2.1,2.1,0,0,1-.357-.729,3.553,3.553,0,0,1-.123-.976,4.594,4.594,0,0,1,.062-.677,4.44,4.44,0,0,1,.223-.844,4.248,4.248,0,0,1,.448-.879,3.325,3.325,0,0,1,.735-.788A3.648,3.648,0,0,1-7.957-5.93a4.647,4.647,0,0,1,1.5-.217q.334,0,.671.026t.662.07q.325.044.63.1t.568.117Zm-1.26-2.807a2.43,2.43,0,0,0-.3-.044q-.164-.015-.311-.015a1.739,1.739,0,0,0-.709.135,1.819,1.819,0,0,0-.53.352,2.065,2.065,0,0,0-.378.492,3.113,3.113,0,0,0-.243.56,3.368,3.368,0,0,0-.129.554,3.442,3.442,0,0,0-.038.475,1.731,1.731,0,0,0,.044.4.931.931,0,0,0,.138.319.682.682,0,0,0,.231.211.649.649,0,0,0,.319.076.973.973,0,0,0,.595-.193,1.892,1.892,0,0,0,.457-.5,3.134,3.134,0,0,0,.328-.68,6.646,6.646,0,0,0,.214-.747ZM3-3.9a5,5,0,0,1-.07.788,4.467,4.467,0,0,1-.243.888,4.169,4.169,0,0,1-.466.876,3.294,3.294,0,0,1-.735.759A3.624,3.624,0,0,1,.437-.056a4.507,4.507,0,0,1-1.418.2A5.5,5.5,0,0,1-1.67.1a5.5,5.5,0,0,1-.68-.129,5.374,5.374,0,0,1-.636-.205A3.445,3.445,0,0,1-3.536-.5l1.775-8.379H.108L-.454-6.24q-.023.123-.062.281l-.076.316-.073.3Q-.7-5.2-.729-5.1h.047A3.812,3.812,0,0,1-.319-5.52a2.254,2.254,0,0,1,.425-.334,2.015,2.015,0,0,1,.5-.217,2.148,2.148,0,0,1,.586-.076,1.847,1.847,0,0,1,.729.141,1.53,1.53,0,0,1,.571.422,2.01,2.01,0,0,1,.375.7A3.22,3.22,0,0,1,3-3.9ZM1.146-3.7A1.33,1.33,0,0,0,.958-4.45a.681.681,0,0,0-.609-.278.92.92,0,0,0-.524.164,1.757,1.757,0,0,0-.439.437A3.108,3.108,0,0,0-.958-3.5a4.2,4.2,0,0,0-.229.732L-1.5-1.307A1.424,1.424,0,0,0-1.16-1.2a2.137,2.137,0,0,0,.442.044,1.379,1.379,0,0,0,.551-.108,1.634,1.634,0,0,0,.46-.3A2.169,2.169,0,0,0,.659-2a2.956,2.956,0,0,0,.267-.533,3.358,3.358,0,0,0,.164-.583A3.166,3.166,0,0,0,1.146-3.7ZM6.5-.053q-.105.029-.243.059T5.959.062Q5.8.088,5.637.1T5.306.117a1.946,1.946,0,0,1-.671-.1,1.231,1.231,0,0,1-.46-.287,1.124,1.124,0,0,1-.267-.439,1.761,1.761,0,0,1-.085-.56q0-.129.015-.287t.038-.331q.023-.173.056-.352T4-2.584q.018-.076.079-.372t.155-.729q.094-.434.205-.964T4.67-5.733q.12-.554.231-1.084t.205-.964q.094-.434.155-.729t.079-.372H7.216L5.886-2.625q-.047.205-.1.46a2.226,2.226,0,0,0-.053.442.337.337,0,0,0,.141.311.6.6,0,0,0,.322.088A1.511,1.511,0,0,0,6.5-1.356a1.619,1.619,0,0,0,.284-.085q-.076.352-.146.694T6.5-.053Zm6.832-4.4a1.85,1.85,0,0,1-.2.85,1.7,1.7,0,0,1-.656.668,3.907,3.907,0,0,1-1.222.442,10.141,10.141,0,0,1-1.9.179.2.2,0,0,0-.012.062V-2.2a1.177,1.177,0,0,0,.059.363.829.829,0,0,0,.2.328,1.052,1.052,0,0,0,.378.237,1.634,1.634,0,0,0,.586.091,3.058,3.058,0,0,0,.46-.038,4.152,4.152,0,0,0,.507-.111,5.128,5.128,0,0,0,.513-.176,3.915,3.915,0,0,0,.472-.226L12.231-.346a3.886,3.886,0,0,1-.416.182,5.01,5.01,0,0,1-.507.158,4.929,4.929,0,0,1-.58.111,4.762,4.762,0,0,1-.63.041,3.071,3.071,0,0,1-1.166-.2,2.225,2.225,0,0,1-.8-.536,2.088,2.088,0,0,1-.46-.788,3.093,3.093,0,0,1-.146-.961A4.184,4.184,0,0,1,7.781-3.8,3.691,3.691,0,0,1,8.508-5.01a3.487,3.487,0,0,1,1.137-.829,3.5,3.5,0,0,1,1.485-.308,3.168,3.168,0,0,1,1.008.141,1.922,1.922,0,0,1,.68.378,1.462,1.462,0,0,1,.387.542A1.675,1.675,0,0,1,13.327-4.453Zm-1.764.023a.462.462,0,0,0-.161-.36.66.66,0,0,0-.454-.144,1.152,1.152,0,0,0-.5.111,1.53,1.53,0,0,0-.434.308,1.868,1.868,0,0,0-.337.469,2.424,2.424,0,0,0-.211.589,3.664,3.664,0,0,0,1.573-.24A.792.792,0,0,0,11.563-4.43Zm6.393-.205h-1.4l-.48,2.244q-.012.076-.029.164t-.032.176q-.015.088-.026.167a.929.929,0,0,0-.012.132.457.457,0,0,0,.117.346.551.551,0,0,0,.387.111,1.159,1.159,0,0,0,.179-.018q.108-.018.223-.047t.22-.062q.105-.032.17-.056L16.983-.105a2.559,2.559,0,0,1-.258.082q-.152.041-.334.076t-.378.059a3.236,3.236,0,0,1-.384.023,2.1,2.1,0,0,1-.744-.114A1.19,1.19,0,0,1,14.408-.3a1.161,1.161,0,0,1-.252-.472,2.229,2.229,0,0,1-.073-.586q0-.094.012-.217t.032-.252q.021-.129.047-.261t.05-.243l.48-2.309h-.926L14.106-6h.885l.3-1.406,1.951-.48L16.854-6h1.424Z" transform="translate(1127 2192)" fill="#12263f"/>
    <path id="Trazado_773071" data-name="Trazado 773071" d="M-13.77-6.457q-.182-.111-.4-.22a3.614,3.614,0,0,0-.469-.19A4.2,4.2,0,0,0-15.164-7a3.048,3.048,0,0,0-.574-.053,1.529,1.529,0,0,0-.562.091,1.06,1.06,0,0,0-.363.226.821.821,0,0,0-.193.29.825.825,0,0,0-.059.29.986.986,0,0,0,.062.354,1.022,1.022,0,0,0,.193.311,2.126,2.126,0,0,0,.346.3q.214.155.519.343a6.812,6.812,0,0,1,.706.5,3.137,3.137,0,0,1,.524.533,2.116,2.116,0,0,1,.328.618,2.364,2.364,0,0,1,.111.75,2.787,2.787,0,0,1-.056.527,2.5,2.5,0,0,1-.19.577,2.344,2.344,0,0,1-.372.56,2.323,2.323,0,0,1-.595.475A3.378,3.378,0,0,1-16.2.021a4.826,4.826,0,0,1-1.169.126A5.238,5.238,0,0,1-18.1.1a5.71,5.71,0,0,1-.674-.135,5.92,5.92,0,0,1-.595-.19,4.478,4.478,0,0,1-.486-.217l.322-1.664a4.427,4.427,0,0,0,.472.3,4.136,4.136,0,0,0,.533.246,3.557,3.557,0,0,0,.577.164,3.129,3.129,0,0,0,.6.059,1.922,1.922,0,0,0,.568-.073,1.036,1.036,0,0,0,.381-.2.749.749,0,0,0,.211-.3,1.016,1.016,0,0,0,.064-.363.94.94,0,0,0-.062-.349.91.91,0,0,0-.2-.3,2.376,2.376,0,0,0-.372-.3q-.231-.155-.565-.349A4.877,4.877,0,0,1-17.971-4a2.732,2.732,0,0,1-.5-.516,2.264,2.264,0,0,1-.328-.633,2.427,2.427,0,0,1-.117-.776,2.623,2.623,0,0,1,.182-.955,2.3,2.3,0,0,1,.568-.838,2.87,2.87,0,0,1,.987-.595,4.077,4.077,0,0,1,1.433-.226,5.69,5.69,0,0,1,.668.038q.322.038.615.1t.551.146q.258.082.469.17ZM-4.758,0h-1.7l1.066-5.027q.176-.8.457-1.8H-4.98q-.082.188-.173.375t-.179.354q-.088.167-.164.3t-.135.214L-7.881-2.52H-9.205l-.873-3.006a1.7,1.7,0,0,1-.056-.278,2.882,2.882,0,0,1-.026-.4v-.627h-.053q-.082.551-.161,1.014t-.144.779L-11.59,0h-1.705l1.787-8.4h2.25L-8.4-5.484q.041.141.076.3t.059.322q.023.161.035.311t.012.267h.029q.064-.129.138-.29T-7.9-4.9q.079-.167.167-.322A2.542,2.542,0,0,1-7.553-5.5L-5.408-8.4h2.438ZM2.631,0l-.24-1.869H-.621L-1.605,0H-3.738L1.107-8.4H3.363L4.564,0ZM1.945-6.158q-.006-.094-.009-.208t0-.22q0-.105.009-.19T1.957-6.9H1.922a1.182,1.182,0,0,1-.041.135q-.029.082-.067.179t-.088.2q-.05.105-.1.205L.088-3.322H2.25Zm11-.105a2.328,2.328,0,0,1-.193.964,2.335,2.335,0,0,1-.527.747,2.75,2.75,0,0,1-.782.516,3.535,3.535,0,0,1-.958.27v.023A1.282,1.282,0,0,1,11.1-3.3a2.23,2.23,0,0,1,.387.873L12.076,0H10.049L9.592-2.162a1.525,1.525,0,0,0-.369-.788A.968.968,0,0,0,8.5-3.217H8.18L7.494,0H5.584L7.371-8.4h2.871a3.953,3.953,0,0,1,1.248.173,2.3,2.3,0,0,1,.838.469,1.771,1.771,0,0,1,.469.683A2.28,2.28,0,0,1,12.943-6.264Zm-2.016.311a1,1,0,0,0-.287-.759,1.218,1.218,0,0,0-.867-.272H8.982l-.5,2.338h.768A2.32,2.32,0,0,0,10-4.755a1.547,1.547,0,0,0,.521-.287,1.156,1.156,0,0,0,.308-.416A1.236,1.236,0,0,0,10.928-5.953Zm9.686-.908H18.246L16.793,0h-1.9l1.447-6.861h-2.4L14.273-8.4h6.674Z" transform="translate(1239 2266)" fill="#12263f"/>
  </g>
</svg>
