<svg xmlns="http://www.w3.org/2000/svg" xmlns:xlink="http://www.w3.org/1999/xlink" width="505" height="181" viewBox="0 0 505 181">
  <defs>
    <linearGradient id="linear-gradient" x1="-35.965" y1="7.797" x2="-35.965" y2="7.769" gradientUnits="objectBoundingBox">
      <stop offset="0" stop-color="#fff"/>
      <stop offset="1" stop-color="#d2e6ee"/>
    </linearGradient>
    <linearGradient id="linear-gradient-2" x1="0" y1="0.5" x2="1" y2="0.5" xlink:href="#linear-gradient"/>
  </defs>
  <g id="Grupo_1043748" data-name="Grupo 1043748" transform="translate(-180 -1777)">
    <rect id="Rectángulo_356113" data-name="Rectángulo 356113" width="505" height="181" rx="16" transform="translate(180 1777)" fill="#fff1ef"/>
    <g id="Group_37719" data-name="Group 37719" transform="translate(199.194 1835.016)">
      <path id="Path_69039" data-name="Path 69039" d="M735.165,814.917c0-.714-.012-1.322,0-1.931q.146-6.144.307-12.288c.03-1.082.147-2.162.17-3.243q.1-4.962.142-9.925a1.056,1.056,0,0,0-.332-.636,4.067,4.067,0,1,1,5.754-.064,1.206,1.206,0,0,0-.387.985c.089,3.055.162,6.111.24,9.167q.223,8.6.447,17.193c.005.214.024.428.042.741h1.419a4.19,4.19,0,0,1,4.391,3.979,4.046,4.046,0,0,1,0,.409q.01,6.035,0,12.07a4.155,4.155,0,0,1-4.373,4.334H695.179a4.157,4.157,0,0,1-4.4-4.368q-.01-6,0-12.011a4.2,4.2,0,0,1,4.425-4.414h39.959Zm-16.08,18.35c7.847,0,15.693-.021,23.541.018a2.017,2.017,0,0,0,2.3-2.33c-.068-3.863-.019-7.728-.023-11.592a1.774,1.774,0,0,0-2.01-2q-23.837,0-47.673,0a1.763,1.763,0,0,0-1.984,1.961q-.006,6,.006,12.007a2.33,2.33,0,0,0,.2.967,1.821,1.821,0,0,0,1.868.969q11.888-.013,23.775,0Zm19.3-44.669-.12-.025c-.009.1-.023.19-.025.285q-.155,5.692-.307,11.384c-.123,4.666-.235,9.333-.372,14-.015.5.078.711.63.685.876-.041.881-.007.866-.676-.069-2.758-.154-5.515-.21-8.272-.054-2.708-.068-5.415-.123-8.123-.021-.981-.128-1.96-.161-2.942-.071-2.1-.12-4.209-.179-6.313Zm1.53-4.589a1.612,1.612,0,1,0-1.708,1.585l.079,0a1.584,1.584,0,0,0,1.628-1.539v-.048Z" transform="translate(-690.776 -763.131)" fill="#00223d"/>
      <path id="Path_69040" data-name="Path 69040" d="M724.139,778.727a24.641,24.641,0,0,1,1.4-7.486,22.68,22.68,0,0,1,11.13-12.909,2.264,2.264,0,0,1,1.055-.3,1.077,1.077,0,0,1,1.036.9,1.155,1.155,0,0,1-.582,1.36c-.648.376-1.319.712-1.951,1.111A19.669,19.669,0,0,0,729.192,769a22.654,22.654,0,0,0-1.233,2.762A20.06,20.06,0,0,0,728.04,786c.088.24.2.474.276.717a1.223,1.223,0,0,1-.636,1.585,1.168,1.168,0,0,1-1.56-.546,1.248,1.248,0,0,1-.051-.124,31.534,31.534,0,0,1-1.287-4.107C724.45,781.947,724.343,780.326,724.139,778.727Z" transform="translate(-698.534 -758.034)" fill="#ff6148"/>
      <path id="Path_69041" data-name="Path 69041" d="M735.714,771.421l.415.127a4.2,4.2,0,0,1,1.466-2.64,15.723,15.723,0,0,1,4.447-3.186,1.206,1.206,0,0,1,1.8,1.018,1.333,1.333,0,0,1-.9,1.266,13.119,13.119,0,0,0-4.094,3.156,13.8,13.8,0,0,0-2.617,14.423c.051.147.121.29.173.441a1.207,1.207,0,0,1-.61,1.595l-.049.02a1.166,1.166,0,0,1-1.546-.576,1.226,1.226,0,0,1-.048-.123,29.163,29.163,0,0,1-1.112-3.91,14.42,14.42,0,0,1,.392-6.9,9.534,9.534,0,0,1,2.109-4.328A1.233,1.233,0,0,0,735.714,771.421Z" transform="translate(-700.546 -759.785)" fill="#ff6148"/>
      <path id="Path_69042" data-name="Path 69042" d="M741.336,782.266a9.884,9.884,0,0,1,5.541-8.9,1.24,1.24,0,0,1,1.938.692,1.152,1.152,0,0,1-.539,1.325c-.282.18-.593.313-.878.49a7.458,7.458,0,0,0-3.031,9.231c.338.844.225,1.433-.342,1.789a1.223,1.223,0,0,1-1.814-.6A9.583,9.583,0,0,1,741.336,782.266Z" transform="translate(-702.533 -761.55)" fill="#ff6148"/>
      <path id="Path_69044" data-name="Path 69044" d="M752.562,791.21c.058,2.1.107,4.21.179,6.314.034.979.141,1.96.161,2.942.055,2.707.07,5.415.124,8.122.055,2.758.14,5.516.209,8.272.017.67.009.636-.866.676-.553.025-.645-.186-.63-.685.137-4.666.25-9.333.372-14q.148-5.693.306-11.385c0-.094.017-.19.025-.284Z" transform="translate(-704.951 -765.742)" fill="#fff"/>
      <path id="Path_69046" data-name="Path 69046" d="M697.752,838.119a3.193,3.193,0,0,1,3.143-3.243h.051a3.218,3.218,0,1,1-3.194,3.244Zm3.337-.786a.772.772,0,0,0-.869.661.758.758,0,0,0,.675.857h.053a.751.751,0,0,0,.794-.706c0-.019,0-.038,0-.056a.727.727,0,0,0-.657-.756Z" transform="translate(-692.398 -775.901)" fill="#00223d"/>
      <path id="Path_69047" data-name="Path 69047" d="M711.8,834.872c1.83-.153,3.16,1.739,3.218,3.179a3.164,3.164,0,0,1-3.069,3.256l-.107,0a3.218,3.218,0,0,1-.042-6.436Zm.087,3.979a.729.729,0,0,0,.685-.763.768.768,0,0,0-1.536,0,.783.783,0,0,0,.8.766l.051,0Z" transform="translate(-694.921 -775.899)" fill="#00223d"/>
    </g>
    <g id="Group_41830" data-name="Group 41830" transform="translate(397.299 1880.298)">
      <g id="Rectangle_28121" data-name="Rectangle 28121" transform="translate(1.478 3.034)">
        <rect id="Rectángulo_31110" data-name="Rectángulo 31110" width="68.741" height="22.704" fill="url(#linear-gradient)"/>
        <path id="Rectángulo_31111" data-name="Rectángulo 31111" d="M-.5-.5H68.611V22.573H-.5ZM67.611.5H.5V21.573H67.611Z" transform="translate(0.315 0.315)" fill="#707070"/>
      </g>
      <g id="Group_41828" data-name="Group 41828" transform="translate(0 0)">
        <path id="Path_69039-2" data-name="Path 69039" d="M1009.752,980.874c0-.92,8.2-.4,8.228,0h1.829a5.4,5.4,0,0,1,5.657,5.127c.008.176.009.352,0,.527q.014,7.775,0,15.552a5.354,5.354,0,0,1-5.635,5.584h-61.6a5.356,5.356,0,0,1-5.666-5.627q-.014-7.737,0-15.476a5.407,5.407,0,0,1,5.7-5.687Zm-20.719,23.643c10.11,0,20.221-.027,30.331.024,1.913.01,3.005-.883,2.968-3-.088-4.977-.026-9.957-.029-14.936a2.286,2.286,0,0,0-2.59-2.571q-30.713,0-61.426,0a2.271,2.271,0,0,0-2.556,2.527q-.008,7.736.007,15.471c0,.418,1.616,2.5,2.658,2.5q15.318-.016,30.634-.007Z" transform="translate(-952.56 -980.361)" fill="#00223d"/>
        <path id="Path_69046-2" data-name="Path 69046" d="M963.928,997.276a4.115,4.115,0,0,1,4.049-4.18h.067a4.146,4.146,0,1,1-4.116,4.18Zm4.3-1.014a1,1,0,0,0-1.119.852,1.191,1.191,0,0,0-.009.128.929.929,0,0,0,.879.976h.068a.969.969,0,0,0,1.024-.91c0-.024,0-.048,0-.072a.937.937,0,0,0-.847-.975Z" transform="translate(-955.203 -983.322)" fill="#00223d"/>
        <path id="Path_95199" data-name="Path 95199" d="M991.76,997.276a4.115,4.115,0,0,1,4.049-4.18h.067a4.146,4.146,0,1,1-4.116,4.18Zm4.3-1.014a1,1,0,0,0-1.119.852.905.905,0,0,0-.009.128.929.929,0,0,0,.879.976c.022,0,.045,0,.068,0a.969.969,0,0,0,1.024-.91c0-.024,0-.048,0-.072a.937.937,0,0,0-.847-.975Z" transform="translate(-961.675 -983.322)" fill="#00223d"/>
        <path id="Path_69047-2" data-name="Path 69047" d="M982.023,993.093c2.358-.2,4.072,2.24,4.146,4.1a4.076,4.076,0,0,1-3.953,4.194c-.046,0-.092,0-.138,0a4.146,4.146,0,1,1-.054-8.292Zm.113,5.126a.94.94,0,0,0,.883-.983.99.99,0,0,0-1.979,0,1.01,1.01,0,0,0,1.031.988l.065,0Z" transform="translate(-958.453 -983.318)" fill="#00223d"/>
        <path id="Path_95198" data-name="Path 95198" d="M1015.413,987.342c2.358-.2,4.072,2.24,4.146,4.1a4.076,4.076,0,0,1-3.953,4.195c-.046,0-.092,0-.138,0a4.146,4.146,0,1,1-.055-8.292Zm.113,5.126a.941.941,0,0,0,.883-.983.99.99,0,0,0-1.979,0,1.009,1.009,0,0,0,1.03.987c.022,0,.044,0,.065,0Z" transform="translate(-966.217 -981.981)" fill="#00223d"/>
        <path id="Path_95201" data-name="Path 95201" d="M1015.413,999.3c2.358-.2,4.072,2.24,4.146,4.1a4.076,4.076,0,0,1-3.953,4.2h-.138a4.146,4.146,0,1,1-.055-8.292Zm.113,5.126a.941.941,0,0,0,.883-.983.99.99,0,0,0-1.979,0,1.008,1.008,0,0,0,1.03.987l.065,0Z" transform="translate(-966.217 -984.763)" fill="#00223d"/>
        <path id="Path_95200" data-name="Path 95200" d="M1029.308,987.342c2.359-.2,4.072,2.24,4.146,4.1a4.075,4.075,0,0,1-3.953,4.195c-.046,0-.092,0-.138,0a4.146,4.146,0,0,1-.054-8.292Zm.113,5.126a.94.94,0,0,0,.883-.983.99.99,0,0,0-1.979,0,1.009,1.009,0,0,0,1.031.987c.021,0,.043,0,.065,0Z" transform="translate(-969.448 -981.981)" fill="#00223d"/>
        <path id="Path_95202" data-name="Path 95202" d="M1029.308,999.3c2.359-.2,4.072,2.24,4.146,4.1a4.076,4.076,0,0,1-3.953,4.2h-.138a4.146,4.146,0,0,1-.054-8.292Zm.113,5.126a.94.94,0,0,0,.883-.983.99.99,0,0,0-1.979,0,1.009,1.009,0,0,0,1.031.987l.065,0Z" transform="translate(-969.448 -984.763)" fill="#00223d"/>
      </g>
    </g>
    <g id="Grupo_55543" data-name="Grupo 55543" transform="translate(303.5 1845.762)">
      <path id="Path_116867" data-name="Path 116867" d="M952.024,807.692h2.312a1.1,1.1,0,0,1,1.144,1.05h0a.383.383,0,0,1,0,.084c.009.726,0,1.452,0,2.178v.256h4.075a2.217,2.217,0,0,1,2.328,2.1h0v14.29a2.216,2.216,0,0,1-2.149,2.281h0a.783.783,0,0,1-.122,0h-.969v2.829q-.014,1.889-.031,3.783a1.085,1.085,0,0,1-1.07,1.1h-5.362a1.08,1.08,0,0,1-1.128-1.03v-.008a.487.487,0,0,1,0-.106v-2.429H910.609c0,.083-.012.162-.012.24v2.138a1.117,1.117,0,0,1-1.035,1.193h0a1.366,1.366,0,0,1-.158,0h-5.2a1.1,1.1,0,0,1-1.193-1,1.349,1.349,0,0,1,0-.175v-6.544h-.6a9.776,9.776,0,0,1-1.661-.094,2.121,2.121,0,0,1-1.636-2.106V813.61a2.223,2.223,0,0,1,2.086-2.352h4.63v-2.421a1.092,1.092,0,0,1,1.034-1.147h2.846V777.514a1.085,1.085,0,0,1,1-1.167h.011a1.1,1.1,0,0,1,1.193,1.009v.067c.009.277,0,.557,0,.834V807.7h2.552a1.1,1.1,0,0,1,1.141,1.049v2.5h30.688c0-.078.009-.156.009-.237,0-.682.015-1.365,0-2.044a1.176,1.176,0,0,1,1.056-1.278,1.143,1.143,0,0,1,.206,0c.71.034,1.424,0,2.135,0l.074-.015V777.514a1.122,1.122,0,0,1,1.05-1.184,1.11,1.11,0,0,1,.439.063,1.169,1.169,0,0,1,.742,1.184v8.959c0,.642-.022,1.287-.028,1.929,0,.2.028.411.028.614v18.383Zm-50.669,20.013h58.3V813.5h-58.3Zm55.047,2.232H905.257v1.919H956.4Zm-48.337-20.022v1.328h5.341v-1.328Zm45.187,0h-4.7v1.328h4.7Zm-48,25.5h3.119v-1.335h-3.119Zm51.139-1.335h-3.113v1.34h3.113Z" transform="translate(-899.114 -776.328)" fill="#12263f"/>
      <path id="Path_116868" data-name="Path 116868" d="M935.938,778.066a19.816,19.816,0,0,1,9.529,2.42,20.4,20.4,0,0,1,4.465,3.319,1.113,1.113,0,0,1,.167,1.566h0a1.119,1.119,0,0,1-.549.368,1.089,1.089,0,0,1-1.13-.3,17.791,17.791,0,0,0-3.559-2.746,17.382,17.382,0,0,0-6.412-2.24,17.668,17.668,0,0,0-14.93,4.913,1.154,1.154,0,0,1-1.377.305,1.1,1.1,0,0,1-.51-1.474,1.174,1.174,0,0,1,.221-.306,19.242,19.242,0,0,1,2.6-2.2,19.71,19.71,0,0,1,11.487-3.629Z" transform="translate(-904.324 -776.732)" fill="#ff6148"/>
      <path id="Path_116869" data-name="Path 116869" d="M936.662,786.153a15.67,15.67,0,0,1,11.194,4.518,1.114,1.114,0,0,1,.084,1.573h0l-.055.059a1.13,1.13,0,0,1-1.6-.059l0,0h0a13.4,13.4,0,0,0-18.852,0,1.112,1.112,0,0,1-1.639-1.5.641.641,0,0,1,.094-.09,15.59,15.59,0,0,1,3.422-2.559,15.306,15.306,0,0,1,6.419-1.893C936.094,786.172,936.462,786.153,936.662,786.153Z" transform="translate(-905.249 -778.612)" fill="#ff6148"/>
      <path id="Path_116870" data-name="Path 116870" d="M945.414,799.305a1.107,1.107,0,0,1-.789-.334,9.973,9.973,0,0,0-13.994-.075,1.16,1.16,0,0,1-1.3.327,1.085,1.085,0,0,1-.627-1.4v0a1.105,1.105,0,0,1,.29-.424,16.524,16.524,0,0,1,1.891-1.536,11.542,11.542,0,0,1,5.929-1.991,11.97,11.97,0,0,1,8.713,2.92c.23.193.454.4.668.608a1.118,1.118,0,0,1,.237,1.259A1.075,1.075,0,0,1,945.414,799.305Z" transform="translate(-905.978 -780.4)" fill="#ff6148"/>
      <path id="Path_116876" data-name="Path 116876" d="M943.413,836.907H925.121a1.12,1.12,0,0,1-1.2-.826,1.391,1.391,0,0,1-.034-.324v-6.073c0-.433.008-.863.018-1.3a1.071,1.071,0,0,1,.963-.929l34.55-.018h2.237a1.155,1.155,0,0,1,1.287,1v0a1.1,1.1,0,0,1,0,.284v6.906a1.137,1.137,0,0,1-.987,1.269h0a1.15,1.15,0,0,1-.272,0H943.413Zm17.3-7.239H926.109v5.008h34.609Z" transform="translate(-904.875 -788.211)" fill="#12263f"/>
      <path id="Path_116877" data-name="Path 116877" d="M919.961,832.17v3.566a1.123,1.123,0,0,1-1.072,1.168h-.041a1.111,1.111,0,0,1-1.1-1.121v-.038c0-1.035.013-2.069.013-3.1,0-1.35-.013-2.7-.013-4.048a1.1,1.1,0,0,1,1.036-1.162h.009a1.1,1.1,0,0,1,1.162,1.039v0a.942.942,0,0,1,0,.131c0,.891-.009,1.786-.015,2.68v.879Z" transform="translate(-903.447 -788.21)" fill="#12263f"/>
      <path id="Path_116878" data-name="Path 116878" d="M915.148,832.173v3.583a1.1,1.1,0,1,1-2.206.052h0V828.57a1.105,1.105,0,0,1,2.209-.083v.074C915.159,829.767,915.148,830.969,915.148,832.173Z" transform="translate(-902.329 -788.209)" fill="#12263f"/>
      <path id="Path_116880" data-name="Path 116880" d="M940.132,832.133a5.416,5.416,0,0,1,.87.09,1.074,1.074,0,0,1,.76,1.169,1.091,1.091,0,0,1-1.025.972c-.424.018-.848.022-1.272,0a1.073,1.073,0,0,1-1-1.141h0a1.084,1.084,0,0,1,1.056-1.053h.615Z" transform="translate(-908.263 -789.304)" fill="#12263f"/>
      <path id="Path_116881" data-name="Path 116881" d="M954.464,832.145a5.6,5.6,0,0,1,.826.068,1.094,1.094,0,0,1-.23,2.153,7.882,7.882,0,0,1-1.443-.05,1.03,1.03,0,0,1-.814-1.193,1.1,1.1,0,0,1,1.06-.954h.6Z" transform="translate(-911.594 -789.307)" fill="#12263f"/>
      <path id="Path_116882" data-name="Path 116882" d="M932.943,834.38c-.2,0-.4.009-.592,0a1.1,1.1,0,0,1-1.048-1.154v0a1.1,1.1,0,0,1,1.1-1.048h1.075a1.1,1.1,0,0,1,1.109,1.1h0a1.1,1.1,0,0,1-1.05,1.1c-.2.012-.4,0-.595,0Z" transform="translate(-906.598 -789.313)" fill="#12263f"/>
      <path id="Path_116883" data-name="Path 116883" d="M947.294,832.173h.549a1.11,1.11,0,0,1,1.1,1.044,1.088,1.088,0,0,1-.981,1.15,9.451,9.451,0,0,1-1.384,0,1.08,1.08,0,0,1-.951-1.128,1.1,1.1,0,0,1,1.057-1.063h.613Z" transform="translate(-909.928 -789.313)" fill="#12263f"/>
      <path id="Path_116884" data-name="Path 116884" d="M961.615,832.145a5.952,5.952,0,0,1,.851.068,1.085,1.085,0,0,1-.226,2.134c-.4.018-.786.028-1.178.018a1.1,1.1,0,0,1-1.091-1.115h0a1.106,1.106,0,0,1,1.119-1.091h.53Z" transform="translate(-913.264 -789.307)" fill="#12263f"/>
    </g>
    <g id="Grupo_55561" data-name="Grupo 55561" transform="translate(598.074 1852.668)">
      <g id="Grupo_55559" data-name="Grupo 55559" transform="translate(0.828 0.801)">
        <g id="Grupo_55550" data-name="Grupo 55550" transform="translate(24.838 1.55)">
          <g id="Grupo_55544" data-name="Grupo 55544" transform="translate(9.135)">
            <path id="Trazado_118099" data-name="Trazado 118099" d="M671.025,976.865a1.632,1.632,0,0,1-1.525-1.646v-6.9a1.6,1.6,0,0,1,.469-1.134l4.273-4.273a1.6,1.6,0,0,1,1.134-.469h9.89a1.631,1.631,0,0,1,1.645,1.525,1.6,1.6,0,0,1-1.6,1.68h-9.183a.214.214,0,0,0-.151.062l-3.21,3.21a.214.214,0,0,0-.063.151v6.191A1.6,1.6,0,0,1,671.025,976.865Z" transform="translate(-669.5 -962.445)" fill="#f8f7f7"/>
          </g>
          <g id="Grupo_55545" data-name="Grupo 55545" transform="translate(9.135 35.575)">
            <path id="Trazado_118100" data-name="Trazado 118100" d="M671.025,1008.8a1.632,1.632,0,0,0-1.525,1.645v6.9a1.6,1.6,0,0,0,.469,1.134l4.273,4.273a1.6,1.6,0,0,0,1.134.47h9.89a1.631,1.631,0,0,0,1.645-1.525,1.6,1.6,0,0,0-1.6-1.68h-9.183a.211.211,0,0,1-.151-.063l-3.21-3.209a.216.216,0,0,1-.063-.151V1010.4A1.6,1.6,0,0,0,671.025,1008.8Z" transform="translate(-669.5 -1008.798)" fill="#f8f7f7"/>
          </g>
          <g id="Grupo_55546" data-name="Grupo 55546" transform="translate(9.669 11.27)">
            <path id="Trazado_118101" data-name="Trazado 118101" d="M686.108,980.335H671.216c-.563,0-1.02-.718-1.02-1.6s.457-1.6,1.02-1.6h14.892c.563,0,1.02.718,1.02,1.6s-.457,1.6-1.02,1.6Z" transform="translate(-670.196 -977.13)" fill="#f8f7f7"/>
          </g>
          <g id="Grupo_55547" data-name="Grupo 55547" transform="translate(9.669 35.521)">
            <path id="Trazado_118102" data-name="Trazado 118102" d="M686.108,1011.933H671.216c-.563,0-1.02-.718-1.02-1.6s.457-1.6,1.02-1.6h14.892c.563,0,1.02.718,1.02,1.6s-.457,1.6-1.02,1.6Z" transform="translate(-670.196 -1008.728)" fill="#f8f7f7"/>
          </g>
          <g id="Grupo_55548" data-name="Grupo 55548" transform="translate(0.107 11.27)">
            <path id="Trazado_118103" data-name="Trazado 118103" d="M668.422,1004.586a1.6,1.6,0,0,1-1.282-.639l-9.081-12.072a1.6,1.6,0,0,1,0-1.922l9.08-12.178a1.6,1.6,0,1,1,2.569,1.916l-8.363,11.217,8.359,11.112a1.6,1.6,0,0,1-1.279,2.566Z" transform="translate(-657.738 -977.13)" fill="#f8f7f7"/>
          </g>
          <g id="Grupo_55549" data-name="Grupo 55549" transform="translate(0 23.396)">
            <path id="Trazado_118104" data-name="Trazado 118104" d="M682.6,996.134H659.2a1.6,1.6,0,1,1,0-3.2h23.4a1.6,1.6,0,0,1,0,3.2Z" transform="translate(-657.598 -992.929)" fill="#f8f7f7"/>
          </g>
        </g>
        <g id="Grupo_55558" data-name="Grupo 55558" transform="translate(32.328)">
          <g id="Grupo_55551" data-name="Grupo 55551" transform="translate(14.304)">
            <path id="Trazado_118105" data-name="Trazado 118105" d="M692.461,963.631a3.206,3.206,0,0,0-4.3-3.014,3.453,3.453,0,0,0-.666.486,2.9,2.9,0,0,0-1.258,2.528,2.958,2.958,0,0,0,3.015,3.1,3.114,3.114,0,0,0,3.015-2.006A3.207,3.207,0,0,0,692.461,963.631Z" transform="translate(-686.052 -960.426)" fill="#b3e59f"/>
            <path id="Trazado_118106" data-name="Trazado 118106" d="M692.214,964.78a3.206,3.206,0,1,1-4.106-4.105,3.207,3.207,0,0,0,4.106,4.105Z" transform="translate(-685.994 -960.484)" fill="#95d6a4"/>
          </g>
          <g id="Grupo_55552" data-name="Grupo 55552" transform="translate(14.304 11.217)">
            <path id="Trazado_118107" data-name="Trazado 118107" d="M692.461,978.247a3.208,3.208,0,0,0-4.3-3.015,3.454,3.454,0,0,0-.666.487,2.9,2.9,0,0,0-1.258,2.528,2.958,2.958,0,0,0,3.015,3.1,3.115,3.115,0,0,0,3.015-2.006A3.213,3.213,0,0,0,692.461,978.247Z" transform="translate(-686.052 -975.042)" fill="#b3e59f"/>
            <path id="Trazado_118108" data-name="Trazado 118108" d="M692.214,979.4a3.206,3.206,0,1,1-4.106-4.105,3.208,3.208,0,0,0,4.106,4.105Z" transform="translate(-685.994 -975.1)" fill="#95d6a4"/>
          </g>
          <g id="Grupo_55553" data-name="Grupo 55553" transform="translate(0 11.217)">
            <path id="Trazado_118109" data-name="Trazado 118109" d="M673.824,978.247a3.208,3.208,0,0,0-4.3-3.015,3.43,3.43,0,0,0-.666.487,2.9,2.9,0,0,0-1.259,2.528,2.958,2.958,0,0,0,3.016,3.1,3.113,3.113,0,0,0,3.014-2.006A3.2,3.2,0,0,0,673.824,978.247Z" transform="translate(-667.414 -975.042)" fill="#b3e59f"/>
            <path id="Trazado_118110" data-name="Trazado 118110" d="M673.576,979.4a3.205,3.205,0,1,1-4.105-4.105,3.207,3.207,0,0,0,4.105,4.105Z" transform="translate(-667.357 -975.1)" fill="#95d6a4"/>
          </g>
          <g id="Grupo_55554" data-name="Grupo 55554" transform="translate(14.304 23.343)">
            <path id="Trazado_118111" data-name="Trazado 118111" d="M692.461,994.046a3.208,3.208,0,0,0-4.3-3.015,3.454,3.454,0,0,0-.666.487,2.9,2.9,0,0,0-1.258,2.528,2.958,2.958,0,0,0,3.015,3.1,3.115,3.115,0,0,0,3.015-2.006A3.215,3.215,0,0,0,692.461,994.046Z" transform="translate(-686.052 -990.841)" fill="#b3e59f"/>
            <path id="Trazado_118112" data-name="Trazado 118112" d="M692.214,995.2a3.206,3.206,0,1,1-4.106-4.105,3.208,3.208,0,0,0,4.106,4.105Z" transform="translate(-685.994 -990.899)" fill="#95d6a4"/>
          </g>
          <g id="Grupo_55555" data-name="Grupo 55555" transform="translate(14.304 35.468)">
            <path id="Trazado_118113" data-name="Trazado 118113" d="M692.461,1009.845a3.208,3.208,0,0,0-4.3-3.015,3.451,3.451,0,0,0-.666.487,2.9,2.9,0,0,0-1.258,2.528,2.958,2.958,0,0,0,3.015,3.1,3.115,3.115,0,0,0,3.015-2.006A3.213,3.213,0,0,0,692.461,1009.845Z" transform="translate(-686.052 -1006.64)" fill="#b3e59f"/>
            <path id="Trazado_118114" data-name="Trazado 118114" d="M692.214,1010.994a3.206,3.206,0,1,1-4.106-4.106,3.208,3.208,0,0,0,4.106,4.106Z" transform="translate(-685.994 -1006.698)" fill="#95d6a4"/>
          </g>
          <g id="Grupo_55556" data-name="Grupo 55556" transform="translate(0.095 35.468)">
            <path id="Trazado_118115" data-name="Trazado 118115" d="M673.948,1009.845a3.208,3.208,0,0,0-4.3-3.015,3.428,3.428,0,0,0-.666.487,2.9,2.9,0,0,0-1.258,2.528,2.958,2.958,0,0,0,3.015,3.1,3.115,3.115,0,0,0,3.015-2.006A3.213,3.213,0,0,0,673.948,1009.845Z" transform="translate(-667.538 -1006.64)" fill="#b3e59f"/>
            <path id="Trazado_118116" data-name="Trazado 118116" d="M673.7,1010.994a3.206,3.206,0,1,1-4.106-4.106,3.208,3.208,0,0,0,4.106,4.106Z" transform="translate(-667.481 -1006.698)" fill="#95d6a4"/>
          </g>
          <g id="Grupo_55557" data-name="Grupo 55557" transform="translate(14.304 46.653)">
            <path id="Trazado_118117" data-name="Trazado 118117" d="M692.461,1024.419a3.208,3.208,0,0,0-4.3-3.015,3.447,3.447,0,0,0-.666.486,2.9,2.9,0,0,0-1.258,2.529,2.958,2.958,0,0,0,3.015,3.1,3.115,3.115,0,0,0,3.015-2.006A3.213,3.213,0,0,0,692.461,1024.419Z" transform="translate(-686.052 -1021.214)" fill="#b3e59f"/>
            <path id="Trazado_118118" data-name="Trazado 118118" d="M692.214,1025.567a3.206,3.206,0,1,1-4.106-4.105,3.206,3.206,0,0,0,4.106,4.105Z" transform="translate(-685.994 -1021.272)" fill="#95d6a4"/>
          </g>
        </g>
        <path id="Trazado_118119" data-name="Trazado 118119" d="M651.717,974.6a1.064,1.064,0,0,1-.929.68c-5.822.349-10.567,5.673-10.567,11.584s4.745,11.274,10.566,11.623a1.065,1.065,0,0,1,.93.683l1.872,3.621,1.81,4.719,1.183,3.428a1.067,1.067,0,0,1,.061.536,2.148,2.148,0,0,1-2.124,1.83h-5.408a2.148,2.148,0,0,1-2.147-2.147v-2.312a2.146,2.146,0,0,0-1.47-2.038,28.568,28.568,0,0,1-3.368-1.174,2.148,2.148,0,0,0-2.484.4L638,1007.67c-.838.838-1.664,1.052-2.5.213l-4.277-4.276a2.149,2.149,0,0,1,0-3.038l1.638-1.636a2.146,2.146,0,0,0,.4-2.484,25.139,25.139,0,0,1-1.388-3.047,2.146,2.146,0,0,0-2.037-1.471h-2.313a2.148,2.148,0,0,1-2.147-2.147v-5.621a2.147,2.147,0,0,1,2.147-2.147h2.313a2.23,2.23,0,0,0,1.93-1.685,21,21,0,0,1,1.174-2.834,2.147,2.147,0,0,0-.4-2.484l-1.638-1.637a2.15,2.15,0,0,1,0-3.037l4.277-4.278a2.151,2.151,0,0,1,3.038,0l1.636,1.638a2.146,2.146,0,0,0,2.484.4,20.98,20.98,0,0,1,2.833-1.174,2.146,2.146,0,0,0,1.471-2.037v-2.313a2.148,2.148,0,0,1,2.147-2.147h5.942a2.148,2.148,0,0,1,2.124,1.829,1.066,1.066,0,0,1-.061.539l-3.238,8.374Z" transform="translate(-625.267 -960.426)" fill="url(#linear-gradient-2)"/>
        <path id="Trazado_118120" data-name="Trazado 118120" d="M656.824,1017.764a2.148,2.148,0,0,1-2.124,1.83h-5.942a2.148,2.148,0,0,1-2.147-2.147v-2.312a2.147,2.147,0,0,0-1.471-2.038,21,21,0,0,1-2.833-1.173,2.147,2.147,0,0,0-2.484.4l-1.636,1.637a2.148,2.148,0,0,1-3.038,0l-4.277-4.276a2.151,2.151,0,0,1,0-3.038l1.638-1.636a2.147,2.147,0,0,0,.4-2.484,21,21,0,0,1-1.174-2.834,2.146,2.146,0,0,0-2.038-1.471h-2.312a2.147,2.147,0,0,1-2.147-2.147v-6.049a2.148,2.148,0,0,1,2.147-2.147h2.312a2.143,2.143,0,0,0,1.986-1.333q-.037.685-.036,1.377a25.75,25.75,0,0,0,23.721,25.668l1.4,3.641a1.059,1.059,0,0,1,.061.537Z" transform="translate(-625.235 -966.498)" fill="url(#linear-gradient-2)"/>
        <path id="Trazado_118121" data-name="Trazado 118121" d="M656.761,1006.015c-.534.053-1.3.1-1.827.1a15.917,15.917,0,1,1,0-31.835c.456,0,1.329.071,1.794.111l-1.54,3.983a1.065,1.065,0,0,1-.929.68,11.111,11.111,0,0,0,0,22.18,1.065,1.065,0,0,1,.93.683Z" transform="translate(-628.439 -963.647)" fill="url(#linear-gradient-2)"/>
        <path id="Trazado_118122" data-name="Trazado 118122" d="M651.791,993.075a6.158,6.158,0,0,1,2.418-5.238,6.41,6.41,0,0,1,9.086,8.706,6.237,6.237,0,0,1-5.391,2.746A6,6,0,0,1,651.791,993.075Z" transform="translate(-631.41 -966.527)" fill="#b3e59f"/>
        <path id="Trazado_118123" data-name="Trazado 118123" d="M663.206,996.853a6.411,6.411,0,1,1-8.861-8.861,6.412,6.412,0,0,0,8.861,8.861Z" transform="translate(-631.32 -966.836)" fill="#95d6a4"/>
      </g>
      <g id="Grupo_55560" data-name="Grupo 55560" transform="translate(0 0)">
        <path id="Trazado_118124" data-name="Trazado 118124" d="M669.873,977.009h7.8a4.006,4.006,0,1,0,0-4.807h-7.8a4.048,4.048,0,0,0-.853-.837V968.6l2.865-2.865h5.751a4.007,4.007,0,1,0,.081-4.807H670.89a2.39,2.39,0,0,0-1.7.7l-4.273,4.273a2.39,2.39,0,0,0-.7,1.7v3.837a4.054,4.054,0,0,0-1.385,4.293l-3.08,4.131a7.211,7.211,0,1,0-.035,13.737l3.111,4.135a3.994,3.994,0,0,0,1.39,4.276v3.837a2.39,2.39,0,0,0,.7,1.7l4.273,4.273a2.39,2.39,0,0,0,1.7.7h6.828a4.006,4.006,0,1,0-.081-4.808h-5.751l-2.865-2.865V1002.1a4.04,4.04,0,0,0,.852-.837h7.8a4.006,4.006,0,1,0,0-4.807h-7.8a4,4,0,0,0-3.2-1.6h-.005l-3.117-4.144a7.154,7.154,0,0,0,.786-1.572h13.343a4.006,4.006,0,1,0,0-4.807h-4.653a.8.8,0,1,0,0,1.6h3.93a4.181,4.181,0,0,0,0,1.6H664.7a7.369,7.369,0,0,0,0-1.6h4.479a.8.8,0,1,0,0-1.6h-4.847a7.209,7.209,0,0,0-.765-1.54l3.113-4.175a4,4,0,0,0,3.191-1.6Zm11.006-4.807a2.4,2.4,0,1,1-2.4,2.4A2.406,2.406,0,0,1,680.878,972.2ZM670.6,973.8h6.358a4.181,4.181,0,0,0,0,1.6H670.6a4.024,4.024,0,0,0,0-1.6Zm10.283-12.82a2.4,2.4,0,1,1-2.4,2.4A2.406,2.406,0,0,1,680.878,960.984Zm0,46.685a2.4,2.4,0,1,1-2.4,2.4A2.406,2.406,0,0,1,680.878,1007.669Zm0-11.217a2.4,2.4,0,1,1-2.4,2.4A2.406,2.406,0,0,1,680.878,996.453Zm-10.283,1.6h6.358a4.181,4.181,0,0,0,0,1.6H670.6A4.18,4.18,0,0,0,670.6,998.055Zm10.283-13.728a2.4,2.4,0,1,1-2.4,2.4A2.406,2.406,0,0,1,680.878,984.327Zm-15.063-16.719a.8.8,0,0,1,.235-.567l4.273-4.273a.8.8,0,0,1,.567-.235h6.075a4.006,4.006,0,0,0-.022,1.6h-5.39a.8.8,0,0,0-.566.235l-3.334,3.334a.8.8,0,0,0-.235.566v2.4a4.138,4.138,0,0,0-1.6.021Zm-8.279,24.731a5.609,5.609,0,1,1,5.609-5.609A5.615,5.615,0,0,1,657.536,992.34Zm13.451,16.751a.8.8,0,0,0,.566.235h5.39a4.139,4.139,0,0,0,.022,1.6H670.89a.8.8,0,0,1-.567-.235l-4.273-4.273a.793.793,0,0,1-.235-.566v-3.084a4.2,4.2,0,0,0,1.6.022v2.4a.8.8,0,0,0,.235.566Zm-4.317-12.638a2.4,2.4,0,1,1-2.4,2.4A2.406,2.406,0,0,1,666.67,996.453Zm-1.718-1.214a4.019,4.019,0,0,0-1.279.965l-2.461-3.271a7.237,7.237,0,0,0,1.277-.968Zm-2.438-13.718a7.252,7.252,0,0,0-1.272-.974l2.442-3.276a4.016,4.016,0,0,0,1.284.959Zm1.753-6.915a2.4,2.4,0,1,1,2.4,2.4A2.407,2.407,0,0,1,664.266,974.606Z" transform="translate(-630.241 -959.382)" fill="#00223d"/>
        <path id="Trazado_118125" data-name="Trazado 118125" d="M649.528,1012.477H648.48a1.347,1.347,0,0,1-1.346-1.346v-2.312a2.942,2.942,0,0,0-2.02-2.8,20.292,20.292,0,0,1-2.725-1.129,2.944,2.944,0,0,0-3.411.546l-1.636,1.637a1.346,1.346,0,0,1-1.9,0l-4.277-4.276a1.35,1.35,0,0,1,0-1.9l1.638-1.637a2.943,2.943,0,0,0,.547-3.411,20.152,20.152,0,0,1-1.13-2.725,2.942,2.942,0,0,0-2.8-2.021H627.1a1.347,1.347,0,0,1-1.346-1.346v-6.048a1.348,1.348,0,0,1,1.346-1.346h2.313a2.942,2.942,0,0,0,2.8-2.02,20.3,20.3,0,0,1,1.129-2.725,2.944,2.944,0,0,0-.546-3.411l-1.637-1.635a1.351,1.351,0,0,1,0-1.9l4.277-4.277a1.351,1.351,0,0,1,1.9,0l1.636,1.639a2.944,2.944,0,0,0,3.411.546,20.241,20.241,0,0,1,2.724-1.13,2.942,2.942,0,0,0,2.021-2.8v-2.313a1.348,1.348,0,0,1,1.346-1.346h5.942a1.354,1.354,0,0,1,1.332,1.146.266.266,0,0,1-.017.132l-.812,2.1a.8.8,0,1,0,1.494.578l.813-2.1a1.875,1.875,0,0,0,.107-.946,2.966,2.966,0,0,0-2.917-2.512H648.48a2.953,2.953,0,0,0-2.949,2.949v2.313a1.341,1.341,0,0,1-.922,1.276,21.858,21.858,0,0,0-2.941,1.219,1.344,1.344,0,0,1-1.557-.249l-1.637-1.638a2.954,2.954,0,0,0-4.17,0l-4.278,4.278a2.955,2.955,0,0,0,0,4.17l1.638,1.636a1.343,1.343,0,0,1,.248,1.557,21.866,21.866,0,0,0-1.219,2.942,1.342,1.342,0,0,1-1.276.921H627.1a2.952,2.952,0,0,0-2.949,2.949v6.048A2.952,2.952,0,0,0,627.1,992.7h2.313a1.342,1.342,0,0,1,1.276.922,21.872,21.872,0,0,0,1.219,2.942,1.342,1.342,0,0,1-.248,1.556l-1.638,1.638a2.954,2.954,0,0,0,0,4.17l4.278,4.276a2.951,2.951,0,0,0,4.17,0l1.637-1.637a1.345,1.345,0,0,1,1.557-.248,21.881,21.881,0,0,0,2.942,1.219,1.343,1.343,0,0,1,.921,1.277v2.312a2.952,2.952,0,0,0,2.949,2.949h1.048a.8.8,0,1,0,0-1.6Z" transform="translate(-624.156 -959.382)" fill="#00223d"/>
        <path id="Trazado_118126" data-name="Trazado 118126" d="M655.658,1000.575a1.871,1.871,0,0,0-1.63-1.2,10.309,10.309,0,0,1,0-20.581,1.871,1.871,0,0,0,1.629-1.191l2.616-6.765a.8.8,0,0,0-1.494-.578l-.854,2.208c-.421-.031-.847-.048-1.27-.048a16.737,16.737,0,0,0-16.719,16.719,16.548,16.548,0,0,0,3.55,10.3.8.8,0,0,0,1.261-.988,14.969,14.969,0,0,1-3.209-9.314,15.133,15.133,0,0,1,15.116-15.116c.221,0,.443,0,.664.014l-1.156,2.989a.265.265,0,0,1-.23.17,11.912,11.912,0,0,0,0,23.779.263.263,0,0,1,.229.17l1.187,3.094a15.105,15.105,0,0,1-10.092-3.259.8.8,0,1,0-1,1.254,16.652,16.652,0,0,0,11.69,3.575l2.992,7.8a.267.267,0,0,1,.016.132,1.353,1.353,0,0,1-1.332,1.146h-1.155a.8.8,0,0,0,0,1.6h1.155a2.965,2.965,0,0,0,2.917-2.514,1.86,1.86,0,0,0-.105-.941Z" transform="translate(-627.36 -961.793)" fill="#00223d"/>
      </g>
    </g>
    <g id="Grupo_55563" data-name="Grupo 55563" transform="translate(501.867 1850.366)">
      <path id="Trazado_118141" data-name="Trazado 118141" d="M830.515,1104.729a7.062,7.062,0,0,0-2.36,13.724h4.719a7.062,7.062,0,0,0-2.359-13.724Z" transform="translate(-802.199 -1083.491)" fill="#ff6148"/>
      <path id="Trazado_118142" data-name="Trazado 118142" d="M832.124,1143.52a1.77,1.77,0,0,1-1.77-1.77V1121.1a1.77,1.77,0,1,1,3.54,0v20.647A1.771,1.771,0,0,1,832.124,1143.52Z" transform="translate(-803.808 -1086.887)" fill="#00223d"/>
      <path id="Trazado_118143" data-name="Trazado 118143" d="M830.515,1118.887a7.079,7.079,0,1,1,7.079-7.079A7.088,7.088,0,0,1,830.515,1118.887Zm0-10.619a3.54,3.54,0,1,0,3.54,3.54A3.544,3.544,0,0,0,830.515,1108.269Z" transform="translate(-802.199 -1083.491)" fill="#00223d"/>
      <path id="Trazado_118144" data-name="Trazado 118144" d="M842.841,1125.9a1.771,1.771,0,0,1-1.251-3.025,24.506,24.506,0,0,0,7.268-17.5,24.777,24.777,0,1,0-49.554,0,24.526,24.526,0,0,0,7.266,17.506,1.771,1.771,0,0,1-2.5,2.509,28.044,28.044,0,0,1-8.306-20.015,28.316,28.316,0,1,1,56.632,0,28.027,28.027,0,0,1-8.308,20.013A1.763,1.763,0,0,1,842.841,1125.9Z" transform="translate(-795.765 -1077.057)" fill="#00223d"/>
      <path id="Trazado_118145" data-name="Trazado 118145" d="M839.022,1122.085a1.771,1.771,0,0,1-1.246-3.028,15.14,15.14,0,0,0,4.5-10.824,15.338,15.338,0,1,0-30.676,0,15.146,15.146,0,0,0,4.5,10.826,1.771,1.771,0,0,1-2.5,2.514,18.669,18.669,0,0,1-5.547-13.339,18.878,18.878,0,0,1,37.755,0,18.65,18.65,0,0,1-5.55,13.336A1.756,1.756,0,0,1,839.022,1122.085Z" transform="translate(-798.625 -1079.917)" fill="#00223d"/>
    </g>
    <g id="Grupo_55564" data-name="Grupo 55564" transform="translate(207.472 1917.904)">
      <path id="Trazado_118146" data-name="Trazado 118146" d="M694.681,874.191l.054.725a2.281,2.281,0,0,1,1.865-.845,1.73,1.73,0,0,1,1.721.989,2.228,2.228,0,0,1,1.949-.989,1.933,1.933,0,0,1,1.571.615,2.825,2.825,0,0,1,.516,1.85v4.143h-1.739v-4.137a1.236,1.236,0,0,0-.216-.807.956.956,0,0,0-.761-.255,1.081,1.081,0,0,0-1.079.744l.005,4.454h-1.732v-4.131a1.219,1.219,0,0,0-.223-.815.963.963,0,0,0-.755-.252,1.123,1.123,0,0,0-1.068.612v4.586h-1.732v-6.487Z" transform="translate(-693.056 -871.469)" fill="#00223d"/>
      <path id="Trazado_118147" data-name="Trazado 118147" d="M706.556,876.586a3.85,3.85,0,0,1,.371-1.721A2.72,2.72,0,0,1,708,873.7a3.122,3.122,0,0,1,1.622-.414,2.953,2.953,0,0,1,2.144.8,3.219,3.219,0,0,1,.926,2.182l.011.444a3.4,3.4,0,0,1-.833,2.4,3.232,3.232,0,0,1-4.476,0,3.45,3.45,0,0,1-.837-2.447Zm1.732.123a2.423,2.423,0,0,0,.348,1.414,1.249,1.249,0,0,0,1.979.006,2.655,2.655,0,0,0,.354-1.546,2.4,2.4,0,0,0-.354-1.405,1.151,1.151,0,0,0-1-.5,1.129,1.129,0,0,0-.983.5A2.7,2.7,0,0,0,708.288,876.709Zm1.673-6.029h1.889l-1.661,1.859H708.78Z" transform="translate(-696.195 -870.68)" fill="#00223d"/>
      <path id="Trazado_118148" data-name="Trazado 118148" d="M715.6,876.6a3.91,3.91,0,0,1,.68-2.416,2.207,2.207,0,0,1,1.862-.9,1.985,1.985,0,0,1,1.565.708v-3.31h1.739v9.21h-1.565l-.084-.689a2.038,2.038,0,0,1-1.667.809,2.2,2.2,0,0,1-1.837-.9A4.036,4.036,0,0,1,715.6,876.6Zm1.732.129a2.56,2.56,0,0,0,.318,1.4,1.036,1.036,0,0,0,.924.487,1.158,1.158,0,0,0,1.133-.679V875.37a1.143,1.143,0,0,0-1.121-.678Q717.335,874.692,717.335,876.727Z" transform="translate(-698.299 -870.68)" fill="#00223d"/>
      <path id="Trazado_118149" data-name="Trazado 118149" d="M727.885,880.8a3.182,3.182,0,0,1-2.323-.875,3.115,3.115,0,0,1-.9-2.332v-.168a3.919,3.919,0,0,1,.378-1.747,2.772,2.772,0,0,1,1.071-1.187,3,3,0,0,1,1.579-.417,2.691,2.691,0,0,1,2.1.84,3.409,3.409,0,0,1,.764,2.38V878h-4.131a1.61,1.61,0,0,0,.507,1.019A1.533,1.533,0,0,0,728,879.4a1.87,1.87,0,0,0,1.565-.725l.851.953a2.6,2.6,0,0,1-1.055.86A3.465,3.465,0,0,1,727.885,880.8Zm-.2-5.33a1.082,1.082,0,0,0-.837.349,1.809,1.809,0,0,0-.411,1h2.41v-.139a1.29,1.29,0,0,0-.312-.894A1.116,1.116,0,0,0,727.687,875.468Z" transform="translate(-700.406 -871.469)" fill="#00223d"/>
      <path id="Trazado_118150" data-name="Trazado 118150" d="M735.243,874.191l.055.725a2.279,2.279,0,0,1,1.864-.845,1.732,1.732,0,0,1,1.721.989,2.227,2.227,0,0,1,1.949-.989,1.931,1.931,0,0,1,1.57.615,2.82,2.82,0,0,1,.516,1.85v4.143h-1.738v-4.137a1.232,1.232,0,0,0-.216-.807.954.954,0,0,0-.761-.255,1.083,1.083,0,0,0-1.079.744l.006,4.454H737.4v-4.131a1.223,1.223,0,0,0-.222-.815.964.964,0,0,0-.755-.252,1.122,1.122,0,0,0-1.068.612v4.586h-1.733v-6.487Z" transform="translate(-702.488 -871.469)" fill="#00223d"/>
    </g>
    <g id="Grupo_55565" data-name="Grupo 55565" transform="translate(319.23 1918.671)">
      <path id="Trazado_118151" data-name="Trazado 118151" d="M915.291,875.815a4.676,4.676,0,0,0-.624-.048,1.27,1.27,0,0,0-1.289.665v4.245h-1.732v-6.487h1.636l.048.774a1.6,1.6,0,0,1,1.445-.893,1.833,1.833,0,0,1,.54.078Z" transform="translate(-911.645 -872.596)"/>
      <path id="Trazado_118152" data-name="Trazado 118152" d="M916.848,877.375a3.84,3.84,0,0,1,.371-1.721,2.711,2.711,0,0,1,1.071-1.169,3.119,3.119,0,0,1,1.622-.414,2.954,2.954,0,0,1,2.143.8,3.227,3.227,0,0,1,.926,2.182l.012.444a3.4,3.4,0,0,1-.833,2.4,3.232,3.232,0,0,1-4.476,0,3.45,3.45,0,0,1-.837-2.447Zm1.732.123a2.416,2.416,0,0,0,.348,1.414,1.249,1.249,0,0,0,1.979.006,2.662,2.662,0,0,0,.354-1.546,2.407,2.407,0,0,0-.354-1.405,1.153,1.153,0,0,0-1-.5,1.127,1.127,0,0,0-.983.5A2.69,2.69,0,0,0,918.58,877.5Z" transform="translate(-912.855 -872.596)"/>
      <path id="Trazado_118153" data-name="Trazado 118153" d="M930.119,880.055a2.176,2.176,0,0,1-1.775.779,2.048,2.048,0,0,1-1.592-.6,2.555,2.555,0,0,1-.561-1.757v-4.251h1.733v4.2q0,1.015.923,1.015a1.25,1.25,0,0,0,1.211-.612v-4.6H931.8v6.487h-1.631Z" transform="translate(-915.027 -872.632)"/>
      <path id="Trazado_118154" data-name="Trazado 118154" d="M937.09,872.149v1.595h1.11v1.271h-1.11v3.238a.769.769,0,0,0,.138.516.689.689,0,0,0,.528.156,2.733,2.733,0,0,0,.51-.042V880.2a3.584,3.584,0,0,1-1.05.156,1.653,1.653,0,0,1-1.858-1.84v-3.5h-.948v-1.271h.948v-1.595Z" transform="translate(-916.938 -872.149)"/>
      <path id="Trazado_118155" data-name="Trazado 118155" d="M943.521,880.8a3.179,3.179,0,0,1-2.323-.875,3.109,3.109,0,0,1-.9-2.332v-.168a3.919,3.919,0,0,1,.378-1.747,2.771,2.771,0,0,1,1.071-1.187,2.993,2.993,0,0,1,1.579-.417,2.692,2.692,0,0,1,2.1.84,3.409,3.409,0,0,1,.764,2.38V878h-4.131a1.606,1.606,0,0,0,.507,1.019,1.533,1.533,0,0,0,1.071.384,1.873,1.873,0,0,0,1.565-.725l.851.953a2.6,2.6,0,0,1-1.055.86A3.464,3.464,0,0,1,943.521,880.8Zm-.2-5.33a1.082,1.082,0,0,0-.837.349,1.809,1.809,0,0,0-.411,1h2.411v-.139a1.3,1.3,0,0,0-.312-.894A1.12,1.12,0,0,0,943.323,875.468Z" transform="translate(-918.308 -872.596)"/>
      <path id="Trazado_118156" data-name="Trazado 118156" d="M952.9,875.815a4.665,4.665,0,0,0-.624-.048,1.267,1.267,0,0,0-1.289.665v4.245h-1.733v-6.487h1.637l.048.774a1.6,1.6,0,0,1,1.445-.893,1.833,1.833,0,0,1,.539.078Z" transform="translate(-920.39 -872.596)"/>
    </g>
    <g id="Grupo_55566" data-name="Grupo 55566" transform="translate(416.34 1917.904)">
      <path id="Trazado_118157" data-name="Trazado 118157" d="M979.015,1055.353a.559.559,0,0,0-.315-.5,3.573,3.573,0,0,0-1.011-.327q-2.315-.486-2.314-1.967a1.781,1.781,0,0,1,.716-1.441,2.89,2.89,0,0,1,1.874-.579,3.116,3.116,0,0,1,1.975.581,1.834,1.834,0,0,1,.741,1.511h-1.733a.84.84,0,0,0-.24-.615,1.014,1.014,0,0,0-.749-.243,1.036,1.036,0,0,0-.678.2.625.625,0,0,0-.24.5.535.535,0,0,0,.273.465,2.822,2.822,0,0,0,.92.306,7.478,7.478,0,0,1,1.091.291,1.793,1.793,0,0,1,1.373,1.745,1.692,1.692,0,0,1-.761,1.436,3.284,3.284,0,0,1-1.967.549,3.438,3.438,0,0,1-1.447-.291,2.424,2.424,0,0,1-.992-.8,1.85,1.85,0,0,1-.36-1.094h1.643a.9.9,0,0,0,.341.708,1.353,1.353,0,0,0,.851.246,1.257,1.257,0,0,0,.753-.189A.589.589,0,0,0,979.015,1055.353Z" transform="translate(-975.171 -1047.936)" fill="#00223d"/>
      <path id="Trazado_118158" data-name="Trazado 118158" d="M989.319,1054.826l.851-4.131h1.673l-1.655,6.488h-1.451l-1.23-4.083-1.229,4.083h-1.445l-1.655-6.488h1.672l.846,4.125,1.187-4.125h1.253Z" transform="translate(-977.033 -1047.973)" fill="#00223d"/>
      <path id="Trazado_118159" data-name="Trazado 118159" d="M995.569,1048.236a.855.855,0,0,1,.261-.642,1.124,1.124,0,0,1,1.418,0,.915.915,0,0,1,0,1.289,1.112,1.112,0,0,1-1.409,0A.853.853,0,0,1,995.569,1048.236Zm1.841,8.167h-1.739v-6.487h1.739Z" transform="translate(-979.914 -1047.193)" fill="#00223d"/>
      <path id="Trazado_118160" data-name="Trazado 118160" d="M1001.718,1048.617v1.595h1.11v1.271h-1.11v3.238a.775.775,0,0,0,.138.516.694.694,0,0,0,.527.156,2.807,2.807,0,0,0,.51-.042v1.313a3.581,3.581,0,0,1-1.05.156,1.655,1.655,0,0,1-1.859-1.841v-3.5h-.947v-1.271h.947v-1.595Z" transform="translate(-980.721 -1047.49)" fill="#00223d"/>
      <path id="Trazado_118161" data-name="Trazado 118161" d="M1007.85,1055.869a1.135,1.135,0,0,0,.78-.264.927.927,0,0,0,.312-.7h1.625a2.215,2.215,0,0,1-.36,1.208,2.369,2.369,0,0,1-.968.852,3.045,3.045,0,0,1-1.358.3,2.817,2.817,0,0,1-2.194-.884,3.5,3.5,0,0,1-.8-2.444v-.114a3.462,3.462,0,0,1,.8-2.392,2.78,2.78,0,0,1,2.188-.893,2.725,2.725,0,0,1,1.952.692,2.454,2.454,0,0,1,.747,1.844h-1.625a1.2,1.2,0,0,0-.312-.823,1.16,1.16,0,0,0-1.706.125,2.553,2.553,0,0,0-.308,1.432v.18a2.589,2.589,0,0,0,.305,1.441A1.058,1.058,0,0,0,1007.85,1055.869Z" transform="translate(-982.079 -1047.936)" fill="#00223d"/>
      <path id="Trazado_118162" data-name="Trazado 118162" d="M1015.255,1050.578a2.163,2.163,0,0,1,1.733-.827q2.11,0,2.14,2.452v4.155H1017.4v-4.108a1.207,1.207,0,0,0-.239-.824,1.03,1.03,0,0,0-.8-.266,1.179,1.179,0,0,0-1.1.587v4.611h-1.733v-9.21h1.733Z" transform="translate(-984.088 -1047.148)" fill="#00223d"/>
    </g>
    <g id="Grupo_55567" data-name="Grupo 55567" transform="translate(494.96 1915.602)">
      <path id="Trazado_118163" data-name="Trazado 118163" d="M785.3,1171.124a1.912,1.912,0,0,1-.174-.582,2.1,2.1,0,0,1-1.637.7,2.3,2.3,0,0,1-1.579-.552,1.773,1.773,0,0,1-.627-1.391,1.835,1.835,0,0,1,.764-1.583,3.783,3.783,0,0,1,2.21-.558h.8v-.371a1.068,1.068,0,0,0-.23-.719.908.908,0,0,0-.729-.27,1.037,1.037,0,0,0-.686.209.715.715,0,0,0-.249.576h-1.733a1.742,1.742,0,0,1,.348-1.043,2.3,2.3,0,0,1,.983-.752,3.587,3.587,0,0,1,1.427-.273,2.831,2.831,0,0,1,1.9.6,2.109,2.109,0,0,1,.7,1.694v2.812a3.1,3.1,0,0,0,.258,1.4v.1Zm-1.434-1.206a1.5,1.5,0,0,0,.708-.17,1.12,1.12,0,0,0,.48-.459v-1.115H784.4q-1.3,0-1.385.9l-.006.1a.693.693,0,0,0,.228.534A.886.886,0,0,0,783.864,1169.918Z" transform="translate(-781.28 -1162.064)" fill="#00223d"/>
      <path id="Trazado_118164" data-name="Trazado 118164" d="M792.811,1169.846a1.137,1.137,0,0,0,.78-.263.926.926,0,0,0,.312-.7h1.625a2.217,2.217,0,0,1-.36,1.208,2.366,2.366,0,0,1-.968.851,3.034,3.034,0,0,1-1.358.3,2.815,2.815,0,0,1-2.194-.885,3.493,3.493,0,0,1-.8-2.443v-.114a3.461,3.461,0,0,1,.8-2.392,2.785,2.785,0,0,1,2.188-.893,2.729,2.729,0,0,1,1.952.692,2.456,2.456,0,0,1,.747,1.844H793.9a1.194,1.194,0,0,0-.312-.823,1.158,1.158,0,0,0-1.706.125,2.554,2.554,0,0,0-.308,1.432v.18a2.589,2.589,0,0,0,.305,1.441A1.056,1.056,0,0,0,792.811,1169.846Z" transform="translate(-783.271 -1162.064)" fill="#00223d"/>
      <path id="Trazado_118165" data-name="Trazado 118165" d="M801.155,1169.846a1.134,1.134,0,0,0,.779-.263.923.923,0,0,0,.312-.7h1.625a2.217,2.217,0,0,1-.36,1.208,2.373,2.373,0,0,1-.969.851,3.031,3.031,0,0,1-1.358.3,2.818,2.818,0,0,1-2.2-.885,3.5,3.5,0,0,1-.8-2.443v-.114a3.46,3.46,0,0,1,.8-2.392,2.785,2.785,0,0,1,2.188-.893,2.73,2.73,0,0,1,1.952.692,2.455,2.455,0,0,1,.747,1.844h-1.625a1.191,1.191,0,0,0-.312-.823,1.157,1.157,0,0,0-1.705.125,2.553,2.553,0,0,0-.309,1.432v.18a2.588,2.588,0,0,0,.306,1.441A1.056,1.056,0,0,0,801.155,1169.846Z" transform="translate(-785.211 -1162.064)" fill="#00223d"/>
      <path id="Trazado_118166" data-name="Trazado 118166" d="M809.8,1171.244a3.183,3.183,0,0,1-2.323-.876,3.113,3.113,0,0,1-.9-2.332v-.168a3.925,3.925,0,0,1,.378-1.748,2.773,2.773,0,0,1,1.071-1.187,3.011,3.011,0,0,1,1.579-.417,2.693,2.693,0,0,1,2.1.84,3.412,3.412,0,0,1,.764,2.38v.708h-4.131a1.608,1.608,0,0,0,.507,1.019,1.53,1.53,0,0,0,1.071.384,1.868,1.868,0,0,0,1.565-.725l.851.953a2.59,2.59,0,0,1-1.055.86A3.452,3.452,0,0,1,809.8,1171.244Zm-.2-5.331a1.083,1.083,0,0,0-.837.35,1.806,1.806,0,0,0-.411,1h2.41v-.138a1.285,1.285,0,0,0-.312-.894A1.117,1.117,0,0,0,809.6,1165.913Z" transform="translate(-787.162 -1162.064)" fill="#00223d"/>
      <path id="Trazado_118167" data-name="Trazado 118167" d="M818.944,1169.331a.559.559,0,0,0-.315-.5,3.6,3.6,0,0,0-1.01-.327q-2.315-.484-2.315-1.966a1.785,1.785,0,0,1,.717-1.442,2.891,2.891,0,0,1,1.873-.579,3.112,3.112,0,0,1,1.976.582,1.833,1.833,0,0,1,.741,1.511h-1.733a.84.84,0,0,0-.239-.615,1.015,1.015,0,0,0-.75-.243,1.036,1.036,0,0,0-.677.2.626.626,0,0,0-.24.5.532.532,0,0,0,.273.464,2.781,2.781,0,0,0,.92.305,7.71,7.71,0,0,1,1.091.291,1.794,1.794,0,0,1,1.373,1.745,1.694,1.694,0,0,1-.761,1.436,3.29,3.29,0,0,1-1.967.549,3.429,3.429,0,0,1-1.448-.291,2.432,2.432,0,0,1-.992-.8,1.855,1.855,0,0,1-.359-1.094h1.642a.9.9,0,0,0,.342.708,1.352,1.352,0,0,0,.851.246,1.251,1.251,0,0,0,.752-.189A.586.586,0,0,0,818.944,1169.331Z" transform="translate(-789.144 -1162.064)" fill="#00223d"/>
      <path id="Trazado_118168" data-name="Trazado 118168" d="M827.171,1169.331a.56.56,0,0,0-.315-.5,3.6,3.6,0,0,0-1.011-.327q-2.314-.484-2.314-1.966a1.784,1.784,0,0,1,.716-1.442,2.894,2.894,0,0,1,1.874-.579,3.113,3.113,0,0,1,1.975.582,1.833,1.833,0,0,1,.741,1.511H827.1a.839.839,0,0,0-.239-.615,1.016,1.016,0,0,0-.75-.243,1.037,1.037,0,0,0-.678.2.626.626,0,0,0-.239.5.533.533,0,0,0,.272.464,2.787,2.787,0,0,0,.92.305,7.68,7.68,0,0,1,1.091.291,1.794,1.794,0,0,1,1.373,1.745,1.693,1.693,0,0,1-.761,1.436,3.288,3.288,0,0,1-1.966.549,3.429,3.429,0,0,1-1.448-.291,2.422,2.422,0,0,1-.992-.8,1.85,1.85,0,0,1-.36-1.094h1.643a.9.9,0,0,0,.341.708,1.354,1.354,0,0,0,.851.246,1.255,1.255,0,0,0,.753-.189A.586.586,0,0,0,827.171,1169.331Z" transform="translate(-791.057 -1162.064)" fill="#00223d"/>
      <path id="Trazado_118169" data-name="Trazado 118169" d="M841.808,1167.94a3.889,3.889,0,0,1-.681,2.4,2.18,2.18,0,0,1-1.837.9,2.019,2.019,0,0,1-1.589-.684v3.058h-1.733v-8.983h1.607l.06.636a2.035,2.035,0,0,1,1.642-.756,2.2,2.2,0,0,1,1.865.887,4,4,0,0,1,.665,2.447Zm-1.733-.126a2.55,2.55,0,0,0-.321-1.4,1.044,1.044,0,0,0-.932-.492,1.136,1.136,0,0,0-1.121.624v2.656a1.153,1.153,0,0,0,1.133.641Q840.075,1169.846,840.075,1167.814Z" transform="translate(-793.996 -1162.064)" fill="#00223d"/>
      <path id="Trazado_118170" data-name="Trazado 118170" d="M844.624,1167.82A3.847,3.847,0,0,1,845,1166.1a2.726,2.726,0,0,1,1.071-1.17,3.122,3.122,0,0,1,1.622-.414,2.956,2.956,0,0,1,2.144.8,3.223,3.223,0,0,1,.926,2.183l.012.443a3.389,3.389,0,0,1-.834,2.4,3.23,3.23,0,0,1-4.476,0,3.449,3.449,0,0,1-.837-2.447Zm1.733.123a2.424,2.424,0,0,0,.348,1.414,1.25,1.25,0,0,0,1.979.006,2.649,2.649,0,0,0,.354-1.546,2.4,2.4,0,0,0-.354-1.405,1.15,1.15,0,0,0-1-.5,1.132,1.132,0,0,0-.983.5A2.7,2.7,0,0,0,846.357,1167.943Z" transform="translate(-796.009 -1162.064)" fill="#00223d"/>
      <path id="Trazado_118171" data-name="Trazado 118171" d="M854.007,1162.214a.853.853,0,0,1,.261-.642,1.124,1.124,0,0,1,1.417,0,.915.915,0,0,1,0,1.289,1.112,1.112,0,0,1-1.409,0A.853.853,0,0,1,854.007,1162.214Zm1.84,8.167h-1.738v-6.488h1.738Z" transform="translate(-798.191 -1161.321)" fill="#00223d"/>
      <path id="Trazado_118172" data-name="Trazado 118172" d="M859.849,1164.636l.054.75a2.266,2.266,0,0,1,1.865-.87,1.886,1.886,0,0,1,1.535.606,2.833,2.833,0,0,1,.516,1.811v4.191h-1.733v-4.15a1.128,1.128,0,0,0-.24-.8,1.072,1.072,0,0,0-.8-.249,1.192,1.192,0,0,0-1.1.624v4.575h-1.733v-6.488Z" transform="translate(-799.17 -1162.064)" fill="#00223d"/>
      <path id="Trazado_118173" data-name="Trazado 118173" d="M869.117,1162.594v1.595h1.109v1.272h-1.109v3.237a.77.77,0,0,0,.137.516.693.693,0,0,0,.528.156,2.723,2.723,0,0,0,.51-.042v1.313a3.576,3.576,0,0,1-1.049.156,1.654,1.654,0,0,1-1.859-1.841v-3.5h-.947v-1.272h.947v-1.595Z" transform="translate(-801.081 -1161.617)" fill="#00223d"/>
    </g>
    <g id="Grupo_55568" data-name="Grupo 55568" transform="translate(608.818 1914.834)">
      <path id="Trazado_118174" data-name="Trazado 118174" d="M652.6,1060.2a3.929,3.929,0,0,1-.665,2.431,2.2,2.2,0,0,1-1.859.873,2.025,2.025,0,0,1-1.685-.81l-.078.689h-1.559v-9.21h1.733v3.3a1.973,1.973,0,0,1,1.576-.7,2.222,2.222,0,0,1,1.862.873,3.934,3.934,0,0,1,.675,2.455Zm-1.733-.126a2.586,2.586,0,0,0-.312-1.436,1.056,1.056,0,0,0-.929-.453,1.143,1.143,0,0,0-1.139.678v2.56a1.159,1.159,0,0,0,1.151.683,1.069,1.069,0,0,0,1.1-.827A4.25,4.25,0,0,0,650.871,1060.074Z" transform="translate(-646.758 -1054.174)" fill="#00223d"/>
      <path id="Trazado_118175" data-name="Trazado 118175" d="M659.412,1059.31a4.791,4.791,0,0,0-.624-.048,1.27,1.27,0,0,0-1.289.665v4.245h-1.732v-6.487H657.4l.048.774a1.607,1.607,0,0,1,1.445-.893,1.81,1.81,0,0,1,.54.078Z" transform="translate(-648.853 -1054.962)" fill="#00223d"/>
      <path id="Trazado_118176" data-name="Trazado 118176" d="M661.586,1055.263a.853.853,0,0,1,.261-.642,1.124,1.124,0,0,1,1.418,0,.915.915,0,0,1,0,1.289,1.109,1.109,0,0,1-1.409,0A.849.849,0,0,1,661.586,1055.263Zm1.84,8.166h-1.738v-6.487h1.738Z" transform="translate(-650.206 -1054.219)" fill="#00223d"/>
      <path id="Trazado_118177" data-name="Trazado 118177" d="M665.492,1060.092a3.91,3.91,0,0,1,.681-2.416,2.208,2.208,0,0,1,1.862-.9,1.988,1.988,0,0,1,1.565.708v-3.31h1.738v9.21h-1.565l-.084-.689a2.04,2.04,0,0,1-1.667.81,2.2,2.2,0,0,1-1.837-.9A4.033,4.033,0,0,1,665.492,1060.092Zm1.733.129a2.559,2.559,0,0,0,.318,1.4,1.035,1.035,0,0,0,.923.487,1.16,1.16,0,0,0,1.134-.678v-2.563a1.143,1.143,0,0,0-1.121-.679Q667.225,1058.186,667.225,1060.221Z" transform="translate(-651.114 -1054.174)" fill="#00223d"/>
      <path id="Trazado_118178" data-name="Trazado 118178" d="M674.531,1060.88a3.8,3.8,0,0,1,.711-2.4,2.3,2.3,0,0,1,1.916-.911,2.02,2.02,0,0,1,1.661.731l.072-.612h1.571v6.272a2.775,2.775,0,0,1-.387,1.481,2.483,2.483,0,0,1-1.088.959,3.831,3.831,0,0,1-1.643.329,3.559,3.559,0,0,1-1.391-.285,2.461,2.461,0,0,1-1.025-.734l.768-1.055a2.031,2.031,0,0,0,1.571.726,1.484,1.484,0,0,0,1.073-.369,1.383,1.383,0,0,0,.384-1.046v-.348a2,2,0,0,1-1.576.678,2.3,2.3,0,0,1-1.892-.915,3.8,3.8,0,0,1-.723-2.425Zm1.733.129a2.364,2.364,0,0,0,.354,1.385,1.125,1.125,0,0,0,.972.5,1.2,1.2,0,0,0,1.133-.594v-2.733a1.2,1.2,0,0,0-1.121-.594,1.131,1.131,0,0,0-.98.51A2.666,2.666,0,0,0,676.264,1061.009Z" transform="translate(-653.216 -1054.962)" fill="#00223d"/>
      <path id="Trazado_118179" data-name="Trazado 118179" d="M686.908,1064.293a3.185,3.185,0,0,1-2.324-.876,3.112,3.112,0,0,1-.9-2.332v-.168a3.923,3.923,0,0,1,.378-1.748,2.775,2.775,0,0,1,1.07-1.187,3.012,3.012,0,0,1,1.58-.417,2.693,2.693,0,0,1,2.1.84,3.41,3.41,0,0,1,.764,2.38v.708h-4.131a1.608,1.608,0,0,0,.507,1.019,1.528,1.528,0,0,0,1.07.384,1.868,1.868,0,0,0,1.565-.725l.852.953a2.591,2.591,0,0,1-1.055.86A3.453,3.453,0,0,1,686.908,1064.293Zm-.2-5.331a1.086,1.086,0,0,0-.837.349,1.818,1.818,0,0,0-.411,1h2.411v-.139a1.29,1.29,0,0,0-.312-.894A1.118,1.118,0,0,0,686.71,1058.962Z" transform="translate(-655.345 -1054.962)" fill="#00223d"/>
    </g>
    <path id="Línea_1814" data-name="Línea 1814" d="M0,94.132a.5.5,0,0,1-.5-.5V90a.5.5,0,0,1,.5-.5.5.5,0,0,1,.5.5v3.632A.5.5,0,0,1,0,94.132ZM0,85.5A.5.5,0,0,1-.5,85V80a.5.5,0,0,1,.5-.5.5.5,0,0,1,.5.5v5A.5.5,0,0,1,0,85.5Zm0-10A.5.5,0,0,1-.5,75V70a.5.5,0,0,1,.5-.5.5.5,0,0,1,.5.5v5A.5.5,0,0,1,0,75.5Zm0-10A.5.5,0,0,1-.5,65V60a.5.5,0,0,1,.5-.5.5.5,0,0,1,.5.5v5A.5.5,0,0,1,0,65.5Zm0-10A.5.5,0,0,1-.5,55V50a.5.5,0,0,1,.5-.5.5.5,0,0,1,.5.5v5A.5.5,0,0,1,0,55.5Zm0-10A.5.5,0,0,1-.5,45V40a.5.5,0,0,1,.5-.5.5.5,0,0,1,.5.5v5A.5.5,0,0,1,0,45.5Zm0-10A.5.5,0,0,1-.5,35V30a.5.5,0,0,1,.5-.5.5.5,0,0,1,.5.5v5A.5.5,0,0,1,0,35.5Zm0-10A.5.5,0,0,1-.5,25V20a.5.5,0,0,1,.5-.5.5.5,0,0,1,.5.5v5A.5.5,0,0,1,0,25.5Zm0-10A.5.5,0,0,1-.5,15V10A.5.5,0,0,1,0,9.5a.5.5,0,0,1,.5.5v5A.5.5,0,0,1,0,15.5Zm0-10A.5.5,0,0,1-.5,5V0A.5.5,0,0,1,0-.5.5.5,0,0,1,.5,0V5A.5.5,0,0,1,0,5.5Z" transform="translate(283.07 1839.237)" fill="#083142"/>
    <path id="Línea_1815" data-name="Línea 1815" d="M0,94.132a.5.5,0,0,1-.5-.5V90a.5.5,0,0,1,.5-.5.5.5,0,0,1,.5.5v3.632A.5.5,0,0,1,0,94.132ZM0,85.5A.5.5,0,0,1-.5,85V80a.5.5,0,0,1,.5-.5.5.5,0,0,1,.5.5v5A.5.5,0,0,1,0,85.5Zm0-10A.5.5,0,0,1-.5,75V70a.5.5,0,0,1,.5-.5.5.5,0,0,1,.5.5v5A.5.5,0,0,1,0,75.5Zm0-10A.5.5,0,0,1-.5,65V60a.5.5,0,0,1,.5-.5.5.5,0,0,1,.5.5v5A.5.5,0,0,1,0,65.5Zm0-10A.5.5,0,0,1-.5,55V50a.5.5,0,0,1,.5-.5.5.5,0,0,1,.5.5v5A.5.5,0,0,1,0,55.5Zm0-10A.5.5,0,0,1-.5,45V40a.5.5,0,0,1,.5-.5.5.5,0,0,1,.5.5v5A.5.5,0,0,1,0,45.5Zm0-10A.5.5,0,0,1-.5,35V30a.5.5,0,0,1,.5-.5.5.5,0,0,1,.5.5v5A.5.5,0,0,1,0,35.5Zm0-10A.5.5,0,0,1-.5,25V20a.5.5,0,0,1,.5-.5.5.5,0,0,1,.5.5v5A.5.5,0,0,1,0,25.5Zm0-10A.5.5,0,0,1-.5,15V10A.5.5,0,0,1,0,9.5a.5.5,0,0,1,.5.5v5A.5.5,0,0,1,0,15.5Zm0-10A.5.5,0,0,1-.5,5V0A.5.5,0,0,1,0-.5.5.5,0,0,1,.5,0V5A.5.5,0,0,1,0,5.5Z" transform="translate(382.414 1839.237)" fill="#083142"/>
    <path id="Línea_1816" data-name="Línea 1816" d="M0,94.132a.5.5,0,0,1-.5-.5V90a.5.5,0,0,1,.5-.5.5.5,0,0,1,.5.5v3.632A.5.5,0,0,1,0,94.132ZM0,85.5A.5.5,0,0,1-.5,85V80a.5.5,0,0,1,.5-.5.5.5,0,0,1,.5.5v5A.5.5,0,0,1,0,85.5Zm0-10A.5.5,0,0,1-.5,75V70a.5.5,0,0,1,.5-.5.5.5,0,0,1,.5.5v5A.5.5,0,0,1,0,75.5Zm0-10A.5.5,0,0,1-.5,65V60a.5.5,0,0,1,.5-.5.5.5,0,0,1,.5.5v5A.5.5,0,0,1,0,65.5Zm0-10A.5.5,0,0,1-.5,55V50a.5.5,0,0,1,.5-.5.5.5,0,0,1,.5.5v5A.5.5,0,0,1,0,55.5Zm0-10A.5.5,0,0,1-.5,45V40a.5.5,0,0,1,.5-.5.5.5,0,0,1,.5.5v5A.5.5,0,0,1,0,45.5Zm0-10A.5.5,0,0,1-.5,35V30a.5.5,0,0,1,.5-.5.5.5,0,0,1,.5.5v5A.5.5,0,0,1,0,35.5Zm0-10A.5.5,0,0,1-.5,25V20a.5.5,0,0,1,.5-.5.5.5,0,0,1,.5.5v5A.5.5,0,0,1,0,25.5Zm0-10A.5.5,0,0,1-.5,15V10A.5.5,0,0,1,0,9.5a.5.5,0,0,1,.5.5v5A.5.5,0,0,1,0,15.5Zm0-10A.5.5,0,0,1-.5,5V0A.5.5,0,0,1,0-.5.5.5,0,0,1,.5,0V5A.5.5,0,0,1,0,5.5Z" transform="translate(482.586 1839.237)" fill="#083142"/>
    <path id="Línea_1817" data-name="Línea 1817" d="M0,94.132a.5.5,0,0,1-.5-.5V90a.5.5,0,0,1,.5-.5.5.5,0,0,1,.5.5v3.632A.5.5,0,0,1,0,94.132ZM0,85.5A.5.5,0,0,1-.5,85V80a.5.5,0,0,1,.5-.5.5.5,0,0,1,.5.5v5A.5.5,0,0,1,0,85.5Zm0-10A.5.5,0,0,1-.5,75V70a.5.5,0,0,1,.5-.5.5.5,0,0,1,.5.5v5A.5.5,0,0,1,0,75.5Zm0-10A.5.5,0,0,1-.5,65V60a.5.5,0,0,1,.5-.5.5.5,0,0,1,.5.5v5A.5.5,0,0,1,0,65.5Zm0-10A.5.5,0,0,1-.5,55V50a.5.5,0,0,1,.5-.5.5.5,0,0,1,.5.5v5A.5.5,0,0,1,0,55.5Zm0-10A.5.5,0,0,1-.5,45V40a.5.5,0,0,1,.5-.5.5.5,0,0,1,.5.5v5A.5.5,0,0,1,0,45.5Zm0-10A.5.5,0,0,1-.5,35V30a.5.5,0,0,1,.5-.5.5.5,0,0,1,.5.5v5A.5.5,0,0,1,0,35.5Zm0-10A.5.5,0,0,1-.5,25V20a.5.5,0,0,1,.5-.5.5.5,0,0,1,.5.5v5A.5.5,0,0,1,0,25.5Zm0-10A.5.5,0,0,1-.5,15V10A.5.5,0,0,1,0,9.5a.5.5,0,0,1,.5.5v5A.5.5,0,0,1,0,15.5Zm0-10A.5.5,0,0,1-.5,5V0A.5.5,0,0,1,0-.5.5.5,0,0,1,.5,0V5A.5.5,0,0,1,0,5.5Z" transform="translate(581.93 1839.57)" fill="#083142"/>
    <text id="Grupos_globales" data-name="Grupos globales" transform="translate(193 1793)" fill="#ff6148" font-size="16" font-family="SegoeUI-Bold, Segoe UI" font-weight="700"><tspan x="-60.738" y="17">Grupos globales</tspan></text>
  </g>
</svg>
