<svg xmlns="http://www.w3.org/2000/svg" xmlns:xlink="http://www.w3.org/1999/xlink" width="90.09" height="90.09" viewBox="0 0 90.09 90.09">
  <defs>
    <clipPath id="clip-path">
      <path id="path6700" d="M0-682.665H90.09v90.09H0Z" transform="translate(0 682.665)"/>
    </clipPath>
  </defs>
  <g id="g6690" transform="translate(0 682.665)">
    <g id="g6692" transform="translate(5.192 -677.474)">
      <path id="path6694" d="M-84.2-177.171-70.068-191.3l-12.8-12.8L-97-189.972Z" transform="translate(97.004 204.106)" fill="#a2e62e"/>
    </g>
    <g id="g6696" transform="translate(0 -682.665)">
      <g id="g6698" clip-path="url(#clip-path)">
        <g id="g6704" transform="translate(3.589 16.546)">
          <path id="path6706" d="M-113.028-135.58h0a5.523,5.523,0,0,1-7.811,0l-6.948-6.948a8.278,8.278,0,0,1,0-11.706l1.958-1.958,12.8,12.8a5.523,5.523,0,0,1,0,7.811" transform="translate(130.212 156.193)" fill="#bbec6c"/>
        </g>
        <g id="g6708" transform="translate(3.589 16.546)">
          <path id="path6710" d="M-120.893-123.839a5.5,5.5,0,0,1-1.195,1.786,5.524,5.524,0,0,1-7.812,0L-136.847-129a8.275,8.275,0,0,1,0-11.706l1.957-1.958.091.092a8.275,8.275,0,0,0,.936,10.589l6.947,6.949a5.528,5.528,0,0,0,6.023,1.2" transform="translate(139.273 142.666)" fill="#a2e62e"/>
        </g>
        <g id="g6712" transform="translate(5.191 57.963)">
          <path id="path6714" d="M-177.171-92.967-191.3-107.1l-12.8,12.8,14.134,14.134Z" transform="translate(204.106 107.101)" fill="#5f99d7"/>
        </g>
        <g id="g6716" transform="translate(16.546 67.7)">
          <path id="path6718" d="M-135.58-10.64h0a5.523,5.523,0,0,1,0,7.811l-6.948,6.948a8.278,8.278,0,0,1-11.706,0l-1.958-1.958,12.8-12.8a5.523,5.523,0,0,1,7.811,0" transform="translate(156.193 12.258)" fill="#7bacdf"/>
        </g>
        <g id="g6720" transform="translate(16.545 67.7)">
          <path id="path6722" d="M-142.311-19.915a5.519,5.519,0,0,0-6.4,1.019L-161.5-6.115c-.167-.141-.331-.292-.489-.45l-1.958-1.958,12.8-12.8a5.528,5.528,0,0,1,7.813,0,5.454,5.454,0,0,1,1.022,1.411" transform="translate(163.946 22.943)" fill="#5f99d7"/>
        </g>
        <g id="g6724" transform="translate(57.963 5.192)">
          <path id="path6726" d="M0-84.2,14.134-70.068l12.8-12.8L12.8-97Z" transform="translate(0 97.004)" fill="#dedbee"/>
        </g>
        <g id="g6728" transform="translate(51.314 3.589)">
          <path id="path6730" d="M-10.641-113.028h0a5.523,5.523,0,0,1,0-7.811l6.948-6.948a8.278,8.278,0,0,1,11.706,0l1.958,1.958-12.8,12.8a5.523,5.523,0,0,1-7.811,0" transform="translate(12.259 130.212)" fill="#faf7f7"/>
        </g>
        <g id="g6732" transform="translate(51.314 3.588)">
          <path id="path6734" d="M-22.389-120.893a5.5,5.5,0,0,1-1.786-1.195,5.525,5.525,0,0,1,0-7.813l6.949-6.947a8.275,8.275,0,0,1,11.706,0l1.958,1.957-.092.091a8.275,8.275,0,0,0-10.589.936l-6.949,6.947a5.528,5.528,0,0,0-1.2,6.023" transform="translate(25.793 139.273)" fill="#dedbee"/>
        </g>
        <g id="g6736" transform="translate(57.963 57.963)">
          <path id="path6738" d="M-92.967,0-107.1,14.134l12.8,12.8L-80.166,12.8Z" transform="translate(107.101)" fill="#fd4755"/>
        </g>
        <g id="g6740" transform="translate(67.7 51.314)">
          <path id="path6742" d="M-10.64-10.641h0a5.523,5.523,0,0,1,7.811,0L4.119-3.693a8.278,8.278,0,0,1,0,11.706L2.161,9.971l-12.8-12.8a5.523,5.523,0,0,1,0-7.811" transform="translate(12.258 12.259)" fill="#fe646f"/>
        </g>
        <g id="g6744" transform="translate(67.7 51.909)">
          <path id="path6746" d="M-19.915,0A5.519,5.519,0,0,0-18.9,6.4L-6.115,19.188c-.141.167-.292.331-.45.489l-1.958,1.958-12.8-12.8a5.528,5.528,0,0,1,0-7.813A5.454,5.454,0,0,1-19.915,0" transform="translate(22.943)" fill="#fd4755"/>
        </g>
        <g id="g6748" transform="translate(3.523 3.523)">
          <path id="path6750" d="M-251.772-8.84l-36.933,36.933a4.589,4.589,0,0,0,0,6.489l36.933,36.933a4.589,4.589,0,0,0,6.489,0l36.934-36.933a4.589,4.589,0,0,0,0-6.489L-245.283-8.84a4.588,4.588,0,0,0-6.489,0" transform="translate(290.049 10.184)" fill="#b98080"/>
        </g>
        <g id="g6752" transform="translate(3.524 3.522)">
          <path id="path6754" d="M-61.011-294.449-24.8-258.237l-.721.721a4.587,4.587,0,0,1-6.489,0l-36.933-36.934a4.588,4.588,0,0,1,0-6.488L-32.01-337.87a4.587,4.587,0,0,1,6.489,0l.721.722-36.212,36.212a4.588,4.588,0,0,0,0,6.488" transform="translate(70.286 339.215)" fill="#ae6c6c"/>
        </g>
        <g id="g6756" transform="translate(31.376 38.177)">
          <path id="path6758" d="M-70.111-163.729-80.77-174.388l14.233-14.233,10.659,10.659Z" transform="translate(80.77 188.621)" fill="#dedbee"/>
        </g>
        <g id="g6760" transform="translate(35.427 36.856)">
          <path id="path6762" d="M-9.726-43.281a1.316,1.316,0,0,1-.933-.387l-5.288-5.288a1.32,1.32,0,0,1,0-1.866,1.32,1.32,0,0,1,1.866,0l4.354,4.354L2.641-58.834l-8.793-8.793-7.092,7.092a1.32,1.32,0,0,1-1.866,0,1.32,1.32,0,0,1,0-1.866l8.025-8.025a1.32,1.32,0,0,1,1.866,0L5.44-59.767a1.32,1.32,0,0,1,.387.933,1.32,1.32,0,0,1-.387.933L-8.793-43.668A1.316,1.316,0,0,1-9.726-43.281Z" transform="translate(16.333 70.813)"/>
        </g>
        <g id="g6764" transform="translate(18.062 40.914)">
          <path id="path6766" d="M-70.111-163.73-80.77-174.389l14.233-14.233,10.659,10.659Z" transform="translate(80.77 188.622)" fill="#faf7f7"/>
        </g>
        <g id="g6768" transform="translate(20.895 39.594)">
          <path id="path6770" d="M-2.175-121.8a1.315,1.315,0,0,1-.933-.387l-6.505-6.505a1.32,1.32,0,0,1,0-1.866,1.32,1.32,0,0,1,1.866,0l5.572,5.572,7.094-7.092,5.273-5.275L1.4-146.147l-8.4,8.4a1.32,1.32,0,0,1-1.866,0,1.32,1.32,0,0,1,0-1.866l9.333-9.333a1.32,1.32,0,0,1,.933-.387h0a1.32,1.32,0,0,1,.933.387l10.658,10.66a1.32,1.32,0,0,1,0,1.866l-6.206,6.208-8.027,8.026A1.316,1.316,0,0,1-2.175-121.8Z" transform="translate(10 149.333)"/>
        </g>
        <g id="g6772" transform="translate(61.15 34.113)">
          <path id="path6774" d="M-132.84,28.251a1.315,1.315,0,0,1-.933-.386,1.32,1.32,0,0,1,0-1.866L-111.02,3.244a3.247,3.247,0,0,0,.957-2.312,3.247,3.247,0,0,0-.957-2.311l-6.368-6.368a1.32,1.32,0,0,1,0-1.866,1.32,1.32,0,0,1,1.866,0l6.368,6.368a5.869,5.869,0,0,1,1.73,4.178,5.869,5.869,0,0,1-1.73,4.178l-22.753,22.755A1.316,1.316,0,0,1-132.84,28.251Z" transform="translate(134.16 10)"/>
        </g>
        <g id="g6776" transform="translate(2.204 17.728)">
          <path id="path6778" d="M-59.4-241.59a1.316,1.316,0,0,1-.933-.387l-6.368-6.368a5.869,5.869,0,0,1-1.73-4.178A5.869,5.869,0,0,1-66.7-256.7l22.755-22.753a1.32,1.32,0,0,1,1.866,0,1.32,1.32,0,0,1,0,1.866l-22.755,22.753a3.247,3.247,0,0,0-.957,2.311,3.247,3.247,0,0,0,.957,2.311l6.368,6.368a1.32,1.32,0,0,1,0,1.866A1.316,1.316,0,0,1-59.4-241.59Z" transform="translate(68.433 279.839)"/>
        </g>
        <g id="g6780" transform="translate(17.728 61.151)">
          <path id="path6782" d="M17.317,16.736a5.869,5.869,0,0,1-4.178-1.73L-9.613-7.747a1.32,1.32,0,0,1,0-1.866,1.32,1.32,0,0,1,1.866,0L15.006,13.14a3.27,3.27,0,0,0,4.623,0L26,6.772a1.32,1.32,0,0,1,1.866,1.866L21.5,15.006A5.869,5.869,0,0,1,17.317,16.736Z" transform="translate(10 10)"/>
        </g>
        <g id="g6784" transform="translate(34.113 2.204)">
          <path id="path6786" d="M26.932-41.7A1.316,1.316,0,0,1,26-42.082L3.244-64.837a3.247,3.247,0,0,0-2.312-.957,3.247,3.247,0,0,0-2.311.957l-6.368,6.368a1.32,1.32,0,0,1-1.866,0,1.32,1.32,0,0,1,0-1.866L-3.246-66.7a5.869,5.869,0,0,1,4.178-1.73A5.869,5.869,0,0,1,5.11-66.7L27.865-43.948a1.32,1.32,0,0,1,0,1.866A1.316,1.316,0,0,1,26.932-41.7Z" transform="translate(10 68.433)"/>
        </g>
        <g id="g6788" transform="translate(77.535 53.338)">
          <path id="path6790" d="M-2.188,7.935A1.313,1.313,0,0,1-2.86,7.75a1.32,1.32,0,0,1-.462-1.808A6.951,6.951,0,0,0-4.39-2.524L-9.613-7.747a1.32,1.32,0,0,1,0-1.866,1.32,1.32,0,0,1,1.866,0L-2.524-4.39A9.589,9.589,0,0,1-1.052,7.289,1.319,1.319,0,0,1-2.188,7.935Z" transform="translate(10 10)"/>
        </g>
        <g id="g6792" transform="translate(69.723 61.15)">
          <path id="path6794" d="M-3.96-2.64a1.316,1.316,0,0,1-.933-.387L-9.613-7.747a1.32,1.32,0,0,1,0-1.866,1.32,1.32,0,0,1,1.866,0l4.721,4.721a1.32,1.32,0,0,1,0,1.866A1.316,1.316,0,0,1-3.96-2.64Z" transform="translate(10 10)"/>
        </g>
        <g id="g6796" transform="translate(48.868 65.253)">
          <path id="path6798" d="M-10.64-10.641h0a5.523,5.523,0,0,0,0,7.811l9.4,9.4a8.278,8.278,0,0,0,11.706,0l1.958-1.958L-2.829-10.641a5.523,5.523,0,0,0-7.811,0" transform="translate(12.258 12.259)" fill="#fe646f"/>
        </g>
        <g id="g6800" transform="translate(48.867 65.851)">
          <path id="path6802" d="M-19.9,0A5.52,5.52,0,0,0-18.88,6.4L-9.486,15.8a8.275,8.275,0,0,0,11.217.452l.019.019L-.208,18.227a8.278,8.278,0,0,1-11.706,0l-9.394-9.4a5.522,5.522,0,0,1,0-7.811A5.442,5.442,0,0,1-19.9,0" transform="translate(22.927 0)" fill="#fd4755"/>
        </g>
        <g id="g6804" transform="translate(47.551 63.934)">
          <path id="path6806" d="M-151.566-138.38a9.591,9.591,0,0,1-6.791-2.815l-9.4-9.4a6.85,6.85,0,0,1,0-9.676,6.8,6.8,0,0,1,4.839-2.005h0a6.8,6.8,0,0,1,4.838,2l8.893,8.893a1.32,1.32,0,0,1,0,1.866,1.32,1.32,0,0,1-1.866,0l-8.893-8.893a4.168,4.168,0,0,0-2.972-1.231,4.179,4.179,0,0,0-2.974,1.232,4.208,4.208,0,0,0,0,5.944l9.4,9.4a6.951,6.951,0,0,0,8.466,1.069,1.32,1.32,0,0,1,1.808.462,1.32,1.32,0,0,1-.462,1.808A9.565,9.565,0,0,1-151.566-138.38Z" transform="translate(169.753 162.273)"/>
        </g>
        <g id="g6808" transform="translate(66.985 66.985)">
          <path id="path6810" d="M-20.986-122.313a10.893,10.893,0,0,1,0-15.4,10.893,10.893,0,0,1,15.4,0c.165.165.325.334.475.507-1.448,2.273,0,9.449-2.961,12.411s-10.047,1.151-12.413,2.96c-.173-.15-.341-.308-.506-.473" transform="translate(24.177 140.909)" fill="#ffdfcf"/>
        </g>
        <g id="g6812" transform="translate(66.984 68.358)">
          <path id="path6814" d="M-89.54-105.876c-3.389.973-8.078.194-9.917,1.6-.172-.151-.341-.31-.505-.473a10.892,10.892,0,0,1,0-15.405,10.914,10.914,0,0,1,2.4-1.818,10.893,10.893,0,0,0,1.812,13.009c.165.165.333.324.505.473a10.827,10.827,0,0,0,5.7,2.615" transform="translate(103.153 121.973)" fill="#ffcebf"/>
        </g>
        <g id="g6816" transform="translate(70.681 70.683)">
          <path id="path6818" d="M0-101.1a16.063,16.063,0,0,1,4.706-10.666,16.049,16.049,0,0,1,10.668-4.7,10.891,10.891,0,0,1-.475,14.9A10.892,10.892,0,0,1,0-101.1" transform="translate(0 116.472)" fill="#ffd15b"/>
        </g>
        <g id="g6820" transform="translate(70.68 79.065)">
          <path id="path6822" d="M-109.95-27.071a10.851,10.851,0,0,1-1.816,2.4,10.893,10.893,0,0,1-14.9.473,16.1,16.1,0,0,1,1.948-6.989,10.823,10.823,0,0,0,1.76,2.3c.165.165.333.324.5.473a10.9,10.9,0,0,0,12.5,1.341" transform="translate(126.666 31.187)" fill="#ffc344"/>
        </g>
        <g id="g6824" transform="translate(65.67 65.665)">
          <path id="path6826" d="M-21.926-126.484a12.133,12.133,0,0,1-8.636-3.577,12.227,12.227,0,0,1,0-17.271,12.133,12.133,0,0,1,8.636-3.577,12.133,12.133,0,0,1,8.636,3.577A12.132,12.132,0,0,1-9.713-138.7a12.133,12.133,0,0,1-3.577,8.636A12.133,12.133,0,0,1-21.926-126.484Zm0-21.786a9.51,9.51,0,0,0-6.769,2.8,9.584,9.584,0,0,0,0,13.539,9.511,9.511,0,0,0,6.769,2.8,9.511,9.511,0,0,0,6.769-2.8,9.51,9.51,0,0,0,2.8-6.769,9.51,9.51,0,0,0-2.8-6.769A9.51,9.51,0,0,0-21.926-148.271Z" transform="translate(34.133 150.91)"/>
        </g>
        <g id="g6828" transform="translate(69.363 69.363)">
          <path id="path6830" d="M-125.163,8.011h-.06a1.32,1.32,0,0,1-1.26-1.377,17.382,17.382,0,0,1,5.089-11.542A17.382,17.382,0,0,1-109.851-10a1.32,1.32,0,0,1,1.377,1.26,1.32,1.32,0,0,1-1.26,1.377,14.749,14.749,0,0,0-9.794,4.319,14.749,14.749,0,0,0-4.319,9.794A1.32,1.32,0,0,1-125.163,8.011Z" transform="translate(126.484 10)"/>
        </g>
        <g id="g6832" transform="translate(53.338 2.264)">
          <path id="path6834" d="M-8.68-57.689a1.316,1.316,0,0,1-.933-.387,1.32,1.32,0,0,1,0-1.866l5.223-5.223A9.589,9.589,0,0,1,7.289-66.637a1.32,1.32,0,0,1,.462,1.808,1.32,1.32,0,0,1-1.808.462A6.951,6.951,0,0,0-2.524-63.3l-5.223,5.223A1.316,1.316,0,0,1-8.68-57.689Z" transform="translate(10 67.98)"/>
        </g>
        <g id="g6836" transform="translate(61.15 13.007)">
          <path id="path6838" d="M-8.68-38.411a1.315,1.315,0,0,1-.933-.387,1.32,1.32,0,0,1,0-1.866l4.721-4.721a1.32,1.32,0,0,1,1.866,0,1.32,1.32,0,0,1,0,1.866L-7.747-38.8A1.316,1.316,0,0,1-8.68-38.411Z" transform="translate(10 45.771)"/>
        </g>
        <g id="g6840" transform="translate(65.253 16.546)">
          <path id="path6842" d="M-10.64-151.674h0a5.523,5.523,0,0,0,7.811,0l9.4-9.4a8.278,8.278,0,0,0,0-11.706l-1.958-1.958L-10.64-159.485a5.523,5.523,0,0,0,0,7.811" transform="translate(12.258 174.733)" fill="#faf7f7"/>
        </g>
        <g id="g6844" transform="translate(65.253 16.544)">
          <path id="path6846" d="M-22.4-159.544a5.512,5.512,0,0,1-1.788-1.2,5.522,5.522,0,0,1,0-7.811L-8.94-183.8l1.958,1.958a8.2,8.2,0,0,1,.936,1.116L-21.2-165.567a5.522,5.522,0,0,0-1.2,6.023" transform="translate(25.807 183.8)" fill="#dedbee"/>
        </g>
        <g id="g6848" transform="translate(63.933 18.817)">
          <path id="path6850" d="M-155.429,13.72a6.821,6.821,0,0,1-4.838-2,6.8,6.8,0,0,1-2.005-4.839,6.8,6.8,0,0,1,2-4.839l8.893-8.893a1.32,1.32,0,0,1,1.866,0,1.32,1.32,0,0,1,0,1.866L-158.4,3.908a4.174,4.174,0,0,0-1.231,2.972A4.179,4.179,0,0,0-158.4,9.853a4.208,4.208,0,0,0,5.944,0l9.4-9.4a6.951,6.951,0,0,0,1.069-8.466,1.32,1.32,0,0,1,.462-1.808,1.32,1.32,0,0,1,1.808.462A9.589,9.589,0,0,1-141.2,2.324l-9.4,9.4A6.821,6.821,0,0,1-155.429,13.72Z" transform="translate(162.273 10.002)"/>
        </g>
        <g id="g6852" transform="translate(66.984 4.036)">
          <path id="path6854" d="M-122.313-104.449a10.893,10.893,0,0,1-15.4,0,10.893,10.893,0,0,1,0-15.4c.165-.165.334-.325.507-.475,2.273,1.448,9.449,0,12.411,2.961s1.151,10.047,2.96,12.413c-.15.173-.308.341-.473.506" transform="translate(140.909 120.329)" fill="#d78878"/>
        </g>
        <g id="g6856" transform="translate(66.984 4.035)">
          <path id="path6858" d="M-34.889-115.3A10.9,10.9,0,0,1-37-116.946a10.892,10.892,0,0,1,0-15.405c.165-.165.334-.326.507-.475,1.577,1,5.507.616,8.759,1.27a10.817,10.817,0,0,0-5,2.492c-.174.151-.343.311-.509.475A10.893,10.893,0,0,0-34.889-115.3" transform="translate(40.193 132.826)" fill="#ca6e59"/>
        </g>
        <g id="g6860" transform="translate(70.682 1.32)">
          <path id="path6862" d="M-101.1-118.986a16.063,16.063,0,0,1-10.666-4.706,16.049,16.049,0,0,1-4.7-10.668,10.891,10.891,0,0,1,14.9.475,10.891,10.891,0,0,1,.473,14.9" transform="translate(116.472 137.076)" fill="#7a6d79"/>
        </g>
        <g id="g6864" transform="translate(70.682 1.32)">
          <path id="path6866" d="M-10.6-59.573a16.057,16.057,0,0,1-1.612-6.342,10.892,10.892,0,0,1,14.9.475,10.894,10.894,0,0,1,1.649,2.113A10.893,10.893,0,0,0-8.45-62.152c-.174.151-.343.311-.509.475a10.828,10.828,0,0,0-1.643,2.1" transform="translate(12.213 68.629)" fill="#685e68"/>
        </g>
        <g id="g6868" transform="translate(65.665 0)">
          <path id="path6870" d="M-138.7-126.484a12.133,12.133,0,0,1-8.636-3.577,12.133,12.133,0,0,1-3.577-8.636,12.133,12.133,0,0,1,3.577-8.636,12.132,12.132,0,0,1,8.636-3.577,12.133,12.133,0,0,1,8.636,3.577,12.227,12.227,0,0,1,0,17.271A12.133,12.133,0,0,1-138.7-126.484Zm0-21.786a9.51,9.51,0,0,0-6.769,2.8,9.51,9.51,0,0,0-2.8,6.769,9.51,9.51,0,0,0,2.8,6.769,9.511,9.511,0,0,0,6.769,2.8,9.511,9.511,0,0,0,6.769-2.8,9.584,9.584,0,0,0,0-13.539A9.51,9.51,0,0,0-138.7-148.271Z" transform="translate(150.91 150.91)"/>
        </g>
        <g id="g6872" transform="translate(69.363 2.716)">
          <path id="path6874" d="M6.693,8.011h-.06A17.382,17.382,0,0,1-4.909,2.921,17.382,17.382,0,0,1-10-8.622,1.32,1.32,0,0,1-8.739-10a1.32,1.32,0,0,1,1.377,1.26A14.749,14.749,0,0,0-3.043,1.054,14.749,14.749,0,0,0,6.75,5.373a1.32,1.32,0,0,1-.058,2.638Z" transform="translate(10 10)"/>
        </g>
        <g id="g6876" transform="translate(18.817 77.535)">
          <path id="path6878" d="M-120.37.291a9.564,9.564,0,0,1-4.888-1.343,1.32,1.32,0,0,1-.462-1.808,1.32,1.32,0,0,1,1.808-.462,6.951,6.951,0,0,0,8.466-1.069l5.223-5.223a1.32,1.32,0,0,1,1.866,0,1.32,1.32,0,0,1,0,1.866l-5.223,5.223A9.592,9.592,0,0,1-120.37.291Z" transform="translate(125.905 10)"/>
        </g>
        <g id="g6880" transform="translate(21.58 69.723)">
          <path id="path6882" d="M-44.452-2.64a1.316,1.316,0,0,1-.933-.387,1.32,1.32,0,0,1,0-1.866l4.721-4.721a1.32,1.32,0,0,1,1.866,0,1.32,1.32,0,0,1,0,1.866l-4.721,4.721A1.316,1.316,0,0,1-44.452-2.64Z" transform="translate(45.772 10)"/>
        </g>
        <g id="g6884" transform="translate(3.589 48.868)">
          <path id="path6886" d="M-129.121-10.64h0a5.523,5.523,0,0,0-7.811,0l-9.4,9.4a8.278,8.278,0,0,0,0,11.706l1.958,1.958,15.248-15.248a5.523,5.523,0,0,0,0-7.811" transform="translate(148.752 12.258)" fill="#7bacdf"/>
        </g>
        <g id="g6888" transform="translate(3.588 48.867)">
          <path id="path6890" d="M-135.838-19.9a5.52,5.52,0,0,0-6.4,1.021l-9.394,9.394a8.275,8.275,0,0,0-.452,11.217l-.019.019-1.958-1.958a8.278,8.278,0,0,1,0-11.706l9.4-9.394a5.522,5.522,0,0,1,7.811,0,5.442,5.442,0,0,1,1.021,1.408" transform="translate(156.49 22.927)" fill="#5f99d7"/>
        </g>
        <g id="g6892" transform="translate(2.264 47.551)">
          <path id="path6894" d="M-16.3-146.031a1.319,1.319,0,0,1-1.136-.647,9.588,9.588,0,0,1,1.473-11.679l9.4-9.4a6.85,6.85,0,0,1,9.676,0,6.8,6.8,0,0,1,2.005,4.839,6.8,6.8,0,0,1-2,4.839l-8.893,8.893a1.32,1.32,0,0,1-1.866,0,1.32,1.32,0,0,1,0-1.866l8.893-8.893a4.174,4.174,0,0,0,1.231-2.972,4.179,4.179,0,0,0-1.232-2.974,4.208,4.208,0,0,0-5.944,0l-9.4,9.4a6.951,6.951,0,0,0-1.069,8.466,1.32,1.32,0,0,1-.462,1.808A1.314,1.314,0,0,1-16.3-146.031Z" transform="translate(18.774 169.753)"/>
        </g>
        <g id="g6896" transform="translate(4.037 66.985)">
          <path id="path6898" d="M-3.111-20.986a10.893,10.893,0,0,1,15.4,0,10.893,10.893,0,0,1,0,15.4c-.165.165-.334.325-.507.475-2.273-1.448-9.449,0-12.411-2.961s-1.151-10.047-2.96-12.413c.15-.173.308-.341.473-.506" transform="translate(3.584 24.177)" fill="#ffdfcf"/>
        </g>
        <g id="g6900" transform="translate(4.037 66.984)">
          <path id="path6902" d="M-10.521-89.54c-.973-3.389-.194-8.078-1.6-9.917.151-.172.31-.341.473-.505a10.892,10.892,0,0,1,15.405,0,10.914,10.914,0,0,1,1.818,2.4A10.893,10.893,0,0,0-7.432-95.75c-.165.165-.324.333-.473.505a10.827,10.827,0,0,0-2.615,5.7" transform="translate(12.12 103.153)" fill="#ffcebf"/>
        </g>
        <g id="g6904" transform="translate(1.32 70.681)">
          <path id="path6906" d="M-17.873,0A16.063,16.063,0,0,1-7.206,4.706,16.049,16.049,0,0,1-2.5,15.374,10.891,10.891,0,0,1-17.4,14.9,10.891,10.891,0,0,1-17.873,0" transform="translate(20.59)" fill="#7a6d79"/>
        </g>
        <g id="g6908" transform="translate(1.32 70.68)">
          <path id="path6910" d="M-36.771-109.95a10.851,10.851,0,0,1-2.4-1.816,10.893,10.893,0,0,1-.473-14.9,16.1,16.1,0,0,1,6.989,1.948,10.822,10.822,0,0,0-2.3,1.76c-.165.165-.324.333-.473.5a10.9,10.9,0,0,0-1.341,12.5" transform="translate(42.361 126.666)" fill="#685e68"/>
        </g>
        <g id="g6912" transform="translate(0.006 65.665)">
          <path id="path6914" d="M-21.926-34.176A12.133,12.133,0,0,1-13.29-30.6a12.133,12.133,0,0,1,3.577,8.636,12.133,12.133,0,0,1-3.577,8.636A12.133,12.133,0,0,1-21.926-9.75a12.133,12.133,0,0,1-8.636-3.577,12.227,12.227,0,0,1,0-17.271A12.133,12.133,0,0,1-21.926-34.176Zm0,21.786a9.51,9.51,0,0,0,6.769-2.8,9.51,9.51,0,0,0,2.8-6.769,9.51,9.51,0,0,0-2.8-6.769,9.511,9.511,0,0,0-6.769-2.8,9.511,9.511,0,0,0-6.769,2.8,9.584,9.584,0,0,0,0,13.539A9.51,9.51,0,0,0-21.926-12.39Z" transform="translate(34.133 34.176)"/>
        </g>
        <g id="g6916" transform="translate(2.716 69.363)">
          <path id="path6918" d="M-109.793-108.472a1.32,1.32,0,0,1-1.317-1.261,14.749,14.749,0,0,0-4.319-9.794,14.749,14.749,0,0,0-9.794-4.319,1.32,1.32,0,0,1-1.26-1.377,1.32,1.32,0,0,1,1.377-1.26,17.382,17.382,0,0,1,11.542,5.089,17.382,17.382,0,0,1,5.089,11.542,1.32,1.32,0,0,1-1.26,1.377Z" transform="translate(126.484 126.484)"/>
        </g>
        <g id="g6920" transform="translate(2.264 18.817)">
          <path id="path6922" d="M-59.008-107.97a1.315,1.315,0,0,1-.933-.387l-5.223-5.223a9.589,9.589,0,0,1-1.473-11.679,1.32,1.32,0,0,1,1.808-.462,1.32,1.32,0,0,1,.462,1.808,6.951,6.951,0,0,0,1.069,8.466l5.223,5.223a1.32,1.32,0,0,1,0,1.866A1.316,1.316,0,0,1-59.008-107.97Z" transform="translate(67.98 125.905)"/>
        </g>
        <g id="g6924" transform="translate(13.007 21.581)">
          <path id="path6926" d="M-39.73-38.412a1.315,1.315,0,0,1-.933-.387l-4.721-4.721a1.32,1.32,0,0,1,0-1.866,1.32,1.32,0,0,1,1.866,0l4.721,4.721a1.32,1.32,0,0,1,0,1.866A1.316,1.316,0,0,1-39.73-38.412Z" transform="translate(45.771 45.772)"/>
        </g>
        <g id="g6928" transform="translate(16.546 3.589)">
          <path id="path6930" d="M-151.674-129.121h0a5.523,5.523,0,0,0,0-7.811l-9.4-9.4a8.278,8.278,0,0,0-11.706,0l-1.958,1.958,15.248,15.248a5.523,5.523,0,0,0,7.811,0" transform="translate(174.733 148.752)" fill="#bbec6c"/>
        </g>
        <g id="g6932" transform="translate(16.545 5.077)">
          <path id="path6934" d="M-159.544-107.578a5.512,5.512,0,0,1-1.2,1.788,5.522,5.522,0,0,1-7.811,0L-183.8-121.039l1.958-1.958a8.192,8.192,0,0,1,1.116-.936l15.159,15.159a5.522,5.522,0,0,0,6.023,1.2" transform="translate(183.8 123.933)" fill="#a2e62e"/>
        </g>
        <g id="g6936" transform="translate(18.817 2.264)">
          <path id="path6938" d="M6.879,5.118a6.8,6.8,0,0,1-4.838-2L-6.852-5.779a1.32,1.32,0,0,1,0-1.866,1.32,1.32,0,0,1,1.866,0L3.908,1.248A4.168,4.168,0,0,0,6.88,2.479,4.179,4.179,0,0,0,9.853,1.247a4.208,4.208,0,0,0,0-5.944l-9.4-9.4a6.951,6.951,0,0,0-8.466-1.069,1.32,1.32,0,0,1-1.808-.462,1.32,1.32,0,0,1,.462-1.808A9.589,9.589,0,0,1,2.324-15.959l9.4,9.4a6.85,6.85,0,0,1,0,9.676A6.8,6.8,0,0,1,6.88,5.118Z" transform="translate(10.002 18.774)"/>
        </g>
        <g id="g6940" transform="translate(4.036 4.037)">
          <path id="path6942" d="M-104.449-3.111a10.893,10.893,0,0,1,0,15.4,10.893,10.893,0,0,1-15.4,0c-.165-.165-.325-.334-.475-.507,1.448-2.273,0-9.449,2.961-12.411s10.047-1.151,12.413-2.96c.173.15.341.308.506.473" transform="translate(120.329 3.584)" fill="#ffdfcf"/>
        </g>
        <g id="g6944" transform="translate(4.035 10.65)">
          <path id="path6946" d="M-115.3-47.046a10.9,10.9,0,0,1-1.649,2.113,10.892,10.892,0,0,1-15.405,0c-.165-.165-.326-.334-.475-.507,1-1.577.616-5.507,1.27-8.759a10.816,10.816,0,0,0,2.492,5c.151.174.311.343.475.509A10.893,10.893,0,0,0-115.3-47.046" transform="translate(132.826 54.199)" fill="#ffcebf"/>
        </g>
        <g id="g6948" transform="translate(1.32 1.32)">
          <path id="path6950" d="M-118.986-17.873a16.063,16.063,0,0,1-4.706,10.666A16.049,16.049,0,0,1-134.36-2.5a10.891,10.891,0,0,1,.475-14.9,10.891,10.891,0,0,1,14.9-.473" transform="translate(137.076 20.59)" fill="#b98080"/>
        </g>
        <g id="g6952" transform="translate(1.32 2.862)">
          <path id="path6954" d="M-59.573-98.238a16.057,16.057,0,0,1-6.342,1.612,10.892,10.892,0,0,1,.475-14.9,10.894,10.894,0,0,1,2.113-1.649,10.893,10.893,0,0,0,1.174,12.783c.151.174.311.343.475.509a10.828,10.828,0,0,0,2.1,1.643" transform="translate(68.629 113.173)" fill="#ae6c6c"/>
        </g>
        <g id="g6956" transform="translate(0 0)">
          <path id="path6958" d="M-138.7-34.176a12.133,12.133,0,0,1,8.636,3.577,12.227,12.227,0,0,1,0,17.271A12.133,12.133,0,0,1-138.7-9.75a12.133,12.133,0,0,1-8.636-3.577,12.132,12.132,0,0,1-3.577-8.636,12.133,12.133,0,0,1,3.577-8.636A12.133,12.133,0,0,1-138.7-34.176Zm0,21.786a9.51,9.51,0,0,0,6.769-2.8,9.584,9.584,0,0,0,0-13.539,9.511,9.511,0,0,0-6.769-2.8,9.511,9.511,0,0,0-6.769,2.8,9.51,9.51,0,0,0-2.8,6.769,9.51,9.51,0,0,0,2.8,6.769A9.51,9.51,0,0,0-138.7-12.39Z" transform="translate(150.91 34.176)"/>
        </g>
        <g id="g6960" transform="translate(2.716 2.716)">
          <path id="path6962" d="M-8.681-108.472A1.32,1.32,0,0,1-10-109.733a1.32,1.32,0,0,1,1.26-1.377,14.749,14.749,0,0,0,9.794-4.319,14.749,14.749,0,0,0,4.319-9.794,1.32,1.32,0,0,1,1.377-1.26,1.32,1.32,0,0,1,1.26,1.377,17.382,17.382,0,0,1-5.089,11.542,17.382,17.382,0,0,1-11.542,5.089Z" transform="translate(10 126.484)"/>
        </g>
      </g>
    </g>
  </g>
</svg>
