<svg xmlns="http://www.w3.org/2000/svg" width="85.335" height="85.335" viewBox="0 0 85.335 85.335">
  <g id="computer" transform="translate(-2 -2)">
    <path id="Trazado_771161" data-name="Trazado 771161" d="M85.49,17.844V57.667H3V17.844A2.853,2.853,0,0,1,5.844,15h76.8A2.853,2.853,0,0,1,85.49,17.844Z" transform="translate(0.422 5.489)" fill="#57a4ff"/>
    <path id="Trazado_771162" data-name="Trazado 771162" d="M85.49,17.844V57.667H3V51.978H62.734A17.067,17.067,0,0,0,79.8,34.911V17.844A2.853,2.853,0,0,0,76.957,15h5.689A2.853,2.853,0,0,1,85.49,17.844Z" transform="translate(0.422 5.489)" fill="#2488ff"/>
    <path id="Trazado_771163" data-name="Trazado 771163" d="M53,27h5.689V46.911H53Z" transform="translate(21.535 10.556)" fill="#ff7956"/>
    <path id="Trazado_771164" data-name="Trazado 771164" d="M45,29h5.689V46.067H45Z" transform="translate(18.157 11.401)" fill="#ffde55"/>
    <path id="Trazado_771165" data-name="Trazado 771165" d="M54.134,62.689H20L24.267,57h25.6Z" transform="translate(7.6 23.224)" fill="#c6c5ca"/>
    <path id="Trazado_771166" data-name="Trazado 771166" d="M37,33h5.689V44.378H37Z" transform="translate(14.779 13.09)" fill="#00ddc2"/>
    <path id="Trazado_771167" data-name="Trazado 771167" d="M42.24,8.12A12.749,12.749,0,0,1,44.8,15.8a11.751,11.751,0,0,1-.085,1.422H32V3A12.789,12.789,0,0,1,42.24,8.12Z" transform="translate(12.667 0.422)" fill="#ff7956"/>
    <path id="Trazado_771168" data-name="Trazado 771168" d="M27.011,25.1A12.8,12.8,0,0,1,35.8,3V17.222H48.515a11.991,11.991,0,0,1-.654,2.844A12.79,12.79,0,0,1,27.011,25.1Z" transform="translate(8.867 0.422)" fill="#ffde55"/>
    <path id="Trazado_771169" data-name="Trazado 771169" d="M48.515,17.056a11.991,11.991,0,0,1-.654,2.844A12.8,12.8,0,0,1,23,15.633a13.219,13.219,0,0,1,.171-2.133,13.064,13.064,0,0,0,.569,2.133,12.568,12.568,0,0,0,3.271,5.035,12.779,12.779,0,0,0,20.239-3.613Z" transform="translate(8.867 4.856)" fill="#2488ff"/>
    <path id="Trazado_771170" data-name="Trazado 771170" d="M44.911,59.533H25L26.422,51H43.489Z" transform="translate(9.712 20.69)" fill="#57a4ff"/>
    <path id="Trazado_771171" data-name="Trazado 771171" d="M85.49,45v5.689a2.853,2.853,0,0,1-2.845,2.845H5.844A2.853,2.853,0,0,1,3,50.689V45Z" transform="translate(0.422 18.157)" fill="#c6c5ca"/>
    <path id="Trazado_771172" data-name="Trazado 771172" d="M26,51H43.067v4.267H26Z" transform="translate(10.134 20.69)" fill="#2488ff"/>
    <path id="Trazado_771173" data-name="Trazado 771173" d="M14.111,26.111h7.111A7.111,7.111,0,1,1,14.111,19Z" transform="translate(2.111 7.178)" fill="#ffde55"/>
    <path id="Trazado_771174" data-name="Trazado 771174" d="M37,33h5.689V44.378H37Z" transform="translate(14.779 13.09)" fill="#00d7df"/>
    <path id="Trazado_771175" data-name="Trazado 771175" d="M53,27h5.689v2.845H53Z" transform="translate(21.535 10.556)" fill="#ff5023"/>
    <path id="Trazado_771176" data-name="Trazado 771176" d="M45,29h5.689v2.844H45Z" transform="translate(18.157 11.401)" fill="#ebbf00"/>
    <path id="Trazado_771177" data-name="Trazado 771177" d="M37,33h5.689v2.844H37Z" transform="translate(14.779 13.09)" fill="#009698"/>
    <path id="Trazado_771178" data-name="Trazado 771178" d="M83.068,19.067H58.606a14.506,14.506,0,0,0,.284-2.844,14.171,14.171,0,0,0-2.062-7.339L62.2,4.845H73.112V2H61.734a1.4,1.4,0,0,0-.853.284l-5.76,4.324a14.161,14.161,0,0,0-20.907,0l-5.76-4.324A1.4,1.4,0,0,0,27.6,2H16.222V4.845H27.131l5.376,4.039a14.171,14.171,0,0,0-2.062,7.339,14.507,14.507,0,0,0,.284,2.845H6.267A4.28,4.28,0,0,0,2,23.334V68.846a4.28,4.28,0,0,0,4.267,4.267H34.712V78.8H30.445a1.442,1.442,0,0,0-1.138.569L25.04,85.059a1.422,1.422,0,0,0,1.138,2.276H63.157a1.422,1.422,0,0,0,1.138-2.276L60.028,79.37A1.442,1.442,0,0,0,58.89,78.8H54.623V73.112H83.068a4.28,4.28,0,0,0,4.267-4.267V23.334a4.28,4.28,0,0,0-4.267-4.267ZM46.09,4.944a11.347,11.347,0,0,1,6.741,3.371l-3.328,2.5,1.707,2.276,3.328-2.5a11.3,11.3,0,0,1,1.508,5.632H46.09ZM34.8,10.59l3.328,2.5,1.707-2.276L36.5,8.315a11.347,11.347,0,0,1,6.741-3.371v12.7a1.422,1.422,0,0,0,1.422,1.422H55.676A11.371,11.371,0,1,1,34.8,10.59ZM58.179,81.646l2.133,2.844H29.023l2.133-2.844ZM37.556,78.8V73.112H51.779V78.8ZM84.49,68.846a1.422,1.422,0,0,1-1.422,1.422H6.267a1.422,1.422,0,0,1-1.422-1.422V64.579H84.49Zm0-7.111H4.844v-38.4a1.422,1.422,0,0,1,1.422-1.422H31.64a14.211,14.211,0,0,0,26.056,0H83.068a1.422,1.422,0,0,1,1.422,1.422Z" transform="translate(0 0)"/>
    <path id="Trazado_771179" data-name="Trazado 771179" d="M54,2h5.689V4.844H54Z" transform="translate(21.957 0)"/>
    <path id="Trazado_771180" data-name="Trazado 771180" d="M44,6h2.845V8.844H44Z" transform="translate(17.734 1.689)"/>
    <path id="Trazado_771181" data-name="Trazado 771181" d="M48,6H62.222V8.844H48Z" transform="translate(19.423 1.689)"/>
    <path id="Trazado_771182" data-name="Trazado 771182" d="M44,10H55.378v2.844H44Z" transform="translate(17.734 3.378)"/>
    <path id="Trazado_771183" data-name="Trazado 771183" d="M54,10h5.689v2.844H54Z" transform="translate(21.957 3.378)"/>
    <path id="Trazado_771184" data-name="Trazado 771184" d="M6,2h5.689V4.844H6Z" transform="translate(1.689 0)"/>
    <path id="Trazado_771185" data-name="Trazado 771185" d="M18,6h2.844V8.844H18Z" transform="translate(6.756 1.689)"/>
    <path id="Trazado_771186" data-name="Trazado 771186" d="M6,6H20.222V8.844H6Z" transform="translate(1.689 1.689)"/>
    <path id="Trazado_771187" data-name="Trazado 771187" d="M12,10H23.378v2.844H12Z" transform="translate(4.222 3.378)"/>
    <path id="Trazado_771188" data-name="Trazado 771188" d="M6,10h5.689v2.844H6Z" transform="translate(1.689 3.378)"/>
    <path id="Trazado_771189" data-name="Trazado 771189" d="M6,32h7.111v2.845H6Z" transform="translate(1.689 12.668)"/>
    <path id="Trazado_771190" data-name="Trazado 771190" d="M13,32H40.023v2.845H13Z" transform="translate(4.645 12.668)"/>
    <path id="Trazado_771191" data-name="Trazado 771191" d="M6,36H28.756v2.845H6Z" transform="translate(1.689 14.356)"/>
    <path id="Trazado_771192" data-name="Trazado 771192" d="M24,36H35.378v2.845H24Z" transform="translate(9.289 14.356)"/>
    <path id="Trazado_771193" data-name="Trazado 771193" d="M6,40H20.222v2.845H6Z" transform="translate(1.689 16.045)"/>
    <path id="Trazado_771194" data-name="Trazado 771194" d="M18,40H37.911v2.845H18Z" transform="translate(6.756 16.045)"/>
    <path id="Trazado_771195" data-name="Trazado 771195" d="M37.422,46.222h5.689A1.422,1.422,0,0,0,44.533,44.8V33.422A1.422,1.422,0,0,0,43.111,32H37.422A1.422,1.422,0,0,0,36,33.422V44.8A1.422,1.422,0,0,0,37.422,46.222Zm1.422-11.378h2.844v8.533H38.845Z" transform="translate(14.356 12.668)"/>
    <path id="Trazado_771196" data-name="Trazado 771196" d="M51.111,28H45.422A1.422,1.422,0,0,0,44,29.422V46.489a1.422,1.422,0,0,0,1.422,1.422h5.689a1.422,1.422,0,0,0,1.422-1.422V29.422A1.422,1.422,0,0,0,51.111,28ZM49.689,45.067H46.845V30.844h2.845Z" transform="translate(17.734 10.979)"/>
    <path id="Trazado_771197" data-name="Trazado 771197" d="M59.111,26H53.422A1.422,1.422,0,0,0,52,27.422V47.334a1.422,1.422,0,0,0,1.422,1.422h5.689a1.422,1.422,0,0,0,1.422-1.422V27.422A1.422,1.422,0,0,0,59.111,26ZM57.689,45.911H54.844V28.844h2.844Z" transform="translate(21.112 10.134)"/>
    <path id="Trazado_771198" data-name="Trazado 771198" d="M14.533,35.067a8.542,8.542,0,0,0,8.533-8.533,1.422,1.422,0,0,0-1.422-1.422H15.956V19.422A1.422,1.422,0,0,0,14.533,18a8.533,8.533,0,1,0,0,17.067ZM13.111,21.024v5.51a1.422,1.422,0,0,0,1.422,1.422h5.508a5.689,5.689,0,1,1-6.931-6.932Z" transform="translate(1.689 6.756)"/>
    <path id="Trazado_771199" data-name="Trazado 771199" d="M20,24h2.844v2.844H20Z" transform="translate(7.6 9.29)"/>
    <path id="Trazado_771200" data-name="Trazado 771200" d="M24,24H35.378v2.844H24Z" transform="translate(9.289 9.29)"/>
    <path id="Trazado_771201" data-name="Trazado 771201" d="M20,28H37.067v2.844H20Z" transform="translate(7.6 10.979)"/>
    <path id="Trazado_771202" data-name="Trazado 771202" d="M44.391,34.28l2.443-4.9h7.655a1.422,1.422,0,0,0,1.094-.512l6.685-8.021h5.022V18H61.6a1.422,1.422,0,0,0-1.094.512l-6.685,8.021H45.956a1.422,1.422,0,0,0-1.28.787l-2.443,4.9H36v2.844h7.111a1.422,1.422,0,0,0,1.28-.787Z" transform="translate(14.356 6.756)"/>
  </g>
</svg>
