<svg xmlns="http://www.w3.org/2000/svg" xmlns:xlink="http://www.w3.org/1999/xlink" width="285.107" height="505.697" viewBox="0 0 285.107 505.697">
  <defs>
    <clipPath id="clip-path">
      <path id="Trazado_165434" data-name="Trazado 165434" d="M0,2.6A2.6,2.6,0,1,0,2.6,0,2.6,2.6,0,0,0,0,2.6" fill="#ffb476"/>
    </clipPath>
    <clipPath id="clip-path-2">
      <path id="Trazado_165436" data-name="Trazado 165436" d="M0,2.6A2.6,2.6,0,1,0,2.6,0h0A2.6,2.6,0,0,0,0,2.6" fill="#ffb476"/>
    </clipPath>
    <clipPath id="clip-path-3">
      <path id="Trazado_165438" data-name="Trazado 165438" d="M2.6,0A2.6,2.6,0,1,0,5.2,2.6,2.6,2.6,0,0,0,2.6,0Z" fill="#ffb476"/>
    </clipPath>
    <linearGradient id="linear-gradient" x1="0.5" x2="0.5" y2="1" gradientUnits="objectBoundingBox">
      <stop offset="0" stop-color="#fff"/>
      <stop offset="1" stop-color="#d2e6ee"/>
    </linearGradient>
  </defs>
  <g id="Grupo_1044634" data-name="Grupo 1044634" transform="translate(-1049.893 -8240.504)">
    <g id="Grupo_1043814" data-name="Grupo 1043814" transform="translate(876.257 7864.532)">
      <rect id="Rectángulo_37180" data-name="Rectángulo 37180" width="221.365" height="429.874" rx="15" transform="translate(213.635 419.501)" fill="#fed9d3"/>
      <rect id="Rectángulo_37181" data-name="Rectángulo 37181" width="43.724" height="92.281" rx="21.862" transform="translate(238.888 773.703) rotate(45)" fill="#083142"/>
      <rect id="Rectángulo_37182" data-name="Rectángulo 37182" width="29.724" height="62.281" rx="14.862" transform="translate(422.769 386.972) rotate(45)" fill="#ff6148"/>
      <g id="Grupo_110632" data-name="Grupo 110632" transform="translate(411.258 869.872) rotate(-90)">
        <g id="Group_881454" data-name="Group 881454" transform="translate(0 42.281)">
          <g id="Grupo_108438" data-name="Grupo 108438">
            <path id="Trazado_165433" data-name="Trazado 165433" d="M0,2.6A2.6,2.6,0,1,0,2.6,0,2.6,2.6,0,0,0,0,2.6" fill="#ffb476"/>
            <g id="Grupo_108437" data-name="Grupo 108437" clip-path="url(#clip-path)">
              <g id="Group_881453" data-name="Group 881453" transform="translate(0 0)">
                <rect id="Rectangle_298909" data-name="Rectangle 298909" width="5.203" height="5.203" fill="#ffb476"/>
              </g>
            </g>
          </g>
        </g>
        <g id="Group_881456" data-name="Group 881456" transform="translate(0 22.006)">
          <g id="Grupo_108440" data-name="Grupo 108440">
            <path id="Trazado_165435" data-name="Trazado 165435" d="M0,2.6A2.6,2.6,0,1,0,2.6,0h0A2.6,2.6,0,0,0,0,2.6" fill="#ffb476"/>
            <g id="Grupo_108439" data-name="Grupo 108439" clip-path="url(#clip-path-2)">
              <g id="Group_881455" data-name="Group 881455" transform="translate(0 0)">
                <rect id="Rectangle_298910" data-name="Rectangle 298910" width="5.203" height="5.203" fill="#ffb476"/>
              </g>
            </g>
          </g>
        </g>
        <g id="Group_881458" data-name="Group 881458" transform="translate(0.001 0)">
          <g id="Grupo_108442" data-name="Grupo 108442">
            <path id="Trazado_165437" data-name="Trazado 165437" d="M2.6,0A2.6,2.6,0,1,0,5.2,2.6,2.6,2.6,0,0,0,2.6,0Z" fill="#ffb476"/>
            <g id="Grupo_108441" data-name="Grupo 108441" clip-path="url(#clip-path-3)">
              <g id="Group_881457" data-name="Group 881457" transform="translate(-0.001 0.001)">
                <rect id="Rectangle_298911" data-name="Rectangle 298911" width="5.203" height="5.202" fill="#ffb476"/>
              </g>
            </g>
          </g>
        </g>
        <g id="Group_881460" data-name="Group 881460" transform="translate(17.633 42.281)">
          <g id="Grupo_108444" data-name="Grupo 108444">
            <path id="Trazado_165439" data-name="Trazado 165439" d="M0,2.6A2.6,2.6,0,1,0,2.6,0,2.6,2.6,0,0,0,0,2.6" fill="#ffb476"/>
            <g id="Grupo_108443" data-name="Grupo 108443" clip-path="url(#clip-path)">
              <g id="Group_881459" data-name="Group 881459" transform="translate(0 0)">
                <rect id="Rectangle_298912" data-name="Rectangle 298912" width="5.203" height="5.203" fill="#ffb476"/>
              </g>
            </g>
          </g>
        </g>
        <g id="Group_881462" data-name="Group 881462" transform="translate(17.633 22.006)">
          <g id="Grupo_108446" data-name="Grupo 108446">
            <path id="Trazado_165441" data-name="Trazado 165441" d="M0,2.6A2.6,2.6,0,1,0,2.6,0,2.6,2.6,0,0,0,0,2.6" fill="#ffb476"/>
            <g id="Grupo_108445" data-name="Grupo 108445" clip-path="url(#clip-path)">
              <g id="Group_881461" data-name="Group 881461" transform="translate(0 0)">
                <rect id="Rectangle_298913" data-name="Rectangle 298913" width="5.203" height="5.203" fill="#ffb476"/>
              </g>
            </g>
          </g>
        </g>
        <g id="Group_881464" data-name="Group 881464" transform="translate(17.634 0)">
          <g id="Grupo_108448" data-name="Grupo 108448">
            <path id="Trazado_165443" data-name="Trazado 165443" d="M2.6,0A2.6,2.6,0,1,0,5.2,2.6,2.6,2.6,0,0,0,2.6,0Z" fill="#ffb476"/>
            <g id="Grupo_108447" data-name="Grupo 108447" clip-path="url(#clip-path-3)">
              <g id="Group_881463" data-name="Group 881463" transform="translate(-0.001 0.001)">
                <rect id="Rectangle_298914" data-name="Rectangle 298914" width="5.203" height="5.202" fill="#ffb476"/>
              </g>
            </g>
          </g>
        </g>
        <g id="Group_881454-2" data-name="Group 881454" transform="translate(36.028 42.281)">
          <g id="Grupo_108450" data-name="Grupo 108450">
            <path id="Trazado_165445" data-name="Trazado 165445" d="M0,2.6A2.6,2.6,0,1,0,2.6,0,2.6,2.6,0,0,0,0,2.6" fill="#ffb476"/>
            <g id="Grupo_108449" data-name="Grupo 108449" clip-path="url(#clip-path)">
              <g id="Group_881453-2" data-name="Group 881453" transform="translate(0 0)">
                <rect id="Rectangle_298909-2" data-name="Rectangle 298909" width="5.203" height="5.203" fill="#ffb476"/>
              </g>
            </g>
          </g>
        </g>
        <g id="Group_881456-2" data-name="Group 881456" transform="translate(36.028 22.006)">
          <g id="Grupo_108452" data-name="Grupo 108452">
            <path id="Trazado_165447" data-name="Trazado 165447" d="M0,2.6A2.6,2.6,0,1,0,2.6,0h0A2.6,2.6,0,0,0,0,2.6" fill="#ffb476"/>
            <g id="Grupo_108451" data-name="Grupo 108451" clip-path="url(#clip-path-2)">
              <g id="Group_881455-2" data-name="Group 881455" transform="translate(0 0)">
                <rect id="Rectangle_298910-2" data-name="Rectangle 298910" width="5.203" height="5.203" fill="#ffb476"/>
              </g>
            </g>
          </g>
        </g>
        <g id="Group_881458-2" data-name="Group 881458" transform="translate(36.029 0)">
          <g id="Grupo_108454" data-name="Grupo 108454">
            <path id="Trazado_165449" data-name="Trazado 165449" d="M2.6,0A2.6,2.6,0,1,0,5.2,2.6,2.6,2.6,0,0,0,2.6,0Z" fill="#ffb476"/>
            <g id="Grupo_108453" data-name="Grupo 108453" clip-path="url(#clip-path-3)">
              <g id="Group_881457-2" data-name="Group 881457" transform="translate(-0.001 0.001)">
                <rect id="Rectangle_298911-2" data-name="Rectangle 298911" width="5.203" height="5.202" fill="#ffb476"/>
              </g>
            </g>
          </g>
        </g>
        <g id="Group_881460-2" data-name="Group 881460" transform="translate(53.662 42.281)">
          <g id="Grupo_108456" data-name="Grupo 108456">
            <path id="Trazado_165451" data-name="Trazado 165451" d="M0,2.6A2.6,2.6,0,1,0,2.6,0,2.6,2.6,0,0,0,0,2.6" fill="#ffb476"/>
            <g id="Grupo_108455" data-name="Grupo 108455" clip-path="url(#clip-path)">
              <g id="Group_881459-2" data-name="Group 881459" transform="translate(0 0)">
                <rect id="Rectangle_298912-2" data-name="Rectangle 298912" width="5.203" height="5.203" fill="#ffb476"/>
              </g>
            </g>
          </g>
        </g>
        <g id="Group_881462-2" data-name="Group 881462" transform="translate(53.662 22.006)">
          <g id="Grupo_108458" data-name="Grupo 108458">
            <path id="Trazado_165453" data-name="Trazado 165453" d="M0,2.6A2.6,2.6,0,1,0,2.6,0,2.6,2.6,0,0,0,0,2.6" fill="#ffb476"/>
            <g id="Grupo_108457" data-name="Grupo 108457" clip-path="url(#clip-path)">
              <g id="Group_881461-2" data-name="Group 881461" transform="translate(0 0)">
                <rect id="Rectangle_298913-2" data-name="Rectangle 298913" width="5.203" height="5.203" fill="#ffb476"/>
              </g>
            </g>
          </g>
        </g>
        <g id="Group_881464-2" data-name="Group 881464" transform="translate(53.662 0)">
          <g id="Grupo_108460" data-name="Grupo 108460">
            <path id="Trazado_165455" data-name="Trazado 165455" d="M2.6,0A2.6,2.6,0,1,0,5.2,2.6,2.6,2.6,0,0,0,2.6,0Z" fill="#ffb476"/>
            <g id="Grupo_108459" data-name="Grupo 108459" clip-path="url(#clip-path-3)">
              <g id="Group_881463-2" data-name="Group 881463" transform="translate(-0.001 0.001)">
                <rect id="Rectangle_298914-2" data-name="Rectangle 298914" width="5.203" height="5.202" fill="#ffb476"/>
              </g>
            </g>
          </g>
        </g>
      </g>
    </g>
    <path id="Trazado_68762" data-name="Trazado 68762" d="M595.665,433.17c0-3.294,46.419-5.965,103.681-5.965s99.849,1.688,99.849,4.983-49.425,4.762-106.687,4.762S595.665,436.464,595.665,433.17Z" transform="translate(511.524 8309.252)" fill="#263238"/>
    <g id="Grupo_28962" data-name="Grupo 28962" transform="translate(1134.853 8713.83)">
      <path id="Trazado_68763" data-name="Trazado 68763" d="M603,425.211l3.176-6.277,18.922.684.425,5.593-8.891,15.424-16-12.339Z" transform="translate(-570.994 -417.946)" fill="#e69cad"/>
      <path id="Trazado_68764" data-name="Trazado 68764" d="M607.43,420.068l.794,14.573a68.641,68.641,0,0,0,10.661-7.939l-.79-8.25Z" transform="translate(-563.88 -418.451)" fill="#6b3a38"/>
      <path id="Trazado_68765" data-name="Trazado 68765" d="M617.011,421.9s5.558-.109,12.026,4.8c3.851,2.92,9.669-3.1,11.449-4.659.364-.317.857-.033.919.53l2.237,20.368H587.332a1.4,1.4,0,0,1-1.185-1.541v-4.287a1.563,1.563,0,0,1,.81-1.463Z" transform="translate(-586.147 -414.847)" fill="url(#linear-gradient)"/>
      <line id="Línea_253" data-name="Línea 253" x2="9.064" y2="5.244" transform="translate(27.7 8.117)" fill="none" stroke="#fff" stroke-miterlimit="10" stroke-width="0.391"/>
      <line id="Línea_254" data-name="Línea 254" x2="9.064" y2="5.244" transform="translate(23.749 10.139)" fill="none" stroke="#fff" stroke-miterlimit="10" stroke-width="0.391"/>
    </g>
    <g id="Grupo_28963" data-name="Grupo 28963" transform="translate(1226.595 8712.212)">
      <path id="Trazado_68766" data-name="Trazado 68766" d="M647.834,426.543l3.176-6.277,17.365-2.6,1.982,8.882-8.891,15.424-16-12.339Z" transform="translate(-615.829 -417.66)" fill="#e69cad"/>
      <path id="Trazado_68767" data-name="Trazado 68767" d="M653.991,419.664l-1.576,13.763a68.624,68.624,0,0,0,10.661-7.939l-1.578-7.037Z" transform="translate(-608.556 -416.833)" fill="#6b3a38"/>
      <path id="Trazado_68768" data-name="Trazado 68768" d="M661.844,421.9s5.558-.109,12.026,4.8c3.849,2.92,9.667-3.1,11.449-4.659.362-.317.855-.033.917.53l2.237,20.368H632.166a1.4,1.4,0,0,1-1.185-1.541v-4.287a1.559,1.559,0,0,1,.81-1.463Z" transform="translate(-630.981 -413.229)" fill="url(#linear-gradient)"/>
      <line id="Línea_255" data-name="Línea 255" x2="9.064" y2="5.244" transform="translate(26.426 10.139)" fill="none" stroke="#fff" stroke-miterlimit="10" stroke-width="0.391"/>
      <line id="Línea_256" data-name="Línea 256" x2="9.064" y2="5.244" transform="translate(22.475 12.161)" fill="none" stroke="#fff" stroke-miterlimit="10" stroke-width="0.391"/>
    </g>
    <path id="Trazado_68769" data-name="Trazado 68769" d="M618.338,212.738a7.748,7.748,0,0,0,2.994,2.689c2.627,1.046,5.983-1.142,8.92-3.419,2.887-2.241,8.4,1.41,9.253,2.005l6.636,21.455-.518.278.194.379h0l.2.381,6.656-3.587.053-.168c4.893-16.1,4.584-19.709,2.251-26.726-6.169-9.986-25.687-15.341-27.16-16.562a9.919,9.919,0,0,0-11.369-.97c-6.838,4.152-5.551,13.464-1.641,19.693A8.876,8.876,0,0,0,618.338,212.738Zm7.015-21.87c-5.081-1.369-10.139,1.228-11.287,6.585a7.628,7.628,0,0,1,3.648-6.738A7.284,7.284,0,0,1,625.352,190.868Zm23.673,43.045-1.445.778a7.091,7.091,0,0,1,2.912-1.79Z" transform="translate(575.329 8053.368)" fill="#1d274a"/>
    <g id="Grupo_28964" data-name="Grupo 28964" transform="translate(1162.387 8474.547)">
      <path id="Trazado_68770" data-name="Trazado 68770" d="M607.59,301.513s-7.242,86.619-7.921,110.552,4.123,130.626,4.123,130.626l24.238.534s26.931-178.993,56.188-236.713Z" transform="translate(-599.603 -301.513)" fill="#37474f"/>
      <path id="Trazado_68771" data-name="Trazado 68771" d="M633.451,303.747S612.846,403.814,612.846,419.18,609.8,540.125,609.8,540.125" transform="translate(-588.929 -299.176)" fill="none" stroke="#fff" stroke-miterlimit="10" stroke-width="0.391"/>
      <line id="Línea_257" data-name="Línea 257" x1="26.142" transform="translate(3.929 230.058)" fill="none" stroke="#fff" stroke-miterlimit="10" stroke-width="0.391"/>
    </g>
    <g id="Grupo_28966" data-name="Grupo 28966" transform="translate(1175.457 8474.663)">
      <path id="Trazado_68772" data-name="Trazado 68772" d="M605.99,301.57s11.6,72.087,28.606,123.171c13.743,41.281,49.822,119.8,49.822,119.8l28.14-.307L683.219,425.967a102.942,102.942,0,0,1-2.946-18.813c-1.508-23.986,3.423-72.46,5.484-103.517Z" transform="translate(-605.99 -301.57)" fill="#263238"/>
      <g id="Grupo_28965" data-name="Grupo 28965" transform="translate(25.147 0.421)">
        <path id="Trazado_68773" data-name="Trazado 68773" d="M634.072,302.17s-7.911,93.591-.8,108.146,41.789,133.073,41.789,133.073" transform="translate(-605.696 -301.363)" fill="none" stroke="#fff" stroke-miterlimit="10" stroke-width="0.391"/>
        <line id="Línea_258" data-name="Línea 258" x1="29.14" transform="translate(48.895 231.538)" fill="none" stroke="#fff" stroke-miterlimit="10" stroke-width="0.391"/>
        <line id="Línea_259" data-name="Línea 259" x2="25.223" y2="33.077" transform="translate(0)" fill="none" stroke="#fff" stroke-miterlimit="10" stroke-width="0.391"/>
      </g>
    </g>
    <g id="Grupo_28969" data-name="Grupo 28969" transform="translate(1200.902 8292.135)">
      <path id="Trazado_68779" data-name="Trazado 68779" d="M641.39,215.886l3.968,24.346s-17.047,17.569-23.7,15.249c-2.369-.827-3.233-9.5-3.233-9.5l1.7-17.6,17.69-16.012s2.722,1.934,3.063,2.64A3.95,3.95,0,0,0,641.39,215.886Z" transform="translate(-618.425 -212.368)" fill="#e69cad"/>
      <path id="Trazado_68780" data-name="Trazado 68780" d="M637.586,212.368,619.9,228.38l-1.25,10.469s16.061-4.422,16.617-17.694" transform="translate(-618.194 -212.368)" fill="#00092b"/>
    </g>
    <path id="Trazado_772668" data-name="Trazado 772668" d="M593.765,276.59c2.333,2.1,51.017,55.723,75.971,62.3,7.277,1.919,12.652-4.4,16.456-10.97l25.091-48.666-33.438-25.944c-.237.368-17.71,30.07-21.733,44.968-1.324,4.9-3.618,4.524-7.594,2.089l-30.511-18.809s.051-5.333-.626-7.35c-1.289-3.835-7.407-8.983-7.407-8.983l2.65,8.136c.477,1.371,2.04,2.361-.426,2.656l-19.376-14.359s-1.766-.143-.092,1.76,3.485,3.9,3.254,4.043-5.531-3.569-5.764-2.14,4.322,4.852,4.137,4.995-5.161-3.949-5.439-2.617,3.487,3.9,3.671,4.424-4.089-2.758-4.275-2.044S592.431,275.393,593.765,276.59Z" transform="translate(511.311 8087.927)" fill="#e69cad"/>
    <g id="Grupo_28973" data-name="Grupo 28973" transform="translate(1191.586 8262.589)">
      <path id="Trazado_68786" data-name="Trazado 68786" d="M644.3,221.541a.811.811,0,0,0,1.332.311c1.441-1.414,4.307-3.354,5.337,2.277,1.4,7.647-6.583,6.331-7.219,7.36-1.289,2.087-5.424,9.1-11.59,11.823-3.757,1.66-9.321,1.921-13.426-2.02s-5.938-1.242-4.217-43.364c0,0,1.88,3.628,4.584,4.563s7.035-2.814,10.112-3.673c2.5-.7,7.346-2.531,10.309,6.165C640.88,208.981,643.047,218.226,644.3,221.541Z" transform="translate(-613.872 -197.929)" fill="#e69cad"/>
      <g id="Grupo_28972" data-name="Grupo 28972" transform="translate(0.147 10.694)">
        <path id="Trazado_68787" data-name="Trazado 68787" d="M614.255,212.741s2.474,1.232,8.523.663c0,0-3.254,4.41-5.635,3.556S614.255,212.741,614.255,212.741Z" transform="translate(-613.619 -193.126)" fill="#fff"/>
        <path id="Trazado_68788" data-name="Trazado 68788" d="M633.57,211.18l-4.213,3.176S630.927,206.672,633.57,211.18Z" transform="translate(-597.818 -196.242)" fill="#bf566e"/>
        <path id="Trazado_68789" data-name="Trazado 68789" d="M616.67,209.228c0,.921.364,1.666.814,1.666s.813-.745.813-1.666-.364-1.666-.813-1.666S616.67,208.307,616.67,209.228Z" transform="translate(-611.092 -198.544)" fill="#00092b"/>
        <path id="Trazado_68790" data-name="Trazado 68790" d="M614.081,208.83c0,.919.364,1.666.815,1.666s.812-.747.812-1.666-.364-1.666-.812-1.666S614.081,207.909,614.081,208.83Z" transform="translate(-613.801 -198.961)" fill="#00092b"/>
        <path id="Trazado_68791" data-name="Trazado 68791" d="M623.05,206.658c1.205.843-.681-2.967-2.32-3.393a2.864,2.864,0,0,0-3.616,1.856A8.816,8.816,0,0,1,623.05,206.658Z" transform="translate(-610.627 -203.155)" fill="#00092b"/>
        <path id="Trazado_68792" data-name="Trazado 68792" d="M613.973,205.84a8.836,8.836,0,0,1,2.971.082,3,3,0,0,0-3-2.372" transform="translate(-613.944 -202.742)" fill="#00092b"/>
        <path id="Trazado_68793" data-name="Trazado 68793" d="M616.573,208.014l-2.48,7.057a.184.184,0,0,0,.143.25l2.93.221a.176.176,0,0,0,.178-.194l-.448-7.281A.165.165,0,0,0,616.573,208.014Z" transform="translate(-613.8 -198.194)" fill="#bf566e"/>
      </g>
    </g>
    <path id="Trazado_68777" data-name="Trazado 68777" d="M672.2,229.971s37.827,3.863,40.209,35.187-17.16,129.2-17.16,129.2l-94.884,1.645,5.294-123.444c.383-7.986,3.654-14.587,7.937-21.274,8.981-11.7,19.229-16.083,21.86-16.413l28.257-8.892Z" transform="translate(563.578 8094.013)" fill="url(#linear-gradient)"/>
    <path id="Trazado_68781" data-name="Trazado 68781" d="M643.588,328.354,622.5,262.191a13.146,13.146,0,0,0-7.264-8.117l-43.174-18.647a1.633,1.633,0,0,0-2.142,2.071l21.306,64.821a13.159,13.159,0,0,0,6.885,7.847L641.4,330.392A1.631,1.631,0,0,0,643.588,328.354Z" transform="translate(531.638 8103.752)" fill="#00223d"/>
    <path id="Trazado_68782" data-name="Trazado 68782" d="M641.816,330.249l-21.085-66.165a13.161,13.161,0,0,0-7.264-8.117l-43.174-18.647a1.634,1.634,0,0,0-2.142,2.073l21.3,64.821a13.157,13.157,0,0,0,6.888,7.845l43.284,20.227A1.631,1.631,0,0,0,641.816,330.249Z" transform="translate(529.786 8105.732)" fill="#2efec7"/>
    <path id="Trazado_68783" data-name="Trazado 68783" d="M606.956,259l-15.9,4.71,20.079,8.135Z" transform="translate(553.846 8128.553)" fill="#00092b" stroke="#191f4a" stroke-miterlimit="10" stroke-width="0"/>
    <path id="Trazado_68784" data-name="Trazado 68784" d="M593.765,276.59c2.333,2.1,51.017,55.723,75.971,62.3,7.277,1.919,12.652-4.4,16.456-10.97l25.091-48.666-33.438-25.944c-.237.368-17.71,30.07-21.733,44.968-1.324,4.9-3.618,4.524-7.594,2.089l-30.511-18.809s.051-5.333-.626-7.35c-1.289-3.835-7.407-8.983-7.407-8.983l2.65,8.136c.477,1.371,2.04,2.361-.426,2.656l-19.376-14.359s-1.766-.143-.092,1.76,3.485,3.9,3.254,4.043-5.531-3.569-5.764-2.14,4.322,4.852,4.137,4.995-5.161-3.949-5.439-2.617,3.487,3.9,3.671,4.424-4.089-2.758-4.275-2.044S592.431,275.393,593.765,276.59Z" transform="translate(550.967 8122.606)" fill="#e69cad"/>
  </g>
</svg>
