<svg xmlns="http://www.w3.org/2000/svg" width="29.888" height="39.92" viewBox="0 0 29.888 39.92">
  <g id="Grupo_29100" data-name="Grupo 29100" transform="translate(0 0)">
    <path id="Trazado_69068" data-name="Trazado 69068" d="M2982.565,1901.586a1.335,1.335,0,0,1,1.358-1.276,1,1,0,0,0,.938-.644,3.1,3.1,0,0,1,2.487-1.96,3.5,3.5,0,0,1,3.123.833,4.048,4.048,0,0,1,.782,1.151,1.145,1.145,0,0,0,.852.631c.985.168,1.171.313,1.471,1.266h.351c1.555,0,3.111,0,4.667,0a2.211,2.211,0,0,1,2.278,2.292q0,8.192,0,16.383c0,.089.009.178.018.346a12.062,12.062,0,0,0,2.2.29c1.335-.059,1.952.806,2.022,2.095a13.356,13.356,0,0,1-.876,4.983,18.574,18.574,0,0,1-7.393,9.567c-.572-.455-1.18-.89-1.73-1.389-.719-.653-1.387-1.362-2.093-2.031a.692.692,0,0,0-.441-.152q-5.841-.012-11.683-.006h-3.29a2.238,2.238,0,0,1-2.361-2.324c-.013-2.361,0-4.722,0-7.083q0-4.515,0-9.031,0-4.918,0-9.836c0-.726-.028-1.457.042-2.178a2.152,2.152,0,0,1,2.174-1.927c1.578-.007,3.156,0,4.734,0Zm.025,1.491c-.112-.01-.167-.02-.222-.02-1.544,0-3.089-.01-4.633-.006-.787,0-1.035.264-1.035,1.058q0,9.9.005,19.809,0,3.811,0,7.622c0,.661.285.949.93.949H2991.4c.091,0,.183-.013.222-.016-.492-.954-.973-1.9-1.471-2.831a.412.412,0,0,0-.306-.167c-.649-.015-1.3-.008-1.947-.008h-1.141v-1.482h2.714l-.664-2.371h-4.8v-1.467h4.519l.267-2.37h-8.263v-1.462h.458q6.192,0,12.385,0a1.412,1.412,0,0,0,.526-.067c.886-.369,1.77-.743,2.639-1.149a.614.614,0,0,1,.632,0c.708.366,1.44.688,2.2,1.047.009-.183.016-.271.016-.36q0-7.924,0-15.848a.768.768,0,0,0-.855-.875q-2.367-.007-4.733,0a2.471,2.471,0,0,0-.27.03c0,.247,0,.469,0,.692a1.325,1.325,0,0,1-1.472,1.472h-5.3c-.928,0-1.857.005-2.786,0a1.279,1.279,0,0,1-1.383-1.382C2982.588,1903.613,2982.59,1903.357,2982.59,1903.077Zm6.974,20.452.066.015c.011.224.007.449.037.67a18.574,18.574,0,0,0,2.546,7.109,18.035,18.035,0,0,0,4.4,4.8.344.344,0,0,0,.513-.007,17.7,17.7,0,0,0,6.933-12.047,5.478,5.478,0,0,0-.121-1.657c-.073-.411-.286-.516-.7-.527-.2-.005-.4,0-.6-.024a16.5,16.5,0,0,1-5.55-1.673.551.551,0,0,0-.421-.008,15.7,15.7,0,0,1-6.321,1.722.638.638,0,0,0-.468.343A11.03,11.03,0,0,0,2989.564,1923.529Zm-1.527-21.943a.883.883,0,0,0,.956-.853.92.92,0,0,0-1.838-.062A.847.847,0,0,0,2988.038,1901.586Z" transform="translate(-2975.228 -1897.625)" fill="#00223d"/>
    <path id="Trazado_69070" data-name="Trazado 69070" d="M3188.679,2236.215a10.965,10.965,0,0,1,.31-1.288.637.637,0,0,1,.467-.344,15.7,15.7,0,0,0,6.321-1.722.552.552,0,0,1,.421.008,16.5,16.5,0,0,0,5.55,1.673c.2.021.4.019.6.024.414.011.627.116.7.527a5.476,5.476,0,0,1,.121,1.657,17.7,17.7,0,0,1-6.933,12.047.345.345,0,0,1-.513.008,18.047,18.047,0,0,1-4.4-4.8,18.58,18.58,0,0,1-2.545-7.109c-.03-.221-.025-.447-.037-.67Zm3.739,4.167c1.014.9,2,1.781,2.981,2.662a.254.254,0,0,0,.4,0c.311-.273.642-.522.964-.782l3.253-2.633-.883-.845-3.522,2.846-2.22-2.042Z" transform="translate(-3174.343 -2210.311)" fill="#ff6148"/>
    <path id="Trazado_69071" data-name="Trazado 69071" d="M3153.694,1931.681a.847.847,0,0,1-.882-.916.92.92,0,0,1,1.838.063A.882.882,0,0,1,3153.694,1931.681Z" transform="translate(-3140.885 -1927.72)" fill="#fff"/>
    <path id="Trazado_69072" data-name="Trazado 69072" d="M3052.281,2121.206v-1.417h17.406v1.417Z" transform="translate(-3047.106 -2104.868)" fill="#00223d"/>
    <path id="Trazado_69073" data-name="Trazado 69073" d="M3052.306,2179.994v-1.417h17.419v1.417Z" transform="translate(-3047.129 -2159.707)" fill="#00223d"/>
    <path id="Trazado_69074" data-name="Trazado 69074" d="M3052.225,2058.783v-1.424h13.734v1.424Z" transform="translate(-3047.054 -2046.63)" fill="#00223d"/>
    <path id="Trazado_69075" data-name="Trazado 69075" d="M3052.295,2351.485v-1.435h4.723v1.435Z" transform="translate(-3047.119 -2319.663)" fill="#00223d"/>
    <path id="Trazado_69076" data-name="Trazado 69076" d="M3054.609,2294.371h-2.186v-1.446h2.186Z" transform="translate(-3047.238 -2266.375)" fill="#00223d"/>
    <path id="Trazado_69077" data-name="Trazado 69077" d="M3244.34,2323.181l.972-.793,2.22,2.042,3.522-2.846.883.845-3.253,2.633c-.322.26-.653.509-.964.782a.254.254,0,0,1-.4,0C3246.339,2324.962,3245.354,2324.085,3244.34,2323.181Z" transform="translate(-3226.266 -2293.109)" fill="#00223d"/>
  </g>
</svg>
