<svg xmlns="http://www.w3.org/2000/svg" width="40.02" height="44.018" viewBox="0 0 40.02 44.018">
  <g id="JtrDU8.tif" transform="translate(0 0)">
    <g id="Grupo_29096" data-name="Grupo 29096" transform="translate(0 0)">
      <path id="Trazado_69050" data-name="Trazado 69050" d="M2695.68,2035.585h34.946c2.027.794,2.53,1.537,2.53,3.738q0,18.444,0,36.889a3.073,3.073,0,0,1-3.39,3.39h-20.845q-6.3,0-12.606,0a2.989,2.989,0,0,1-2.7-1.44,7.888,7.888,0,0,1-.482-1.1v-38.937A3.406,3.406,0,0,1,2695.68,2035.585Zm-.532,21.972q0,9.292,0,18.583c0,1.187.28,1.465,1.471,1.465h33.066c1.189,0,1.471-.281,1.471-1.467q0-18.555,0-37.111c0-1.144-.295-1.437-1.444-1.437h-33.121c-1.148,0-1.442.293-1.442,1.438Q2695.148,2048.292,2695.148,2057.557Z" transform="translate(-2693.136 -2035.585)" fill="#00223d"/>
      <path id="Trazado_69052" data-name="Trazado 69052" d="M2745.322,2108.7h-14.648c-1.037,0-1.357-.316-1.357-1.349q0-8.156,0-16.312c0-1,.34-1.344,1.323-1.345q14.676,0,29.353,0c.986,0,1.33.348,1.33,1.337q0,8.183,0,16.367c0,.964-.339,1.3-1.3,1.3Q2752.674,2108.706,2745.322,2108.7Zm-13.96-16.962v14.945h27.922v-14.945Z" transform="translate(-2725.302 -2083.696)" fill="#00223d"/>
      <path id="Trazado_69053" data-name="Trazado 69053" d="M2737.715,2378.836v1.918h-7.934v-1.918Z" transform="translate(-2725.718 -2340.771)" fill="#00223d"/>
      <path id="Trazado_69054" data-name="Trazado 69054" d="M2747.776,2108.141H2775.7v14.945h-27.922Zm8.967,12.94c0-1.062.013-2.055-.007-3.049a1.079,1.079,0,0,1,.352-.87c1.289-1.263,2.533-2.574,3.845-3.812a2.305,2.305,0,0,0,.813-1.99c-.064-.891-.352-1.24-1.244-1.245-1.51-.008-3.02,0-4.531,0-1.676,0-3.352,0-5.028,0a1.082,1.082,0,0,0-1.078.522,2.519,2.519,0,0,0,.357,2.368c1.365,1.37,2.726,2.745,4.107,4.1a1.245,1.245,0,0,1,.424,1.01c-.029.986-.009,1.973-.009,2.971Zm15.013-.038h1.927v-8.893h-1.927Zm-3.988-6.9v6.933h1.917v-6.933Zm-2.08,6.952v-4.935h-1.914v4.935Zm-3.986-.012v-1.933h-1.923v1.933Z" transform="translate(-2741.717 -2100.095)" fill="#fff"/>
      <path id="Trazado_69055" data-name="Trazado 69055" d="M2772.244,2136.876h-2c0-1-.02-1.985.009-2.97a1.244,1.244,0,0,0-.424-1.01c-1.382-1.353-2.742-2.728-4.107-4.1a2.52,2.52,0,0,1-.356-2.368,1.081,1.081,0,0,1,1.078-.522c1.676,0,3.352,0,5.028,0,1.51,0,3.021-.005,4.531,0,.892,0,1.18.354,1.244,1.245a2.307,2.307,0,0,1-.812,1.99c-1.313,1.238-2.557,2.549-3.846,3.812a1.079,1.079,0,0,0-.352.87C2772.257,2134.821,2772.244,2135.815,2772.244,2136.876Zm-4.266-8.936,2.232,2.247v-2.247Zm4.284,2.331,2.321-2.314h-2.321Z" transform="translate(-2757.218 -2115.89)" fill="#00223d"/>
      <path id="Trazado_69056" data-name="Trazado 69056" d="M2964.023,2153.184v-8.893h1.927v8.893Z" transform="translate(-2933.983 -2132.236)" fill="#ff6148"/>
      <path id="Trazado_69057" data-name="Trazado 69057" d="M2928.06,2162.256h1.918v6.933h-1.918Z" transform="translate(-2902.008 -2148.209)" fill="#ff6148"/>
      <path id="Trazado_69058" data-name="Trazado 69058" d="M2893.959,2185.381h-1.915v-4.935h1.915Z" transform="translate(-2869.987 -2164.382)" fill="#ff6148"/>
      <path id="Trazado_69059" data-name="Trazado 69059" d="M2857.942,2209.335h-1.923V2207.4h1.923Z" transform="translate(-2837.957 -2188.348)" fill="#ff6148"/>
      <path id="Trazado_69060" data-name="Trazado 69060" d="M2790.162,2144.241h2.232v2.247Z" transform="translate(-2779.403 -2132.192)" fill="#fff"/>
      <path id="Trazado_69061" data-name="Trazado 69061" d="M2828.792,2146.712V2144.4h2.321Z" transform="translate(-2813.749 -2132.331)" fill="#fff"/>
    </g>
  </g>
</svg>
