<svg xmlns="http://www.w3.org/2000/svg" width="25.768" height="35.105" viewBox="0 0 25.768 35.105">
  <g id="Grupo_29099" data-name="Grupo 29099" transform="translate(0 0)">
    <path id="Trazado_69063" data-name="Trazado 69063" d="M3380.471,2351.216l.586.486-.063.1c.491,0,.981,0,1.472,0,.667,0,.85.185.849.862q0,2.617-.018,5.235c0,.215.026.335.267.426a.629.629,0,0,1,.319.474c.022,1.757.014,3.513.014,5.3h-1.939c-.708,0-1.417-.005-2.125,0a.544.544,0,0,0-.6.526.568.568,0,0,0,.5.622,2.636,2.636,0,0,0,.478.021c1.21,0,2.421,0,3.657,0v1.166h-3.924c-.477,0-.723.2-.719.582s.267.582.729.583c1.188,0,2.375,0,3.6,0-.126.4-.244.774-.367,1.166-1.1,0-2.2,0-3.3,0-.272,0-.53.079-.6.344a.744.744,0,0,0,.078.589.818.818,0,0,0,.565.224c.947.022,1.9.01,2.894.01-.108.374-.2.721-.319,1.056-.022.063-.185.1-.283.1-.743.009-1.485,0-2.228.007a1.405,1.405,0,0,0-.368.052.523.523,0,0,0-.4.627.538.538,0,0,0,.565.482c.64.007,1.28,0,1.92,0h.4c-.208.672-.4,1.311-.606,1.945a.552.552,0,0,1-.572.4h-1.16c0,.8-.007,1.546,0,2.3a27.6,27.6,0,0,0,.07,2.873,3.471,3.471,0,0,0,3.444,3.039q3.8.018,7.6-.012a3.574,3.574,0,0,0,3.525-3.668c-.022-4.89-.007-9.781-.007-14.672q0-6.2,0-12.409c0-.4.065-.731.516-.842h2.537a.733.733,0,0,1,.473.781q0,13.616-.006,27.231a6.985,6.985,0,0,1-4.841,6.727,13.955,13.955,0,0,1-1.934.366h-8.229a7.265,7.265,0,0,1-2.9-.817,6.665,6.665,0,0,1-3.666-5.385c-.149-1.643-.067-3.307-.088-4.962,0-.169,0-.339,0-.551-.4,0-.769,0-1.142,0a.539.539,0,0,1-.562-.365c-.22-.642-.413-1.294-.627-1.978h2.2c.455,0,.693-.192.7-.561s-.256-.6-.713-.6c-.72-.007-1.439-.016-2.158,0-.28.008-.44-.055-.5-.35-.052-.264-.15-.519-.241-.822h1.943c.343,0,.686,0,1.028,0a.571.571,0,0,0,.64-.56.578.578,0,0,0-.638-.6c-1.039-.007-2.079,0-3.118,0h-.214l-.359-1.165c1.211,0,2.4.009,3.583-.009a.835.835,0,0,0,.58-.2.683.683,0,0,0,.1-.612.766.766,0,0,0-.566-.329c-1.21-.03-2.422-.015-3.633-.015h-.389v-1.17h.347c1.188,0,2.376,0,3.563,0,.489,0,.754-.23.742-.608-.012-.354-.229-.557-.632-.559-1.085-.006-2.17,0-3.256,0h-.768c-.007-.14-.016-.251-.016-.362q0-2.33,0-4.661c0-.541.086-.667.607-.874v-2.86c0-.936,0-1.873,0-2.81,0-.528.187-.719.72-.728s1.051,0,1.426,0l.668-.585Zm-1.851,7.01c0-.561,0-1.086,0-1.611a.645.645,0,0,1,.714-.726c.143-.005.286,0,.426,0V2352.4h-3.455v3.475c.117.005.217.013.318.014.649.008.83.189.83.837v1.5Zm2.857,1.182c-.3,0-.574.016-.846,0-.241-.017-.349.067-.437.3a2.3,2.3,0,0,1-2.659,1.392,2.342,2.342,0,0,1-1.759-1.663h-1.162a3.48,3.48,0,0,0,6.863-.025Zm-.5-6.429c-.008.123-.019.224-.019.324q0,1.52,0,3.041c0,.5-.194.7-.694.714-.155,0-.31,0-.454,0v1.154h2.3v-5.234h-1.134Zm-4.7,4.08h-.325c-.665-.007-.826-.168-.827-.826v-3.221h-1.146v5.209h2.3Z" transform="translate(-3372.183 -2351.216)" fill="#00223d"/>
    <path id="Trazado_69064" data-name="Trazado 69064" d="M3434.635,2374.289h-1.165v-1.5c0-.647-.181-.829-.83-.837-.1,0-.2-.008-.318-.014v-3.475h3.455v3.489c-.14,0-.283,0-.426,0a.646.646,0,0,0-.714.727C3434.632,2373.2,3434.635,2373.728,3434.635,2374.289Z" transform="translate(-3428.199 -2367.279)" fill="#ff6148"/>
    <path id="Trazado_69065" data-name="Trazado 69065" d="M3414.5,2470.6a3.48,3.48,0,0,1-6.863.025h1.162a2.343,2.343,0,0,0,1.759,1.663,2.3,2.3,0,0,0,2.659-1.392c.088-.233.2-.318.437-.3C3413.925,2470.619,3414.2,2470.6,3414.5,2470.6Z" transform="translate(-3405.205 -2462.411)" fill="#ff6148"/>
    <path id="Trazado_69066" data-name="Trazado 69066" d="M3484.661,2376.925h1.134v5.234h-2.3V2381c.144,0,.3,0,.454,0,.5-.011.7-.214.694-.714q0-1.521,0-3.041C3484.643,2377.149,3484.654,2377.049,3484.661,2376.925Z" transform="translate(-3475.867 -2375.162)" fill="#ff6148"/>
    <path id="Trazado_69067" data-name="Trazado 69067" d="M3400.636,2381.437v1.162h-2.3v-5.209h1.146v.824q0,1.2,0,2.4c0,.658.162.82.826.826C3400.411,2381.438,3400.511,2381.437,3400.636,2381.437Z" transform="translate(-3396.544 -2375.595)" fill="#ff6148"/>
  </g>
</svg>
