<svg xmlns="http://www.w3.org/2000/svg" width="100" height="100" viewBox="0 0 100 100">
  <g id="Grupo_1044812" data-name="Grupo 1044812" transform="translate(-540 -7322.504)">
    <g id="Grupo_33241" data-name="Grupo 33241" transform="translate(-169 4922.504)">
      <g id="Rectángulo_2211" data-name="Rectángulo 2211" transform="translate(709 2400)" fill="none" stroke="#ff6148" stroke-width="2">
        <rect width="100" height="100" rx="12" stroke="none"/>
        <rect x="1" y="1" width="98" height="98" rx="11" fill="none"/>
      </g>
      <g id="Grupo_33735" data-name="Grupo 33735" transform="translate(11.966 2074.242)">
        <path id="Trazado_82734" data-name="Trazado 82734" d="M760.477,422.627h-1.228c-8.566,0-17.131.011-25.7-.02-.883,0-1.294.188-1.487,1.132-.407,1.987-1.316,2.616-3.385,2.618q-1.76,0-3.52,0a2.731,2.731,0,0,1-3.133-2.479c-.162-.71-.274-1.252-1.25-1.336A2.466,2.466,0,0,1,718.769,420q-.031-6.572,0-13.144a2.473,2.473,0,0,1,2.621-2.559c.945.009,1.208-.317,1.4-1.223a44.825,44.825,0,0,0,.6-9.566q-.015-6.1-.01-12.206a2.655,2.655,0,0,1,2.641-2.95,2.709,2.709,0,0,1,2.8,2.918c.019,5.945-.03,11.891.057,17.835a22.606,22.606,0,0,0,.739,4.6c.061.271.761.559,1.17.565,3.087.042,6.174.015,9.262.012,7.31-.006,14.62-.025,21.93,0,.927,0,1.411-.126,1.464-1.215.147-3.034.524-6.06.6-9.1.108-4.183.01-8.371.028-12.556.008-1.943,1.07-3.086,2.75-3.057,1.665.03,2.652,1.2,2.654,3.161,0,5.32-.062,10.642.036,15.961a48.55,48.55,0,0,0,.712,6.141c.037.252.554.592.872.619,2.232.2,3.045,1.037,3.045,3.276q0,5.985,0,11.971c0,1.864-.638,2.628-2.452,3.154a1.374,1.374,0,0,0-.717.86c-.687,2.393-1.249,2.851-3.681,2.853q-1.643,0-3.286,0a2.875,2.875,0,0,1-3.191-2.46C760.711,423.49,760.6,423.085,760.477,422.627Zm11.847-6.376c0-2.846,0-5.574,0-8.3,0-1.866-.105-1.963-2.014-1.963H752.832q-15.25,0-30.5,0c-1.594,0-1.775.188-1.775,1.735q0,3.109,0,6.219c0,.761,0,1.521,0,2.313Zm-.09,1.885h-51.68c0,.451,0,.8,0,1.151.016,1.427.2,1.61,1.645,1.606.977,0,1.954-.031,2.93-.03q22.417.014,44.833.033c2.381,0,2.453-.075,2.342-2.433A2.652,2.652,0,0,0,772.234,418.136Zm-4.568-19.5a4.557,4.557,0,0,0,.082-.561q.01-8.317.007-16.633a1.065,1.065,0,0,0-.134-.662c-.246-.264-.595-.611-.887-.6s-.647.38-.807.682a2.34,2.34,0,0,0-.1,1.03q-.015,5.329-.017,10.659c0,2.013,0,4.027,0,6.084Zm-40.713.014c.021-.448.051-.791.051-1.134q.017-7.8.028-15.6c0-.274.09-.6-.029-.809-.212-.366-.542-.9-.842-.915-.326-.015-.745.436-.988.78-.152.214-.065.605-.065.917q0,7.8,0,15.6c0,.375.035.751.056,1.16ZM769.2,422.728h-6.74c.388,1.813.388,1.814,2.117,1.817.932,0,1.865,0,2.8,0C768.9,424.533,768.982,424.451,769.2,422.728Zm-38.768-.038h-6.7c.029,1.6.257,1.842,1.735,1.852.978.007,1.955,0,2.933,0C730.073,424.538,730.073,424.537,730.432,422.689Zm-2.645-18.5-.638-3.67a8.555,8.555,0,0,0-1.509.023c-.272.053-.668.3-.717.522-.222,1.013-.34,2.048-.5,3.125Zm40.68.019-.59-3.645h-2.227l-.495,3.645Z" transform="translate(0 -24.193)" fill="#083142"/>
        <path id="Trazado_82735" data-name="Trazado 82735" d="M785.721,346.741a20.578,20.578,0,0,1,14.489,6.153,2.759,2.759,0,1,1-3.827,3.947c-6.533-6.2-15.178-6.179-21.793.049a2.743,2.743,0,1,1-3.872-3.876A20.484,20.484,0,0,1,785.721,346.741Zm-.866,1.828a18.157,18.157,0,0,0-12.7,5.537c-.508.5-.81,1.122-.173,1.574a1.579,1.579,0,0,0,1.462-.248c7.272-6.662,16.863-6.7,24.037-.048.492.457.977.893,1.6.306.688-.654.212-1.181-.3-1.673A18.984,18.984,0,0,0,784.854,348.569Z" transform="translate(-39.074)" fill="#083142"/>
        <path id="Trazado_82736" data-name="Trazado 82736" d="M788.876,388.616a9.769,9.769,0,0,1,1.054-1.866,14.062,14.062,0,0,1,20.349-.043,2.793,2.793,0,0,1,.018,4.073,2.7,2.7,0,0,1-3.965-.223,8.526,8.526,0,0,0-12.568.109,2.579,2.579,0,0,1-3.1.657A2.991,2.991,0,0,1,788.876,388.616ZM800.1,384.1a12.372,12.372,0,0,0-8.75,3.742c-.489.5-.766,1.038-.177,1.619.572.564,1.02.2,1.491-.243,4.516-4.243,10.246-4.278,14.78-.1.474.437.93.972,1.573.341s.271-1.2-.248-1.706A12.58,12.58,0,0,0,800.1,384.1Z" transform="translate(-53.665 -27.268)" fill="#083142"/>
        <path id="Trazado_82737" data-name="Trazado 82737" d="M815.438,417.758a7.329,7.329,0,0,1,6.069,2.766,2.813,2.813,0,0,1-.187,3.813,2.846,2.846,0,0,1-3.911-.094c-1.524-1.406-1.888-1.4-3.473.075a2.863,2.863,0,0,1-3.635.162,2.8,2.8,0,0,1-.512-3.695A7,7,0,0,1,815.438,417.758Zm.523,1.787a5.626,5.626,0,0,0-4.443,1.945c-.417.481-.675,1.006-.091,1.533s1.03.221,1.5-.247a3.7,3.7,0,0,1,5.673-.018,1.52,1.52,0,0,0,1.366.293c.649-.328.513-.954.074-1.481A5.483,5.483,0,0,0,815.96,419.545Z" transform="translate(-69.3 -54.348)" fill="#083142"/>
        <path id="Trazado_82738" data-name="Trazado 82738" d="M825.029,455.752a2.747,2.747,0,0,1,2.964-2.638,2.764,2.764,0,0,1-.451,5.51A2.8,2.8,0,0,1,825.029,455.752Zm2.707,1.5c.459-.66.908-1.027.911-1.4,0-.312-.553-.912-.789-.878a1.348,1.348,0,0,0-.961.838C826.843,456.148,827.306,456.563,827.735,457.252Z" transform="translate(-81.328 -81.398)" fill="#083142"/>
        <path id="Trazado_82739" data-name="Trazado 82739" d="M751.737,507.111a2.755,2.755,0,1,1-5.51-.024,2.755,2.755,0,0,1,5.51.024Zm-1.371-.005c-.686-.474-1.055-.927-1.407-.914-.322.012-.9.561-.872.813a1.34,1.34,0,0,0,.848.949C749.251,508.012,749.664,507.548,750.367,507.105Z" transform="translate(-21.027 -120.614)" fill="#083142"/>
        <path id="Trazado_82740" data-name="Trazado 82740" d="M814.77,507.1a2.847,2.847,0,0,1-2.788,2.739,2.793,2.793,0,0,1-2.716-2.793,2.756,2.756,0,0,1,2.776-2.724A2.8,2.8,0,0,1,814.77,507.1Zm-1.367-.052c-.7-.455-1.079-.9-1.434-.877-.321.019-.891.587-.852.834a1.347,1.347,0,0,0,.877.927C812.313,507.982,812.714,507.507,813.4,507.048Z" transform="translate(-69.269 -120.594)" fill="#083142"/>
        <path id="Trazado_82741" data-name="Trazado 82741" d="M846.267,507.052a2.7,2.7,0,0,1-2.7,2.77,2.761,2.761,0,0,1-.019-5.522A2.7,2.7,0,0,1,846.267,507.052Zm-2.632,1.4c.432-.721.9-1.156.824-1.463-.085-.354-.643-.6-1-.886-.265.323-.738.646-.738.969C842.726,507.426,843.164,507.779,843.635,508.452Z" transform="translate(-93.423 -120.577)" fill="#083142"/>
        <path id="Trazado_82742" data-name="Trazado 82742" d="M783.253,507.2a2.678,2.678,0,0,1-2.8,2.654A2.781,2.781,0,0,1,777.828,507a2.739,2.739,0,0,1,2.833-2.643A2.648,2.648,0,0,1,783.253,507.2Zm-1.354-.05c-.606-.471-.977-.979-1.322-.962-.32.016-.781.56-.855.936-.046.235.5.824.793.831C780.887,507.967,781.268,507.547,781.9,507.154Z" transform="translate(-45.21 -120.614)" fill="#083142"/>
        <path id="Trazado_82743" data-name="Trazado 82743" d="M875.045,504.308a2.8,2.8,0,0,1,2.765,2.746,2.85,2.85,0,0,1-2.755,2.772,2.792,2.792,0,0,1-2.743-2.76A2.739,2.739,0,0,1,875.045,504.308ZM876.378,507c-.615-.425-1.01-.9-1.291-.843-.379.081-.671.575-1,.891.326.311.633.838.984.869C875.4,507.949,875.775,507.453,876.378,507Z" transform="translate(-117.516 -120.583)" fill="#083142"/>
        <path id="Trazado_82744" data-name="Trazado 82744" d="M903.866,507.082a2.737,2.737,0,0,1,2.721-2.755,2.684,2.684,0,0,1,2.716,2.751,2.725,2.725,0,0,1-2.708,2.765A2.753,2.753,0,0,1,903.866,507.082Zm2.76,1.389c.453-.713.93-1.137.864-1.445-.077-.356-.631-.61-.979-.908-.271.318-.751.63-.759.954C905.743,507.424,906.172,507.787,906.626,508.471Z" transform="translate(-141.664 -120.597)" fill="#083142"/>
      </g>
    </g>
  </g>
</svg>
