<svg xmlns="http://www.w3.org/2000/svg" width="100" height="100" viewBox="0 0 100 100">
  <g id="Grupo_1044813" data-name="Grupo 1044813" transform="translate(-960 -7322.504)">
    <g id="Grupo_1043809" data-name="Grupo 1043809" transform="translate(560 -146.992)">
      <g id="Rectángulo_2212" data-name="Rectángulo 2212" transform="translate(400 7469.496)" fill="none" stroke="#ff6148" stroke-width="2">
        <rect width="100" height="100" rx="12" stroke="none"/>
        <rect x="1" y="1" width="98" height="98" rx="11" fill="none"/>
      </g>
      <g id="Grupo_33738" data-name="Grupo 33738" transform="translate(-379.01 6873.344)">
        <path id="Trazado_82745" data-name="Trazado 82745" d="M796.107,638.974h7.132v-5.292c0-1.963,0-3.927,0-5.89.01-4.434,2.877-7.309,7.347-7.344,3.077-.024,6.155-.014,9.232-.024a3.789,3.789,0,0,0,.537-.119v-5.49h16.981v13.91H820.475v-5.592h-4.864c-1.645,0-3.291-.039-4.934.013-2.732.087-4.6,1.63-4.7,4.2-.142,3.805-.037,7.62-.037,11.588h7.127v14.3H796.107Zm32.746-12.794c1.539,0,3.08-.038,4.618.014.925.031,1.352-.222,1.322-1.243-.062-2.121-.05-4.247,0-6.369.019-.9-.309-1.209-1.2-1.2q-4.617.055-9.236,0c-.857-.009-1.258.224-1.237,1.161.048,2.176.039,4.353,0,6.529-.013.826.3,1.136,1.119,1.115C825.773,626.15,827.313,626.179,828.853,626.18ZM798.9,650.336h11.336v-8.388H798.9Z" transform="translate(0 0)" fill="#083142"/>
        <path id="Trazado_82746" data-name="Trazado 82746" d="M957.106,665.393H940.042V651.151h7.126c0-2.2,0-4.254,0-6.3,0-1.433.009-2.867,0-4.3-.027-3.557-1.739-5.281-5.269-5.3-2-.01-4.007,0-6.1,0V632.69a73.063,73.063,0,0,1,8.717.075c2.939.356,5.227,3.318,5.292,6.329.085,3.919.021,7.841.021,11.925h7.282v14.373Zm-14.224-11.355v8.414h11.287v-8.414Z" transform="translate(-95.193 -12.113)" fill="#083142"/>
        <path id="Trazado_82747" data-name="Trazado 82747" d="M835.594,752.289H852.61v13.96H835.686c0-1.43-.045-2.892.016-4.351.04-.968-.3-1.3-1.279-1.289-2.918.047-5.838.041-8.757.009a6.849,6.849,0,0,1-7.174-7.19c-.025-2.753,0-5.505,0-8.364h2.686c0,1.941,0,3.93,0,5.92,0,5.865,1.091,6.957,6.953,6.957h7.468Zm8.481,11.386c1.539,0,3.079-.035,4.617.014.9.028,1.376-.171,1.346-1.215-.062-2.121-.047-4.246-.005-6.368.017-.874-.262-1.235-1.18-1.224q-4.7.058-9.394,0c-.85-.009-1.107.336-1.1,1.135.031,2.175.044,4.353-.005,6.528-.022.96.423,1.163,1.259,1.14C841.1,763.644,842.589,763.674,844.075,763.674Z" transform="translate(-15.246 -88.761)" fill="#083142"/>
        <path id="Trazado_82748" data-name="Trazado 82748" d="M935.674,760.632v-2.686c1.908,0,3.793,0,5.678,0,4.159,0,5.729-1.589,5.733-5.785,0-2.327,0-4.654,0-7.089h2.687c0,.923,0,1.9,0,2.88,0,1.909.024,3.818-.01,5.726a6.866,6.866,0,0,1-6.945,6.947C940.494,760.664,938.17,760.632,935.674,760.632Z" transform="translate(-95.111 -88.767)" fill="#083142"/>
      </g>
    </g>
  </g>
</svg>
