<svg xmlns="http://www.w3.org/2000/svg" width="80" height="80" viewBox="0 0 80 80">
  <g id="Grupo_1044816" data-name="Grupo 1044816" transform="translate(-205 -11565.504)">
    <g id="Grupo_1044815" data-name="Grupo 1044815">
      <rect id="Rectángulo_356146" data-name="Rectángulo 356146" width="80" height="80" rx="10" transform="translate(205 11565.504)" fill="#ff6148"/>
    </g>
    <g id="lan" transform="translate(212 11574)">
      <g id="Grupo_1044636" data-name="Grupo 1044636">
        <g id="Grupo_1044635" data-name="Grupo 1044635">
          <path id="Trazado_772669" data-name="Trazado 772669" d="M50,58h6v4H50Z" fill="#aab2bd"/>
          <path id="Trazado_772670" data-name="Trazado 772670" d="M50,36h6v4H50Z" fill="#aab2bd"/>
          <path id="Trazado_772671" data-name="Trazado 772671" d="M50,14h6v4H50Z" fill="#aab2bd"/>
        </g>
        <path id="Trazado_772672" data-name="Trazado 772672" d="M62,10v2a2.006,2.006,0,0,1-2,2H46a2.006,2.006,0,0,1-2-2V10Z" fill="#ccd1d9"/>
        <path id="Trazado_772673" data-name="Trazado 772673" d="M62,32v2a2.006,2.006,0,0,1-2,2H46a2.006,2.006,0,0,1-2-2V32Z" fill="#ccd1d9"/>
        <path id="Trazado_772674" data-name="Trazado 772674" d="M62,54v2a2.006,2.006,0,0,1-2,2H46a2.006,2.006,0,0,1-2-2V54Z" fill="#ccd1d9"/>
        <path id="Trazado_772675" data-name="Trazado 772675" d="M62,48v6H44V48a2.006,2.006,0,0,1,2-2H60A2.006,2.006,0,0,1,62,48Z" fill="#69d6f4"/>
        <path id="Trazado_772676" data-name="Trazado 772676" d="M62,26v6H44V26a2.006,2.006,0,0,1,2-2H60A2.006,2.006,0,0,1,62,26Z" fill="#69d6f4"/>
        <path id="Trazado_772677" data-name="Trazado 772677" d="M62,4v6H44V4a2.006,2.006,0,0,1,2-2H60A2.006,2.006,0,0,1,62,4Z" fill="#69d6f4"/>
        <path id="Trazado_772678" data-name="Trazado 772678" d="M9,46h6V60H9Z" fill="#aab2bd"/>
        <path id="Trazado_772679" data-name="Trazado 772679" d="M14,26v6H10V26H2V38l7,8h6l7-8V26Z" fill="#fcd770"/>
        <path id="Trazado_772680" data-name="Trazado 772680" d="M10,22v4H2V22h8Z" fill="#ffeaa7"/>
        <path id="Trazado_772681" data-name="Trazado 772681" d="M22,22v4H14V22h8Z" fill="#ffeaa7"/>
        <path id="Trazado_772682" data-name="Trazado 772682" d="M14,26v6H10V22h4Z" fill="#5cd6b3"/>
        <path id="Trazado_772683" data-name="Trazado 772683" d="M20,14v8H4V14H20Z" fill="#e6e9ed"/>
        <path id="Trazado_772684" data-name="Trazado 772684" d="M4,10H20v4H4Z" fill="#5cd6b3"/>
      </g>
      <g id="Grupo_1044637" data-name="Grupo 1044637">
        <path id="Trazado_772685" data-name="Trazado 772685" d="M60,45H46a3,3,0,0,0-3,3v8a3,3,0,0,0,3,3h3v2H47v2H59V61H57V59h3a3,3,0,0,0,3-3V48A3,3,0,0,0,60,45ZM46,47H60a1,1,0,0,1,1,1v5H45V48A1,1,0,0,1,46,47Zm9,14H51V59h4Zm5-4H46a1,1,0,0,1-1-1V55H61v1A1,1,0,0,1,60,57Z"/>
        <path id="Trazado_772686" data-name="Trazado 772686" d="M60,23H46a3,3,0,0,0-3,3v8a3,3,0,0,0,3,3h3v2H47v2H59V39H57V37h3a3,3,0,0,0,3-3V26A3,3,0,0,0,60,23ZM46,25H60a1,1,0,0,1,1,1v5H45V26A1,1,0,0,1,46,25Zm9,14H51V37h4Zm5-4H46a1,1,0,0,1-1-1V33H61v1A1,1,0,0,1,60,35Z"/>
        <path id="Trazado_772687" data-name="Trazado 772687" d="M60,1H46a3,3,0,0,0-3,3v8a3,3,0,0,0,3,3h3v2H47v2H59V17H57V15h3a3,3,0,0,0,3-3V4A3,3,0,0,0,60,1ZM46,3H60a1,1,0,0,1,1,1V9H45V4A1,1,0,0,1,46,3Zm9,14H51V15h4Zm5-4H46a1,1,0,0,1-1-1V11H61v1A1,1,0,0,1,60,13Z"/>
        <path id="Trazado_772688" data-name="Trazado 772688" d="M39,31h2v2H39Z"/>
        <path id="Trazado_772689" data-name="Trazado 772689" d="M35,10V26a1,1,0,0,1-1,1H23V21H21V9H3V21H1V38.376l7,8V61h8V46.376l7-8V37H34a1,1,0,0,1,1,1V50a3,3,0,0,0,3,3h3V51H38a1,1,0,0,1-1-1V38a3,3,0,0,0-3-3H23V33H37V31H23V29H34a3,3,0,0,0,3-3V10a1,1,0,0,1,1-1h3V7H38A3,3,0,0,0,35,10ZM9.454,45,4.2,39H19.8l-5.25,6ZM3,37V27H9v6h6V27h6V37ZM21,23v2H15V23ZM11,23h2v8H11Zm8-10H17V11h2ZM9,13V11h2v2Zm4-2h2v2H13ZM7,11v2H5V11ZM5,15H19v6H5Zm4,8v2H3V23Zm1,36V47h4V59Z"/>
      </g>
    </g>
  </g>
</svg>
