<svg xmlns="http://www.w3.org/2000/svg" xmlns:xlink="http://www.w3.org/1999/xlink" width="505" height="315.242" viewBox="0 0 505 315.242">
  <defs>
    <linearGradient id="linear-gradient" x1="1.259" y1="0.273" x2="1.516" y2="0.273" gradientUnits="objectBoundingBox">
      <stop offset="0" stop-color="#b37cff"/>
      <stop offset="1" stop-color="#f895e7"/>
    </linearGradient>
    <linearGradient id="linear-gradient-2" x1="-1.472" y1="0.932" x2="-1.249" y2="-0.163" gradientUnits="objectBoundingBox">
      <stop offset="0" stop-color="#09005d"/>
      <stop offset="1" stop-color="#1a0f91"/>
    </linearGradient>
    <linearGradient id="linear-gradient-3" x1="0.056" y1="1.023" x2="0.895" y2="0.038" gradientUnits="objectBoundingBox">
      <stop offset="0" stop-color="#4042e2"/>
      <stop offset="1" stop-color="#4f52ff"/>
    </linearGradient>
    <linearGradient id="linear-gradient-4" x1="0.497" y1="0.84" x2="0.515" y2="-1.497" xlink:href="#linear-gradient-2"/>
    <linearGradient id="linear-gradient-5" x1="0.49" y1="1.372" x2="0.597" y2="-11.794" xlink:href="#linear-gradient-3"/>
    <linearGradient id="linear-gradient-6" x1="-17.993" y1="-6.693" x2="-18.266" y2="0.843" xlink:href="#linear-gradient-3"/>
    <linearGradient id="linear-gradient-7" x1="-71.733" y1="0.5" x2="-70.733" y2="0.5" gradientUnits="objectBoundingBox">
      <stop offset="0" stop-color="#ff928e"/>
      <stop offset="1" stop-color="#feb3b1"/>
    </linearGradient>
    <linearGradient id="linear-gradient-8" x1="0.757" y1="0.168" x2="1.926" y2="-1.327" xlink:href="#linear-gradient-3"/>
    <linearGradient id="linear-gradient-9" x1="-17.364" y1="-1.867" x2="-17.674" y2="1.099" xlink:href="#linear-gradient-3"/>
    <linearGradient id="linear-gradient-10" x1="0.1" y1="0.116" x2="1.19" y2="1.123" xlink:href="#linear-gradient-2"/>
    <linearGradient id="linear-gradient-11" x1="-51.993" y1="0.5" x2="-50.993" y2="0.5" xlink:href="#linear-gradient-7"/>
    <linearGradient id="linear-gradient-12" x1="0.561" y1="-0.276" x2="0.541" y2="-0.007" xlink:href="#linear-gradient-2"/>
    <linearGradient id="linear-gradient-13" x1="-25.346" y1="0.5" x2="-24.346" y2="0.5" xlink:href="#linear-gradient-7"/>
    <linearGradient id="linear-gradient-14" x1="0.846" y1="-5.321" x2="0.696" y2="-2.683" xlink:href="#linear-gradient-7"/>
    <linearGradient id="linear-gradient-15" x1="1.882" y1="-0.091" x2="0.845" y2="0.34" xlink:href="#linear-gradient-7"/>
    <linearGradient id="linear-gradient-16" x1="-27.475" y1="15.43" x2="-26.453" y2="15.43" xlink:href="#linear-gradient-2"/>
    <linearGradient id="linear-gradient-17" x1="-138.367" y1="69.32" x2="-135.076" y2="66.963" xlink:href="#linear-gradient-7"/>
    <linearGradient id="linear-gradient-18" x1="31.092" y1="-902.877" x2="29.862" y2="-888.546" xlink:href="#linear-gradient-2"/>
    <linearGradient id="linear-gradient-19" x1="21.458" y1="-76.775" x2="18.832" y2="-75.476" xlink:href="#linear-gradient-2"/>
    <linearGradient id="linear-gradient-20" x1="-0.336" y1="1.475" x2="-1.779" y2="0.045" xlink:href="#linear-gradient-2"/>
    <linearGradient id="linear-gradient-21" x1="-42.082" y1="0.302" x2="-41.41" y2="1.263" gradientUnits="objectBoundingBox">
      <stop offset="0" stop-color="#a22b25"/>
      <stop offset="1" stop-color="#c0423c"/>
    </linearGradient>
    <linearGradient id="linear-gradient-22" x1="-122.832" y1="-8.495" x2="-123.192" y2="-4.311" xlink:href="#linear-gradient-2"/>
    <linearGradient id="linear-gradient-23" x1="10.074" y1="-1.779" x2="6.583" y2="-0.923" xlink:href="#linear-gradient-21"/>
    <linearGradient id="linear-gradient-24" x1="-81.062" y1="-5.84" x2="-81.285" y2="-2.988" xlink:href="#linear-gradient-2"/>
    <linearGradient id="linear-gradient-25" x1="6.873" y1="-1.217" x2="4.218" y2="-0.501" xlink:href="#linear-gradient-21"/>
    <linearGradient id="linear-gradient-26" x1="3.675" y1="-1.387" x2="2.029" y2="-0.368" xlink:href="#linear-gradient-2"/>
    <linearGradient id="linear-gradient-27" x1="0.887" y1="-0.221" x2="0.21" y2="1.319" xlink:href="#linear-gradient-21"/>
    <linearGradient id="linear-gradient-28" x1="-72.301" y1="0.5" x2="-71.301" y2="0.5" xlink:href="#linear-gradient-21"/>
    <linearGradient id="linear-gradient-29" x1="-75.328" y1="10.21" x2="-76.075" y2="9.192" xlink:href="#linear-gradient-21"/>
    <linearGradient id="linear-gradient-30" x1="-2.08" y1="5.547" x2="-6.296" y2="0.183" xlink:href="#linear-gradient-2"/>
    <linearGradient id="linear-gradient-31" x1="-273.34" y1="30.875" x2="-276.061" y2="27.593" xlink:href="#linear-gradient-21"/>
    <linearGradient id="linear-gradient-32" x1="-128.317" y1="1.605" x2="-126.317" y2="4.277" xlink:href="#linear-gradient-21"/>
    <linearGradient id="linear-gradient-33" x1="0.821" y1="-2.797" x2="0.694" y2="-1.536" xlink:href="#linear-gradient-21"/>
    <linearGradient id="linear-gradient-34" y1="0.5" x2="1.002" y2="0.5" gradientUnits="objectBoundingBox">
      <stop offset="0" stop-color="#dae3fe"/>
      <stop offset="1" stop-color="#e9effd"/>
    </linearGradient>
    <linearGradient id="linear-gradient-35" x1="0" y1="0.5" x2="1" y2="0.5" xlink:href="#linear-gradient-34"/>
  </defs>
  <g id="Illustration" transform="translate(-188.568 -154.581)">
    <g id="Grupo_1044776" data-name="Grupo 1044776" transform="translate(198.091 183.751)">
      <g id="Grupo_1044774" data-name="Grupo 1044774" transform="translate(0 57.47)">
        <path id="Trazado_772897" data-name="Trazado 772897" d="M243.647,552.518a.806.806,0,0,1-.238-.036l-4.036-1.253a.821.821,0,0,1-.575-.755l-.1-3.231a15.774,15.774,0,0,1-3.507-2.913L232,544.82a.816.816,0,0,1-.849-.431l-1.968-3.733a.821.821,0,0,1,.127-.943l2.211-2.355a15.819,15.819,0,0,1-.419-4.539l-2.608-1.912a.819.819,0,0,1-.3-.9l1.251-4.034a.821.821,0,0,1,.755-.575l3.231-.1a15.824,15.824,0,0,1,2.913-3.507l-.491-3.192a.818.818,0,0,1,.431-.849l3.733-1.968a.821.821,0,0,1,.941.127l2.355,2.211a15.66,15.66,0,0,1,4.542-.416l1.91-2.608a.811.811,0,0,1,.9-.3l4.032,1.248a.819.819,0,0,1,.575.755l.1,3.231a15.761,15.761,0,0,1,3.507,2.913l3.192-.491a.823.823,0,0,1,.849.428l1.968,3.736a.817.817,0,0,1-.127.943l-2.211,2.353a15.743,15.743,0,0,1,.416,4.542l2.608,1.912a.819.819,0,0,1,.3.9l-1.253,4.036a.818.818,0,0,1-.755.575l-3.231.1a15.827,15.827,0,0,1-2.913,3.507l.491,3.192a.821.821,0,0,1-.428.849l-3.736,1.968a.809.809,0,0,1-.941-.128l-2.355-2.211a15.826,15.826,0,0,1-4.542.419l-1.91,2.608A.8.8,0,0,1,243.647,552.518Zm-3.8-2.247,3.707,1.15,2.153-2.937.291.022a14.71,14.71,0,0,0,4.777-.44l.281-.075,2.653,2.492,3.435-1.809-.553-3.6.221-.19a14.747,14.747,0,0,0,3.065-3.69l.147-.253,3.64-.116,1.15-3.707-2.937-2.153.022-.291a14.777,14.777,0,0,0-.44-4.777l-.072-.284,2.492-2.653-1.809-3.435-3.6.553-.19-.219a14.779,14.779,0,0,0-3.69-3.065l-.253-.149-.113-3.64-3.707-1.15-2.153,2.937-.291-.022a14.72,14.72,0,0,0-4.777.438l-.281.075-2.653-2.492-3.433,1.809.553,3.6-.221.19a14.747,14.747,0,0,0-3.065,3.69l-.147.253-3.64.115-1.15,3.707,2.937,2.153-.022.291a14.722,14.722,0,0,0,.44,4.777l.072.281L230.2,540.31l1.809,3.435,3.6-.553.192.221a14.738,14.738,0,0,0,3.69,3.062l.253.147Zm13.714.291Zm-13.877-.342Zm-7.6-6.319Zm31.534-2.908Zm1.34-3.769Zm-1-10.108Zm-1.968-3.736Zm-25.215-4.693h0Zm13.579-2.875Zm.265-.089Zm-3.659,28.623a10.717,10.717,0,1,1,10.315-13.6l-1.02.284a9.537,9.537,0,0,0-.763-1.91,9.65,9.65,0,1,0-.293,9.526l.9.551a10.73,10.73,0,0,1-9.143,5.145Z" transform="translate(-228.158 -514.758)" fill="#0affc6"/>
        <path id="Trazado_772898" data-name="Trazado 772898" d="M293.148,584.032c-.077,0-.156,0-.233-.007a4.281,4.281,0,0,1-2.632-7.457,4.286,4.286,0,0,1,6.043.322h0a4.286,4.286,0,0,1-.322,6.043A4.244,4.244,0,0,1,293.148,584.032Zm-.007-7.5a3.219,3.219,0,1,0,2.4,1.066A3.209,3.209,0,0,0,293.141,576.532Z" transform="translate(-274.261 -560.869)" fill="#0affc6"/>
      </g>
      <g id="Grupo_1044775" data-name="Grupo 1044775" transform="translate(33.758)">
        <path id="Trazado_772899" data-name="Trazado 772899" d="M404.468,351.992a1.113,1.113,0,0,1-1.027-.688l-2.588-6.286a31.372,31.372,0,0,1-9.071-3.154l-5.93,3.332a1.116,1.116,0,0,1-1.285-.137l-6.358-5.653a1.119,1.119,0,0,1-.289-1.261l2.617-6.278a31.393,31.393,0,0,1-4.193-8.643l-6.545-1.835a1.108,1.108,0,0,1-.808-1.006l-.5-8.494a1.109,1.109,0,0,1,.686-1.092l6.288-2.588a31.362,31.362,0,0,1,3.154-9.074l-3.336-5.932a1.1,1.1,0,0,1,.139-1.282l5.655-6.358a1.107,1.107,0,0,1,1.26-.286l6.278,2.615a31.408,31.408,0,0,1,8.641-4.19l1.835-6.545a1.113,1.113,0,0,1,1.006-.811l8.494-.5a1.13,1.13,0,0,1,1.092.686l2.588,6.286a31.374,31.374,0,0,1,9.071,3.154l5.932-3.334a1.112,1.112,0,0,1,1.282.14l6.358,5.655a1.112,1.112,0,0,1,.289,1.258l-2.617,6.278a31.394,31.394,0,0,1,4.193,8.643l6.545,1.835h0a1.113,1.113,0,0,1,.811,1.005l.5,8.494a1.111,1.111,0,0,1-.686,1.092l-6.288,2.588a31.363,31.363,0,0,1-3.154,9.074l3.334,5.932a1.112,1.112,0,0,1-.139,1.282l-5.653,6.358a1.114,1.114,0,0,1-1.26.286l-6.278-2.615a31.372,31.372,0,0,1-8.641,4.19l-1.835,6.545a1.113,1.113,0,0,1-1.005.811l-8.494.5A.653.653,0,0,1,404.468,351.992Zm-12.7-11.335.257.14a30.318,30.318,0,0,0,9.295,3.231l.289.051,2.81,6.824,8.547-.464,2.042-7.147.279-.084a30.292,30.292,0,0,0,8.855-4.294l.238-.168,6.817,2.839,5.716-6.372-3.611-6.5.14-.257a30.318,30.318,0,0,0,3.231-9.295l.051-.289,6.824-2.81-.505-8.6-7.108-1.989-.084-.279a30.351,30.351,0,0,0-4.294-8.855l-.168-.238,2.841-6.817-6.372-5.716-6.5,3.611-.257-.14a30.383,30.383,0,0,0-9.295-3.231l-.289-.051-2.81-6.824-8.547.464-2.042,7.144-.279.084a30.383,30.383,0,0,0-8.855,4.294l-.238.168-6.817-2.839-5.716,6.372,3.611,6.5-.139.257a30.318,30.318,0,0,0-3.231,9.295l-.051.289-6.824,2.81.464,8.549,7.147,2.042.084.279a30.29,30.29,0,0,0,4.294,8.855l.168.238-2.841,6.817,6.372,5.716Zm14.635-5.788a21.045,21.045,0,1,1,20.827-17.818l-1.046-.161a20,20,0,1,0-8.508,13.454l.6.873a21.025,21.025,0,0,1-10.623,3.613C407.234,334.857,406.818,334.869,406.4,334.869Z" transform="translate(-368.491 -275.847)" fill="#0affc6"/>
        <path id="Trazado_772900" data-name="Trazado 772900" d="M501.229,416.673a8.078,8.078,0,1,1,2.43-.373A8.1,8.1,0,0,1,501.229,416.673Zm-.01-15.114a7.027,7.027,0,1,0,6.7,4.912A7.015,7.015,0,0,0,501.219,401.559Z" transform="translate(-463.152 -370.517)" fill="#0affc6"/>
      </g>
    </g>
    <g id="Grupo_1044782" data-name="Grupo 1044782" transform="translate(237.695 154.581)">
      <g id="Grupo_1044778" data-name="Grupo 1044778" transform="translate(249.693 0)">
        <path id="Trazado_772901" data-name="Trazado 772901" d="M1537.26,175.92l15.29,36.9a34.552,34.552,0,0,1-1.766,30.1l-31,55.425a34.564,34.564,0,0,0-4.188,20.668l3.449,31.2a34.555,34.555,0,0,1-12.6,30.649h0a34.558,34.558,0,0,1-47.925-4.282l-19.335-22.422a34.558,34.558,0,0,1-4.816-37.87l20.269-41.045a34.535,34.535,0,0,0,3.534-16.9l-2.793-60.22a34.556,34.556,0,0,1,19.634-32.787l15.431-7.366A34.553,34.553,0,0,1,1537.26,175.92Z" transform="translate(-1430.799 -154.581)" fill="#0affc6"/>
        <g id="Grupo_1044777" data-name="Grupo 1044777" transform="translate(46.417 47.274)">
          <path id="Trazado_772902" data-name="Trazado 772902" d="M1624.338,543.755c-2.714-48.348,4.606-97.382,11.226-130,3.96-19.523,7.96-34.743,10.616-44.074,1.768-6.211,3.084-10.31,3.873-12.655,1.718-5.09,2.064-5.309,2.588-5.643a1.766,1.766,0,0,1,2.3,2.62c-2.478,4.717-32.157,99.153-27.084,189.562a1.766,1.766,0,0,1-1.665,1.862,1.991,1.991,0,0,1-.294-.007A1.773,1.773,0,0,1,1624.338,543.755Zm30.2-189.4s0,0,0,0S1654.537,354.356,1654.534,354.356Zm.007,0Z" transform="translate(-1623.758 -351.102)" fill="#7d97f4"/>
        </g>
      </g>
      <g id="Grupo_1044779" data-name="Grupo 1044779" transform="translate(332.855 107.24)">
        <path id="Trazado_772903" data-name="Trazado 772903" d="M1795.635,686.375a22.716,22.716,0,0,0,8.948-20.9,65.462,65.462,0,0,1,3.163-28.082c8.489-25.568,29.484-41.606,46.9-35.825s24.64,31.195,16.151,56.761a69.937,69.937,0,0,1-6.24,13.721,22.361,22.361,0,0,0-1.22,20.692,28.665,28.665,0,0,1-19.372,39.7,22.486,22.486,0,0,0-13.44,9.35c-8.92,13.355-22.951,20.334-35.332,16.223-15.867-5.268-23.014-26.759-15.961-48C1782.592,699.9,1788.574,691.655,1795.635,686.375Z" transform="translate(-1776.511 -600.389)" fill="#bdd0fb"/>
        <path id="Trazado_772904" data-name="Trazado 772904" d="M1793.819,988.239a1.112,1.112,0,0,0,1.128-.4c13.519-17.474,26.617-49.566,35.226-73.407,9.309-25.79,15.523-47.757,15.583-47.976a1.107,1.107,0,1,0-2.131-.6c-.245.871-24.859,87.578-50.429,120.629a1.107,1.107,0,0,0,.2,1.554A1.07,1.07,0,0,0,1793.819,988.239Z" transform="translate(-1789.006 -801.383)" fill="#0affc6"/>
      </g>
      <g id="Grupo_1044780" data-name="Grupo 1044780" transform="translate(54.692 21.413)">
        <path id="Trazado_772905" data-name="Trazado 772905" d="M627.9,264.06l-7.039,29.857a26.542,26.542,0,0,0,5.052,22.6l30.341,38.2a26.552,26.552,0,0,1,5.725,15.152l1.234,24.079a26.546,26.546,0,0,0,13.329,21.683h0a26.542,26.542,0,0,0,35.806-9.16l11.893-19.384a26.546,26.546,0,0,0-1.02-29.306l-20.43-28.618a26.536,26.536,0,0,1-4.765-12.379l-5.311-46a26.546,26.546,0,0,0-18.929-22.436l-12.607-3.68A26.543,26.543,0,0,0,627.9,264.06Z" transform="translate(-620.155 -243.598)" fill="#bdd0fb"/>
        <path id="Trazado_772906" data-name="Trazado 772906" d="M802.248,538.746a1.326,1.326,0,0,1-.221.041,1.356,1.356,0,0,1-1.491-1.205c-7.308-69.168-41.457-137.1-43.917-140.371a1.356,1.356,0,0,1,1.424-2.268c.44.188.729.313,2.658,3.959.89,1.681,2.391,4.626,4.5,9.117,3.166,6.745,8.075,17.791,13.485,32.1,9.042,23.916,20.639,60.186,24.548,97.176A1.354,1.354,0,0,1,802.248,538.746ZM756.972,397.431a0,0,0,0,1,0,0Zm0,0Z" transform="translate(-723.438 -358.452)" opacity="0.26" fill="url(#linear-gradient)"/>
      </g>
      <g id="Grupo_1044781" data-name="Grupo 1044781" transform="translate(0 124.983)">
        <path id="Trazado_772907" data-name="Trazado 772907" d="M455.7,754.468a19.765,19.765,0,0,1-5.278-19.057,56.974,56.974,0,0,0,.546-24.572c-4.337-23.026-20.565-39.3-36.244-36.343s-24.873,24.014-20.534,47.04a60.829,60.829,0,0,0,3.779,12.554,19.447,19.447,0,0,1-1.362,17.976,24.926,24.926,0,0,0,12.066,36.475,19.564,19.564,0,0,1,10.5,9.627c6.132,12.55,17.411,20.2,28.561,18.1,14.291-2.692,22.953-20.382,19.35-39.508A42.224,42.224,0,0,0,455.7,754.468Z" transform="translate(-392.794 -674.15)" fill="#0affc6"/>
        <path id="Trazado_772908" data-name="Trazado 772908" d="M560.171,1022.426a.97.97,0,0,1-.926-.476c-9.615-16.637-17.166-45.82-21.806-67.374-5.018-23.312-7.813-42.97-7.84-43.167a.964.964,0,1,1,1.91-.269c.111.779,11.219,78.379,29.4,109.845a.964.964,0,0,1-.351,1.316A1.038,1.038,0,0,1,560.171,1022.426Z" transform="translate(-496.684 -853.502)" fill="#7d97f4"/>
      </g>
    </g>
    <path id="Trazado_772909" data-name="Trazado 772909" d="M570.329,725.4a5.782,5.782,0,0,0,5.768,5.761H888a5.782,5.782,0,0,0,5.768-5.761l2.6-179.24c0-3.168-3.733-9.357-10.577-8.891l-304.822-7.888a14.536,14.536,0,0,0-14.914,14.866Z" transform="translate(-286.673 -284.641)" fill="url(#linear-gradient-2)"/>
    <path id="Trazado_772910" data-name="Trazado 772910" d="M892.093,565.628l-292.152-7.84a10.2,10.2,0,0,0-10.471,10.454l4.344,173.175a5.447,5.447,0,0,0,5.456,5.427h299a5.447,5.447,0,0,0,5.456-5.427l2.449-162.7C905.881,568.924,897.3,565.419,892.093,565.628Z" transform="translate(-304.461 -306.213)" fill="url(#linear-gradient-3)"/>
    <g id="Grupo_1044783" data-name="Grupo 1044783" transform="translate(490.804 260.079)">
      <path id="Trazado_772911" data-name="Trazado 772911" d="M1880.091,953.346h-.012a.739.739,0,0,1-.729-.75l.195-13.2a.759.759,0,0,1,.751-.729.739.739,0,0,1,.729.751l-.195,13.2A.738.738,0,0,1,1880.091,953.346Z" transform="translate(-1774.866 -855.555)" fill="#7d97f4"/>
      <path id="Trazado_772912" data-name="Trazado 772912" d="M1550.7,658.607h-.012a.739.739,0,0,1-.729-.75l.743-50.54a9.544,9.544,0,0,0-2.728-7.152c-3.346-3.207-8.655-3.041-8.881-3.033l-93.372-2.5a.739.739,0,0,1,.019-1.477h.019l93.322,2.5c.58-.026,6.187-.13,9.916,3.442a10.978,10.978,0,0,1,3.182,8.227l-.743,50.557A.734.734,0,0,1,1550.7,658.607Z" transform="translate(-1444.999 -593.15)" fill="#7d97f4"/>
    </g>
    <path id="Trazado_772913" data-name="Trazado 772913" d="M480,1380.367H845.076a1.324,1.324,0,0,0,1.321-1.321v-13.105a1.324,1.324,0,0,0-1.321-1.321H480a1.324,1.324,0,0,0-1.321,1.321v13.105A1.324,1.324,0,0,0,480,1380.367Z" transform="translate(-220.325 -918.963)" fill="url(#linear-gradient-4)"/>
    <g id="Grupo_1044785" data-name="Grupo 1044785" transform="translate(393.194 300.42)">
      <g id="Grupo_1044784" data-name="Grupo 1044784" transform="translate(0 0)">
        <path id="Trazado_772914" data-name="Trazado 772914" d="M1133.309,855.731h-90.137a3.957,3.957,0,0,1-3.952-3.952V764.8a3.957,3.957,0,0,1,3.952-3.952h90.137a3.957,3.957,0,0,1,3.952,3.952v86.976A3.957,3.957,0,0,1,1133.309,855.731Zm-90.139-92.247a1.32,1.32,0,0,0-1.318,1.318v86.976a1.32,1.32,0,0,0,1.318,1.318h90.137a1.32,1.32,0,0,0,1.318-1.318V764.8a1.32,1.32,0,0,0-1.318-1.318Z" transform="translate(-1039.22 -760.85)" fill="#bdd0fb"/>
      </g>
      <path id="Trazado_772915" data-name="Trazado 772915" d="M1165.316,817.82h-64.309a2.637,2.637,0,0,0-2.636,2.636v61.673a2.637,2.637,0,0,0,2.636,2.636h11.6a2.637,2.637,0,0,0,2.636-2.636v-4.217a2.637,2.637,0,0,1,2.636-2.636h30.574a2.637,2.637,0,0,1,2.636,2.636v4.217a2.637,2.637,0,0,0,2.636,2.636h11.6a2.637,2.637,0,0,0,2.636-2.636V820.454A2.642,2.642,0,0,0,1165.316,817.82Zm-53.239,22.754a2.02,2.02,0,0,1-2.021,2.021h-.176a2.02,2.02,0,0,1-2.021-2.021V825.638a2.02,2.02,0,0,1,2.021-2.021h.176a2.02,2.02,0,0,1,2.021,2.021Zm11.6,0a2.02,2.02,0,0,1-2.021,2.021h-.176a2.02,2.02,0,0,1-2.021-2.021V825.638a2.02,2.02,0,0,1,2.021-2.021h.176a2.02,2.02,0,0,1,2.021,2.021Zm11.6,0a2.02,2.02,0,0,1-2.021,2.021h-.176a2.02,2.02,0,0,1-2.021-2.021V825.638a2.02,2.02,0,0,1,2.021-2.021h.176a2.02,2.02,0,0,1,2.021,2.021Zm11.595,0a2.02,2.02,0,0,1-2.021,2.021h-.176a2.02,2.02,0,0,1-2.021-2.021V825.638a2.02,2.02,0,0,1,2.021-2.021h.176a2.02,2.02,0,0,1,2.021,2.021Zm11.6,0a2.02,2.02,0,0,1-2.021,2.021h-.176a2.02,2.02,0,0,1-2.021-2.021V825.638a2.02,2.02,0,0,1,2.021-2.021h.176a2.02,2.02,0,0,1,2.021,2.021Z" transform="translate(-1084.141 -804.116)" fill="#bdd0fb"/>
    </g>
    <g id="Grupo_1044795" data-name="Grupo 1044795" transform="translate(578.353 333.984)">
      <g id="Grupo_1044786" data-name="Grupo 1044786" transform="translate(74.496 83.723)">
        <path id="Trazado_772916" data-name="Trazado 772916" d="M2251.338,1276.8c.926,1.371,4.609,32.4,5.184,43.867a1.357,1.357,0,0,1-1.357,1.422h0a1.36,1.36,0,0,1-1.342-1.15l-6.733-43.153Z" transform="translate(-2216.19 -1269.975)" fill="#7d97f4"/>
        <path id="Trazado_772917" data-name="Trazado 772917" d="M2125.328,1276.8c-.926,1.371-4.609,32.4-5.184,43.867a1.357,1.357,0,0,0,1.356,1.422h0a1.36,1.36,0,0,0,1.343-1.15l6.733-43.153Z" transform="translate(-2119.781 -1269.975)" fill="#7d97f4"/>
        <path id="Trazado_772918" data-name="Trazado 772918" d="M2159.353,1252.83l0,.339a4.615,4.615,0,0,1-4.7,4.477l-31.125.529a4.652,4.652,0,0,1-4.871-4.224l-.017-.31a4.6,4.6,0,0,1,4.691-4.655l31.139-.558A4.637,4.637,0,0,1,2159.353,1252.83Z" transform="translate(-2118.636 -1248.427)" fill="#7d97f4"/>
      </g>
      <g id="Grupo_1044790" data-name="Grupo 1044790" transform="translate(10.113)">
        <g id="Grupo_1044787" data-name="Grupo 1044787" transform="translate(31.054 127.638)">
          <path id="Trazado_772919" data-name="Trazado 772919" d="M1993.578,1451.617c5.533,0,7.981-.474,9.076-.907a2.1,2.1,0,0,1-2.045,1.626h-19.574a.953.953,0,0,1-.919-1.2C1982.349,1451.311,1987.088,1451.617,1993.578,1451.617Z" transform="translate(-1980.084 -1445.965)" fill="url(#linear-gradient-5)"/>
          <path id="Trazado_772920" data-name="Trazado 772920" d="M1980.22,1436.155a.9.9,0,0,1,.161-.332c1.491-1.9,4.486-4.893,8.561-4.835,5.968.084,8.049.731,12.689.036l1.095,3.628a2.1,2.1,0,0,1,.033,1.083c-1.094.433-3.543.907-9.076.907C1987.191,1436.638,1982.453,1436.333,1980.22,1436.155Z" transform="translate(-1980.187 -1430.987)" fill="url(#linear-gradient-6)"/>
        </g>
        <path id="Trazado_772921" data-name="Trazado 772921" d="M2048.6,1414.88l1.342,4.568a7.9,7.9,0,0,1-5.593.267l-.515-3.957Z" transform="translate(-1997.441 -1291.116)" fill="url(#linear-gradient-7)"/>
        <g id="Grupo_1044788" data-name="Grupo 1044788" transform="translate(0 121.031)">
          <path id="Trazado_772922" data-name="Trazado 772922" d="M1861.57,1414.709c4.313,3.466,6.517,4.631,7.64,4.979a2.1,2.1,0,0,1-2.608-.019l-15.258-12.261a.949.949,0,0,1,.034-1.508C1853.006,1407.44,1856.511,1410.644,1861.57,1414.709Z" transform="translate(-1850.987 -1405.328)" fill="url(#linear-gradient-8)"/>
          <path id="Trazado_772923" data-name="Trazado 772923" d="M1852.62,1404.1a.942.942,0,0,1,.332-.159c2.35-.544,6.548-.986,9.687,1.609,4.6,3.8,5.819,5.61,9.867,7.977l-1.407,3.5a2.08,2.08,0,0,1-.65.861c-1.123-.349-3.327-1.516-7.64-4.979C1857.751,1408.837,1854.246,1405.633,1852.62,1404.1Z" transform="translate(-1852.227 -1403.521)" fill="url(#linear-gradient-9)"/>
        </g>
        <path id="Trazado_772924" data-name="Trazado 772924" d="M2050.6,1198.52s-33.126,2.7-39.922,5.9,5.545,48.036,5.545,48.036,1.85.89,5.966-.39c0,0-4.222-33.088-1.08-40.261l35.866-5.867Z" transform="translate(-1970.716 -1126.802)" fill="url(#linear-gradient-10)"/>
        <path id="Trazado_772925" data-name="Trazado 772925" d="M1925.961,1412.746c-.308.281-3.291,6.3-3.291,6.3s-3.322-.719-4-2.822l2.99-5.432Z" transform="translate(-1902.389 -1288.01)" fill="url(#linear-gradient-11)"/>
        <path id="Trazado_772926" data-name="Trazado 772926" d="M2008.427,1197.37a16.747,16.747,0,0,1,1.034,6.05,9.081,9.081,0,0,1-8.667,8.886l-39.162,1.785a1.88,1.88,0,0,0-1.734,1.412c-.921,3.56-5.417,14.491-27.406,36.3a1.774,1.774,0,0,1-2.194.238l-3.129-1.977a.722.722,0,0,1-.238-.974l22.8-38.938a8.822,8.822,0,0,1,5.362-3.976l33.376-8.532Z" transform="translate(-1908.588 -1125.928)" fill="url(#linear-gradient-12)"/>
        <path id="Trazado_772927" data-name="Trazado 772927" d="M2068.147,948.15s11.034,6.543,15.311,10.137l-8.84,4.934s-4.777-5.518-9.329-7.818Z" transform="translate(-2013.739 -936.659)" fill="url(#linear-gradient-13)"/>
        <path id="Trazado_772928" data-name="Trazado 772928" d="M2049.758,1036.453s-10.572,2.576-20.663,0c0,0-14.12-18.982-19.583-24.149,0,0-8.713,13.75-28.108,15.7l-1.083-2.417s15.441-7.118,20.194-18.053,6.663-15.6,10.986-18.455c2.694-1.778,4.306-2.99,5.138-3.654a1.381,1.381,0,0,1,1.583-.1C2022.816,988.119,2044.41,1002.911,2049.758,1036.453Z" transform="translate(-1949.209 -964.735)" fill="#ff6041"/>
        <path id="Trazado_772929" data-name="Trazado 772929" d="M1936.5,1141.166l-2.184-.582-6.627-1.535a3.078,3.078,0,0,0-2.331.392l-5.7,3.587L1935.4,1143Z" transform="translate(-1903.141 -1081.576)" fill="url(#linear-gradient-14)"/>
        <g id="Grupo_1044789" data-name="Grupo 1044789" transform="translate(40.118)">
          <path id="Trazado_772930" data-name="Trazado 772930" d="M2032.4,921.891c-.031.214,2.826,14.209,2.826,14.209l7.958-1.8-.736-13.668S2032.917,918.311,2032.4,921.891Z" transform="translate(-2028.878 -915.199)" fill="url(#linear-gradient-15)"/>
          <path id="Trazado_772931" data-name="Trazado 772931" d="M2029.539,908.859l.95,7.164a1.031,1.031,0,0,1,0,.274c-.079.56-.5,2.473-2.427,1.927-1.751-.5-3.358-.924-4.467-.585a1.009,1.009,0,0,0-.7,1.167,43.536,43.536,0,0,0,1.831,6.521,1.006,1.006,0,0,0,1.222.594,32.615,32.615,0,0,0,7.015-2.87,1.014,1.014,0,0,0,.493-.909c-.077-1.809-.289-7.308-.111-8.848.166-1.446,1.941-2.314,2.714-2.624a.993.993,0,0,0,.553-.553,2.618,2.618,0,0,0-1.761-3.815,1.01,1.01,0,0,1-.64-1.306,2.624,2.624,0,0,0-1.47-3.625,3.7,3.7,0,0,0-4.414,1.063,1.012,1.012,0,0,1-1.287.152.8.8,0,0,0-.909.031.994.994,0,0,1-1.407-.426,3.016,3.016,0,0,0-3.5-1.746c-3.565.611-3.969,4.561-3.029,6.877s4.768,1.434,6.69.267c1.46-.888,3.353.043,4.178.539A1,1,0,0,1,2029.539,908.859Z" transform="translate(-2017.762 -900.379)" fill="url(#linear-gradient-16)"/>
          <path id="Trazado_772932" data-name="Trazado 772932" d="M2081.882,947.343s-1.465-4.1.041-5.109,3.736-.484,3.245,2.49C2084.557,948.421,2081.882,947.343,2081.882,947.343Z" transform="translate(-2065.972 -931.81)" fill="url(#linear-gradient-17)"/>
        </g>
      </g>
      <g id="Grupo_1044793" data-name="Grupo 1044793" transform="translate(0 30.807)">
        <g id="Grupo_1044791" data-name="Grupo 1044791" transform="translate(14.349 30.695)">
          <path id="Trazado_772933" data-name="Trazado 772933" d="M1903.8,1159.085c-.027,0-.051,0-.077,0l-33.624-.034a1.5,1.5,0,1,1,0-3l33.624.034a1.5,1.5,0,0,1,.075,3Z" transform="translate(-1868.6 -1156.049)" fill="url(#linear-gradient-18)"/>
        </g>
        <g id="Grupo_1044792" data-name="Grupo 1044792">
          <path id="Trazado_772934" data-name="Trazado 772934" d="M1811.78,1029.252a.6.6,0,0,1,.034.07l14.147,30.5a1.5,1.5,0,1,1-2.725,1.263l-14.147-30.5a1.5,1.5,0,0,1,2.692-1.333Z" transform="translate(-1808.948 -1028.448)" fill="url(#linear-gradient-19)"/>
        </g>
      </g>
      <g id="Grupo_1044794" data-name="Grupo 1044794" transform="translate(5.572 62.82)">
        <path id="Trazado_772935" data-name="Trazado 772935" d="M1944.918,1175.69c.147.609,14.176,53.227,17.733,66.565a2.414,2.414,0,0,1-2.309,3.048h0a2.394,2.394,0,0,1-2.319-1.833l-15.573-63.142Z" transform="translate(-1915.908 -1172.284)" fill="#0affc6"/>
        <path id="Trazado_772936" data-name="Trazado 772936" d="M1864.53,1175.69c-.147.609-14.176,53.227-17.733,66.565a2.412,2.412,0,0,0,2.309,3.048h0a2.394,2.394,0,0,0,2.319-1.833L1867,1180.328Z" transform="translate(-1843.2 -1172.284)" fill="#0affc6"/>
        <path id="Trazado_772937" data-name="Trazado 772937" d="M1918.35,1168.53h8.737v7.017a1.816,1.816,0,0,1-1.8,1.826h-1.2v15.761a1.375,1.375,0,0,1-1.366,1.383h0a1.374,1.374,0,0,1-1.366-1.383v-15.761h-.609a2.408,2.408,0,0,1-2.394-2.425Z" transform="translate(-1897.605 -1166.846)" fill="#0affc6"/>
        <path id="Trazado_772938" data-name="Trazado 772938" d="M1883.075,1161.53h-48.789a1.5,1.5,0,0,0-1.448,1.135l-.681,2.67a1.508,1.508,0,0,0,1.455,1.891l50.064-.291a1.509,1.509,0,0,0,1.441-1.884l-.592-2.379A1.5,1.5,0,0,0,1883.075,1161.53Z" transform="translate(-1832.109 -1161.53)" fill="#0affc6"/>
      </g>
    </g>
    <g id="Grupo_1044796" data-name="Grupo 1044796" transform="translate(332.57 210.807)">
      <path id="Trazado_772939" data-name="Trazado 772939" d="M988.109,608.658H819.282A32.119,32.119,0,0,1,787.2,576.576V486.366a3.69,3.69,0,1,1,7.38,0v90.212a24.731,24.731,0,0,0,24.7,24.7H988.106a24.73,24.73,0,0,0,24.7-24.7V420.4a32.119,32.119,0,0,1,32.082-32.082h34.935a32.119,32.119,0,0,1,32.082,32.082v96.009a3.69,3.69,0,1,1-7.38,0V420.4a24.731,24.731,0,0,0-24.7-24.7h-34.935a24.73,24.73,0,0,0-24.7,24.7V576.576A32.115,32.115,0,0,1,988.109,608.658Z" transform="translate(-787.2 -388.32)" fill="#ff6041"/>
    </g>
    <g id="Grupo_1044798" data-name="Grupo 1044798" transform="translate(309.905 203.956)">
      <rect id="Rectángulo_356405" data-name="Rectángulo 356405" width="52.712" height="59.039" transform="translate(0 14.231)" fill="#ff6041"/>
      <path id="Trazado_772940" data-name="Trazado 772940" d="M740.948,359.84H697.724a4.744,4.744,0,0,0-4.744,4.744v26.884h52.712V364.584A4.744,4.744,0,0,0,740.948,359.84Z" transform="translate(-692.98 -359.84)" fill="#fff"/>
      <path id="Trazado_772941" data-name="Trazado 772941" d="M752.26,473.78q2.865,13.729,5.732,27.461a3.242,3.242,0,0,0,3.175,2.583h6.377a3.244,3.244,0,0,0,3.175-2.583q2.865-13.729,5.732-27.461Z" transform="translate(-738 -446.372)" fill="#fff"/>
      <path id="Trazado_772942" data-name="Trazado 772942" d="M694.44,664.43q5.932,19.189,11.862,38.38a6.118,6.118,0,0,0,5.848,4.315h16.588a6.127,6.127,0,0,0,5.848-4.315q5.932-19.189,11.862-38.38Z" transform="translate(-694.089 -591.16)" fill="#ff6041"/>
      <g id="Grupo_1044797" data-name="Grupo 1044797" transform="translate(5.273 4.214)">
        <path id="Trazado_772943" data-name="Trazado 772943" d="M720.171,396.688A2.6,2.6,0,0,1,717.7,399.5h-.164a2.727,2.727,0,0,1-2.634-2.812V380.172a2.728,2.728,0,0,1,2.634-2.812h.164a2.6,2.6,0,0,1,2.473,2.812Z" transform="translate(-714.9 -377.36)" fill="#ff6041"/>
        <path id="Trazado_772944" data-name="Trazado 772944" d="M759.61,396.688a2.684,2.684,0,0,1-2.579,2.812h-.164a2.643,2.643,0,0,1-2.528-2.812V380.172a2.644,2.644,0,0,1,2.528-2.812h.164a2.682,2.682,0,0,1,2.579,2.812Z" transform="translate(-744.853 -377.36)" fill="#ff6041"/>
        <path id="Trazado_772945" data-name="Trazado 772945" d="M799.061,396.688a2.771,2.771,0,0,1-2.685,2.812h-.164a2.563,2.563,0,0,1-2.422-2.812V380.172a2.564,2.564,0,0,1,2.422-2.812h.164a2.768,2.768,0,0,1,2.685,2.812Z" transform="translate(-774.813 -377.36)" fill="#ff6041"/>
        <path id="Trazado_772946" data-name="Trazado 772946" d="M836.837,396.688a2.861,2.861,0,0,1-2.79,2.812h-.164a2.9,2.9,0,0,1-2.843-2.812V380.172a2.905,2.905,0,0,1,2.843-2.812h.164a2.857,2.857,0,0,1,2.79,2.812Z" transform="translate(-803.102 -377.36)" fill="#ff6041"/>
        <path id="Trazado_772947" data-name="Trazado 772947" d="M875.751,396.688a2.527,2.527,0,0,1-2.37,2.812h-.163a2.812,2.812,0,0,1-2.738-2.812V380.172a2.814,2.814,0,0,1,2.738-2.812h.163c1.455,0,2.37,1.258,2.37,2.812Z" transform="translate(-833.055 -377.36)" fill="#ff6041"/>
      </g>
      <path id="Trazado_772948" data-name="Trazado 772948" d="M747.363,708.264a2.02,2.02,0,0,1-2.021,2.021H697.2a2.02,2.02,0,0,1-2.021-2.021v-.173a2.02,2.02,0,0,1,2.021-2.021h48.142a2.021,2.021,0,0,1,2.021,2.021v.173Z" transform="translate(-694.651 -622.784)" fill="#ff6041"/>
      <path id="Trazado_772949" data-name="Trazado 772949" d="M752.526,747.574c0,1.051-.541,2.153-1.535,2.153h-42.8a2.307,2.307,0,0,1-2.047-2.153v-.164a2.071,2.071,0,0,1,2.047-1.9h42.8c.994,0,1.535.852,1.535,1.9Z" transform="translate(-702.974 -652.737)" fill="#ff6041"/>
      <path id="Trazado_772950" data-name="Trazado 772950" d="M759.868,789.079c0,.986-.31,2.278-1.186,2.278H721c-.873,0-1.715-1.294-1.715-2.278v-.154A1.8,1.8,0,0,1,721,787.14h37.687c.873,0,1.186.8,1.186,1.785v.154Z" transform="translate(-712.954 -684.352)" fill="#ff6041"/>
    </g>
    <g id="Grupo_1044799" data-name="Grupo 1044799" transform="translate(309.905 305.056)">
      <path id="Trazado_772951" data-name="Trazado 772951" d="M1942.219,1111.187l.613-1.487a.8.8,0,0,0-1.474-.609l0,.007-.01.026-.578,1.441-.01.026a.788.788,0,0,0,1.46.594Z" transform="translate(-1640.56 -1029.583)" fill="#fff"/>
      <path id="Trazado_772952" data-name="Trazado 772952" d="M1949.63,1090.224l.44-1.547a.824.824,0,0,0-1.585-.45l0,.007-.007.026-.409,1.5-.007.026a.816.816,0,0,0,1.571.44Z" transform="translate(-1646.126 -1013.657)" fill="#fff"/>
      <path id="Trazado_772953" data-name="Trazado 772953" d="M1954.642,1068.636l.267-1.585a.85.85,0,0,0-1.677-.281l0,.007,0,.026-.243,1.535,0,.026a.843.843,0,0,0,1.665.272Z" transform="translate(-1649.875 -997.276)" fill="#fff"/>
      <path id="Trazado_772954" data-name="Trazado 772954" d="M1957.333,1046.667l.1-1.6a.876.876,0,0,0-1.749-.108v.01l0,.026-.082,1.552,0,.026a.87.87,0,0,0,1.737.1Z" transform="translate(-1651.871 -980.624)" fill="#fff"/>
      <path id="Trazado_772955" data-name="Trazado 772955" d="M1957.522,1024.591l-.062-1.607a.9.9,0,1,0-1.8.07v.01l0,.026.077,1.552,0,.026a.892.892,0,0,0,1.782-.077Z" transform="translate(-1651.918 -963.905)" fill="#fff"/>
      <path id="Trazado_772956" data-name="Trazado 772956" d="M1955.231,1002.619l-.221-1.595a.928.928,0,0,0-1.838.255l0,.01,0,.026.229,1.54,0,.026a.919.919,0,0,0,1.819-.262Z" transform="translate(-1650.025 -947.278)" fill="#fff"/>
      <path id="Trazado_772957" data-name="Trazado 772957" d="M1950.847,980.97l-.373-1.564a.953.953,0,1,0-1.855.44l0,.01.007.026.375,1.508.007.026a.945.945,0,0,0,1.835-.447Z" transform="translate(-1646.554 -930.912)" fill="#fff"/>
      <path id="Trazado_772958" data-name="Trazado 772958" d="M1944.413,959.823l-.52-1.523a.979.979,0,1,0-1.852.635l0,.01.01.026.517,1.465.01.026a.971.971,0,0,0,1.833-.64Z" transform="translate(-1641.537 -914.936)" fill="#fff"/>
      <path id="Trazado_772959" data-name="Trazado 772959" d="M1935.984,939.385l-.666-1.467a1,1,0,0,0-1.831.83l0,.01.012.026.654,1.407.012.026a1,1,0,0,0,1.814-.832Z" transform="translate(-1635.013 -899.512)" fill="#fff"/>
      <path id="Trazado_772960" data-name="Trazado 772960" d="M1925.618,919.84l-.808-1.4a1.03,1.03,0,0,0-1.785,1.03l0,.01.017.026.789,1.337.015.026a1.024,1.024,0,0,0,1.768-1.032Z" transform="translate(-1627.031 -884.778)" fill="#fff"/>
      <path id="Trazado_772961" data-name="Trazado 772961" d="M1913.391,901.435l-.945-1.306a1.051,1.051,0,0,0-1.7,1.232l0,0,.019.026.914,1.248.019.026a1.047,1.047,0,0,0,1.693-1.232Z" transform="translate(-1617.657 -870.931)" fill="#fff"/>
      <path id="Trazado_772962" data-name="Trazado 772962" d="M1899.347,884.4l-1.08-1.2a1.065,1.065,0,0,0-1.585,1.422l0,0,.024.024,1.039,1.145.024.024a1.059,1.059,0,0,0,1.573-1.417Z" transform="translate(-1606.923 -858.131)" fill="#fff"/>
      <path id="Trazado_772963" data-name="Trazado 772963" d="M1883.562,868.961l-1.205-1.078a1.078,1.078,0,1,0-1.438,1.607l0,0,.027.024,1.157,1.025.027.024a1.075,1.075,0,0,0,1.429-1.607Z" transform="translate(-1594.885 -846.564)" fill="#fff"/>
      <path id="Trazado_772964" data-name="Trazado 772964" d="M1866.14,855.372l-1.321-.936a1.094,1.094,0,1,0-1.265,1.785l0,0,.031.022,1.265.885.031.022a1.089,1.089,0,0,0,1.253-1.78Z" transform="translate(-1581.62 -836.408)" fill="#fff"/>
      <path id="Trazado_772965" data-name="Trazado 772965" d="M1847.343,843.794l-1.41-.789a1.108,1.108,0,1,0-1.082,1.934l0,0,.029.017,1.354.748.029.017a1.1,1.1,0,0,0,1.075-1.929Z" transform="translate(-1567.336 -827.771)" fill="#fff"/>
      <path id="Trazado_772966" data-name="Trazado 772966" d="M1827.5,834.14l-1.477-.647a1.123,1.123,0,1,0-.9,2.057l0,0,.029.012,1.422.613.029.012a1.118,1.118,0,0,0,.9-2.049Z" transform="translate(-1552.272 -820.583)" fill="#fff"/>
      <path id="Trazado_772967" data-name="Trazado 772967" d="M1806.839,826.383l-1.528-.51a1.137,1.137,0,0,0-.719,2.158l0,0,.029.01,1.474.483.029.01a1.133,1.133,0,0,0,.71-2.153Z" transform="translate(-1536.601 -814.823)" fill="#fff"/>
      <path id="Trazado_772968" data-name="Trazado 772968" d="M1785.6,820.457l-1.564-.38a1.151,1.151,0,0,0-.544,2.237l.007,0,.026.007,1.511.358.026.007a1.148,1.148,0,0,0,.536-2.232Z" transform="translate(-1520.502 -810.441)" fill="#fff"/>
      <path id="Trazado_772969" data-name="Trazado 772969" d="M1763.967,816.231l-1.585-.26a1.166,1.166,0,0,0-.378,2.3h.007l.024,0,1.537.243.026,0a1.162,1.162,0,0,0,.368-2.295Z" transform="translate(-1504.106 -807.336)" fill="#fff"/>
      <path id="Trazado_772970" data-name="Trazado 772970" d="M1742.1,813.573l-1.6-.149a1.18,1.18,0,1,0-.219,2.35h.007l.024,0,1.552.135.024,0a1.175,1.175,0,0,0,.209-2.341Z" transform="translate(-1487.537 -805.409)" fill="#fff"/>
      <path id="Trazado_772971" data-name="Trazado 772971" d="M1720.092,812.347l-1.6-.048a1.2,1.2,0,1,0-.072,2.391h.029l1.559.038h.022a1.191,1.191,0,0,0,.065-2.381Z" transform="translate(-1470.866 -804.558)" fill="#fff"/>
      <path id="Trazado_772972" data-name="Trazado 772972" d="M1698.067,812.269l-1.6.041a1.21,1.21,0,0,0,.062,2.42h.026l1.561-.048h.019a1.207,1.207,0,0,0-.07-2.413Z" transform="translate(-1454.182 -804.536)" fill="#fff"/>
      <path id="Trazado_772973" data-name="Trazado 772973" d="M1676.111,813.248l-1.595.125a1.217,1.217,0,0,0,.19,2.427h0l.017,0,1.559-.125.017,0a1.215,1.215,0,0,0-.19-2.422Z" transform="translate(-1437.554 -805.277)" fill="#fff"/>
      <path id="Trazado_772974" data-name="Trazado 772974" d="M1654.262,815.348l-1.585.2a1.223,1.223,0,0,0,.308,2.427h0l.017,0,1.552-.2.017,0a1.221,1.221,0,1,0-.31-2.422Z" transform="translate(-1421.009 -806.867)" fill="#fff"/>
      <path id="Trazado_772975" data-name="Trazado 772975" d="M1632.524,818.433l-1.576.269a1.228,1.228,0,1,0,.414,2.42h0l.014,0,1.544-.267.015,0a1.226,1.226,0,0,0-.414-2.418Z" transform="translate(-1404.543 -809.203)" fill="#fff"/>
      <path id="Trazado_772976" data-name="Trazado 772976" d="M1610.968,822.424l-1.559.325a1.233,1.233,0,0,0,.505,2.413h0l.012,0,1.532-.322.012,0a1.231,1.231,0,0,0-.505-2.41Z" transform="translate(-1388.217 -812.228)" fill="#fff"/>
      <path id="Trazado_772977" data-name="Trazado 772977" d="M1589.557,827.166l-1.549.378a1.237,1.237,0,1,0,.585,2.4h0l.012,0,1.525-.375.012,0a1.236,1.236,0,0,0-.587-2.4Z" transform="translate(-1371.99 -815.822)" fill="#fff"/>
      <path id="Trazado_772978" data-name="Trazado 772978" d="M1568.318,832.594l-1.535.426a1.242,1.242,0,0,0,.661,2.393h0l.01,0,1.513-.421.012,0a1.242,1.242,0,0,0-.664-2.393Z" transform="translate(-1355.897 -819.937)" fill="#fff"/>
      <path id="Trazado_772979" data-name="Trazado 772979" d="M1547.265,838.674l-1.52.469a1.246,1.246,0,1,0,.736,2.381h0l.01,0,1.5-.467.01,0a1.245,1.245,0,0,0-.736-2.379Z" transform="translate(-1339.943 -824.547)" fill="#fff"/>
      <path id="Trazado_772980" data-name="Trazado 772980" d="M1526.395,845.366l-1.506.512a1.251,1.251,0,1,0,.806,2.369h0l.01,0,1.487-.508.01,0a1.252,1.252,0,0,0-.808-2.369Z" transform="translate(-1324.127 -829.62)" fill="#fff"/>
      <path id="Trazado_772981" data-name="Trazado 772981" d="M1505.719,852.619l-1.491.551a1.257,1.257,0,1,0,.871,2.357h0l.01,0,1.474-.546.01,0a1.257,1.257,0,0,0-.876-2.357Z" transform="translate(-1308.457 -835.119)" fill="#fff"/>
      <path id="Trazado_772982" data-name="Trazado 772982" d="M1485.232,860.394l-1.477.587a1.262,1.262,0,0,0,.931,2.345h0l.007,0,1.46-.582.007,0a1.262,1.262,0,0,0-.931-2.345Z" transform="translate(-1292.928 -841.016)" fill="#fff"/>
      <path id="Trazado_772983" data-name="Trazado 772983" d="M1464.936,868.65l-1.465.621a1.266,1.266,0,1,0,.989,2.331h0l.007,0,1.448-.616.007,0a1.266,1.266,0,0,0-.989-2.331Z" transform="translate(-1277.541 -847.277)" fill="#fff"/>
      <path id="Trazado_772984" data-name="Trazado 772984" d="M1444.83,877.345l-1.451.649a1.271,1.271,0,1,0,1.039,2.319h0l.007,0,1.436-.645.007,0a1.271,1.271,0,0,0-1.041-2.319Z" transform="translate(-1262.299 -853.873)" fill="#fff"/>
      <path id="Trazado_772985" data-name="Trazado 772985" d="M1424.9,886.443l-1.436.676a1.275,1.275,0,1,0,1.085,2.307h0l.007,0,1.422-.674.007,0a1.274,1.274,0,0,0-1.087-2.3Z" transform="translate(-1247.19 -860.775)" fill="#fff"/>
      <path id="Trazado_772986" data-name="Trazado 772986" d="M1405.156,895.9l-1.424.7a1.28,1.28,0,1,0,1.128,2.3h0l0,0,1.412-.7,0,0a1.279,1.279,0,0,0-1.128-2.295Z" transform="translate(-1232.216 -867.95)" fill="#fff"/>
      <path id="Trazado_772987" data-name="Trazado 772987" d="M1385.553,905.686l-1.415.722a1.286,1.286,0,0,0,1.172,2.29h0l0,0,1.4-.719,0,0a1.285,1.285,0,0,0-1.171-2.288Z" transform="translate(-1217.348 -875.375)" fill="#fff"/>
      <path id="Trazado_772988" data-name="Trazado 772988" d="M1366.085,915.764l-1.4.743a1.29,1.29,0,1,0,1.208,2.28h0l0,0,1.393-.741,0,0a1.289,1.289,0,0,0-1.208-2.278Z" transform="translate(-1202.58 -883.021)" fill="#fff"/>
      <path id="Trazado_772989" data-name="Trazado 772989" d="M1346.781,926.107l-1.393.763a1.29,1.29,0,0,0,1.239,2.264h0l1.388-.755,0,0a1.293,1.293,0,1,0-1.241-2.268Z" transform="translate(-1187.941 -890.869)" fill="#fff"/>
      <path id="Trazado_772990" data-name="Trazado 772990" d="M1327.61,936.7l-1.386.777a1.286,1.286,0,0,0,1.258,2.244h0l1.378-.77,0,0a1.288,1.288,0,0,0-1.256-2.249Z" transform="translate(-1173.397 -898.914)" fill="#fff"/>
      <path id="Trazado_772991" data-name="Trazado 772991" d="M1308.547,947.493l-1.376.789a1.282,1.282,0,1,0,1.273,2.225h0l1.371-.782,0,0a1.283,1.283,0,0,0-1.27-2.23Z" transform="translate(-1158.936 -907.103)" fill="#fff"/>
      <path id="Trazado_772992" data-name="Trazado 772992" d="M1289.564,958.442l-1.369.8a1.278,1.278,0,1,0,1.287,2.208l1.366-.791a1.279,1.279,0,1,0-1.28-2.216Z" transform="translate(-1144.533 -915.415)" fill="#fff"/>
      <path id="Trazado_772993" data-name="Trazado 772993" d="M1270.661,969.523l-1.364.8a1.273,1.273,0,0,0,1.289,2.2l1.364-.8a1.275,1.275,0,1,0-1.287-2.2Z" transform="translate(-1130.187 -923.829)" fill="#fff"/>
      <path id="Trazado_772994" data-name="Trazado 772994" d="M1251.787,980.655l-1.362.8a1.269,1.269,0,1,0,1.287,2.187l1.364-.8a1.27,1.27,0,1,0-1.289-2.189Z" transform="translate(-1115.856 -932.283)" fill="#fff"/>
      <path id="Trazado_772995" data-name="Trazado 772995" d="M1232.9,991.747l-1.364.8a1.265,1.265,0,0,0,1.272,2.187l1.369-.8a1.267,1.267,0,0,0-1.275-2.189Z" transform="translate(-1101.507 -940.707)" fill="#fff"/>
      <path id="Trazado_772996" data-name="Trazado 772996" d="M1213.93,1002.75l-1.369.784,0,0a1.26,1.26,0,0,0,1.248,2.189l1.379-.784a1.263,1.263,0,0,0-1.251-2.194h0Z" transform="translate(-1087.09 -949.069)" fill="#fff"/>
      <path id="Trazado_772997" data-name="Trazado 772997" d="M1194.852,1013.549l-1.378.765,0,0a1.257,1.257,0,0,0,1.217,2.2l1.388-.767a1.257,1.257,0,1,0-1.215-2.2h0Z" transform="translate(-1072.585 -957.277)" fill="#fff"/>
      <path id="Trazado_772998" data-name="Trazado 772998" d="M1175.611,1024.052l-1.391.741-.007,0a1.252,1.252,0,0,0,1.174,2.211l1.4-.746a1.253,1.253,0,0,0-1.174-2.213h0Z" transform="translate(-1057.947 -965.26)" fill="#fff"/>
      <path id="Trazado_772999" data-name="Trazado 772999" d="M1156.163,1034.194l-1.4.707-.007,0a1.248,1.248,0,0,0,1.121,2.23l1.422-.714a1.249,1.249,0,0,0-1.121-2.232h0Z" transform="translate(-1043.149 -972.972)" fill="#fff"/>
      <path id="Trazado_773000" data-name="Trazado 773000" d="M1136.476,1043.873l-1.422.669-.01,0a1.243,1.243,0,0,0,1.056,2.252l1.441-.676a1.244,1.244,0,1,0-1.056-2.254h0Z" transform="translate(-1028.163 -980.334)" fill="#fff"/>
      <path id="Trazado_773001" data-name="Trazado 773001" d="M1116.542,1052.961l-1.438.623-.012,0a1.238,1.238,0,0,0,.981,2.273l1.463-.63a1.242,1.242,0,0,0-.984-2.28h0Z" transform="translate(-1012.985 -987.246)" fill="#fff"/>
      <path id="Trazado_773002" data-name="Trazado 773002" d="M1096.314,1061.412l-1.46.57-.012,0a1.235,1.235,0,0,0,.9,2.3l1.487-.577a1.236,1.236,0,1,0-.895-2.3h0Z" transform="translate(-997.577 -993.68)" fill="#fff"/>
      <path id="Trazado_773003" data-name="Trazado 773003" d="M1075.762,1069.069l-1.479.507-.017.005a1.23,1.23,0,0,0,.8,2.328l1.513-.517a1.232,1.232,0,1,0-.8-2.331h0Z" transform="translate(-981.916 -999.507)" fill="#fff"/>
      <path id="Trazado_773004" data-name="Trazado 773004" d="M1054.924,1075.842l-1.5.438-.017,0a1.226,1.226,0,0,0,.686,2.355l1.535-.445a1.227,1.227,0,0,0-.683-2.357h0Z" transform="translate(-966.035 -1004.666)" fill="#fff"/>
      <path id="Trazado_773005" data-name="Trazado 773005" d="M1033.788,1081.617l-1.52.363-.019,0a1.221,1.221,0,0,0,.565,2.377l1.556-.368a1.223,1.223,0,0,0-.565-2.379h0Z" transform="translate(-949.925 -1009.065)" fill="#fff"/>
      <path id="Trazado_773006" data-name="Trazado 773006" d="M1012.416,1086.292l-1.535.281-.019,0a1.218,1.218,0,0,0,.438,2.4l1.576-.286a1.219,1.219,0,1,0-.435-2.4h0Z" transform="translate(-933.637 -1012.624)" fill="#fff"/>
      <path id="Trazado_773007" data-name="Trazado 773007" d="M990.826,1089.806l-1.547.195-.022,0a1.21,1.21,0,0,0,.3,2.4l1.59-.193a1.214,1.214,0,0,0-.293-2.41h0Z" transform="translate(-917.184 -1015.3)" fill="#fff"/>
      <path id="Trazado_773008" data-name="Trazado 773008" d="M969.119,1092.11l-1.554.1-.024,0a1.2,1.2,0,0,0,.147,2.391l1.6-.094a1.2,1.2,0,0,0-.142-2.4h0Z" transform="translate(-900.644 -1017.061)" fill="#fff"/>
      <path id="Trazado_773009" data-name="Trazado 773009" d="M947.336,1092.985l-1.556,0h-.024a1.183,1.183,0,0,0-.01,2.367l1.607.012a1.188,1.188,0,0,0,.019-2.377h-.036Z" transform="translate(-884.05 -1017.722)" fill="#fff"/>
      <path id="Trazado_773010" data-name="Trazado 773010" d="M925.561,1092.028l-1.549-.115-.026,0a1.171,1.171,0,0,0-.18,2.336l1.6.127a1.175,1.175,0,0,0,.188-2.343h0Z" transform="translate(-867.46 -1016.906)" fill="#fff"/>
      <path id="Trazado_773011" data-name="Trazado 773011" d="M903.942,1089.438l-1.535-.236-.029,0a1.158,1.158,0,0,0-.356,2.288l1.59.253a1.163,1.163,0,1,0,.363-2.3h0Z" transform="translate(-850.994 -1014.839)" fill="#fff"/>
      <path id="Trazado_773012" data-name="Trazado 773012" d="M882.61,1085.109l-1.511-.361-.029-.007a1.145,1.145,0,0,0-.539,2.225l1.564.382a1.149,1.149,0,1,0,.544-2.232l0,0Z" transform="translate(-834.752 -1011.44)" fill="#fff"/>
      <path id="Trazado_773013" data-name="Trazado 773013" d="M861.737,1078.987l-1.472-.491-.029-.01a1.132,1.132,0,0,0-.722,2.146l1.527.517a1.136,1.136,0,0,0,.729-2.153l0,0Z" transform="translate(-818.871 -1006.67)" fill="#fff"/>
      <path id="Trazado_773014" data-name="Trazado 773014" d="M841.5,1071.015l-1.422-.621-.026-.012a1.118,1.118,0,0,0-.9,2.047l1.472.652a1.123,1.123,0,0,0,.909-2.054l0,0Z" transform="translate(-803.484 -1000.488)" fill="#fff"/>
      <path id="Trazado_773015" data-name="Trazado 773015" d="M822.056,1061.261l-1.361-.746-.026-.014a1.106,1.106,0,0,0-1.066,1.939l1.41.779a1.11,1.11,0,0,0,1.075-1.941l0,0Z" transform="translate(-788.708 -992.952)" fill="#fff"/>
      <path id="Trazado_773016" data-name="Trazado 773016" d="M803.549,1049.838l-1.292-.861-.024-.017a1.093,1.093,0,0,0-1.217,1.816l1.335.9a1.1,1.1,0,1,0,1.224-1.819l0,0Z" transform="translate(-774.661 -984.152)" fill="#fff"/>
      <path id="Trazado_773017" data-name="Trazado 773017" d="M786.073,1036.87l-1.215-.969-.022-.017a1.08,1.08,0,0,0-1.352,1.684l1.253,1.01a1.083,1.083,0,1,0,1.359-1.686l0,0Z" transform="translate(-761.406 -974.181)" fill="#fff"/>
      <path id="Trazado_773018" data-name="Trazado 773018" d="M769.784,1022.434l-1.128-1.071-.019-.019a1.066,1.066,0,0,0-1.472,1.542l1.162,1.114a1.07,1.07,0,0,0,1.482-1.544l0,0Z" transform="translate(-749.067 -963.095)" fill="#fff"/>
      <path id="Trazado_773019" data-name="Trazado 773019" d="M754.793,1006.664l-1.032-1.162-.019-.019a1.052,1.052,0,0,0-1.578,1.393l1.061,1.21a1.057,1.057,0,0,0,1.588-1.4l0,0Z" transform="translate(-737.726 -951.003)" fill="#fff"/>
      <path id="Trazado_773020" data-name="Trazado 773020" d="M741.251,989.656l-.926-1.246-.017-.022a1.039,1.039,0,0,0-1.672,1.234l.95,1.3a1.045,1.045,0,1,0,1.684-1.236l0,0Z" transform="translate(-727.501 -937.972)" fill="#fff"/>
      <path id="Trazado_773021" data-name="Trazado 773021" d="M729.268,971.549l-.813-1.323-.014-.024a1.016,1.016,0,0,0-1.734,1.058l.83,1.378a1.024,1.024,0,1,0,1.754-1.056l0-.007Z" transform="translate(-718.482 -924.11)" fill="#fff"/>
      <path id="Trazado_773022" data-name="Trazado 773022" d="M718.97,952.425l-.69-1.393-.012-.024a.993.993,0,0,0-1.782.876l.7,1.448a1,1,0,1,0,1.8-.873l0-.007Z" transform="translate(-710.755 -909.482)" fill="#fff"/>
      <path id="Trazado_773023" data-name="Trazado 773023" d="M710.464,932.442l-.563-1.451-.01-.024a.969.969,0,0,0-1.809.693l.568,1.5a.976.976,0,0,0,1.826-.69l0-.007Z" transform="translate(-704.402 -894.212)" fill="#fff"/>
      <path id="Trazado_773024" data-name="Trazado 773024" d="M703.778,911.774l-.433-1.5-.007-.024a.946.946,0,0,0-1.819.52l.433,1.547a.953.953,0,1,0,1.835-.512l0-.007Z" transform="translate(-699.438 -878.432)" fill="#fff"/>
      <path id="Trazado_773025" data-name="Trazado 773025" d="M698.928,890.592l-.3-1.527,0-.024a.922.922,0,0,0-1.811.349l.3,1.578a.929.929,0,0,0,1.826-.344l0-.007Z" transform="translate(-695.878 -862.275)" fill="#fff"/>
      <path id="Trazado_773026" data-name="Trazado 773026" d="M695.923,869.053l-.168-1.549,0-.024a.9.9,0,0,0-1.787.188l.161,1.6a.905.905,0,1,0,1.8-.183v-.007Z" transform="translate(-693.724 -845.857)" fill="#fff"/>
      <path id="Trazado_773027" data-name="Trazado 773027" d="M694.77,847.326l-.036-1.559v-.022a.877.877,0,0,0-1.754.031l.024,1.6a.883.883,0,0,0,1.766-.024v-.031Z" transform="translate(-692.98 -829.31)" fill="#fff"/>
      <path id="Trazado_773028" data-name="Trazado 773028" d="M695.148,825.577l.1-1.556,0-.022a.852.852,0,0,0-1.7-.115l-.115,1.6a.86.86,0,1,0,1.715.123v-.029Z" transform="translate(-693.322 -812.757)" fill="#fff"/>
      <path id="Trazado_773029" data-name="Trazado 773029" d="M697.314,803.967l.233-1.542,0-.022a.829.829,0,0,0-1.638-.255l-.255,1.583a.836.836,0,1,0,1.65.265l0-.007Z" transform="translate(-695.005 -796.321)" fill="#fff"/>
      <path id="Trazado_773030" data-name="Trazado 773030" d="M701.391,782.657l.37-1.516,0-.022a.806.806,0,0,0-1.564-.39l-.392,1.554a.814.814,0,1,0,1.578.4l0-.007Z" transform="translate(-698.148 -780.122)" fill="#fff"/>
    </g>
    <g id="Grupo_1044802" data-name="Grupo 1044802" transform="translate(191.828 385.346)">
      <g id="Grupo_1044800" data-name="Grupo 1044800" transform="translate(0)">
        <path id="Trazado_773031" data-name="Trazado 773031" d="M292.528,1114.379l-85.87-.479a4.508,4.508,0,0,0-3.89,6.827l.431.719a4.506,4.506,0,0,0,3.863,2.187H292.5a4.508,4.508,0,0,0,4.508-4.508v-.241A4.506,4.506,0,0,0,292.528,1114.379Z" transform="translate(-202.119 -1113.9)" fill="#bdd0fb"/>
        <path id="Trazado_773032" data-name="Trazado 773032" d="M627.82,1120.815v.14a4.508,4.508,0,0,0,4.508,4.508h19.061a4.505,4.505,0,0,0,4.354-3.344h0a4.508,4.508,0,0,0-4.323-5.67l-19.061-.14A4.506,4.506,0,0,0,627.82,1120.815Z" transform="translate(-525.417 -1115.73)" fill="#bdd0fb"/>
      </g>
      <g id="Grupo_1044801" data-name="Grupo 1044801" transform="translate(0 16.179)">
        <path id="Trazado_773033" data-name="Trazado 773033" d="M271.872,1181.639l-65.213-.479a4.507,4.507,0,0,0-3.89,6.827l.431.719a4.507,4.507,0,0,0,3.863,2.187h64.783a4.508,4.508,0,0,0,4.508-4.508v-.241A4.506,4.506,0,0,0,271.872,1181.639Z" transform="translate(-202.119 -1181.16)" fill="#bdd0fb"/>
        <path id="Trazado_773034" data-name="Trazado 773034" d="M541.96,1188.075v.14a4.508,4.508,0,0,0,4.508,4.508h19.061a4.5,4.5,0,0,0,4.354-3.344h0a4.507,4.507,0,0,0-4.32-5.67l-19.061-.14A4.505,4.505,0,0,0,541.96,1188.075Z" transform="translate(-460.211 -1182.99)" fill="#bdd0fb"/>
      </g>
    </g>
    <g id="Grupo_1044805" data-name="Grupo 1044805" transform="translate(550.266 187.146)">
      <g id="Grupo_1044803" data-name="Grupo 1044803" transform="translate(0)">
        <path id="Trazado_773035" data-name="Trazado 773035" d="M1782.6,290.439l-85.87-.479a4.508,4.508,0,0,0-3.89,6.827l.431.719a4.506,4.506,0,0,0,3.863,2.187h85.439a4.508,4.508,0,0,0,4.508-4.508v-.241A4.505,4.505,0,0,0,1782.6,290.439Z" transform="translate(-1692.189 -289.96)" fill="#bdd0fb"/>
        <path id="Trazado_773036" data-name="Trazado 773036" d="M2117.9,296.875v.139a4.508,4.508,0,0,0,4.508,4.508h19.062a4.505,4.505,0,0,0,4.354-3.344h0a4.508,4.508,0,0,0-4.323-5.67l-19.062-.139A4.5,4.5,0,0,0,2117.9,296.875Z" transform="translate(-2015.495 -291.79)" fill="#bdd0fb"/>
      </g>
      <g id="Grupo_1044804" data-name="Grupo 1044804" transform="translate(0 16.179)">
        <path id="Trazado_773037" data-name="Trazado 773037" d="M1761.942,357.7l-65.214-.479a4.508,4.508,0,0,0-3.89,6.827l.431.719a4.506,4.506,0,0,0,3.863,2.187h64.783a4.508,4.508,0,0,0,4.508-4.508V362.2A4.5,4.5,0,0,0,1761.942,357.7Z" transform="translate(-1692.189 -357.22)" fill="#bdd0fb"/>
        <path id="Trazado_773038" data-name="Trazado 773038" d="M2032.03,364.135v.14a4.508,4.508,0,0,0,4.508,4.508H2055.6a4.5,4.5,0,0,0,4.354-3.344h0a4.508,4.508,0,0,0-4.323-5.67l-19.061-.14A4.5,4.5,0,0,0,2032.03,364.135Z" transform="translate(-1950.281 -359.05)" fill="#bdd0fb"/>
      </g>
    </g>
    <g id="Grupo_1044807" data-name="Grupo 1044807" transform="translate(188.568 267.875)">
      <path id="Trazado_773039" data-name="Trazado 773039" d="M260.754,727.55c.791.091-2.56,5.542-2.766,5.759-4.607,4.833-12.155,5.316-16.35,10.731-4.421,5.708-5.249,13.435-4.186,20.372a15.275,15.275,0,0,1-2.1,11.077c-1.886,3.139-4.058,6.093-3.957,9.94.2,7.58,4.267,16.374,11.664,19.376a18.754,18.754,0,0,0,11.927.01c21.077-7.575,23.37-16.7,19.408-23.694s-3.271-11.07.657-15.342,3.18-30.985-3.793-34.406C264.3,727.961,260.771,727.552,260.754,727.55Z" transform="translate(-221.094 -703.016)" fill="url(#linear-gradient-20)"/>
      <path id="Trazado_773040" data-name="Trazado 773040" d="M438.8,673.54s-10.594,28.881-28.645,37.906c0,0,6.009,9.8,9.143,10.4,0,0,19.283-24.681,21.248-44.9Z" transform="translate(-356.856 -661.998)" fill="url(#linear-gradient-21)"/>
      <path id="Trazado_773041" data-name="Trazado 773041" d="M197.923,1390.417l-.532,4.38a1.809,1.809,0,0,1-1.588,1.583,27.933,27.933,0,0,1-5.862.091,1.551,1.551,0,0,1-1.3-2.009,15.945,15.945,0,0,1,2.937-5.723h4.859A1.5,1.5,0,0,1,197.923,1390.417Z" transform="translate(-188.568 -1205.156)" fill="url(#linear-gradient-22)"/>
      <path id="Trazado_773042" data-name="Trazado 773042" d="M356.047,1182.42l.82,4.823s-2.747,27.815-3.235,38.943a8.727,8.727,0,0,0,1.289,4.955l4.775,7.755-12.136-7.161-.241-1.482,1.987-2.733-2.6-31.161a9.545,9.545,0,0,1,1.087-5.287l2.511-4.715Z" transform="translate(-308.639 -1048.467)" fill="url(#linear-gradient-23)"/>
      <path id="Trazado_773043" data-name="Trazado 773043" d="M359.537,1385.515h-3.873a2.327,2.327,0,0,1-1.85-.907c-1.208-1.568-3.709-4.631-4.9-4.71-1.609-.108-1.4,5.617-1.4,5.617h-.9l-1.143-7.113a4.211,4.211,0,0,1,2.208-4.4h0a5.949,5.949,0,0,0,2.365,3.926c2,1.205,8.121,5.516,8.121,5.516a5.6,5.6,0,0,1,1.573.041A1.025,1.025,0,0,1,359.537,1385.515Z" transform="translate(-307.678 -1193.962)" fill="url(#linear-gradient-24)"/>
      <path id="Trazado_773044" data-name="Trazado 773044" d="M224.724,1185.621s-16.088,30.516-18.645,37.485a66.892,66.892,0,0,0-3.488,13.331c-.053.861-1.123,1.684-4.073,1.684a2.83,2.83,0,0,1-2.632-1.2,1.721,1.721,0,0,1-.065-1.665c.931-1.884,3.885-7.9,4.977-10.632,1.306-3.26,4.116-18.029,5.655-23.165s3.281-10.707,9.99-15.838C216.444,1185.621,221.05,1181.111,224.724,1185.621Z" transform="translate(-193.937 -1049.375)" fill="url(#linear-gradient-25)"/>
      <path id="Trazado_773045" data-name="Trazado 773045" d="M338.713,867.907c4.15-17.584-6.363-27.531-6.363-27.531,6.634-6.367,18.72-9.266,18.72-9.266s11.532,8.431,10.166,15.032c-.8,3.868-8.107,23.167-8.107,23.167A16.046,16.046,0,0,1,338.713,867.907Z" transform="translate(-297.763 -781.665)" fill="#ff6041"/>
      <path id="Trazado_773046" data-name="Trazado 773046" d="M289.77,992.786c1.689-5.088,9.2-8.706,9.2-8.706a16.045,16.045,0,0,0,14.414,1.4,28.9,28.9,0,0,1,.469,11.171c-1.046,5.381-7.6,39.961-7.6,39.961-10.336,2.1-26.23-2.107-26.23-2.107C286.6,1022.821,288.081,997.873,289.77,992.786Z" transform="translate(-258.021 -897.838)" fill="url(#linear-gradient-26)"/>
      <path id="Trazado_773047" data-name="Trazado 773047" d="M368,778.243,364.625,793.4c-.322,1.335.895,1.116,2.244.861,2.211-.416,5.059-1.275,6.011-2.995a1.686,1.686,0,0,0,.173-.57l1.451-10.51a1.889,1.889,0,0,0-1.1-1.984l-2.8-1.241A1.891,1.891,0,0,0,368,778.243Z" transform="translate(-322.234 -740.416)" fill="url(#linear-gradient-27)"/>
      <path id="Trazado_773048" data-name="Trazado 773048" d="M296.291,869.63s-23.548,16.848-3.012,34.55a5.327,5.327,0,0,0,2.324,1.347,25.58,25.58,0,0,1,4.246,2.882.8.8,0,0,0,1.169-.209h0a1.094,1.094,0,0,0,.063-1.046l-2.915-6.165a2.248,2.248,0,0,0-2.92-.125h0a1.109,1.109,0,0,1-1.681-.38c-1.588-3.233-4.585-12.742,7.683-23.49a1.332,1.332,0,0,0,.3-1.617C300.678,873.719,298.706,870.431,296.291,869.63Z" transform="translate(-261.706 -810.919)" fill="url(#linear-gradient-28)"/>
      <path id="Trazado_773049" data-name="Trazado 773049" d="M372.816,722.067s4,1.686,6.714,7.462.688,8.441-1.859,8.807a11.931,11.931,0,0,1-10.392-3.421C363.244,731.186,367.62,720.068,372.816,722.067Z" transform="translate(-323.091 -698.671)" fill="url(#linear-gradient-29)"/>
      <path id="Trazado_773050" data-name="Trazado 773050" d="M356.094,715.587s-3.014-8.448,4.474-8.547l1.763,1.232s2.747-4.684-1.763-6.921-9.79-.39-11.71,5.689-2.247,10.144.945,13.052,4.51-.39,4.51-.39-1.739-2.718-1.032-4.174,2.341.3,2.341.3Z" transform="translate(-309.198 -682.425)" fill="url(#linear-gradient-30)"/>
      <path id="Trazado_773051" data-name="Trazado 773051" d="M369.9,757.774s-1.525-4.352-3.558-2.62,1.653,4.02,3.1,4.76Z" transform="translate(-323.124 -723.671)" fill="url(#linear-gradient-31)"/>
      <g id="Grupo_1044806" data-name="Grupo 1044806" transform="translate(79.842)">
        <path id="Trazado_773052" data-name="Trazado 773052" d="M523.6,642.358c.161.515-1.71,1.3-2.812-.806-.038-1.008-.652-5.321-.048-6.144,3.2-4.371,9.42-9.848,9.42-9.848a1.478,1.478,0,0,1,.185,2.054l-3.014,3.142a14.667,14.667,0,0,1,1.761,3.478,4.224,4.224,0,0,1-.421,3.11c-.529.953-1.251,2.191-1.934,3.163A4.18,4.18,0,0,1,523.6,642.358Z" transform="translate(-520.48 -625.56)" fill="url(#linear-gradient-32)"/>
        <path id="Trazado_773053" data-name="Trazado 773053" d="M530.414,662.057l-.52-.094c.034-.19.84-4.662,1.47-5.689a1.3,1.3,0,0,0,.274-.95.654.654,0,0,0-.3-.358l-2.552,2.165-.837,2.254-.493-.183.888-2.384,2.935-2.487.156.079a1.272,1.272,0,0,1,.712.772,1.734,1.734,0,0,1-.332,1.369A29.294,29.294,0,0,0,530.414,662.057Z" transform="translate(-525.781 -647.409)" fill="url(#linear-gradient-33)"/>
      </g>
      <path id="Trazado_773054" data-name="Trazado 773054" d="M269.679,788.073a.129.129,0,0,1-.13-.12c-1.523-16.971,8.763-25.45,13.69-26.713,3.868-.991,5.672-5.547,5.691-5.593a.132.132,0,1,1,.245.1c-.019.048-1.874,4.729-5.872,5.754-2.249.577-5.966,2.99-8.814,6.923-2.61,3.606-5.54,9.918-4.679,19.509a.13.13,0,0,1-.12.142A.018.018,0,0,1,269.679,788.073Z" transform="translate(-249.954 -724.29)" fill="#0affc6"/>
      <path id="Trazado_773055" data-name="Trazado 773055" d="M258.412,991.2a.115.115,0,0,1-.048-.01c-.084-.034-8.477-3.4-8.33-12.7a.127.127,0,0,1,.135-.13.132.132,0,0,1,.13.135c-.142,9.124,8.08,12.422,8.162,12.453a.132.132,0,0,1,.075.171A.129.129,0,0,1,258.412,991.2Z" transform="translate(-235.247 -893.489)" fill="#0affc6"/>
    </g>
    <g id="Grupo_1044811" data-name="Grupo 1044811" transform="translate(405.604 173.479)">
      <g id="Grupo_1044808" data-name="Grupo 1044808" transform="translate(0)">
        <circle id="Elipse_6177" data-name="Elipse 6177" cx="28.866" cy="28.866" r="28.866" transform="translate(0 40.823) rotate(-45)" fill="#7d97f4"/>
        <circle id="Elipse_6178" data-name="Elipse 6178" cx="27.906" cy="27.906" r="27.906" transform="translate(1.357 40.823) rotate(-45)" fill="#0affc6"/>
        <path id="Trazado_773056" data-name="Trazado 773056" d="M1152.654,386.3h-.017a.294.294,0,0,1-.279-.31,26.63,26.63,0,0,1,.378-3.274.294.294,0,0,1,.58.1,25.382,25.382,0,0,0-.37,3.2A.29.29,0,0,1,1152.654,386.3Z" transform="translate(-1137.553 -346.549)" fill="url(#linear-gradient-34)"/>
        <path id="Trazado_773057" data-name="Trazado 773057" d="M1163.941,309.27a.289.289,0,0,1-.132-.031.3.3,0,0,1-.13-.4,25.947,25.947,0,0,1,23.276-14.332,26.239,26.239,0,0,1,4.7.423.3.3,0,0,1,.238.344.292.292,0,0,1-.344.236,25.72,25.72,0,0,0-4.595-.414,25.361,25.361,0,0,0-22.749,14.007A.3.3,0,0,1,1163.941,309.27Z" transform="translate(-1146.126 -279.748)" fill="url(#linear-gradient-35)"/>
        <circle id="Elipse_6179" data-name="Elipse 6179" cx="23.62" cy="23.62" r="23.62" transform="translate(8.028 41.431) rotate(-45)" fill="#fff" opacity="0.78"/>
      </g>
      <g id="Grupo_1044810" data-name="Grupo 1044810" transform="translate(24.016 28.444)">
        <g id="Grupo_1044809" data-name="Grupo 1044809">
          <path id="Trazado_773058" data-name="Trazado 773058" d="M1231.716,405.258a8.243,8.243,0,0,1,12.179,1.417.563.563,0,0,0,.892.048l.787-.929a.568.568,0,0,0,.017-.707c-.151-.2-.31-.4-.479-.589a10.585,10.585,0,0,0-14.919-.972,10.459,10.459,0,0,0-.926.921.566.566,0,0,0,.065.815l.921.748a.56.56,0,0,0,.772-.063A7.493,7.493,0,0,1,1231.716,405.258Z" transform="translate(-1219.869 -388.994)" fill="#0affc6"/>
          <path id="Trazado_773059" data-name="Trazado 773059" d="M1213.178,381.966a14.239,14.239,0,0,1,20.072,1.306l0,0a.56.56,0,0,0,.849,0l.77-.912c0-.281,0-.464,0-.746a16.5,16.5,0,0,0-24.849.274.561.561,0,0,0,.079.8l.919.746a.558.558,0,0,0,.775-.065A13.6,13.6,0,0,1,1213.178,381.966Z" transform="translate(-1205.261 -370.178)" fill="#0affc6"/>
          <path id="Trazado_773060" data-name="Trazado 773060" d="M1194.635,358.7a20.2,20.2,0,0,1,27.894,1.22.564.564,0,0,0,.84-.019l.765-.9a.563.563,0,0,0-.022-.753,22.512,22.512,0,0,0-31-1.277,22.219,22.219,0,0,0-2.333,2.384.561.561,0,0,0,.079.8l.917.746a.56.56,0,0,0,.784-.079A20.693,20.693,0,0,1,1194.635,358.7Z" transform="translate(-1190.649 -351.388)" fill="#0affc6"/>
        </g>
        <circle id="Elipse_6180" data-name="Elipse 6180" cx="3.861" cy="3.861" r="3.861" transform="translate(12.93 17.928) rotate(-13.286)" fill="#0affc6"/>
      </g>
    </g>
  </g>
</svg>
