<svg xmlns="http://www.w3.org/2000/svg" width="67.164" height="71.688" viewBox="0 0 67.164 71.688">
  <g id="server" transform="translate(-16.157)">
    <g id="_x32_9_server" transform="translate(17.207 1.05)">
      <path id="Trazado_771966" data-name="Trazado 771966" d="M55.04,122h56.275v42.3H55.04Z" transform="translate(-50.646 -105.968)" fill="#465a61"/>
      <path id="Trazado_771967" data-name="Trazado 771967" d="M87.019,379.869H25.359a1.7,1.7,0,0,1-1.7-1.7V361.28a1.7,1.7,0,0,1,1.7-1.7h61.66a1.7,1.7,0,0,1,1.7,1.7v16.888A1.7,1.7,0,0,1,87.019,379.869Z" transform="translate(-23.657 -310.281)" fill="#7a8c98"/>
      <path id="Trazado_771968" data-name="Trazado 771968" d="M86.765,416.555H58.051a3.011,3.011,0,1,1,0-6.022H86.765a3.011,3.011,0,1,1,0,6.022Z" transform="translate(-50.646 -354.102)" fill="#9facba"/>
      <path id="Trazado_771969" data-name="Trazado 771969" d="M358.92,405.786a2.349,2.349,0,0,1-2.349-2.349v-5.514a2.349,2.349,0,1,1,4.7,0v5.514A2.349,2.349,0,0,1,358.92,405.786Z" transform="translate(-309.958 -341.238)" fill="#ffd15b"/>
      <path id="Trazado_771970" data-name="Trazado 771970" d="M87.019,204.518H25.359a1.7,1.7,0,0,1-1.7-1.7V185.928a1.7,1.7,0,0,1,1.7-1.7h61.66a1.7,1.7,0,0,1,1.7,1.7v16.888A1.7,1.7,0,0,1,87.019,204.518Z" transform="translate(-23.657 -159.481)" fill="#7a8c98"/>
      <path id="Trazado_771971" data-name="Trazado 771971" d="M86.765,241.2H58.051a3.011,3.011,0,0,1,0-6.022H86.765a3.011,3.011,0,0,1,0,6.022Z" transform="translate(-50.646 -203.303)" fill="#9facba"/>
      <path id="Trazado_771972" data-name="Trazado 771972" d="M358.92,230.435a2.349,2.349,0,0,1-2.349-2.349v-5.514a2.349,2.349,0,1,1,4.7,0v5.514A2.349,2.349,0,0,1,358.92,230.435Z" transform="translate(-309.958 -190.439)" fill="#60b7ff"/>
      <path id="Trazado_771973" data-name="Trazado 771973" d="M87.019,27.791H25.359a1.7,1.7,0,0,1-1.7-1.7V9.2a1.7,1.7,0,0,1,1.7-1.7h61.66a1.7,1.7,0,0,1,1.7,1.7V26.09a1.7,1.7,0,0,1-1.7,1.7Z" transform="translate(-23.657 -7.5)" fill="#7a8c98"/>
      <path id="Trazado_771974" data-name="Trazado 771974" d="M86.765,64.478H58.051a3.011,3.011,0,1,1,0-6.022H86.765a3.011,3.011,0,1,1,0,6.022Z" transform="translate(-50.646 -51.321)" fill="#9facba"/>
      <path id="Trazado_771975" data-name="Trazado 771975" d="M358.92,53.708a2.349,2.349,0,0,1-2.349-2.349V45.846a2.349,2.349,0,0,1,4.7,0v5.514A2.349,2.349,0,0,1,358.92,53.708Z" transform="translate(-309.958 -38.457)" fill="#60b7ff"/>
      <g id="Grupo_1044226" data-name="Grupo 1044226" transform="translate(57.968 0)">
        <path id="Trazado_771976" data-name="Trazado 771976" d="M443.06,359.578h-5.394a1.7,1.7,0,0,1,1.7,1.7v16.888a1.7,1.7,0,0,1-1.7,1.7h5.394a1.7,1.7,0,0,0,1.7-1.7V361.28A1.7,1.7,0,0,0,443.06,359.578Z" transform="translate(-437.666 -310.281)" fill="#596c76"/>
        <path id="Trazado_771977" data-name="Trazado 771977" d="M443.06,184.226h-5.394a1.7,1.7,0,0,1,1.7,1.7v16.888a1.7,1.7,0,0,1-1.7,1.7h5.394a1.7,1.7,0,0,0,1.7-1.7V185.928A1.7,1.7,0,0,0,443.06,184.226Z" transform="translate(-437.666 -159.481)" fill="#596c76"/>
        <path id="Trazado_771978" data-name="Trazado 771978" d="M443.06,7.5h-5.394a1.7,1.7,0,0,1,1.7,1.7V26.09a1.7,1.7,0,0,1-1.7,1.7h5.394a1.7,1.7,0,0,0,1.7-1.7V9.2a1.7,1.7,0,0,0-1.7-1.7Z" transform="translate(-437.666 -7.5)" fill="#596c76"/>
      </g>
      <path id="Trazado_771979" data-name="Trazado 771979" d="M425.761,43.5c-.049,0-.1,0-.144.007a2.347,2.347,0,0,0-2.2,2.341v5.514a2.347,2.347,0,0,0,2.2,2.341c.048,0,.1.007.144.007a2.349,2.349,0,0,0,2.349-2.349V45.846A2.349,2.349,0,0,0,425.761,43.5Z" transform="translate(-367.44 -38.457)" fill="#ffd15b"/>
      <path id="Trazado_771980" data-name="Trazado 771980" d="M449.821,46.553v9.355a2.344,2.344,0,0,0,1-1.921V48.474A2.345,2.345,0,0,0,449.821,46.553Z" transform="translate(-390.151 -41.085)" fill="#ffc344"/>
      <path id="Trazado_771981" data-name="Trazado 771981" d="M425.761,220.223c-.049,0-.1,0-.144.007a2.347,2.347,0,0,0-2.2,2.341v5.514a2.347,2.347,0,0,0,2.2,2.341c.048,0,.1.007.144.007a2.349,2.349,0,0,0,2.349-2.349v-5.514A2.349,2.349,0,0,0,425.761,220.223Z" transform="translate(-367.44 -190.438)" fill="#fe646f"/>
      <path id="Trazado_771982" data-name="Trazado 771982" d="M449.821,223.28v9.355a2.344,2.344,0,0,0,1-1.921V225.2A2.344,2.344,0,0,0,449.821,223.28Z" transform="translate(-390.151 -193.067)" fill="#fd4755"/>
      <path id="Trazado_771983" data-name="Trazado 771983" d="M425.761,395.575c-.049,0-.1,0-.144.007a2.347,2.347,0,0,0-2.2,2.341v5.514a2.347,2.347,0,0,0,2.2,2.341c.048,0,.1.007.144.007a2.349,2.349,0,0,0,2.349-2.349v-5.514A2.349,2.349,0,0,0,425.761,395.575Z" transform="translate(-367.44 -341.238)" fill="#60b7ff"/>
      <path id="Trazado_771984" data-name="Trazado 771984" d="M449.821,398.631v9.355a2.344,2.344,0,0,0,1-1.921v-5.514A2.344,2.344,0,0,0,449.821,398.631Z" transform="translate(-390.151 -343.866)" fill="#26a6fe"/>
    </g>
    <g id="Grupo_1044227" data-name="Grupo 1044227" transform="translate(16.157 0)">
      <path id="Trazado_771985" data-name="Trazado 771985" d="M51.6,403.034a4.061,4.061,0,0,0,0,8.122H80.315a4.061,4.061,0,0,0,0-8.122ZM82.276,407.1a1.963,1.963,0,0,1-1.961,1.961H51.6a1.961,1.961,0,1,1,0-3.922H80.315A1.963,1.963,0,0,1,82.276,407.1Z" transform="translate(-43.146 -346.603)"/>
      <path id="Trazado_771986" data-name="Trazado 771986" d="M349.07,391.474v5.514a3.4,3.4,0,0,0,6.8,0v-5.514a3.4,3.4,0,1,0-6.8,0Zm4.7,0v5.514a1.3,1.3,0,0,1-2.6,0v-5.514a1.3,1.3,0,1,1,2.6,0Z" transform="translate(-302.457 -333.738)"/>
      <path id="Trazado_771987" data-name="Trazado 771987" d="M415.912,391.474v5.514a3.4,3.4,0,0,0,6.8,0v-5.514a3.4,3.4,0,1,0-6.8,0Zm4.7,0v5.514a1.3,1.3,0,0,1-2.6,0v-5.514a1.3,1.3,0,1,1,2.6,0Z" transform="translate(-359.94 -333.738)"/>
      <path id="Trazado_771988" data-name="Trazado 771988" d="M80.315,227.683H51.6a4.061,4.061,0,1,0,0,8.122H80.315a4.061,4.061,0,0,0,0-8.122Zm0,6.022H51.6a1.961,1.961,0,1,1,0-3.922H80.315a1.961,1.961,0,1,1,0,3.922Z" transform="translate(-43.146 -195.804)"/>
      <path id="Trazado_771989" data-name="Trazado 771989" d="M352.47,212.723a3.4,3.4,0,0,0-3.4,3.4v5.514a3.4,3.4,0,0,0,6.8,0v-5.514A3.4,3.4,0,0,0,352.47,212.723Zm1.3,8.913a1.3,1.3,0,0,1-2.6,0v-5.514a1.3,1.3,0,1,1,2.6,0Z" transform="translate(-302.458 -182.938)"/>
      <path id="Trazado_771990" data-name="Trazado 771990" d="M415.912,216.122v5.514a3.4,3.4,0,0,0,6.8,0v-5.514a3.4,3.4,0,1,0-6.8,0Zm4.7,0v5.514a1.3,1.3,0,0,1-2.6,0v-5.514a1.3,1.3,0,1,1,2.6,0Z" transform="translate(-359.94 -182.938)"/>
      <path id="Trazado_771991" data-name="Trazado 771991" d="M80.569,22.392a2.755,2.755,0,0,0,2.752-2.752V2.752A2.755,2.755,0,0,0,80.569,0H18.909a2.755,2.755,0,0,0-2.752,2.752V7.525a1.05,1.05,0,1,0,2.1,0V2.752a.652.652,0,0,1,.652-.652h61.66a.652.652,0,0,1,.652.652V19.64a.652.652,0,0,1-.652.652H18.909a.652.652,0,0,1-.652-.652V12.426a1.05,1.05,0,1,0-2.1,0V19.64a2.755,2.755,0,0,0,2.752,2.752h1.642v2.353H18.909A2.755,2.755,0,0,0,16.157,27.5V44.384a2.755,2.755,0,0,0,2.752,2.752h1.642V49.3H18.909a2.755,2.755,0,0,0-2.752,2.752V68.936a2.755,2.755,0,0,0,2.752,2.752h61.66a2.755,2.755,0,0,0,2.752-2.752V62.842a1.05,1.05,0,0,0-2.1,0v6.094a.652.652,0,0,1-.652.652H18.909a.652.652,0,0,1-.652-.652V52.049a.652.652,0,0,1,.652-.652h61.66a.652.652,0,0,1,.652.652v5.893a1.05,1.05,0,0,0,2.1,0V52.049A2.755,2.755,0,0,0,80.569,49.3H78.927v-2.16h1.642a2.755,2.755,0,0,0,2.752-2.752V27.5a2.755,2.755,0,0,0-2.752-2.752H78.927V22.392ZM76.826,49.3H22.651v-2.16H76.826Zm4.394-21.8V44.384a.652.652,0,0,1-.652.652H18.909a.652.652,0,0,1-.652-.652V27.5a.652.652,0,0,1,.652-.652h61.66a.652.652,0,0,1,.652.652Zm-4.394-2.752H22.651V22.392H76.826Z" transform="translate(-16.157 0)"/>
      <path id="Trazado_771992" data-name="Trazado 771992" d="M51.6,59.078H80.315a4.061,4.061,0,0,0,0-8.122H51.6a4.061,4.061,0,1,0,0,8.122Zm0-6.022H80.315a1.961,1.961,0,0,1,0,3.922H51.6a1.961,1.961,0,1,1,0-3.922Z" transform="translate(-43.146 -43.821)"/>
      <path id="Trazado_771993" data-name="Trazado 771993" d="M355.868,44.91V39.4a3.4,3.4,0,0,0-6.8,0v5.514a3.4,3.4,0,1,0,6.8,0Zm-4.7,0V39.4a1.3,1.3,0,0,1,2.6,0v5.514a1.3,1.3,0,1,1-2.6,0Z" transform="translate(-302.457 -30.958)"/>
      <path id="Trazado_771994" data-name="Trazado 771994" d="M422.71,44.91V39.4a3.4,3.4,0,0,0-6.8,0v5.514a3.4,3.4,0,1,0,6.8,0Zm-4.7,0V39.4a1.3,1.3,0,0,1,2.6,0v5.514a1.3,1.3,0,1,1-2.6,0Z" transform="translate(-359.941 -30.958)"/>
    </g>
  </g>
</svg>
