<svg id="notification" xmlns="http://www.w3.org/2000/svg" width="75.15" height="75.15" viewBox="0 0 75.15 75.15">
  <path id="Trazado_771926" data-name="Trazado 771926" d="M8,72H80.645v37.575H8Zm0,0" transform="translate(-6.748 -60.728)" fill="#5aaae7"/>
  <path id="Trazado_771927" data-name="Trazado 771927" d="M80.645,72v37.575H8C40.871,105.425,65.856,93.647,80.645,72Zm0,0" transform="translate(-6.748 -60.728)" fill="#3d9ae2"/>
  <path id="Trazado_771928" data-name="Trazado 771928" d="M166.06,440a2.505,2.505,0,1,1,0,5.01H138.505a2.505,2.505,0,0,1,0-5.01Zm0,0" transform="translate(-114.708 -371.113)" fill="#787680"/>
  <path id="Trazado_771929" data-name="Trazado 771929" d="M196.04,386.02H176L177.253,376h17.535Zm0,0" transform="translate(-148.445 -317.133)" fill="#898890"/>
  <path id="Trazado_771930" data-name="Trazado 771930" d="M80.645,312v5.01a5.024,5.024,0,0,1-5.01,5.01H13.01A5.024,5.024,0,0,1,8,317.01V312Zm0,0" transform="translate(-6.748 -263.153)" fill="#c6c5ca"/>
  <path id="Trazado_771931" data-name="Trazado 771931" d="M80.645,13.01v5.01H8V13.01A5.024,5.024,0,0,1,13.01,8H75.635A5.01,5.01,0,0,1,80.645,13.01Zm0,0" transform="translate(-6.748 -6.748)" fill="#ff5023"/>
  <path id="Trazado_771932" data-name="Trazado 771932" d="M200.161,378.505H182l.313-2.505h17.535Zm0,0" transform="translate(-153.506 -317.133)" fill="#787680"/>
  <path id="Trazado_771933" data-name="Trazado 771933" d="M229.01,122.505A2.5,2.5,0,1,1,226.505,120,2.505,2.505,0,0,1,229.01,122.505Zm0,0" transform="translate(-188.93 -101.213)" fill="#ee8700"/>
  <path id="Trazado_771934" data-name="Trazado 771934" d="M213.01,144a5.01,5.01,0,0,1,5.01,5.01v5.01H208v-5.01A5.01,5.01,0,0,1,213.01,144Zm0,0" transform="translate(-175.435 -121.455)" fill="#ff9811"/>
  <path id="Trazado_771935" data-name="Trazado 771935" d="M204.525,208a2.5,2.5,0,0,1,0,5.01h-10.02a2.5,2.5,0,0,1,0-5.01Zm0,0" transform="translate(-161.94 -175.435)" fill="#ee8700"/>
  <path id="Trazado_771936" data-name="Trazado 771936" d="M228.671,240a2.5,2.5,0,1,1-4.334,0Zm0,0" transform="translate(-188.929 -202.425)" fill="#cc7400"/>
  <path id="Trazado_771937" data-name="Trazado 771937" d="M187.764,133.044h1.253a3.757,3.757,0,0,0,7.515,0h1.253a3.749,3.749,0,0,0,1.253-7.284v-3.988a6.254,6.254,0,0,0-2.693-5.135,3.758,3.758,0,1,0-7.139,0,6.254,6.254,0,0,0-2.693,5.135v3.988a3.749,3.749,0,0,0,1.252,7.284Zm5.01,1.253a1.253,1.253,0,0,1-1.252-1.253h2.5A1.253,1.253,0,0,1,192.774,134.3Zm-1.252-18.787a1.252,1.252,0,1,1,2.5,0,.982.982,0,0,1-.023.125,6.146,6.146,0,0,0-2.46,0A.979.979,0,0,1,191.521,115.509Zm-2.505,6.262a3.757,3.757,0,0,1,7.515,0v3.758h-7.515Zm-1.253,6.262h10.02a1.252,1.252,0,1,1,0,2.5h-10.02a1.252,1.252,0,0,1,0-2.5Zm0,0" transform="translate(-155.199 -94.216)"/>
  <path id="Trazado_771938" data-name="Trazado 771938" d="M320,184h7.515v2.5H320Zm0,0" transform="translate(-269.9 -155.193)"/>
  <path id="Trazado_771939" data-name="Trazado 771939" d="M317.539,139.116l7.518-2.5.791,2.377-7.518,2.5Zm0,0" transform="translate(-267.824 -115.225)"/>
  <path id="Trazado_771940" data-name="Trazado 771940" d="M317.477,218.791l.792-2.377,7.516,2.5-.792,2.377Zm0,0" transform="translate(-267.772 -182.532)"/>
  <path id="Trazado_771941" data-name="Trazado 771941" d="M112,184h7.515v2.5H112Zm0,0" transform="translate(-94.465 -155.193)"/>
  <path id="Trazado_771942" data-name="Trazado 771942" d="M109.469,138.787l.793-2.377,7.515,2.5-.792,2.377Zm0,0" transform="translate(-92.33 -115.053)"/>
  <path id="Trazado_771943" data-name="Trazado 771943" d="M109.426,219.058l7.518-2.5.791,2.377-7.518,2.5Zm0,0" transform="translate(-92.294 -182.65)"/>
  <path id="Trazado_771944" data-name="Trazado 771944" d="M68.887,0H6.262A6.27,6.27,0,0,0,0,6.262V53.857A6.27,6.27,0,0,0,6.262,60.12H27.389l-.939,7.515H23.8a3.757,3.757,0,1,0,0,7.515H51.352a3.757,3.757,0,0,0,0-7.515H48.7l-.939-7.515H68.887a6.27,6.27,0,0,0,6.262-6.262V6.262A6.27,6.27,0,0,0,68.887,0ZM6.262,2.5H68.887a3.758,3.758,0,0,1,3.757,3.757V10.02H2.5V6.262A3.758,3.758,0,0,1,6.262,2.5Zm66.382,10.02v35.07H2.5V12.525ZM52.6,71.392a1.253,1.253,0,0,1-1.252,1.252H23.8a1.252,1.252,0,1,1,0-2.5H51.352A1.253,1.253,0,0,1,52.6,71.392Zm-6.429-3.757h-17.2l.939-7.515H45.237Zm22.711-10.02H6.262A3.758,3.758,0,0,1,2.5,53.857V50.1h70.14v3.757A3.758,3.758,0,0,1,68.887,57.615Zm0,0"/>
  <path id="Trazado_771945" data-name="Trazado 771945" d="M416,336h2.5v2.505H416Zm0,0" transform="translate(-350.87 -283.395)"/>
  <path id="Trazado_771946" data-name="Trazado 771946" d="M48,32h2.5v2.5H48Zm0,0" transform="translate(-40.485 -26.99)"/>
  <path id="Trazado_771947" data-name="Trazado 771947" d="M80,32h2.5v2.5H80Zm0,0" transform="translate(-67.475 -26.99)"/>
  <path id="Trazado_771948" data-name="Trazado 771948" d="M112,32h2.5v2.5H112Zm0,0" transform="translate(-94.465 -26.99)"/>
</svg>
