<svg id="planning" xmlns="http://www.w3.org/2000/svg" width="78.6" height="78.599" viewBox="0 0 78.6 78.599">
  <g id="Grupo_1044228" data-name="Grupo 1044228" transform="translate(8.106 2.088)">
    <rect id="Rectángulo_356252" data-name="Rectángulo 356252" width="2.456" height="2.456" transform="translate(45.072 28.37)" fill="#183651"/>
    <rect id="Rectángulo_356253" data-name="Rectángulo 356253" width="2.456" height="2.456" transform="translate(52.563 28.37)" fill="#183651"/>
    <rect id="Rectángulo_356254" data-name="Rectángulo 356254" width="2.456" height="2.456" transform="translate(59.932 28.37)" fill="#183651"/>
    <rect id="Rectángulo_356255" data-name="Rectángulo 356255" width="2.456" height="2.456" transform="translate(0 43.598)" fill="#183651"/>
    <rect id="Rectángulo_356256" data-name="Rectángulo 356256" width="2.456" height="2.456" transform="translate(7.369 43.598)" fill="#183651"/>
    <rect id="Rectángulo_356257" data-name="Rectángulo 356257" width="2.456" height="2.456" transform="translate(14.86 43.598)" fill="#183651"/>
    <path id="Trazado_772003" data-name="Trazado 772003" d="M137.2,21.5l-1.719-1.719,2.211-2.333-2.211-2.334,1.719-1.719,4.053,4.053Z" transform="translate(-122.465 -13.391)" fill="#183651"/>
    <rect id="Rectángulo_356258" data-name="Rectángulo 356258" width="7.614" height="2.456" transform="translate(9.334 2.825)" fill="#183651"/>
  </g>
  <rect id="Rectángulo_356259" data-name="Rectángulo 356259" width="16.211" height="9.948" transform="translate(31.194 67.424)" fill="#4fbf9f"/>
  <path id="Trazado_772004" data-name="Trazado 772004" d="M209.636,436.97H193.425a1.16,1.16,0,0,1-1.228-1.228v-9.948a1.16,1.16,0,0,1,1.228-1.228h16.211a1.16,1.16,0,0,1,1.228,1.228v9.948A1.16,1.16,0,0,1,209.636,436.97Zm-14.983-2.456h13.755v-7.491H194.653Z" transform="translate(-162.231 -358.37)" fill="#183651"/>
  <rect id="Rectángulo_356260" data-name="Rectángulo 356260" width="16.211" height="9.948" transform="translate(31.194 50.844)" fill="#e0e4e8"/>
  <path id="Trazado_772005" data-name="Trazado 772005" d="M209.636,330.632H193.425A1.16,1.16,0,0,1,192.2,329.4v-9.948a1.16,1.16,0,0,1,1.228-1.228h16.211a1.16,1.16,0,0,1,1.228,1.228V329.4A1.16,1.16,0,0,1,209.636,330.632Zm-14.983-2.456h13.755v-7.492H194.653Z" transform="translate(-162.231 -268.612)" fill="#183651"/>
  <rect id="Rectángulo_356261" data-name="Rectángulo 356261" width="16.211" height="9.948" transform="translate(31.194 34.387)" fill="#4fbf9f"/>
  <path id="Trazado_772006" data-name="Trazado 772006" d="M209.636,224.293H193.425a1.16,1.16,0,0,1-1.228-1.228v-9.948a1.16,1.16,0,0,1,1.228-1.228h16.211a1.16,1.16,0,0,1,1.228,1.228v9.948A1.16,1.16,0,0,1,209.636,224.293Zm-14.983-2.456h13.755v-7.491H194.653Z" transform="translate(-162.231 -178.853)" fill="#183651"/>
  <rect id="Rectángulo_356262" data-name="Rectángulo 356262" width="16.211" height="9.948" transform="translate(31.194 17.808)" fill="#e0e4e8"/>
  <path id="Trazado_772007" data-name="Trazado 772007" d="M209.636,118.742H193.425a1.16,1.16,0,0,1-1.228-1.228v-9.948a1.16,1.16,0,0,1,1.228-1.228h16.211a1.16,1.16,0,0,1,1.228,1.228v9.948A1.231,1.231,0,0,1,209.636,118.742Zm-14.983-2.456h13.755v-7.491H194.653Z" transform="translate(-162.231 -89.758)" fill="#183651"/>
  <rect id="Rectángulo_356263" data-name="Rectángulo 356263" width="16.211" height="9.948" transform="translate(31.194 1.228)" fill="#4fbf9f"/>
  <g id="Grupo_1044229" data-name="Grupo 1044229" transform="translate(0.86)">
    <path id="Trazado_772008" data-name="Trazado 772008" d="M209.636,12.4H193.425a1.16,1.16,0,0,1-1.228-1.228V1.228A1.16,1.16,0,0,1,193.425,0h16.211a1.16,1.16,0,0,1,1.228,1.228v9.948A1.231,1.231,0,0,1,209.636,12.4ZM194.653,9.948h13.755V2.456H194.653Z" transform="translate(-163.091)" fill="#183651"/>
    <path id="Trazado_772009" data-name="Trazado 772009" d="M329.4,444.365l-1.719-1.719,2.211-2.211L327.68,438.1l1.719-1.719,3.93,4.053Z" transform="translate(-277.45 -368.344)" fill="#183651"/>
    <rect id="Rectángulo_356264" data-name="Rectángulo 356264" width="7.614" height="2.456" transform="translate(46.546 70.862)" fill="#183651"/>
    <path id="Trazado_772010" data-name="Trazado 772010" d="M142.839,440.549,141,438.829l2.333-2.333L141,434.162l1.842-1.719,3.93,4.053Z" transform="translate(-119.873 -365.019)" fill="#183651"/>
    <path id="Trazado_772011" data-name="Trazado 772011" d="M30.568,368.576H14.6a9.028,9.028,0,1,1,.123-18.053H35.849v2.456H14.725a6.632,6.632,0,1,0,0,13.264H30.69v2.333h-.123Z" transform="translate(-5.514 -295.872)" fill="#183651"/>
    <path id="Trazado_772012" data-name="Trazado 772012" d="M142.839,228.537,141,226.817l2.333-2.211L141,222.273l1.842-1.719,3.93,4.053Z" transform="translate(-119.873 -186.167)" fill="#183651"/>
    <path id="Trazado_772013" data-name="Trazado 772013" d="M30.568,156.023H14.6a9.068,9.068,0,0,1-9.088-9.088,9.173,9.173,0,0,1,9.211-9.088H35.849V140.3H14.725a6.632,6.632,0,0,0,0,13.264H30.69v2.456h-.123Z" transform="translate(-5.514 -116.355)" fill="#183651"/>
    <path id="Trazado_772014" data-name="Trazado 772014" d="M330.035,338.814l-3.93-4.053,3.93-3.93,1.842,1.719-2.333,2.211,2.333,2.333Z" transform="translate(-276.121 -279.25)" fill="#183651"/>
    <path id="Trazado_772015" data-name="Trazado 772015" d="M325.173,262.188H309.207v-2.456h15.966A6.6,6.6,0,0,0,331.8,253.1v-.614a6.6,6.6,0,0,0-6.632-6.632H304.049V243.4h21.124a9.068,9.068,0,0,1,9.088,9.088v.614A9.067,9.067,0,0,1,325.173,262.188Z" transform="translate(-257.503 -205.449)" fill="#183651"/>
    <path id="Trazado_772016" data-name="Trazado 772016" d="M330.035,126.26l-3.93-4.053,3.93-4.053,1.842,1.719-2.333,2.333,2.333,2.333Z" transform="translate(-276.121 -99.732)" fill="#183651"/>
    <path id="Trazado_772017" data-name="Trazado 772017" d="M325.173,50.3H309.207V47.842h15.966A6.6,6.6,0,0,0,331.8,41.21V40.6a6.6,6.6,0,0,0-6.632-6.632H304.049V31.508h21.124a9.068,9.068,0,0,1,9.088,9.088v.614A9.067,9.067,0,0,1,325.173,50.3Z" transform="translate(-257.503 -26.595)" fill="#183651"/>
  </g>
  <rect id="Rectángulo_356265" data-name="Rectángulo 356265" width="16.211" height="9.948" transform="translate(61.16 67.424)" fill="#f06151"/>
  <path id="Trazado_772018" data-name="Trazado 772018" d="M401.833,436.97H385.622a1.16,1.16,0,0,1-1.228-1.228v-9.948a1.16,1.16,0,0,1,1.228-1.228h16.211a1.16,1.16,0,0,1,1.228,1.228v9.948A1.16,1.16,0,0,1,401.833,436.97Zm-14.983-2.456h13.755v-7.491H386.85Z" transform="translate(-324.462 -358.37)" fill="#183651"/>
  <rect id="Rectángulo_356266" data-name="Rectángulo 356266" width="16.211" height="9.948" transform="translate(1.228 1.228)" fill="#f06151"/>
  <path id="Trazado_772019" data-name="Trazado 772019" d="M17.439,12.4H1.228A1.16,1.16,0,0,1,0,11.176V1.228A1.16,1.16,0,0,1,1.228,0H17.439a1.16,1.16,0,0,1,1.228,1.228v9.948A1.231,1.231,0,0,1,17.439,12.4ZM2.456,9.948H16.211V2.456H2.456Z" fill="#183651"/>
</svg>
