<svg xmlns="http://www.w3.org/2000/svg" width="1028" height="200.146" viewBox="0 0 1028 200.146">
  <g id="Grupo_1044016" data-name="Grupo 1044016" transform="translate(-286 -527.039)">
    <path id="Trazado_771430" data-name="Trazado 771430" d="M10,0H177.7a10,10,0,0,1,10,10V190.146a10,10,0,0,1-10,10H10a10,10,0,0,1-10-10V10A10,10,0,0,1,10,0Z" transform="translate(286 527.039)" fill="#fee6d1"/>
    <path id="Trazado_771431" data-name="Trazado 771431" d="M10,0H180a10,10,0,0,1,10,10V190.146a10,10,0,0,1-10,10H10a10,10,0,0,1-10-10V10A10,10,0,0,1,10,0Z" transform="translate(494 527.039)" fill="#fee6d1"/>
    <path id="Trazado_771432" data-name="Trazado 771432" d="M10,0H180a10,10,0,0,1,10,10V190.146a10,10,0,0,1-10,10H10a10,10,0,0,1-10-10V10A10,10,0,0,1,10,0Z" transform="translate(704 527.039)" fill="#fee6d1"/>
    <path id="Trazado_771433" data-name="Trazado 771433" d="M10,0H180a10,10,0,0,1,10,10V190.146a10,10,0,0,1-10,10H10a10,10,0,0,1-10-10V10A10,10,0,0,1,10,0Z" transform="translate(1124 527.039)" fill="#fee6d1"/>
    <path id="Trazado_771434" data-name="Trazado 771434" d="M10,0H180a10,10,0,0,1,10,10V190.146a10,10,0,0,1-10,10H10a10,10,0,0,1-10-10V10A10,10,0,0,1,10,0Z" transform="translate(914 527.039)" fill="#fee6d1"/>
    <path id="Trazado_771435" data-name="Trazado 771435" d="M37.6,15.561a6.16,6.16,0,0,1-2.9.615,4.677,4.677,0,0,1-3.589-1.443,5.324,5.324,0,0,1-1.348-3.787,5.58,5.58,0,0,1,1.516-4.072,5.146,5.146,0,0,1,3.845-1.553,6.165,6.165,0,0,1,2.476.432V7.064a5.02,5.02,0,0,0-2.49-.63A3.821,3.821,0,0,0,32.18,7.643a4.553,4.553,0,0,0-1.124,3.23,4.332,4.332,0,0,0,1.051,3.058,3.576,3.576,0,0,0,2.758,1.139,5.173,5.173,0,0,0,2.739-.7Zm5.889-5.845a1.469,1.469,0,0,0-.908-.242A1.533,1.533,0,0,0,41.3,10.2a3.352,3.352,0,0,0-.516,1.978V16h-1.2V8.5h1.2v1.545h.029A2.619,2.619,0,0,1,41.6,8.811a1.787,1.787,0,0,1,1.179-.443,1.961,1.961,0,0,1,.718.1ZM45.412,6.6a.761.761,0,0,1-.549-.22.742.742,0,0,1-.227-.557.769.769,0,0,1,.776-.784.776.776,0,0,1,.56.223.782.782,0,0,1,0,1.11A.769.769,0,0,1,45.412,6.6ZM46,16H44.8V8.5H46Zm5.911-.073a2.316,2.316,0,0,1-1.121.234q-1.97,0-1.97-2.2V9.525H47.528V8.5h1.289V6.669l1.2-.388V8.5h1.89V9.525h-1.89v4.226a1.752,1.752,0,0,0,.256,1.077,1.023,1.023,0,0,0,.85.322,1.263,1.263,0,0,0,.784-.249ZM59.54,12.55h-5.3a2.805,2.805,0,0,0,.674,1.934,2.323,2.323,0,0,0,1.772.681,3.685,3.685,0,0,0,2.329-.835v1.128a4.353,4.353,0,0,1-2.615.718,3.17,3.17,0,0,1-2.5-1.022A4.182,4.182,0,0,1,53,12.279a4.1,4.1,0,0,1,.992-2.853,3.182,3.182,0,0,1,2.465-1.1,2.82,2.82,0,0,1,2.278.952,3.97,3.97,0,0,1,.806,2.644Zm-1.23-1.018a2.444,2.444,0,0,0-.5-1.619,1.709,1.709,0,0,0-1.373-.579,1.94,1.94,0,0,0-1.443.608,2.759,2.759,0,0,0-.732,1.589Zm6.958-1.816a1.469,1.469,0,0,0-.908-.242,1.533,1.533,0,0,0-1.285.725,3.352,3.352,0,0,0-.516,1.978V16h-1.2V8.5h1.2v1.545h.029a2.619,2.619,0,0,1,.784-1.234,1.787,1.787,0,0,1,1.179-.443,1.961,1.961,0,0,1,.718.1ZM67.187,6.6a.761.761,0,0,1-.549-.22.742.742,0,0,1-.227-.557.769.769,0,0,1,.776-.784.776.776,0,0,1,.56.223.782.782,0,0,1,0,1.11A.769.769,0,0,1,67.187,6.6Zm.586,9.4h-1.2V8.5h1.2Zm5.566.176a3.479,3.479,0,0,1-2.655-1.051,3.893,3.893,0,0,1-.992-2.787,4.056,4.056,0,0,1,1.033-2.952,3.713,3.713,0,0,1,2.791-1.062,3.364,3.364,0,0,1,2.618,1.033,4.1,4.1,0,0,1,.941,2.864A4.029,4.029,0,0,1,76.06,15.1,3.554,3.554,0,0,1,73.339,16.176Zm.088-6.841a2.285,2.285,0,0,0-1.831.787,3.234,3.234,0,0,0-.674,2.172,3.058,3.058,0,0,0,.681,2.1,2.315,2.315,0,0,0,1.824.769,2.2,2.2,0,0,0,1.791-.754,3.274,3.274,0,0,0,.626-2.146,3.33,3.33,0,0,0-.626-2.168A2.186,2.186,0,0,0,73.427,9.335Zm5.112,6.394V14.44a3.555,3.555,0,0,0,2.161.725q1.582,0,1.582-1.055a.915.915,0,0,0-.135-.509,1.35,1.35,0,0,0-.366-.37,2.819,2.819,0,0,0-.542-.289q-.311-.128-.67-.267a8.631,8.631,0,0,1-.875-.4,2.644,2.644,0,0,1-.63-.454,1.69,1.69,0,0,1-.381-.575,2.034,2.034,0,0,1-.128-.754,1.792,1.792,0,0,1,.242-.934,2.143,2.143,0,0,1,.645-.681,3.006,3.006,0,0,1,.919-.414,4.077,4.077,0,0,1,1.066-.139,4.3,4.3,0,0,1,1.743.337V9.877a3.4,3.4,0,0,0-1.9-.542,2.226,2.226,0,0,0-.608.077,1.488,1.488,0,0,0-.465.216,1,1,0,0,0-.3.333.878.878,0,0,0-.106.428,1.028,1.028,0,0,0,.106.491,1.08,1.08,0,0,0,.311.352,2.379,2.379,0,0,0,.5.278q.293.125.667.271a9.276,9.276,0,0,1,.894.392,3.065,3.065,0,0,1,.674.454,1.774,1.774,0,0,1,.428.582,1.878,1.878,0,0,1,.15.784,1.848,1.848,0,0,1-.245.967,2.1,2.1,0,0,1-.656.681,3,3,0,0,1-.945.4,4.665,4.665,0,0,1-1.121.132A4.255,4.255,0,0,1,78.539,15.729ZM90.7,14.916h-.029V19.45h-1.2V8.5h1.2V9.818H90.7A2.84,2.84,0,0,1,93.29,8.324a2.747,2.747,0,0,1,2.263,1.007,4.171,4.171,0,0,1,.813,2.7,4.649,4.649,0,0,1-.916,3.014,3.048,3.048,0,0,1-2.5,1.132A2.509,2.509,0,0,1,90.7,14.916Zm-.029-3.025v1.047a2.23,2.23,0,0,0,.6,1.578,2.156,2.156,0,0,0,3.245-.187,3.831,3.831,0,0,0,.619-2.322,3.024,3.024,0,0,0-.579-1.963,1.915,1.915,0,0,0-1.567-.71,2.128,2.128,0,0,0-1.685.729A2.676,2.676,0,0,0,90.668,11.891ZM103.654,16h-1.2V14.828h-.029a2.515,2.515,0,0,1-2.307,1.348,2.466,2.466,0,0,1-1.754-.593,2.055,2.055,0,0,1-.634-1.575q0-2.1,2.476-2.446l2.249-.315q0-1.912-1.545-1.912a3.692,3.692,0,0,0-2.446.923V9.027a4.648,4.648,0,0,1,2.549-.7q2.644,0,2.644,2.8Zm-1.2-3.794-1.809.249a2.937,2.937,0,0,0-1.26.414,1.193,1.193,0,0,0-.425,1.051,1.145,1.145,0,0,0,.392.9,1.514,1.514,0,0,0,1.044.348,1.928,1.928,0,0,0,1.476-.626,2.237,2.237,0,0,0,.582-1.586Zm7.375-2.49a1.469,1.469,0,0,0-.908-.242,1.533,1.533,0,0,0-1.285.725,3.352,3.352,0,0,0-.516,1.978V16h-1.2V8.5h1.2v1.545h.029a2.619,2.619,0,0,1,.784-1.234,1.787,1.787,0,0,1,1.179-.443,1.961,1.961,0,0,1,.718.1ZM116.5,16h-1.2V14.828h-.029a2.515,2.515,0,0,1-2.307,1.348,2.466,2.466,0,0,1-1.754-.593,2.055,2.055,0,0,1-.634-1.575q0-2.1,2.476-2.446l2.249-.315q0-1.912-1.545-1.912a3.692,3.692,0,0,0-2.446.923V9.027a4.648,4.648,0,0,1,2.549-.7q2.644,0,2.644,2.8Zm-1.2-3.794-1.809.249a2.937,2.937,0,0,0-1.26.414,1.193,1.193,0,0,0-.425,1.051,1.145,1.145,0,0,0,.392.9,1.514,1.514,0,0,0,1.044.348,1.928,1.928,0,0,0,1.476-.626,2.237,2.237,0,0,0,.582-1.586ZM124.074,16h-1.2V4.9h1.2Zm7.8,0h-1.2V14.828h-.029a2.515,2.515,0,0,1-2.307,1.348,2.466,2.466,0,0,1-1.754-.593,2.055,2.055,0,0,1-.634-1.575q0-2.1,2.476-2.446l2.249-.315q0-1.912-1.545-1.912a3.692,3.692,0,0,0-2.446.923V9.027a4.648,4.648,0,0,1,2.549-.7q2.644,0,2.644,2.8Zm-1.2-3.794-1.809.249a2.937,2.937,0,0,0-1.26.414,1.193,1.193,0,0,0-.425,1.051,1.145,1.145,0,0,0,.392.9,1.514,1.514,0,0,0,1.044.348,1.928,1.928,0,0,0,1.476-.626,2.237,2.237,0,0,0,.582-1.586ZM30.558,36h-1.2V34.726h-.029a2.773,2.773,0,0,1-2.578,1.45,2.8,2.8,0,0,1-2.26-1.007,4.131,4.131,0,0,1-.846-2.743,4.5,4.5,0,0,1,.938-2.981,3.092,3.092,0,0,1,2.5-1.121,2.4,2.4,0,0,1,2.249,1.216h.029V24.9h1.2Zm-1.2-3.391V31.5a2.146,2.146,0,0,0-.6-1.538,2.014,2.014,0,0,0-1.523-.63,2.074,2.074,0,0,0-1.729.806,3.53,3.53,0,0,0-.63,2.227,3.175,3.175,0,0,0,.6,2.047,1.975,1.975,0,0,0,1.622.751,2.052,2.052,0,0,0,1.63-.725A2.7,2.7,0,0,0,29.357,32.609Zm9.661-.059h-5.3a2.805,2.805,0,0,0,.674,1.934,2.323,2.323,0,0,0,1.772.681A3.685,3.685,0,0,0,38.5,34.33v1.128a4.353,4.353,0,0,1-2.615.718,3.17,3.17,0,0,1-2.5-1.022,4.182,4.182,0,0,1-.908-2.875,4.1,4.1,0,0,1,.992-2.853,3.182,3.182,0,0,1,2.465-1.1,2.82,2.82,0,0,1,2.278.952,3.97,3.97,0,0,1,.806,2.644Zm-1.23-1.018a2.444,2.444,0,0,0-.5-1.619,1.709,1.709,0,0,0-1.373-.579,1.94,1.94,0,0,0-1.443.608,2.759,2.759,0,0,0-.732,1.589Zm6.526,4.395a2.316,2.316,0,0,1-1.121.234q-1.97,0-1.97-2.2V29.525H39.933V28.5h1.289V26.669l1.2-.388V28.5h1.89v1.025h-1.89v4.226a1.752,1.752,0,0,0,.256,1.077,1.023,1.023,0,0,0,.85.322,1.263,1.263,0,0,0,.784-.249Zm7.632-3.376h-5.3a2.805,2.805,0,0,0,.674,1.934,2.323,2.323,0,0,0,1.772.681,3.685,3.685,0,0,0,2.329-.835v1.128a4.353,4.353,0,0,1-2.615.718,3.17,3.17,0,0,1-2.5-1.022,4.182,4.182,0,0,1-.908-2.875,4.1,4.1,0,0,1,.992-2.853,3.182,3.182,0,0,1,2.465-1.1,2.82,2.82,0,0,1,2.278.952,3.97,3.97,0,0,1,.806,2.644Zm-1.23-1.018a2.444,2.444,0,0,0-.5-1.619,1.709,1.709,0,0,0-1.373-.579,1.94,1.94,0,0,0-1.443.608,2.759,2.759,0,0,0-.732,1.589Zm6.958-1.816a1.469,1.469,0,0,0-.908-.242,1.533,1.533,0,0,0-1.285.725,3.352,3.352,0,0,0-.516,1.978V36h-1.2V28.5h1.2v1.545h.029a2.619,2.619,0,0,1,.784-1.234,1.787,1.787,0,0,1,1.179-.443,1.961,1.961,0,0,1,.718.1ZM69.625,36h-1.2V31.693a3.249,3.249,0,0,0-.385-1.8,1.458,1.458,0,0,0-1.293-.557,1.6,1.6,0,0,0-1.307.7,2.69,2.69,0,0,0-.538,1.685V36H63.7V31.547q0-2.212-1.707-2.212a1.581,1.581,0,0,0-1.3.663,2.74,2.74,0,0,0-.513,1.725V36h-1.2V28.5h1.2v1.187h.029a2.548,2.548,0,0,1,2.329-1.362,2.166,2.166,0,0,1,2.124,1.553,2.676,2.676,0,0,1,2.49-1.553q2.476,0,2.476,3.054Zm2.886-9.4a.761.761,0,0,1-.549-.22.742.742,0,0,1-.227-.557.769.769,0,0,1,.776-.784.776.776,0,0,1,.56.223.782.782,0,0,1,0,1.11A.769.769,0,0,1,72.511,26.6ZM73.1,36H71.9V28.5h1.2Zm8.657,0h-1.2V31.723q0-2.388-1.743-2.388a1.891,1.891,0,0,0-1.49.677,2.511,2.511,0,0,0-.59,1.71V36h-1.2V28.5h1.2v1.245h.029a2.707,2.707,0,0,1,2.461-1.421,2.3,2.3,0,0,1,1.882.795,3.54,3.54,0,0,1,.652,2.3Zm7.632,0h-1.2V34.828h-.029a2.515,2.515,0,0,1-2.307,1.348,2.466,2.466,0,0,1-1.754-.593,2.055,2.055,0,0,1-.634-1.575q0-2.1,2.476-2.446l2.249-.315q0-1.912-1.545-1.912a3.692,3.692,0,0,0-2.446.923v-1.23a4.648,4.648,0,0,1,2.549-.7q2.644,0,2.644,2.8Zm-1.2-3.794-1.809.249a2.937,2.937,0,0,0-1.26.414,1.193,1.193,0,0,0-.425,1.051,1.145,1.145,0,0,0,.392.9,1.514,1.514,0,0,0,1.044.348,1.928,1.928,0,0,0,1.476-.626,2.237,2.237,0,0,0,.582-1.586Zm8.577,3.45a3.9,3.9,0,0,1-2.051.52,3.4,3.4,0,0,1-2.589-1.044,3.782,3.782,0,0,1-.985-2.706A4.158,4.158,0,0,1,92.2,29.448a3.715,3.715,0,0,1,2.834-1.124,3.945,3.945,0,0,1,1.743.366v1.23a3.054,3.054,0,0,0-1.787-.586,2.415,2.415,0,0,0-1.886.824,3.127,3.127,0,0,0-.736,2.164,2.977,2.977,0,0,0,.692,2.08,2.386,2.386,0,0,0,1.857.762,3.01,3.01,0,0,0,1.846-.652Zm2.432-9.06a.761.761,0,0,1-.549-.22.742.742,0,0,1-.227-.557.769.769,0,0,1,.776-.784.776.776,0,0,1,.56.223.782.782,0,0,1,0,1.11A.769.769,0,0,1,99.193,26.6Zm.586,9.4h-1.2V28.5h1.2Zm5.566.176a3.479,3.479,0,0,1-2.655-1.051,3.893,3.893,0,0,1-.992-2.787,4.056,4.056,0,0,1,1.033-2.952,3.713,3.713,0,0,1,2.791-1.062,3.364,3.364,0,0,1,2.618,1.033,4.1,4.1,0,0,1,.941,2.864,4.029,4.029,0,0,1-1.014,2.875A3.554,3.554,0,0,1,105.346,36.176Zm.088-6.841a2.285,2.285,0,0,0-1.831.787,3.234,3.234,0,0,0-.674,2.172,3.058,3.058,0,0,0,.681,2.1,2.315,2.315,0,0,0,1.824.769,2.2,2.2,0,0,0,1.791-.754,3.274,3.274,0,0,0,.626-2.146,3.33,3.33,0,0,0-.626-2.168A2.186,2.186,0,0,0,105.434,29.335Zm1.758-4.658-1.919,2.4h-.93l1.633-2.4ZM117.226,36h-1.2V31.723q0-2.388-1.743-2.388a1.891,1.891,0,0,0-1.49.677,2.511,2.511,0,0,0-.59,1.71V36H111V28.5h1.2v1.245h.029a2.707,2.707,0,0,1,2.461-1.421,2.3,2.3,0,0,1,1.882.795,3.54,3.54,0,0,1,.652,2.3ZM130,36h-1.2V34.726h-.029a2.773,2.773,0,0,1-2.578,1.45,2.8,2.8,0,0,1-2.26-1.007,4.131,4.131,0,0,1-.846-2.743,4.5,4.5,0,0,1,.938-2.981,3.092,3.092,0,0,1,2.5-1.121,2.4,2.4,0,0,1,2.249,1.216h.029V24.9H130Zm-1.2-3.391V31.5a2.146,2.146,0,0,0-.6-1.538,2.014,2.014,0,0,0-1.523-.63,2.074,2.074,0,0,0-1.729.806,3.53,3.53,0,0,0-.63,2.227,3.175,3.175,0,0,0,.6,2.047,1.975,1.975,0,0,0,1.622.751,2.052,2.052,0,0,0,1.63-.725A2.7,2.7,0,0,0,128.8,32.609Zm9.661-.059h-5.3a2.805,2.805,0,0,0,.674,1.934,2.323,2.323,0,0,0,1.772.681,3.685,3.685,0,0,0,2.329-.835v1.128a4.353,4.353,0,0,1-2.615.718,3.17,3.17,0,0,1-2.5-1.022,4.182,4.182,0,0,1-.908-2.875,4.1,4.1,0,0,1,.992-2.853,3.182,3.182,0,0,1,2.465-1.1,2.82,2.82,0,0,1,2.278.952,3.97,3.97,0,0,1,.806,2.644Zm-1.23-1.018a2.444,2.444,0,0,0-.5-1.619,1.709,1.709,0,0,0-1.373-.579,1.94,1.94,0,0,0-1.443.608,2.759,2.759,0,0,0-.732,1.589ZM58.522,49.716a1.469,1.469,0,0,0-.908-.242,1.533,1.533,0,0,0-1.285.725,3.352,3.352,0,0,0-.516,1.978V56h-1.2V48.5h1.2v1.545h.029a2.619,2.619,0,0,1,.784-1.234,1.787,1.787,0,0,1,1.179-.443,1.961,1.961,0,0,1,.718.1Zm7.332,2.834h-5.3a2.805,2.805,0,0,0,.674,1.934A2.323,2.323,0,0,0,63,55.165a3.685,3.685,0,0,0,2.329-.835v1.128a4.353,4.353,0,0,1-2.615.718,3.17,3.17,0,0,1-2.5-1.022,4.182,4.182,0,0,1-.908-2.875,4.1,4.1,0,0,1,.992-2.853,3.182,3.182,0,0,1,2.465-1.1,2.82,2.82,0,0,1,2.278.952,3.97,3.97,0,0,1,.806,2.644Zm-1.23-1.018a2.444,2.444,0,0,0-.5-1.619,1.709,1.709,0,0,0-1.373-.579,1.94,1.94,0,0,0-1.443.608,2.759,2.759,0,0,0-.732,1.589Zm8.159,4.124a3.9,3.9,0,0,1-2.051.52,3.4,3.4,0,0,1-2.589-1.044,3.782,3.782,0,0,1-.985-2.706,4.158,4.158,0,0,1,1.062-2.977,3.715,3.715,0,0,1,2.834-1.124,3.945,3.945,0,0,1,1.743.366v1.23a3.054,3.054,0,0,0-1.787-.586,2.415,2.415,0,0,0-1.886.824,3.127,3.127,0,0,0-.736,2.164,2.977,2.977,0,0,0,.692,2.08,2.386,2.386,0,0,0,1.857.762,3.01,3.01,0,0,0,1.846-.652ZM80.663,56h-1.2V54.813h-.029a2.467,2.467,0,0,1-2.314,1.362q-2.681,0-2.681-3.193V48.5h1.194v4.292q0,2.373,1.816,2.373a1.838,1.838,0,0,0,1.447-.648,2.48,2.48,0,0,0,.568-1.7V48.5h1.2ZM87,49.716a1.469,1.469,0,0,0-.908-.242A1.533,1.533,0,0,0,84.8,50.2a3.352,3.352,0,0,0-.516,1.978V56h-1.2V48.5h1.2v1.545h.029a2.619,2.619,0,0,1,.784-1.234,1.787,1.787,0,0,1,1.179-.443,1.961,1.961,0,0,1,.718.1Zm.85,6.013V54.44a3.555,3.555,0,0,0,2.161.725q1.582,0,1.582-1.055a.915.915,0,0,0-.135-.509,1.35,1.35,0,0,0-.366-.37,2.819,2.819,0,0,0-.542-.289q-.311-.128-.67-.267a8.631,8.631,0,0,1-.875-.4,2.644,2.644,0,0,1-.63-.454,1.69,1.69,0,0,1-.381-.575,2.034,2.034,0,0,1-.128-.754,1.792,1.792,0,0,1,.242-.934,2.143,2.143,0,0,1,.645-.681,3.006,3.006,0,0,1,.919-.414,4.077,4.077,0,0,1,1.066-.139,4.3,4.3,0,0,1,1.743.337v1.216a3.4,3.4,0,0,0-1.9-.542,2.226,2.226,0,0,0-.608.077,1.488,1.488,0,0,0-.465.216,1,1,0,0,0-.3.333.878.878,0,0,0-.106.428,1.028,1.028,0,0,0,.106.491,1.08,1.08,0,0,0,.311.352,2.379,2.379,0,0,0,.5.278q.293.125.667.271a9.276,9.276,0,0,1,.894.392,3.065,3.065,0,0,1,.674.454,1.774,1.774,0,0,1,.428.582,1.878,1.878,0,0,1,.15.784,1.848,1.848,0,0,1-.245.967,2.1,2.1,0,0,1-.656.681,3,3,0,0,1-.945.4,4.665,4.665,0,0,1-1.121.132A4.255,4.255,0,0,1,87.848,55.729Zm9.954.447a3.479,3.479,0,0,1-2.655-1.051,3.893,3.893,0,0,1-.992-2.787,4.056,4.056,0,0,1,1.033-2.952,3.713,3.713,0,0,1,2.791-1.062,3.364,3.364,0,0,1,2.618,1.033,4.1,4.1,0,0,1,.941,2.864,4.029,4.029,0,0,1-1.014,2.875A3.554,3.554,0,0,1,97.8,56.176Zm.088-6.841a2.285,2.285,0,0,0-1.831.787,3.234,3.234,0,0,0-.674,2.172,3.058,3.058,0,0,0,.681,2.1,2.315,2.315,0,0,0,1.824.769,2.2,2.2,0,0,0,1.791-.754,3.274,3.274,0,0,0,.626-2.146A3.33,3.33,0,0,0,99.68,50.1,2.186,2.186,0,0,0,97.89,49.335ZM103,55.729V54.44a3.555,3.555,0,0,0,2.161.725q1.582,0,1.582-1.055a.915.915,0,0,0-.135-.509,1.35,1.35,0,0,0-.366-.37,2.819,2.819,0,0,0-.542-.289q-.311-.128-.67-.267a8.631,8.631,0,0,1-.875-.4,2.644,2.644,0,0,1-.63-.454,1.69,1.69,0,0,1-.381-.575,2.034,2.034,0,0,1-.128-.754,1.792,1.792,0,0,1,.242-.934,2.143,2.143,0,0,1,.645-.681,3.006,3.006,0,0,1,.919-.414,4.077,4.077,0,0,1,1.066-.139,4.3,4.3,0,0,1,1.743.337v1.216a3.4,3.4,0,0,0-1.9-.542,2.226,2.226,0,0,0-.608.077,1.488,1.488,0,0,0-.465.216,1,1,0,0,0-.3.333.878.878,0,0,0-.106.428,1.028,1.028,0,0,0,.106.491,1.08,1.08,0,0,0,.311.352,2.379,2.379,0,0,0,.5.278q.293.125.667.271a9.276,9.276,0,0,1,.894.392,3.065,3.065,0,0,1,.674.454,1.774,1.774,0,0,1,.428.582,1.878,1.878,0,0,1,.15.784,1.848,1.848,0,0,1-.245.967,2.1,2.1,0,0,1-.656.681,3,3,0,0,1-.945.4,4.665,4.665,0,0,1-1.121.132A4.255,4.255,0,0,1,103,55.729Z" transform="translate(508 627.039)" fill="#12263f"/>
    <g id="Grupo_142439" data-name="Grupo 142439" transform="translate(563.293 567.901)">
      <circle id="Elipse_4868" data-name="Elipse 4868" cx="26.086" cy="26.086" r="26.086" transform="translate(0 0)" fill="#ff6148"/>
      <g id="frSa2F" transform="translate(11.745 11.029)">
        <g id="Grupo_155878" data-name="Grupo 155878">
          <path id="Trazado_198257" data-name="Trazado 198257" d="M-515.394,687.009h25.03A2.46,2.46,0,0,1-488.6,689.7c-.041,5.2,0,10.406-.032,15.609a2.932,2.932,0,0,0,.708,2.028,7.077,7.077,0,0,1-1.189,9.938,8.744,8.744,0,0,1-3.652,1.536h-1.556a.6.6,0,0,0-.179-.1,6.843,6.843,0,0,1-5.368-3.867c-.21-.414-.484-.421-.846-.421q-6.921.008-13.842,0a2.252,2.252,0,0,1-2.529-2.514c0-7.365.022-14.729-.02-22.094A2.623,2.623,0,0,1-515.394,687.009Zm14.919,26.315c-.505-3.1.321-5.663,2.857-7.457a6.982,6.982,0,0,1,7.91-.233V692.54h-26.265c-.014.176-.034.313-.034.449q0,9.5,0,19c0,.974.382,1.328,1.394,1.33q4.735.008,9.471,0Zm10.814-21.952v-1.526c0-1.471-.259-1.737-1.7-1.737h-22.954c-.259,0-.568-.075-.765.04-.334.194-.8.479-.848.781a16.637,16.637,0,0,0-.04,2.441Zm2.17,20.283a6.077,6.077,0,0,0-6.355-6.016,6.084,6.084,0,0,0-5.711,6.3,6,6,0,0,0,6.244,5.752A6.006,6.006,0,0,0-487.491,711.656Z" transform="translate(517.109 -687.009)" fill="#fff"/>
          <path id="Trazado_198258" data-name="Trazado 198258" d="M-493.14,777.028l.777.848c-1.415.829-.857,2.206-.921,3.411-.057,1.089-.027,1.106-1.121,1.107-.8,0-1.6-.02-2.4.007-.558.018-.845-.2-.843-.765,0-.963,0-1.926,0-2.889,0-.524.256-.766.795-.734.445.026.893-.011,1.339.009C-494.605,778.061-493.7,778.113-493.14,777.028Zm-2.673,2.843.546-.72h-1.26v2.079h2.147v-1.3l-.665.576Z" transform="translate(500.396 -764.304)" fill="#fff"/>
          <path id="Trazado_198259" data-name="Trazado 198259" d="M-436.6,753.342v.982h-14.165v-.982Z" transform="translate(460.145 -743.966)" fill="#fff"/>
          <path id="Trazado_198260" data-name="Trazado 198260" d="M-435.329,785.34v-1h14.151v1Z" transform="translate(446.888 -770.582)" fill="#fff"/>
          <path id="Trazado_198261" data-name="Trazado 198261" d="M-493.149,730.5l.735.736c-.021.1-.016.164-.041.179-1.015.617-.841,1.614-.846,2.568-.011,2.112.281,1.821-1.82,1.843-.588.006-1.177-.018-1.764.006-.5.02-.757-.188-.759-.688q-.006-1.481,0-2.962a.611.611,0,0,1,.707-.679c.47.006.941-.016,1.411,0C-494.591,731.547-493.658,731.6-493.149,730.5Zm-3.366,2.079v2.174h2.141V733.42l-.642.528-.736-.673.547-.691Z" transform="translate(500.396 -724.356)" fill="#fff"/>
          <path id="Trazado_198262" data-name="Trazado 198262" d="M-493.1,824.3l.827.759c-1.277.587-1.029,1.674-1.039,2.686-.02,2,.3,1.77-1.808,1.785-.587,0-1.175-.015-1.761,0-.534.018-.783-.215-.779-.747q.009-1.409,0-2.817c0-.519.21-.79.762-.76.4.022.8,0,1.2,0A2.723,2.723,0,0,0-493.1,824.3Zm-2.089,1.976h-1.341v2.176h2.147v-1.331l-.754.618-.677-.738Z" transform="translate(500.408 -804.898)" fill="#fff"/>
          <path id="Trazado_198263" data-name="Trazado 198263" d="M-421.082,737.979v.963h-14.153v-.963Z" transform="translate(446.809 -730.774)" fill="#fff"/>
          <path id="Trazado_198264" data-name="Trazado 198264" d="M-439.254,801.093h-11.365v-.948h11.365Z" transform="translate(460.017 -784.153)" fill="#fff"/>
          <path id="Trazado_198265" data-name="Trazado 198265" d="M-444.766,846.345v1.012h-5.891v-1.012Z" transform="translate(460.05 -823.823)" fill="#fff"/>
          <path id="Trazado_198266" data-name="Trazado 198266" d="M-430.9,831.154v.926h-4.268v-.926Z" transform="translate(446.753 -810.779)" fill="#fff"/>
          <path id="Trazado_198267" data-name="Trazado 198267" d="M-450.662,784.28h.963V785.3h-.963Z" transform="translate(460.054 -770.531)" fill="#fff"/>
          <path id="Trazado_198268" data-name="Trazado 198268" d="M-450.774,738.839v-.975h.965v.975Z" transform="translate(460.15 -730.676)" fill="#fff"/>
          <path id="Trazado_198269" data-name="Trazado 198269" d="M-450.8,832.052V831.1h.964v.947Z" transform="translate(460.176 -810.737)" fill="#fff"/>
          <path id="Trazado_198270" data-name="Trazado 198270" d="M-484.57,704.023h-.99v-.955h.99Z" transform="translate(490.019 -700.799)" fill="#fff"/>
          <path id="Trazado_198271" data-name="Trazado 198271" d="M-499.935,703.219v.922h-.958v-.922Z" transform="translate(503.185 -700.928)" fill="#fff"/>
          <path id="Trazado_198272" data-name="Trazado 198272" d="M-469.908,703.021h.948v.954h-.948Z" transform="translate(476.58 -700.758)" fill="#fff"/>
          <path id="Trazado_198273" data-name="Trazado 198273" d="M-380.114,836.694a4.852,4.852,0,0,1-4.84-5.115,4.864,4.864,0,0,1,5.069-4.674,4.848,4.848,0,0,1,4.738,5.01A4.839,4.839,0,0,1-380.114,836.694Zm3.926-4.849a3.928,3.928,0,0,0-3.889-3.917,3.945,3.945,0,0,0-3.842,3.821,3.928,3.928,0,0,0,3.818,3.92A3.938,3.938,0,0,0-376.188,831.845Z" transform="translate(403.635 -807.13)" fill="#fff"/>
          <path id="Trazado_198274" data-name="Trazado 198274" d="M-363.894,848.712l.806.861c-1,.988-1.962,1.982-2.981,2.917a.864.864,0,0,1-.829-.029c-.561-.453-1.046-1-1.62-1.569l.856-.784,1.147,1.4Z" transform="translate(389.522 -825.856)" fill="#fff"/>
        </g>
      </g>
    </g>
    <path id="Trazado_771436" data-name="Trazado 771436" d="M37.6,15.561a6.16,6.16,0,0,1-2.9.615,4.677,4.677,0,0,1-3.589-1.443,5.324,5.324,0,0,1-1.348-3.787,5.58,5.58,0,0,1,1.516-4.072,5.146,5.146,0,0,1,3.845-1.553,6.165,6.165,0,0,1,2.476.432V7.064a5.02,5.02,0,0,0-2.49-.63A3.821,3.821,0,0,0,32.18,7.643a4.553,4.553,0,0,0-1.124,3.23,4.332,4.332,0,0,0,1.051,3.058,3.576,3.576,0,0,0,2.758,1.139,5.173,5.173,0,0,0,2.739-.7Zm5.889-5.845a1.469,1.469,0,0,0-.908-.242A1.533,1.533,0,0,0,41.3,10.2a3.352,3.352,0,0,0-.516,1.978V16h-1.2V8.5h1.2v1.545h.029A2.619,2.619,0,0,1,41.6,8.811a1.787,1.787,0,0,1,1.179-.443,1.961,1.961,0,0,1,.718.1ZM45.412,6.6a.761.761,0,0,1-.549-.22.742.742,0,0,1-.227-.557.769.769,0,0,1,.776-.784.776.776,0,0,1,.56.223.782.782,0,0,1,0,1.11A.769.769,0,0,1,45.412,6.6ZM46,16H44.8V8.5H46Zm5.911-.073a2.316,2.316,0,0,1-1.121.234q-1.97,0-1.97-2.2V9.525H47.528V8.5h1.289V6.669l1.2-.388V8.5h1.89V9.525h-1.89v4.226a1.752,1.752,0,0,0,.256,1.077,1.023,1.023,0,0,0,.85.322,1.263,1.263,0,0,0,.784-.249ZM59.54,12.55h-5.3a2.805,2.805,0,0,0,.674,1.934,2.323,2.323,0,0,0,1.772.681,3.685,3.685,0,0,0,2.329-.835v1.128a4.353,4.353,0,0,1-2.615.718,3.17,3.17,0,0,1-2.5-1.022A4.182,4.182,0,0,1,53,12.279a4.1,4.1,0,0,1,.992-2.853,3.182,3.182,0,0,1,2.465-1.1,2.82,2.82,0,0,1,2.278.952,3.97,3.97,0,0,1,.806,2.644Zm-1.23-1.018a2.444,2.444,0,0,0-.5-1.619,1.709,1.709,0,0,0-1.373-.579,1.94,1.94,0,0,0-1.443.608,2.759,2.759,0,0,0-.732,1.589Zm6.958-1.816a1.469,1.469,0,0,0-.908-.242,1.533,1.533,0,0,0-1.285.725,3.352,3.352,0,0,0-.516,1.978V16h-1.2V8.5h1.2v1.545h.029a2.619,2.619,0,0,1,.784-1.234,1.787,1.787,0,0,1,1.179-.443,1.961,1.961,0,0,1,.718.1ZM67.187,6.6a.761.761,0,0,1-.549-.22.742.742,0,0,1-.227-.557.769.769,0,0,1,.776-.784.776.776,0,0,1,.56.223.782.782,0,0,1,0,1.11A.769.769,0,0,1,67.187,6.6Zm.586,9.4h-1.2V8.5h1.2Zm5.566.176a3.479,3.479,0,0,1-2.655-1.051,3.893,3.893,0,0,1-.992-2.787,4.056,4.056,0,0,1,1.033-2.952,3.713,3.713,0,0,1,2.791-1.062,3.364,3.364,0,0,1,2.618,1.033,4.1,4.1,0,0,1,.941,2.864A4.029,4.029,0,0,1,76.06,15.1,3.554,3.554,0,0,1,73.339,16.176Zm.088-6.841a2.285,2.285,0,0,0-1.831.787,3.234,3.234,0,0,0-.674,2.172,3.058,3.058,0,0,0,.681,2.1,2.315,2.315,0,0,0,1.824.769,2.2,2.2,0,0,0,1.791-.754,3.274,3.274,0,0,0,.626-2.146,3.33,3.33,0,0,0-.626-2.168A2.186,2.186,0,0,0,73.427,9.335Zm5.112,6.394V14.44a3.555,3.555,0,0,0,2.161.725q1.582,0,1.582-1.055a.915.915,0,0,0-.135-.509,1.35,1.35,0,0,0-.366-.37,2.819,2.819,0,0,0-.542-.289q-.311-.128-.67-.267a8.631,8.631,0,0,1-.875-.4,2.644,2.644,0,0,1-.63-.454,1.69,1.69,0,0,1-.381-.575,2.034,2.034,0,0,1-.128-.754,1.792,1.792,0,0,1,.242-.934,2.143,2.143,0,0,1,.645-.681,3.006,3.006,0,0,1,.919-.414,4.077,4.077,0,0,1,1.066-.139,4.3,4.3,0,0,1,1.743.337V9.877a3.4,3.4,0,0,0-1.9-.542,2.226,2.226,0,0,0-.608.077,1.488,1.488,0,0,0-.465.216,1,1,0,0,0-.3.333.878.878,0,0,0-.106.428,1.028,1.028,0,0,0,.106.491,1.08,1.08,0,0,0,.311.352,2.379,2.379,0,0,0,.5.278q.293.125.667.271a9.276,9.276,0,0,1,.894.392,3.065,3.065,0,0,1,.674.454,1.774,1.774,0,0,1,.428.582,1.878,1.878,0,0,1,.15.784,1.848,1.848,0,0,1-.245.967,2.1,2.1,0,0,1-.656.681,3,3,0,0,1-.945.4,4.665,4.665,0,0,1-1.121.132A4.255,4.255,0,0,1,78.539,15.729ZM90.7,14.916h-.029V19.45h-1.2V8.5h1.2V9.818H90.7A2.84,2.84,0,0,1,93.29,8.324a2.747,2.747,0,0,1,2.263,1.007,4.171,4.171,0,0,1,.813,2.7,4.649,4.649,0,0,1-.916,3.014,3.048,3.048,0,0,1-2.5,1.132A2.509,2.509,0,0,1,90.7,14.916Zm-.029-3.025v1.047a2.23,2.23,0,0,0,.6,1.578,2.156,2.156,0,0,0,3.245-.187,3.831,3.831,0,0,0,.619-2.322,3.024,3.024,0,0,0-.579-1.963,1.915,1.915,0,0,0-1.567-.71,2.128,2.128,0,0,0-1.685.729A2.676,2.676,0,0,0,90.668,11.891ZM103.654,16h-1.2V14.828h-.029a2.515,2.515,0,0,1-2.307,1.348,2.466,2.466,0,0,1-1.754-.593,2.055,2.055,0,0,1-.634-1.575q0-2.1,2.476-2.446l2.249-.315q0-1.912-1.545-1.912a3.692,3.692,0,0,0-2.446.923V9.027a4.648,4.648,0,0,1,2.549-.7q2.644,0,2.644,2.8Zm-1.2-3.794-1.809.249a2.937,2.937,0,0,0-1.26.414,1.193,1.193,0,0,0-.425,1.051,1.145,1.145,0,0,0,.392.9,1.514,1.514,0,0,0,1.044.348,1.928,1.928,0,0,0,1.476-.626,2.237,2.237,0,0,0,.582-1.586Zm7.375-2.49a1.469,1.469,0,0,0-.908-.242,1.533,1.533,0,0,0-1.285.725,3.352,3.352,0,0,0-.516,1.978V16h-1.2V8.5h1.2v1.545h.029a2.619,2.619,0,0,1,.784-1.234,1.787,1.787,0,0,1,1.179-.443,1.961,1.961,0,0,1,.718.1ZM116.5,16h-1.2V14.828h-.029a2.515,2.515,0,0,1-2.307,1.348,2.466,2.466,0,0,1-1.754-.593,2.055,2.055,0,0,1-.634-1.575q0-2.1,2.476-2.446l2.249-.315q0-1.912-1.545-1.912a3.692,3.692,0,0,0-2.446.923V9.027a4.648,4.648,0,0,1,2.549-.7q2.644,0,2.644,2.8Zm-1.2-3.794-1.809.249a2.937,2.937,0,0,0-1.26.414,1.193,1.193,0,0,0-.425,1.051,1.145,1.145,0,0,0,.392.9,1.514,1.514,0,0,0,1.044.348,1.928,1.928,0,0,0,1.476-.626,2.237,2.237,0,0,0,.582-1.586ZM124.074,16h-1.2V4.9h1.2Zm7.8,0h-1.2V14.828h-.029a2.515,2.515,0,0,1-2.307,1.348,2.466,2.466,0,0,1-1.754-.593,2.055,2.055,0,0,1-.634-1.575q0-2.1,2.476-2.446l2.249-.315q0-1.912-1.545-1.912a3.692,3.692,0,0,0-2.446.923V9.027a4.648,4.648,0,0,1,2.549-.7q2.644,0,2.644,2.8Zm-1.2-3.794-1.809.249a2.937,2.937,0,0,0-1.26.414,1.193,1.193,0,0,0-.425,1.051,1.145,1.145,0,0,0,.392.9,1.514,1.514,0,0,0,1.044.348,1.928,1.928,0,0,0,1.476-.626,2.237,2.237,0,0,0,.582-1.586ZM37.11,34.916H37.08V39.45h-1.2V28.5h1.2v1.318h.029A2.84,2.84,0,0,1,39.7,28.324a2.747,2.747,0,0,1,2.263,1.007,4.171,4.171,0,0,1,.813,2.7,4.649,4.649,0,0,1-.916,3.014,3.048,3.048,0,0,1-2.5,1.132A2.509,2.509,0,0,1,37.11,34.916Zm-.029-3.025v1.047a2.23,2.23,0,0,0,.6,1.578,2.156,2.156,0,0,0,3.245-.187,3.831,3.831,0,0,0,.619-2.322,3.024,3.024,0,0,0-.579-1.963,1.915,1.915,0,0,0-1.567-.71,2.128,2.128,0,0,0-1.685.729A2.676,2.676,0,0,0,37.08,31.891ZM45.9,36H44.7V24.9h1.2Zm7.8,0H52.5V34.828h-.029a2.515,2.515,0,0,1-2.307,1.348,2.466,2.466,0,0,1-1.754-.593,2.055,2.055,0,0,1-.634-1.575q0-2.1,2.476-2.446l2.249-.315q0-1.912-1.545-1.912a3.692,3.692,0,0,0-2.446.923v-1.23a4.648,4.648,0,0,1,2.549-.7q2.644,0,2.644,2.8Zm-1.2-3.794-1.809.249a2.937,2.937,0,0,0-1.26.414A1.193,1.193,0,0,0,49,33.92a1.145,1.145,0,0,0,.392.9,1.514,1.514,0,0,0,1.044.348,1.928,1.928,0,0,0,1.476-.626,2.237,2.237,0,0,0,.582-1.586ZM62.188,36h-1.2V31.723q0-2.388-1.743-2.388a1.891,1.891,0,0,0-1.49.677,2.511,2.511,0,0,0-.59,1.71V36h-1.2V28.5h1.2v1.245h.029a2.707,2.707,0,0,1,2.461-1.421,2.3,2.3,0,0,1,1.882.795,3.54,3.54,0,0,1,.652,2.3Zm8.291-3.45h-5.3a2.805,2.805,0,0,0,.674,1.934,2.323,2.323,0,0,0,1.772.681,3.685,3.685,0,0,0,2.329-.835v1.128a4.353,4.353,0,0,1-2.615.718,3.17,3.17,0,0,1-2.5-1.022,4.182,4.182,0,0,1-.908-2.875,4.1,4.1,0,0,1,.992-2.853,3.182,3.182,0,0,1,2.465-1.1,2.82,2.82,0,0,1,2.278.952,3.97,3.97,0,0,1,.806,2.644Zm-1.23-1.018a2.444,2.444,0,0,0-.5-1.619,1.709,1.709,0,0,0-1.373-.579,1.94,1.94,0,0,0-1.443.608,2.759,2.759,0,0,0-.732,1.589ZM77.664,36h-1.2V34.828h-.029a2.515,2.515,0,0,1-2.307,1.348,2.466,2.466,0,0,1-1.754-.593,2.055,2.055,0,0,1-.634-1.575q0-2.1,2.476-2.446l2.249-.315q0-1.912-1.545-1.912a3.692,3.692,0,0,0-2.446.923v-1.23a4.648,4.648,0,0,1,2.549-.7q2.644,0,2.644,2.8Zm-1.2-3.794-1.809.249a2.937,2.937,0,0,0-1.26.414,1.193,1.193,0,0,0-.425,1.051,1.145,1.145,0,0,0,.392.9,1.514,1.514,0,0,0,1.044.348,1.928,1.928,0,0,0,1.476-.626,2.237,2.237,0,0,0,.582-1.586Zm8.577,3.45a3.9,3.9,0,0,1-2.051.52A3.4,3.4,0,0,1,80.4,35.132a3.782,3.782,0,0,1-.985-2.706,4.158,4.158,0,0,1,1.062-2.977,3.715,3.715,0,0,1,2.834-1.124,3.945,3.945,0,0,1,1.743.366v1.23a3.054,3.054,0,0,0-1.787-.586,2.415,2.415,0,0,0-1.886.824,3.127,3.127,0,0,0-.736,2.164,2.977,2.977,0,0,0,.692,2.08,2.386,2.386,0,0,0,1.857.762,3.01,3.01,0,0,0,1.846-.652Zm2.432-9.06a.761.761,0,0,1-.549-.22.742.742,0,0,1-.227-.557.769.769,0,0,1,.776-.784.776.776,0,0,1,.56.223.782.782,0,0,1,0,1.11A.769.769,0,0,1,87.471,26.6Zm.586,9.4h-1.2V28.5h1.2Zm5.566.176a3.479,3.479,0,0,1-2.655-1.051,3.893,3.893,0,0,1-.992-2.787,4.056,4.056,0,0,1,1.033-2.952A3.713,3.713,0,0,1,93.8,28.324a3.364,3.364,0,0,1,2.618,1.033,4.1,4.1,0,0,1,.941,2.864A4.029,4.029,0,0,1,96.344,35.1,3.554,3.554,0,0,1,93.623,36.176Zm.088-6.841a2.285,2.285,0,0,0-1.831.787,3.234,3.234,0,0,0-.674,2.172,3.058,3.058,0,0,0,.681,2.1,2.315,2.315,0,0,0,1.824.769,2.2,2.2,0,0,0,1.791-.754,3.274,3.274,0,0,0,.626-2.146A3.33,3.33,0,0,0,95.5,30.1,2.186,2.186,0,0,0,93.711,29.335Zm1.758-4.658-1.919,2.4h-.93l1.633-2.4ZM105.5,36h-1.2V31.723q0-2.388-1.743-2.388a1.891,1.891,0,0,0-1.49.677,2.511,2.511,0,0,0-.59,1.71V36h-1.2V28.5h1.2v1.245h.029a2.707,2.707,0,0,1,2.461-1.421,2.3,2.3,0,0,1,1.882.795,3.54,3.54,0,0,1,.652,2.3Zm12.773,0h-1.2V34.726h-.029a2.773,2.773,0,0,1-2.578,1.45,2.8,2.8,0,0,1-2.26-1.007,4.131,4.131,0,0,1-.846-2.743,4.5,4.5,0,0,1,.938-2.981,3.092,3.092,0,0,1,2.5-1.121,2.4,2.4,0,0,1,2.249,1.216h.029V24.9h1.2Zm-1.2-3.391V31.5a2.146,2.146,0,0,0-.6-1.538,2.014,2.014,0,0,0-1.523-.63,2.074,2.074,0,0,0-1.729.806,3.53,3.53,0,0,0-.63,2.227,3.175,3.175,0,0,0,.6,2.047,1.975,1.975,0,0,0,1.622.751,2.052,2.052,0,0,0,1.63-.725A2.7,2.7,0,0,0,117.075,32.609Zm9.661-.059h-5.3a2.805,2.805,0,0,0,.674,1.934,2.323,2.323,0,0,0,1.772.681,3.685,3.685,0,0,0,2.329-.835v1.128a4.353,4.353,0,0,1-2.615.718,3.17,3.17,0,0,1-2.5-1.022,4.182,4.182,0,0,1-.908-2.875,4.1,4.1,0,0,1,.992-2.853,3.182,3.182,0,0,1,2.465-1.1,2.82,2.82,0,0,1,2.278.952,3.97,3.97,0,0,1,.806,2.644Zm-1.23-1.018a2.444,2.444,0,0,0-.5-1.619,1.709,1.709,0,0,0-1.373-.579,1.94,1.94,0,0,0-1.443.608,2.759,2.759,0,0,0-.732,1.589ZM50.784,56h-1.2V54.828h-.029a2.515,2.515,0,0,1-2.307,1.348,2.466,2.466,0,0,1-1.754-.593,2.055,2.055,0,0,1-.634-1.575q0-2.1,2.476-2.446l2.249-.315q0-1.912-1.545-1.912a3.692,3.692,0,0,0-2.446.923v-1.23a4.648,4.648,0,0,1,2.549-.7q2.644,0,2.644,2.8Zm-1.2-3.794-1.809.249a2.937,2.937,0,0,0-1.26.414,1.193,1.193,0,0,0-.425,1.051,1.145,1.145,0,0,0,.392.9,1.514,1.514,0,0,0,1.044.348A1.928,1.928,0,0,0,49,54.539a2.237,2.237,0,0,0,.582-1.586Zm8.577,3.45a3.9,3.9,0,0,1-2.051.52,3.4,3.4,0,0,1-2.589-1.044,3.782,3.782,0,0,1-.985-2.706A4.158,4.158,0,0,1,53.6,49.448a3.715,3.715,0,0,1,2.834-1.124,3.945,3.945,0,0,1,1.743.366v1.23a3.054,3.054,0,0,0-1.787-.586,2.415,2.415,0,0,0-1.886.824,3.127,3.127,0,0,0-.736,2.164,2.977,2.977,0,0,0,.692,2.08,2.386,2.386,0,0,0,1.857.762,3.01,3.01,0,0,0,1.846-.652Zm5.3.271a2.316,2.316,0,0,1-1.121.234q-1.97,0-1.97-2.2V49.525H59.075V48.5h1.289V46.669l1.2-.388V48.5h1.89v1.025h-1.89v4.226a1.752,1.752,0,0,0,.256,1.077,1.023,1.023,0,0,0,.85.322,1.263,1.263,0,0,0,.784-.249ZM65.674,46.6a.761.761,0,0,1-.549-.22.742.742,0,0,1-.227-.557.769.769,0,0,1,.776-.784.776.776,0,0,1,.56.223.782.782,0,0,1,0,1.11A.769.769,0,0,1,65.674,46.6ZM66.26,56h-1.2V48.5h1.2Zm8.328-7.5L71.6,56H70.42l-2.842-7.5H68.9l1.9,5.449A4.891,4.891,0,0,1,71.065,55h.029a4.953,4.953,0,0,1,.234-1.018L73.321,48.5Zm1.9-1.9a.761.761,0,0,1-.549-.22.742.742,0,0,1-.227-.557.769.769,0,0,1,.776-.784.776.776,0,0,1,.56.223.782.782,0,0,1,0,1.11A.769.769,0,0,1,76.492,46.6Zm.586,9.4h-1.2V48.5h1.2Zm8.833,0h-1.2V54.726H84.68a2.773,2.773,0,0,1-2.578,1.45,2.8,2.8,0,0,1-2.26-1.007A4.131,4.131,0,0,1,79,52.426a4.5,4.5,0,0,1,.938-2.981,3.092,3.092,0,0,1,2.5-1.121A2.4,2.4,0,0,1,84.68,49.54h.029V44.9h1.2Zm-1.2-3.391V51.5a2.146,2.146,0,0,0-.6-1.538,2.014,2.014,0,0,0-1.523-.63,2.074,2.074,0,0,0-1.729.806,3.53,3.53,0,0,0-.63,2.227,3.175,3.175,0,0,0,.6,2.047,1.975,1.975,0,0,0,1.622.751,2.052,2.052,0,0,0,1.63-.725A2.7,2.7,0,0,0,84.71,52.609Zm9,3.391h-1.2V54.828h-.029a2.515,2.515,0,0,1-2.307,1.348,2.466,2.466,0,0,1-1.754-.593,2.055,2.055,0,0,1-.634-1.575q0-2.1,2.476-2.446l2.249-.315q0-1.912-1.545-1.912a3.692,3.692,0,0,0-2.446.923v-1.23a4.648,4.648,0,0,1,2.549-.7q2.644,0,2.644,2.8Zm-1.2-3.794-1.809.249a2.937,2.937,0,0,0-1.26.414,1.193,1.193,0,0,0-.425,1.051,1.145,1.145,0,0,0,.392.9,1.514,1.514,0,0,0,1.044.348,1.928,1.928,0,0,0,1.476-.626,2.237,2.237,0,0,0,.582-1.586ZM102.376,56h-1.2V54.726h-.029a2.773,2.773,0,0,1-2.578,1.45,2.8,2.8,0,0,1-2.26-1.007,4.131,4.131,0,0,1-.846-2.743,4.5,4.5,0,0,1,.938-2.981,3.092,3.092,0,0,1,2.5-1.121,2.4,2.4,0,0,1,2.249,1.216h.029V44.9h1.2Zm-1.2-3.391V51.5a2.146,2.146,0,0,0-.6-1.538,2.014,2.014,0,0,0-1.523-.63,2.074,2.074,0,0,0-1.729.806,3.53,3.53,0,0,0-.63,2.227,3.175,3.175,0,0,0,.6,2.047,1.975,1.975,0,0,0,1.622.751,2.052,2.052,0,0,0,1.63-.725A2.7,2.7,0,0,0,101.175,52.609Zm9.661-.059h-5.3a2.805,2.805,0,0,0,.674,1.934,2.323,2.323,0,0,0,1.772.681,3.685,3.685,0,0,0,2.329-.835v1.128a4.353,4.353,0,0,1-2.615.718,3.17,3.17,0,0,1-2.5-1.022,4.182,4.182,0,0,1-.908-2.875,4.1,4.1,0,0,1,.992-2.853,3.182,3.182,0,0,1,2.465-1.1,2.82,2.82,0,0,1,2.278.952,3.97,3.97,0,0,1,.806,2.644Zm-1.23-1.018a2.444,2.444,0,0,0-.5-1.619,1.709,1.709,0,0,0-1.373-.579,1.94,1.94,0,0,0-1.443.608,2.759,2.759,0,0,0-.732,1.589Zm2.593,4.2V54.44a3.555,3.555,0,0,0,2.161.725q1.582,0,1.582-1.055a.915.915,0,0,0-.135-.509,1.35,1.35,0,0,0-.366-.37,2.819,2.819,0,0,0-.542-.289q-.311-.128-.67-.267a8.631,8.631,0,0,1-.875-.4,2.644,2.644,0,0,1-.63-.454,1.69,1.69,0,0,1-.381-.575,2.034,2.034,0,0,1-.128-.754,1.792,1.792,0,0,1,.242-.934,2.143,2.143,0,0,1,.645-.681,3.006,3.006,0,0,1,.919-.414,4.077,4.077,0,0,1,1.066-.139,4.3,4.3,0,0,1,1.743.337v1.216a3.4,3.4,0,0,0-1.9-.542,2.226,2.226,0,0,0-.608.077,1.488,1.488,0,0,0-.465.216,1,1,0,0,0-.3.333.878.878,0,0,0-.106.428,1.028,1.028,0,0,0,.106.491,1.08,1.08,0,0,0,.311.352,2.379,2.379,0,0,0,.5.278q.293.125.667.271a9.276,9.276,0,0,1,.894.392,3.065,3.065,0,0,1,.674.454,1.774,1.774,0,0,1,.428.582,1.878,1.878,0,0,1,.15.784,1.848,1.848,0,0,1-.245.967,2.1,2.1,0,0,1-.656.681,3,3,0,0,1-.945.4,4.665,4.665,0,0,1-1.121.132A4.255,4.255,0,0,1,112.2,55.729Z" transform="translate(718 627.039)" fill="#12263f"/>
    <g id="Grupo_142441" data-name="Grupo 142441" transform="translate(773.293 567.901)">
      <path id="Trazado_770862" data-name="Trazado 770862" d="M26.086,0A26.086,26.086,0,1,1,0,26.086,26.086,26.086,0,0,1,26.086,0Z" transform="translate(0 0)" fill="#ff6148"/>
      <g id="igIudo.tif" transform="translate(8.724 8.306)">
        <g id="Grupo_155494" data-name="Grupo 155494">
          <path id="Trazado_197412" data-name="Trazado 197412" d="M-1332.061,1297.651h-1.755c-.068.342-.125.685-.2,1.022a6.706,6.706,0,0,1-2.422,3.815.618.618,0,0,0-.281.59c.025.29.006.584.006.922h1.147v1.189h-1.138v2.305h-8.169v-2.286h-1.13v-1.179h1.095v-.913c-.774.207-1.533.453-2.31.61a14.2,14.2,0,0,1-8.675-.9,14.361,14.361,0,0,1-5.342-3.987,14.359,14.359,0,0,1-3.33-7.625,16.279,16.279,0,0,1,0-3.513.686.686,0,0,0-.173-.479c-.743-.769-1.505-1.518-2.261-2.275-.081-.081-.157-.167-.274-.291.316-.3.615-.6.927-.882a.283.283,0,0,0,.084-.391c-.14-.282-.252-.579-.385-.891h-1.489v-4.661c.406,0,.813-.01,1.219,0,.2.008.281-.079.39-.249a1,1,0,0,0-.338-1.569,5.019,5.019,0,0,1-.392-.316l3.375-3.371c.248.271.534.563.794.876a.325.325,0,0,0,.507.077.167.167,0,0,1,.065-.027c.7-.117.876-.555.767-1.2a3.49,3.49,0,0,1,0-.633h4.654v1.515c.3.129.6.244.879.38a.287.287,0,0,0,.394-.068c.291-.318.6-.62.913-.942.87.874,1.7,1.7,2.524,2.542a.553.553,0,0,0,.523.184,13.711,13.711,0,0,1,3.687.005,14.2,14.2,0,0,1,8.734,4.574,14.266,14.266,0,0,1,3.688,12.259.681.681,0,0,0,.146.489,6.868,6.868,0,0,1,1.494,2.682c.129.457.211.928.318,1.407h1.731Zm-15.716-1.188a6.918,6.918,0,0,1,3.979-5.713,6.856,6.856,0,0,1,6.924.49,10.343,10.343,0,0,0,.072-3.135,13.054,13.054,0,0,0-2-5.76,13.263,13.263,0,0,0-7.726-5.754,13.2,13.2,0,0,0-5.4-.37c-.6.078-.788.4-.545.951a2.1,2.1,0,0,1,.138.36.347.347,0,0,0,.422.3c.4-.024.81-.006,1.214-.006v4.66a3.033,3.033,0,0,1-.539,0,1.011,1.011,0,0,0-1.348.877c-.04.182-.059.293.087.426.31.282.6.582.857.828l-3.345,3.348c-.11-.13-.258-.282-.38-.454-.357-.5-.774-.7-1.333-.3a.322.322,0,0,1-.13.051c-.213.038-.274.162-.266.373.016.417,0,.834,0,1.246h-4.661c0-.441.01-.862-.007-1.281a.4.4,0,0,0-.161-.3,6.5,6.5,0,0,0-.81-.337.244.244,0,0,0-.216.027,1.687,1.687,0,0,0-.4.628,12.682,12.682,0,0,0,.08,4.273,13.145,13.145,0,0,0,2.727,5.948,13.236,13.236,0,0,0,5.52,4.07,13.232,13.232,0,0,0,7.188.74c.729-.123,1.44-.347,2.179-.53a.913.913,0,0,0-.072-.132,7,7,0,0,1-2-4.134c-.01-.082-.176-.2-.274-.207-.5-.021-1-.01-1.517-.01v-1.177Zm-16.984-20.06c-.336.871-.623,1.635-.932,2.391a.406.406,0,0,1-.293.2c-.322.025-.647.009-.968.009v2.308c.346,0,.663-.011.978.007a.352.352,0,0,1,.267.141c.314.788.61,1.583.944,2.462l-.777.737,1.681,1.675.7-.826c.846.322,1.6.6,2.346.9a.445.445,0,0,1,.219.318c.03.322.01.648.01.966h2.317v-1.146l2.609-1.082.711.836,1.667-1.667-.808-.712c.335-.883.623-1.659.931-2.427a.372.372,0,0,1,.275-.174c.333-.021.669-.008,1-.008V1279c-.344,0-.672.014-1-.008a.377.377,0,0,1-.279-.175c-.308-.767-.6-1.542-.928-2.411l.791-.679-1.693-1.693-.7.786c-.85-.326-1.625-.618-2.392-.928a.367.367,0,0,1-.186-.264c-.023-.334-.009-.67-.009-1h-2.308c0,.346.011.673-.007,1a.343.343,0,0,1-.151.259c-.778.311-1.563.6-2.476.952l-.679-.818-1.68,1.685ZM-1337.9,1304c0-.476.029-.912-.009-1.342a.861.861,0,0,1,.428-.86,5.579,5.579,0,0,0,2.354-5.981,5.78,5.78,0,0,0-7.86-4.153,5.853,5.853,0,0,0-3.588,6.068,5.918,5.918,0,0,0,2.642,4.223.6.6,0,0,1,.222.415c.026.536.01,1.074.01,1.619h2.311V1299.3l-.266-.107a2.317,2.317,0,0,1-1.435-2.55,2.357,2.357,0,0,1,2.27-1.945,2.383,2.383,0,0,1,2.318,1.9,2.32,2.32,0,0,1-1.4,2.576.406.406,0,0,0-.313.452c.011,1.339,0,2.679.006,4.018,0,.113.014.225.022.349Zm-.02,1.222h-5.758v1.1h5.758Zm-4.022-8.193a1.152,1.152,0,0,0,1.147,1.178,1.159,1.159,0,0,0,1.148-1.144,1.152,1.152,0,0,0-1.15-1.172A1.147,1.147,0,0,0-1341.942,1297.024Z" transform="translate(1368.138 -1271.425)" fill="#fff"/>
          <path id="Trazado_197413" data-name="Trazado 197413" d="M-1274.694,1534.811l-1.044,1.731-1.008-.6,2.027-3.382,3.986,1.989-.524,1.052-2.3-1.148a8.588,8.588,0,0,0,2.9,4.474,8.629,8.629,0,0,0,4.882,1.933v1.172a9.732,9.732,0,0,1-5.6-2.175A9.9,9.9,0,0,1-1274.694,1534.811Z" transform="translate(1283.202 -1514.116)" fill="#fff"/>
          <path id="Trazado_197414" data-name="Trazado 197414" d="M-1104.488,1387.921v-1.207a10.06,10.06,0,0,1,8.952,7.2l1.014-1.674,1.007.6c-.64,1.065-1.265,2.111-1.9,3.15a.289.289,0,0,1-.246.114c-1.257-.41-2.51-.833-3.79-1.262l.37-1.109,2.447.809a8.548,8.548,0,0,0-2.861-4.6A8.621,8.621,0,0,0-1104.488,1387.921Z" transform="translate(1123.111 -1378.571)" fill="#fff"/>
          <path id="Trazado_197415" data-name="Trazado 197415" d="M-1310.735,1333.849a4.636,4.636,0,0,1,4.65-4.657,4.65,4.65,0,0,1,4.664,4.649,4.663,4.663,0,0,1-4.656,4.663A4.65,4.65,0,0,1-1310.735,1333.849Zm7.425,2.005.146-.025.577-1.417h-1.142v-1.165h1.135l-.62-1.5-.775.846-.894-.874.828-.669-.03-.122-1.434-.581v1.151h-1.166v-1.15l-1.5.629.862.69-.943.988-.645-.845a3.01,3.01,0,0,0-.571,1.449h1.051v1.167h-1.142l.587,1.409.141.035.661-.782.921.886-.909.741,1.506.609V1336.2h1.183v1.128l1.5-.624-.844-.758.853-.9Z" transform="translate(1314.79 -1325.112)" fill="#fff"/>
          <path id="Trazado_197416" data-name="Trazado 197416" d="M-1045.581,1627.248h-1.137V1626.1h1.137Z" transform="translate(1069.421 -1601.051)" fill="#fff"/>
          <path id="Trazado_197417" data-name="Trazado 197417" d="M-951.128,1583.12l.775-.732.788.8-.8.708Z" transform="translate(980.583 -1560.423)" fill="#fff"/>
          <path id="Trazado_197418" data-name="Trazado 197418" d="M-987.7,1568.279v1.144h-1.12v-1.144Z" transform="translate(1015.613 -1547.311)" fill="#fff"/>
          <path id="Trazado_197419" data-name="Trazado 197419" d="M-949.439,1664.807l-.754.762-.763-.8.789-.775Z" transform="translate(980.424 -1636.266)" fill="#fff"/>
          <path id="Trazado_197420" data-name="Trazado 197420" d="M-1031.6,1583.424l-.762.781-.8-.819.835-.743Z" transform="translate(1056.825 -1560.66)" fill="#fff"/>
          <path id="Trazado_197421" data-name="Trazado 197421" d="M-1031.513,1664.289l.793.745-.828.8-.719-.788Z" transform="translate(1055.991 -1636.539)" fill="#fff"/>
          <path id="Trazado_197422" data-name="Trazado 197422" d="M-930.116,1627.263h-1.119v-1.14h1.119Z" transform="translate(962.095 -1601.069)" fill="#fff"/>
        </g>
      </g>
    </g>
    <path id="Trazado_771437" data-name="Trazado 771437" d="M64.506,16H63.041l-1.758-2.944a6.413,6.413,0,0,0-.469-.7,2.672,2.672,0,0,0-.465-.472,1.611,1.611,0,0,0-.513-.267,2.108,2.108,0,0,0-.619-.084H58.207V16h-1.23V5.5h3.135a4.467,4.467,0,0,1,1.271.172,2.843,2.843,0,0,1,1.011.524,2.434,2.434,0,0,1,.67.875A2.9,2.9,0,0,1,63.3,8.295,2.954,2.954,0,0,1,63.14,9.3a2.63,2.63,0,0,1-.469.817,2.841,2.841,0,0,1-.732.612,3.739,3.739,0,0,1-.963.392v.029a2.215,2.215,0,0,1,.458.267,2.519,2.519,0,0,1,.37.355,4.705,4.705,0,0,1,.348.465q.172.26.385.6Zm-6.3-9.39v3.809h1.67a2.533,2.533,0,0,0,.853-.139,1.975,1.975,0,0,0,.677-.4,1.81,1.81,0,0,0,.447-.637,2.133,2.133,0,0,0,.161-.846,1.646,1.646,0,0,0-.546-1.315,2.344,2.344,0,0,0-1.578-.472ZM66.4,6.6a.761.761,0,0,1-.549-.22.742.742,0,0,1-.227-.557.769.769,0,0,1,.776-.784.776.776,0,0,1,.56.223.782.782,0,0,1,0,1.11A.769.769,0,0,1,66.4,6.6Zm.586,9.4h-1.2V8.5h1.2Zm8.459-3.45h-5.3a2.805,2.805,0,0,0,.674,1.934,2.323,2.323,0,0,0,1.772.681,3.685,3.685,0,0,0,2.329-.835v1.128a4.353,4.353,0,0,1-2.615.718,3.17,3.17,0,0,1-2.5-1.022,4.182,4.182,0,0,1-.908-2.875A4.1,4.1,0,0,1,69.9,9.427a3.182,3.182,0,0,1,2.465-1.1,2.82,2.82,0,0,1,2.278.952,3.97,3.97,0,0,1,.806,2.644Zm-1.23-1.018a2.444,2.444,0,0,0-.5-1.619,1.709,1.709,0,0,0-1.373-.579,1.94,1.94,0,0,0-1.443.608,2.759,2.759,0,0,0-.732,1.589Zm2.593,4.2V14.44a3.555,3.555,0,0,0,2.161.725q1.582,0,1.582-1.055a.915.915,0,0,0-.135-.509,1.35,1.35,0,0,0-.366-.37,2.819,2.819,0,0,0-.542-.289q-.311-.128-.67-.267a8.631,8.631,0,0,1-.875-.4,2.644,2.644,0,0,1-.63-.454,1.69,1.69,0,0,1-.381-.575,2.034,2.034,0,0,1-.128-.754,1.792,1.792,0,0,1,.242-.934,2.143,2.143,0,0,1,.645-.681,3.006,3.006,0,0,1,.919-.414A4.077,4.077,0,0,1,79.7,8.324a4.3,4.3,0,0,1,1.743.337V9.877a3.4,3.4,0,0,0-1.9-.542,2.226,2.226,0,0,0-.608.077,1.488,1.488,0,0,0-.465.216,1,1,0,0,0-.3.333.878.878,0,0,0-.106.428,1.028,1.028,0,0,0,.106.491,1.08,1.08,0,0,0,.311.352,2.379,2.379,0,0,0,.5.278q.293.125.667.271a9.276,9.276,0,0,1,.894.392,3.065,3.065,0,0,1,.674.454,1.774,1.774,0,0,1,.428.582,1.878,1.878,0,0,1,.15.784,1.848,1.848,0,0,1-.245.967,2.1,2.1,0,0,1-.656.681,3,3,0,0,1-.945.4,4.665,4.665,0,0,1-1.121.132A4.255,4.255,0,0,1,76.811,15.729Zm13.22-.33q0,4.131-3.955,4.131A5.31,5.31,0,0,1,83.644,19V17.8a4.994,4.994,0,0,0,2.417.7q2.769,0,2.769-2.944v-.82H88.8a3.035,3.035,0,0,1-4.83.436,4,4,0,0,1-.853-2.684,4.669,4.669,0,0,1,.919-3.04,3.071,3.071,0,0,1,2.516-1.128A2.445,2.445,0,0,1,88.8,9.54h.029V8.5h1.2Zm-1.2-2.791V11.5a2.146,2.146,0,0,0-.6-1.531,1.989,1.989,0,0,0-1.505-.637,2.086,2.086,0,0,0-1.743.809,3.612,3.612,0,0,0-.63,2.267,3.1,3.1,0,0,0,.6,2,1.952,1.952,0,0,0,1.6.751,2.091,2.091,0,0,0,1.644-.718A2.675,2.675,0,0,0,88.83,12.609ZM95.6,16.176a3.479,3.479,0,0,1-2.655-1.051,3.893,3.893,0,0,1-.992-2.787,4.056,4.056,0,0,1,1.033-2.952,3.713,3.713,0,0,1,2.791-1.062,3.364,3.364,0,0,1,2.618,1.033,4.1,4.1,0,0,1,.941,2.864A4.029,4.029,0,0,1,98.318,15.1,3.554,3.554,0,0,1,95.6,16.176Zm.088-6.841a2.285,2.285,0,0,0-1.831.787,3.234,3.234,0,0,0-.674,2.172,3.058,3.058,0,0,0,.681,2.1,2.315,2.315,0,0,0,1.824.769,2.2,2.2,0,0,0,1.791-.754,3.274,3.274,0,0,0,.626-2.146,3.33,3.33,0,0,0-.626-2.168A2.186,2.186,0,0,0,95.685,9.335Zm5.112,6.394V14.44a3.555,3.555,0,0,0,2.161.725q1.582,0,1.582-1.055a.915.915,0,0,0-.135-.509,1.35,1.35,0,0,0-.366-.37,2.819,2.819,0,0,0-.542-.289q-.311-.128-.67-.267a8.631,8.631,0,0,1-.875-.4,2.644,2.644,0,0,1-.63-.454,1.69,1.69,0,0,1-.381-.575,2.034,2.034,0,0,1-.128-.754,1.792,1.792,0,0,1,.242-.934,2.143,2.143,0,0,1,.645-.681,3.006,3.006,0,0,1,.919-.414,4.077,4.077,0,0,1,1.066-.139,4.3,4.3,0,0,1,1.743.337V9.877a3.4,3.4,0,0,0-1.9-.542,2.226,2.226,0,0,0-.608.077,1.488,1.488,0,0,0-.465.216,1,1,0,0,0-.3.333.878.878,0,0,0-.106.428,1.028,1.028,0,0,0,.106.491,1.08,1.08,0,0,0,.311.352,2.379,2.379,0,0,0,.5.278q.293.125.667.271a9.276,9.276,0,0,1,.894.392,3.065,3.065,0,0,1,.674.454,1.774,1.774,0,0,1,.428.582,1.878,1.878,0,0,1,.15.784,1.848,1.848,0,0,1-.245.967,2.1,2.1,0,0,1-.656.681,3,3,0,0,1-.945.4,4.665,4.665,0,0,1-1.121.132A4.255,4.255,0,0,1,100.8,15.729Z" transform="translate(1138 627.039)" fill="#12263f"/>
    <g id="Grupo_155656" data-name="Grupo 155656" transform="translate(1193.293 567.901)">
      <path id="Trazado_770864" data-name="Trazado 770864" d="M26.086,0A26.086,26.086,0,1,1,0,26.086,26.086,26.086,0,0,1,26.086,0Z" transform="translate(0 0)" fill="#ff6148"/>
      <g id="o4muyW.tif" transform="translate(14.582 8.056)">
        <g id="Grupo_155880" data-name="Grupo 155880">
          <path id="Trazado_198282" data-name="Trazado 198282" d="M-1053.115-296.665h-16.244c-.027-.02-.051-.054-.08-.059a3.156,3.156,0,0,1-2.032-4.755c1.1-1.887,2.117-3.819,3.171-5.731l1.574-2.856c-.537-.407-1.048-.8-1.571-1.18a.386.386,0,0,0-.309-.014c-.465.172-.919.373-1.385.545a1.033,1.033,0,0,1-1.362-.491q-1.015-1.735-2.01-3.483a1.054,1.054,0,0,1,.292-1.475c.37-.3.757-.573,1.115-.882a.47.47,0,0,0,.134-.372,10.856,10.856,0,0,1,0-3.933.472.472,0,0,0-.145-.369c-.349-.3-.724-.575-1.087-.862a1.062,1.062,0,0,1-.308-1.5q.988-1.731,1.993-3.452a1.048,1.048,0,0,1,1.416-.5c.441.17.874.364,1.32.52a.471.471,0,0,0,.391-.05,11.263,11.263,0,0,1,3.4-1.965.509.509,0,0,0,.26-.336c.094-.487.144-.983.223-1.473a1.022,1.022,0,0,1,1.034-.89q2.082-.009,4.164,0a1.017,1.017,0,0,1,1.034.888c.077.479.155.959.2,1.441a.392.392,0,0,0,.305.39,10.266,10.266,0,0,1,3.34,1.931.379.379,0,0,0,.464.068c.423-.185.852-.356,1.282-.523a1.049,1.049,0,0,1,1.418.492q1.005,1.721,1.994,3.453a1.064,1.064,0,0,1-.3,1.5c-.362.288-.739.558-1.085.864a.51.51,0,0,0-.145.4,10.787,10.787,0,0,1-.005,3.9.472.472,0,0,0,.137.373c.359.309.745.586,1.115.882a1.056,1.056,0,0,1,.294,1.475q-1,1.747-2.01,3.483a1.036,1.036,0,0,1-1.394.48c-.442-.168-.875-.36-1.319-.523a.433.433,0,0,0-.341,0c-.526.375-1.036.771-1.569,1.174.046.088.1.2.163.31,1.545,2.8,3.1,5.6,4.632,8.411a3.121,3.121,0,0,1-2.019,4.616A.8.8,0,0,0-1053.115-296.665Zm-8.109-2.083q3.7,0,7.392,0a1.05,1.05,0,0,0,1.01-1.665q-3.718-6.757-7.442-13.51a1.076,1.076,0,0,0-.986-.648,1.07,1.07,0,0,0-.956.639q-3.727,6.773-7.458,13.544a1.388,1.388,0,0,0-.178.517,1.038,1.038,0,0,0,1.156,1.122Q-1064.954-298.744-1061.224-298.747Zm9.885-16.269c-.372-.292-.709-.573-1.063-.831a1.142,1.142,0,0,1-.458-1.339,8.161,8.161,0,0,0,.019-4.284,1.246,1.246,0,0,1,.522-1.508c.338-.234.65-.5.983-.766l-1.172-2.03c-.476.19-.933.377-1.394.553a.992.992,0,0,1-1.124-.215,9.02,9.02,0,0,0-4.064-2.347,1,1,0,0,1-.761-.891c-.071-.487-.146-.973-.22-1.46h-2.333c-.069.453-.155.893-.2,1.338a1.16,1.16,0,0,1-.961,1.077,8.476,8.476,0,0,0-3.791,2.2,1.108,1.108,0,0,1-1.33.254c-.42-.181-.848-.34-1.279-.512-.363.628-.7,1.232-1.06,1.825-.1.173-.058.26.087.367.307.227.6.476.9.7a1.11,1.11,0,0,1,.421,1.289,8.421,8.421,0,0,0,0,4.42,1.126,1.126,0,0,1-.446,1.312c-.36.266-.7.552-1.073.842l1.174,2.031c.433-.172.846-.321,1.246-.5a1.17,1.17,0,0,1,1.391.263c.5.459,1.044.871,1.6,1.328.2-.354.363-.643.525-.935s.329-.6.492-.9a6.648,6.648,0,0,1-1.417-10.087,6.591,6.591,0,0,1,9.516-.262,6.368,6.368,0,0,1,1.958,4.978,6.579,6.579,0,0,1-3.12,5.364l1.021,1.843c.555-.453,1.09-.842,1.564-1.293a1.221,1.221,0,0,1,1.48-.281c.387.173.786.318,1.2.482Zm-7.5-.559a4.473,4.473,0,0,0,1.929-5.045,4.522,4.522,0,0,0-4.463-3.272,4.528,4.528,0,0,0-4.266,3.57,4.433,4.433,0,0,0,2.015,4.739A3.174,3.174,0,0,1-1058.841-315.575Z" transform="translate(1073.545 332.229)" fill="#fff"/>
          <path id="Trazado_198283" data-name="Trazado 198283" d="M-909.536-22.423c0,.728,0,1.456,0,2.184a1.03,1.03,0,0,1-1.038,1.1,1.029,1.029,0,0,1-1.04-1.1q0-2.2,0-4.4a1.029,1.029,0,0,1,1.038-1.1,1.029,1.029,0,0,1,1.041,1.095C-909.533-23.9-909.536-23.162-909.536-22.423Z" transform="translate(922.884 47.063)" fill="#fff"/>
          <path id="Trazado_198284" data-name="Trazado 198284" d="M-909.517,90.09a1.031,1.031,0,0,1-1.047,1.051,1.032,1.032,0,0,1-1.033-1.03,1.03,1.03,0,0,1,1.046-1.05A1.031,1.031,0,0,1-909.517,90.09Z" transform="translate(922.865 -59.746)" fill="#fff"/>
        </g>
      </g>
    </g>
    <path id="Trazado_771438" data-name="Trazado 771438" d="M35.626,16H34.264l-1.113-2.944H28.7L27.65,16h-1.37L30.309,5.5h1.274Zm-2.878-4.05L31.1,7.475a4.285,4.285,0,0,1-.161-.7H30.91a3.923,3.923,0,0,1-.168.7L29.108,11.95Zm3.809,3.779V14.44a3.555,3.555,0,0,0,2.161.725q1.582,0,1.582-1.055a.915.915,0,0,0-.135-.509,1.35,1.35,0,0,0-.366-.37,2.819,2.819,0,0,0-.542-.289q-.311-.128-.67-.267a8.631,8.631,0,0,1-.875-.4,2.644,2.644,0,0,1-.63-.454,1.69,1.69,0,0,1-.381-.575,2.034,2.034,0,0,1-.128-.754,1.792,1.792,0,0,1,.242-.934,2.143,2.143,0,0,1,.645-.681,3.006,3.006,0,0,1,.919-.414,4.077,4.077,0,0,1,1.066-.139,4.3,4.3,0,0,1,1.743.337V9.877a3.4,3.4,0,0,0-1.9-.542,2.226,2.226,0,0,0-.608.077,1.488,1.488,0,0,0-.465.216,1,1,0,0,0-.3.333.878.878,0,0,0-.106.428,1.028,1.028,0,0,0,.106.491,1.08,1.08,0,0,0,.311.352,2.379,2.379,0,0,0,.5.278q.293.125.667.271a9.276,9.276,0,0,1,.894.392,3.065,3.065,0,0,1,.674.454,1.774,1.774,0,0,1,.428.582,1.878,1.878,0,0,1,.15.784,1.848,1.848,0,0,1-.245.967,2.1,2.1,0,0,1-.656.681,3,3,0,0,1-.945.4,4.665,4.665,0,0,1-1.121.132A4.255,4.255,0,0,1,36.557,15.729Zm8.049-.813h-.029V19.45h-1.2V8.5h1.2V9.818h.029A2.84,2.84,0,0,1,47.2,8.324a2.747,2.747,0,0,1,2.263,1.007,4.171,4.171,0,0,1,.813,2.7,4.649,4.649,0,0,1-.916,3.014,3.048,3.048,0,0,1-2.5,1.132A2.509,2.509,0,0,1,44.606,14.916Zm-.029-3.025v1.047a2.23,2.23,0,0,0,.6,1.578,2.156,2.156,0,0,0,3.245-.187,3.831,3.831,0,0,0,.619-2.322,3.024,3.024,0,0,0-.579-1.963,1.915,1.915,0,0,0-1.567-.71,2.128,2.128,0,0,0-1.685.729A2.676,2.676,0,0,0,44.577,11.891Zm13.645.659h-5.3a2.805,2.805,0,0,0,.674,1.934,2.323,2.323,0,0,0,1.772.681A3.685,3.685,0,0,0,57.7,14.33v1.128a4.353,4.353,0,0,1-2.615.718,3.17,3.17,0,0,1-2.5-1.022,4.182,4.182,0,0,1-.908-2.875,4.1,4.1,0,0,1,.992-2.853,3.182,3.182,0,0,1,2.465-1.1,2.82,2.82,0,0,1,2.278.952,3.97,3.97,0,0,1,.806,2.644Zm-1.23-1.018a2.444,2.444,0,0,0-.5-1.619,1.709,1.709,0,0,0-1.373-.579,1.94,1.94,0,0,0-1.443.608,2.759,2.759,0,0,0-.732,1.589Zm8.159,4.124a3.9,3.9,0,0,1-2.051.52,3.4,3.4,0,0,1-2.589-1.044,3.782,3.782,0,0,1-.985-2.706,4.158,4.158,0,0,1,1.062-2.977,3.715,3.715,0,0,1,2.834-1.124,3.945,3.945,0,0,1,1.743.366v1.23a3.054,3.054,0,0,0-1.787-.586,2.415,2.415,0,0,0-1.886.824,3.127,3.127,0,0,0-.736,2.164,2.977,2.977,0,0,0,.692,2.08,2.386,2.386,0,0,0,1.857.762,3.01,3.01,0,0,0,1.846-.652Zm5.3.271a2.316,2.316,0,0,1-1.121.234q-1.97,0-1.97-2.2V9.525H66.066V8.5h1.289V6.669l1.2-.388V8.5h1.89V9.525h-1.89v4.226a1.752,1.752,0,0,0,.256,1.077,1.023,1.023,0,0,0,.85.322,1.263,1.263,0,0,0,.784-.249Zm4.739.249a3.479,3.479,0,0,1-2.655-1.051,3.893,3.893,0,0,1-.992-2.787A4.056,4.056,0,0,1,72.57,9.386,3.713,3.713,0,0,1,75.36,8.324a3.364,3.364,0,0,1,2.618,1.033,4.1,4.1,0,0,1,.941,2.864A4.029,4.029,0,0,1,77.906,15.1,3.554,3.554,0,0,1,75.185,16.176Zm.088-6.841a2.285,2.285,0,0,0-1.831.787,3.234,3.234,0,0,0-.674,2.172,3.058,3.058,0,0,0,.681,2.1,2.315,2.315,0,0,0,1.824.769,2.2,2.2,0,0,0,1.791-.754,3.274,3.274,0,0,0,.626-2.146,3.33,3.33,0,0,0-.626-2.168A2.186,2.186,0,0,0,75.272,9.335Zm5.112,6.394V14.44a3.555,3.555,0,0,0,2.161.725q1.582,0,1.582-1.055a.915.915,0,0,0-.135-.509,1.35,1.35,0,0,0-.366-.37,2.819,2.819,0,0,0-.542-.289q-.311-.128-.67-.267a8.631,8.631,0,0,1-.875-.4,2.644,2.644,0,0,1-.63-.454,1.69,1.69,0,0,1-.381-.575,2.034,2.034,0,0,1-.128-.754,1.792,1.792,0,0,1,.242-.934,2.143,2.143,0,0,1,.645-.681,3.006,3.006,0,0,1,.919-.414,4.077,4.077,0,0,1,1.066-.139,4.3,4.3,0,0,1,1.743.337V9.877a3.4,3.4,0,0,0-1.9-.542,2.226,2.226,0,0,0-.608.077,1.488,1.488,0,0,0-.465.216,1,1,0,0,0-.3.333.878.878,0,0,0-.106.428,1.028,1.028,0,0,0,.106.491,1.08,1.08,0,0,0,.311.352,2.379,2.379,0,0,0,.5.278q.293.125.667.271a9.276,9.276,0,0,1,.894.392,3.065,3.065,0,0,1,.674.454,1.774,1.774,0,0,1,.428.582,1.878,1.878,0,0,1,.15.784,1.848,1.848,0,0,1-.245.967,2.1,2.1,0,0,1-.656.681,3,3,0,0,1-.945.4,4.665,4.665,0,0,1-1.121.132A4.255,4.255,0,0,1,80.385,15.729ZM92.514,16h-1.2V4.9h1.2Zm8.459-3.45h-5.3a2.805,2.805,0,0,0,.674,1.934,2.323,2.323,0,0,0,1.772.681,3.685,3.685,0,0,0,2.329-.835v1.128a4.353,4.353,0,0,1-2.615.718,3.17,3.17,0,0,1-2.5-1.022,4.182,4.182,0,0,1-.908-2.875,4.1,4.1,0,0,1,.992-2.853,3.182,3.182,0,0,1,2.465-1.1,2.82,2.82,0,0,1,2.278.952,3.97,3.97,0,0,1,.806,2.644Zm-1.23-1.018a2.444,2.444,0,0,0-.5-1.619,1.709,1.709,0,0,0-1.373-.579,1.94,1.94,0,0,0-1.443.608,2.759,2.759,0,0,0-.732,1.589Zm9.448,3.867q0,4.131-3.955,4.131A5.31,5.31,0,0,1,102.8,19V17.8a4.994,4.994,0,0,0,2.417.7q2.769,0,2.769-2.944v-.82h-.029a3.035,3.035,0,0,1-4.83.436,4,4,0,0,1-.853-2.684,4.669,4.669,0,0,1,.919-3.04,3.071,3.071,0,0,1,2.516-1.128A2.445,2.445,0,0,1,107.96,9.54h.029V8.5h1.2Zm-1.2-2.791V11.5a2.146,2.146,0,0,0-.6-1.531,1.989,1.989,0,0,0-1.505-.637,2.086,2.086,0,0,0-1.743.809,3.612,3.612,0,0,0-.63,2.267,3.1,3.1,0,0,0,.6,2,1.952,1.952,0,0,0,1.6.751,2.091,2.091,0,0,0,1.644-.718A2.675,2.675,0,0,0,107.99,12.609Zm9,3.391h-1.2V14.828h-.029a2.515,2.515,0,0,1-2.307,1.348,2.466,2.466,0,0,1-1.754-.593,2.055,2.055,0,0,1-.634-1.575q0-2.1,2.476-2.446l2.249-.315q0-1.912-1.545-1.912a3.692,3.692,0,0,0-2.446.923V9.027a4.648,4.648,0,0,1,2.549-.7q2.644,0,2.644,2.8Zm-1.2-3.794-1.809.249a2.937,2.937,0,0,0-1.26.414,1.193,1.193,0,0,0-.425,1.051,1.145,1.145,0,0,0,.392.9,1.514,1.514,0,0,0,1.044.348,1.928,1.928,0,0,0,1.476-.626,2.237,2.237,0,0,0,.582-1.586ZM120.456,16h-1.2V4.9h1.2Zm8.459-3.45h-5.3a2.805,2.805,0,0,0,.674,1.934,2.323,2.323,0,0,0,1.772.681,3.685,3.685,0,0,0,2.329-.835v1.128a4.353,4.353,0,0,1-2.615.718,3.17,3.17,0,0,1-2.5-1.022,4.182,4.182,0,0,1-.908-2.875,4.1,4.1,0,0,1,.992-2.853,3.182,3.182,0,0,1,2.465-1.1,2.82,2.82,0,0,1,2.278.952,3.97,3.97,0,0,1,.806,2.644Zm-1.23-1.018a2.444,2.444,0,0,0-.5-1.619,1.709,1.709,0,0,0-1.373-.579,1.94,1.94,0,0,0-1.443.608,2.759,2.759,0,0,0-.732,1.589Zm2.593,4.2V14.44a3.555,3.555,0,0,0,2.161.725q1.582,0,1.582-1.055a.915.915,0,0,0-.135-.509,1.35,1.35,0,0,0-.366-.37,2.819,2.819,0,0,0-.542-.289q-.311-.128-.67-.267a8.631,8.631,0,0,1-.875-.4,2.644,2.644,0,0,1-.63-.454,1.69,1.69,0,0,1-.381-.575,2.034,2.034,0,0,1-.128-.754,1.792,1.792,0,0,1,.242-.934,2.143,2.143,0,0,1,.645-.681,3.006,3.006,0,0,1,.919-.414,4.077,4.077,0,0,1,1.066-.139,4.3,4.3,0,0,1,1.743.337V9.877a3.4,3.4,0,0,0-1.9-.542,2.226,2.226,0,0,0-.608.077,1.488,1.488,0,0,0-.465.216,1,1,0,0,0-.3.333.878.878,0,0,0-.106.428,1.028,1.028,0,0,0,.106.491,1.08,1.08,0,0,0,.311.352,2.379,2.379,0,0,0,.5.278q.293.125.667.271a9.276,9.276,0,0,1,.894.392,3.065,3.065,0,0,1,.674.454,1.774,1.774,0,0,1,.428.582,1.878,1.878,0,0,1,.15.784,1.848,1.848,0,0,1-.245.967,2.1,2.1,0,0,1-.656.681,3,3,0,0,1-.945.4,4.665,4.665,0,0,1-1.121.132A4.255,4.255,0,0,1,130.277,15.729Z" transform="translate(928 627.039)" fill="#12263f"/>
    <g id="Grupo_155490" data-name="Grupo 155490" transform="translate(983.293 567.901)">
      <path id="Trazado_770863" data-name="Trazado 770863" d="M26.086,0A26.086,26.086,0,1,1,0,26.086,26.086,26.086,0,0,1,26.086,0Z" transform="translate(0 0)" fill="#ff6148"/>
      <g id="_0iDTkt.tif" data-name="0iDTkt.tif" transform="translate(12.315 10.836)">
        <g id="Grupo_155879" data-name="Grupo 155879">
          <path id="Trazado_198275" data-name="Trazado 198275" d="M-1152.87,290.934a1.01,1.01,0,0,1-.528-1.164h-.343c-1.445,0-2.89,0-4.334,0a2.927,2.927,0,0,1-2.947-2.484,2.652,2.652,0,0,1-.025-.456q0-10.134,0-20.268,0-.619.471-.6a.424.424,0,0,1,.436.387,2.044,2.044,0,0,1,.006.335q0,10.012,0,20.023a1.99,1.99,0,0,0,1.479,2.056,2.624,2.624,0,0,0,.662.082q2.274.01,4.548,0a.733.733,0,0,0,.373-.178,3.736,3.736,0,0,1,.638-.5c.242-.1.271-.238.276-.458a1.655,1.655,0,0,1,1.286-1.674,2.484,2.484,0,0,1,.575-.044q2.625,0,5.25,0a1.685,1.685,0,0,1,1.885,1.877c0,.05,0,.1,0,.172a1.831,1.831,0,0,1,1.031.8.172.172,0,0,0,.117.077,2.652,2.652,0,0,0,2.391-.684,2.1,2.1,0,0,0,.488-1.512,3.881,3.881,0,0,1-.44.045,1.364,1.364,0,0,1-.984-.415c-1.524-1.527-3.055-3.046-4.573-4.579a1.606,1.606,0,0,1,.78-2.593,4.1,4.1,0,0,1,.982-.052.481.481,0,0,0,.287-.075q1.942-1.921,3.865-3.861a.434.434,0,0,0,.07-.289c0-.16-.058-.32-.057-.48.007-1.6.021-3.21.033-4.814,0-.3,0-.608,0-.96h-5.748a2.153,2.153,0,0,1-2.327-2.314q0-2.656,0-5.311v-.349c-.11-.009-.2-.021-.286-.022q-5.189-.025-10.377-.047a2.027,2.027,0,0,0-2.223,2.212c0,.458,0,.916,0,1.374,0,.349-.181.561-.463.557s-.454-.21-.448-.54a16.338,16.338,0,0,1,.071-2.19,2.829,2.829,0,0,1,2.782-2.326q5.342-.01,10.683,0a2.354,2.354,0,0,1,1.7.769q1.9,1.9,3.815,3.782c.99.981,1.975,1.968,2.974,2.94a2.5,2.5,0,0,1,.807,1.931c-.023,1.139-.006,2.279-.006,3.419v.352a3.783,3.783,0,0,1,.376-.117,1.4,1.4,0,0,1,1.365.4q2.239,2.272,4.5,4.522a1.394,1.394,0,0,1,.316,1.623,1.742,1.742,0,0,1-2.047,1.072.329.329,0,0,0-.255.064c-.265.237-.515.491-.792.761l1.929,1.527c.622.492,1.237.993,1.87,1.472a2.979,2.979,0,0,1,1.165,1.551v.733a.446.446,0,0,0-.059.1,2.807,2.807,0,0,1-1.757,1.851,1.537,1.537,0,0,1-1.537-.165,5.087,5.087,0,0,1-.924-.871c-.573-.685-1.11-1.4-1.663-2.1-.449-.571-.9-1.141-1.383-1.754-.271.286-.522.537-.753.8-.049.057-.027.176-.034.267a2.848,2.848,0,0,1-.1,1.028,2.476,2.476,0,0,0-.219,1.2,2.9,2.9,0,0,1-3.019,3h-.679a.946.946,0,0,1-.574,1.1h-6.1c-.179-.169-.356-.339-.245-.623s.349-.3.6-.3q2.516,0,5.032,0h.322c.115-.749-.177-1.1-.884-1.1q-3.934,0-7.868,0a.788.788,0,0,0-.79,1.1c.614,0,1.233-.005,1.852,0,.312,0,.542.233.475.5a1.559,1.559,0,0,1-.267.417Zm10.439-11.164,3.856,3.859,4-4c-.4-.391-.838-.8-1.264-1.225a.825.825,0,0,1-.222-.318.421.421,0,0,1,.216-.518.447.447,0,0,1,.579.107l1.529,1.534a.7.7,0,0,0,1.228-.277.5.5,0,0,0-.109-.585q-2.252-2.257-4.5-4.52a.588.588,0,0,0-.907.067.608.608,0,0,0-.077.932c.355.364.717.722,1.075,1.082s.43.623.207.852-.493.17-.873-.211c-.256-.258-.514-.515-.761-.763Zm2.525-12.069.029-.072-6.452-6.385v.353q0,2.363,0,4.727a1.222,1.222,0,0,0,1.365,1.377q2.394,0,4.788,0Zm3.486,15.221c1.109,1.407,2.211,2.813,3.323,4.212a1.094,1.094,0,0,0,1.04.45,1.869,1.869,0,0,0,1.291-1.178,1.148,1.148,0,0,0-.528-1.287q-1.563-1.241-3.13-2.477l-.964-.76Zm-3.237,2.9a.917.917,0,0,0,.843-.569c.128-.29-.016-.477-.208-.667q-2.214-2.206-4.423-4.417a.6.6,0,0,0-.908.066c-.324.32-.365.632-.1.9q2.259,2.268,4.528,4.527A1.026,1.026,0,0,0-1139.658,285.823Zm-11.55,2.143h7.108c.075-.725-.221-1.063-.914-1.063h-5.28C-1151.005,286.9-1151.282,287.215-1151.208,287.966Z" transform="translate(1161.049 -259.678)" fill="#fff"/>
          <path id="Trazado_198276" data-name="Trazado 198276" d="M-1089.244,511.339q2.624,0,5.247,0c.374,0,.574.15.589.432a.419.419,0,0,1-.365.482,1.885,1.885,0,0,1-.364.023h-10.189c-.081,0-.163,0-.244,0a.48.48,0,0,1-.495-.474.477.477,0,0,1,.512-.458c.732-.009,1.464,0,2.2,0Z" transform="translate(1099.1 -495.944)" fill="#fff"/>
          <path id="Trazado_198277" data-name="Trazado 198277" d="M-1090.125,632.061h-4.148c-.081,0-.163,0-.244,0-.331-.015-.539-.189-.546-.455a.489.489,0,0,1,.551-.481q4.362,0,8.724,0c.356,0,.553.179.552.471s-.188.462-.557.464C-1087.237,632.064-1088.681,632.061-1090.125,632.061Z" transform="translate(1099.1 -608.402)" fill="#fff"/>
          <path id="Trazado_198278" data-name="Trazado 198278" d="M-1088.763,571.24c1.2,0,2.4,0,3.6,0a1.17,1.17,0,0,1,.387.053.367.367,0,0,1,.262.456.812.812,0,0,1-.322.387.764.764,0,0,1-.387.039q-3.55,0-7.1,0c-.5,0-.744-.163-.732-.483s.244-.456.731-.456Z" transform="translate(1097.218 -552.182)" fill="#fff"/>
          <path id="Trazado_198279" data-name="Trazado 198279" d="M-1089.023,392.534h-3.23a2,2,0,0,1-.334-.018.432.432,0,0,1-.39-.437.436.436,0,0,1,.366-.46,1.393,1.393,0,0,1,.332-.022q3.276,0,6.551,0a1.4,1.4,0,0,1,.361.033.417.417,0,0,1,.328.453.415.415,0,0,1-.361.427,1.785,1.785,0,0,1-.333.024Q-1087.378,392.535-1089.023,392.534Z" transform="translate(1097.141 -383.526)" fill="#fff"/>
          <path id="Trazado_198280" data-name="Trazado 198280" d="M-1091.194,452.418q-1.541,0-3.082,0a1.825,1.825,0,0,1-.334-.02.43.43,0,0,1-.382-.445.431.431,0,0,1,.348-.444,1.027,1.027,0,0,1,.271-.028q3.173,0,6.347,0c.11,0,.257-.011.321.052.127.123.291.3.283.443s-.193.3-.333.406c-.074.057-.216.034-.327.035Q-1089.638,452.42-1091.194,452.418Z" transform="translate(1099.032 -439.747)" fill="#fff"/>
          <path id="Trazado_198281" data-name="Trazado 198281" d="M-947.745,452.409c-.773,0-1.546,0-2.319,0-.111,0-.254.022-.326-.036-.138-.11-.311-.263-.327-.413-.015-.134.138-.319.263-.426a.652.652,0,0,1,.38-.06q2.3-.005,4.607,0c.051,0,.1,0,.153,0a.493.493,0,0,1,.524.48.476.476,0,0,1-.514.453c-.61.011-1.22,0-1.831,0Z" transform="translate(963.584 -439.738)" fill="#fff"/>
        </g>
      </g>
    </g>
    <path id="Trazado_771439" data-name="Trazado 771439" d="M24.813,6.61h-4.1v3.633h3.794v1.106H20.712V16h-1.23V5.5h5.332ZM31.5,16H30.3V14.828H30.27a2.515,2.515,0,0,1-2.307,1.348,2.466,2.466,0,0,1-1.754-.593,2.055,2.055,0,0,1-.634-1.575q0-2.1,2.476-2.446l2.249-.315q0-1.912-1.545-1.912a3.692,3.692,0,0,0-2.446.923V9.027a4.648,4.648,0,0,1,2.549-.7q2.644,0,2.644,2.8Zm-1.2-3.794-1.809.249a2.937,2.937,0,0,0-1.26.414,1.193,1.193,0,0,0-.425,1.051,1.145,1.145,0,0,0,.392.9,1.514,1.514,0,0,0,1.044.348,1.928,1.928,0,0,0,1.476-.626,2.237,2.237,0,0,0,.582-1.586Zm3.01,3.523V14.44a3.555,3.555,0,0,0,2.161.725q1.582,0,1.582-1.055a.915.915,0,0,0-.135-.509,1.35,1.35,0,0,0-.366-.37,2.819,2.819,0,0,0-.542-.289q-.311-.128-.67-.267a8.631,8.631,0,0,1-.875-.4,2.644,2.644,0,0,1-.63-.454,1.69,1.69,0,0,1-.381-.575,2.034,2.034,0,0,1-.128-.754,1.792,1.792,0,0,1,.242-.934,2.143,2.143,0,0,1,.645-.681,3.006,3.006,0,0,1,.919-.414A4.077,4.077,0,0,1,36.2,8.324a4.3,4.3,0,0,1,1.743.337V9.877a3.4,3.4,0,0,0-1.9-.542,2.226,2.226,0,0,0-.608.077,1.488,1.488,0,0,0-.465.216,1,1,0,0,0-.3.333.878.878,0,0,0-.106.428,1.028,1.028,0,0,0,.106.491,1.08,1.08,0,0,0,.311.352,2.379,2.379,0,0,0,.5.278q.293.125.667.271a9.276,9.276,0,0,1,.894.392,3.065,3.065,0,0,1,.674.454,1.774,1.774,0,0,1,.428.582,1.878,1.878,0,0,1,.15.784,1.848,1.848,0,0,1-.245.967,2.1,2.1,0,0,1-.656.681,3,3,0,0,1-.945.4,4.665,4.665,0,0,1-1.121.132A4.255,4.255,0,0,1,33.309,15.729ZM46.156,12.55h-5.3a2.805,2.805,0,0,0,.674,1.934,2.323,2.323,0,0,0,1.772.681,3.685,3.685,0,0,0,2.329-.835v1.128a4.353,4.353,0,0,1-2.615.718,3.17,3.17,0,0,1-2.5-1.022,4.182,4.182,0,0,1-.908-2.875,4.1,4.1,0,0,1,.992-2.853,3.182,3.182,0,0,1,2.465-1.1,2.82,2.82,0,0,1,2.278.952,3.97,3.97,0,0,1,.806,2.644Zm-1.23-1.018a2.444,2.444,0,0,0-.5-1.619,1.709,1.709,0,0,0-1.373-.579,1.94,1.94,0,0,0-1.443.608,2.759,2.759,0,0,0-.732,1.589Zm2.593,4.2V14.44a3.555,3.555,0,0,0,2.161.725q1.582,0,1.582-1.055a.915.915,0,0,0-.135-.509,1.35,1.35,0,0,0-.366-.37,2.819,2.819,0,0,0-.542-.289q-.311-.128-.67-.267a8.631,8.631,0,0,1-.875-.4,2.644,2.644,0,0,1-.63-.454,1.69,1.69,0,0,1-.381-.575,2.034,2.034,0,0,1-.128-.754,1.792,1.792,0,0,1,.242-.934,2.143,2.143,0,0,1,.645-.681,3.006,3.006,0,0,1,.919-.414A4.077,4.077,0,0,1,50.4,8.324a4.3,4.3,0,0,1,1.743.337V9.877a3.4,3.4,0,0,0-1.9-.542,2.226,2.226,0,0,0-.608.077,1.488,1.488,0,0,0-.465.216,1,1,0,0,0-.3.333.878.878,0,0,0-.106.428,1.028,1.028,0,0,0,.106.491,1.08,1.08,0,0,0,.311.352,2.379,2.379,0,0,0,.5.278q.293.125.667.271a9.276,9.276,0,0,1,.894.392,3.065,3.065,0,0,1,.674.454,1.774,1.774,0,0,1,.428.582,1.878,1.878,0,0,1,.15.784,1.848,1.848,0,0,1-.245.967,2.1,2.1,0,0,1-.656.681,3,3,0,0,1-.945.4,4.665,4.665,0,0,1-1.121.132A4.255,4.255,0,0,1,47.518,15.729ZM61.6,18.388H60.526a9.36,9.36,0,0,1-2.271-6.394,9.715,9.715,0,0,1,2.271-6.5H61.61a9.871,9.871,0,0,0-2.3,6.482A9.7,9.7,0,0,0,61.6,18.388ZM64.2,14.916h-.029V19.45h-1.2V8.5h1.2V9.818H64.2A2.84,2.84,0,0,1,66.8,8.324a2.747,2.747,0,0,1,2.263,1.007,4.171,4.171,0,0,1,.813,2.7,4.649,4.649,0,0,1-.916,3.014,3.048,3.048,0,0,1-2.5,1.132A2.509,2.509,0,0,1,64.2,14.916Zm-.029-3.025v1.047a2.23,2.23,0,0,0,.6,1.578,2.156,2.156,0,0,0,3.245-.187,3.831,3.831,0,0,0,.619-2.322,3.024,3.024,0,0,0-.579-1.963,1.915,1.915,0,0,0-1.567-.71,2.128,2.128,0,0,0-1.685.729A2.676,2.676,0,0,0,64.174,11.891ZM72.992,16h-1.2V4.9h1.2Zm7.8,0h-1.2V14.828h-.029a2.515,2.515,0,0,1-2.307,1.348,2.466,2.466,0,0,1-1.754-.593,2.055,2.055,0,0,1-.634-1.575q0-2.1,2.476-2.446l2.249-.315q0-1.912-1.545-1.912a3.692,3.692,0,0,0-2.446.923V9.027a4.648,4.648,0,0,1,2.549-.7q2.644,0,2.644,2.8Zm-1.2-3.794-1.809.249a2.937,2.937,0,0,0-1.26.414A1.193,1.193,0,0,0,76.1,13.92a1.145,1.145,0,0,0,.392.9,1.514,1.514,0,0,0,1.044.348,1.928,1.928,0,0,0,1.476-.626,2.237,2.237,0,0,0,.582-1.586ZM89.281,16h-1.2V11.723q0-2.388-1.743-2.388a1.891,1.891,0,0,0-1.49.677,2.511,2.511,0,0,0-.59,1.71V16h-1.2V8.5h1.2V9.745h.029a2.707,2.707,0,0,1,2.461-1.421,2.3,2.3,0,0,1,1.882.795,3.54,3.54,0,0,1,.652,2.3Zm8.291-3.45h-5.3a2.805,2.805,0,0,0,.674,1.934,2.323,2.323,0,0,0,1.772.681,3.685,3.685,0,0,0,2.329-.835v1.128a4.353,4.353,0,0,1-2.615.718,3.17,3.17,0,0,1-2.5-1.022,4.182,4.182,0,0,1-.908-2.875,4.1,4.1,0,0,1,.992-2.853,3.182,3.182,0,0,1,2.465-1.1,2.82,2.82,0,0,1,2.278.952,3.97,3.97,0,0,1,.806,2.644Zm-1.23-1.018a2.444,2.444,0,0,0-.5-1.619,1.709,1.709,0,0,0-1.373-.579,1.94,1.94,0,0,0-1.443.608,2.759,2.759,0,0,0-.732,1.589ZM104.757,16h-1.2V14.828h-.029a2.515,2.515,0,0,1-2.307,1.348,2.466,2.466,0,0,1-1.754-.593,2.055,2.055,0,0,1-.634-1.575q0-2.1,2.476-2.446l2.249-.315q0-1.912-1.545-1.912a3.692,3.692,0,0,0-2.446.923V9.027a4.648,4.648,0,0,1,2.549-.7q2.644,0,2.644,2.8Zm-1.2-3.794-1.809.249a2.937,2.937,0,0,0-1.26.414,1.193,1.193,0,0,0-.425,1.051,1.145,1.145,0,0,0,.392.9,1.514,1.514,0,0,0,1.044.348,1.928,1.928,0,0,0,1.476-.626,2.237,2.237,0,0,0,.582-1.586Zm8.577,3.45a3.9,3.9,0,0,1-2.051.52,3.4,3.4,0,0,1-2.589-1.044,3.782,3.782,0,0,1-.985-2.706,4.158,4.158,0,0,1,1.062-2.977A3.715,3.715,0,0,1,110.4,8.324a3.945,3.945,0,0,1,1.743.366v1.23a3.054,3.054,0,0,0-1.787-.586,2.415,2.415,0,0,0-1.886.824,3.127,3.127,0,0,0-.736,2.164,2.977,2.977,0,0,0,.692,2.08,2.386,2.386,0,0,0,1.857.762,3.01,3.01,0,0,0,1.846-.652Zm2.432-9.06a.761.761,0,0,1-.549-.22.742.742,0,0,1-.227-.557.769.769,0,0,1,.776-.784.776.776,0,0,1,.56.223.782.782,0,0,1,0,1.11A.769.769,0,0,1,114.564,6.6Zm.586,9.4h-1.2V8.5h1.2Zm5.566.176a3.479,3.479,0,0,1-2.655-1.051,3.893,3.893,0,0,1-.992-2.787A4.056,4.056,0,0,1,118.1,9.386a3.713,3.713,0,0,1,2.791-1.062,3.364,3.364,0,0,1,2.618,1.033,4.1,4.1,0,0,1,.941,2.864,4.029,4.029,0,0,1-1.014,2.875A3.554,3.554,0,0,1,120.717,16.176Zm.088-6.841a2.285,2.285,0,0,0-1.831.787,3.234,3.234,0,0,0-.674,2.172,3.058,3.058,0,0,0,.681,2.1,2.315,2.315,0,0,0,1.824.769,2.2,2.2,0,0,0,1.791-.754,3.274,3.274,0,0,0,.626-2.146A3.33,3.33,0,0,0,122.6,10.1,2.186,2.186,0,0,0,120.8,9.335Zm1.758-4.658-1.919,2.4h-.93l1.633-2.4ZM132.6,16h-1.2V11.723q0-2.388-1.743-2.388a1.891,1.891,0,0,0-1.49.677,2.511,2.511,0,0,0-.59,1.71V16h-1.2V8.5h1.2V9.745h.029a2.707,2.707,0,0,1,2.461-1.421,2.3,2.3,0,0,1,1.882.795,3.54,3.54,0,0,1,.652,2.3Zm3.362-1.67-1.172,3.6h-.857l.857-3.6ZM12.472,32.55h-5.3a2.805,2.805,0,0,0,.674,1.934,2.323,2.323,0,0,0,1.772.681,3.685,3.685,0,0,0,2.329-.835v1.128a4.353,4.353,0,0,1-2.615.718,3.17,3.17,0,0,1-2.5-1.022,4.182,4.182,0,0,1-.908-2.875,4.1,4.1,0,0,1,.992-2.853,3.182,3.182,0,0,1,2.465-1.1,2.82,2.82,0,0,1,2.278.952,3.97,3.97,0,0,1,.806,2.644Zm-1.23-1.018a2.444,2.444,0,0,0-.5-1.619,1.709,1.709,0,0,0-1.373-.579,1.94,1.94,0,0,0-1.443.608,2.759,2.759,0,0,0-.732,1.589Zm4.248,4.153a4.7,4.7,0,0,1-.743,2.845,2.492,2.492,0,0,1-2.128,1,2.258,2.258,0,0,1-1-.234V38.175a1.988,1.988,0,0,0,1.025.33q1.641,0,1.641-2.622V28.5h1.2ZM14.9,26.6a.761.761,0,0,1-.549-.22.742.742,0,0,1-.227-.557.769.769,0,0,1,.776-.784.776.776,0,0,1,.56.223.782.782,0,0,1,0,1.11A.769.769,0,0,1,14.9,26.6Zm9.045,5.955h-5.3a2.805,2.805,0,0,0,.674,1.934,2.323,2.323,0,0,0,1.772.681,3.685,3.685,0,0,0,2.329-.835v1.128a4.353,4.353,0,0,1-2.615.718,3.17,3.17,0,0,1-2.5-1.022,4.182,4.182,0,0,1-.908-2.875,4.1,4.1,0,0,1,.992-2.853,3.182,3.182,0,0,1,2.465-1.1,2.82,2.82,0,0,1,2.278.952,3.97,3.97,0,0,1,.806,2.644Zm-1.23-1.018a2.444,2.444,0,0,0-.5-1.619,1.709,1.709,0,0,0-1.373-.579,1.94,1.94,0,0,0-1.443.608,2.759,2.759,0,0,0-.732,1.589Zm8.159,4.124a3.9,3.9,0,0,1-2.051.52,3.4,3.4,0,0,1-2.589-1.044,3.782,3.782,0,0,1-.985-2.706,4.158,4.158,0,0,1,1.062-2.977,3.715,3.715,0,0,1,2.834-1.124,3.945,3.945,0,0,1,1.743.366v1.23a3.054,3.054,0,0,0-1.787-.586,2.415,2.415,0,0,0-1.886.824,3.127,3.127,0,0,0-.736,2.164,2.977,2.977,0,0,0,.692,2.08,2.386,2.386,0,0,0,1.857.762,3.01,3.01,0,0,0,1.846-.652ZM38.759,36h-1.2V34.813h-.029a2.467,2.467,0,0,1-2.314,1.362q-2.681,0-2.681-3.193V28.5h1.194v4.292q0,2.373,1.816,2.373a1.838,1.838,0,0,0,1.447-.648,2.48,2.48,0,0,0,.568-1.7V28.5h1.2Zm7.537-.344a3.9,3.9,0,0,1-2.051.52,3.4,3.4,0,0,1-2.589-1.044,3.782,3.782,0,0,1-.985-2.706,4.158,4.158,0,0,1,1.062-2.977,3.715,3.715,0,0,1,2.834-1.124,3.945,3.945,0,0,1,1.743.366v1.23a3.054,3.054,0,0,0-1.787-.586,2.415,2.415,0,0,0-1.886.824,3.127,3.127,0,0,0-.736,2.164,2.977,2.977,0,0,0,.692,2.08,2.386,2.386,0,0,0,1.857.762,3.01,3.01,0,0,0,1.846-.652Zm2.432-9.06a.761.761,0,0,1-.549-.22.742.742,0,0,1-.227-.557.769.769,0,0,1,.776-.784.776.776,0,0,1,.56.223.782.782,0,0,1,0,1.11A.769.769,0,0,1,48.727,26.6Zm.586,9.4h-1.2V28.5h1.2Zm5.566.176a3.479,3.479,0,0,1-2.655-1.051,3.893,3.893,0,0,1-.992-2.787,4.056,4.056,0,0,1,1.033-2.952,3.713,3.713,0,0,1,2.791-1.062,3.364,3.364,0,0,1,2.618,1.033,4.1,4.1,0,0,1,.941,2.864A4.029,4.029,0,0,1,57.6,35.1,3.554,3.554,0,0,1,54.879,36.176Zm.088-6.841a2.285,2.285,0,0,0-1.831.787,3.234,3.234,0,0,0-.674,2.172,3.058,3.058,0,0,0,.681,2.1,2.315,2.315,0,0,0,1.824.769,2.2,2.2,0,0,0,1.791-.754,3.274,3.274,0,0,0,.626-2.146,3.33,3.33,0,0,0-.626-2.168A2.186,2.186,0,0,0,54.967,29.335Zm1.758-4.658-1.919,2.4h-.93l1.633-2.4ZM66.759,36h-1.2V31.723q0-2.388-1.743-2.388a1.891,1.891,0,0,0-1.49.677,2.511,2.511,0,0,0-.59,1.71V36h-1.2V28.5h1.2v1.245h.029a2.707,2.707,0,0,1,2.461-1.421,2.3,2.3,0,0,1,1.882.795,3.54,3.54,0,0,1,.652,2.3Zm3.362-1.67-1.172,3.6h-.857l.857-3.6ZM82.279,28.5,79.291,36H78.112L75.27,28.5h1.318l1.9,5.449A4.891,4.891,0,0,1,78.756,35h.029a4.953,4.953,0,0,1,.234-1.018L81.012,28.5ZM89.6,32.55H84.3a2.805,2.805,0,0,0,.674,1.934,2.323,2.323,0,0,0,1.772.681,3.685,3.685,0,0,0,2.329-.835v1.128a4.353,4.353,0,0,1-2.615.718,3.17,3.17,0,0,1-2.5-1.022,4.182,4.182,0,0,1-.908-2.875,4.1,4.1,0,0,1,.992-2.853,3.182,3.182,0,0,1,2.465-1.1,2.82,2.82,0,0,1,2.278.952A3.97,3.97,0,0,1,89.6,31.92Zm-1.23-1.018a2.444,2.444,0,0,0-.5-1.619,1.709,1.709,0,0,0-1.373-.579,1.94,1.94,0,0,0-1.443.608,2.759,2.759,0,0,0-.732,1.589Zm6.958-1.816a1.469,1.469,0,0,0-.908-.242,1.533,1.533,0,0,0-1.285.725,3.352,3.352,0,0,0-.516,1.978V36h-1.2V28.5h1.2v1.545h.029a2.619,2.619,0,0,1,.784-1.234,1.787,1.787,0,0,1,1.179-.443,1.961,1.961,0,0,1,.718.1Zm1.919-3.12a.761.761,0,0,1-.549-.22.742.742,0,0,1-.227-.557.769.769,0,0,1,.776-.784.776.776,0,0,1,.56.223.782.782,0,0,1,0,1.11A.769.769,0,0,1,97.242,26.6Zm.586,9.4h-1.2V28.5h1.2Zm6.138-10.049a1.6,1.6,0,0,0-.8-.2q-1.26,0-1.26,1.589V28.5h1.758v1.025h-1.758V36h-1.194V29.525H99.432V28.5h1.282V27.284a2.526,2.526,0,0,1,.681-1.864,2.3,2.3,0,0,1,1.7-.685,2.354,2.354,0,0,1,.872.132Zm1.6.645a.761.761,0,0,1-.549-.22.742.742,0,0,1-.227-.557.769.769,0,0,1,.776-.784.776.776,0,0,1,.56.223.782.782,0,0,1,0,1.11A.769.769,0,0,1,105.57,26.6Zm.586,9.4h-1.2V28.5h1.2Zm7.544-.344a3.9,3.9,0,0,1-2.051.52,3.4,3.4,0,0,1-2.589-1.044,3.782,3.782,0,0,1-.985-2.706,4.158,4.158,0,0,1,1.062-2.977,3.715,3.715,0,0,1,2.834-1.124,3.945,3.945,0,0,1,1.743.366v1.23a3.054,3.054,0,0,0-1.787-.586,2.415,2.415,0,0,0-1.886.824,3.127,3.127,0,0,0-.736,2.164A2.977,2.977,0,0,0,110,34.4a2.386,2.386,0,0,0,1.857.762,3.01,3.01,0,0,0,1.846-.652Zm7.185.344h-1.2V34.828h-.029a2.515,2.515,0,0,1-2.307,1.348,2.466,2.466,0,0,1-1.754-.593,2.055,2.055,0,0,1-.634-1.575q0-2.1,2.476-2.446l2.249-.315q0-1.912-1.545-1.912a3.692,3.692,0,0,0-2.446.923v-1.23a4.648,4.648,0,0,1,2.549-.7q2.644,0,2.644,2.8Zm-1.2-3.794-1.809.249a2.937,2.937,0,0,0-1.26.414,1.193,1.193,0,0,0-.425,1.051,1.145,1.145,0,0,0,.392.9,1.514,1.514,0,0,0,1.044.348,1.928,1.928,0,0,0,1.476-.626,2.237,2.237,0,0,0,.582-1.586Zm8.577,3.45a3.9,3.9,0,0,1-2.051.52,3.4,3.4,0,0,1-2.589-1.044,3.782,3.782,0,0,1-.985-2.706,4.158,4.158,0,0,1,1.062-2.977,3.715,3.715,0,0,1,2.834-1.124,3.945,3.945,0,0,1,1.743.366v1.23a3.054,3.054,0,0,0-1.787-.586,2.415,2.415,0,0,0-1.886.824,3.127,3.127,0,0,0-.736,2.164,2.977,2.977,0,0,0,.692,2.08,2.386,2.386,0,0,0,1.857.762,3.01,3.01,0,0,0,1.846-.652Zm2.432-9.06a.761.761,0,0,1-.549-.22.742.742,0,0,1-.227-.557.769.769,0,0,1,.776-.784.776.776,0,0,1,.56.223.782.782,0,0,1,0,1.11A.769.769,0,0,1,130.692,26.6Zm.586,9.4h-1.2V28.5h1.2Zm5.566.176a3.479,3.479,0,0,1-2.655-1.051,3.893,3.893,0,0,1-.992-2.787,4.056,4.056,0,0,1,1.033-2.952,3.713,3.713,0,0,1,2.791-1.062,3.364,3.364,0,0,1,2.618,1.033,4.1,4.1,0,0,1,.941,2.864,4.029,4.029,0,0,1-1.014,2.875A3.554,3.554,0,0,1,136.844,36.176Zm.088-6.841a2.285,2.285,0,0,0-1.831.787,3.234,3.234,0,0,0-.674,2.172,3.058,3.058,0,0,0,.681,2.1,2.315,2.315,0,0,0,1.824.769,2.2,2.2,0,0,0,1.791-.754,3.274,3.274,0,0,0,.626-2.146,3.33,3.33,0,0,0-.626-2.168A2.186,2.186,0,0,0,136.932,29.335Zm1.758-4.658-1.919,2.4h-.93l1.633-2.4ZM148.724,36h-1.2V31.723q0-2.388-1.743-2.388a1.891,1.891,0,0,0-1.49.677,2.511,2.511,0,0,0-.59,1.71V36h-1.2V28.5h1.2v1.245h.029a2.707,2.707,0,0,1,2.461-1.421,2.3,2.3,0,0,1,1.882.795,3.54,3.54,0,0,1,.652,2.3Zm-95,12.5-3.45,8.7q-.923,2.329-2.593,2.329a2.748,2.748,0,0,1-.784-.1V58.358a2.226,2.226,0,0,0,.71.132,1.472,1.472,0,0,0,1.362-1.084l.6-1.421L46.639,48.5h1.333L50,54.271q.037.11.154.571H50.2q.037-.176.146-.557L52.477,48.5ZM69.769,56h-1.2V51.693a3.249,3.249,0,0,0-.385-1.8,1.458,1.458,0,0,0-1.293-.557,1.6,1.6,0,0,0-1.307.7,2.69,2.69,0,0,0-.538,1.685V56h-1.2V51.547q0-2.212-1.707-2.212a1.581,1.581,0,0,0-1.3.663,2.74,2.74,0,0,0-.513,1.725V56h-1.2V48.5h1.2v1.187h.029a2.548,2.548,0,0,1,2.329-1.362A2.166,2.166,0,0,1,64.8,49.877a2.676,2.676,0,0,1,2.49-1.553q2.476,0,2.476,3.054Zm8.3-3.45h-5.3a2.805,2.805,0,0,0,.674,1.934,2.323,2.323,0,0,0,1.772.681,3.685,3.685,0,0,0,2.329-.835v1.128a4.353,4.353,0,0,1-2.615.718,3.17,3.17,0,0,1-2.5-1.022,4.182,4.182,0,0,1-.908-2.875,4.1,4.1,0,0,1,.992-2.853,3.182,3.182,0,0,1,2.465-1.1,2.82,2.82,0,0,1,2.278.952,3.97,3.97,0,0,1,.806,2.644Zm-1.23-1.018a2.444,2.444,0,0,0-.5-1.619,1.709,1.709,0,0,0-1.373-.579,1.94,1.94,0,0,0-1.443.608,2.759,2.759,0,0,0-.732,1.589Zm4.248,4.153a4.7,4.7,0,0,1-.743,2.845,2.492,2.492,0,0,1-2.128,1,2.258,2.258,0,0,1-1-.234V58.175a1.988,1.988,0,0,0,1.025.33q1.641,0,1.641-2.622V48.5h1.2ZM80.5,46.6a.761.761,0,0,1-.549-.22.742.742,0,0,1-.227-.557.769.769,0,0,1,.776-.784.776.776,0,0,1,.56.223.782.782,0,0,1,0,1.11A.769.769,0,0,1,80.5,46.6Zm6.152,9.58A3.479,3.479,0,0,1,84,55.125,3.893,3.893,0,0,1,83,52.338a4.056,4.056,0,0,1,1.033-2.952,3.713,3.713,0,0,1,2.791-1.062,3.364,3.364,0,0,1,2.618,1.033,4.1,4.1,0,0,1,.941,2.864A4.029,4.029,0,0,1,89.373,55.1,3.554,3.554,0,0,1,86.652,56.176Zm.088-6.841a2.285,2.285,0,0,0-1.831.787,3.234,3.234,0,0,0-.674,2.172,3.058,3.058,0,0,0,.681,2.1,2.315,2.315,0,0,0,1.824.769,2.2,2.2,0,0,0,1.791-.754,3.274,3.274,0,0,0,.626-2.146A3.33,3.33,0,0,0,88.53,50.1,2.186,2.186,0,0,0,86.74,49.335Zm9.478.381a1.469,1.469,0,0,0-.908-.242,1.533,1.533,0,0,0-1.285.725,3.352,3.352,0,0,0-.516,1.978V56h-1.2V48.5h1.2v1.545h.029a2.619,2.619,0,0,1,.784-1.234,1.787,1.787,0,0,1,1.179-.443,1.961,1.961,0,0,1,.718.1ZM102.889,56h-1.2V54.828h-.029a2.515,2.515,0,0,1-2.307,1.348,2.466,2.466,0,0,1-1.754-.593,2.055,2.055,0,0,1-.634-1.575q0-2.1,2.476-2.446l2.249-.315q0-1.912-1.545-1.912a3.692,3.692,0,0,0-2.446.923v-1.23a4.648,4.648,0,0,1,2.549-.7q2.644,0,2.644,2.8Zm-1.2-3.794-1.809.249a2.937,2.937,0,0,0-1.26.414,1.193,1.193,0,0,0-.425,1.051,1.145,1.145,0,0,0,.392.9,1.514,1.514,0,0,0,1.044.348,1.928,1.928,0,0,0,1.476-.626,2.237,2.237,0,0,0,.582-1.586Zm3.494,6.182h-1.069a9.7,9.7,0,0,0,2.285-6.409,9.871,9.871,0,0,0-2.3-6.482h1.084a9.676,9.676,0,0,1,2.285,6.5A9.324,9.324,0,0,1,105.182,58.388Z" transform="translate(303 627.039)" fill="#12263f"/>
    <g id="Grupo_142438" data-name="Grupo 142438" transform="translate(354 567.901)">
      <path id="Trazado_770861" data-name="Trazado 770861" d="M25.659,0A25.875,25.875,0,0,1,51.318,26.086,25.875,25.875,0,0,1,25.659,52.173,25.875,25.875,0,0,1,0,26.086,25.875,25.875,0,0,1,25.659,0Z" transform="translate(0 0)" fill="#ff6148"/>
      <g id="lJ8LYt.tif" transform="translate(553.195 -58.661)">
        <g id="Grupo_155877" data-name="Grupo 155877" transform="translate(-542.345 69.699)">
          <path id="Trazado_198251" data-name="Trazado 198251" d="M-333.61,281.142c-.169-.15-.346-.292-.506-.452q-1.876-1.869-3.747-3.744c-.5-.5-.5-.79,0-1.285.088-.088.191-.161.268-.225l-1.409-1.41a7.166,7.166,0,0,1-6.367,1.393,6.991,6.991,0,0,1-4.222-2.982A7.228,7.228,0,0,1-348.373,263a7.223,7.223,0,0,1,9.634.065,7.237,7.237,0,0,1,.763,9.931l1.411,1.4c.091-.1.209-.255.349-.387a.66.66,0,0,1,1.019,0q2.034,2.019,4.059,4.049a3.883,3.883,0,0,1,.27.335v.436l-2.306,2.306Zm-9.963-18.609a5.89,5.89,0,0,0-5.9,5.916,5.867,5.867,0,0,0,5.992,5.85,5.856,5.856,0,0,0,5.772-5.938A5.873,5.873,0,0,0-343.573,262.533Zm11.028,16.109-3.176-3.181-.83.821,3.176,3.181Z" transform="translate(362.775 -249.235)" fill="#fff"/>
          <path id="Trazado_198252" data-name="Trazado 198252" d="M-531.715,88.307v1.328h-1.3V92.28h2.615v1.327h-5.275v-1.3h1.292V89.64h-.325q-2.789,0-5.577,0a1.976,1.976,0,0,1-2.058-2.057q0-7.914,0-15.829a1.975,1.975,0,0,1,2.059-2.054h22.465a2,2,0,0,1,2.075,2.113q0,5.468,0,10.937v.887H-517.1v-.368q0-5.671,0-11.342c0-.7-.191-.894-.883-.894H-540.1c-.708,0-.909.2-.909.909q0,7.727,0,15.455c0,.7.2.91.907.91q3.988,0,7.977,0Z" transform="translate(542.345 -69.699)" fill="#fff"/>
          <path id="Trazado_198253" data-name="Trazado 198253" d="M-452.941,118.568l-.96-.965c.388-.38.788-.769,1.184-1.161.428-.424.847-.856,1.28-1.274a.331.331,0,0,0,.1-.4,1.981,1.981,0,0,1,1.391-2.578,1.972,1.972,0,0,1,2.448,1.566,3.183,3.183,0,0,1-.083,1.038.326.326,0,0,0,.084.348c.565.55,1.114,1.118,1.681,1.665a.407.407,0,0,0,.336.081,2.252,2.252,0,0,1,1.346,0,.408.408,0,0,0,.341-.067c.576-.554,1.143-1.118,1.695-1.7a.45.45,0,0,0,.049-.373,2,2,0,0,1,1.344-2.536,1.972,1.972,0,0,1,2.487,1.419,1.887,1.887,0,0,1-.55,1.935,1.874,1.874,0,0,1-1.984.454.374.374,0,0,0-.455.111c-.527.545-1.065,1.078-1.606,1.609a.327.327,0,0,0-.1.4,1.978,1.978,0,0,1-.67,2.227,2.027,2.027,0,0,1-2.331.07,1.977,1.977,0,0,1-.785-2.245.407.407,0,0,0-.115-.487c-.546-.526-1.079-1.065-1.609-1.607a.3.3,0,0,0-.377-.091,1.714,1.714,0,0,1-1.277.006.34.34,0,0,0-.428.112C-451.316,116.944-452.132,117.756-452.941,118.568Zm3.474-3.794a.639.639,0,0,0,.665-.63.666.666,0,0,0-.653-.682.671.671,0,0,0-.652.656A.642.642,0,0,0-449.467,114.774Zm9.279,0a.664.664,0,0,0,.7-.632.689.689,0,0,0-.634-.679.667.667,0,0,0-.678.626A.64.64,0,0,0-440.188,114.773Zm-3.961,4a.64.64,0,0,0-.652-.644.663.663,0,0,0-.662.644.688.688,0,0,0,.677.669A.66.66,0,0,0-444.149,118.77Z" transform="translate(459.424 -109.472)" fill="#fff"/>
          <path id="Trazado_198254" data-name="Trazado 198254" d="M-499.8,293.439h1.32c0,.381,0,.759,0,1.138,0,.6.248.843.852.845q.528,0,1.057.006c.018,0,.036.015.069.029v1.3a5.757,5.757,0,0,1-2.115-.176,1.875,1.875,0,0,1-1.178-1.658C-499.827,294.441-499.8,293.953-499.8,293.439Z" transform="translate(502.466 -279.468)" fill="#fff"/>
          <path id="Trazado_198255" data-name="Trazado 198255" d="M-499.552,252.181v-1.3h1.29v1.3Z" transform="translate(502.224 -239.564)" fill="#fff"/>
          <path id="Trazado_198256" data-name="Trazado 198256" d="M-228.915,308.971c-.379,0-.76.012-1.14-.012-.064,0-.162-.156-.172-.248a3.25,3.25,0,0,0-2.264-2.882,7.618,7.618,0,0,0-1.036-.225v-1.252A4.55,4.55,0,0,1-228.915,308.971Z" transform="translate(252.81 -289.691)" fill="#fff"/>
        </g>
      </g>
    </g>
    <g id="Grupo_161551" data-name="Grupo 161551" transform="translate(5715.016 -746.961) rotate(90)">
      <path id="Trazado_770860" data-name="Trazado 770860" d="M19.023,0A19.023,19.023,0,1,1,0,19.023,19.023,19.023,0,0,1,19.023,0Z" transform="translate(1355 5251.047) rotate(-90)" fill="#ffb476"/>
      <path id="Unin_53" data-name="Unin 53" d="M11.893,4.1l8.99,9a1.7,1.7,0,1,0,2.4-2.407L13.1.495a1.7,1.7,0,0,0-2.343-.05L.5,10.682a1.7,1.7,0,0,0,2.4,2.407Z" transform="translate(1361.459 5224.427)" fill="#fff"/>
    </g>
    <g id="Grupo_1044008" data-name="Grupo 1044008" transform="translate(5925.164 -746.961) rotate(90)">
      <path id="Trazado_770860-2" data-name="Trazado 770860" d="M19.023,0A19.023,19.023,0,1,1,0,19.023,19.023,19.023,0,0,1,19.023,0Z" transform="translate(1355 5251.047) rotate(-90)" fill="#ffb476"/>
      <path id="Unin_53-2" data-name="Unin 53" d="M11.893,4.1l8.99,9a1.7,1.7,0,1,0,2.4-2.407L13.1.495a1.7,1.7,0,0,0-2.343-.05L.5,10.682a1.7,1.7,0,0,0,2.4,2.407Z" transform="translate(1361.459 5224.427)" fill="#fff"/>
    </g>
    <g id="Grupo_1044009" data-name="Grupo 1044009" transform="translate(6135.164 -746.961) rotate(90)">
      <path id="Trazado_770860-3" data-name="Trazado 770860" d="M19.023,0A19.023,19.023,0,1,1,0,19.023,19.023,19.023,0,0,1,19.023,0Z" transform="translate(1355 5251.047) rotate(-90)" fill="#ffb476"/>
      <path id="Unin_53-3" data-name="Unin 53" d="M11.893,4.1l8.99,9a1.7,1.7,0,1,0,2.4-2.407L13.1.495a1.7,1.7,0,0,0-2.343-.05L.5,10.682a1.7,1.7,0,0,0,2.4,2.407Z" transform="translate(1361.459 5224.427)" fill="#fff"/>
    </g>
    <g id="Grupo_1044010" data-name="Grupo 1044010" transform="translate(6351 -746.961) rotate(90)">
      <path id="Trazado_770860-4" data-name="Trazado 770860" d="M19.023,0A19.023,19.023,0,1,1,0,19.023,19.023,19.023,0,0,1,19.023,0Z" transform="translate(1355 5251.047) rotate(-90)" fill="#ffb476"/>
      <path id="Unin_53-4" data-name="Unin 53" d="M11.893,4.1l8.99,9a1.7,1.7,0,1,0,2.4-2.407L13.1.495a1.7,1.7,0,0,0-2.343-.05L.5,10.682a1.7,1.7,0,0,0,2.4,2.407Z" transform="translate(1361.459 5224.427)" fill="#fff"/>
    </g>
  </g>
</svg>
