<svg xmlns="http://www.w3.org/2000/svg" xmlns:xlink="http://www.w3.org/1999/xlink" width="267.304" height="241.821" viewBox="0 0 267.304 241.821">
  <defs>
    <clipPath id="clip-path">
      <path id="Trazado_165434" data-name="Trazado 165434" d="M0,2.6A2.6,2.6,0,1,1,2.6,5.2,2.6,2.6,0,0,1,0,2.6" fill="#ffb476"/>
    </clipPath>
    <clipPath id="clip-path-2">
      <path id="Trazado_165436" data-name="Trazado 165436" d="M0,2.6A2.6,2.6,0,1,1,2.6,5.2h0A2.6,2.6,0,0,1,0,2.6" fill="#ffb476"/>
    </clipPath>
    <clipPath id="clip-path-3">
      <path id="Trazado_165438" data-name="Trazado 165438" d="M2.6,5.2A2.6,2.6,0,1,1,5.2,2.6,2.6,2.6,0,0,1,2.6,5.2Z" fill="#ffb476"/>
    </clipPath>
  </defs>
  <g id="Grupo_1044813" data-name="Grupo 1044813" transform="translate(-351.848 -10982.504)">
    <g id="Grupo_1043991" data-name="Grupo 1043991" transform="translate(53 188.504)">
      <g id="Grupo_1043841" data-name="Grupo 1043841" transform="translate(298.848 10783)">
        <g id="Grupo_1043814" data-name="Grupo 1043814" transform="translate(0 11)">
          <rect id="Rectángulo_37180" data-name="Rectángulo 37180" width="203.562" height="188.794" rx="15" transform="translate(23.742 32.529)" fill="#fee6d1"/>
          <rect id="Rectángulo_37181" data-name="Rectángulo 37181" width="43.724" height="92.281" rx="21.862" transform="translate(267.304 210.903) rotate(135)" fill="#083142"/>
          <rect id="Rectángulo_37182" data-name="Rectángulo 37182" width="29.724" height="62.281" rx="14.862" transform="translate(80.013 44.039) rotate(135)" fill="#ff6148"/>
          <g id="Grupo_110632" data-name="Grupo 110632" transform="translate(0 241.82) rotate(-90)">
            <g id="Group_881454" data-name="Group 881454">
              <g id="Grupo_108438" data-name="Grupo 108438">
                <path id="Trazado_165433" data-name="Trazado 165433" d="M0,2.6A2.6,2.6,0,1,1,2.6,5.2,2.6,2.6,0,0,1,0,2.6" fill="#ffb476"/>
                <g id="Grupo_108437" data-name="Grupo 108437" clip-path="url(#clip-path)">
                  <g id="Group_881453" data-name="Group 881453" transform="translate(0 0.001)">
                    <rect id="Rectangle_298909" data-name="Rectangle 298909" width="5.203" height="5.203" fill="#ffb476"/>
                  </g>
                </g>
              </g>
            </g>
            <g id="Group_881456" data-name="Group 881456" transform="translate(0 20.275)">
              <g id="Grupo_108440" data-name="Grupo 108440">
                <path id="Trazado_165435" data-name="Trazado 165435" d="M0,2.6A2.6,2.6,0,1,1,2.6,5.2h0A2.6,2.6,0,0,1,0,2.6" fill="#ffb476"/>
                <g id="Grupo_108439" data-name="Grupo 108439" clip-path="url(#clip-path-2)">
                  <g id="Group_881455" data-name="Group 881455" transform="translate(0 0.001)">
                    <rect id="Rectangle_298910" data-name="Rectangle 298910" width="5.203" height="5.203" fill="#ffb476"/>
                  </g>
                </g>
              </g>
            </g>
            <g id="Group_881458" data-name="Group 881458" transform="translate(0.001 42.283)">
              <g id="Grupo_108442" data-name="Grupo 108442">
                <path id="Trazado_165437" data-name="Trazado 165437" d="M2.6,5.2A2.6,2.6,0,1,1,5.2,2.6,2.6,2.6,0,0,1,2.6,5.2Z" fill="#ffb476"/>
                <g id="Grupo_108441" data-name="Grupo 108441" clip-path="url(#clip-path-3)">
                  <g id="Group_881457" data-name="Group 881457" transform="translate(-0.001 -0.001)">
                    <rect id="Rectangle_298911" data-name="Rectangle 298911" width="5.203" height="5.202" fill="#ffb476"/>
                  </g>
                </g>
              </g>
            </g>
            <g id="Group_881460" data-name="Group 881460" transform="translate(17.633 0.001)">
              <g id="Grupo_108444" data-name="Grupo 108444">
                <path id="Trazado_165439" data-name="Trazado 165439" d="M0,2.6A2.6,2.6,0,1,1,2.6,5.2,2.6,2.6,0,0,1,0,2.6" fill="#ffb476"/>
                <g id="Grupo_108443" data-name="Grupo 108443" clip-path="url(#clip-path)">
                  <g id="Group_881459" data-name="Group 881459" transform="translate(0 -0.001)">
                    <rect id="Rectangle_298912" data-name="Rectangle 298912" width="5.203" height="5.203" fill="#ffb476"/>
                  </g>
                </g>
              </g>
            </g>
            <g id="Group_881462" data-name="Group 881462" transform="translate(17.633 20.277)">
              <g id="Grupo_108446" data-name="Grupo 108446">
                <path id="Trazado_165441" data-name="Trazado 165441" d="M0,2.6A2.6,2.6,0,1,1,2.6,5.2,2.6,2.6,0,0,1,0,2.6" fill="#ffb476"/>
                <g id="Grupo_108445" data-name="Grupo 108445" clip-path="url(#clip-path)">
                  <g id="Group_881461" data-name="Group 881461" transform="translate(0 -0.001)">
                    <rect id="Rectangle_298913" data-name="Rectangle 298913" width="5.203" height="5.203" fill="#ffb476"/>
                  </g>
                </g>
              </g>
            </g>
            <g id="Group_881464" data-name="Group 881464" transform="translate(17.634 42.283)">
              <g id="Grupo_108448" data-name="Grupo 108448">
                <path id="Trazado_165443" data-name="Trazado 165443" d="M2.6,5.2A2.6,2.6,0,1,1,5.2,2.6,2.6,2.6,0,0,1,2.6,5.2Z" fill="#ffb476"/>
                <g id="Grupo_108447" data-name="Grupo 108447" clip-path="url(#clip-path-3)">
                  <g id="Group_881463" data-name="Group 881463" transform="translate(-0.001 -0.001)">
                    <rect id="Rectangle_298914" data-name="Rectangle 298914" width="5.203" height="5.202" fill="#ffb476"/>
                  </g>
                </g>
              </g>
            </g>
            <g id="Group_881454-2" data-name="Group 881454" transform="translate(36.028)">
              <g id="Grupo_108450" data-name="Grupo 108450">
                <path id="Trazado_165445" data-name="Trazado 165445" d="M0,2.6A2.6,2.6,0,1,1,2.6,5.2,2.6,2.6,0,0,1,0,2.6" fill="#ffb476"/>
                <g id="Grupo_108449" data-name="Grupo 108449" clip-path="url(#clip-path)">
                  <g id="Group_881453-2" data-name="Group 881453" transform="translate(0 0.001)">
                    <rect id="Rectangle_298909-2" data-name="Rectangle 298909" width="5.203" height="5.203" fill="#ffb476"/>
                  </g>
                </g>
              </g>
            </g>
            <g id="Group_881456-2" data-name="Group 881456" transform="translate(36.028 20.275)">
              <g id="Grupo_108452" data-name="Grupo 108452">
                <path id="Trazado_165447" data-name="Trazado 165447" d="M0,2.6A2.6,2.6,0,1,1,2.6,5.2h0A2.6,2.6,0,0,1,0,2.6" fill="#ffb476"/>
                <g id="Grupo_108451" data-name="Grupo 108451" clip-path="url(#clip-path-2)">
                  <g id="Group_881455-2" data-name="Group 881455" transform="translate(0 0.001)">
                    <rect id="Rectangle_298910-2" data-name="Rectangle 298910" width="5.203" height="5.203" fill="#ffb476"/>
                  </g>
                </g>
              </g>
            </g>
            <g id="Group_881458-2" data-name="Group 881458" transform="translate(36.029 42.283)">
              <g id="Grupo_108454" data-name="Grupo 108454">
                <path id="Trazado_165449" data-name="Trazado 165449" d="M2.6,5.2A2.6,2.6,0,1,1,5.2,2.6,2.6,2.6,0,0,1,2.6,5.2Z" fill="#ffb476"/>
                <g id="Grupo_108453" data-name="Grupo 108453" clip-path="url(#clip-path-3)">
                  <g id="Group_881457-2" data-name="Group 881457" transform="translate(-0.001 -0.001)">
                    <rect id="Rectangle_298911-2" data-name="Rectangle 298911" width="5.203" height="5.202" fill="#ffb476"/>
                  </g>
                </g>
              </g>
            </g>
            <g id="Group_881460-2" data-name="Group 881460" transform="translate(53.662 0.001)">
              <g id="Grupo_108456" data-name="Grupo 108456">
                <path id="Trazado_165451" data-name="Trazado 165451" d="M0,2.6A2.6,2.6,0,1,1,2.6,5.2,2.6,2.6,0,0,1,0,2.6" fill="#ffb476"/>
                <g id="Grupo_108455" data-name="Grupo 108455" clip-path="url(#clip-path)">
                  <g id="Group_881459-2" data-name="Group 881459" transform="translate(0 -0.001)">
                    <rect id="Rectangle_298912-2" data-name="Rectangle 298912" width="5.203" height="5.203" fill="#ffb476"/>
                  </g>
                </g>
              </g>
            </g>
            <g id="Group_881462-2" data-name="Group 881462" transform="translate(53.662 20.277)">
              <g id="Grupo_108458" data-name="Grupo 108458">
                <path id="Trazado_165453" data-name="Trazado 165453" d="M0,2.6A2.6,2.6,0,1,1,2.6,5.2,2.6,2.6,0,0,1,0,2.6" fill="#ffb476"/>
                <g id="Grupo_108457" data-name="Grupo 108457" clip-path="url(#clip-path)">
                  <g id="Group_881461-2" data-name="Group 881461" transform="translate(0 -0.001)">
                    <rect id="Rectangle_298913-2" data-name="Rectangle 298913" width="5.203" height="5.203" fill="#ffb476"/>
                  </g>
                </g>
              </g>
            </g>
            <g id="Group_881464-2" data-name="Group 881464" transform="translate(53.662 42.283)">
              <g id="Grupo_108460" data-name="Grupo 108460">
                <path id="Trazado_165455" data-name="Trazado 165455" d="M2.6,5.2A2.6,2.6,0,1,1,5.2,2.6,2.6,2.6,0,0,1,2.6,5.2Z" fill="#ffb476"/>
                <g id="Grupo_108459" data-name="Grupo 108459" clip-path="url(#clip-path-3)">
                  <g id="Group_881463-2" data-name="Group 881463" transform="translate(-0.001 -0.001)">
                    <rect id="Rectangle_298914-2" data-name="Rectangle 298914" width="5.203" height="5.202" fill="#ffb476"/>
                  </g>
                </g>
              </g>
            </g>
          </g>
        </g>
      </g>
      <g id="Filled_outline" data-name="Filled outline" transform="translate(347.221 10839.819)">
        <path id="Trazado_771277" data-name="Trazado 771277" d="M95.957,72h79.575a7.957,7.957,0,0,1,7.957,7.957v61.67a5.968,5.968,0,0,1-5.968,5.968H93.968A5.968,5.968,0,0,1,88,141.628V79.957A7.957,7.957,0,0,1,95.957,72Z" transform="translate(-54.096 -42.074)" fill="#4db7e5"/>
        <path id="Trazado_771278" data-name="Trazado 771278" d="M433.989,72H432v75.6h3.979V72.251A7.973,7.973,0,0,0,433.989,72Z" transform="translate(-312.553 -42.074)" fill="#48add9"/>
        <path id="Trazado_771279" data-name="Trazado 771279" d="M195.638,24H135.957A7.957,7.957,0,0,0,128,31.957v83.553h75.6V31.957A7.957,7.957,0,0,0,195.638,24Z" transform="translate(-84.149 -6.011)" fill="#348fd9"/>
        <path id="Trazado_771280" data-name="Trazado 771280" d="M212.612,100,140,172.612h72.612Z" transform="translate(-93.165 -63.112)" fill="#3086cd"/>
        <path id="Trazado_771281" data-name="Trazado 771281" d="M227.723,145.862q0,1-.075,1.989a25.828,25.828,0,0,1-22.186,23.621c-.532.077-1.069.134-1.611.177q-.985.075-1.989.075t-1.989-.075c-.542-.042-1.079-.1-1.611-.177a25.533,25.533,0,0,1-6.023-1.6,25.86,25.86,0,0,1-16.164-22.022q-.075-.985-.075-1.989t.075-1.989a25.831,25.831,0,0,1,21.905-23.581q.936-.142,1.892-.216.985-.075,1.989-.075t1.989.075c.542.042,1.079.1,1.611.177a25.52,25.52,0,0,1,6.018,1.6,25.949,25.949,0,0,1,13.329,12.078,25.654,25.654,0,0,1,2.84,9.947Q227.723,144.857,227.723,145.862Z" transform="translate(-120.213 -78.138)" fill="#4db7e5"/>
        <path id="Trazado_771282" data-name="Trazado 771282" d="M227.649,147.851q.075-.985.075-1.989t-.075-1.989h-9.91a50.6,50.6,0,0,0-1.363-9.947h8.432a25.71,25.71,0,0,0-2.561-3.979h-7.022a40.911,40.911,0,0,0-3.745-8.1,25.52,25.52,0,0,0-6.018-1.6l1.388,1.79a34.848,34.848,0,0,1,4.15,7.905h-7.149v-9.872q-.985-.075-1.989-.075t-1.989.075v9.872h-7.149a34.719,34.719,0,0,1,4.173-7.935c.025-.032.045-.067.067-.1l1.017-1.621a25.611,25.611,0,0,0-5.737,1.557,40.783,40.783,0,0,0-3.745,8.1h-7.022a25.707,25.707,0,0,0-2.561,3.979h8.432a50.547,50.547,0,0,0-1.363,9.947h-9.91q-.075.985-.075,1.989t.075,1.989h9.912a49.851,49.851,0,0,0,1.9,11.936h-7.823a25.962,25.962,0,0,0,3.138,3.979h6.033a38.7,38.7,0,0,0,3,6.107,25.532,25.532,0,0,0,6.023,1.6l-1.388-1.793a32.944,32.944,0,0,1-3.335-5.913h6.334v7.883q.985.075,1.989.075t1.989-.075v-7.883h6.334a32.813,32.813,0,0,1-3.335,5.913l-1.388,1.793a25.533,25.533,0,0,0,6.023-1.6,38.488,38.488,0,0,0,3-6.107h6.033a25.963,25.963,0,0,0,3.138-3.979h-7.823a49.93,49.93,0,0,0,1.9-11.936Zm-27.776,11.936h-7.826a45.48,45.48,0,0,1-2.079-11.936h9.9Zm0-15.915h-9.907a46.232,46.232,0,0,1,1.485-9.947h8.422Zm11.8,15.915h-7.826V147.851h9.9a45.573,45.573,0,0,1-2.079,11.936Zm-7.826-15.915v-9.947h8.422a46.3,46.3,0,0,1,1.485,9.947Z" transform="translate(-120.213 -78.138)" fill="#60d1e0"/>
        <path id="Trazado_771283" data-name="Trazado 771283" d="M136.825,361.989a6.792,6.792,0,0,1-4.8,1.989H115.766a6.793,6.793,0,0,1-4.8-1.989,6.792,6.792,0,0,0-4.8-1.99H72v5.968a5.968,5.968,0,0,0,5.968,5.968h91.511a5.968,5.968,0,0,0,5.968-5.968V360H141.628a6.793,6.793,0,0,0-4.8,1.989Z" transform="translate(-42.074 -258.457)" fill="#e0e0de"/>
        <path id="Trazado_771284" data-name="Trazado 771284" d="M437.968,360v5.968A5.968,5.968,0,0,1,432,371.936h7.957a5.968,5.968,0,0,0,5.968-5.968V360Z" transform="translate(-312.553 -258.457)" fill="#d6d6d4"/>
        <path id="Trazado_771285" data-name="Trazado 771285" d="M79.7,356.476v24.867a4.421,4.421,0,0,1-.612,2.255,4.468,4.468,0,0,1-3.864,2.221H28.476a4.468,4.468,0,0,1-3.864-2.221A4.421,4.421,0,0,1,24,381.343V356.476a4.421,4.421,0,0,1,.612-2.255A4.468,4.468,0,0,1,28.476,352h46.75a4.468,4.468,0,0,1,3.864,2.221A4.421,4.421,0,0,1,79.7,356.476Z" transform="translate(-6.011 -252.447)" fill="#ffb531"/>
        <path id="Trazado_771286" data-name="Trazado 771286" d="M80.939,354.221c-6.16,3.429-16.067,5.655-27.239,5.655s-21.08-2.226-27.239-5.655A4.468,4.468,0,0,1,30.324,352h46.75A4.468,4.468,0,0,1,80.939,354.221Z" transform="translate(-7.859 -252.447)" fill="#ffcb73"/>
        <path id="Trazado_771287" data-name="Trazado 771287" d="M80.939,461.985a4.468,4.468,0,0,1-3.864,2.221H30.324a4.468,4.468,0,0,1-3.864-2.221c6.16-3.429,16.067-5.655,27.239-5.655S74.779,458.556,80.939,461.985Z" transform="translate(-7.859 -330.833)" fill="#ffa912"/>
        <path id="Trazado_771288" data-name="Trazado 771288" d="M69.883,216A21.883,21.883,0,0,0,48,237.883v11.936h7.957V237.883a13.926,13.926,0,0,1,27.851,0v11.936h7.957V237.883A21.883,21.883,0,0,0,69.883,216Z" transform="translate(-24.043 -150.266)" fill="#e0e0de"/>
        <path id="Trazado_771289" data-name="Trazado 771289" d="M123.934,397.89a5.968,5.968,0,1,0-7.957,5.6v4.346h3.979v-4.345A5.958,5.958,0,0,0,123.934,397.89Z" transform="translate(-72.125 -282.422)" fill="#95573a"/>
        <path id="Trazado_771290" data-name="Trazado 771290" d="M181.458,99.553h-1.989V37.883a9.958,9.958,0,0,0-9.947-9.947V25.947A9.958,9.958,0,0,0,159.575,16H99.894a9.958,9.958,0,0,0-9.947,9.947v1.989A9.958,9.958,0,0,0,80,37.883V61.755h3.979V37.883a5.975,5.975,0,0,1,5.968-5.968V59.766h3.979V25.947a5.975,5.975,0,0,1,5.968-5.968h59.681a5.975,5.975,0,0,1,5.968,5.968V93.585h3.979V31.915a5.975,5.975,0,0,1,5.968,5.968v61.67H147.638a8.713,8.713,0,0,0-6.2,2.572,4.784,4.784,0,0,1-3.408,1.407H127.745v3.979H138.03a8.738,8.738,0,0,0,6.221-2.572,4.761,4.761,0,0,1,3.388-1.407h31.83v3.979a3.983,3.983,0,0,1-3.979,3.979H127.745v3.979h47.745a7.966,7.966,0,0,0,7.957-7.957v-5.968A1.989,1.989,0,0,0,181.458,99.553Z" transform="translate(-48.085 0)"/>
        <path id="Trazado_771291" data-name="Trazado 771291" d="M120,272h3.979v13.926H120Z" transform="translate(-78.138 -192.34)"/>
        <path id="Trazado_771292" data-name="Trazado 771292" d="M159.995,48h3.979v3.979h-3.979Z" transform="translate(-108.188 -24.043)"/>
        <path id="Trazado_771293" data-name="Trazado 771293" d="M191.995,48h3.979v3.979h-3.979Z" transform="translate(-132.23 -24.043)"/>
        <path id="Trazado_771294" data-name="Trazado 771294" d="M223.995,48h3.979v3.979h-3.979Z" transform="translate(-156.273 -24.043)"/>
        <path id="Trazado_771295" data-name="Trazado 771295" d="M160,80h59.681v3.979H160Z" transform="translate(-108.191 -48.085)"/>
        <path id="Trazado_771296" data-name="Trazado 771296" d="M192.017,162.933c-.421-.108-.845-.231-1.261-.365l-1.216,3.788c.49.157.989.3,1.473.426a27.848,27.848,0,1,0-16.364-41.932A27.5,27.5,0,0,0,171,133.427l3.872.916a23.512,23.512,0,0,1,2.566-6.426h6.153a50.825,50.825,0,0,0-1.4,11.936c0,1.378.055,2.769.165,4.137l3.966-.317c-.048-.606-.085-1.218-.11-1.831h9.9v11.936h-5.968v3.979h5.968v5.879A23.825,23.825,0,0,1,192.017,162.933Zm21.859-5.176a23.966,23.966,0,0,1-4.528,3.145c.5-1.018.965-2.064,1.384-3.145Zm3.609-3.979h-5.407a50.032,50.032,0,0,0,1.9-11.936H221.9a23.452,23.452,0,0,1-4.412,11.936ZM192.736,116.6a23.768,23.768,0,0,1,3.379-.526v7.868h-7.144A35.179,35.179,0,0,1,192.736,116.6Zm7.358-.525a23.808,23.808,0,0,1,3.379.526,35.174,35.174,0,0,1,3.764,7.342h-7.144Zm8.42,11.847A46.27,46.27,0,0,1,210,137.864h-9.9v-9.947Zm13.378,9.947h-7.91a50.478,50.478,0,0,0-1.362-9.947h6.152a23.646,23.646,0,0,1,3.12,9.947Zm-6-13.926h-4.423a42.74,42.74,0,0,0-2.136-5.163,23.651,23.651,0,0,1,6.558,5.163Zm-29.009-5.163a42.746,42.746,0,0,0-2.136,5.163h-4.423a23.649,23.649,0,0,1,6.559-5.163Zm-.669,19.088a46.252,46.252,0,0,1,1.484-9.947h8.42v9.947Zm13.884,3.979H210a45.568,45.568,0,0,1-2.082,11.936h-7.823Zm6.329,15.915a33.177,33.177,0,0,1-2.945,5.352,23.727,23.727,0,0,1-3.384.527v-5.879Z" transform="translate(-116.456 -72.13)"/>
        <path id="Trazado_771297" data-name="Trazado 771297" d="M69.713,241.859v-9.986a23.872,23.872,0,1,0-47.745,0v9.986A6.7,6.7,0,0,0,16,248.508v24.419a6.7,6.7,0,0,0,6.689,6.689h46.3a6.7,6.7,0,0,0,6.689-6.689V248.508a6.7,6.7,0,0,0-5.968-6.65ZM45.84,211.979a19.916,19.916,0,0,1,19.894,19.894v9.947H61.755v-9.947a15.915,15.915,0,1,0-31.83,0v9.947H25.947v-9.947A19.916,19.916,0,0,1,45.84,211.979Zm11.936,29.84H33.9v-9.947a11.936,11.936,0,1,1,23.872,0ZM71.7,272.928a2.714,2.714,0,0,1-2.71,2.711h-46.3a2.714,2.714,0,0,1-2.711-2.711V248.508a2.714,2.714,0,0,1,2.711-2.71h46.3a2.714,2.714,0,0,1,2.711,2.71Z" transform="translate(0 -144.255)"/>
        <path id="Trazado_771298" data-name="Trazado 771298" d="M117.974,392a5.968,5.968,0,0,0-1.989,11.594v4.321h3.979v-4.321A5.968,5.968,0,0,0,117.974,392Zm0,7.957a1.989,1.989,0,1,1,1.989-1.989A1.989,1.989,0,0,1,117.974,399.957Z" transform="translate(-72.133 -282.5)"/>
      </g>
    </g>
  </g>
</svg>
