<svg xmlns="http://www.w3.org/2000/svg" xmlns:xlink="http://www.w3.org/1999/xlink" width="753" height="439" viewBox="0 0 753 439">
  <defs>
    <filter id="Trazado_82782" x="0" y="0" width="753" height="439" filterUnits="userSpaceOnUse">
      <feOffset dy="3" input="SourceAlpha"/>
      <feGaussianBlur stdDeviation="3" result="blur"/>
      <feFlood flood-opacity="0.161"/>
      <feComposite operator="in" in2="blur"/>
      <feComposite in="SourceGraphic"/>
    </filter>
  </defs>
  <g id="Grupo_1044813" data-name="Grupo 1044813" transform="translate(-429 -9885.259)">
    <g id="Grupo_33757" data-name="Grupo 33757" transform="translate(112 -4030.741)">
      <g transform="matrix(1, 0, 0, 1, 317, 13916)" filter="url(#Trazado_82782)">
        <path id="Trazado_82782-2" data-name="Trazado 82782" d="M18,0H717a18,18,0,0,1,18,18V403a18,18,0,0,1-18,18H18A18,18,0,0,1,0,403V18A18,18,0,0,1,18,0Z" transform="translate(9 6)" fill="#f3f9ff" opacity="0.312"/>
      </g>
      <g id="Rectángulo_27000" data-name="Rectángulo 27000" transform="translate(332 13928)" fill="#fff" stroke="#ff6148" stroke-width="2">
        <rect width="721" height="405" rx="18" stroke="none"/>
        <rect x="1" y="1" width="719" height="403" rx="17" fill="none"/>
      </g>
      <g id="Grupo_33756" data-name="Grupo 33756" transform="translate(1004.42 13721.505)">
        <g id="Grupo_33745" data-name="Grupo 33745">
          <path id="Trazado_82760" data-name="Trazado 82760" d="M-498.934,537.811c0,.07-.027.138-.032.208a5.385,5.385,0,0,1-.128.843c-.014.058-.011.116-.026.174s-.055.129-.076.194a5.992,5.992,0,0,1-.271.7c-.035.077-.051.156-.09.233-.019.039-.05.077-.071.116a7.462,7.462,0,0,1-.464.759c-.046.067-.076.136-.124.2-.009.013-.023.025-.032.038a10.2,10.2,0,0,1-.809.968c-.009.01-.016.021-.026.031-.062.066-.141.129-.206.194-.24.242-.489.482-.763.719-.036.031-.065.064-.1.1-.093.079-.206.155-.3.233-.252.205-.512.408-.79.61-.071.051-.129.1-.2.155-.09.064-.2.125-.289.188-.3.2-.611.406-.936.606-.107.067-.2.136-.31.2-.066.039-.144.077-.211.116q-.636.373-1.332.737c-.092.048-.171.1-.265.146l-.062.03c-.607.309-1.249.613-1.918.911-.056.025-.1.052-.16.077-.111.049-.239.094-.351.143q-.918.4-1.908.781c-.122.047-.229.1-.352.144-.063.024-.136.046-.2.07q-1.346.505-2.813.983c-.081.027-.152.056-.234.082-.227.073-.468.143-.7.215-.345.108-.69.216-1.043.321s-.738.215-1.112.321-.732.208-1.107.31c-.134.036-.261.074-.4.11-.172.046-.359.088-.533.134q-.983.256-2,.5c-.293.07-.583.141-.881.21q-1.311.3-2.677.591l-.221.049-.043.008q-1.344.277-2.741.537c-.257.047-.523.091-.783.138-.68.122-1.363.244-2.06.36-.36.059-.729.115-1.093.173-.611.1-1.222.193-1.844.285-.408.06-.822.116-1.235.174-.6.083-1.193.166-1.8.244-.432.056-.868.11-1.3.163-.6.074-1.207.145-1.819.214q-.68.077-1.367.149-.91.1-1.835.184c-.467.045-.934.089-1.406.131-.631.057-1.268.109-1.907.16-.464.037-.927.075-1.4.109-.671.05-1.35.094-2.029.138-.337.021-.668.047-1.007.068-.086.005-.175.007-.261.012q-2.208.129-4.469.216c-.135.005-.265.014-.4.019-.254.01-.516.013-.771.022q-1.36.047-2.736.077c-.258.006-.51.017-.768.022-.185,0-.373,0-.558.006q-1.176.02-2.364.026c-.331,0-.656.01-.988.011h-.755q-1.545,0-3.074-.019c-.054,0-.108,0-.162,0q-1.8-.024-3.569-.073h-.026c-.121,0-.239-.009-.36-.013q-1.581-.047-3.139-.113l-.208-.007c-.32-.014-.632-.034-.95-.05-.782-.038-1.562-.076-2.335-.121-.132-.008-.267-.013-.4-.021-.313-.019-.617-.044-.928-.064q-1.074-.069-2.136-.146c-.192-.014-.389-.025-.581-.04-.26-.02-.513-.045-.772-.066q-1.048-.084-2.082-.178c-.247-.023-.5-.041-.748-.064-.192-.018-.377-.04-.568-.059-.741-.072-1.473-.149-2.2-.228-.272-.029-.551-.054-.821-.084l-.311-.038q-1.574-.18-3.109-.381l-.2-.025-.024,0c-1.127-.149-2.232-.31-3.323-.476-.1-.016-.21-.029-.312-.045-.2-.031-.389-.066-.587-.1q-1.312-.208-2.587-.431c-.188-.033-.386-.062-.573-.1-.117-.021-.225-.045-.341-.066-1.173-.213-2.324-.434-3.443-.667-.047-.01-.1-.018-.143-.028-.1-.021-.191-.045-.292-.066q-1.917-.405-3.722-.848c-.084-.02-.176-.038-.259-.059l-.128-.033q-1.127-.282-2.205-.576l-.221-.058c-.792-.218-1.561-.442-2.312-.671l-.088-.026c-.543-.165-1.067-.336-1.588-.507-.106-.035-.219-.069-.324-.1q-.981-.327-1.9-.668c-.185-.068-.356-.138-.537-.206-.424-.161-.848-.322-1.253-.486-.224-.091-.434-.184-.651-.276-.346-.146-.693-.291-1.024-.44-.226-.1-.439-.205-.658-.308-.3-.142-.608-.285-.9-.43-.216-.108-.422-.219-.63-.328-.273-.143-.543-.287-.8-.432-.2-.114-.4-.229-.59-.344-.245-.144-.486-.29-.717-.436-.185-.118-.363-.237-.54-.357-.218-.147-.431-.295-.635-.444-.167-.121-.328-.243-.485-.365q-.289-.227-.558-.455c-.145-.124-.288-.247-.424-.372-.168-.154-.326-.31-.48-.466-.124-.126-.247-.251-.361-.378-.144-.158-.273-.318-.4-.479-.1-.126-.2-.251-.294-.378-.119-.166-.221-.333-.324-.5-.076-.124-.158-.248-.225-.373-.094-.175-.168-.352-.244-.529-.051-.119-.11-.237-.153-.357a5.642,5.642,0,0,1-.164-.6c-.024-.1-.06-.2-.077-.3a5.137,5.137,0,0,1-.084-.908v28.1a5.14,5.14,0,0,0,.084.909c.017.1.053.2.076.3a5.911,5.911,0,0,0,.165.6c.043.119.1.236.153.354.075.178.15.356.245.532.066.124.147.247.223.371.1.168.206.336.325.5.091.126.193.251.293.376.129.161.259.322.4.482.114.126.237.25.36.375.154.157.313.313.482.468.135.124.278.248.423.371.179.153.365.3.558.455.157.122.318.244.485.366.2.148.416.3.634.443.178.12.357.24.543.358.229.146.468.29.71.433.2.116.392.233.6.348.257.144.526.286.8.428.21.111.417.221.634.33.291.146.6.289.9.432.217.1.43.2.654.306.331.149.679.295,1.025.441.217.092.427.185.651.275.4.164.827.325,1.25.485.182.069.355.14.54.208q.922.339,1.9.666c.122.041.253.08.376.12.534.176,1.075.35,1.632.52q1.125.342,2.308.669c.07.019.144.037.214.057q1.086.3,2.218.578c.121.031.248.059.37.089q1.813.445,3.744.853c.141.03.277.061.418.09,1.121.234,2.275.455,3.449.669.3.055.609.108.914.161q1.273.224,2.587.431c.3.047.6.1.9.142,1.091.167,2.2.327,3.323.477l.223.027q1.533.2,3.109.381c.374.043.754.082,1.132.123.729.079,1.461.155,2.2.228.436.042.876.082,1.316.122q1.034.094,2.082.178c.449.037.9.073,1.351.106.713.053,1.434.1,2.156.148.433.028.864.057,1.3.082.779.046,1.566.085,2.355.123.382.019.762.04,1.147.057q1.557.066,3.139.113c.129,0,.256.01.386.013q1.775.051,3.577.073,1.605.021,3.228.023c.585,0,1.162-.008,1.743-.012.791-.006,1.58-.013,2.364-.027.443-.007.884-.018,1.326-.028q1.375-.03,2.736-.077c.391-.013.782-.025,1.171-.04q2.259-.089,4.468-.216c.423-.025.841-.054,1.26-.081.686-.044,1.371-.088,2.048-.138.458-.034.911-.07,1.365-.107.65-.052,1.3-.1,1.941-.162.463-.042.922-.085,1.38-.129q.932-.09,1.852-.186.684-.072,1.363-.148.917-.1,1.819-.215c.436-.053.871-.106,1.3-.162.612-.079,1.216-.163,1.817-.247.405-.056.811-.112,1.211-.171.628-.092,1.245-.189,1.861-.287.361-.058.727-.113,1.084-.172.7-.116,1.38-.237,2.06-.36.26-.046.526-.09.783-.138q1.395-.259,2.741-.536c.089-.019.173-.039.262-.057.915-.191,1.808-.389,2.685-.593.293-.067.578-.137.866-.206q1.025-.248,2.013-.5c.309-.081.622-.161.926-.243.378-.1.748-.208,1.116-.312s.738-.21,1.1-.318.711-.216,1.061-.326c.309-.1.617-.194.919-.292q1.467-.478,2.816-.985c.187-.07.368-.143.551-.214q.993-.384,1.914-.782c.167-.073.34-.144.5-.217.669-.3,1.312-.6,1.92-.913.113-.058.216-.118.327-.176q.694-.363,1.332-.736c.179-.105.349-.212.521-.318q.488-.3.936-.607c.167-.114.332-.228.491-.343.277-.2.537-.405.79-.61.135-.109.275-.217.4-.327.274-.238.523-.478.763-.719.075-.076.161-.15.232-.226a10.2,10.2,0,0,0,.809-.968c.058-.079.1-.159.155-.239a7.794,7.794,0,0,0,.465-.76c.061-.116.108-.233.161-.35a5.925,5.925,0,0,0,.271-.7c.038-.122.072-.244.1-.367a5.4,5.4,0,0,0,.128-.843c.009-.125.034-.248.034-.373v-28.1C-498.932,537.7-498.933,537.756-498.934,537.811Z" fill="#fed9d3"/>
          <path id="Trazado_82761" data-name="Trazado 82761" d="M-565.2,519.386c-36.6,0-66.265,8.175-66.265,18.26s29.66,18.265,66.265,18.265c36.588,0,66.265-8.175,66.265-18.265S-528.609,519.386-565.2,519.386Z" fill="#ffc5bc"/>
        </g>
        <g id="Grupo_33746" data-name="Grupo 33746">
          <path id="Trazado_82762" data-name="Trazado 82762" d="M-159.146,517.811c0,.07-.026.138-.031.208a5.383,5.383,0,0,1-.128.843c-.014.058-.011.116-.027.174s-.054.129-.075.194a6,6,0,0,1-.271.7c-.035.077-.051.156-.09.233-.019.039-.05.077-.071.116a7.842,7.842,0,0,1-.464.759c-.046.067-.076.136-.124.2-.009.013-.023.025-.033.038a10.036,10.036,0,0,1-.808.968c-.01.01-.016.021-.026.031-.062.066-.142.129-.206.194-.24.242-.489.482-.764.719-.036.031-.064.064-.1.1-.093.079-.206.155-.3.233-.252.205-.513.408-.791.61-.07.051-.129.1-.2.155-.09.064-.2.125-.289.188q-.448.306-.936.606c-.107.067-.2.136-.31.2-.066.039-.144.077-.211.116-.424.249-.87.494-1.332.737-.092.048-.172.1-.265.146l-.062.03c-.607.309-1.25.613-1.918.911-.056.025-.1.052-.16.077-.111.049-.239.094-.352.143q-.918.4-1.907.781c-.122.047-.229.1-.352.144-.064.024-.136.046-.2.07q-1.346.505-2.813.983c-.081.027-.152.056-.234.082-.227.073-.468.143-.7.215-.345.108-.69.216-1.043.321s-.738.215-1.112.321-.732.208-1.107.31c-.134.036-.261.074-.4.11-.173.046-.359.088-.533.134q-.982.256-2,.5c-.293.07-.584.141-.881.21q-1.311.3-2.677.591l-.221.049-.043.008q-1.344.277-2.741.537c-.257.047-.524.091-.783.138-.68.122-1.363.244-2.06.36-.36.059-.729.115-1.093.173-.611.1-1.222.193-1.845.285-.407.06-.822.116-1.234.174-.6.083-1.193.166-1.8.244-.432.056-.868.11-1.3.163-.6.074-1.207.145-1.819.214q-.679.077-1.367.149-.911.1-1.836.184c-.466.045-.933.089-1.4.131-.631.057-1.268.109-1.907.16-.464.037-.928.075-1.4.109-.671.05-1.35.094-2.029.138-.338.021-.668.047-1.007.068-.087.005-.176.007-.262.012q-2.206.129-4.468.216c-.135.005-.265.014-.4.019-.255.01-.516.013-.772.022q-1.359.047-2.736.077c-.257.006-.509.017-.768.022-.184,0-.373,0-.557.006-.784.013-1.574.021-2.364.026-.331,0-.656.01-.988.011h-.755q-1.545,0-3.074-.019c-.055,0-.108,0-.162,0q-1.8-.024-3.57-.073h-.026c-.121,0-.239-.009-.359-.013q-1.581-.047-3.139-.113l-.208-.007c-.32-.014-.632-.034-.95-.05-.782-.038-1.562-.076-2.335-.121-.132-.008-.268-.013-.4-.021-.312-.019-.616-.044-.927-.064q-1.074-.069-2.136-.146c-.192-.014-.389-.025-.581-.04-.261-.02-.513-.045-.772-.066q-1.049-.084-2.082-.178c-.247-.023-.5-.041-.748-.064-.192-.018-.377-.04-.568-.059q-1.111-.108-2.2-.228c-.272-.029-.551-.054-.821-.084l-.311-.038q-1.575-.18-3.109-.381l-.2-.025-.024,0c-1.128-.149-2.232-.31-3.323-.476-.1-.016-.211-.029-.313-.045-.2-.031-.388-.066-.586-.1q-1.314-.208-2.587-.431c-.189-.033-.387-.062-.574-.1-.116-.021-.225-.045-.341-.066-1.172-.213-2.323-.434-3.442-.667l-.143-.028c-.1-.021-.192-.045-.292-.066q-1.917-.405-3.722-.848c-.084-.02-.176-.038-.259-.059l-.128-.033q-1.128-.282-2.206-.576l-.22-.058q-1.188-.327-2.312-.671l-.088-.026c-.543-.165-1.067-.336-1.588-.507-.106-.035-.219-.069-.325-.1q-.98-.327-1.9-.668c-.184-.068-.356-.138-.536-.206-.424-.161-.848-.322-1.254-.486-.223-.091-.433-.184-.65-.276-.346-.146-.693-.291-1.024-.44-.226-.1-.439-.205-.658-.308-.3-.142-.608-.285-.9-.43-.216-.108-.422-.219-.63-.328-.273-.143-.544-.287-.8-.432-.2-.114-.4-.229-.589-.344-.245-.144-.486-.29-.717-.436-.185-.118-.363-.237-.54-.357q-.328-.221-.636-.444-.249-.181-.484-.365c-.194-.151-.379-.3-.558-.455-.146-.124-.288-.247-.424-.372-.168-.154-.326-.31-.48-.466-.124-.126-.247-.251-.362-.378-.143-.158-.273-.318-.4-.479-.1-.126-.2-.251-.3-.378-.118-.166-.221-.333-.323-.5-.076-.124-.158-.248-.225-.373-.094-.175-.168-.352-.244-.529-.051-.119-.11-.237-.153-.357a5.634,5.634,0,0,1-.165-.6c-.023-.1-.059-.2-.077-.3a5.233,5.233,0,0,1-.083-.908v48.1a5.235,5.235,0,0,0,.083.909c.018.1.054.2.077.3a5.651,5.651,0,0,0,.165.6c.043.119.1.236.152.354.076.178.151.356.245.532.067.124.148.247.224.371.1.168.2.336.325.5.091.126.193.251.293.376.129.161.259.322.4.482.114.126.237.25.36.375.154.157.313.313.481.468.136.124.279.248.424.371.179.153.364.3.558.455q.235.183.484.366c.2.148.417.3.635.443.177.12.357.24.543.358.229.146.468.29.71.433.2.116.392.233.6.348.257.144.526.286.8.428.209.111.416.221.634.33.291.146.6.289.9.432.218.1.431.2.655.306.331.149.679.295,1.024.441.218.092.428.185.651.275.4.164.828.325,1.251.485.182.069.354.14.539.208q.924.339,1.9.666c.122.041.252.08.376.12.534.176,1.074.35,1.632.52q1.123.342,2.308.669c.07.019.144.037.214.057q1.084.3,2.217.578c.122.031.249.059.371.089q1.814.445,3.744.853c.141.03.276.061.418.09,1.121.234,2.274.455,3.449.669.3.055.608.108.914.161q1.273.224,2.587.431c.3.047.6.1.9.142,1.091.167,2.195.327,3.323.477l.223.027q1.533.2,3.109.381c.374.043.754.082,1.132.123q1.092.119,2.2.228.654.063,1.316.122,1.033.094,2.081.178c.45.037.9.073,1.352.106.713.053,1.433.1,2.156.148.433.028.864.057,1.3.082.779.046,1.566.085,2.354.123.383.019.762.04,1.148.057q1.557.066,3.139.113c.129,0,.256.01.385.013q1.776.051,3.578.073,1.605.021,3.228.023c.585,0,1.162-.008,1.743-.012.79-.006,1.58-.013,2.364-.027.443-.007.884-.018,1.325-.028q1.377-.03,2.736-.077c.391-.013.783-.025,1.172-.04q2.259-.089,4.468-.216c.423-.025.841-.054,1.26-.081.686-.044,1.37-.088,2.048-.138.457-.034.911-.07,1.365-.107.65-.052,1.3-.1,1.941-.162.462-.042.921-.085,1.38-.129q.932-.09,1.851-.186.686-.072,1.364-.148.917-.1,1.819-.215c.435-.053.871-.106,1.3-.162.612-.079,1.215-.163,1.817-.247.4-.056.811-.112,1.211-.171.628-.092,1.244-.189,1.861-.287.361-.058.727-.113,1.084-.172.7-.116,1.38-.237,2.06-.36.259-.046.526-.09.783-.138q1.395-.259,2.741-.536c.089-.019.173-.039.262-.057.915-.191,1.808-.389,2.685-.593.292-.067.578-.137.866-.206q1.024-.248,2.013-.5c.309-.081.622-.161.926-.243.378-.1.747-.208,1.116-.312s.738-.21,1.1-.318.711-.216,1.061-.326c.309-.1.617-.194.919-.292q1.467-.478,2.816-.985c.187-.07.367-.143.551-.214q.993-.384,1.913-.782c.167-.073.341-.144.505-.217.669-.3,1.312-.6,1.92-.913.113-.058.216-.118.327-.176.462-.242.908-.488,1.332-.736.179-.105.349-.212.521-.318q.487-.3.936-.607c.167-.114.332-.228.49-.343.278-.2.538-.405.791-.61.135-.109.275-.217.4-.327.275-.238.524-.478.764-.719.074-.076.16-.15.232-.226a10.191,10.191,0,0,0,.809-.968c.058-.079.1-.159.155-.239a7.794,7.794,0,0,0,.465-.76c.061-.116.108-.233.161-.35a5.931,5.931,0,0,0,.271-.7c.038-.122.072-.244.1-.367a5.287,5.287,0,0,0,.129-.843c.009-.125.034-.248.034-.373v-48.1Q-159.143,517.728-159.146,517.811Z" fill="#fed9d3"/>
          <path id="Trazado_82763" data-name="Trazado 82763" d="M-225.408,499.386c-36.6,0-66.265,8.175-66.265,18.26s29.659,18.265,66.265,18.265c36.588,0,66.265-8.175,66.265-18.265S-188.82,499.386-225.408,499.386Z" fill="#ffc5bc"/>
        </g>
        <g id="Grupo_33747" data-name="Grupo 33747">
          <path id="Trazado_82764" data-name="Trazado 82764" d="M-498.934,500.653c0,.07-.027.139-.032.208a5.415,5.415,0,0,1-.128.844c-.014.057-.011.116-.026.173s-.055.129-.076.194a5.924,5.924,0,0,1-.271.7c-.035.077-.051.156-.09.233-.019.039-.05.077-.071.116a7.586,7.586,0,0,1-.464.76c-.046.067-.076.135-.124.2-.009.013-.023.026-.032.039a10.315,10.315,0,0,1-.809.967c-.009.01-.016.021-.026.031-.062.066-.141.129-.206.195-.24.241-.489.481-.763.718-.036.032-.065.064-.1.1-.093.079-.206.155-.3.233-.252.2-.512.409-.79.61-.071.051-.129.1-.2.156-.09.063-.2.124-.289.187-.3.2-.611.406-.936.607-.107.066-.2.135-.31.2-.066.039-.144.077-.211.117q-.636.372-1.332.736c-.092.048-.171.1-.265.146l-.062.03c-.607.31-1.249.613-1.918.912-.056.025-.1.051-.16.076-.111.049-.239.1-.351.143q-.918.4-1.908.781c-.122.047-.229.1-.352.144-.063.024-.136.046-.2.07q-1.346.506-2.813.984c-.081.026-.152.055-.234.081-.227.074-.468.143-.7.215-.345.108-.69.216-1.043.321s-.738.215-1.112.322-.732.207-1.107.309c-.134.036-.261.075-.4.111-.172.046-.359.088-.533.133q-.983.257-2,.5c-.293.071-.583.142-.881.211q-1.311.3-2.677.59l-.221.049-.043.008q-1.344.279-2.741.537c-.257.047-.523.091-.783.138-.68.122-1.363.244-2.06.36-.36.059-.729.115-1.093.173-.611.1-1.222.193-1.844.285-.408.06-.822.117-1.235.174-.6.084-1.193.166-1.8.245-.432.055-.868.109-1.3.162-.6.074-1.207.146-1.819.214q-.68.077-1.367.149-.91.1-1.835.184c-.467.045-.934.089-1.406.131-.631.057-1.268.109-1.907.16-.464.038-.927.075-1.4.11-.671.049-1.35.093-2.029.137-.337.021-.668.048-1.007.068-.086.005-.175.007-.261.012q-2.208.129-4.469.216c-.135.006-.265.015-.4.02-.254.009-.516.013-.771.021q-1.36.047-2.736.077c-.258.006-.51.017-.768.022-.185,0-.373,0-.558.006q-1.176.02-2.364.026c-.331,0-.656.01-.988.011h-.755q-1.545,0-3.074-.019l-.162,0q-1.8-.024-3.569-.073h-.026c-.121,0-.239-.01-.36-.013q-1.581-.048-3.139-.114l-.208-.007c-.32-.014-.632-.034-.95-.05-.782-.037-1.562-.076-2.335-.121-.132-.008-.267-.013-.4-.021-.313-.019-.617-.044-.928-.064-.716-.046-1.429-.093-2.136-.146-.192-.014-.389-.025-.581-.04-.26-.02-.513-.045-.772-.066q-1.048-.084-2.082-.178c-.247-.022-.5-.041-.748-.064-.192-.018-.377-.04-.568-.059-.741-.072-1.473-.148-2.2-.227-.272-.03-.551-.055-.821-.085l-.311-.038q-1.574-.18-3.109-.381l-.2-.024-.024,0c-1.127-.149-2.232-.31-3.323-.476-.1-.015-.21-.029-.312-.045-.2-.03-.389-.066-.587-.1q-1.312-.209-2.587-.431c-.188-.033-.386-.062-.573-.1-.117-.021-.225-.045-.341-.066-1.173-.213-2.324-.434-3.443-.667l-.143-.027c-.1-.022-.191-.046-.292-.067q-1.917-.405-3.722-.848c-.084-.02-.176-.038-.259-.059l-.128-.033q-1.127-.281-2.205-.576c-.073-.02-.149-.038-.221-.058-.792-.218-1.561-.442-2.312-.671l-.088-.025c-.543-.166-1.067-.337-1.588-.508-.106-.035-.219-.069-.324-.1q-.981-.327-1.9-.668c-.185-.068-.356-.138-.537-.206-.424-.161-.848-.321-1.253-.486-.224-.091-.434-.184-.651-.275-.346-.146-.693-.292-1.024-.441-.226-.1-.439-.2-.658-.307-.3-.143-.608-.286-.9-.431-.216-.108-.422-.218-.63-.328-.273-.143-.543-.286-.8-.432-.2-.113-.4-.228-.59-.343-.245-.145-.486-.291-.717-.437-.185-.118-.363-.237-.54-.356-.218-.148-.431-.3-.635-.445-.167-.121-.328-.243-.485-.365-.193-.151-.379-.3-.558-.455-.145-.123-.288-.247-.424-.372-.168-.154-.326-.31-.48-.466-.124-.125-.247-.251-.361-.377-.144-.159-.273-.319-.4-.48-.1-.126-.2-.251-.294-.378-.119-.166-.221-.333-.324-.5-.076-.124-.158-.248-.225-.373-.094-.175-.168-.352-.244-.529-.051-.119-.11-.237-.153-.357a5.579,5.579,0,0,1-.164-.6c-.024-.1-.06-.2-.077-.3a5.129,5.129,0,0,1-.084-.908v28.1a5.139,5.139,0,0,0,.084.909c.017.1.053.2.076.3a5.911,5.911,0,0,0,.165.6c.043.119.1.236.153.354.075.178.15.356.245.532.066.124.147.247.223.371.1.168.206.336.325.5.091.126.193.251.293.376.129.161.259.322.4.482.114.126.237.251.36.376.154.156.313.312.482.467.135.125.278.248.423.372q.268.228.558.454c.157.123.318.245.485.366.2.149.416.3.634.443.178.12.357.24.543.358.229.146.468.29.71.433.2.117.392.233.6.348.257.144.526.287.8.428.21.111.417.222.634.33.291.146.6.289.9.432.217.1.43.205.654.306.331.149.679.3,1.025.441.217.092.427.185.651.275.4.165.827.325,1.25.485.182.069.355.14.54.208q.922.339,1.9.666c.122.041.253.08.376.12.534.176,1.075.35,1.632.52q1.125.342,2.308.669l.214.057q1.086.3,2.218.579c.121.03.248.058.37.088q1.813.445,3.744.853l.418.091c1.121.233,2.275.454,3.449.668.3.055.609.108.914.161q1.273.223,2.587.431c.3.048.6.1.9.143,1.091.166,2.2.326,3.323.476l.223.028q1.533.2,3.109.38c.374.043.754.082,1.132.123.729.079,1.461.156,2.2.228.436.042.876.083,1.316.122q1.034.094,2.082.179c.449.036.9.072,1.351.1.713.053,1.434.1,2.156.148.433.028.864.057,1.3.083.779.045,1.566.084,2.355.122.382.019.762.04,1.147.057q1.557.067,3.139.113l.386.014q1.775.05,3.577.072,1.605.023,3.228.023c.585,0,1.162-.008,1.743-.012.791-.006,1.58-.013,2.364-.027.443-.007.884-.018,1.326-.027q1.375-.031,2.736-.077c.391-.014.782-.026,1.171-.041q2.259-.088,4.468-.216c.423-.025.841-.053,1.26-.08.686-.044,1.371-.089,2.048-.139.458-.033.911-.07,1.365-.106.65-.053,1.3-.106,1.941-.163.463-.042.922-.085,1.38-.129q.932-.09,1.852-.186.684-.072,1.363-.148.917-.1,1.819-.214c.436-.054.871-.107,1.3-.163.612-.079,1.216-.162,1.817-.247.405-.056.811-.111,1.211-.17.628-.093,1.245-.19,1.861-.288.361-.058.727-.113,1.084-.172.7-.116,1.38-.237,2.06-.36.26-.046.526-.09.783-.138q1.395-.258,2.741-.536l.262-.057c.915-.191,1.808-.389,2.685-.592.293-.068.578-.138.866-.207q1.025-.246,2.013-.5c.309-.081.622-.161.926-.243.378-.1.748-.208,1.116-.312s.738-.21,1.1-.317.711-.217,1.061-.327c.309-.1.617-.193.919-.292q1.467-.479,2.816-.985c.187-.07.368-.142.551-.213q.993-.386,1.914-.783c.167-.073.34-.144.5-.217.669-.3,1.312-.6,1.92-.913.113-.058.216-.117.327-.176q.694-.363,1.332-.736c.179-.1.349-.212.521-.318q.488-.3.936-.607c.167-.113.332-.227.491-.342.277-.2.537-.406.79-.611.135-.109.275-.217.4-.327.274-.238.523-.478.763-.719.075-.076.161-.15.232-.226a10.311,10.311,0,0,0,.809-.967c.058-.079.1-.16.155-.239a7.807,7.807,0,0,0,.465-.761c.061-.116.108-.233.161-.35a5.858,5.858,0,0,0,.271-.7c.038-.122.072-.244.1-.367a5.4,5.4,0,0,0,.128-.843c.009-.125.034-.248.034-.373v-28.1C-498.932,500.543-498.933,500.6-498.934,500.653Z" fill="#fed9d3"/>
          <path id="Trazado_82765" data-name="Trazado 82765" d="M-565.2,482.228c-36.6,0-66.265,8.175-66.265,18.26s29.66,18.265,66.265,18.265c36.588,0,66.265-8.175,66.265-18.265S-528.609,482.228-565.2,482.228Z" fill="#ffc5bc"/>
        </g>
        <g id="Grupo_33748" data-name="Grupo 33748">
          <path id="Trazado_82766" data-name="Trazado 82766" d="M-498.934,463.39c0,.07-.027.139-.032.208a5.415,5.415,0,0,1-.128.844c-.014.057-.011.115-.026.173s-.055.129-.076.194a5.922,5.922,0,0,1-.271.7c-.035.077-.051.156-.09.233-.019.039-.05.077-.071.116a7.586,7.586,0,0,1-.464.76c-.046.066-.076.135-.124.2-.009.013-.023.025-.032.039a10.315,10.315,0,0,1-.809.967c-.009.01-.016.021-.026.031-.062.066-.141.129-.206.194-.24.242-.489.482-.763.719-.036.032-.065.064-.1.1-.093.079-.206.155-.3.233-.252.2-.512.409-.79.61-.071.051-.129.1-.2.156-.09.063-.2.124-.289.187-.3.2-.611.406-.936.606-.107.067-.2.136-.31.2-.066.039-.144.077-.211.116q-.636.374-1.332.737c-.092.048-.171.1-.265.146l-.062.03c-.607.31-1.249.613-1.918.912-.056.024-.1.051-.16.076-.111.049-.239.1-.351.143q-.918.4-1.908.781c-.122.047-.229.1-.352.144-.063.024-.136.046-.2.07q-1.346.506-2.813.983c-.081.027-.152.056-.234.082-.227.074-.468.143-.7.215-.345.108-.69.216-1.043.321s-.738.215-1.112.322-.732.207-1.107.309c-.134.036-.261.075-.4.111-.172.045-.359.088-.533.133q-.983.256-2,.5c-.293.071-.583.141-.881.21q-1.311.3-2.677.591l-.221.049-.043.008q-1.344.277-2.741.537c-.257.047-.523.091-.783.138-.68.122-1.363.244-2.06.36-.36.059-.729.115-1.093.173-.611.1-1.222.193-1.844.285-.408.06-.822.116-1.235.174-.6.084-1.193.166-1.8.245-.432.055-.868.109-1.3.162-.6.074-1.207.146-1.819.214q-.68.076-1.367.149-.91.1-1.835.184c-.467.045-.934.089-1.406.131-.631.057-1.268.109-1.907.16-.464.037-.927.075-1.4.11-.671.049-1.35.093-2.029.137-.337.021-.668.047-1.007.068-.086.005-.175.007-.261.012q-2.208.129-4.469.216c-.135.005-.265.014-.4.019-.254.01-.516.013-.771.022q-1.36.047-2.736.077c-.258.006-.51.017-.768.022-.185,0-.373,0-.558.006q-1.176.02-2.364.026c-.331,0-.656.01-.988.011h-.755q-1.545,0-3.074-.019c-.054,0-.108,0-.162,0q-1.8-.024-3.569-.073h-.026c-.121,0-.239-.009-.36-.012q-1.581-.048-3.139-.114l-.208-.007c-.32-.014-.632-.034-.95-.05-.782-.037-1.562-.076-2.335-.121-.132-.008-.267-.013-.4-.021-.313-.019-.617-.044-.928-.064-.716-.046-1.429-.093-2.136-.146-.192-.014-.389-.025-.581-.04-.26-.02-.513-.045-.772-.066q-1.048-.084-2.082-.178c-.247-.023-.5-.041-.748-.064-.192-.018-.377-.04-.568-.059-.741-.072-1.473-.149-2.2-.228-.272-.029-.551-.054-.821-.084l-.311-.038q-1.574-.18-3.109-.381l-.2-.024-.024,0c-1.127-.149-2.232-.31-3.323-.476-.1-.015-.21-.029-.312-.045-.2-.03-.389-.066-.587-.1q-1.312-.209-2.587-.431c-.188-.033-.386-.062-.573-.1-.117-.021-.225-.045-.341-.066-1.173-.213-2.324-.434-3.443-.667-.047-.01-.1-.018-.143-.028-.1-.021-.191-.045-.292-.066q-1.917-.405-3.722-.848c-.084-.02-.176-.038-.259-.059l-.128-.033q-1.127-.281-2.205-.576c-.073-.02-.149-.038-.221-.058-.792-.218-1.561-.442-2.312-.671l-.088-.025c-.543-.166-1.067-.337-1.588-.508-.106-.035-.219-.069-.324-.1q-.981-.327-1.9-.668c-.185-.068-.356-.138-.537-.206-.424-.161-.848-.321-1.253-.486-.224-.091-.434-.184-.651-.275-.346-.146-.693-.292-1.024-.441-.226-.1-.439-.2-.658-.307-.3-.143-.608-.286-.9-.431-.216-.108-.422-.218-.63-.328-.273-.143-.543-.286-.8-.432-.2-.114-.4-.228-.59-.343-.245-.145-.486-.291-.717-.437-.185-.118-.363-.237-.54-.356-.218-.148-.431-.3-.635-.445-.167-.121-.328-.243-.485-.365-.193-.151-.379-.3-.558-.455-.145-.123-.288-.247-.424-.372-.168-.154-.326-.31-.48-.466-.124-.125-.247-.251-.361-.377-.144-.159-.273-.319-.4-.48-.1-.126-.2-.251-.294-.378-.119-.166-.221-.333-.324-.5-.076-.124-.158-.248-.225-.373-.094-.175-.168-.352-.244-.529-.051-.119-.11-.237-.153-.357a5.642,5.642,0,0,1-.164-.6c-.024-.1-.06-.2-.077-.3a5.137,5.137,0,0,1-.084-.908v28.1a5.139,5.139,0,0,0,.084.909c.017.1.053.2.076.3a5.913,5.913,0,0,0,.165.6c.043.119.1.236.153.354.075.178.15.356.245.532.066.124.147.247.223.371.1.168.206.336.325.5.091.126.193.251.293.376.129.161.259.322.4.482.114.126.237.251.36.375.154.157.313.313.482.468.135.125.278.248.423.371.179.153.365.3.558.455.157.123.318.244.485.366.2.148.416.3.634.443.178.12.357.24.543.358.229.146.468.29.71.433.2.117.392.233.6.348.257.144.526.286.8.428.21.111.417.221.634.33.291.146.6.289.9.432.217.1.43.2.654.306.331.149.679.295,1.025.441.217.092.427.185.651.275.4.164.827.325,1.25.485.182.069.355.14.54.208q.922.339,1.9.666c.122.041.253.08.376.12.534.176,1.075.35,1.632.52q1.125.342,2.308.669c.07.019.144.037.214.057q1.086.3,2.218.579c.121.03.248.058.37.088q1.813.445,3.744.853c.141.03.277.061.418.09,1.121.234,2.275.455,3.449.669.3.055.609.108.914.161q1.273.224,2.587.431c.3.048.6.1.9.143,1.091.166,2.2.326,3.323.476l.223.028q1.533.2,3.109.38c.374.043.754.082,1.132.123.729.079,1.461.156,2.2.228.436.042.876.083,1.316.122q1.034.095,2.082.178c.449.037.9.073,1.351.106.713.053,1.434.1,2.156.148.433.028.864.057,1.3.083.779.045,1.566.084,2.355.122.382.019.762.04,1.147.057q1.557.068,3.139.113l.386.014q1.775.049,3.577.072,1.605.021,3.228.023c.585,0,1.162-.008,1.743-.012.791-.006,1.58-.013,2.364-.027.443-.007.884-.018,1.326-.027q1.375-.031,2.736-.077c.391-.014.782-.026,1.171-.041q2.259-.089,4.468-.216c.423-.025.841-.054,1.26-.08.686-.044,1.371-.089,2.048-.139.458-.033.911-.07,1.365-.107.65-.052,1.3-.1,1.941-.162.463-.042.922-.085,1.38-.129q.932-.09,1.852-.186.684-.072,1.363-.148.917-.1,1.819-.215c.436-.053.871-.106,1.3-.162.612-.079,1.216-.162,1.817-.247.405-.056.811-.112,1.211-.17.628-.093,1.245-.19,1.861-.288.361-.058.727-.113,1.084-.172.7-.116,1.38-.237,2.06-.36.26-.046.526-.09.783-.138q1.395-.258,2.741-.536l.262-.057c.915-.191,1.808-.389,2.685-.593.293-.067.578-.137.866-.206q1.025-.248,2.013-.5c.309-.081.622-.161.926-.243.378-.1.748-.208,1.116-.312s.738-.21,1.1-.318.711-.216,1.061-.326c.309-.1.617-.193.919-.292q1.467-.479,2.816-.985c.187-.07.368-.142.551-.214q.993-.384,1.914-.782c.167-.073.34-.144.5-.217.669-.3,1.312-.6,1.92-.913.113-.058.216-.118.327-.176q.694-.363,1.332-.736c.179-.105.349-.212.521-.318q.488-.3.936-.607c.167-.113.332-.227.491-.343.277-.2.537-.4.79-.61.135-.109.275-.217.4-.327.274-.238.523-.478.763-.719.075-.076.161-.15.232-.226a10.2,10.2,0,0,0,.809-.968c.058-.079.1-.159.155-.238a7.925,7.925,0,0,0,.465-.761c.061-.116.108-.233.161-.35a5.859,5.859,0,0,0,.271-.7c.038-.122.072-.244.1-.367a5.4,5.4,0,0,0,.128-.843c.009-.125.034-.248.034-.373v-28.1C-498.932,463.28-498.933,463.335-498.934,463.39Z" fill="#fed9d3"/>
          <path id="Trazado_82767" data-name="Trazado 82767" d="M-565.2,444.965c-36.6,0-66.265,8.175-66.265,18.26S-601.8,481.49-565.2,481.49c36.588,0,66.265-8.175,66.265-18.265S-528.609,444.965-565.2,444.965Z" fill="#ffc5bc"/>
        </g>
        <g id="Grupo_33749" data-name="Grupo 33749">
          <path id="Trazado_82768" data-name="Trazado 82768" d="M-498.934,426.233c0,.069-.027.138-.032.207a5.415,5.415,0,0,1-.128.844c-.014.057-.011.116-.026.173s-.055.129-.076.194a5.926,5.926,0,0,1-.271.7c-.035.077-.051.156-.09.233-.019.039-.05.077-.071.116a7.59,7.59,0,0,1-.464.76c-.046.067-.076.135-.124.2-.009.013-.023.026-.032.039a10.315,10.315,0,0,1-.809.967c-.009.01-.016.021-.026.031-.062.066-.141.129-.206.2-.24.241-.489.481-.763.718-.036.032-.065.064-.1.1-.093.079-.206.155-.3.233-.252.205-.512.409-.79.61-.071.051-.129.105-.2.156-.09.063-.2.124-.289.187-.3.2-.611.406-.936.607-.107.066-.2.135-.31.2-.066.039-.144.077-.211.117q-.636.372-1.332.736c-.092.048-.171.1-.265.146l-.062.03c-.607.31-1.249.613-1.918.912-.056.025-.1.051-.16.076-.111.049-.239.1-.351.144q-.918.4-1.908.78c-.122.047-.229.1-.352.144-.063.024-.136.046-.2.07q-1.346.506-2.813.984c-.081.026-.152.055-.234.082-.227.073-.468.142-.7.215-.345.107-.69.215-1.043.32s-.738.216-1.112.322-.732.208-1.107.309c-.134.036-.261.075-.4.111-.172.046-.359.088-.533.133q-.983.256-2,.5c-.293.071-.583.142-.881.211q-1.311.3-2.677.59c-.075.016-.146.034-.221.049l-.043.009q-1.344.277-2.741.536c-.257.048-.523.091-.783.138-.68.123-1.363.244-2.06.36-.36.059-.729.115-1.093.173-.611.1-1.222.193-1.844.285-.408.06-.822.117-1.235.174-.6.084-1.193.166-1.8.245-.432.055-.868.109-1.3.162-.6.074-1.207.146-1.819.215q-.68.076-1.367.148-.91.1-1.835.185c-.467.044-.934.089-1.406.131-.631.056-1.268.108-1.907.16-.464.037-.927.074-1.4.109-.671.049-1.35.093-2.029.137-.337.022-.668.048-1.007.068l-.261.013q-2.208.129-4.469.215c-.135.006-.265.015-.4.02-.254.009-.516.013-.771.021q-1.36.047-2.736.077c-.258.006-.51.017-.768.022-.185,0-.373,0-.558.006q-1.176.02-2.364.026c-.331,0-.656.01-.988.011l-.755,0q-1.545,0-3.074-.02l-.162,0q-1.8-.024-3.569-.073h-.026c-.121,0-.239-.01-.36-.013q-1.581-.048-3.139-.114l-.208-.007c-.32-.014-.632-.034-.95-.05-.782-.037-1.562-.076-2.335-.121-.132-.008-.267-.013-.4-.021-.313-.019-.617-.043-.928-.064-.716-.046-1.429-.093-2.136-.146-.192-.014-.389-.025-.581-.04-.26-.02-.513-.045-.772-.066q-1.048-.084-2.082-.178c-.247-.022-.5-.041-.748-.064-.192-.018-.377-.04-.568-.059-.741-.072-1.473-.148-2.2-.227-.272-.03-.551-.055-.821-.085l-.311-.038q-1.574-.18-3.109-.381l-.2-.024-.024,0c-1.127-.149-2.232-.309-3.323-.476l-.312-.044c-.2-.031-.389-.067-.587-.1q-1.312-.208-2.587-.431c-.188-.033-.386-.062-.573-.1-.117-.02-.225-.045-.341-.066-1.173-.213-2.324-.434-3.443-.667l-.143-.027c-.1-.021-.191-.046-.292-.067q-1.917-.4-3.722-.848c-.084-.02-.176-.038-.259-.059-.044-.01-.084-.022-.128-.033q-1.127-.28-2.205-.576c-.073-.02-.149-.038-.221-.058-.792-.218-1.561-.442-2.312-.671l-.088-.025c-.543-.166-1.067-.337-1.588-.508-.106-.035-.219-.069-.324-.1q-.981-.327-1.9-.668c-.185-.067-.356-.137-.537-.206-.424-.161-.848-.321-1.253-.486-.224-.09-.434-.184-.651-.275-.346-.146-.693-.292-1.024-.441-.226-.1-.439-.2-.658-.307-.3-.143-.608-.286-.9-.431-.216-.108-.422-.218-.63-.328-.273-.143-.543-.286-.8-.432-.2-.113-.4-.228-.59-.343-.245-.145-.486-.29-.717-.437-.185-.118-.363-.237-.54-.356-.218-.147-.431-.3-.635-.445-.167-.121-.328-.243-.485-.365-.193-.151-.379-.3-.558-.455-.145-.123-.288-.247-.424-.371-.168-.155-.326-.31-.48-.467-.124-.125-.247-.251-.361-.377-.144-.159-.273-.319-.4-.48-.1-.126-.2-.251-.294-.378-.119-.166-.221-.333-.324-.5-.076-.124-.158-.248-.225-.373-.094-.175-.168-.352-.244-.529-.051-.119-.11-.237-.153-.356a5.661,5.661,0,0,1-.164-.6c-.024-.1-.06-.2-.077-.3a5.128,5.128,0,0,1-.084-.908v28.1a5.159,5.159,0,0,0,.084.91c.017.1.053.2.076.3a5.913,5.913,0,0,0,.165.6c.043.119.1.236.153.355.075.177.15.355.245.531.066.125.147.248.223.371.1.168.206.336.325.5.091.126.193.251.293.376.129.161.259.322.4.482.114.126.237.251.36.376.154.156.313.312.482.467.135.125.278.248.423.372.179.152.365.3.558.454.157.123.318.245.485.366.2.149.416.3.634.444.178.119.357.239.543.357.229.146.468.29.71.433.2.117.392.233.6.348.257.144.526.287.8.429.21.11.417.221.634.329.291.146.6.289.9.432.217.1.43.206.654.307.331.148.679.294,1.025.44.217.092.427.185.651.276.4.164.827.324,1.25.484.182.069.355.14.54.208q.922.339,1.9.666c.122.041.253.08.376.121.534.175,1.075.349,1.632.519q1.125.342,2.308.669c.07.02.144.038.214.057q1.086.3,2.218.579c.121.03.248.058.37.088q1.813.445,3.744.853l.418.091c1.121.233,2.275.454,3.449.668.3.055.609.108.914.161q1.273.223,2.587.431c.3.048.6.1.9.143,1.091.166,2.2.326,3.323.476l.223.028q1.533.2,3.109.38c.374.043.754.082,1.132.123.729.079,1.461.156,2.2.228.436.042.876.083,1.316.123q1.034.093,2.082.178c.449.036.9.072,1.351.1.713.053,1.434.1,2.156.148.433.028.864.057,1.3.083.779.045,1.566.084,2.355.122.382.019.762.04,1.147.057q1.557.068,3.139.113l.386.014q1.775.049,3.577.072,1.605.022,3.228.023c.585,0,1.162-.008,1.743-.012.791-.006,1.58-.013,2.364-.026.443-.008.884-.018,1.326-.028q1.375-.031,2.736-.077c.391-.013.782-.026,1.171-.041q2.259-.088,4.468-.216c.423-.025.841-.053,1.26-.08.686-.044,1.371-.089,2.048-.139.458-.033.911-.07,1.365-.106.65-.052,1.3-.106,1.941-.163.463-.041.922-.085,1.38-.129q.932-.09,1.852-.186.684-.072,1.363-.148.917-.1,1.819-.214c.436-.054.871-.107,1.3-.163.612-.079,1.216-.162,1.817-.246.405-.057.811-.112,1.211-.171.628-.093,1.245-.19,1.861-.288.361-.057.727-.113,1.084-.172.7-.115,1.38-.237,2.06-.359.26-.047.526-.091.783-.139q1.395-.258,2.741-.536c.089-.018.173-.038.262-.057.915-.191,1.808-.389,2.685-.592.293-.068.578-.138.866-.207q1.025-.246,2.013-.5c.309-.081.622-.161.926-.243.378-.1.748-.207,1.116-.312s.738-.21,1.1-.317.711-.217,1.061-.327c.309-.1.617-.193.919-.292q1.467-.479,2.816-.985c.187-.07.368-.142.551-.213q.993-.384,1.914-.783c.167-.073.34-.144.5-.217.669-.3,1.312-.6,1.92-.913.113-.058.216-.117.327-.176q.694-.363,1.332-.736c.179-.105.349-.212.521-.318q.488-.3.936-.606c.167-.114.332-.228.491-.343.277-.2.537-.406.79-.61.135-.11.275-.218.4-.328.274-.237.523-.478.763-.719.075-.075.161-.15.232-.226a10.318,10.318,0,0,0,.809-.967c.058-.079.1-.16.155-.239a7.8,7.8,0,0,0,.465-.761c.061-.116.108-.233.161-.349a5.94,5.94,0,0,0,.271-.7c.038-.122.072-.244.1-.367a5.385,5.385,0,0,0,.128-.843c.009-.125.034-.248.034-.373v-28.1C-498.932,426.123-498.933,426.178-498.934,426.233Z" fill="#fed9d3"/>
          <path id="Trazado_82769" data-name="Trazado 82769" d="M-565.2,407.807c-36.6,0-66.265,8.175-66.265,18.26s29.66,18.266,66.265,18.266c36.588,0,66.265-8.176,66.265-18.266S-528.609,407.807-565.2,407.807Z" fill="#ffc5bc"/>
        </g>
        <g id="Grupo_33750" data-name="Grupo 33750">
          <path id="Trazado_82770" data-name="Trazado 82770" d="M-498.934,389.97c0,.069-.027.138-.032.207a5.415,5.415,0,0,1-.128.844c-.014.057-.011.116-.026.173s-.055.129-.076.194a5.926,5.926,0,0,1-.271.7c-.035.077-.051.156-.09.233-.019.039-.05.077-.071.116a7.59,7.59,0,0,1-.464.76c-.046.067-.076.135-.124.2-.009.013-.023.026-.032.039a10.315,10.315,0,0,1-.809.967c-.009.01-.016.021-.026.031-.062.066-.141.129-.206.2-.24.241-.489.481-.763.718-.036.032-.065.064-.1.1-.093.079-.206.155-.3.233-.252.205-.512.409-.79.61-.071.051-.129.1-.2.156-.09.063-.2.124-.289.187-.3.2-.611.406-.936.607-.107.066-.2.135-.31.2-.066.039-.144.077-.211.117q-.636.372-1.332.736c-.092.048-.171.1-.265.146l-.062.03c-.607.31-1.249.613-1.918.912-.056.025-.1.051-.16.076-.111.049-.239.1-.351.143q-.918.4-1.908.781c-.122.047-.229.1-.352.144-.063.024-.136.046-.2.07q-1.346.506-2.813.984c-.081.026-.152.055-.234.082-.227.073-.468.142-.7.214-.345.108-.69.216-1.043.321s-.738.215-1.112.322-.732.207-1.107.309c-.134.036-.261.075-.4.111-.172.046-.359.088-.533.133q-.983.256-2,.5c-.293.071-.583.142-.881.211q-1.311.3-2.677.59l-.221.049-.043.008q-1.344.279-2.741.537c-.257.047-.523.091-.783.138-.68.122-1.363.244-2.06.36-.36.059-.729.115-1.093.173-.611.1-1.222.193-1.844.285-.408.06-.822.117-1.235.174-.6.084-1.193.166-1.8.245-.432.055-.868.109-1.3.162-.6.074-1.207.146-1.819.214q-.68.077-1.367.149-.91.1-1.835.184c-.467.045-.934.089-1.406.131-.631.057-1.268.109-1.907.16-.464.038-.927.075-1.4.11-.671.049-1.35.093-2.029.137-.337.021-.668.048-1.007.068-.086,0-.175.007-.261.012q-2.208.129-4.469.216c-.135.006-.265.015-.4.02-.254.009-.516.013-.771.021q-1.36.047-2.736.077c-.258.006-.51.017-.768.022-.185,0-.373,0-.558.006q-1.176.02-2.364.026c-.331,0-.656.01-.988.011h-.755q-1.545,0-3.074-.019l-.162,0q-1.8-.024-3.569-.073h-.026c-.121,0-.239-.01-.36-.013q-1.581-.048-3.139-.114l-.208-.007c-.32-.014-.632-.034-.95-.05-.782-.037-1.562-.076-2.335-.121-.132-.008-.267-.013-.4-.021-.313-.019-.617-.044-.928-.064-.716-.046-1.429-.093-2.136-.146-.192-.014-.389-.025-.581-.04-.26-.02-.513-.045-.772-.066q-1.048-.084-2.082-.178c-.247-.022-.5-.041-.748-.064-.192-.018-.377-.04-.568-.059-.741-.072-1.473-.148-2.2-.227-.272-.03-.551-.055-.821-.085l-.311-.038q-1.574-.18-3.109-.381l-.2-.024-.024,0c-1.127-.149-2.232-.309-3.323-.476-.1-.015-.21-.029-.312-.045-.2-.03-.389-.066-.587-.1q-1.312-.208-2.587-.431c-.188-.033-.386-.062-.573-.1-.117-.021-.225-.045-.341-.066-1.173-.213-2.324-.434-3.443-.667l-.143-.027c-.1-.021-.191-.046-.292-.067q-1.917-.4-3.722-.848c-.084-.02-.176-.038-.259-.059-.044-.01-.084-.022-.128-.033q-1.127-.28-2.205-.576c-.073-.02-.149-.038-.221-.058-.792-.218-1.561-.442-2.312-.671l-.088-.025c-.543-.166-1.067-.337-1.588-.508-.106-.035-.219-.069-.324-.1q-.981-.327-1.9-.668c-.185-.068-.356-.138-.537-.206-.424-.161-.848-.321-1.253-.486-.224-.091-.434-.184-.651-.275-.346-.146-.693-.292-1.024-.441-.226-.1-.439-.205-.658-.307-.3-.143-.608-.286-.9-.431-.216-.108-.422-.218-.63-.328-.273-.143-.543-.286-.8-.432-.2-.113-.4-.228-.59-.343-.245-.145-.486-.291-.717-.437-.185-.118-.363-.237-.54-.356-.218-.148-.431-.3-.635-.445-.167-.121-.328-.243-.485-.365-.193-.151-.379-.3-.558-.455-.145-.123-.288-.247-.424-.372-.168-.154-.326-.31-.48-.466-.124-.125-.247-.251-.361-.377-.144-.159-.273-.319-.4-.48-.1-.126-.2-.251-.294-.378-.119-.166-.221-.333-.324-.5-.076-.124-.158-.248-.225-.373-.094-.175-.168-.352-.244-.529-.051-.119-.11-.237-.153-.357a5.578,5.578,0,0,1-.164-.6c-.024-.1-.06-.2-.077-.3a5.128,5.128,0,0,1-.084-.908v28.1a5.139,5.139,0,0,0,.084.909c.017.1.053.2.076.3a5.913,5.913,0,0,0,.165.6c.043.119.1.236.153.354.075.178.15.356.245.532.066.124.147.247.223.371.1.168.206.336.325.5.091.126.193.251.293.376.129.161.259.322.4.482.114.126.237.251.36.376.154.156.313.312.482.467.135.125.278.248.423.372.179.152.365.3.558.454.157.123.318.245.485.366.2.149.416.3.634.443.178.12.357.24.543.358.229.146.468.29.71.433.2.117.392.233.6.348.257.144.526.287.8.428.21.111.417.222.634.33.291.146.6.289.9.432.217.1.43.206.654.306.331.149.679.3,1.025.441.217.092.427.185.651.275.4.165.827.325,1.25.485.182.069.355.14.54.208q.922.339,1.9.666c.122.041.253.08.376.12.534.176,1.075.35,1.632.52q1.125.342,2.308.669l.214.057q1.086.3,2.218.579c.121.03.248.058.37.088q1.813.445,3.744.853l.418.091c1.121.233,2.275.454,3.449.668.3.055.609.108.914.161q1.273.223,2.587.431c.3.048.6.1.9.143,1.091.166,2.2.326,3.323.476l.223.028q1.533.2,3.109.38c.374.043.754.082,1.132.123.729.079,1.461.156,2.2.228.436.042.876.083,1.316.122q1.034.094,2.082.179c.449.036.9.072,1.351.1.713.053,1.434.1,2.156.148.433.028.864.057,1.3.083.779.045,1.566.084,2.355.122.382.019.762.04,1.147.057q1.557.068,3.139.113l.386.014q1.775.049,3.577.072,1.605.022,3.228.023c.585,0,1.162-.008,1.743-.012.791-.006,1.58-.013,2.364-.027.443-.007.884-.017,1.326-.027q1.375-.031,2.736-.077c.391-.014.782-.026,1.171-.041q2.259-.088,4.468-.216c.423-.025.841-.053,1.26-.08.686-.044,1.371-.089,2.048-.139.458-.033.911-.07,1.365-.106.65-.053,1.3-.106,1.941-.163.463-.042.922-.085,1.38-.129q.932-.09,1.852-.186.684-.072,1.363-.148.917-.1,1.819-.214c.436-.054.871-.107,1.3-.163.612-.079,1.216-.162,1.817-.247.405-.056.811-.111,1.211-.17.628-.093,1.245-.19,1.861-.288.361-.058.727-.113,1.084-.172.7-.116,1.38-.237,2.06-.36.26-.046.526-.09.783-.138q1.395-.258,2.741-.536l.262-.057c.915-.191,1.808-.389,2.685-.592.293-.068.578-.138.866-.207q1.025-.246,2.013-.5c.309-.081.622-.161.926-.243.378-.1.748-.207,1.116-.312s.738-.21,1.1-.317.711-.217,1.061-.327c.309-.1.617-.193.919-.292q1.467-.479,2.816-.985c.187-.07.368-.142.551-.213q.993-.385,1.914-.783c.167-.073.34-.144.5-.217.669-.3,1.312-.6,1.92-.913.113-.058.216-.117.327-.176q.694-.363,1.332-.736c.179-.105.349-.212.521-.318q.488-.3.936-.606c.167-.114.332-.228.491-.343.277-.2.537-.406.79-.611.135-.109.275-.217.4-.327.274-.238.523-.478.763-.719.075-.076.161-.15.232-.226a10.318,10.318,0,0,0,.809-.967c.058-.079.1-.16.155-.239a7.8,7.8,0,0,0,.465-.761c.061-.116.108-.233.161-.35a5.859,5.859,0,0,0,.271-.7c.038-.122.072-.244.1-.367a5.385,5.385,0,0,0,.128-.843c.009-.125.034-.248.034-.373V389.8C-498.932,389.859-498.933,389.915-498.934,389.97Z" fill="#e83f24"/>
          <path id="Trazado_82771" data-name="Trazado 82771" d="M-565.2,371.544c-36.6,0-66.265,8.175-66.265,18.26s29.66,18.265,66.265,18.265c36.588,0,66.265-8.175,66.265-18.265S-528.609,371.544-565.2,371.544Z" fill="#ff6148"/>
        </g>
        <g id="Grupo_33751" data-name="Grupo 33751">
          <path id="Trazado_82772" data-name="Trazado 82772" d="M-498.934,352.812c0,.07-.027.138-.032.208a5.421,5.421,0,0,1-.128.843c-.014.057-.011.116-.026.173s-.055.129-.076.194a5.926,5.926,0,0,1-.271.7c-.035.078-.051.156-.09.233-.019.04-.05.078-.071.117a7.577,7.577,0,0,1-.464.759c-.046.067-.076.135-.124.2-.009.013-.023.026-.032.039a10.318,10.318,0,0,1-.809.967c-.009.01-.016.021-.026.031-.062.066-.141.13-.206.2-.24.241-.489.481-.763.719-.036.031-.065.063-.1.094-.093.079-.206.155-.3.233-.252.205-.512.409-.79.61-.071.052-.129.1-.2.156-.09.063-.2.124-.289.187-.3.2-.611.406-.936.607-.107.066-.2.135-.31.2-.066.04-.144.077-.211.117q-.636.372-1.332.736c-.092.048-.171.1-.265.146-.019.011-.042.02-.062.03-.607.31-1.249.613-1.918.912-.056.025-.1.051-.16.076-.111.049-.239.1-.351.144q-.918.4-1.908.78c-.122.047-.229.1-.352.144-.063.024-.136.046-.2.07q-1.346.505-2.813.984c-.081.026-.152.055-.234.082-.227.073-.468.142-.7.215-.345.107-.69.215-1.043.32s-.738.216-1.112.322-.732.208-1.107.309c-.134.036-.261.075-.4.111-.172.046-.359.088-.533.133q-.983.257-2,.5c-.293.07-.583.141-.881.21q-1.311.3-2.677.59c-.075.016-.146.034-.221.049l-.043.009q-1.344.277-2.741.536c-.257.048-.523.092-.783.138-.68.123-1.363.244-2.06.36-.36.059-.729.115-1.093.173-.611.1-1.222.194-1.844.285-.408.06-.822.117-1.235.174-.6.084-1.193.166-1.8.245-.432.056-.868.109-1.3.162-.6.074-1.207.146-1.819.215q-.68.076-1.367.148-.91.1-1.835.185c-.467.045-.934.089-1.406.131-.631.056-1.268.108-1.907.16-.464.037-.927.074-1.4.109-.671.049-1.35.093-2.029.137-.337.022-.668.048-1.007.068l-.261.013q-2.208.129-4.469.216c-.135.005-.265.014-.4.019-.254.009-.516.013-.771.021q-1.36.047-2.736.077c-.258.006-.51.017-.768.022-.185,0-.373,0-.558.006q-1.176.02-2.364.027c-.331,0-.656.009-.988.01l-.755,0q-1.545,0-3.074-.02l-.162,0q-1.8-.024-3.569-.073h-.026c-.121,0-.239-.01-.36-.013q-1.581-.047-3.139-.113l-.208-.008c-.32-.014-.632-.034-.95-.049-.782-.038-1.562-.077-2.335-.122-.132-.008-.267-.013-.4-.021-.313-.019-.617-.043-.928-.063-.716-.047-1.429-.094-2.136-.147-.192-.014-.389-.025-.581-.04-.26-.02-.513-.045-.772-.066q-1.048-.084-2.082-.178c-.247-.022-.5-.041-.748-.064-.192-.018-.377-.04-.568-.059-.741-.072-1.473-.148-2.2-.227-.272-.03-.551-.055-.821-.085l-.311-.038q-1.574-.18-3.109-.381c-.065-.008-.134-.015-.2-.024l-.024,0c-1.127-.15-2.232-.31-3.323-.477l-.312-.044c-.2-.031-.389-.067-.587-.1q-1.312-.209-2.587-.431c-.188-.033-.386-.062-.573-.1-.117-.021-.225-.045-.341-.066-1.173-.214-2.324-.435-3.443-.668l-.143-.027c-.1-.021-.191-.046-.292-.067q-1.917-.4-3.722-.847c-.084-.021-.176-.039-.259-.059l-.128-.034q-1.127-.28-2.205-.576c-.073-.02-.149-.038-.221-.058-.792-.218-1.561-.442-2.312-.671-.029-.008-.06-.016-.088-.025-.543-.166-1.067-.337-1.588-.508-.106-.035-.219-.068-.324-.1q-.981-.327-1.9-.668c-.185-.067-.356-.137-.537-.206-.424-.16-.848-.321-1.253-.486-.224-.09-.434-.183-.651-.275-.346-.146-.693-.292-1.024-.441-.226-.1-.439-.2-.658-.307-.3-.143-.608-.286-.9-.431-.216-.108-.422-.218-.63-.328-.273-.143-.543-.286-.8-.432-.2-.113-.4-.228-.59-.343-.245-.145-.486-.29-.717-.437-.185-.118-.363-.237-.54-.356-.218-.147-.431-.295-.635-.445-.167-.121-.328-.243-.485-.365-.193-.151-.379-.3-.558-.455-.145-.123-.288-.247-.424-.371-.168-.155-.326-.31-.48-.467-.124-.125-.247-.251-.361-.377-.144-.159-.273-.319-.4-.479-.1-.126-.2-.252-.294-.379-.119-.166-.221-.333-.324-.5-.076-.124-.158-.247-.225-.372-.094-.176-.168-.353-.244-.53-.051-.119-.11-.237-.153-.356a5.659,5.659,0,0,1-.164-.6c-.024-.1-.06-.2-.077-.3a5.128,5.128,0,0,1-.084-.908h0v28.1a5.159,5.159,0,0,0,.084.91c.017.1.053.2.076.3a5.91,5.91,0,0,0,.165.6c.043.119.1.237.153.355.075.177.15.355.245.531.066.125.147.248.223.371.1.168.206.336.325.5.091.126.193.251.293.376.129.162.259.323.4.482.114.126.237.251.36.376.154.156.313.312.482.467.135.125.278.248.423.372.179.152.365.3.558.454.157.123.318.245.485.366.2.149.416.3.634.444.178.12.357.239.543.358.229.145.468.289.71.432.2.117.392.233.6.348.257.144.526.287.8.429.21.11.417.221.634.33.291.145.6.288.9.431.217.1.43.206.654.307.331.148.679.294,1.025.44.217.092.427.185.651.276.4.164.827.324,1.25.485.182.068.355.139.54.207q.922.339,1.9.666c.122.041.253.08.376.121.534.175,1.075.349,1.632.519q1.125.342,2.308.669c.07.02.144.038.214.057q1.086.3,2.218.579c.121.03.248.058.37.088q1.813.445,3.744.853l.418.091c1.121.233,2.275.455,3.449.668.3.055.609.108.914.162q1.273.222,2.587.43c.3.048.6.1.9.143,1.091.166,2.2.327,3.323.476l.223.028q1.533.2,3.109.38c.374.043.754.082,1.132.123.729.079,1.461.156,2.2.228.436.042.876.083,1.316.123q1.034.093,2.082.178c.449.036.9.072,1.351.105.713.053,1.434.1,2.156.148.433.028.864.057,1.3.083.779.045,1.566.084,2.355.122.382.019.762.04,1.147.057q1.557.067,3.139.113l.386.014q1.775.05,3.577.073,1.605.021,3.228.022c.585,0,1.162-.008,1.743-.012.791-.006,1.58-.013,2.364-.026.443-.008.884-.018,1.326-.028q1.375-.032,2.736-.077c.391-.013.782-.026,1.171-.041q2.259-.088,4.468-.216c.423-.025.841-.053,1.26-.08.686-.044,1.371-.089,2.048-.138.458-.034.911-.071,1.365-.107.65-.052,1.3-.106,1.941-.163.463-.041.922-.085,1.38-.129q.932-.09,1.852-.186.684-.072,1.363-.148.917-.1,1.819-.214c.436-.054.871-.107,1.3-.163.612-.079,1.216-.162,1.817-.246.405-.057.811-.112,1.211-.171.628-.093,1.245-.19,1.861-.288.361-.057.727-.112,1.084-.172.7-.115,1.38-.237,2.06-.359.26-.047.526-.091.783-.139q1.395-.258,2.741-.536c.089-.018.173-.038.262-.057.915-.191,1.808-.389,2.685-.592.293-.068.578-.138.866-.207q1.025-.246,2.013-.5c.309-.081.622-.161.926-.243.378-.1.748-.207,1.116-.312s.738-.21,1.1-.317.711-.217,1.061-.326c.309-.1.617-.194.919-.293q1.467-.479,2.816-.985c.187-.07.368-.142.551-.213q.993-.384,1.914-.783c.167-.073.34-.144.5-.217.669-.3,1.312-.6,1.92-.912.113-.058.216-.118.327-.177q.694-.363,1.332-.736c.179-.1.349-.211.521-.318q.488-.3.936-.606c.167-.114.332-.228.491-.343.277-.2.537-.4.79-.61.135-.11.275-.218.4-.328.274-.237.523-.477.763-.719.075-.075.161-.15.232-.225a10.324,10.324,0,0,0,.809-.968c.058-.079.1-.16.155-.239a7.807,7.807,0,0,0,.465-.761c.061-.116.108-.233.161-.349a5.938,5.938,0,0,0,.271-.7c.038-.122.072-.244.1-.367a5.385,5.385,0,0,0,.128-.843c.009-.125.034-.248.034-.373v-28.1C-498.932,352.7-498.933,352.757-498.934,352.812Z" fill="#e83f24"/>
          <path id="Trazado_82773" data-name="Trazado 82773" d="M-565.2,334.386c-36.6,0-66.265,8.176-66.265,18.26s29.66,18.266,66.265,18.266c36.588,0,66.265-8.176,66.265-18.266S-528.609,334.386-565.2,334.386Z" fill="#ff6148"/>
        </g>
        <g id="Grupo_33752" data-name="Grupo 33752">
          <path id="Trazado_82774" data-name="Trazado 82774" d="M-498.934,315.549c0,.069-.027.138-.032.207a5.415,5.415,0,0,1-.128.844c-.014.057-.011.116-.026.173s-.055.129-.076.194a5.926,5.926,0,0,1-.271.7c-.035.077-.051.156-.09.233-.019.04-.05.077-.071.116a7.59,7.59,0,0,1-.464.76c-.046.067-.076.135-.124.2-.009.013-.023.026-.032.039a10.318,10.318,0,0,1-.809.967c-.009.01-.016.021-.026.031-.062.066-.141.129-.206.2-.24.241-.489.481-.763.718-.036.032-.065.064-.1.1-.093.079-.206.155-.3.233-.252.205-.512.409-.79.61-.071.052-.129.1-.2.156-.09.063-.2.124-.289.187-.3.2-.611.406-.936.607-.107.066-.2.135-.31.2-.066.039-.144.077-.211.117q-.636.372-1.332.736c-.092.048-.171.1-.265.146l-.062.03c-.607.31-1.249.613-1.918.912-.056.025-.1.051-.16.076-.111.049-.239.1-.351.144q-.918.4-1.908.78c-.122.047-.229.1-.352.144-.063.024-.136.046-.2.07q-1.346.505-2.813.984c-.081.026-.152.055-.234.082-.227.073-.468.142-.7.215-.345.107-.69.215-1.043.32s-.738.216-1.112.322-.732.208-1.107.309c-.134.036-.261.075-.4.111-.172.046-.359.088-.533.133q-.983.257-2,.5c-.293.071-.583.142-.881.211q-1.311.3-2.677.59c-.075.016-.146.034-.221.049l-.043.009q-1.344.277-2.741.536c-.257.048-.523.091-.783.138-.68.123-1.363.244-2.06.36-.36.059-.729.115-1.093.173-.611.1-1.222.193-1.844.285-.408.06-.822.117-1.235.174-.6.084-1.193.166-1.8.245-.432.055-.868.109-1.3.162-.6.074-1.207.146-1.819.215q-.68.076-1.367.148-.91.1-1.835.185c-.467.044-.934.089-1.406.131-.631.056-1.268.108-1.907.16-.464.037-.927.074-1.4.109-.671.049-1.35.093-2.029.137-.337.022-.668.048-1.007.068l-.261.013q-2.208.129-4.469.215c-.135.006-.265.015-.4.02-.254.009-.516.013-.771.021q-1.36.047-2.736.077c-.258.006-.51.017-.768.022-.185,0-.373,0-.558.006q-1.176.02-2.364.026c-.331,0-.656.01-.988.011l-.755,0q-1.545,0-3.074-.02l-.162,0q-1.8-.024-3.569-.073h-.026c-.121,0-.239-.01-.36-.013q-1.581-.048-3.139-.114l-.208-.007c-.32-.014-.632-.034-.95-.05-.782-.037-1.562-.076-2.335-.121-.132-.008-.267-.013-.4-.021-.313-.019-.617-.043-.928-.064-.716-.046-1.429-.093-2.136-.146-.192-.014-.389-.025-.581-.04-.26-.02-.513-.045-.772-.066q-1.048-.084-2.082-.178c-.247-.022-.5-.041-.748-.064-.192-.018-.377-.04-.568-.059-.741-.072-1.473-.148-2.2-.227-.272-.03-.551-.055-.821-.085l-.311-.038q-1.574-.18-3.109-.381l-.2-.024-.024,0c-1.127-.149-2.232-.309-3.323-.476l-.312-.044c-.2-.031-.389-.067-.587-.1q-1.312-.209-2.587-.431c-.188-.033-.386-.062-.573-.1-.117-.02-.225-.044-.341-.066-1.173-.213-2.324-.434-3.443-.667l-.143-.027c-.1-.021-.191-.046-.292-.067q-1.917-.4-3.722-.848c-.084-.02-.176-.038-.259-.059-.044-.01-.084-.022-.128-.033q-1.127-.28-2.205-.576c-.073-.02-.149-.038-.221-.058-.792-.218-1.561-.442-2.312-.671l-.088-.025c-.543-.166-1.067-.337-1.588-.508-.106-.035-.219-.069-.324-.1q-.981-.327-1.9-.668c-.185-.067-.356-.137-.537-.206-.424-.161-.848-.321-1.253-.486-.224-.09-.434-.184-.651-.275-.346-.146-.693-.292-1.024-.441-.226-.1-.439-.2-.658-.307-.3-.143-.608-.286-.9-.431-.216-.108-.422-.218-.63-.328-.273-.143-.543-.286-.8-.432-.2-.113-.4-.228-.59-.343-.245-.145-.486-.29-.717-.437-.185-.118-.363-.237-.54-.356-.218-.147-.431-.3-.635-.445-.167-.121-.328-.243-.485-.365-.193-.151-.379-.3-.558-.455-.145-.123-.288-.247-.424-.371-.168-.155-.326-.31-.48-.467-.124-.125-.247-.251-.361-.377-.144-.159-.273-.319-.4-.48-.1-.125-.2-.251-.294-.378-.119-.166-.221-.333-.324-.5-.076-.124-.158-.248-.225-.373-.094-.175-.168-.352-.244-.529-.051-.119-.11-.237-.153-.356a5.659,5.659,0,0,1-.164-.6c-.024-.1-.06-.2-.077-.3a5.128,5.128,0,0,1-.084-.908v28.1a5.159,5.159,0,0,0,.084.91c.017.1.053.2.076.3a5.91,5.91,0,0,0,.165.6c.043.119.1.236.153.355.075.177.15.355.245.531.066.125.147.248.223.371.1.168.206.336.325.5.091.126.193.251.293.376.129.161.259.322.4.482.114.126.237.251.36.376.154.156.313.312.482.467.135.125.278.248.423.372.179.152.365.3.558.454.157.123.318.245.485.366.2.149.416.3.634.444.178.119.357.239.543.357.229.146.468.29.71.433.2.117.392.233.6.348.257.144.526.287.8.429.21.11.417.221.634.33.291.145.6.288.9.431.217.1.43.206.654.307.331.148.679.294,1.025.44.217.092.427.185.651.276.4.164.827.324,1.25.485.182.068.355.139.54.207q.922.339,1.9.666c.122.041.253.08.376.121.534.175,1.075.349,1.632.519q1.125.342,2.308.669c.07.02.144.038.214.057q1.086.3,2.218.579c.121.03.248.058.37.088q1.813.445,3.744.853l.418.091c1.121.233,2.275.454,3.449.668.3.055.609.108.914.161q1.273.223,2.587.431c.3.048.6.1.9.143,1.091.166,2.2.327,3.323.476l.223.028q1.533.2,3.109.38c.374.043.754.082,1.132.123.729.079,1.461.156,2.2.228.436.042.876.083,1.316.123q1.034.093,2.082.178c.449.036.9.072,1.351.105.713.053,1.434.1,2.156.148.433.028.864.057,1.3.083.779.045,1.566.084,2.355.122.382.019.762.04,1.147.057q1.557.067,3.139.113l.386.014q1.775.05,3.577.073,1.605.021,3.228.022c.585,0,1.162-.008,1.743-.012.791-.006,1.58-.013,2.364-.026.443-.008.884-.018,1.326-.028q1.375-.032,2.736-.077c.391-.013.782-.026,1.171-.041q2.259-.088,4.468-.216c.423-.025.841-.053,1.26-.08.686-.044,1.371-.089,2.048-.139.458-.033.911-.07,1.365-.106.65-.052,1.3-.106,1.941-.163.463-.041.922-.085,1.38-.129q.932-.09,1.852-.186.684-.072,1.363-.148.917-.1,1.819-.214c.436-.054.871-.107,1.3-.163.612-.079,1.216-.162,1.817-.246.405-.057.811-.112,1.211-.171.628-.093,1.245-.19,1.861-.288.361-.057.727-.112,1.084-.172.7-.115,1.38-.237,2.06-.359.26-.047.526-.091.783-.139q1.395-.258,2.741-.536c.089-.018.173-.038.262-.057.915-.191,1.808-.389,2.685-.592.293-.068.578-.138.866-.207q1.025-.246,2.013-.5c.309-.081.622-.161.926-.243.378-.1.748-.207,1.116-.312s.738-.21,1.1-.317.711-.217,1.061-.327c.309-.1.617-.193.919-.292q1.467-.479,2.816-.985c.187-.07.368-.142.551-.213q.993-.384,1.914-.783c.167-.073.34-.144.5-.217.669-.3,1.312-.6,1.92-.913.113-.058.216-.117.327-.176q.694-.363,1.332-.736c.179-.1.349-.212.521-.318q.488-.3.936-.606c.167-.114.332-.228.491-.343.277-.2.537-.406.79-.61.135-.11.275-.218.4-.328.274-.237.523-.478.763-.719.075-.075.161-.15.232-.226a10.315,10.315,0,0,0,.809-.967c.058-.079.1-.16.155-.239a7.807,7.807,0,0,0,.465-.761c.061-.116.108-.233.161-.349a5.938,5.938,0,0,0,.271-.7c.038-.122.072-.244.1-.367a5.385,5.385,0,0,0,.128-.843c.009-.125.034-.248.034-.373v-28.1C-498.932,315.439-498.933,315.494-498.934,315.549Z" fill="#e83f24"/>
          <path id="Trazado_82775" data-name="Trazado 82775" d="M-565.2,297.123c-36.6,0-66.265,8.175-66.265,18.26s29.66,18.266,66.265,18.266c36.588,0,66.265-8.176,66.265-18.266S-528.609,297.123-565.2,297.123Z" fill="#ff6148"/>
        </g>
        <text id="_1" data-name="1" transform="translate(-572.685 575.739)" fill="#fff" font-size="17.832" font-family="SegoeUI, Segoe UI"><tspan x="0" y="0">1</tspan></text>
        <text id="_2" data-name="2" transform="translate(-572.685 539.529)" fill="#fff" font-size="17.832" font-family="SegoeUI, Segoe UI"><tspan x="0" y="0">2</tspan></text>
        <text id="_3" data-name="3" transform="translate(-572.685 501.491)" fill="#fff" font-size="17.832" font-family="SegoeUI, Segoe UI"><tspan x="0" y="0">3</tspan></text>
        <text id="_4" data-name="4" transform="translate(-572.685 464.784)" fill="#fff" font-size="17.832" font-family="SegoeUI, Segoe UI"><tspan x="0" y="0">4</tspan></text>
        <text id="_5" data-name="5" transform="translate(-572.685 428.649)" fill="#fff" font-size="17.832" font-family="SegoeUI, Segoe UI"><tspan x="0" y="0">5</tspan></text>
        <text id="_6" data-name="6" transform="translate(-572.685 392.252)" fill="#fff" font-size="17.832" font-family="SegoeUI, Segoe UI"><tspan x="0" y="0">6</tspan></text>
        <text id="_7" data-name="7" transform="translate(-572.685 355.62)" fill="#fff" font-size="17.832" font-family="SegoeUI, Segoe UI"><tspan x="0" y="0">7</tspan></text>
        <text id="Física" transform="translate(-475.543 565.739)" fill="#00223d" font-size="17.832" font-family="SegoeUI, Segoe UI"><tspan x="0" y="0">Física</tspan></text>
        <text id="Acceso_al_medio" data-name="Acceso al medio" transform="translate(-475.543 529.529)" fill="#00223d" font-size="17.832" font-family="SegoeUI, Segoe UI"><tspan x="0" y="0">Acceso al medio</tspan></text>
        <text id="Red" transform="translate(-475.543 491.491)" fill="#00223d" font-size="17.832" font-family="SegoeUI, Segoe UI"><tspan x="0" y="0">Red</tspan></text>
        <text id="Transporte" transform="translate(-475.543 454.784)" fill="#00223d" font-size="17.832" font-family="SegoeUI, Segoe UI"><tspan x="0" y="0">Transporte</tspan></text>
        <text id="Sesión" transform="translate(-475.543 418.649)" fill="#00223d" font-size="17.832" font-family="SegoeUI, Segoe UI"><tspan x="0" y="0">Sesión</tspan></text>
        <text id="Presentación" transform="translate(-475.543 382.252)" fill="#00223d" font-size="17.832" font-family="SegoeUI, Segoe UI"><tspan x="0" y="0">Presentación</tspan></text>
        <text id="Aplicación" transform="translate(-475.543 345.62)" fill="#00223d" font-size="17.832" font-family="SegoeUI, Segoe UI"><tspan x="0" y="0">Aplicación</tspan></text>
        <text id="Modelo_OSI" data-name="Modelo OSI" transform="translate(-620.999 260.978)" fill="#00223d" font-size="24.601" font-family="SegoeUI, Segoe UI"><tspan x="0" y="0">Modelo OSI</tspan></text>
        <text id="Modelo_TCP_IP_" data-name="Modelo TCP/IP " transform="translate(-301.501 260.978)" fill="#00223d" font-size="24.601" font-family="SegoeUI, Segoe UI"><tspan x="0" y="0">Modelo TCP/IP </tspan></text>
        <rect id="Rectángulo_26989" data-name="Rectángulo 26989" width="2.842" height="21.522" transform="translate(-485.854 327.72)" fill="#ff6148"/>
        <rect id="Rectángulo_26990" data-name="Rectángulo 26990" width="2.842" height="21.522" transform="translate(-485.854 365.068)" fill="#ff6148"/>
        <rect id="Rectángulo_26991" data-name="Rectángulo 26991" width="2.842" height="21.522" transform="translate(-485.854 402.416)" fill="#ff6148"/>
        <rect id="Rectángulo_26992" data-name="Rectángulo 26992" width="2.842" height="21.522" transform="translate(-485.854 437.489)" fill="#00223d"/>
        <rect id="Rectángulo_26993" data-name="Rectángulo 26993" width="2.842" height="21.522" transform="translate(-485.854 474.647)" fill="#00223d"/>
        <rect id="Rectángulo_26994" data-name="Rectángulo 26994" width="2.842" height="21.522" transform="translate(-483.012 533.432) rotate(180)" fill="#00223d"/>
        <rect id="Rectángulo_26995" data-name="Rectángulo 26995" width="2.842" height="21.522" transform="translate(-483.012 570.695) rotate(180)" fill="#00223d"/>
        <g id="Grupo_33753" data-name="Grupo 33753">
          <path id="Trazado_82776" data-name="Trazado 82776" d="M-158.691,479.811c0,.07-.026.138-.031.208a5.381,5.381,0,0,1-.128.843c-.014.058-.011.116-.027.174s-.054.129-.075.194a6,6,0,0,1-.271.7c-.035.077-.051.156-.09.233-.019.039-.05.077-.071.116a7.843,7.843,0,0,1-.464.759c-.046.067-.076.136-.124.2-.009.013-.023.025-.032.038a10.2,10.2,0,0,1-.809.968c-.01.01-.016.021-.026.031-.062.066-.142.129-.206.194-.24.242-.489.482-.763.719-.037.031-.065.064-.1.1-.093.079-.206.155-.3.233-.252.205-.513.408-.791.61-.07.051-.128.1-.2.155-.09.064-.2.125-.289.188q-.448.306-.936.606c-.107.067-.2.136-.31.2-.066.039-.144.077-.211.116q-.636.373-1.332.737c-.092.048-.171.1-.265.146l-.062.03c-.607.309-1.249.613-1.918.911-.056.025-.1.052-.16.077-.111.049-.239.094-.351.143q-.919.4-1.908.781c-.122.047-.229.1-.352.144-.064.024-.136.046-.2.07q-1.346.505-2.813.983c-.081.027-.152.056-.234.082-.227.073-.468.143-.7.215-.345.108-.69.216-1.043.321s-.738.215-1.112.321-.732.208-1.107.31c-.134.036-.261.074-.4.11-.173.046-.359.088-.533.134q-.982.257-2,.5c-.293.07-.584.141-.881.21q-1.311.3-2.677.591l-.221.049-.043.008q-1.344.277-2.741.537c-.257.047-.523.091-.783.138-.68.122-1.363.244-2.06.36-.36.059-.729.115-1.093.173-.611.1-1.222.193-1.845.285-.407.06-.821.116-1.234.174-.6.083-1.193.166-1.8.244-.432.056-.868.11-1.3.163-.6.074-1.207.145-1.819.214q-.68.076-1.367.149-.911.1-1.836.184c-.466.045-.933.089-1.4.131-.631.057-1.268.109-1.907.16-.464.037-.927.075-1.4.109-.671.05-1.35.094-2.029.138-.338.021-.668.047-1.007.068-.087.005-.176.007-.262.012q-2.206.129-4.468.216c-.135.005-.265.014-.4.019-.255.01-.516.013-.771.022q-1.36.047-2.737.077c-.257.006-.509.017-.767.022-.185,0-.373,0-.558.006-.784.013-1.574.021-2.364.026-.331,0-.656.01-.988.011h-.755q-1.545,0-3.074-.019l-.162,0q-1.8-.024-3.569-.073h-.027c-.12,0-.238-.009-.359-.013q-1.581-.047-3.139-.113l-.208-.007c-.32-.014-.632-.034-.95-.05-.782-.038-1.562-.076-2.335-.121-.132-.008-.268-.013-.4-.021-.312-.019-.616-.044-.927-.064q-1.074-.069-2.136-.146c-.192-.014-.389-.025-.581-.04-.26-.02-.513-.045-.772-.066q-1.049-.084-2.082-.178c-.247-.023-.5-.041-.748-.064-.192-.018-.377-.04-.568-.059q-1.111-.108-2.2-.228c-.272-.029-.551-.054-.821-.084l-.311-.038q-1.575-.18-3.109-.381l-.2-.025-.024,0c-1.128-.149-2.232-.31-3.323-.476-.1-.016-.21-.029-.313-.045-.2-.031-.388-.066-.586-.1q-1.314-.209-2.587-.431c-.188-.033-.387-.062-.574-.1-.116-.021-.224-.045-.341-.066-1.172-.213-2.323-.434-3.442-.667l-.143-.028c-.1-.021-.192-.045-.292-.066q-1.917-.4-3.722-.848c-.084-.02-.176-.038-.259-.059l-.128-.033q-1.128-.282-2.206-.576c-.072-.02-.148-.039-.22-.058-.792-.218-1.561-.442-2.312-.671l-.088-.026c-.543-.165-1.067-.336-1.588-.507-.106-.035-.219-.069-.324-.1q-.981-.327-1.9-.668c-.184-.068-.355-.138-.536-.206-.424-.161-.848-.322-1.254-.486-.223-.091-.433-.184-.65-.276-.346-.146-.693-.291-1.024-.44-.226-.1-.439-.2-.658-.308-.3-.142-.608-.285-.9-.43-.216-.108-.422-.219-.63-.328-.273-.143-.543-.287-.8-.432-.2-.114-.395-.229-.589-.344-.245-.144-.486-.29-.717-.436-.185-.118-.363-.237-.54-.357q-.328-.221-.636-.444-.249-.182-.484-.365c-.194-.151-.379-.3-.558-.455-.146-.124-.288-.247-.424-.372-.168-.154-.326-.31-.48-.466-.124-.126-.247-.251-.362-.378-.143-.158-.272-.318-.4-.479-.1-.126-.2-.251-.294-.378-.119-.166-.221-.333-.324-.5-.076-.124-.158-.248-.225-.373-.094-.175-.168-.352-.244-.529-.051-.119-.11-.237-.153-.357a5.4,5.4,0,0,1-.164-.6c-.024-.1-.06-.2-.078-.3a5.235,5.235,0,0,1-.083-.908v28.1a5.238,5.238,0,0,0,.083.909c.018.1.054.2.077.3a5.658,5.658,0,0,0,.165.6c.043.119.1.236.152.354.076.178.151.356.245.532.067.124.148.247.224.371.1.168.206.336.325.5.091.126.193.251.293.376.129.161.259.322.4.482.114.126.237.25.36.375.154.157.313.313.481.468.136.124.279.248.424.371.179.153.364.3.558.455q.236.183.484.366.307.222.635.443c.177.12.357.24.543.358.229.146.468.29.71.433.2.116.392.233.6.348.257.144.526.286.8.428.209.111.416.221.634.33.291.146.6.289.9.432.218.1.431.2.655.306.331.149.679.295,1.025.441.217.092.427.185.65.275.4.164.828.325,1.251.485.182.069.355.14.539.208q.924.339,1.9.666c.122.041.252.08.376.12.534.176,1.074.35,1.632.52q1.123.342,2.308.669c.07.019.144.037.214.057q1.084.3,2.217.578c.122.031.249.059.371.089q1.813.445,3.744.853c.141.03.277.061.418.09,1.121.234,2.274.455,3.449.669.3.055.608.108.914.161q1.273.224,2.587.431c.3.047.6.1.9.142,1.091.167,2.2.327,3.323.477l.223.027q1.533.2,3.109.381c.374.043.754.082,1.132.123q1.092.119,2.2.228.654.063,1.316.122,1.033.094,2.082.178c.449.037.9.073,1.351.106.713.053,1.433.1,2.156.148.433.028.864.057,1.3.082.779.046,1.566.085,2.354.123.383.019.762.04,1.148.057q1.557.066,3.139.113c.129,0,.256.01.385.013q1.776.051,3.578.073,1.605.021,3.228.023c.585,0,1.162-.008,1.743-.012.79-.006,1.58-.013,2.364-.027.443-.007.884-.018,1.325-.028q1.377-.03,2.736-.077c.391-.013.783-.025,1.172-.04q2.259-.089,4.468-.216c.423-.025.841-.054,1.26-.081.686-.044,1.371-.088,2.048-.138.458-.034.911-.07,1.365-.107.65-.052,1.3-.1,1.941-.162.462-.042.921-.085,1.38-.129q.932-.09,1.851-.186.686-.072,1.364-.148.917-.1,1.819-.215c.435-.053.871-.106,1.3-.162.612-.079,1.216-.163,1.817-.247.4-.056.811-.112,1.211-.171.628-.092,1.244-.189,1.861-.287.361-.058.727-.113,1.084-.172.7-.116,1.38-.237,2.06-.36.259-.046.526-.09.783-.138q1.395-.259,2.741-.536c.089-.019.173-.039.262-.057.915-.191,1.808-.389,2.685-.593.292-.067.578-.137.866-.206q1.025-.248,2.013-.5c.309-.081.622-.161.926-.243.378-.1.747-.208,1.116-.312s.738-.21,1.1-.318.711-.216,1.061-.326c.309-.1.617-.194.919-.292q1.467-.478,2.816-.985c.187-.07.367-.143.551-.214q.993-.384,1.913-.782c.167-.073.341-.144.505-.217.669-.3,1.312-.6,1.92-.913.113-.058.216-.118.327-.176.462-.242.908-.488,1.332-.736.179-.105.349-.212.521-.318q.487-.3.936-.607c.167-.114.332-.228.49-.343.278-.2.538-.405.791-.61.135-.109.275-.217.4-.327.275-.238.524-.478.764-.719.074-.076.16-.15.232-.226a10.191,10.191,0,0,0,.809-.968c.058-.079.1-.159.155-.239a7.791,7.791,0,0,0,.465-.76c.061-.116.108-.233.161-.35a5.927,5.927,0,0,0,.271-.7c.038-.122.072-.244.1-.367a5.4,5.4,0,0,0,.128-.843c.009-.125.034-.248.034-.373v-28.1Q-158.688,479.728-158.691,479.811Z" fill="#fed9d3"/>
          <path id="Trazado_82777" data-name="Trazado 82777" d="M-224.953,461.386c-36.605,0-66.265,8.175-66.265,18.26s29.66,18.265,66.265,18.265c36.588,0,66.265-8.175,66.265-18.265S-188.365,461.386-224.953,461.386Z" fill="#ffc5bc"/>
        </g>
        <g id="Grupo_33754" data-name="Grupo 33754">
          <path id="Trazado_82778" data-name="Trazado 82778" d="M-158.691,440.583c0,.07-.026.138-.031.208a5.381,5.381,0,0,1-.128.843c-.014.058-.011.116-.027.174s-.054.129-.075.194a6,6,0,0,1-.271.7c-.035.077-.051.156-.09.233-.019.039-.05.077-.071.116a7.843,7.843,0,0,1-.464.759c-.046.067-.076.136-.124.2-.009.013-.023.025-.032.038a10.2,10.2,0,0,1-.809.968c-.01.01-.016.021-.026.031-.062.066-.142.129-.206.194-.24.242-.489.482-.763.719-.037.031-.065.064-.1.1-.093.079-.206.155-.3.233-.252.2-.513.408-.791.61-.07.051-.128.1-.2.155-.09.064-.2.125-.289.188q-.448.306-.936.606c-.107.067-.2.136-.31.2-.066.039-.144.077-.211.116q-.636.373-1.332.737c-.092.048-.171.1-.265.146l-.062.03c-.607.309-1.249.613-1.918.911-.056.025-.1.052-.16.077-.111.049-.239.094-.351.143q-.919.4-1.908.781c-.122.047-.229.1-.352.144-.064.024-.136.046-.2.07q-1.346.505-2.813.983c-.081.027-.152.056-.234.082-.227.073-.468.143-.7.215-.345.108-.69.216-1.043.321s-.738.215-1.112.321-.732.208-1.107.31c-.134.036-.261.074-.4.11-.173.046-.359.089-.533.134q-.982.256-2,.5c-.293.07-.584.141-.881.21q-1.311.3-2.677.591l-.221.049-.043.008q-1.344.277-2.741.537c-.257.047-.523.091-.783.138-.68.122-1.363.244-2.06.36-.36.059-.729.115-1.093.173-.611.1-1.222.193-1.845.285-.407.06-.821.116-1.234.174-.6.083-1.193.166-1.8.244-.432.056-.868.11-1.3.163-.6.074-1.207.146-1.819.214q-.68.076-1.367.149-.911.1-1.836.184c-.466.045-.933.089-1.4.131-.631.057-1.268.109-1.907.16-.464.037-.927.075-1.4.109-.671.05-1.35.094-2.029.138-.338.021-.668.047-1.007.068-.087.005-.176.007-.262.012q-2.206.129-4.468.216c-.135.005-.265.014-.4.019-.255.01-.516.013-.771.022q-1.36.047-2.737.077c-.257.006-.509.017-.767.022-.185,0-.373,0-.558.006-.784.013-1.574.021-2.364.026-.331,0-.656.01-.988.011h-.755q-1.545,0-3.074-.019l-.162,0q-1.8-.024-3.569-.073h-.027c-.12,0-.238-.009-.359-.013q-1.581-.047-3.139-.113l-.208-.007c-.32-.014-.632-.034-.95-.05-.782-.037-1.562-.076-2.335-.121-.132-.008-.268-.013-.4-.021-.312-.019-.616-.044-.927-.064q-1.074-.069-2.136-.146c-.192-.014-.389-.025-.581-.04-.26-.02-.513-.045-.772-.066q-1.049-.084-2.082-.178c-.247-.023-.5-.041-.748-.064-.192-.018-.377-.04-.568-.059q-1.111-.108-2.2-.228c-.272-.029-.551-.054-.821-.084l-.311-.038q-1.575-.18-3.109-.381c-.065-.009-.134-.016-.2-.024l-.024,0c-1.128-.149-2.232-.31-3.323-.476-.1-.016-.21-.029-.313-.045-.2-.03-.388-.066-.586-.1q-1.314-.209-2.587-.431c-.188-.033-.387-.062-.574-.1-.116-.021-.224-.045-.341-.066-1.172-.213-2.323-.434-3.442-.667l-.143-.028c-.1-.021-.192-.045-.292-.066q-1.917-.4-3.722-.848c-.084-.02-.176-.038-.259-.059l-.128-.033q-1.128-.282-2.206-.576c-.072-.02-.148-.039-.22-.058-.792-.218-1.561-.442-2.312-.671l-.088-.025c-.543-.166-1.067-.337-1.588-.508-.106-.035-.219-.069-.324-.1q-.981-.327-1.9-.668c-.184-.068-.355-.138-.536-.206-.424-.161-.848-.322-1.254-.486-.223-.091-.433-.184-.65-.276-.346-.145-.693-.291-1.024-.44-.226-.1-.439-.2-.658-.307-.3-.143-.608-.286-.9-.431-.216-.108-.422-.218-.63-.328-.273-.143-.543-.287-.8-.432-.2-.114-.395-.229-.589-.344-.245-.144-.486-.29-.717-.436-.185-.118-.363-.237-.54-.356q-.328-.222-.636-.445-.249-.182-.484-.365c-.194-.151-.379-.3-.558-.455-.146-.124-.288-.247-.424-.372-.168-.154-.326-.31-.48-.466-.124-.126-.247-.251-.362-.378-.143-.158-.272-.318-.4-.479-.1-.126-.2-.251-.294-.378-.119-.166-.221-.333-.324-.5-.076-.124-.158-.248-.225-.373-.094-.175-.168-.352-.244-.529-.051-.119-.11-.237-.153-.357a5.4,5.4,0,0,1-.164-.6c-.024-.1-.06-.2-.078-.3a5.235,5.235,0,0,1-.083-.908v28.1a5.238,5.238,0,0,0,.083.909c.018.1.054.2.077.3a5.658,5.658,0,0,0,.165.6c.043.119.1.236.152.354.076.178.151.356.245.532.067.124.148.247.224.371.1.168.206.336.325.5.091.126.193.251.293.376.129.161.259.322.4.482.114.126.237.25.36.375.154.157.313.313.481.468.136.124.279.248.424.371.179.153.364.3.558.455q.236.183.484.366.307.222.635.443c.177.12.357.24.543.358.229.146.468.29.71.433.2.116.392.233.6.348.257.144.526.286.8.428.209.111.416.221.634.33.291.146.6.289.9.432.218.1.431.2.655.306.331.149.679.3,1.025.441.217.092.427.185.65.275.4.164.828.325,1.251.485.182.069.355.14.539.208q.924.339,1.9.666c.122.041.252.08.376.12.534.176,1.074.35,1.632.52q1.123.342,2.308.669c.07.019.144.037.214.057q1.084.3,2.217.578c.122.031.249.059.371.089q1.813.445,3.744.853c.141.03.277.061.418.09,1.121.234,2.274.455,3.449.669.3.055.608.108.914.161q1.273.223,2.587.431c.3.047.6.1.9.142,1.091.167,2.2.327,3.323.477l.223.027q1.533.2,3.109.381c.374.043.754.082,1.132.123q1.092.118,2.2.228.654.063,1.316.122,1.033.094,2.082.178c.449.037.9.073,1.351.106.713.053,1.433.1,2.156.148.433.028.864.057,1.3.082.779.046,1.566.085,2.354.123.383.019.762.04,1.148.057q1.557.066,3.139.113c.129,0,.256.01.385.013q1.776.051,3.578.073,1.605.021,3.228.023c.585,0,1.162-.008,1.743-.012.79-.006,1.58-.013,2.364-.027.443-.007.884-.018,1.325-.028q1.377-.03,2.736-.076c.391-.014.783-.026,1.172-.041q2.259-.089,4.468-.216c.423-.025.841-.054,1.26-.08.686-.044,1.371-.089,2.048-.139.458-.033.911-.07,1.365-.107.65-.052,1.3-.105,1.941-.162.462-.042.921-.085,1.38-.129q.932-.09,1.851-.186.686-.072,1.364-.148.917-.1,1.819-.215c.435-.053.871-.106,1.3-.162.612-.079,1.216-.162,1.817-.247.4-.056.811-.112,1.211-.171.628-.092,1.244-.189,1.861-.287.361-.058.727-.113,1.084-.172.7-.116,1.38-.237,2.06-.36.259-.046.526-.09.783-.138q1.395-.26,2.741-.536c.089-.019.173-.039.262-.057.915-.191,1.808-.389,2.685-.593.292-.067.578-.137.866-.206q1.025-.248,2.013-.5c.309-.081.622-.161.926-.243.378-.1.747-.208,1.116-.312s.738-.21,1.1-.318.711-.216,1.061-.326c.309-.1.617-.194.919-.292q1.467-.479,2.816-.985c.187-.07.367-.143.551-.214q.993-.384,1.913-.782c.167-.073.341-.144.505-.217.669-.3,1.312-.6,1.92-.913.113-.058.216-.118.327-.176.462-.242.908-.488,1.332-.736.179-.105.349-.212.521-.318q.487-.3.936-.607c.167-.113.332-.228.49-.343.278-.2.538-.4.791-.61.135-.109.275-.217.4-.327.275-.238.524-.478.764-.719.074-.076.16-.15.232-.226a10.2,10.2,0,0,0,.809-.968c.058-.079.1-.159.155-.239a7.794,7.794,0,0,0,.465-.76c.061-.116.108-.233.161-.35a5.924,5.924,0,0,0,.271-.7c.038-.122.072-.244.1-.367a5.4,5.4,0,0,0,.128-.843c.009-.125.034-.248.034-.373v-28.1Q-158.688,440.5-158.691,440.583Z" fill="#fed9d3"/>
          <path id="Trazado_82779" data-name="Trazado 82779" d="M-224.953,422.158c-36.605,0-66.265,8.175-66.265,18.26s29.66,18.265,66.265,18.265c36.588,0,66.265-8.175,66.265-18.265S-188.365,422.158-224.953,422.158Z" fill="#ffc5bc"/>
        </g>
        <g id="Grupo_33755" data-name="Grupo 33755">
          <path id="Trazado_82780" data-name="Trazado 82780" d="M-159.146,372.463c0,.07-.026.138-.031.208a5.419,5.419,0,0,1-.128.843c-.014.057-.011.116-.027.173s-.054.129-.075.195a5.915,5.915,0,0,1-.271.7c-.035.078-.051.157-.09.234-.019.039-.05.077-.071.116a7.845,7.845,0,0,1-.464.759c-.046.067-.076.135-.124.2-.009.013-.023.026-.033.039a10.023,10.023,0,0,1-.808.967c-.01.011-.016.021-.026.032-.062.065-.142.129-.206.194-.24.241-.489.481-.764.719-.036.031-.064.063-.1.1-.093.078-.206.154-.3.232-.252.205-.513.409-.791.61-.07.052-.129.1-.2.156-.09.063-.2.124-.289.187q-.448.307-.936.607c-.107.066-.2.135-.31.2-.066.04-.144.077-.211.117-.424.249-.87.494-1.332.736-.092.048-.172.1-.265.147-.02.01-.043.019-.062.029-.607.31-1.25.613-1.918.912-.056.025-.1.051-.16.076-.111.049-.239.1-.352.144q-.918.4-1.907.78c-.122.047-.229.1-.352.144-.064.024-.136.046-.2.07q-1.346.505-2.813.984c-.081.026-.152.055-.234.082-.227.073-.468.143-.7.215-.345.108-.69.215-1.043.321s-.738.215-1.112.321-.732.208-1.107.309c-.134.037-.261.075-.4.111-.173.046-.359.088-.533.133q-.982.256-2,.5c-.293.07-.584.141-.881.21q-1.311.3-2.677.591c-.076.015-.146.033-.221.048l-.043.009q-1.344.277-2.741.536c-.257.048-.524.092-.783.138-.68.123-1.363.244-2.06.36-.36.06-.729.115-1.093.173-.611.1-1.222.194-1.845.285-.407.06-.822.117-1.234.175-.6.083-1.193.165-1.8.244-.432.056-.868.109-1.3.162-.6.074-1.207.146-1.819.215q-.679.076-1.367.148-.911.1-1.836.185c-.466.045-.933.089-1.4.131-.631.056-1.268.109-1.907.16-.464.037-.928.074-1.4.109-.671.049-1.35.093-2.029.137-.338.022-.668.048-1.007.068l-.262.013q-2.206.129-4.468.216c-.135.005-.265.014-.4.019-.255.009-.516.013-.772.022q-1.359.045-2.736.077c-.257.005-.509.016-.768.021-.184,0-.373,0-.557.006-.784.014-1.574.021-2.364.027-.331,0-.656.01-.988.011h-.755q-1.545,0-3.074-.019l-.162,0q-1.8-.024-3.57-.072h-.026l-.359-.013q-1.581-.047-3.139-.113l-.208-.008c-.32-.014-.632-.034-.95-.049-.782-.038-1.562-.077-2.335-.122-.132-.008-.268-.013-.4-.021-.312-.018-.616-.043-.927-.063q-1.074-.069-2.136-.147c-.192-.014-.389-.025-.581-.039-.261-.021-.513-.046-.772-.067q-1.049-.084-2.082-.178c-.247-.022-.5-.04-.748-.064-.192-.018-.377-.04-.568-.058q-1.111-.108-2.2-.228c-.272-.03-.551-.054-.821-.085l-.311-.038q-1.575-.18-3.109-.38l-.2-.025-.024,0c-1.128-.15-2.232-.31-3.323-.476-.1-.016-.211-.029-.313-.045-.2-.031-.388-.067-.586-.1q-1.314-.207-2.587-.431c-.189-.033-.387-.062-.574-.1-.116-.021-.225-.045-.341-.066-1.172-.213-2.323-.435-3.442-.667l-.143-.028c-.1-.021-.192-.045-.292-.067q-1.917-.4-3.722-.847c-.084-.021-.176-.039-.259-.059l-.128-.034q-1.128-.281-2.206-.576c-.072-.02-.149-.038-.22-.058q-1.188-.327-2.312-.67l-.088-.026c-.543-.166-1.067-.336-1.588-.508-.106-.035-.219-.068-.325-.1q-.98-.327-1.9-.667c-.184-.068-.356-.138-.536-.207-.424-.16-.848-.321-1.254-.486-.223-.09-.433-.183-.65-.275-.346-.146-.693-.292-1.024-.44-.226-.1-.439-.2-.658-.308-.3-.143-.608-.285-.9-.431-.216-.108-.422-.218-.63-.327-.273-.144-.544-.287-.8-.432-.2-.114-.4-.229-.589-.344-.245-.145-.486-.29-.717-.437-.185-.118-.363-.237-.54-.356q-.328-.221-.636-.444c-.166-.122-.327-.243-.484-.366-.194-.151-.379-.3-.558-.455-.146-.123-.288-.247-.424-.371-.168-.155-.326-.31-.48-.466-.124-.126-.247-.251-.362-.378-.143-.159-.273-.319-.4-.479-.1-.126-.2-.252-.3-.379-.118-.165-.221-.332-.323-.5-.076-.125-.158-.248-.225-.373-.094-.176-.168-.353-.244-.53-.051-.119-.11-.237-.153-.356a5.651,5.651,0,0,1-.165-.6c-.023-.1-.059-.2-.077-.3a5.214,5.214,0,0,1-.083-.908h0v58.1a5.255,5.255,0,0,0,.083.91c.018.1.054.2.077.3a5.651,5.651,0,0,0,.165.6c.043.119.1.237.152.355.076.178.151.355.245.532.067.124.148.247.224.37.1.168.2.336.325.5.091.126.193.251.293.376.129.162.259.323.4.482.114.126.237.251.36.376.154.156.313.313.481.467.136.125.279.249.424.372.179.152.364.3.558.455q.235.183.484.365c.2.149.417.3.635.444.177.12.357.239.543.358.229.145.468.289.71.433.2.116.392.232.6.347.257.145.526.287.8.429.209.11.416.221.634.33.291.145.6.288.9.432.218.1.431.2.655.306.331.149.679.294,1.024.44.218.092.428.185.651.276.4.164.828.324,1.251.485.182.069.354.139.539.207q.924.339,1.9.667c.122.04.252.079.376.12.534.175,1.074.349,1.632.519q1.123.344,2.308.67l.214.056q1.084.3,2.217.579l.371.089q1.814.444,3.744.852l.418.091c1.121.233,2.274.455,3.449.668.3.055.608.108.914.162q1.273.224,2.587.431c.3.047.6.1.9.142,1.091.166,2.195.327,3.323.476l.223.028q1.533.2,3.109.381c.374.042.754.081,1.132.122q1.092.119,2.2.228.654.063,1.316.123,1.033.093,2.081.178c.45.036.9.072,1.352.106.713.053,1.433.1,2.156.147.433.028.864.057,1.3.083.779.046,1.566.085,2.354.123.383.018.762.04,1.148.056q1.557.067,3.139.113l.385.014q1.776.05,3.578.073,1.605.021,3.228.022c.585,0,1.162-.008,1.743-.012.79-.005,1.58-.013,2.364-.026q.664-.012,1.325-.028,1.377-.03,2.736-.077c.391-.013.783-.026,1.172-.041q2.259-.087,4.468-.216c.423-.025.841-.053,1.26-.08.686-.044,1.37-.088,2.048-.138.457-.034.911-.071,1.365-.107.65-.052,1.3-.106,1.941-.163.462-.041.921-.085,1.38-.129q.932-.088,1.851-.186.686-.072,1.364-.148.917-.1,1.819-.214c.435-.053.871-.107,1.3-.162.612-.08,1.215-.163,1.817-.247.4-.057.811-.112,1.211-.171.628-.092,1.244-.19,1.861-.288.361-.057.727-.112,1.084-.171.7-.116,1.38-.238,2.06-.36.259-.047.526-.091.783-.138q1.395-.26,2.741-.537c.089-.018.173-.038.262-.056.915-.191,1.808-.39,2.685-.593.292-.068.578-.138.866-.207q1.024-.246,2.013-.5c.309-.08.622-.16.926-.243.378-.1.747-.207,1.116-.312s.738-.21,1.1-.317.711-.217,1.061-.326c.309-.1.617-.194.919-.292q1.467-.48,2.816-.985c.187-.071.367-.143.551-.214q.993-.384,1.913-.783c.167-.072.341-.143.505-.217.669-.3,1.312-.6,1.92-.912.113-.058.216-.118.327-.176.462-.243.908-.488,1.332-.737.179-.1.349-.211.521-.318q.487-.3.936-.606c.167-.114.332-.228.49-.343.278-.2.538-.4.791-.61.135-.109.275-.218.4-.328.275-.237.524-.477.764-.719.074-.075.16-.149.232-.225a10.319,10.319,0,0,0,.809-.968c.058-.079.1-.16.155-.239a7.688,7.688,0,0,0,.465-.761c.061-.116.108-.233.161-.349a6,6,0,0,0,.271-.7c.038-.122.072-.245.1-.367a5.3,5.3,0,0,0,.129-.844c.009-.124.034-.248.034-.373V372.3Q-159.143,372.38-159.146,372.463Z" fill="#e83f24"/>
          <path id="Trazado_82781" data-name="Trazado 82781" d="M-225.408,354.037c-36.6,0-66.265,8.176-66.265,18.261s29.659,18.265,66.265,18.265c36.588,0,66.265-8.176,66.265-18.265S-188.82,354.037-225.408,354.037Z" fill="#ff6148"/>
        </g>
        <text id="Aplicación-2" data-name="Aplicación" transform="translate(-138.377 407.62)" fill="#00223d" font-size="17.832" font-family="SegoeUI, Segoe UI"><tspan x="0" y="0">Aplicación</tspan></text>
        <rect id="Rectángulo_26996" data-name="Rectángulo 26996" width="2.842" height="21.522" transform="translate(-148.688 389.72)" fill="#ff6148"/>
        <text id="Transporte-2" data-name="Transporte" transform="translate(-138.377 461.923)" fill="#00223d" font-size="17.832" font-family="SegoeUI, Segoe UI"><tspan x="0" y="0">Transporte</tspan></text>
        <rect id="Rectángulo_26997" data-name="Rectángulo 26997" width="2.842" height="21.522" transform="translate(-148.688 444.023)" fill="#00223d"/>
        <text id="Internet" transform="translate(-138.377 503.308)" fill="#00223d" font-size="17.832" font-family="SegoeUI, Segoe UI"><tspan x="0" y="0">Internet</tspan></text>
        <rect id="Rectángulo_26998" data-name="Rectángulo 26998" width="2.842" height="21.522" transform="translate(-148.688 485.408)" fill="#00223d"/>
        <text id="Física-2" data-name="Física" transform="translate(-138.377 553.993)" fill="#00223d" font-size="17.832" font-family="SegoeUI, Segoe UI"><tspan x="0" y="0">Física</tspan></text>
        <rect id="Rectángulo_26999" data-name="Rectángulo 26999" width="2.842" height="21.522" transform="translate(-148.688 536.093)" fill="#00223d"/>
      </g>
      <g id="Rectángulo_27001" data-name="Rectángulo 27001" transform="translate(373 13952)" fill="none" stroke="#ff6148" stroke-width="2">
        <rect width="154" height="40" rx="8" stroke="none"/>
        <rect x="1" y="1" width="152" height="38" rx="7" fill="none"/>
      </g>
      <g id="Rectángulo_27002" data-name="Rectángulo 27002" transform="translate(698 13952)" fill="none" stroke="#ff6148" stroke-width="2">
        <rect width="180" height="40" rx="8" stroke="none"/>
        <rect x="1" y="1" width="178" height="38" rx="7" fill="none"/>
      </g>
    </g>
  </g>
</svg>
