<svg xmlns="http://www.w3.org/2000/svg" width="86.465" height="86.465" viewBox="0 0 86.465 86.465">
  <g id="social_media" data-name="social media" transform="translate(-2 -2)">
    <path id="Trazado_771203" data-name="Trazado 771203" d="M56.947,57l1.412,5.764H47.09L48.5,57Z" transform="translate(19.888 24.259)" fill="#898890"/>
    <rect id="Rect치ngulo_356242" data-name="Rect치ngulo 356242" width="17" height="29" rx="2" transform="translate(64 3)" fill="#00d7df"/>
    <path id="Trazado_771204" data-name="Trazado 771204" d="M69.822,53v2.882a2.891,2.891,0,0,1-2.882,2.882H43.882A2.891,2.891,0,0,1,41,55.882V53Z" transform="translate(17.202 22.495)" fill="#57a4ff"/>
    <path id="Trazado_771205" data-name="Trazado 771205" d="M69.822,45.882V57.411H41V45.882A2.891,2.891,0,0,1,43.882,43H66.939A2.891,2.891,0,0,1,69.822,45.882Z" transform="translate(17.202 18.084)" fill="#00d7df"/>
    <g id="Grupo_1043986" data-name="Grupo 1043986" transform="translate(3.441 17.852)">
      <path id="Trazado_771206" data-name="Trazado 771206" d="M44.479,35.233h-6.73a23.412,23.412,0,0,0-1.369-8.185,14.137,14.137,0,0,0,3.473-2.378A14.293,14.293,0,0,1,44.479,35.233Z" transform="translate(11.723 -7.853)" fill="#57a4ff"/>
      <path id="Trazado_771207" data-name="Trazado 771207" d="M37.749,32h6.73a14.293,14.293,0,0,1-4.626,10.563,14.137,14.137,0,0,0-3.473-2.378A23.412,23.412,0,0,0,37.749,32Z" transform="translate(11.723 -4.62)" fill="#57a4ff"/>
      <path id="Trazado_771208" data-name="Trazado 771208" d="M39.681,34.505H32v-6.73a14.258,14.258,0,0,0,6.312-1.455,23.412,23.412,0,0,1,1.369,8.185Z" transform="translate(9.791 -7.125)" fill="#57a4ff"/>
      <path id="Trazado_771209" data-name="Trazado 771209" d="M32,32h7.681a23.412,23.412,0,0,1-1.369,8.185A14.258,14.258,0,0,0,32,38.73Z" transform="translate(9.791 -4.62)" fill="#57a4ff"/>
      <path id="Trazado_771210" data-name="Trazado 771210" d="M41.661,25.843a14.137,14.137,0,0,1-3.473,2.378c-1.3-3.574-3.459-5.966-5.908-6.211A14.239,14.239,0,0,1,41.661,25.843Z" transform="translate(9.915 -9.026)" fill="#57a4ff"/>
      <path id="Trazado_771211" data-name="Trazado 771211" d="M38.188,37.68a14.137,14.137,0,0,1,3.473,2.378,14.239,14.239,0,0,1-9.381,3.833c2.45-.245,4.611-2.637,5.908-6.211Z" transform="translate(9.915 -2.114)" fill="#57a4ff"/>
      <path id="Trazado_771212" data-name="Trazado 771212" d="M38.312,28.226A14.258,14.258,0,0,1,32,29.681V22a3.913,3.913,0,0,1,.4.014c2.45.245,4.611,2.637,5.908,6.211Z" transform="translate(9.791 -9.03)" fill="#57a4ff"/>
      <path id="Trazado_771213" data-name="Trazado 771213" d="M32,36.67a14.258,14.258,0,0,1,6.312,1.455c-1.3,3.574-3.459,5.966-5.908,6.211a3.914,3.914,0,0,1-.4.014Z" transform="translate(9.791 -2.56)" fill="#57a4ff"/>
      <path id="Trazado_771214" data-name="Trazado 771214" d="M33.932,36.67v7.681a3.914,3.914,0,0,1-.4-.014c-2.45-.245-4.611-2.637-5.908-6.211a14.258,14.258,0,0,1,6.312-1.455Z" transform="translate(7.859 -2.56)" fill="#57a4ff"/>
      <path id="Trazado_771215" data-name="Trazado 771215" d="M34.351,32v6.73a14.258,14.258,0,0,0-6.312,1.455A23.412,23.412,0,0,1,26.671,32Z" transform="translate(7.44 -4.62)" fill="#57a4ff"/>
      <path id="Trazado_771216" data-name="Trazado 771216" d="M34.351,27.775v6.73H26.671A23.412,23.412,0,0,1,28.04,26.32a14.258,14.258,0,0,0,6.312,1.455Z" transform="translate(7.44 -7.125)" fill="#57a4ff"/>
      <path id="Trazado_771217" data-name="Trazado 771217" d="M33.932,22v7.681a14.258,14.258,0,0,1-6.312-1.455c1.3-3.574,3.459-5.966,5.908-6.211a3.913,3.913,0,0,1,.4-.014Z" transform="translate(7.859 -9.03)" fill="#57a4ff"/>
      <path id="Trazado_771218" data-name="Trazado 771218" d="M34.591,22.01c-2.45.245-4.611,2.637-5.908,6.211a14.137,14.137,0,0,1-3.473-2.378,14.239,14.239,0,0,1,9.381-3.833Z" transform="translate(6.796 -9.026)" fill="#57a4ff"/>
      <path id="Trazado_771219" data-name="Trazado 771219" d="M28.683,37.68c1.3,3.574,3.459,5.966,5.908,6.211a14.239,14.239,0,0,1-9.381-3.833A14.137,14.137,0,0,1,28.683,37.68Z" transform="translate(6.796 -2.114)" fill="#57a4ff"/>
      <path id="Trazado_771220" data-name="Trazado 771220" d="M30.1,27.048a23.412,23.412,0,0,0-1.369,8.185H22A14.293,14.293,0,0,1,26.626,24.67,14.137,14.137,0,0,0,30.1,27.048Z" transform="translate(5.38 -7.853)" fill="#57a4ff"/>
      <path id="Trazado_771221" data-name="Trazado 771221" d="M28.73,32A23.412,23.412,0,0,0,30.1,40.185a14.137,14.137,0,0,0-3.473,2.378A14.293,14.293,0,0,1,22,32Z" transform="translate(5.38 -4.62)" fill="#57a4ff"/>
      <path id="Trazado_771222" data-name="Trazado 771222" d="M31.822,13v2.882a2.891,2.891,0,0,1-2.882,2.882H5.882A2.891,2.891,0,0,1,3,15.882V13Z" transform="translate(-3 -13)" fill="#57a4ff"/>
    </g>
    <path id="Trazado_771223" data-name="Trazado 771223" d="M31.822,5.882V17.411H3V5.882A2.891,2.891,0,0,1,5.882,3H28.939a2.891,2.891,0,0,1,2.882,2.882Z" transform="translate(0.441 0.441)" fill="#00d7df"/>
    <rect id="Rect치ngulo_356243" data-name="Rect치ngulo 356243" width="17" height="29" rx="2" transform="translate(9 58)" fill="#00d7df"/>
    <path id="Trazado_771224" data-name="Trazado 771224" d="M21.646,43.882V66.939a2.891,2.891,0,0,1-2.882,2.882H13a2.891,2.891,0,0,0,2.882-2.882V43.882A2.891,2.891,0,0,0,13,41h5.764a2.891,2.891,0,0,1,2.882,2.882Z" transform="translate(4.852 17.202)" fill="#009698"/>
    <path id="Trazado_771225" data-name="Trazado 771225" d="M59.646,5.882V28.939a2.891,2.891,0,0,1-2.882,2.882H51a2.891,2.891,0,0,0,2.882-2.882V5.882A2.891,2.891,0,0,0,51,3h5.764a2.891,2.891,0,0,1,2.882,2.882Z" transform="translate(21.613 0.441)" fill="#009698"/>
    <path id="Trazado_771226" data-name="Trazado 771226" d="M18.646,41v1.441a2.891,2.891,0,0,1-2.882,2.882H12.882A2.891,2.891,0,0,1,10,42.441V41Z" transform="translate(3.529 17.202)" fill="#ffde55"/>
    <path id="Trazado_771227" data-name="Trazado 771227" d="M56.646,3V4.441a2.891,2.891,0,0,1-2.882,2.882H50.882A2.891,2.891,0,0,1,48,4.441V3Z" transform="translate(20.29 0.441)" fill="#ffde55"/>
    <path id="Trazado_771228" data-name="Trazado 771228" d="M63.646,53v2.882a2.891,2.891,0,0,1-2.882,2.882H55a2.891,2.891,0,0,0,2.882-2.882V53Z" transform="translate(23.377 22.495)" fill="#006df0"/>
    <path id="Trazado_771229" data-name="Trazado 771229" d="M63.646,45.882V57.411H57.882V45.882A2.891,2.891,0,0,0,55,43h5.764A2.891,2.891,0,0,1,63.646,45.882Z" transform="translate(23.377 18.084)" fill="#009698"/>
    <path id="Trazado_771230" data-name="Trazado 771230" d="M56.665,62.764H52.342L50.93,57h4.323Z" transform="translate(21.582 24.259)" fill="#2d2d30"/>
    <path id="Trazado_771231" data-name="Trazado 771231" d="M18.947,17l1.412,5.764H9.09L10.5,17Z" transform="translate(3.127 6.616)" fill="#898890"/>
    <path id="Trazado_771232" data-name="Trazado 771232" d="M25.646,13v2.882a2.891,2.891,0,0,1-2.882,2.882H17a2.891,2.891,0,0,0,2.882-2.882V13Z" transform="translate(6.616 4.852)" fill="#006df0"/>
    <path id="Trazado_771233" data-name="Trazado 771233" d="M25.646,5.882V17.411H19.882V5.882A2.891,2.891,0,0,0,17,3h5.764a2.891,2.891,0,0,1,2.882,2.882Z" transform="translate(6.616 0.441)" fill="#009698"/>
    <path id="Trazado_771234" data-name="Trazado 771234" d="M18.665,22.764H14.342L12.93,17h4.323Z" transform="translate(4.821 6.616)" fill="#2d2d30"/>
    <path id="Trazado_771235" data-name="Trazado 771235" d="M21.852,40H10.323A4.336,4.336,0,0,0,6,44.323V67.38A4.336,4.336,0,0,0,10.323,71.7H21.852a4.336,4.336,0,0,0,4.323-4.323V44.323A4.336,4.336,0,0,0,21.852,40ZM18.97,42.882a1.441,1.441,0,0,1-1.441,1.441H14.646a1.441,1.441,0,0,1-1.441-1.441Zm4.323,24.5a1.441,1.441,0,0,1-1.441,1.441H10.323A1.441,1.441,0,0,1,8.882,67.38V44.323a1.441,1.441,0,0,1,1.441-1.441,4.336,4.336,0,0,0,4.323,4.323h2.882a4.336,4.336,0,0,0,4.323-4.323,1.441,1.441,0,0,1,1.441,1.441Z" transform="translate(1.764 16.761)"/>
    <path id="Trazado_771236" data-name="Trazado 771236" d="M59.852,2H48.323A4.336,4.336,0,0,0,44,6.323V29.38A4.336,4.336,0,0,0,48.323,33.7H59.852a4.336,4.336,0,0,0,4.323-4.323V6.323A4.336,4.336,0,0,0,59.852,2ZM56.97,4.882a1.441,1.441,0,0,1-1.441,1.441H52.646a1.441,1.441,0,0,1-1.441-1.441Zm4.323,24.5a1.441,1.441,0,0,1-1.441,1.441H48.323a1.441,1.441,0,0,1-1.441-1.441V6.323a1.441,1.441,0,0,1,1.441-1.441,4.336,4.336,0,0,0,4.323,4.323h2.882a4.336,4.336,0,0,0,4.323-4.323,1.441,1.441,0,0,1,1.441,1.441Z" transform="translate(18.525 0)"/>
    <path id="Trazado_771237" data-name="Trazado 771237" d="M67.38,42H44.323A4.336,4.336,0,0,0,40,46.323V60.734a4.336,4.336,0,0,0,4.323,4.323h5.462l-.966,3.977a1.415,1.415,0,0,0,.259,1.239,1.441,1.441,0,0,0,1.138.548H61.486a1.441,1.441,0,0,0,1.138-.548,1.415,1.415,0,0,0,.259-1.239l-.966-3.977H67.38A4.336,4.336,0,0,0,71.7,60.734V46.323A4.336,4.336,0,0,0,67.38,42ZM52.047,67.939l.706-2.882h6.2l.706,2.882Zm16.774-7.205a1.441,1.441,0,0,1-1.441,1.441H44.323a1.441,1.441,0,0,1-1.441-1.441V59.293H68.822Zm0-4.323H42.882V46.323a1.441,1.441,0,0,1,1.441-1.441H67.38a1.441,1.441,0,0,1,1.441,1.441Z" transform="translate(16.761 17.643)"/>
    <path id="Trazado_771238" data-name="Trazado 771238" d="M29.38,2H6.323A4.336,4.336,0,0,0,2,6.323V20.734a4.336,4.336,0,0,0,4.323,4.323h5.462l-.966,3.977a1.415,1.415,0,0,0,.259,1.239,1.441,1.441,0,0,0,1.138.548H23.486a1.441,1.441,0,0,0,1.138-.548,1.415,1.415,0,0,0,.259-1.239l-.966-3.977H29.38A4.336,4.336,0,0,0,33.7,20.734V6.323A4.336,4.336,0,0,0,29.38,2ZM14.047,27.939l.706-2.882h6.2l.706,2.882Zm16.774-7.205a1.441,1.441,0,0,1-1.441,1.441H6.323a1.441,1.441,0,0,1-1.441-1.441V19.293H30.822Zm0-4.323H4.882V6.323A1.441,1.441,0,0,1,6.323,4.882H29.38a1.441,1.441,0,0,1,1.441,1.441Z" transform="translate(0 0)"/>
    <path id="Trazado_771239" data-name="Trazado 771239" d="M22.088,31.205H16.323a1.441,1.441,0,0,1-1.441-1.441V24H12v5.764a4.323,4.323,0,0,0,4.323,4.323h5.764Z" transform="translate(4.411 9.704)"/>
    <path id="Trazado_771240" data-name="Trazado 771240" d="M12,37.323v2.882h2.882V37.323a1.441,1.441,0,0,1,1.441-1.441h5.764V33H16.323A4.323,4.323,0,0,0,12,37.323Z" transform="translate(4.411 13.673)"/>
    <path id="Trazado_771241" data-name="Trazado 771241" d="M55.088,43.088V37.323A4.323,4.323,0,0,0,50.764,33H45v2.882h5.764a1.441,1.441,0,0,1,1.441,1.441v5.764Z" transform="translate(18.966 13.673)"/>
    <path id="Trazado_771242" data-name="Trazado 771242" d="M55.088,26H52.205v2.882a1.441,1.441,0,0,1-1.441,1.441H45v2.882h5.764a4.323,4.323,0,0,0,4.323-4.323Z" transform="translate(18.966 10.586)"/>
    <path id="Trazado_771243" data-name="Trazado 771243" d="M36.852,21A15.852,15.852,0,1,0,52.7,36.852,15.852,15.852,0,0,0,36.852,21ZM49.737,35.411h-3.8a25.4,25.4,0,0,0-1.009-6.067,15.833,15.833,0,0,0,1.614-1.089A12.912,12.912,0,0,1,49.737,35.411ZM38.293,24.3a7.963,7.963,0,0,1,2.979,3.6,12.9,12.9,0,0,1-2.979.695Zm5.074,1.355c.334.2.66.4.976.628-.157.112-.314.226-.476.331-.16-.331-.326-.653-.5-.96ZM35.411,24.3v4.3a12.9,12.9,0,0,1-2.979-.7,7.963,7.963,0,0,1,2.979-3.6Zm-5.574,2.32c-.161-.105-.318-.219-.476-.331.316-.225.641-.432.976-.628C30.162,25.962,30,26.283,29.837,26.62ZM35.411,31.5v3.911H30.655a22.458,22.458,0,0,1,.777-4.812A15.708,15.708,0,0,0,35.411,31.5Zm0,6.793V42.2a15.708,15.708,0,0,0-3.986.9,22.458,22.458,0,0,1-.77-4.812Zm0,6.813v4.3a7.963,7.963,0,0,1-2.979-3.6,12.9,12.9,0,0,1,2.979-.695Zm-5.074,2.943c-.334-.2-.66-.4-.976-.628.157-.112.314-.226.476-.331C30,47.421,30.162,47.742,30.337,48.049ZM38.293,49.4v-4.3a12.9,12.9,0,0,1,2.979.7,7.963,7.963,0,0,1-2.979,3.6Zm5.574-2.32c.161.105.318.219.476.331-.316.225-.641.432-.976.628.174-.3.34-.623.5-.96ZM38.293,42.2V38.293h4.763a22.458,22.458,0,0,1-.777,4.812A15.708,15.708,0,0,0,38.293,42.2Zm0-6.793V31.5a15.708,15.708,0,0,0,3.986-.9,22.458,22.458,0,0,1,.777,4.812ZM27.168,28.254a15.832,15.832,0,0,0,1.614,1.089,25.405,25.405,0,0,0-1.009,6.067H23.967A12.912,12.912,0,0,1,27.168,28.254Zm-3.2,10.039h3.806a25.4,25.4,0,0,0,1.009,6.067,15.832,15.832,0,0,0-1.614,1.089A12.912,12.912,0,0,1,23.967,38.293Zm22.569,7.156a15.832,15.832,0,0,0-1.614-1.089,25.4,25.4,0,0,0,1.009-6.067h3.8a12.912,12.912,0,0,1-3.193,7.156Z" transform="translate(8.38 8.38)"/>
  </g>
</svg>
