<svg xmlns="http://www.w3.org/2000/svg" width="35.534" height="38.31" viewBox="0 0 35.534 38.31"><g transform="translate(0)"><path d="M-482.26,77.671c.235.073.476.13.7.22a3.406,3.406,0,0,1,2.365,3.151c.076,1.692.063,3.391.02,5.085a3.51,3.51,0,0,1-2.629,3.379c-.206.063-.279.154-.267.364.018.311-.091.68.043.917.114.2.5.247.757.376a3.4,3.4,0,0,1,2.077,3.012c.066,1.73.062,3.466.012,5.2a3.5,3.5,0,0,1-2.6,3.289c-.213.064-.309.153-.294.384.019.3-.092.655.038.88.118.2.485.262.74.389a3.408,3.408,0,0,1,2.1,3.035c.064,1.755.066,3.516,0,5.272a3.537,3.537,0,0,1-3.482,3.345c-1.6.027-3.192.009-4.788.007-.424,0-.684-.23-.678-.578s.258-.552.7-.553c1.471,0,2.943-.032,4.413.01a2.583,2.583,0,0,0,2.735-2.73c-.057-1.457-.008-2.917-.016-4.376a2.467,2.467,0,0,0-2.63-2.616q-13.97,0-27.94,0a2.5,2.5,0,0,0-2.645,2.656q-.005,2.188,0,4.376a2.514,2.514,0,0,0,2.7,2.68q10.3,0,20.609,0a3.8,3.8,0,0,1,.411.007.52.52,0,0,1,.513.538.531.531,0,0,1-.475.576,1.6,1.6,0,0,1-.336.011q-10.361,0-20.722,0a3.624,3.624,0,0,1-3.833-3.815c0-1.359.048-2.72-.013-4.076a3.771,3.771,0,0,1,2.913-4.037v-1.233a10.709,10.709,0,0,1-1.244-.6,3.432,3.432,0,0,1-1.649-2.975c-.024-1.558-.011-3.117-.008-4.675a3.616,3.616,0,0,1,2.695-3.608c.06-.018.118-.04.2-.067v-1.3a3.7,3.7,0,0,1-2.112-1.314,3.5,3.5,0,0,1-.778-2.214q-.01-2.356,0-4.713a3.608,3.608,0,0,1,2.97-3.609,1.168,1.168,0,0,0,.172-.064Zm-28.33,13.164h.487l6.209,0a1.758,1.758,0,0,1,.373.012.53.53,0,0,1,.467.582.524.524,0,0,1-.484.528,2.293,2.293,0,0,1-.373.009c-2.331,0-4.663,0-6.994,0a2.5,2.5,0,0,0-2.614,2.613q-.008,2.225,0,4.451a2.5,2.5,0,0,0,2.653,2.648q13.97,0,27.94,0A2.483,2.483,0,0,0-480.3,99.05q.008-2.207,0-4.414a3.365,3.365,0,0,0-.056-.706,2.475,2.475,0,0,0-2.561-1.964q-9.033,0-18.066,0a3.016,3.016,0,0,1-.411-.008.525.525,0,0,1-.5-.557.528.528,0,0,1,.5-.558,2.551,2.551,0,0,1,.374-.007l17.355,0h.426V89.678H-510.59Zm13.678-2.319q7.011,0,14.021,0a2.471,2.471,0,0,0,2.587-2.55q.016-2.3,0-4.6a2.467,2.467,0,0,0-2.576-2.561q-14.021-.007-28.042,0a2.5,2.5,0,0,0-2.6,2.589q-.011,2.206,0,4.412a2.507,2.507,0,0,0,2.736,2.71Zm13.674,15.462v-1.145h-27.347v1.145Z" transform="translate(514.672 -77.671)" fill="#00223d"/><path d="M-358.393,517.925h-9.345a2.648,2.648,0,0,1-.41-.012.527.527,0,0,1-.485-.566.535.535,0,0,1,.471-.545,1.4,1.4,0,0,1,.3-.009l18.952,0a1.879,1.879,0,0,1,.336.009.536.536,0,0,1,.485.57.526.526,0,0,1-.508.546,2.921,2.921,0,0,1-.336.009Z" transform="translate(379.581 -483.872)" fill="#00223d"/><path d="M-358.376,485.5H-349c.6,0,.878.186.872.572s-.29.566-.886.566l-18.762,0a2.541,2.541,0,0,1-.41-.013.558.558,0,0,1-.491-.605.528.528,0,0,1,.541-.513c.423-.015.847-.011,1.27-.011h8.484Z" transform="translate(379.62 -454.926)" fill="#00223d"/><path d="M-463.12,480.247a2.313,2.313,0,0,1-2.3,2.31,2.314,2.314,0,0,1-2.305-2.339,2.3,2.3,0,0,1,2.316-2.286A2.3,2.3,0,0,1-463.12,480.247Zm-1.139-.007a1.174,1.174,0,0,0-1.157-1.17,1.181,1.181,0,0,0-1.172,1.158,1.176,1.176,0,0,0,1.178,1.188A1.174,1.174,0,0,0-464.259,480.239Z" transform="translate(471.244 -447.929)" fill="#00223d"/><path d="M-432.8,414.5h-27.347v-1.145H-432.8Z" transform="translate(464.239 -388.197)" fill="#fff"/><path d="M-450.233,494.274a1.174,1.174,0,0,1-1.151,1.177,1.176,1.176,0,0,1-1.178-1.189,1.181,1.181,0,0,1,1.172-1.158A1.174,1.174,0,0,1-450.233,494.274Z" transform="translate(457.218 -461.964)" fill="#ff6148"/><path d="M-358.417,342.34h-9.344c-.125,0-.25,0-.374-.007a.559.559,0,0,1-.543-.554.57.57,0,0,1,.533-.57,2.578,2.578,0,0,1,.3,0l18.838,0c.595,0,.878.182.883.567s-.275.57-.873.571Z" transform="translate(379.622 -321.448)" fill="#00223d"/><path d="M-358.389,311.061h-9.382a1.693,1.693,0,0,1-.409-.02.533.533,0,0,1-.445-.6.511.511,0,0,1,.507-.5c.323-.02.647-.014.971-.014l18.2,0c.594,0,.876.19.865.578s-.285.557-.854.557h-9.457Z" transform="translate(379.575 -292.511)" fill="#00223d"/><path d="M-467.729,304.617a2.306,2.306,0,0,1,2.343-2.3,2.309,2.309,0,0,1,2.262,2.344,2.309,2.309,0,0,1-2.326,2.281A2.309,2.309,0,0,1-467.729,304.617Zm1.137.03a1.181,1.181,0,0,0,1.172,1.16,1.179,1.179,0,0,0,1.157-1.21,1.172,1.172,0,0,0-1.188-1.138A1.179,1.179,0,0,0-466.592,304.647Z" transform="translate(471.248 -285.479)" fill="#00223d"/><path d="M-358.416,166.719h-9.306c-.137,0-.275,0-.411-.007a.536.536,0,0,1-.534-.522.556.556,0,0,1,.5-.6,2.158,2.158,0,0,1,.336-.011l18.874,0a2.055,2.055,0,0,1,.336.011.569.569,0,0,1,.5.6.531.531,0,0,1-.538.519c-.461.015-.922.012-1.383.012h-8.372Z" transform="translate(379.614 -158.989)" fill="#00223d"/><path d="M-361.418,134.332h6.24c.124,0,.25,0,.373.008a.538.538,0,0,1,.525.533.565.565,0,0,1-.511.589,2.5,2.5,0,0,1-.336.008h-12.667a1.727,1.727,0,0,1-.335-.012.535.535,0,0,1-.483-.571.52.52,0,0,1,.506-.544,5.75,5.75,0,0,1,.6-.013h6.09Z" transform="translate(379.561 -130.081)" fill="#00223d"/><path d="M-467.761,128.976a2.322,2.322,0,0,1,2.324-2.288,2.315,2.315,0,0,1,2.283,2.363,2.3,2.3,0,0,1-2.341,2.263A2.307,2.307,0,0,1-467.761,128.976Zm3.469.043a1.168,1.168,0,0,0-1.14-1.185,1.175,1.175,0,0,0-1.19,1.177,1.182,1.182,0,0,0,1.161,1.17A1.182,1.182,0,0,0-464.292,129.019Z" transform="translate(471.277 -123.014)" fill="#00223d"/><path d="M-159.6,135.5c-.61,0-1.22,0-1.83,0-.438,0-.689-.208-.7-.556-.009-.364.244-.576.708-.577q1.83,0,3.66,0c.437,0,.693.209.7.552s-.267.581-.714.583C-158.379,135.5-158.989,135.5-159.6,135.5Z" transform="translate(188.553 -130.114)" fill="#00223d"/><path d="M-452.564,318.714a1.179,1.179,0,0,1,1.142-1.189,1.172,1.172,0,0,1,1.188,1.138,1.179,1.179,0,0,1-1.158,1.21A1.181,1.181,0,0,1-452.564,318.714Z" transform="translate(457.219 -299.546)" fill="#ff6148"/><path d="M-450.24,143.155a1.182,1.182,0,0,1-1.169,1.162,1.182,1.182,0,0,1-1.161-1.17,1.175,1.175,0,0,1,1.19-1.177A1.168,1.168,0,0,1-450.24,143.155Z" transform="translate(457.225 -137.15)" fill="#ff6148"/></g></svg>