<svg xmlns="http://www.w3.org/2000/svg" width="37.566" height="48.182" viewBox="0 0 37.566 48.182">
  <g id="Grupo_29097" data-name="Grupo 29097" transform="translate(0 0)">
    <path id="Trazado_69039" data-name="Trazado 69039" d="M1052.736,880.362c0-.474-.008-.878,0-1.282q.1-4.079.2-8.157c.02-.718.1-1.435.113-2.153q.066-3.294.094-6.589a.7.7,0,0,0-.22-.421,2.7,2.7,0,1,1,4.194-3.334,2.673,2.673,0,0,1-.375,3.292.8.8,0,0,0-.256.654c.059,2.028.107,4.057.16,6.085q.148,5.707.3,11.413c0,.142.016.284.028.492h.943a2.781,2.781,0,0,1,2.915,2.913q.007,4.006,0,8.013a2.759,2.759,0,0,1-2.9,2.877h-31.736a2.76,2.76,0,0,1-2.919-2.9q-.007-3.987,0-7.973a2.785,2.785,0,0,1,2.938-2.93h26.525Zm-10.674,12.181c5.209,0,10.418-.014,15.627.012a1.34,1.34,0,0,0,1.529-1.547c-.045-2.564-.013-5.13-.016-7.7a1.178,1.178,0,0,0-1.334-1.325q-15.823,0-31.647,0a1.171,1.171,0,0,0-1.317,1.3q0,3.985,0,7.971a1.553,1.553,0,0,0,.129.642,1.208,1.208,0,0,0,1.24.643Q1034.17,892.538,1042.062,892.543Zm12.813-29.653-.079-.016c-.006.063-.015.126-.017.189q-.1,3.779-.2,7.557c-.081,3.1-.156,6.2-.247,9.293-.01.331.052.471.418.455.582-.027.586,0,.575-.449-.046-1.831-.1-3.661-.139-5.492-.036-1.8-.046-3.595-.082-5.392-.013-.651-.085-1.3-.107-1.953C1054.947,865.685,1054.914,864.288,1054.875,862.89Zm1.016-3.047a1.051,1.051,0,0,0-1.028-1.064,1.059,1.059,0,1,0-.052,2.117A1.052,1.052,0,0,0,1055.891,859.844Z" transform="translate(-1023.271 -845.983)" fill="#00223d"/>
    <path id="Trazado_69040" data-name="Trazado 69040" d="M1239.61,728.823a16.358,16.358,0,0,1,.928-4.97,15.056,15.056,0,0,1,7.388-8.569,1.5,1.5,0,0,1,.7-.2.715.715,0,0,1,.688.6.767.767,0,0,1-.386.9c-.43.249-.875.473-1.3.737a13.055,13.055,0,0,0-4.669,5.035,15,15,0,0,0-.819,1.834,13.318,13.318,0,0,0,.054,9.453c.059.159.129.315.183.476a.814.814,0,0,1-.423,1.052.776.776,0,0,1-1.069-.445,20.866,20.866,0,0,1-.855-2.726C1239.817,730.96,1239.746,729.885,1239.61,728.823Z" transform="translate(-1222.614 -715.086)" fill="#ff6148"/>
    <path id="Trazado_69041" data-name="Trazado 69041" d="M1297.688,767.922l.276.084a2.786,2.786,0,0,1,.973-1.752,10.439,10.439,0,0,1,2.952-2.115.8.8,0,0,1,1.2.676.885.885,0,0,1-.6.84,8.716,8.716,0,0,0-2.718,2.095,9.163,9.163,0,0,0-1.737,9.574c.034.1.081.193.115.292a.8.8,0,0,1-.438,1.073.775.775,0,0,1-1.058-.464,19.361,19.361,0,0,1-.738-2.6,9.572,9.572,0,0,1,.258-4.583,6.337,6.337,0,0,1,1.4-2.873A.816.816,0,0,0,1297.688,767.922Z" transform="translate(-1274.344 -760.197)" fill="#ff6148"/>
    <path id="Trazado_69042" data-name="Trazado 69042" d="M1351.137,819.186a6.562,6.562,0,0,1,3.678-5.909.823.823,0,0,1,1.287.459.765.765,0,0,1-.356.88c-.187.119-.393.208-.583.324a4.95,4.95,0,0,0-2.013,6.128c.224.56.149.951-.229,1.187a.811.811,0,0,1-1.2-.4A6.364,6.364,0,0,1,1351.137,819.186Z" transform="translate(-1325.379 -805.434)" fill="#ff6148"/>
    <path id="Trazado_69044" data-name="Trazado 69044" d="M1419.131,930.1c.039,1.4.072,2.795.119,4.192.022.651.094,1.3.107,1.953.036,1.8.046,3.595.082,5.392.037,1.831.093,3.661.139,5.492.011.445.006.422-.575.449-.367.017-.428-.124-.418-.455.091-3.1.165-6.2.247-9.293q.1-3.779.2-7.557c0-.063.011-.126.017-.189Z" transform="translate(-1387.527 -913.193)" fill="#fff"/>
    <path id="Trazado_69046" data-name="Trazado 69046" d="M1068.487,1215.566a2.12,2.12,0,0,1,2.121-2.154,2.136,2.136,0,1,1-2.121,2.154Zm2.215-.522a.512.512,0,0,0-.581.5.478.478,0,0,0,.489.5.5.5,0,0,0,.528-.506A.482.482,0,0,0,1070.7,1215.044Z" transform="translate(-1064.935 -1174.263)" fill="#00223d"/>
    <path id="Trazado_69047" data-name="Trazado 69047" d="M1140.767,1213.345a2.2,2.2,0,0,1,2.136,2.11,2.1,2.1,0,0,1-2.108,2.162,2.136,2.136,0,1,1-.028-4.272Zm.058,2.641a.484.484,0,0,0,.456-.506.51.51,0,0,0-1.019,0A.521.521,0,0,0,1140.825,1215.986Z" transform="translate(-1129.566 -1174.196)" fill="#00223d"/>
  </g>
</svg>
