<svg xmlns="http://www.w3.org/2000/svg" width="45.766" height="36.823" viewBox="0 0 45.766 36.823">
  <g id="Grupo_29094" data-name="Grupo 29094" transform="translate(0 0)">
    <path id="Trazado_69033" data-name="Trazado 69033" d="M260.165,601.628v3.978h-1.981q0-.819,0-1.637,0-2.151,0-4.3c0-1.4.009-2.794.009-4.191s-.008-2.794-.008-4.192.008-2.794.008-4.191-.008-2.794-.008-4.192.008-2.794.008-4.191-.006-2.794-.007-4.191c0-.829-.013-1.658.01-2.487a1.065,1.065,0,0,0-1.217-1.254c-1.183.01-2.366,0-3.549,0-.063,0-.126-.01-.206-.017v-1.967c.086,0,.175-.012.264-.012,1.258,0,2.515,0,3.772.011a2.95,2.95,0,0,1,2.909,2.932c0,1.657,0,3.315,0,5.007h38.82V601.62h-23.88v-3.94h-9.942v3.948ZM297,578.763H260.194v3.961h4.949v9.963h-4.957v6.939h2.975c0-.654,0-1.277,0-1.9a2.019,2.019,0,0,1,2.06-2.071q4.907,0,9.815,0a2.032,2.032,0,0,1,2.077,2.091c0,.623,0,1.245,0,1.889H297Zm-33.857,11.9V584.74h-2.953v5.926Z" transform="translate(-253.223 -568.783)" fill="#00223d"/>
    <path id="Trazado_69036" data-name="Trazado 69036" d="M722.848,796.524a1.207,1.207,0,0,0-.139-.02h-1.847v1.964H718.88V796.5h-1v-.988h-1.989V793.5h1.961v-1.967h-1.956v-2h1.962v-2h-1.964v-1.98h1.969v-1h1v-1.991h1.991v1.96h1.989v-1.956h2v1.959h1.976v-1.964h2.013v1.966h.994v1.014h1.974v1.989h-1.949v1.987h1.949v1.994H729.85v1.97h1.935V795.5h-1.95v.99h-.992v1.971h-2.016v-1.941h-1.97v1.949h-2.008Zm4.957-2.04v-7.925h-7.919v7.925Z" transform="translate(-690.009 -770.604)" fill="#00223d"/>
    <path id="Trazado_69037" data-name="Trazado 69037" d="M557.4,821.888a1.99,1.99,0,1,1,1.989-1.923A1.991,1.991,0,0,1,557.4,821.888Z" transform="translate(-538.49 -803.974)" fill="#00223d"/>
    <path id="Trazado_69038" data-name="Trazado 69038" d="M795.315,861.953H787.4v-7.925h7.919Z" transform="translate(-757.518 -838.073)" fill="#ff6148"/>
  </g>
</svg>
