<svg xmlns="http://www.w3.org/2000/svg" width="52.802" height="17.553" viewBox="0 0 52.802 17.553">
  <g id="Grupo_29098" data-name="Grupo 29098" transform="translate(0 0)">
    <rect id="Rectángulo_26580" data-name="Rectángulo 26580" width="3.287" height="2.191" transform="translate(46.199 8.79)" fill="#ff6148"/>
    <rect id="Rectángulo_26581" data-name="Rectángulo 26581" width="3.287" height="2.191" transform="translate(46.199 12.077)" fill="#ff6148"/>
    <rect id="Rectángulo_26582" data-name="Rectángulo 26582" width="3.287" height="2.191" transform="translate(39.626 8.79)" fill="#ff6148"/>
    <rect id="Rectángulo_26583" data-name="Rectángulo 26583" width="3.287" height="2.191" transform="translate(39.626 12.077)" fill="#ff6148"/>
    <rect id="Rectángulo_26584" data-name="Rectángulo 26584" width="2.191" height="2.191" transform="translate(35.244 10.981)" fill="#00223d"/>
    <rect id="Rectángulo_26585" data-name="Rectángulo 26585" width="2.191" height="2.191" transform="translate(30.706 10.981)" fill="#00223d"/>
    <rect id="Rectángulo_26586" data-name="Rectángulo 26586" width="2.191" height="2.191" transform="translate(26.48 10.981)" fill="#00223d"/>
    <rect id="Rectángulo_26587" data-name="Rectángulo 26587" width="2.191" height="2.191" transform="translate(22.098 10.981)" fill="#00223d"/>
    <rect id="Rectángulo_26588" data-name="Rectángulo 26588" width="2.191" height="2.191" transform="translate(17.716 10.981)" fill="#00223d"/>
    <rect id="Rectángulo_26589" data-name="Rectángulo 26589" width="2.191" height="2.191" transform="translate(13.334 10.981)" fill="#00223d"/>
    <rect id="Rectángulo_26590" data-name="Rectángulo 26590" width="2.191" height="2.191" transform="translate(8.796 10.981)" fill="#00223d"/>
    <rect id="Rectángulo_26591" data-name="Rectángulo 26591" width="2.191" height="2.191" transform="translate(4.413 10.981)" fill="#00223d"/>
    <path id="Trazado_69062" data-name="Trazado 69062" d="M3069.54,2162.889h-52.682c-.017-.25-.044-.475-.044-.7,0-3.574.008-7.147-.014-10.721a.989.989,0,0,1,.575-.979c2.645-1.568,5.266-3.179,7.92-4.733a3.057,3.057,0,0,1,1.473-.4q16.313-.033,32.626,0a2.986,2.986,0,0,1,1.4.382q4.116,2.332,8.182,4.75a1.269,1.269,0,0,1,.6.855c.042,3.729.031,7.46.03,11.19A2.515,2.515,0,0,1,3069.54,2162.889Zm-2.142-9.795h-48.346v7.6H3067.4Zm-46.268-2.314h43.8c-1.719-1.141-3.468-2.163-5.234-3.153a1.785,1.785,0,0,0-.836-.127q-15.809-.008-31.617,0a1.876,1.876,0,0,0-.906.155C3024.656,2148.638,3022.993,2149.657,3021.131,2150.78Z" transform="translate(-3016.8 -2145.336)" fill="#00223d"/>
  </g>
</svg>
