<svg xmlns="http://www.w3.org/2000/svg" width="49.852" height="47.217" viewBox="0 0 49.852 47.217">
  <g id="Grupo_29101" data-name="Grupo 29101" transform="translate(0 0)">
    <path id="Trazado_69079" data-name="Trazado 69079" d="M5100.611,2954.4v2.526h.238c.9,0,1.807,0,2.71,0a1.537,1.537,0,0,1,1.537.809,1.737,1.737,0,0,1,.171.691c.023.591.007,1.183.007,1.81h24.9a1.566,1.566,0,0,1,1.563,1.31,9.508,9.508,0,0,1,0,2,1.524,1.524,0,0,1-1.493,1.326c-.5.022-1.009,0-1.538,0v16.759a1.622,1.622,0,0,1-1.7,1.706q-3.414,0-6.828,0h-28.053c-1.784,0-3.568-.023-5.352.008a1.722,1.722,0,0,1-1.76-1.755c.021-5.448.01-10.9.01-16.344v-.369c-.445,0-.872-.017-1.3,0a1.678,1.678,0,0,1-1.789-1.8c.026-.512-.013-1.032.053-1.538a1.582,1.582,0,0,1,1.561-1.316c1.488,0,2.977,0,4.465,0h.223V2960c0-.507,0-1.013,0-1.52a1.485,1.485,0,0,1,1.539-1.554c.661-.008,1.322.014,1.983.02.373,0,.746,0,1.132,0v-2.55h-.265l-7.646,0a1.161,1.161,0,0,1-1.23-1.229q0-6.43,0-12.86a2.547,2.547,0,0,1,2.522-2.514c2.408-.01,4.816,0,7.225,0,.358,0,.717-.005,1.075,0,.138,0,.192-.038.236-.182a2.02,2.02,0,0,1,3.3-.963,1.813,1.813,0,0,1,.595.957c.041.163.11.185.254.185q4.069-.005,8.137,0a2.574,2.574,0,0,1,2.64,2.194,2.177,2.177,0,0,1,.024.4c0,4.232-.009,8.464.011,12.7a1.285,1.285,0,0,1-1.34,1.333c-2.508-.026-5.017-.009-7.526-.009Zm26.6,15.507v-4.674c0-.341-.008-.35-.355-.35h-39.983c-.338,0-.347.01-.347.335v16.25c0,.377,0,.377.388.377h39.98c.317,0,.318,0,.318-.308q0-2.642,0-5.284c0-.075-.008-.15-.013-.239h-6.023a2.411,2.411,0,0,1-.3-.012.677.677,0,0,1-.6-.48.731.731,0,0,1,.15-.762.966.966,0,0,1,.8-.246h5.985V2971.4h-.331l-9.983-.009c-.942,0-1.885,0-2.828.009a.791.791,0,0,1-.647-.264.709.709,0,0,1-.123-.785.724.724,0,0,1,.724-.451q2.629,0,5.258,0h7.939Zm-20.342-6.526h22.63c.18,0,.359-.008.538,0s.267-.066.262-.259c-.009-.358,0-.717,0-1.075,0-.3-.018-.317-.319-.317q-8.591,0-17.185,0l-21.345,0h-7.692c-.3,0-.314.019-.315.322s0,.624,0,.936c0,.393,0,.393.381.393h23.05Zm1.4-10.487c0-.1.01-.166.01-.235q0-6.113,0-12.226a1.076,1.076,0,0,0-1.139-1.143q-4.243,0-8.486,0a.417.417,0,0,0-.284.137,2.037,2.037,0,0,1-3.176.007.369.369,0,0,0-.33-.152c-.833.006-1.667,0-2.5,0h-5.868a1.1,1.1,0,0,0-1.241,1.253q0,6.02,0,12.039v.312Zm-9.152,1.6h-4.7v3.937h-4.653v1.734h14.005v-1.745h-4.652Zm-1.822-16.317a.524.524,0,1,0-.523.51A.512.512,0,0,0,5097.285,2938.179Z" transform="translate(-5081.934 -2936.133)" fill="#00223d"/>
    <path id="Trazado_69081" data-name="Trazado 69081" d="M5137.412,3485.07h-23.05c-.384,0-.383,0-.381-.393,0-.312,0-.624,0-.935s.019-.322.314-.322h7.692l21.346,0,17.185,0c.3,0,.318.017.318.318,0,.358-.006.717,0,1.075,0,.192-.07.269-.262.259s-.358,0-.538,0h-22.63Z" transform="translate(-5112.482 -3457.823)" fill="#ff6148"/>
    <path id="Trazado_69083" data-name="Trazado 69083" d="M5258.508,3328.8v3.926h4.651v1.746h-14v-1.735h4.652V3328.8Z" transform="translate(-5241.334 -3310.437)" fill="#fff"/>
    <path id="Trazado_69084" data-name="Trazado 69084" d="M5388.834,2968.9a.524.524,0,0,1-1.048-.02.524.524,0,1,1,1.048.02Z" transform="translate(-5373.483 -2966.85)" fill="#ff6148"/>
    <path id="Trazado_69085" data-name="Trazado 69085" d="M5182.567,3037.341h-9.725c-.62,0-.893-.272-.894-.9q0-4.968,0-9.936a.739.739,0,0,1,.8-.8c1.542,0,3.084.016,4.627.015,2.422,0,4.844-.01,7.267-.013,2.548,0,5.1.007,7.645-.007a.837.837,0,0,1,.9.907c-.016,3.3-.007,6.593-.007,9.889a.764.764,0,0,1-.842.837Zm9.117-10.124h-18.235v8.613h18.235Z" transform="translate(-5167.739 -3021.518)" fill="#00223d"/>
  </g>
</svg>
