<svg xmlns="http://www.w3.org/2000/svg" width="190" height="219" viewBox="0 0 190 219">
  <g id="Grupo_1044814" data-name="Grupo 1044814" transform="translate(-842 -599)">
    <rect id="Rectángulo_37188" data-name="Rectángulo 37188" width="190" height="219" rx="30" transform="translate(842 599)" fill="#ffb476"/>
    <g id="coding" transform="translate(876 645.12)">
      <path id="Trazado_771689" data-name="Trazado 771689" d="M281.871,65.355a5.679,5.679,0,1,0,0,11.357h21.4a5.679,5.679,0,1,0,0-11.357Z" transform="translate(-210.104 -40.592)" fill="#ccf5fc" fill-rule="evenodd"/>
      <path id="Trazado_771690" data-name="Trazado 771690" d="M75.5,65.355a5.679,5.679,0,1,0,5.688,5.679A5.679,5.679,0,0,0,75.5,65.355Z" transform="translate(-53.112 -40.592)" fill="#ccf5fc" fill-rule="evenodd"/>
      <path id="Trazado_771691" data-name="Trazado 771691" d="M75.412,76.654a5.706,5.706,0,1,1,5.716-5.706A5.714,5.714,0,0,1,75.412,76.654Zm0-11.357a5.651,5.651,0,1,0,5.661,5.651A5.659,5.659,0,0,0,75.412,65.3Z" transform="translate(-53.025 -40.506)" fill="#8aa8bd"/>
      <g id="Grupo_1044207" data-name="Grupo 1044207" transform="translate(2.413 14.409)">
        <path id="Trazado_771692" data-name="Trazado 771692" d="M163.171,65.355a5.679,5.679,0,1,0,5.688,5.679A5.679,5.679,0,0,0,163.171,65.355Z" transform="translate(-122.219 -55)" fill="#dc72a9" fill-rule="evenodd"/>
        <path id="Trazado_771693" data-name="Trazado 771693" d="M343.976,319.737A12.323,12.323,0,1,0,356.3,332.063,12.327,12.327,0,0,0,343.976,319.737Z" transform="translate(-254.702 -248.515)" fill="#fff" fill-rule="evenodd"/>
        <path id="Trazado_771694" data-name="Trazado 771694" d="M287.6,255.554v2.758a23.266,23.266,0,0,0-7.16,3l-1.946-1.938a3,3,0,0,0-4.231,0l-3.085,3.083a2.993,2.993,0,0,0,0,4.228l1.966,1.972a23.141,23.141,0,0,0-2.936,7.122h-2.766a3,3,0,0,0-2.99,2.989v4.371a3,3,0,0,0,2.99,2.989h2.773a23.017,23.017,0,0,0,2.977,7.156l-1.959,1.952a3.005,3.005,0,0,0,0,4.228l3.092,3.09a3,3,0,0,0,4.231,0l1.953-1.952a23.173,23.173,0,0,0,7.173,2.968v2.785a3,3,0,0,0,2.99,3h4.373a3,3,0,0,0,2.99-3V303.58a23.127,23.127,0,0,0,7.187-2.975l1.959,1.952a3,3,0,0,0,4.231,0l3.085-3.09a2.993,2.993,0,0,0,0-4.228l-1.953-1.952a23.163,23.163,0,0,0,2.97-7.156h2.76a3,3,0,0,0,3-2.989v-4.371a3,3,0,0,0-3-2.989h-2.746a23.093,23.093,0,0,0-2.983-7.2l1.953-1.958a2.993,2.993,0,0,0,0-4.228l-1.953-1.952-1.132-1.132a3,3,0,0,0-4.231,0l-1.959,1.952a23.135,23.135,0,0,0-7.268-3v-2.717a3.006,3.006,0,0,0-3-3h-4.366A3,3,0,0,0,287.6,255.554Zm5.261,13.079a12.323,12.323,0,1,1-12.333,12.326A12.325,12.325,0,0,1,292.866,268.633Z" transform="translate(-203.592 -197.411)" fill="#ccf5fc" fill-rule="evenodd"/>
        <path id="Trazado_771695" data-name="Trazado 771695" d="M110.131,22.08H18.993c-4.9,0-8.909,4.784-8.909,10.639V53.97H119.041V32.719c0-5.848-4.007-10.639-8.909-10.639Zm-59.1,10.355a5.679,5.679,0,1,1-5.682,5.679A5.684,5.684,0,0,1,51.036,32.435Zm-20.978,0a5.679,5.679,0,1,1-5.682,5.679A5.684,5.684,0,0,1,30.058,32.435Zm43.7,5.679a5.7,5.7,0,0,1,5.682-5.679h21.4a5.679,5.679,0,1,1,0,11.357h-21.4a5.7,5.7,0,0,1-5.682-5.679Z" transform="translate(-10.084 -22.08)" fill="#8aa8bd" fill-rule="evenodd"/>
        <path id="Trazado_771696" data-name="Trazado 771696" d="M47.612,155.36H10.084v46.189c0,5.848,4.014,10.639,8.909,10.639H73.939a3,3,0,0,1-2.99-2.989v-4.371a3,3,0,0,1,2.99-2.989h2.766a23.146,23.146,0,0,1,2.936-7.122l-1.966-1.972a2.993,2.993,0,0,1,0-4.228l3.085-3.083a3,3,0,0,1,4.231,0l1.946,1.938a23.26,23.26,0,0,1,7.16-3v-2.758a3,3,0,0,1,2.99-3h4.366a3.006,3.006,0,0,1,3,3v2.717a23.132,23.132,0,0,1,7.268,3l1.959-1.952a3,3,0,0,1,4.231,0l1.132,1.132V155.36Z" transform="translate(-10.084 -123.47)" fill="#fff" fill-rule="evenodd"/>
      </g>
      <path id="Trazado_771697" data-name="Trazado 771697" d="M67.828,55.271a8.092,8.092,0,1,0,8.1,8.092A8.1,8.1,0,0,0,67.828,55.271Zm0,11.357A3.266,3.266,0,1,1,71.1,63.363,3.271,3.271,0,0,1,67.828,66.628Z" transform="translate(-45.44 -32.92)"/>
      <path id="Trazado_771698" data-name="Trazado 771698" d="M295.6,55.271H274.2a8.092,8.092,0,1,0,0,16.183h21.4a8.092,8.092,0,1,0,0-16.183Zm0,11.357H274.2a3.266,3.266,0,1,1,0-6.532h21.4a3.266,3.266,0,1,1,0,6.532Z" transform="translate(-202.433 -32.92)"/>
      <path id="Trazado_771699" data-name="Trazado 771699" d="M155.5,55.271a8.092,8.092,0,1,0,8.1,8.092A8.1,8.1,0,0,0,155.5,55.271Zm0,11.357a3.266,3.266,0,1,1,3.276-3.266A3.271,3.271,0,0,1,155.5,66.628Z" transform="translate(-112.135 -32.92)"/>
      <path id="Trazado_771700" data-name="Trazado 771700" d="M140.117,222.231a2.412,2.412,0,0,0-2.908,1.786l-4.787,20.032a2.413,2.413,0,1,0,4.694,1.122l4.787-20.032A2.413,2.413,0,0,0,140.117,222.231Z" transform="translate(-100.686 -159.881)"/>
      <path id="Trazado_771701" data-name="Trazado 771701" d="M199.245,250.357a2.413,2.413,0,0,0,3.407-.2l6.766-7.6a3.348,3.348,0,0,0,.007-4.424l-6.773-7.6a2.413,2.413,0,1,0-3.6,3.21l5.881,6.6-5.881,6.6a2.413,2.413,0,0,0,.2,3.407Z" transform="translate(-150.956 -165.635)"/>
      <path id="Trazado_771702" data-name="Trazado 771702" d="M68.067,230.341a2.413,2.413,0,0,0-3.407.2l-6.765,7.595a3.347,3.347,0,0,0-.008,4.425l6.773,7.6a2.413,2.413,0,1,0,3.6-3.21l-5.881-6.6,5.881-6.6a2.413,2.413,0,0,0-.2-3.407Z" transform="translate(-43.403 -165.636)"/>
      <path id="Trazado_771703" data-name="Trazado 771703" d="M117.1,90.367h-.9a25.405,25.405,0,0,0-1.819-4.389l.639-.641a5.406,5.406,0,0,0,.005-7.647l-1.246-1.245v-51.4c0-7.2-5.079-13.052-11.322-13.052H11.322C5.079,12,0,17.851,0,25.048v67.44c0,7.2,5.079,13.052,11.322,13.052H25.479a2.413,2.413,0,1,0,0-4.826H11.322c-3.521,0-6.5-3.767-6.5-8.226V48.712h104.13V73.1a5.487,5.487,0,0,0-.837-.07h-.008A5.349,5.349,0,0,0,104.3,74.6l-.652.649a25.474,25.474,0,0,0-4.46-1.841v-.859a5.415,5.415,0,0,0-5.41-5.408H89.415a5.412,5.412,0,0,0-5.4,5.408v.918a25.613,25.613,0,0,0-4.357,1.825l-.625-.623a5.357,5.357,0,0,0-3.816-1.585h-.008a5.372,5.372,0,0,0-3.824,1.58L68.3,77.75a5.406,5.406,0,0,0,0,7.639l.666.668a25.481,25.481,0,0,0-1.777,4.309h-.916a5.408,5.408,0,0,0-5.4,5.4v4.371a5.438,5.438,0,0,0,.031.575H46.856a2.413,2.413,0,1,0,0,4.826H67.193A25.331,25.331,0,0,0,69,109.883l-.652.649a5.415,5.415,0,0,0,.005,7.637l3.087,3.085a5.357,5.357,0,0,0,3.816,1.585h.008a5.372,5.372,0,0,0,3.824-1.581l.646-.646a25.5,25.5,0,0,0,4.361,1.807v.934a5.412,5.412,0,0,0,5.4,5.408h4.373a5.412,5.412,0,0,0,5.4-5.408v-.928a25.429,25.429,0,0,0,4.379-1.813l.643.641a5.356,5.356,0,0,0,3.815,1.586h.008a5.374,5.374,0,0,0,3.826-1.582l3.078-3.084a5.406,5.406,0,0,0,0-7.647l-.644-.644a25.478,25.478,0,0,0,1.8-4.344h.912a5.411,5.411,0,0,0,5.41-5.4V95.768a5.411,5.411,0,0,0-5.409-5.4ZM4.826,43.886V25.048c0-4.459,2.975-8.226,6.5-8.226H102.46c3.521,0,6.5,3.767,6.5,8.226V43.887H4.826Zm112.856,56.253a.6.6,0,0,1-.584.575h-2.759a2.413,2.413,0,0,0-2.352,1.874A20.714,20.714,0,0,1,109.326,109a2.413,2.413,0,0,0,.337,2.991l1.952,1.951a.579.579,0,0,1,.167.411.559.559,0,0,1-.169.406l-3.083,3.088a.581.581,0,0,1-.413.168h0a.562.562,0,0,1-.409-.171l-1.96-1.952a2.413,2.413,0,0,0-2.988-.333,20.675,20.675,0,0,1-6.438,2.665,2.413,2.413,0,0,0-1.877,2.353v2.778a.6.6,0,0,1-.577.582H89.5a.6.6,0,0,1-.577-.582V120.57a2.413,2.413,0,0,0-1.881-2.353,20.7,20.7,0,0,1-6.426-2.66,2.412,2.412,0,0,0-2.986.339l-1.952,1.951a.581.581,0,0,1-.413.168h0a.56.56,0,0,1-.406-.168l-3.092-3.09a.594.594,0,0,1,0-.812l1.959-1.952a2.413,2.413,0,0,0,.337-3,20.566,20.566,0,0,1-2.664-6.406,2.413,2.413,0,0,0-2.352-1.874H66.268a.584.584,0,0,1-.577-.575V95.769a.584.584,0,0,1,.577-.575h2.766a2.413,2.413,0,0,0,2.353-1.877,20.7,20.7,0,0,1,2.63-6.38,2.413,2.413,0,0,0-.339-2.981L71.7,81.974a.554.554,0,0,1-.162-.4.578.578,0,0,1,.167-.411l3.085-3.083a.581.581,0,0,1,.413-.168h0a.564.564,0,0,1,.409.171l1.946,1.938a2.412,2.412,0,0,0,2.995.329,20.815,20.815,0,0,1,6.418-2.691,2.413,2.413,0,0,0,1.863-2.349V72.552a.587.587,0,0,1,.577-.582h4.367a.591.591,0,0,1,.584.582V75.27a2.413,2.413,0,0,0,1.889,2.355,20.688,20.688,0,0,1,6.51,2.684,2.414,2.414,0,0,0,2.985-.335l1.968-1.96a.556.556,0,0,1,.4-.163h0a.58.58,0,0,1,.412.168l3.085,3.083a.578.578,0,0,1,.167.411.561.561,0,0,1-.17.407L109.66,83.88a2.413,2.413,0,0,0-.332,2.991A20.653,20.653,0,0,1,112,93.317a2.413,2.413,0,0,0,2.353,1.877H117.1a.6.6,0,0,1,.584.575Z"/>
      <path id="Trazado_771704" data-name="Trazado 771704" d="M336.3,309.652a14.736,14.736,0,1,0,14.739,14.74A14.759,14.759,0,0,0,336.3,309.652Zm0,24.646a9.91,9.91,0,1,1,9.913-9.907A9.925,9.925,0,0,1,336.3,334.3Z" transform="translate(-244.618 -226.435)"/>
      <path id="Trazado_771705" data-name="Trazado 771705" d="M143.632,382.778h-.047a2.413,2.413,0,1,0,0,4.826h.047a2.413,2.413,0,1,0,0-4.826Z" transform="translate(-107.393 -282.064)"/>
    </g>
  </g>
</svg>
