<svg xmlns="http://www.w3.org/2000/svg" width="116" height="116" viewBox="0 0 116 116">
  <g id="Grupo_1043689" data-name="Grupo 1043689" transform="translate(-226 -4218)">
    <rect id="Rectángulo_356093" data-name="Rectángulo 356093" width="116" height="116" transform="translate(226 4218)" fill="none"/>
    <g id="Grupo_1043688" data-name="Grupo 1043688" transform="translate(-20 2.804)">
      <path id="Polígono_49" data-name="Polígono 49" d="M10.459,0,20.918,15.9H0Z" transform="translate(270.898 4259.097) rotate(90)" fill="#f59d36"/>
      <g id="_3Ca0nq.tif" data-name="3Ca0nq.tif" transform="translate(270.898 4232.196)">
        <g id="Grupo_161523" data-name="Grupo 161523" transform="translate(0 0)">
          <path id="Trazado_199614" data-name="Trazado 199614" d="M-21.847-509.5a1.909,1.909,0,0,1-.787-1.714c.027-3.552.01-7.1.013-10.657,0-1.333.387-1.716,1.717-1.72.748,0,1.5-.02,2.243.007a1.215,1.215,0,0,1,1.3,1.228,1.206,1.206,0,0,1-1.33,1.182c-.452.014-.9,0-1.492,0,0,1.047-.021,2.051.026,3.051.006.127.364.331.566.339.88.038,1.762.017,2.644.017H-2.06c0-1.057,0-2.011,0-2.964,0-.57-.428-.438-.747-.438q-4.728-.009-9.455,0c-.24,0-.482.008-.721-.011a1.12,1.12,0,0,1-1.124-1.134,1.151,1.151,0,0,1,1.015-1.244,3.34,3.34,0,0,1,.718-.03q4.687,0,9.375,0h.944c0-1.258,0-2.427,0-3.6,0-2.05.154-2.207,2.163-2.207H18.282v-5.67c-.632.261-1.236.52-1.847.762a25.145,25.145,0,0,1-29.709-8.571c-.594-.81-.6-1.52-.02-1.984.611-.488,1.347-.3,1.961.525A22.447,22.447,0,0,0,4.515-535.08,22.4,22.4,0,0,0,17.838-537.6a.908.908,0,0,0,.522-.949c.007-2.52.021-2.608,2.564-2.484a3.246,3.246,0,0,0,3.056-1.4c.681-.92,1.428-1.791,1.939-2.427a23.514,23.514,0,0,1-.316-2.494c-.034-2.692-.013-5.385-.013-8.185-.878,0-1.7-.01-2.513,0a1.368,1.368,0,0,1-1.467-.744c-.29-.671.046-1.16.517-1.626,2.05-2.029,4.076-4.083,6.133-6.105a.934.934,0,0,0,.3-1.172c-3.375-8.553-9.578-13.578-18.668-15.019-.395-.063-.795-.094-1.193-.13a2.746,2.746,0,0,0-.4.035v.95q0,10.577,0,21.154c0,1.416-.328,1.745-1.74,1.745H-15.6a21.8,21.8,0,0,0,1.2,6.26c.068.2.155.4.222.6a1.263,1.263,0,0,1-.649,1.736,1.193,1.193,0,0,1-1.608-.892c-.458-1.474-.891-2.96-1.232-4.464-.234-1.031-.3-2.1-.447-3.24h-4.549c-.828,0-1.656.006-2.484,0-1.09-.01-1.521-.426-1.507-1.5a33.049,33.049,0,0,1,5.941-18.792A33.415,33.415,0,0,1-1.723-590.222a32.22,32.22,0,0,1,8.541-1.169c1.028-.006,1.469.423,1.473,1.448.009,2.348,0,4.7,0,7.068,1.3.2,2.573.306,3.807.59,9.828,2.26,16.184,8.277,19.248,17.85a4.079,4.079,0,0,0,.889,1.538c1.625,1.7,3.3,3.346,4.976,4.995a1.393,1.393,0,0,1,.506,1.633c-.27.636-.848.744-1.472.736-.8-.011-1.593,0-2.493,0v1.315c0,2.511,0,5.021,0,7.532,0,1.166-.427,1.581-1.6,1.589-.908.006-1.817-.017-2.724.014a.95.95,0,0,0-.668.273c-.869,1.2-1.7,2.435-2.6,3.746h.8c3.526,0,7.051.011,10.577,0,3.94-.016,3.623-.229,3.611,3.653,0,.5,0,1,0,1.405a38.783,38.783,0,0,1,4.118.52,13.072,13.072,0,0,1,9.987,10.874,4.551,4.551,0,0,0,.147.533v2.885a2.559,2.559,0,0,0-.148.437,13.205,13.205,0,0,1-9.863,10.868c-.56.142-1.126.263-1.689.394ZM5.832-588.887c-16.9.452-29.877,15-29.932,29.975H5.832Zm25.627,66.215a10.783,10.783,0,0,0,10.753,10.75,10.82,10.82,0,0,0,10.769-10.751,10.784,10.784,0,0,0-10.81-10.775A10.742,10.742,0,0,0,31.459-522.672Zm-51.609,10.688H-2.1v-3.273H-20.149ZM.405-523.646H18.291v-3.263H.405Zm.023,5.829H18.3v-3.291H.428Zm17.881,2.558H.442v3.28H18.309Zm20.423-23.325h-17.9v3.3c.215.015.374.036.532.036q8.169,0,16.338,0c.16,0,.363.044.47-.035.215-.159.52-.38.535-.593C38.767-536.756,38.732-537.638,38.732-538.584Zm-12.9-19.43c.181.018.308.037.436.041,1.443.05,1.736.343,1.736,1.755q0,3.886,0,7.772v.858h3.325v-.932q0-3.806,0-7.612c0-1.537.244-1.782,1.807-1.843a.825.825,0,0,0,.236-.051L29.614-561.8Zm-5.023,46.051H34.33c-.871-.915-1.78-1.772-2.564-2.732a1.5,1.5,0,0,0-1.335-.627c-2.91.025-5.82.011-8.73.011h-.889ZM20.8-529.4c3.307,0,6.526,0,9.746-.008a.589.589,0,0,0,.41-.176c.839-1.043,1.661-2.1,2.49-3.155H20.8Zm9.075,11.59-.838-3.3h-8.2v3.3Zm-.239-9.114H20.834v3.274H28.99Z" transform="translate(26.649 591.391)" fill="#fff"/>
          <path id="Trazado_199615" data-name="Trazado 199615" d="M380.872-210.155c0-1.241-.669-1.859-2.053-1.888a4.127,4.127,0,0,1-4.255-3.059,4.471,4.471,0,0,1,2.461-5.26c.393-.18.635-.321.644-.833a1.121,1.121,0,0,1,1.243-1.166,1.084,1.084,0,0,1,1.132,1.185c-.008.477.228.618.6.789a4.285,4.285,0,0,1,2.645,3.8,1.228,1.228,0,0,1-1.029,1.466c-.71.094-1.244-.379-1.385-1.227-.207-1.253-.869-1.934-1.918-1.975a2.028,2.028,0,0,0-2.115,2.031,1.745,1.745,0,0,0,1.952,1.826c2.345.037,4.034,1.282,4.432,3.267a4.641,4.641,0,0,1-2.621,5.3,1.141,1.141,0,0,0-.521.727c-.143.753-.569,1.238-1.223,1.235a1.2,1.2,0,0,1-1.191-1.249c-.009-.488-.255-.614-.615-.779a4.316,4.316,0,0,1-2.609-3.574c-.124-.961.3-1.588,1.061-1.676.715-.083,1.2.409,1.343,1.348a2,2,0,0,0,2.2,1.848A1.98,1.98,0,0,0,380.872-210.155Z" transform="translate(-310.004 281.622)" fill="#fff"/>
        </g>
      </g>
    </g>
  </g>
</svg>
