<svg xmlns="http://www.w3.org/2000/svg" xmlns:xlink="http://www.w3.org/1999/xlink" width="398" height="359" viewBox="0 0 398 359">
  <defs>
    <linearGradient id="linear-gradient" x1="-42.011" y1="-84.7" x2="-42.011" y2="-84.707" gradientUnits="objectBoundingBox">
      <stop offset="0" stop-color="#fff"/>
      <stop offset="1" stop-color="#d2e6ee"/>
    </linearGradient>
    <linearGradient id="linear-gradient-2" x1="-68.813" y1="-57.142" x2="-68.813" y2="-57.146" xlink:href="#linear-gradient"/>
    <linearGradient id="linear-gradient-3" x1="-73.928" y1="-60.728" x2="-73.928" y2="-60.733" xlink:href="#linear-gradient"/>
    <linearGradient id="linear-gradient-4" x1="-40.137" y1="-88.321" x2="-40.137" y2="-88.328" xlink:href="#linear-gradient"/>
    <linearGradient id="linear-gradient-5" x1="-65.774" y1="-59.611" x2="-65.774" y2="-59.616" xlink:href="#linear-gradient"/>
    <linearGradient id="linear-gradient-6" x1="-70.666" y1="-63.351" x2="-70.666" y2="-63.356" xlink:href="#linear-gradient"/>
    <linearGradient id="linear-gradient-7" x1="-41.88" y1="-88.473" x2="-41.88" y2="-88.48" xlink:href="#linear-gradient"/>
    <linearGradient id="linear-gradient-8" x1="-68.6" y1="-59.714" x2="-68.6" y2="-59.719" xlink:href="#linear-gradient"/>
    <linearGradient id="linear-gradient-9" x1="-73.7" y1="-63.461" x2="-73.7" y2="-63.466" xlink:href="#linear-gradient"/>
  </defs>
  <g id="Grupo_1043804" data-name="Grupo 1043804" transform="translate(3217 5082.55)">
    <rect id="Rectángulo_356134" data-name="Rectángulo 356134" width="398" height="359" rx="13" transform="translate(-3217 -5082.55)" fill="#fda089"/>
    <g id="Grupo_55724" data-name="Grupo 55724" transform="translate(-3154.487 -5054.869)">
      <line id="Línea_1634" data-name="Línea 1634" y2="93.041" transform="translate(65.5 45.972)" fill="none" stroke="#00223d" stroke-miterlimit="10" stroke-width="1" stroke-dasharray="6 6"/>
      <line id="Línea_1635" data-name="Línea 1635" y2="93.041" transform="translate(49.233 149.824)" fill="none" stroke="#00223d" stroke-miterlimit="10" stroke-width="1" stroke-dasharray="6 6"/>
      <line id="Línea_1636" data-name="Línea 1636" y2="93.041" transform="translate(233.816 149.824)" fill="none" stroke="#00223d" stroke-miterlimit="10" stroke-width="1" stroke-dasharray="6 6"/>
      <line id="Línea_1637" data-name="Línea 1637" y2="93.041" transform="translate(213.569 45.972)" fill="none" stroke="#00223d" stroke-miterlimit="10" stroke-width="1" stroke-dasharray="6 6"/>
      <rect id="Rectángulo_31146" data-name="Rectángulo 31146" width="270.441" height="28.404" rx="13.631" transform="translate(2.933 131.912)" fill="#ff6148"/>
      <g id="Grupo_55723" data-name="Grupo 55723" transform="translate(0 15.038)">
        <g id="Grupo_55712" data-name="Grupo 55712" transform="translate(42.112 11.873)">
          <g id="Grupo_55711" data-name="Grupo 55711" style="isolation: isolate">
            <g id="Grupo_55709" data-name="Grupo 55709" transform="translate(34.314 40.861)">
              <path id="Trazado_118826" data-name="Trazado 118826" d="M-32.628,1039.811l6.911-4.016,0,1.331-6.911,4.016Z" transform="translate(32.631 -1035.794)" fill="#fff"/>
            </g>
            <path id="Trazado_118827" data-name="Trazado 118827" d="M-45.906,1012.321l.183.15q.792.65,1.559,1.361l.18.169q.777.73,1.521,1.519c.042.044.083.087.124.13q.8.849,1.55,1.756l.013.016A43.227,43.227,0,0,1-38,1021.175c.253.383.492.778.735,1.171.205.331.416.658.613,1,.092.157.178.319.268.478.319.564.63,1.13.923,1.706.032.063.066.126.1.188q.528,1.052,1,2.122l.047.109q.456,1.05.851,2.114c.018.047.035.093.052.139q.4,1.088.731,2.182c.014.044.025.086.039.13q.314,1.052.561,2.1c.016.066.031.131.046.2.166.722.308,1.443.423,2.159l.006.036q.172,1.085.259,2.153c.005.059.009.118.015.176.055.713.086,1.42.084,2.117l6.911-4.017q0-.411-.01-.826-.014-.441-.042-.886c-.008-.134-.022-.27-.032-.405,0-.058-.009-.117-.014-.175-.009-.1-.016-.207-.025-.31-.028-.3-.061-.6-.1-.9s-.082-.613-.131-.921l0-.025-.006-.035c-.046-.288-.095-.576-.149-.865q-.091-.476-.195-.955c-.024-.113-.052-.226-.078-.339l-.047-.2c-.033-.141-.064-.28-.1-.421q-.12-.486-.255-.972c-.066-.236-.136-.473-.207-.708l-.038-.131c-.014-.043-.025-.085-.038-.128-.1-.316-.2-.631-.3-.947s-.213-.623-.325-.934c-.021-.057-.044-.114-.065-.171l-.053-.142c-.072-.195-.144-.39-.22-.584q-.173-.445-.357-.89c-.089-.213-.181-.424-.273-.637l-.049-.113-.052-.124q-.2-.444-.4-.883-.227-.486-.468-.967c-.024-.049-.05-.1-.075-.146s-.066-.126-.1-.19c-.13-.255-.259-.512-.395-.765-.169-.316-.349-.625-.526-.938-.091-.16-.178-.323-.271-.482-.036-.062-.069-.127-.106-.189-.159-.272-.338-.534-.5-.8-.243-.394-.482-.789-.737-1.174-.041-.062-.077-.126-.118-.187q-.559-.838-1.154-1.644l-.005-.008h0q-.4-.542-.814-1.069-.338-.428-.683-.845l-.013-.016-.01-.012q-.349-.42-.707-.828t-.713-.79l-.119-.124c-.042-.045-.084-.088-.126-.131-.168-.178-.334-.356-.505-.53q-.381-.389-.772-.764c-.08-.076-.161-.149-.242-.225l-.181-.168c-.127-.119-.253-.24-.381-.355q-.4-.364-.815-.711c-.12-.1-.242-.2-.362-.3l-.184-.15c-.09-.073-.179-.148-.269-.22q-.4-.314-.8-.614c-.195-.143-.392-.28-.588-.418l-.108-.077c-.034-.023-.067-.048-.1-.071q-.386-.266-.778-.515t-.775-.474l-.179-.105-16-9.235-6.912,4.016,16,9.235c.62.357,1.23.748,1.834,1.165.036.025.072.052.108.077C-47.005,1011.462-46.451,1011.881-45.906,1012.321Z" transform="translate(65.569 -996.576)" fill="#fff"/>
            <g id="Grupo_55710" data-name="Grupo 55710" transform="translate(0 4.017)">
              <path id="Trazado_118828" data-name="Trazado 118828" d="M-49.507,1009.666c10.118,5.841,18.292,20,18.259,31.626l0,1.33-34.314-19.812.064-22.38Z" transform="translate(65.566 -1000.431)" fill="#d3d3d3"/>
            </g>
          </g>
        </g>
        <path id="Trazado_118829" data-name="Trazado 118829" d="M-97.381,1019.049l33.211-18.619,17.937,10.477v2.479c4.278,1.961,13.757,15.607,12.532,26.231-.409.164-33.177,18.631-33.177,18.631Z" transform="translate(106.345 -984.541)" fill="#fff"/>
        <path id="Trazado_118830" data-name="Trazado 118830" d="M-71.162,1045.617l33.094-18.713.082,6.7-32.522,18.3Z" transform="translate(107.444 -983.432)" fill="#21587b"/>
        <path id="Trazado_118831" data-name="Trazado 118831" d="M-46.749,1010.487l-38.3,21.355,1.8,1.552,36.5-20.428Z" transform="translate(106.862 -984.12)" fill="#e5e5e5"/>
        <path id="Trazado_118832" data-name="Trazado 118832" d="M-105.985,1021.023" transform="translate(105.985 -983.679)" fill="#0b0b0b"/>
        <g id="Grupo_55716" data-name="Grupo 55716" transform="translate(1.99 34.508)">
          <g id="Grupo_55715" data-name="Grupo 55715" style="isolation: isolate">
            <g id="Grupo_55713" data-name="Grupo 55713" transform="translate(34.314 40.861)">
              <path id="Trazado_118833" data-name="Trazado 118833" d="M-71.136,1061.536l6.911-4.016,0,1.331-6.911,4.016Z" transform="translate(71.14 -1057.519)" fill="#fff"/>
            </g>
            <path id="Trazado_118834" data-name="Trazado 118834" d="M-84.415,1034.046l.183.15c.528.432,1.048.888,1.559,1.361l.181.169q.775.73,1.52,1.519c.042.044.083.087.124.13q.8.849,1.55,1.755l.013.016a43.23,43.23,0,0,1,2.776,3.754c.253.383.493.778.735,1.171.205.331.417.658.613,1,.092.157.178.319.269.478.318.564.629,1.13.922,1.706.032.063.066.126.1.188q.528,1.052,1,2.122l.047.109q.456,1.05.852,2.114c.017.047.034.093.052.139q.4,1.088.73,2.182c.014.044.025.086.039.13q.314,1.052.561,2.1l.047.2c.165.722.307,1.443.422,2.159l.006.036c.115.722.2,1.441.26,2.152,0,.059.009.118.014.176.055.713.086,1.42.084,2.117l6.912-4.016c0-.274,0-.549-.011-.826-.009-.294-.023-.59-.042-.886-.008-.134-.022-.27-.032-.405,0-.058-.009-.117-.014-.175-.009-.1-.015-.207-.025-.31-.028-.3-.061-.6-.1-.9s-.082-.614-.131-.921l0-.025-.006-.035c-.046-.287-.095-.576-.149-.865-.059-.318-.125-.636-.194-.955-.025-.112-.053-.226-.079-.339l-.047-.2c-.032-.141-.064-.28-.1-.421q-.12-.486-.255-.972c-.066-.236-.136-.473-.207-.708l-.038-.131c-.014-.043-.025-.085-.038-.128q-.145-.474-.3-.947t-.325-.933c-.021-.057-.044-.115-.065-.171s-.035-.095-.053-.142c-.072-.195-.144-.39-.219-.585q-.173-.445-.358-.89c-.089-.213-.18-.424-.273-.636-.017-.038-.032-.075-.049-.114s-.034-.081-.052-.123c-.131-.3-.265-.591-.4-.883q-.227-.486-.468-.967c-.024-.049-.05-.1-.075-.146l-.1-.189c-.13-.255-.259-.512-.395-.765-.169-.316-.349-.625-.526-.938-.091-.161-.177-.323-.271-.482-.036-.062-.069-.127-.105-.19-.16-.272-.339-.533-.5-.8-.243-.394-.482-.789-.737-1.174-.041-.062-.077-.126-.118-.188q-.559-.838-1.154-1.644l-.005-.008h0q-.4-.542-.815-1.069-.336-.428-.683-.845l-.012-.016-.01-.012q-.349-.42-.707-.828t-.713-.79l-.119-.124c-.042-.045-.083-.088-.125-.131-.169-.178-.335-.356-.505-.53q-.383-.389-.773-.764c-.08-.076-.161-.149-.242-.225l-.181-.168c-.127-.119-.253-.24-.381-.355q-.4-.364-.815-.711c-.12-.1-.241-.2-.362-.3l-.184-.15c-.09-.073-.178-.148-.269-.22q-.4-.314-.8-.614c-.195-.143-.392-.28-.588-.418l-.108-.077c-.034-.023-.067-.048-.1-.071q-.386-.266-.777-.515t-.776-.474l-.179-.105-16-9.235-6.911,4.016,16,9.235c.62.357,1.232.748,1.834,1.165l.108.077Q-85.233,1033.384-84.415,1034.046Z" transform="translate(104.078 -1018.301)" fill="#fff"/>
            <g id="Grupo_55714" data-name="Grupo 55714" transform="translate(0 4.016)">
              <path id="Trazado_118835" data-name="Trazado 118835" d="M-88.016,1031.391c10.118,5.841,18.292,20,18.259,31.625l0,1.33-34.314-19.811.064-22.38Z" transform="translate(104.075 -1022.156)" fill="#d3d3d3"/>
            </g>
          </g>
        </g>
        <path id="Trazado_118836" data-name="Trazado 118836" d="M-39.093,1033.605l-5.638-3.473,5.557-3.228Z" transform="translate(108.551 -983.432)" fill="#0e0e0e"/>
        <path id="Trazado_118837" data-name="Trazado 118837" d="M-65.908,1048.953l.031.516,14.995-.362,29.06-15.454.041-.531Z" transform="translate(107.664 -983.172)" fill="#111"/>
        <path id="Trazado_118838" data-name="Trazado 118838" d="M-38.207,1033.346l-27.7,15.607,14.954-.327L-21.7,1033.1Z" transform="translate(107.664 -983.173)" fill="#00223d"/>
        <path id="Trazado_118839" data-name="Trazado 118839" d="M-96.26,1019.393l10.912,6.369a7.535,7.535,0,0,0,7.472.073l26.527-14.8a2.407,2.407,0,0,0,.019-4.193l-11.243-6.406Z" transform="translate(106.392 -984.541)" fill="#00223d"/>
        <g id="Grupo_55719" data-name="Grupo 55719" transform="translate(24.167 38.998)">
          <g id="Grupo_55718" data-name="Grupo 55718" style="isolation: isolate">
            <path id="Trazado_118840" data-name="Trazado 118840" d="M-82.731,1024.184l0,.006a.54.54,0,0,0,.176.154l.436.253a.969.969,0,0,0,.255.1l.04.01a1.494,1.494,0,0,0,.291.032h.011a1.4,1.4,0,0,0,.305-.035l.011,0a1.047,1.047,0,0,0,.272-.1l1.621-.935a.422.422,0,0,0,.248-.346v.4a.419.419,0,0,1-.248.345l-1.621.937a1.063,1.063,0,0,1-.119.056c-.032.012-.067.024-.1.034-.017.005-.034.008-.052.013l-.011,0-.024.005a.75.75,0,0,1-.083.015c-.027,0-.055.007-.082.009l-.084.005h-.086c-.032,0-.064,0-.095-.006s-.073-.008-.107-.015l-.045-.011-.04-.009c-.025-.006-.051-.011-.075-.019a.954.954,0,0,1-.18-.079l-.436-.253-.01-.006a.634.634,0,0,1-.1-.076.508.508,0,0,1-.051-.055l-.011-.017,0-.006c-.005-.009-.013-.018-.017-.026a.323.323,0,0,1-.023-.047.391.391,0,0,1-.014-.047.372.372,0,0,1-.005-.048v-.407A.317.317,0,0,0-82.731,1024.184Z" transform="translate(82.789 -1022.581)" fill="#d4e7ef"/>
            <g id="Grupo_55717" data-name="Grupo 55717">
              <path id="Trazado_118841" data-name="Trazado 118841" d="M-82.541,1023.691c-.325.188-.333.495-.009.682l.436.253a1.32,1.32,0,0,0,1.186,0l1.621-.935a.364.364,0,0,0,0-.688l-.436-.252a1.29,1.29,0,0,0-1.179,0Z" transform="translate(82.789 -1022.611)" fill="#dcecf3"/>
            </g>
          </g>
        </g>
        <g id="Grupo_55722" data-name="Grupo 55722" transform="translate(28.074 36.777)">
          <g id="Grupo_55721" data-name="Grupo 55721" style="isolation: isolate">
            <path id="Trazado_118842" data-name="Trazado 118842" d="M-78.981,1022.052l0,.006a.552.552,0,0,0,.176.154l.436.253a.969.969,0,0,0,.255.1l.04.009a1.349,1.349,0,0,0,.291.032h.011a1.479,1.479,0,0,0,.305-.034l.011,0a1,1,0,0,0,.272-.1l1.621-.937a.421.421,0,0,0,.248-.345v.4a.421.421,0,0,1-.248.346l-1.621.936a.9.9,0,0,1-.119.057c-.032.012-.067.024-.1.034l-.052.013-.011,0-.024.006c-.027.006-.055.01-.083.015l-.082.009c-.028,0-.056,0-.084,0h-.088q-.047,0-.094-.006c-.036,0-.073-.008-.108-.016-.015,0-.028-.007-.044-.01l-.04-.009c-.025-.007-.051-.011-.075-.019a.948.948,0,0,1-.18-.08l-.436-.252-.01-.006a.706.706,0,0,1-.1-.076.508.508,0,0,1-.051-.055l-.011-.017,0-.007-.018-.025a.471.471,0,0,1-.022-.047.4.4,0,0,1-.014-.047.261.261,0,0,1-.005-.049v-.406A.309.309,0,0,0-78.981,1022.052Z" transform="translate(79.039 -1020.449)" fill="#fafcfe"/>
            <g id="Grupo_55720" data-name="Grupo 55720">
              <path id="Trazado_118843" data-name="Trazado 118843" d="M-78.791,1021.558c-.325.189-.333.5-.009.683l.436.253a1.319,1.319,0,0,0,1.186,0l1.621-.937a.363.363,0,0,0,0-.687l-.436-.253a1.294,1.294,0,0,0-1.179,0Z" transform="translate(79.039 -1020.478)" fill="#fafcfe"/>
            </g>
          </g>
        </g>
        <path id="Trazado_118844" data-name="Trazado 118844" d="M-90.221,1018.977l6.129,3.432,26.68-15.24-5.843-3.636Z" transform="translate(106.645 -984.411)" fill="#0d0d0d"/>
        <path id="Trazado_118845" data-name="Trazado 118845" d="M-89.978,1019.03l-6.047-16.751,1.435.7,6.083,16.808Z" transform="translate(106.402 -984.464)" fill="#00223d"/>
        <path id="Trazado_118846" data-name="Trazado 118846" d="M-88.563,1020.378l26.629-15.444-6.129-16.792-26.629,15.444Z" transform="translate(106.458 -985.056)" fill="#21587b"/>
        <path id="Trazado_118847" data-name="Trazado 118847" d="M-96,1002.894l26.629-15.444,1.364.72-26.629,15.444Z" transform="translate(106.403 -985.085)" fill="#00223d"/>
        <path id="Trazado_118848" data-name="Trazado 118848" d="M-63.251,1004.258v5.577l4.709-2.7Z" transform="translate(107.775 -984.381)" fill="#0a0a0a"/>
        <path id="Trazado_118849" data-name="Trazado 118849" d="M-76.309,985.18c9.643,4.577,12.747,19.857,13.238,21.982a4.242,4.242,0,0,0,2.452,2.86l-22.227,12.584a4.242,4.242,0,0,1-2.452-2.86c-.49-2.124-3.6-17.4-13.237-21.981Z" transform="translate(106.297 -985.18)" fill="#fff"/>
      </g>
      <path id="Trazado_118850" data-name="Trazado 118850" d="M153.069,1097.355H-88.968a14.244,14.244,0,0,0-14.2,14.2H167.271A14.244,14.244,0,0,0,153.069,1097.355Z" transform="translate(106.103 -965.443)" fill="#c6facc" opacity="0.27"/>
      <rect id="Rectángulo_31147" data-name="Rectángulo 31147" width="9.167" height="20.168" rx="4.399" transform="translate(256.097 135.623)" fill="#fff"/>
      <g id="Group_35152" data-name="Group 35152" transform="translate(174.957 0)">
        <path id="Path_86482" data-name="Path 86482" d="M114.993,1071.556l-51.676-29.835a2.384,2.384,0,0,1-1.377-1.959V1037.2c.017-.893.676.657,1.949-.077l29.328-16.932c2.356-1.361,5.92-1.509,7.961-.33l51.676,29.835c.681.394,1.176-1.275,1.352-.746.059.178.022,2.519.025,2.7a3.243,3.243,0,0,1-1.948,2.64l-29.327,16.93C120.6,1072.588,117.034,1072.734,114.993,1071.556Z" transform="translate(-61.939 -968.722)" fill="#00223d"/>
        <path id="Path_86483" data-name="Path 86483" d="M114.993,1069.145,63.316,1039.31c-2.04-1.179-1.784-3.236.572-4.6l29.328-16.932c2.356-1.361,5.92-1.508,7.961-.33l51.676,29.837c2.041,1.177,1.785,3.235-.572,4.6l-29.326,16.931C120.6,1070.176,117.034,1070.323,114.993,1069.145Z" transform="translate(-61.939 -968.823)" fill="url(#linear-gradient)"/>
        <path id="Path_86484" data-name="Path 86484" d="M112.86,1069.561c2.041,1.178,5.605,1.031,7.962-.329v-2.513c-2.357,1.361-5.92,1.508-7.962.33Z" transform="translate(-59.806 -966.726)" fill="#3f92d1" opacity="0.5" style="isolation: isolate"/>
        <path id="Path_86485" data-name="Path 86485" d="M114.993,1068.321l-51.676-29.835a2.3,2.3,0,0,1-1.366-2.148,1.065,1.065,0,0,0-.011.142v2.559A2.381,2.381,0,0,0,63.317,1041l51.675,29.837Z" transform="translate(-61.939 -967.999)" fill="#00223d"/>
        <path id="Path_86486" data-name="Path 86486" d="M152.282,1050.636l-29.326,16.932c-2.357,1.361-5.921,1.508-7.962.33l-51.677-29.835a2.438,2.438,0,0,1-1.362-1.809,2.279,2.279,0,0,0,1.362,2.235l51.676,29.835c2.041,1.178,5.605,1.031,7.962-.329l29.327-16.932c1.379-.8,2.034-1.832,1.935-2.789A3.48,3.48,0,0,1,152.282,1050.636Z" transform="translate(-61.939 -968.002)" fill="#fff"/>
        <path id="Path_86487" data-name="Path 86487" d="M102.319,1057.661l-18.391-10.619c-.369-.213-.322-.583.1-.829l6.9-3.985a1.6,1.6,0,0,1,1.437-.059l18.393,10.617c.368.213.321.583-.1.829l-6.906,3.986A1.6,1.6,0,0,1,102.319,1057.661Z" transform="translate(-61.028 -967.761)" fill="#fff" opacity="0.3" style="isolation: isolate"/>
        <path id="Path_86488" data-name="Path 86488" d="M84.031,1046.649l6.9-3.987a1.6,1.6,0,0,1,1.437-.059l18.391,10.619a.555.555,0,0,1,.17.149.384.384,0,0,0-.083-.538.368.368,0,0,0-.086-.047l-18.391-10.62a1.6,1.6,0,0,0-1.437.06l-6.9,3.986c-.339.2-.432.469-.273.68A.8.8,0,0,1,84.031,1046.649Z" transform="translate(-61.028 -967.761)" fill="#a8cff0"/>
        <path id="Path_86489" data-name="Path 86489" d="M97.084,1021.14l3.168,1.828a1.613,1.613,0,0,0,1.456,0,.444.444,0,0,0-.005-.841l-3.169-1.829a1.607,1.607,0,0,0-1.456,0,.444.444,0,0,0,.006.841Zm5.427,3.133,1.5.865a1.6,1.6,0,0,0,1.454,0,.443.443,0,0,0,0-.84l-1.5-.866a1.613,1.613,0,0,0-1.456,0,.444.444,0,0,0-.275.564.439.439,0,0,0,.28.277Zm3.758,2.17,1.5.867a1.61,1.61,0,0,0,1.456,0,.443.443,0,0,0,0-.84l-1.5-.866a1.608,1.608,0,0,0-1.454,0,.443.443,0,0,0,.005.839Zm3.758,2.17,1.5.865a1.6,1.6,0,0,0,1.454,0,.443.443,0,0,0,0-.839l-1.5-.868a1.608,1.608,0,0,0-1.454,0,.443.443,0,0,0,0,.842Zm3.759,2.17,1.5.865a1.613,1.613,0,0,0,1.456,0,.444.444,0,0,0-.005-.841l-1.5-.865a1.613,1.613,0,0,0-1.456,0,.445.445,0,0,0,.005.841Zm3.759,2.169,1.5.868a1.608,1.608,0,0,0,1.454,0,.444.444,0,0,0,0-.841l-1.5-.865a1.613,1.613,0,0,0-1.456,0,.444.444,0,0,0,.005.839Zm3.758,2.17,1.5.867a1.607,1.607,0,0,0,1.456,0,.442.442,0,0,0-.005-.839l-1.5-.868a1.608,1.608,0,0,0-1.454,0,.443.443,0,0,0,0,.84Zm3.759,2.17,1.5.866a1.61,1.61,0,0,0,1.456,0,.443.443,0,0,0,.274-.564.448.448,0,0,0-.279-.276l-1.5-.867a1.607,1.607,0,0,0-1.456,0,.444.444,0,0,0,.005.842Zm3.759,2.17,1.5.865a1.6,1.6,0,0,0,1.454,0,.444.444,0,0,0,0-.84l-1.5-.866a1.608,1.608,0,0,0-1.454,0,.443.443,0,0,0,.005.84Zm3.758,2.17,1.5.867a1.61,1.61,0,0,0,1.456,0,.443.443,0,0,0,0-.84l-1.5-.866a1.61,1.61,0,0,0-1.456,0,.444.444,0,0,0,.005.839Zm3.758,2.17,1.5.865a1.607,1.607,0,0,0,1.456,0c.4-.23.4-.606-.005-.84l-1.5-.865a1.6,1.6,0,0,0-1.454,0,.443.443,0,0,0,.005.838Zm3.759,2.17,1.5.865a1.611,1.611,0,0,0,1.454,0,.444.444,0,0,0,0-.841l-1.5-.865a1.607,1.607,0,0,0-1.456,0,.444.444,0,0,0,.005.84Zm3.837,2.215,1.5.867a1.608,1.608,0,0,0,1.454,0,.444.444,0,0,0,0-.84l-1.5-.866a1.61,1.61,0,0,0-1.456,0,.443.443,0,0,0,.005.838ZM93.7,1023.21l1.3.75a1.831,1.831,0,0,0,1.656,0l1.292-.746c.456-.264.453-.691-.005-.957l-1.3-.75a1.831,1.831,0,0,0-1.657,0l-1.291.745a.5.5,0,0,0,.005.955Zm6.715,2.922,1.292-.745a.505.505,0,0,0-.005-.956l-1.3-.75a1.832,1.832,0,0,0-1.656,0l-1.292.746a.5.5,0,0,0,.005.955l1.3.751a1.832,1.832,0,0,0,1.656,0Zm.8,1.417,1.3.75a1.829,1.829,0,0,0,1.656,0l1.292-.746a.5.5,0,0,0-.005-.957l-1.3-.751a1.828,1.828,0,0,0-1.656,0l-1.292.745c-.456.262-.454.69.005.955Zm3.757,2.17,1.3.751a1.831,1.831,0,0,0,1.657,0l1.292-.745a.505.505,0,0,0-.005-.957l-1.3-.75a1.828,1.828,0,0,0-1.656,0l-1.292.746c-.455.26-.453.69.005.955Zm8,1.222-1.3-.75a1.829,1.829,0,0,0-1.656,0l-1.292.746a.505.505,0,0,0,0,.956l1.3.75a1.828,1.828,0,0,0,1.657,0l1.291-.746a.505.505,0,0,0-.005-.957Zm3.758,2.169-1.3-.75a1.834,1.834,0,0,0-1.657,0l-1.292.746a.505.505,0,0,0,.005.956l1.3.75a1.826,1.826,0,0,0,1.656,0l1.292-.746a.506.506,0,0,0-.005-.957Zm3.759,2.17-1.3-.75a1.834,1.834,0,0,0-1.657,0l-1.292.746a.5.5,0,0,0,.005.955l1.3.751a1.834,1.834,0,0,0,1.657,0l1.292-.746a.506.506,0,0,0-.005-.958Zm3.758,2.17-1.3-.75a1.829,1.829,0,0,0-1.656,0l-1.292.746a.5.5,0,0,0,0,.956l1.3.75a1.832,1.832,0,0,0,1.656,0l1.292-.746a.506.506,0,0,0-.005-.958Zm3.759,2.17-1.3-.75a1.834,1.834,0,0,0-1.657,0l-1.291.746a.5.5,0,0,0,0,.955l1.3.751a1.829,1.829,0,0,0,1.656,0l1.292-.745a.505.505,0,0,0-.005-.957Zm3.758,2.17-1.3-.75a1.827,1.827,0,0,0-1.657,0l-1.292.746a.5.5,0,0,0,.005.955l1.3.75a1.829,1.829,0,0,0,1.656,0l1.292-.746a.506.506,0,0,0-.005-.959Zm-.483,3.118,1.3.75a1.825,1.825,0,0,0,1.656,0l1.292-.745a.505.505,0,0,0-.005-.956l-1.3-.75a1.825,1.825,0,0,0-1.656,0l-1.292.746c-.455.26-.453.689.005.953Zm8,1.222-1.3-.751a1.831,1.831,0,0,0-1.657,0l-1.292.746a.505.505,0,0,0,.005.956l1.3.75a1.832,1.832,0,0,0,1.656,0l1.292-.746a.506.506,0,0,0-.006-.958Zm5.505,3.178-2.968-1.714a1.833,1.833,0,0,0-1.656,0l-1.292.746a.5.5,0,0,0,.005.955l2.967,1.714a1.828,1.828,0,0,0,1.657,0l1.292-.746a.506.506,0,0,0-.006-.958Zm-54.572-24.09,2.967,1.714a1.834,1.834,0,0,0,1.657,0l1.291-.746a.5.5,0,0,0-.005-.956l-2.967-1.714a1.832,1.832,0,0,0-1.656,0l-1.292.746a.5.5,0,0,0,0,.954Zm5.426,3.133,1.3.75a1.825,1.825,0,0,0,1.656,0l1.292-.746a.5.5,0,0,0-.005-.955l-1.3-.75a1.831,1.831,0,0,0-1.657,0l-1.292.746a.5.5,0,0,0,0,.954Zm5.058,2.919a1.828,1.828,0,0,0,1.657,0l1.292-.746a.5.5,0,0,0-.005-.955l-1.3-.75a1.828,1.828,0,0,0-1.657,0l-1.292.746a.5.5,0,0,0,.005.955Zm3.759,2.17a1.831,1.831,0,0,0,1.657,0l1.291-.746a.5.5,0,0,0-.005-.956l-1.3-.751a1.834,1.834,0,0,0-1.657,0l-1.292.746a.505.505,0,0,0,.005.956Zm3.746-.282-1.294.745a.5.5,0,0,0,.005.955l1.3.751a1.832,1.832,0,0,0,1.656,0l1.291-.746a.5.5,0,0,0,0-.955l-1.3-.751a1.828,1.828,0,0,0-1.657,0Zm3.837,2.125-1.45.838a.456.456,0,0,0,.005.865l1.459.843a1.652,1.652,0,0,0,1.5,0l1.45-.837a.456.456,0,0,0,0-.865l-1.46-.843a1.657,1.657,0,0,0-1.5,0Zm3.759,2.17-1.45.838a.456.456,0,0,0,.005.865l1.459.842a1.652,1.652,0,0,0,1.5,0l1.451-.838a.456.456,0,0,0-.005-.865l-1.46-.842a1.653,1.653,0,0,0-1.5,0Zm3.759,2.17-1.451.838a.456.456,0,0,0,.005.865l1.46.843a1.65,1.65,0,0,0,1.5,0l1.451-.837a.456.456,0,0,0,.284-.578.451.451,0,0,0-.29-.286l-1.46-.844a1.656,1.656,0,0,0-1.5,0Zm3.758,2.17-1.45.838a.456.456,0,0,0,.005.865l1.46.842a1.653,1.653,0,0,0,1.5,0l1.451-.838a.456.456,0,0,0,.284-.578.451.451,0,0,0-.29-.287l-1.46-.844a1.658,1.658,0,0,0-1.5,0Zm3.759,2.17-1.451.837a.457.457,0,0,0,.005.866l1.46.842a1.654,1.654,0,0,0,1.5,0l1.451-.838a.456.456,0,0,0-.005-.865l-1.459-.843a1.655,1.655,0,0,0-1.5,0Zm5.269,4.717,1.45-.838a.456.456,0,0,0-.005-.865l-1.459-.843a1.652,1.652,0,0,0-1.5,0l-1.45.838a.456.456,0,0,0,.005.865l1.46.843a1.653,1.653,0,0,0,1.493,0Zm3.758,2.169,1.451-.837a.456.456,0,0,0,.284-.578.451.451,0,0,0-.29-.286l-1.46-.844a1.659,1.659,0,0,0-1.5,0l-1.449.838a.456.456,0,0,0,0,.865l1.46.843a1.652,1.652,0,0,0,1.494,0Zm5.283.514-1.46-.842a1.653,1.653,0,0,0-1.5,0l-1.451.838a.456.456,0,0,0,.005.865l1.46.843a1.65,1.65,0,0,0,1.5,0l1.45-.837a.457.457,0,0,0-.007-.867Zm-54.733-24.182,4.712,2.721a1.656,1.656,0,0,0,1.5,0l1.451-.838a.455.455,0,0,0-.005-.865l-4.712-2.721a1.653,1.653,0,0,0-1.5,0l-1.45.839a.456.456,0,0,0,0,.864Zm7.011,4.049,1.46.842a1.655,1.655,0,0,0,1.5,0l1.45-.837a.457.457,0,0,0-.005-.866l-1.459-.842a1.655,1.655,0,0,0-1.5,0l-1.45.838a.456.456,0,0,0,0,.864Zm3.759,2.17,1.46.842a1.653,1.653,0,0,0,1.5,0l1.45-.838a.456.456,0,0,0,0-.865l-1.46-.843a1.65,1.65,0,0,0-1.5,0l-1.45.837a.456.456,0,0,0,0,.864Zm3.759,2.169,1.459.843a1.653,1.653,0,0,0,1.5,0l1.451-.838a.455.455,0,0,0-.005-.865l-1.46-.844a1.65,1.65,0,0,0-1.5,0l-1.45.838a.456.456,0,0,0,0,.864Zm6.714,3.016,1.451-.838a.456.456,0,0,0-.005-.866l-1.46-.843a1.656,1.656,0,0,0-1.5,0l-1.451.838a.456.456,0,0,0,.005.865l1.46.843a1.655,1.655,0,0,0,1.494,0Zm3.759,2.17,1.451-.838a.456.456,0,0,0-.005-.865l-1.46-.843a1.655,1.655,0,0,0-1.5,0l-1.45.838a.456.456,0,0,0,.005.865l1.46.843a1.653,1.653,0,0,0,1.493,0Zm3.759,2.169,1.45-.837a.457.457,0,0,0,0-.866l-1.46-.842a1.655,1.655,0,0,0-1.5,0l-1.45.838a.456.456,0,0,0,.005.865l1.46.842a1.653,1.653,0,0,0,1.493,0Zm3.758,2.17,1.451-.838a.456.456,0,0,0-.005-.865l-1.46-.843a1.655,1.655,0,0,0-1.5,0l-1.45.838a.457.457,0,0,0,.005.866l1.46.843a1.659,1.659,0,0,0,1.494,0Zm3.759,2.17,1.45-.838a.455.455,0,0,0-.005-.865l-1.459-.843a1.655,1.655,0,0,0-1.5,0l-1.45.838a.456.456,0,0,0,0,.865l1.461.843a1.653,1.653,0,0,0,1.493,0Zm3.758,2.17,1.45-.838a.456.456,0,0,0,0-.865l-1.46-.843a1.659,1.659,0,0,0-1.5,0l-1.449.837a.457.457,0,0,0,0,.866l1.46.842a1.65,1.65,0,0,0,1.493,0Zm.8,1.324,1.46.843a1.655,1.655,0,0,0,1.5,0l1.45-.838a.456.456,0,0,0,0-.865l-1.46-.843a1.655,1.655,0,0,0-1.5,0l-1.45.839a.455.455,0,0,0,0,.861Zm10.413,2.615-3.712-2.144a1.656,1.656,0,0,0-1.5,0l-1.451.838a.456.456,0,0,0,.005.865l3.712,2.144a1.656,1.656,0,0,0,1.5,0l1.45-.841a.456.456,0,0,0-.006-.864ZM83.2,1029.3l6.687,3.86a1.867,1.867,0,0,0,1.691,0l1.257-.726a.515.515,0,0,0,0-.975L86.14,1027.6a1.867,1.867,0,0,0-1.691,0l-1.258.726c-.468.266-.466.7,0,.973Zm9.181,5.3,1.264.73a1.867,1.867,0,0,0,1.691,0l1.258-.726a.514.514,0,0,0-.005-.975l-1.265-.73a1.871,1.871,0,0,0-1.691,0l-1.258.726c-.468.269-.466.7,0,.975Zm3.758,2.17,1.265.73a1.871,1.871,0,0,0,1.691,0l1.258-.726a.516.516,0,0,0-.005-.976l-1.265-.73a1.868,1.868,0,0,0-1.691,0l-1.258.726a.514.514,0,0,0,0,.975Zm3.756,2.169,1.265.73a1.867,1.867,0,0,0,1.691,0l1.258-.726c.466-.269.463-.705-.005-.976l-1.265-.73a1.867,1.867,0,0,0-1.691,0l-1.258.726A.515.515,0,0,0,99.891,1038.936Zm3.759,2.17,1.265.73a1.868,1.868,0,0,0,1.691,0l1.258-.726a.515.515,0,0,0-.005-.975l-1.266-.731a1.87,1.87,0,0,0-1.691,0l-1.257.726c-.466.267-.464.7,0,.975Zm3.758,2.17,1.266.73a1.867,1.867,0,0,0,1.691,0l1.257-.726a.515.515,0,0,0-.005-.976l-1.265-.73a1.864,1.864,0,0,0-1.691,0l-1.258.725c-.466.268-.463.705.005.976Zm3.759,2.17,1.265.729a1.869,1.869,0,0,0,1.69,0l1.258-.726a.515.515,0,0,0-.005-.976l-1.265-.73a1.865,1.865,0,0,0-1.69,0l-1.258.726c-.467.269-.464.705.005.975Zm3.759,2.169,1.264.73a1.867,1.867,0,0,0,1.691,0l1.258-.727a.514.514,0,0,0-.005-.975l-1.265-.731a1.871,1.871,0,0,0-1.691,0l-1.258.725a.516.516,0,0,0,.005.977Zm3.758,2.171,1.265.729a1.867,1.867,0,0,0,1.691,0l1.257-.725a.515.515,0,0,0,0-.976l-1.266-.73a1.867,1.867,0,0,0-1.691,0l-1.257.726a.514.514,0,0,0,0,.974Zm3.758,2.169,1.266.73a1.868,1.868,0,0,0,1.69,0l1.258-.727a.515.515,0,0,0-.005-.975l-1.265-.73a1.871,1.871,0,0,0-1.691,0l-1.258.726c-.466.268-.464.705.005.976Zm3.759,2.17,1.265.73a1.868,1.868,0,0,0,1.691,0l1.258-.726a.516.516,0,0,0-.005-.976l-1.265-.73a1.87,1.87,0,0,0-1.691,0l-1.258.725a.514.514,0,0,0,.005.975Zm8.05,1.249-1.265-.73a1.871,1.871,0,0,0-1.691,0l-1.257.725a.515.515,0,0,0,0,.976l1.265.73a1.867,1.867,0,0,0,1.691,0l1.258-.726a.515.515,0,0,0-.006-.976ZM85.588,1031.3l-2.933-1.694a1.867,1.867,0,0,0-1.691,0l-1.258.726c-.466.269-.463.705.005.976L82.645,1033a1.871,1.871,0,0,0,1.691,0l1.258-.725A.515.515,0,0,0,85.588,1031.3Zm3.758,2.17-1.265-.73a1.867,1.867,0,0,0-1.691,0l-1.258.725a.515.515,0,0,0,.006.976l1.265.73a1.869,1.869,0,0,0,1.69,0l1.258-.726A.515.515,0,0,0,89.346,1033.47Zm3.759,2.17-1.265-.73a1.867,1.867,0,0,0-1.691,0l-1.258.725a.515.515,0,0,0,.005.976l1.265.731a1.87,1.87,0,0,0,1.691,0l1.258-.725a.516.516,0,0,0-.005-.976Zm26.311,15.19L95.6,1037.081a1.867,1.867,0,0,0-1.691,0l-1.257.725a.515.515,0,0,0,.005.976l23.815,13.751a1.87,1.87,0,0,0,1.691,0l1.258-.726A.515.515,0,0,0,119.416,1050.83Zm3.758,2.172-1.265-.73a1.867,1.867,0,0,0-1.691,0l-1.257.725a.515.515,0,0,0,0,.976l1.266.73a1.868,1.868,0,0,0,1.691,0l1.257-.725a.516.516,0,0,0-.005-.977Zm3.758,2.169-1.264-.729a1.868,1.868,0,0,0-1.691,0l-1.258.726c-.466.269-.463.705.005.976l1.265.73a1.867,1.867,0,0,0,1.691,0l1.257-.726a.515.515,0,0,0-.005-.976Zm3.837,2.215-1.265-.73a1.87,1.87,0,0,0-1.691,0l-1.258.725a.516.516,0,0,0,.005.976l1.265.73a1.874,1.874,0,0,0,1.691,0l1.257-.726a.515.515,0,0,0,0-.976Z" transform="translate(-61.209 -968.678)" fill="#72b5e8"/>
        <path id="Path_86490" data-name="Path 86490" d="M97.084,1020.8l3.168,1.831a1.607,1.607,0,0,0,1.456,0,.443.443,0,0,0-.005-.84l-3.169-1.831a1.61,1.61,0,0,0-1.456,0,.444.444,0,0,0,.006.839Zm5.427,3.133,1.5.867a1.608,1.608,0,0,0,1.454,0,.443.443,0,0,0,0-.84l-1.5-.866a1.61,1.61,0,0,0-1.456,0,.443.443,0,0,0,.005.839Zm3.758,2.17,1.5.865a1.608,1.608,0,0,0,1.456,0,.442.442,0,0,0,0-.839l-1.5-.868a1.607,1.607,0,0,0-1.454,0,.445.445,0,0,0,.005.842Zm3.758,2.17,1.5.865a1.611,1.611,0,0,0,1.454,0,.444.444,0,0,0,0-.841l-1.5-.867a1.6,1.6,0,0,0-1.454,0,.443.443,0,0,0,0,.842Zm3.759,2.169,1.5.866a1.61,1.61,0,0,0,1.456,0,.443.443,0,0,0-.005-.84l-1.5-.865a1.607,1.607,0,0,0-1.456,0,.444.444,0,0,0,.005.84Zm3.759,2.17,1.5.868a1.61,1.61,0,0,0,1.456,0,.444.444,0,0,0-.005-.841l-1.5-.865a1.611,1.611,0,0,0-1.456,0,.443.443,0,0,0,.005.838Zm3.758,2.17,1.5.866a1.609,1.609,0,0,0,1.456,0,.443.443,0,0,0-.005-.84l-1.5-.867a1.6,1.6,0,0,0-1.454,0,.443.443,0,0,0,0,.841Zm3.759,2.17,1.5.865a1.607,1.607,0,0,0,1.456,0,.443.443,0,0,0-.005-.84l-1.5-.866a1.606,1.606,0,0,0-1.456,0,.443.443,0,0,0,.005.84Zm3.759,2.17,1.5.865a1.612,1.612,0,0,0,1.454,0,.444.444,0,0,0,0-.841l-1.5-.865a1.611,1.611,0,0,0-1.454,0,.444.444,0,0,0,.005.841Zm3.758,2.169,1.5.868a1.61,1.61,0,0,0,1.456,0,.444.444,0,0,0,0-.841l-1.5-.865a1.61,1.61,0,0,0-1.456,0,.443.443,0,0,0,.005.838Zm3.758,2.171,1.5.865a1.61,1.61,0,0,0,1.456,0,.443.443,0,0,0-.005-.84l-1.5-.867a1.608,1.608,0,0,0-1.454,0,.444.444,0,0,0,.005.843Zm3.759,2.169,1.5.866a1.608,1.608,0,0,0,1.454,0,.443.443,0,0,0,.275-.564.448.448,0,0,0-.279-.276l-1.5-.865a1.607,1.607,0,0,0-1.456,0,.444.444,0,0,0,.005.84Zm3.837,2.216,1.5.865a1.608,1.608,0,0,0,1.454,0,.443.443,0,0,0,0-.84l-1.5-.867a1.61,1.61,0,0,0-1.456,0,.443.443,0,0,0,.005.841ZM93.7,1022.874l1.3.75a1.832,1.832,0,0,0,1.656,0l1.292-.746a.5.5,0,0,0-.005-.955l-1.3-.751a1.834,1.834,0,0,0-1.657,0l-1.291.746c-.456.261-.454.69.005.954Zm6.715,2.923,1.292-.745a.5.5,0,0,0-.005-.956l-1.3-.75a1.832,1.832,0,0,0-1.656,0l-1.292.746a.5.5,0,0,0,.005.955l1.3.751a1.825,1.825,0,0,0,1.656,0Zm.8,1.417,1.3.751a1.828,1.828,0,0,0,1.656,0l1.292-.745a.505.505,0,0,0-.005-.958l-1.3-.75a1.831,1.831,0,0,0-1.656,0l-1.292.746c-.456.261-.454.69.005.955Zm3.757,2.17,1.3.751a1.831,1.831,0,0,0,1.657,0l1.292-.745a.5.5,0,0,0-.005-.956l-1.3-.75a1.829,1.829,0,0,0-1.656,0l-1.292.746a.5.5,0,0,0,.005.954Zm8,1.222-1.3-.75a1.825,1.825,0,0,0-1.656,0l-1.292.746a.5.5,0,0,0,0,.956l1.3.75a1.828,1.828,0,0,0,1.657,0l1.291-.746a.505.505,0,0,0-.005-.958Zm3.758,2.17-1.3-.751a1.834,1.834,0,0,0-1.657,0l-1.292.746a.5.5,0,0,0,.005.956l1.3.75a1.828,1.828,0,0,0,1.656,0l1.292-.746a.507.507,0,0,0-.005-.96Zm3.759,2.17-1.3-.751a1.834,1.834,0,0,0-1.657,0l-1.292.746a.5.5,0,0,0,.005.957l1.3.75a1.828,1.828,0,0,0,1.657,0l1.292-.746a.506.506,0,0,0-.005-.958Zm3.758,2.17-1.3-.751a1.832,1.832,0,0,0-1.656,0l-1.292.746a.5.5,0,0,0,0,.956l1.3.75a1.832,1.832,0,0,0,1.656,0l1.292-.746a.506.506,0,0,0-.005-.958Zm3.759,2.169-1.3-.75a1.834,1.834,0,0,0-1.657,0l-1.291.746a.5.5,0,0,0,0,.955l1.3.751a1.833,1.833,0,0,0,1.656,0l1.292-.746a.506.506,0,0,0-.005-.959Zm3.758,2.17-1.3-.75a1.827,1.827,0,0,0-1.657,0l-1.292.746a.5.5,0,0,0,.005.956l1.3.75a1.828,1.828,0,0,0,1.656,0l1.292-.746a.507.507,0,0,0-.005-.959Zm-.483,3.118,1.3.75a1.826,1.826,0,0,0,1.656,0l1.292-.746a.5.5,0,0,0-.005-.956l-1.3-.751a1.828,1.828,0,0,0-1.656,0l-1.292.745c-.455.261-.453.69.005.954Zm8,1.222-1.3-.751a1.834,1.834,0,0,0-1.657,0l-1.292.746a.5.5,0,0,0,.005.956l1.3.75a1.832,1.832,0,0,0,1.656,0l1.292-.746a.506.506,0,0,0-.006-.958Zm5.505,3.178-2.968-1.714a1.832,1.832,0,0,0-1.656,0l-1.292.746a.5.5,0,0,0,.005.955l2.967,1.714a1.828,1.828,0,0,0,1.657,0l1.292-.746a.506.506,0,0,0-.006-.958Zm-54.572-24.091,2.967,1.714a1.833,1.833,0,0,0,1.657,0l1.291-.746a.5.5,0,0,0-.005-.957l-2.967-1.714a1.829,1.829,0,0,0-1.656,0l-1.292.745a.5.5,0,0,0,0,.954Zm5.426,3.133,1.3.75a1.826,1.826,0,0,0,1.656,0l1.292-.746a.5.5,0,0,0-.005-.955l-1.3-.75a1.831,1.831,0,0,0-1.657,0l-1.292.746a.5.5,0,0,0,0,.954Zm5.058,2.919a1.828,1.828,0,0,0,1.657,0l1.292-.746a.5.5,0,0,0-.005-.955l-1.3-.75a1.828,1.828,0,0,0-1.657,0l-1.292.746a.5.5,0,0,0,.005.956Zm3.759,2.17a1.831,1.831,0,0,0,1.657,0l1.291-.746a.5.5,0,0,0-.005-.957l-1.3-.751a1.831,1.831,0,0,0-1.657,0l-1.292.745a.5.5,0,0,0,.005.956Zm3.746-.282-1.294.745a.5.5,0,0,0,.005.956l1.3.75a1.832,1.832,0,0,0,1.656,0l1.291-.746a.5.5,0,0,0,0-.955l-1.3-.751a1.831,1.831,0,0,0-1.657,0Zm3.837,2.124-1.45.838a.456.456,0,0,0,.005.865l1.459.843a1.656,1.656,0,0,0,1.5,0l1.45-.838a.456.456,0,0,0,0-.865l-1.46-.843a1.653,1.653,0,0,0-1.5,0Zm3.759,2.17-1.45.838a.456.456,0,0,0,.005.865l1.459.842a1.654,1.654,0,0,0,1.5,0l1.451-.836a.457.457,0,0,0-.005-.866l-1.46-.842a1.653,1.653,0,0,0-1.5,0Zm3.759,2.17-1.451.838a.456.456,0,0,0,.005.865l1.46.843a1.653,1.653,0,0,0,1.5,0l1.451-.838a.456.456,0,0,0,.284-.578.451.451,0,0,0-.29-.287l-1.46-.844a1.653,1.653,0,0,0-1.5,0Zm3.758,2.17-1.45.838a.455.455,0,0,0,.005.865l1.46.843a1.654,1.654,0,0,0,1.5,0l1.451-.838a.457.457,0,0,0-.005-.866l-1.46-.843a1.659,1.659,0,0,0-1.5,0Zm3.759,2.17-1.451.837a.457.457,0,0,0,.005.866l1.46.842a1.653,1.653,0,0,0,1.5,0l1.451-.838a.456.456,0,0,0-.005-.865l-1.459-.843a1.655,1.655,0,0,0-1.5,0Zm5.269,4.717,1.45-.838a.456.456,0,0,0-.005-.865l-1.459-.843a1.655,1.655,0,0,0-1.5,0l-1.45.836a.456.456,0,0,0,.005.866l1.46.842a1.653,1.653,0,0,0,1.493,0Zm3.758,2.17,1.451-.838a.456.456,0,0,0,.284-.578.451.451,0,0,0-.29-.286l-1.46-.844a1.66,1.66,0,0,0-1.5,0l-1.449.838a.456.456,0,0,0,0,.865l1.46.843a1.653,1.653,0,0,0,1.494,0Zm5.283.514-1.46-.843a1.654,1.654,0,0,0-1.5,0l-1.451.838a.456.456,0,0,0,.005.865l1.46.843a1.65,1.65,0,0,0,1.5,0l1.45-.837a.456.456,0,0,0-.007-.867Zm-54.733-24.183,4.712,2.722a1.654,1.654,0,0,0,1.5,0l1.451-.839a.455.455,0,0,0-.005-.865l-4.712-2.721a1.657,1.657,0,0,0-1.5,0l-1.45.838a.455.455,0,0,0,0,.863Zm7.011,4.049,1.46.843a1.659,1.659,0,0,0,1.5,0l1.45-.836a.457.457,0,0,0-.005-.866l-1.462-.843a1.653,1.653,0,0,0-1.5,0l-1.451.838a.456.456,0,0,0,.005.864Zm3.759,2.17,1.46.842a1.654,1.654,0,0,0,1.5,0l1.45-.838a.456.456,0,0,0,0-.865l-1.46-.843a1.657,1.657,0,0,0-1.5,0l-1.45.838a.456.456,0,0,0,0,.863Zm3.759,2.169,1.459.844a1.657,1.657,0,0,0,1.5,0l1.451-.838a.455.455,0,0,0-.005-.865l-1.46-.844a1.65,1.65,0,0,0-1.5,0l-1.45.838a.455.455,0,0,0-.283.579.46.46,0,0,0,.284.285Zm6.714,3.016,1.451-.838a.456.456,0,0,0-.005-.866l-1.46-.842a1.653,1.653,0,0,0-1.5,0l-1.451.838a.456.456,0,0,0,.005.865l1.46.843a1.655,1.655,0,0,0,1.494,0Zm3.759,2.17,1.451-.838a.456.456,0,0,0-.005-.865l-1.46-.843a1.655,1.655,0,0,0-1.5,0l-1.45.838a.456.456,0,0,0,.005.865l1.46.843a1.653,1.653,0,0,0,1.493,0Zm3.759,2.169,1.45-.836a.457.457,0,0,0,0-.866l-1.46-.842a1.655,1.655,0,0,0-1.5,0l-1.45.838a.456.456,0,0,0,.005.866l1.46.842a1.656,1.656,0,0,0,1.493,0Zm3.758,2.171,1.451-.839a.456.456,0,0,0-.005-.865l-1.46-.843a1.653,1.653,0,0,0-1.5,0l-1.45.837a.457.457,0,0,0,.005.866l1.46.843a1.658,1.658,0,0,0,1.494,0Zm3.759,2.169,1.45-.838a.455.455,0,0,0-.005-.865l-1.459-.843a1.656,1.656,0,0,0-1.5,0l-1.45.838a.456.456,0,0,0,0,.865l1.461.843a1.654,1.654,0,0,0,1.493,0Zm3.758,2.17,1.448-.839a.456.456,0,0,0-.005-.865l-1.46-.843a1.653,1.653,0,0,0-1.5,0l-1.45.838a.456.456,0,0,0,0,.865l1.46.843a1.653,1.653,0,0,0,1.5,0Zm.8,1.324,1.46.842a1.655,1.655,0,0,0,1.5,0l1.45-.838a.456.456,0,0,0,0-.865l-1.46-.843a1.656,1.656,0,0,0-1.5,0l-1.45.838a.456.456,0,0,0,0,.866Zm10.414,2.614L134.2,1050.9a1.653,1.653,0,0,0-1.5,0l-1.451.837a.457.457,0,0,0,.005.866l3.712,2.143a1.655,1.655,0,0,0,1.5,0l1.452-.84a.456.456,0,0,0-.006-.864Zm-54.72-24.078,6.688,3.861a1.869,1.869,0,0,0,1.69,0l1.258-.725a.515.515,0,0,0-.005-.976l-6.687-3.861a1.871,1.871,0,0,0-1.691,0l-1.257.725a.514.514,0,0,0,0,.974Zm9.181,5.3,1.265.729a1.867,1.867,0,0,0,1.691,0l1.257-.725a.515.515,0,0,0-.005-.976l-1.265-.73a1.867,1.867,0,0,0-1.691,0l-1.258.726c-.465.268-.463.7.006.975Zm3.758,2.169,1.265.73a1.87,1.87,0,0,0,1.691,0l1.258-.727a.515.515,0,0,0-.005-.975l-1.265-.73a1.868,1.868,0,0,0-1.691,0l-1.258.725a.515.515,0,0,0,.005.976Zm3.759,2.17,1.265.73a1.868,1.868,0,0,0,1.691,0l1.258-.726a.515.515,0,0,0-.005-.975l-1.266-.731a1.87,1.87,0,0,0-1.691,0l-1.257.725a.515.515,0,0,0,.005.975Zm3.758,2.17,1.266.73a1.867,1.867,0,0,0,1.691,0l1.257-.725a.515.515,0,0,0-.005-.976l-1.265-.73a1.87,1.87,0,0,0-1.691,0l-1.258.726a.516.516,0,0,0,.005.976Zm3.759,2.17,1.265.73a1.868,1.868,0,0,0,1.691,0l1.258-.726a.515.515,0,0,0-.006-.976l-1.264-.73a1.871,1.871,0,0,0-1.691,0l-1.258.725c-.466.268-.463.7.005.975Zm3.759,2.17,1.265.73a1.871,1.871,0,0,0,1.69,0l1.258-.727a.515.515,0,0,0-.005-.975l-1.265-.73a1.867,1.867,0,0,0-1.691,0l-1.257.725c-.467.269-.464.7.005.976Zm3.758,2.17,1.265.73a1.875,1.875,0,0,0,1.691,0l1.258-.725a.515.515,0,0,0-.005-.976l-1.265-.73a1.868,1.868,0,0,0-1.691,0l-1.258.725c-.467.268-.464.7.005.975Zm3.758,2.17,1.266.73a1.869,1.869,0,0,0,1.69,0l1.258-.725a.515.515,0,0,0-.005-.976l-1.265-.73a1.868,1.868,0,0,0-1.691,0l-1.258.726c-.465.267-.463.7.005.975Zm3.759,2.169,1.265.73a1.87,1.87,0,0,0,1.691,0l1.258-.726a.516.516,0,0,0-.005-.976l-1.265-.73a1.866,1.866,0,0,0-1.691,0l-1.258.725c-.466.268-.464.7.005.975Zm3.759,2.17,1.264.729a1.867,1.867,0,0,0,1.691,0l1.257-.725a.515.515,0,0,0,0-.976l-1.266-.73a1.868,1.868,0,0,0-1.691,0l-1.257.725a.515.515,0,0,0,.006.976Zm8.049,1.249-1.265-.73a1.869,1.869,0,0,0-1.69,0l-1.258.725a.515.515,0,0,0,.005.976l1.265.73a1.867,1.867,0,0,0,1.691,0l1.257-.726a.516.516,0,0,0-.005-.978Zm-48.662-24.076-2.933-1.694a1.867,1.867,0,0,0-1.691,0l-1.258.725a.515.515,0,0,0,.005.976l2.933,1.694a1.867,1.867,0,0,0,1.691,0l1.258-.725A.515.515,0,0,0,85.588,1030.964Zm3.758,2.169-1.265-.73a1.868,1.868,0,0,0-1.691,0l-1.258.725a.515.515,0,0,0,.006.976l1.265.73a1.868,1.868,0,0,0,1.69,0l1.258-.726c.466-.268.464-.705-.005-.976Zm3.759,2.171-1.265-.73a1.867,1.867,0,0,0-1.691,0l-1.258.725a.515.515,0,0,0,.005.976l1.265.73a1.867,1.867,0,0,0,1.691,0l1.258-.725a.516.516,0,0,0-.005-.977Zm26.311,15.189L95.6,1036.744a1.868,1.868,0,0,0-1.691,0l-1.257.726a.515.515,0,0,0,.005.976l23.815,13.749a1.867,1.867,0,0,0,1.691,0l1.258-.726c.466-.267.464-.7,0-.974Zm3.758,2.17-1.265-.73a1.867,1.867,0,0,0-1.691,0l-1.257.726a.515.515,0,0,0,0,.975l1.266.731a1.87,1.87,0,0,0,1.691,0l1.257-.725a.515.515,0,0,0-.005-.976Zm3.758,2.17-1.264-.73a1.871,1.871,0,0,0-1.691,0l-1.258.727a.515.515,0,0,0,.005.975l1.265.73a1.867,1.867,0,0,0,1.691,0l1.257-.725a.515.515,0,0,0-.005-.976Zm3.837,2.215-1.265-.73a1.866,1.866,0,0,0-1.691,0l-1.258.725a.516.516,0,0,0,.005.976l1.265.731a1.87,1.87,0,0,0,1.691,0l1.258-.725a.515.515,0,0,0-.005-.976Z" transform="translate(-61.209 -968.692)" fill="#00223d"/>
        <g id="Group_35151" data-name="Group 35151" transform="translate(36.815)">
          <path id="Path_86491" data-name="Path 86491" d="M150.555,1048.792l-49.791-28.763c-1.927-1.113-3.49-4.1-3.49-6.668V974.3c0-2.57,1.563-3.752,3.49-2.639l49.791,28.764c1.927,1.113,3.49,4.1,3.49,6.668v39.059C154.045,1048.724,152.482,1049.905,150.555,1048.792Z" transform="translate(-97.274 -970.725)" fill="url(#linear-gradient-2)"/>
          <path id="Path_86492" data-name="Path 86492" d="M150.925,1046.694l-49.258-28.454a5.937,5.937,0,0,1-2.511-4.972V974.021a.619.619,0,0,1,.931-.533l.108.064,49.3,28.481a5.37,5.37,0,0,1,2.511,4.973v39.156a.667.667,0,0,1-1,.579Z" transform="translate(-97.195 -970.635)" fill="url(#linear-gradient-3)"/>
          <path id="Path_86493" data-name="Path 86493" d="M149.5,1002.032l-49.3-28.48-.108-.064a.618.618,0,0,0-.931.533v39.249a5.936,5.936,0,0,0,2.511,4.972l49.257,28.452.082.046a.667.667,0,0,0,.911-.248.66.66,0,0,0,.089-.331V1007A5.367,5.367,0,0,0,149.5,1002.032Zm2.118,44.129a.276.276,0,0,1-.276.276.273.273,0,0,1-.137-.036l-49.339-28.5a5.534,5.534,0,0,1-2.314-4.633V974.021a.225.225,0,0,1,.342-.195l49.41,28.546a5.062,5.062,0,0,1,2.315,4.632Z" transform="translate(-97.195 -970.635)" fill="#022652"/>
          <path id="Path_86494" data-name="Path 86494" d="M151.492,999.92,101.7,971.156a2.36,2.36,0,0,0-2.042-.3c-.073.028-1.046.545-1.115.583h0a2.288,2.288,0,0,1,2.172.24l49.79,28.763c1.927,1.113,3.49,4.1,3.49,6.669v39.062c0,1.6-.608,2.667-1.535,2.969a.573.573,0,0,0,.305-.1c.045-.025,1.1-.622,1.143-.651a3.219,3.219,0,0,0,1.076-2.739v-39.06C154.982,1004.021,153.419,1001.032,151.492,999.92Z" transform="translate(-97.221 -970.746)" fill="#00223d"/>
          <path id="Path_86495" data-name="Path 86495" d="M151.492,999.92,101.7,971.156a2.36,2.36,0,0,0-2.042-.3c-.073.028-1.046.545-1.115.583h0a2.288,2.288,0,0,1,2.172.24l49.79,28.763Z" transform="translate(-97.221 -970.746)" fill="#00223d"/>
          <path id="Path_86496" data-name="Path 86496" d="M150.66,1000.344,100.87,971.58a2.318,2.318,0,0,0-2.1-.269,2.579,2.579,0,0,1,1.684.395l49.791,28.763c1.928,1.113,3.49,4.1,3.49,6.669v39.06c0,1.516-.546,2.543-1.388,2.908,1.076-.172,1.807-1.278,1.807-3.034v-39.059C154.149,1004.443,152.588,1001.458,150.66,1000.344Z" transform="translate(-97.211 -970.729)" fill="#fff"/>
        </g>
      </g>
      <g id="Group_35152-2" data-name="Group 35152" transform="translate(1.344 191.672)">
        <path id="Path_86482-2" data-name="Path 86482" d="M-51.641,1255.524l-51.676-29.835a2.383,2.383,0,0,1-1.377-1.959v-2.56c.017-.893.676.658,1.949-.077l29.328-16.932c2.356-1.361,5.92-1.508,7.961-.329l51.676,29.835c.681.393,1.176-1.276,1.352-.746.059.177.022,2.518.025,2.7a3.241,3.241,0,0,1-1.948,2.639l-29.327,16.93C-46.036,1256.554-49.6,1256.7-51.641,1255.524Z" transform="translate(104.695 -1152.689)" fill="#00223d"/>
        <path id="Path_86483-2" data-name="Path 86483" d="M-51.641,1253.112l-51.676-29.835c-2.041-1.178-1.785-3.235.572-4.6l29.328-16.933c2.356-1.361,5.92-1.508,7.961-.33l51.676,29.836c2.041,1.178,1.785,3.236-.572,4.6l-29.326,16.932C-46.036,1254.144-49.6,1254.291-51.641,1253.112Z" transform="translate(104.695 -1152.79)" fill="url(#linear-gradient-4)"/>
        <path id="Path_86484-2" data-name="Path 86484" d="M-53.774,1253.529c2.041,1.177,5.605,1.03,7.962-.33v-2.513c-2.357,1.361-5.921,1.509-7.962.33Z" transform="translate(106.828 -1150.693)" fill="#3f92d1" opacity="0.5" style="isolation: isolate"/>
        <path id="Path_86485-2" data-name="Path 86485" d="M-51.641,1252.288l-51.676-29.835a2.3,2.3,0,0,1-1.366-2.147,1.05,1.05,0,0,0-.011.141V1223a2.38,2.38,0,0,0,1.378,1.959l51.675,29.838Z" transform="translate(104.695 -1151.966)" fill="#00223d"/>
        <path id="Path_86486-2" data-name="Path 86486" d="M-14.352,1234.6l-29.326,16.932c-2.357,1.361-5.921,1.508-7.962.33l-51.677-29.835a2.438,2.438,0,0,1-1.362-1.809,2.276,2.276,0,0,0,1.362,2.235l51.676,29.837c2.041,1.177,5.605,1.03,7.962-.33l29.327-16.932c1.379-.8,2.034-1.831,1.934-2.788A3.476,3.476,0,0,1-14.352,1234.6Z" transform="translate(104.695 -1151.969)" fill="#fff"/>
        <path id="Path_86487-2" data-name="Path 86487" d="M-64.315,1241.628l-18.392-10.618c-.368-.214-.321-.585.1-.829l6.9-3.985a1.6,1.6,0,0,1,1.437-.06l18.392,10.617c.369.213.322.584-.1.829l-6.906,3.987A1.6,1.6,0,0,1-64.315,1241.628Z" transform="translate(105.606 -1151.727)" fill="#fff" opacity="0.3" style="isolation: isolate"/>
        <path id="Path_86488-2" data-name="Path 86488" d="M-82.6,1230.616l6.9-3.987a1.6,1.6,0,0,1,1.437-.059l18.391,10.619a.571.571,0,0,1,.17.15.384.384,0,0,0-.083-.538.376.376,0,0,0-.086-.048l-18.391-10.619a1.594,1.594,0,0,0-1.437.059l-6.9,3.986c-.339.2-.432.469-.273.68A.807.807,0,0,1-82.6,1230.616Z" transform="translate(105.606 -1151.728)" fill="#a8cff0"/>
        <path id="Path_86489-2" data-name="Path 86489" d="M-69.55,1205.108l3.168,1.828a1.607,1.607,0,0,0,1.456,0,.444.444,0,0,0,.274-.565.444.444,0,0,0-.279-.275l-3.169-1.831a1.61,1.61,0,0,0-1.456,0,.443.443,0,0,0-.275.564A.445.445,0,0,0-69.55,1205.108Zm5.427,3.132,1.5.866a1.608,1.608,0,0,0,1.454,0,.443.443,0,0,0,.274-.564.444.444,0,0,0-.278-.276l-1.5-.865a1.607,1.607,0,0,0-1.456,0,.444.444,0,0,0-.276.563.447.447,0,0,0,.281.278Zm3.758,2.17,1.5.867a1.6,1.6,0,0,0,1.456,0,.443.443,0,0,0,.275-.563.443.443,0,0,0-.279-.277l-1.5-.865a1.6,1.6,0,0,0-1.454,0,.442.442,0,0,0-.273.564.444.444,0,0,0,.278.274Zm3.758,2.17,1.5.866a1.608,1.608,0,0,0,1.454,0,.444.444,0,0,0,.275-.564.443.443,0,0,0-.279-.276l-1.5-.867a1.607,1.607,0,0,0-1.456,0,.445.445,0,0,0-.278.563.443.443,0,0,0,.283.279Zm3.759,2.17,1.5.865a1.6,1.6,0,0,0,1.454,0,.443.443,0,0,0,.276-.564.442.442,0,0,0-.28-.276l-1.5-.866a1.61,1.61,0,0,0-1.456,0,.442.442,0,0,0-.273.564.444.444,0,0,0,.278.276Zm3.759,2.17,1.5.867a1.608,1.608,0,0,0,1.454,0,.443.443,0,0,0,.275-.564.441.441,0,0,0-.279-.276l-1.5-.866a1.61,1.61,0,0,0-1.456,0,.442.442,0,0,0-.27.566.441.441,0,0,0,.275.272Zm3.758,2.169,1.5.868a1.61,1.61,0,0,0,1.456,0,.444.444,0,0,0,.275-.564.445.445,0,0,0-.28-.276l-1.5-.867a1.6,1.6,0,0,0-1.454,0,.442.442,0,0,0-.276.562.442.442,0,0,0,.279.277Zm3.759,2.171,1.5.865a1.611,1.611,0,0,0,1.454,0,.444.444,0,0,0,.275-.565.448.448,0,0,0-.279-.276l-1.5-.867a1.61,1.61,0,0,0-1.456,0,.443.443,0,0,0-.277.562.442.442,0,0,0,.282.28Zm3.759,2.169,1.5.866a1.61,1.61,0,0,0,1.456,0,.443.443,0,0,0,.274-.564.444.444,0,0,0-.278-.276l-1.5-.865a1.6,1.6,0,0,0-1.454,0,.444.444,0,0,0-.275.564.442.442,0,0,0,.28.276Zm3.758,2.17,1.5.867a1.607,1.607,0,0,0,1.456,0,.442.442,0,0,0,.275-.563.443.443,0,0,0-.279-.277l-1.5-.865a1.607,1.607,0,0,0-1.456,0,.443.443,0,0,0-.271.566.443.443,0,0,0,.276.273Zm3.758,2.17,1.5.866a1.61,1.61,0,0,0,1.456,0,.444.444,0,0,0-.005-.841l-1.5-.865a1.608,1.608,0,0,0-1.454,0,.444.444,0,0,0-.271.566.446.446,0,0,0,.276.273Zm3.759,2.17,1.5.865a1.6,1.6,0,0,0,1.454,0,.443.443,0,0,0,.274-.565.443.443,0,0,0-.278-.275l-1.5-.866a1.6,1.6,0,0,0-1.456,0,.444.444,0,0,0-.273.565.445.445,0,0,0,.278.275Zm3.837,2.215,1.5.867a1.607,1.607,0,0,0,1.456,0,.443.443,0,0,0,.274-.564.444.444,0,0,0-.278-.276l-1.5-.865a1.606,1.606,0,0,0-1.456,0,.442.442,0,0,0-.271.565.443.443,0,0,0,.276.273Zm-50.231-24.979,1.3.75a1.825,1.825,0,0,0,1.656,0l1.292-.746a.5.5,0,0,0-.005-.956l-1.3-.751a1.834,1.834,0,0,0-1.657,0l-1.291.746c-.456.263-.454.69.005.955Zm6.715,2.924,1.292-.746a.505.505,0,0,0-.005-.956l-1.3-.75a1.832,1.832,0,0,0-1.656,0l-1.292.746a.505.505,0,0,0,.005.956l1.3.75a1.829,1.829,0,0,0,1.656,0Zm.8,1.416,1.3.751a1.832,1.832,0,0,0,1.656,0l1.292-.746a.5.5,0,0,0-.005-.956l-1.3-.75a1.832,1.832,0,0,0-1.656,0l-1.292.746c-.456.261-.454.69.005.954Zm3.758,2.171,1.3.75a1.834,1.834,0,0,0,1.657,0l1.292-.746a.505.505,0,0,0-.005-.956l-1.3-.75a1.829,1.829,0,0,0-1.656,0l-1.292.746c-.455.26-.453.69.005.954Zm8,1.221-1.3-.75a1.832,1.832,0,0,0-1.656,0l-1.292.746a.505.505,0,0,0,0,.957l1.3.751a1.831,1.831,0,0,0,1.657,0l1.291-.745a.506.506,0,0,0-.005-.958Zm3.758,2.17-1.3-.75a1.828,1.828,0,0,0-1.657,0l-1.292.746a.5.5,0,0,0,.005.955l1.3.75a1.825,1.825,0,0,0,1.656,0l1.292-.746a.506.506,0,0,0-.005-.957Zm3.759,2.169-1.3-.75a1.832,1.832,0,0,0-1.656,0l-1.292.746a.5.5,0,0,0,.005.957l1.3.75a1.827,1.827,0,0,0,1.657,0l1.292-.745a.507.507,0,0,0-.005-.959Zm3.758,2.171-1.3-.75a1.828,1.828,0,0,0-1.656,0l-1.291.746a.5.5,0,0,0,0,.957l1.3.75a1.825,1.825,0,0,0,1.656,0l1.291-.746a.506.506,0,0,0,0-.958Zm3.759,2.17-1.3-.751a1.834,1.834,0,0,0-1.657,0l-1.291.746a.505.505,0,0,0,0,.956l1.3.75a1.832,1.832,0,0,0,1.656,0l1.292-.746a.505.505,0,0,0-.005-.958Zm3.758,2.169-1.3-.75a1.833,1.833,0,0,0-1.657,0l-1.292.746a.5.5,0,0,0,.005.955l1.3.751a1.832,1.832,0,0,0,1.656,0l1.292-.746a.506.506,0,0,0-.005-.959Zm-.483,3.118,1.3.75a1.828,1.828,0,0,0,1.656,0l1.292-.746a.5.5,0,0,0-.005-.955l-1.3-.751a1.832,1.832,0,0,0-1.656,0l-1.292.746c-.455.26-.453.689.005.953Zm8,1.222-1.3-.75a1.831,1.831,0,0,0-1.657,0l-1.292.746a.505.505,0,0,0,.005.956l1.3.75a1.825,1.825,0,0,0,1.656,0l1.292-.746a.506.506,0,0,0-.006-.958Zm5.505,3.178-2.968-1.714a1.832,1.832,0,0,0-1.656,0l-1.292.746a.505.505,0,0,0,.005.956l2.967,1.714a1.831,1.831,0,0,0,1.657,0l1.292-.745a.506.506,0,0,0-.006-.958Zm-54.572-24.09,2.967,1.714a1.834,1.834,0,0,0,1.657,0l1.291-.746a.5.5,0,0,0-.005-.955l-2.967-1.714a1.825,1.825,0,0,0-1.656,0l-1.292.746c-.458.26-.457.689,0,.953Zm5.426,3.133,1.3.751a1.832,1.832,0,0,0,1.656,0l1.292-.746c.456-.264.454-.691-.005-.956l-1.3-.75a1.828,1.828,0,0,0-1.657,0l-1.292.745a.5.5,0,0,0,0,.955Zm5.058,2.92a1.834,1.834,0,0,0,1.657,0l1.292-.746a.505.505,0,0,0-.005-.956l-1.3-.75a1.832,1.832,0,0,0-1.656,0l-1.292.746a.5.5,0,0,0,.005.955Zm3.759,2.169a1.831,1.831,0,0,0,1.657,0l1.291-.746a.505.505,0,0,0-.005-.956l-1.3-.75a1.827,1.827,0,0,0-1.657,0l-1.292.746a.5.5,0,0,0,.005.955Zm3.746-.281-1.294.744a.5.5,0,0,0,.005.956l1.3.75a1.825,1.825,0,0,0,1.656,0l1.292-.746a.5.5,0,0,0,0-.955l-1.3-.75a1.83,1.83,0,0,0-1.657,0Zm3.837,2.124-1.45.837a.457.457,0,0,0-.283.579.456.456,0,0,0,.289.287l1.459.842a1.655,1.655,0,0,0,1.5,0l1.45-.838a.456.456,0,0,0,.284-.579.457.457,0,0,0-.289-.286l-1.46-.843a1.653,1.653,0,0,0-1.5,0Zm3.759,2.169-1.45.838a.456.456,0,0,0-.284.579.456.456,0,0,0,.29.286l1.459.843a1.65,1.65,0,0,0,1.5,0l1.451-.837a.457.457,0,0,0,.283-.579.455.455,0,0,0-.289-.286l-1.46-.843a1.656,1.656,0,0,0-1.5,0Zm3.758,2.17-1.45.838a.455.455,0,0,0-.284.578.455.455,0,0,0,.29.288l1.46.843a1.656,1.656,0,0,0,1.5,0l1.451-.838a.456.456,0,0,0,.284-.578.455.455,0,0,0-.29-.286l-1.46-.843a1.656,1.656,0,0,0-1.5,0Zm3.759,2.17-1.45.838a.456.456,0,0,0-.284.579.456.456,0,0,0,.29.286l1.46.843a1.654,1.654,0,0,0,1.5,0l1.451-.839a.456.456,0,0,0,.284-.578.456.456,0,0,0-.29-.286l-1.46-.843a1.656,1.656,0,0,0-1.5,0Zm3.759,2.17-1.451.838a.455.455,0,0,0-.283.579.455.455,0,0,0,.289.286l1.46.842a1.653,1.653,0,0,0,1.5,0l1.451-.837a.456.456,0,0,0,.283-.58.457.457,0,0,0-.289-.285l-1.459-.842a1.652,1.652,0,0,0-1.5,0Zm5.269,4.717,1.45-.837a.456.456,0,0,0,.283-.58.458.458,0,0,0-.289-.286l-1.459-.842a1.655,1.655,0,0,0-1.5,0l-1.45.838a.457.457,0,0,0-.285.578.46.46,0,0,0,.29.288l1.461.842a1.649,1.649,0,0,0,1.493,0Zm3.758,2.17,1.45-.838a.456.456,0,0,0,.285-.578.456.456,0,0,0-.29-.286l-1.46-.843a1.652,1.652,0,0,0-1.5,0l-1.449.837a.456.456,0,0,0-.285.578.455.455,0,0,0,.29.288l1.46.843a1.658,1.658,0,0,0,1.494,0Zm5.283.514-1.46-.843a1.652,1.652,0,0,0-1.5,0l-1.45.837a.457.457,0,0,0-.284.579.458.458,0,0,0,.29.286l1.46.842a1.653,1.653,0,0,0,1.5,0l1.45-.838a.456.456,0,0,0,.284-.579.452.452,0,0,0-.292-.286ZM-79.97,1211.15l4.712,2.722a1.65,1.65,0,0,0,1.5,0l1.451-.837a.458.458,0,0,0,.285-.579.46.46,0,0,0-.291-.286l-4.712-2.72a1.653,1.653,0,0,0-1.5,0l-1.451.838a.457.457,0,0,0-.283.579.453.453,0,0,0,.285.284Zm7.011,4.049,1.46.843a1.655,1.655,0,0,0,1.5,0l1.45-.838a.456.456,0,0,0,.283-.579.455.455,0,0,0-.289-.285l-1.459-.843a1.655,1.655,0,0,0-1.5,0l-1.45.838a.456.456,0,0,0-.283.58.456.456,0,0,0,.285.283Zm3.759,2.17,1.46.842a1.653,1.653,0,0,0,1.5,0l1.45-.837a.458.458,0,0,0,.284-.58.46.46,0,0,0-.289-.286l-1.46-.842a1.653,1.653,0,0,0-1.5,0l-1.45.838a.455.455,0,0,0-.283.579.459.459,0,0,0,.284.284Zm3.758,2.17,1.46.843a1.657,1.657,0,0,0,1.5,0l1.451-.838a.456.456,0,0,0,.285-.578.46.46,0,0,0-.291-.286l-1.46-.843a1.654,1.654,0,0,0-1.5,0l-1.45.838a.456.456,0,0,0-.284.579.453.453,0,0,0,.285.285Zm6.715,3.015,1.451-.838a.457.457,0,0,0,.285-.578.455.455,0,0,0-.291-.286l-1.46-.844a1.656,1.656,0,0,0-1.5,0l-1.451.838a.455.455,0,0,0-.284.578.454.454,0,0,0,.29.287l1.46.843a1.652,1.652,0,0,0,1.494,0Zm3.759,2.17,1.45-.838a.456.456,0,0,0,.284-.579.455.455,0,0,0-.289-.286l-1.46-.843a1.655,1.655,0,0,0-1.5,0l-1.45.837a.458.458,0,0,0-.284.58.46.46,0,0,0,.289.285l1.461.842a1.653,1.653,0,0,0,1.493,0Zm3.759,2.17,1.45-.838a.456.456,0,0,0,.284-.579.457.457,0,0,0-.289-.286l-1.46-.843a1.656,1.656,0,0,0-1.5,0l-1.45.838a.456.456,0,0,0-.284.579.457.457,0,0,0,.289.286l1.461.843a1.653,1.653,0,0,0,1.493,0Zm3.758,2.169,1.45-.837a.457.457,0,0,0,.285-.579.458.458,0,0,0-.29-.287l-1.46-.843a1.655,1.655,0,0,0-1.5,0l-1.45.839a.455.455,0,0,0-.284.578.456.456,0,0,0,.29.287l1.46.843a1.655,1.655,0,0,0,1.494,0Zm3.759,2.171,1.45-.839a.455.455,0,0,0,.284-.578.456.456,0,0,0-.29-.287l-1.459-.843a1.655,1.655,0,0,0-1.5,0l-1.45.837a.457.457,0,0,0-.285.578.46.46,0,0,0,.29.288l1.461.843a1.653,1.653,0,0,0,1.493,0Zm3.758,2.169,1.45-.837a.458.458,0,0,0,.284-.58.457.457,0,0,0-.289-.285l-1.46-.842a1.655,1.655,0,0,0-1.5,0l-1.449.838a.456.456,0,0,0-.284.579.455.455,0,0,0,.289.286l1.46.842a1.653,1.653,0,0,0,1.493,0Zm.8,1.325,1.46.842a1.655,1.655,0,0,0,1.5,0l1.45-.838a.456.456,0,0,0,.284-.579.457.457,0,0,0-.289-.285l-1.461-.843a1.656,1.656,0,0,0-1.5,0l-1.45.838a.456.456,0,0,0-.28.581.46.46,0,0,0,.281.28Zm10.413,2.614-3.712-2.143a1.65,1.65,0,0,0-1.5,0l-1.451.837a.458.458,0,0,0-.285.579.46.46,0,0,0,.291.286l3.712,2.143a1.653,1.653,0,0,0,1.5,0l1.45-.841a.455.455,0,0,0,.281-.579.457.457,0,0,0-.288-.284Zm-54.719-24.078,6.687,3.86a1.867,1.867,0,0,0,1.691,0l1.257-.725a.515.515,0,0,0-.005-.976l-6.686-3.861a1.867,1.867,0,0,0-1.691,0l-1.258.725c-.468.267-.466.7,0,.973Zm9.181,5.3,1.264.73a1.868,1.868,0,0,0,1.691,0l1.258-.725a.515.515,0,0,0-.005-.976l-1.265-.73a1.87,1.87,0,0,0-1.691,0l-1.258.727a.513.513,0,0,0,0,.974Zm3.758,2.17,1.265.73a1.867,1.867,0,0,0,1.691,0l1.258-.726a.515.515,0,0,0-.005-.975l-1.266-.73a1.864,1.864,0,0,0-1.69,0l-1.258.725c-.469.268-.466.7,0,.975Zm3.756,2.169,1.265.73a1.867,1.867,0,0,0,1.691,0l1.258-.725a.516.516,0,0,0-.005-.977l-1.265-.73a1.87,1.87,0,0,0-1.691,0l-1.258.725A.515.515,0,0,0-66.743,1222.9Zm3.759,2.171,1.265.729a1.867,1.867,0,0,0,1.691,0l1.257-.725a.515.515,0,0,0,0-.976l-1.266-.73a1.867,1.867,0,0,0-1.691,0l-1.257.726a.515.515,0,0,0,0,.975Zm3.758,2.169,1.266.73a1.865,1.865,0,0,0,1.69,0l1.258-.726a.514.514,0,0,0-.005-.975l-1.265-.73a1.867,1.867,0,0,0-1.691,0l-1.258.725c-.466.268-.464.705.005.976Zm3.759,2.17,1.265.73a1.869,1.869,0,0,0,1.69,0l1.258-.726c.466-.268.463-.705-.005-.976l-1.265-.73a1.869,1.869,0,0,0-1.69,0l-1.258.725c-.467.269-.464.705.005.976Zm3.759,2.17,1.264.73a1.875,1.875,0,0,0,1.691,0l1.258-.727a.515.515,0,0,0-.005-.976l-1.265-.73a1.868,1.868,0,0,0-1.691,0l-1.258.725a.516.516,0,0,0,.005.977Zm3.758,2.17,1.265.73a1.867,1.867,0,0,0,1.691,0l1.257-.726a.515.515,0,0,0,0-.976l-1.266-.73a1.871,1.871,0,0,0-1.691,0l-1.257.726a.515.515,0,0,0,0,.975Zm3.758,2.17,1.265.729a1.867,1.867,0,0,0,1.691,0l1.258-.726c.466-.269.463-.705-.005-.976l-1.265-.73a1.867,1.867,0,0,0-1.691,0l-1.258.726c-.466.268-.464.7.005.975Zm3.759,2.169,1.265.73a1.87,1.87,0,0,0,1.691,0l1.258-.727a.515.515,0,0,0-.005-.975l-1.265-.73a1.867,1.867,0,0,0-1.691,0l-1.258.725a.515.515,0,0,0,0,.976Zm8.05,1.25-1.266-.73a1.865,1.865,0,0,0-1.69,0l-1.257.725a.515.515,0,0,0,0,.976l1.265.73a1.871,1.871,0,0,0,1.691,0l1.258-.726c.466-.27.463-.706-.006-.977Zm-48.663-24.077-2.933-1.694a1.87,1.87,0,0,0-1.691,0l-1.258.725a.515.515,0,0,0,.005.976l2.933,1.694a1.867,1.867,0,0,0,1.691,0l1.257-.726A.515.515,0,0,0-81.046,1215.267Zm3.758,2.17-1.265-.73a1.867,1.867,0,0,0-1.691,0l-1.258.726a.515.515,0,0,0,.006.976l1.264.73a1.871,1.871,0,0,0,1.691,0l1.258-.726C-76.817,1218.146-76.819,1217.708-77.288,1217.437Zm3.759,2.17-1.265-.73a1.874,1.874,0,0,0-1.691,0l-1.258.726a.515.515,0,0,0,.005.976l1.265.73a1.874,1.874,0,0,0,1.691,0l1.258-.726a.516.516,0,0,0-.005-.976Zm26.311,15.191-23.817-13.75a1.868,1.868,0,0,0-1.691,0l-1.257.725a.515.515,0,0,0,.005.976l23.815,13.751a1.868,1.868,0,0,0,1.691,0l1.258-.726A.515.515,0,0,0-47.218,1234.8Zm3.758,2.17-1.265-.73a1.867,1.867,0,0,0-1.691,0l-1.257.726a.515.515,0,0,0,0,.975l1.266.731a1.871,1.871,0,0,0,1.691,0l1.257-.725a.516.516,0,0,0-.005-.977Zm3.758,2.17-1.264-.73a1.87,1.87,0,0,0-1.691,0l-1.258.727a.515.515,0,0,0,.005.975l1.265.73a1.867,1.867,0,0,0,1.691,0l1.257-.725a.516.516,0,0,0-.005-.977Zm3.837,2.215-1.265-.73a1.867,1.867,0,0,0-1.691,0l-1.258.725a.516.516,0,0,0,.005.976l1.265.73a1.868,1.868,0,0,0,1.691,0l1.257-.725a.516.516,0,0,0,0-.977Z" transform="translate(105.425 -1152.645)" fill="#72b5e8"/>
        <path id="Path_86490-2" data-name="Path 86490" d="M-69.55,1204.771l3.168,1.832a1.61,1.61,0,0,0,1.456,0,.443.443,0,0,0,.274-.564.448.448,0,0,0-.279-.276l-3.169-1.829a1.6,1.6,0,0,0-1.456,0,.444.444,0,0,0-.27.566A.444.444,0,0,0-69.55,1204.771Zm5.427,3.133,1.5.867a1.6,1.6,0,0,0,1.454,0,.443.443,0,0,0,.274-.564.444.444,0,0,0-.278-.276l-1.5-.865a1.606,1.606,0,0,0-1.456,0,.444.444,0,0,0-.273.565.446.446,0,0,0,.278.274Zm3.758,2.17,1.5.866a1.61,1.61,0,0,0,1.456,0,.443.443,0,0,0,.275-.562.442.442,0,0,0-.279-.277l-1.5-.867a1.6,1.6,0,0,0-1.454,0c-.4.232-.4.607.005.841Zm3.758,2.17,1.5.865a1.6,1.6,0,0,0,1.454,0,.443.443,0,0,0,.275-.564.44.44,0,0,0-.279-.276l-1.5-.868a1.61,1.61,0,0,0-1.456,0,.444.444,0,0,0-.278.562.444.444,0,0,0,.283.28Zm3.759,2.17,1.5.865a1.611,1.611,0,0,0,1.454,0,.444.444,0,0,0,.276-.564.444.444,0,0,0-.28-.277l-1.5-.865a1.613,1.613,0,0,0-1.456,0,.443.443,0,0,0-.273.565.444.444,0,0,0,.278.276Zm3.759,2.169,1.5.868a1.608,1.608,0,0,0,1.454,0,.443.443,0,0,0,.276-.564.442.442,0,0,0-.28-.276l-1.5-.866a1.61,1.61,0,0,0-1.456,0,.443.443,0,0,0-.271.565.441.441,0,0,0,.276.273Zm3.758,2.171,1.5.865a1.61,1.61,0,0,0,1.456,0,.443.443,0,0,0,.275-.563.444.444,0,0,0-.28-.277l-1.5-.867a1.608,1.608,0,0,0-1.454,0,.443.443,0,0,0-.279.562.444.444,0,0,0,.282.28Zm3.759,2.169,1.5.866a1.608,1.608,0,0,0,1.454,0,.443.443,0,0,0,.275-.564.448.448,0,0,0-.279-.276l-1.5-.865a1.607,1.607,0,0,0-1.456,0,.444.444,0,0,0-.275.564.445.445,0,0,0,.28.276Zm3.759,2.17,1.5.865a1.607,1.607,0,0,0,1.456,0,.443.443,0,0,0,.274-.564.444.444,0,0,0-.278-.276l-1.5-.866a1.608,1.608,0,0,0-1.454,0,.443.443,0,0,0-.275.563.444.444,0,0,0,.28.277Zm3.758,2.17,1.5.867a1.61,1.61,0,0,0,1.456,0,.443.443,0,0,0,.275-.564.441.441,0,0,0-.279-.276l-1.5-.866a1.61,1.61,0,0,0-1.456,0,.444.444,0,0,0-.272.565.441.441,0,0,0,.277.274Zm3.758,2.17,1.5.865a1.606,1.606,0,0,0,1.456,0,.443.443,0,0,0,.275-.562.442.442,0,0,0-.28-.276l-1.5-.868a1.608,1.608,0,0,0-1.454,0,.444.444,0,0,0-.279.563.441.441,0,0,0,.284.28Zm3.759,2.17,1.5.865a1.611,1.611,0,0,0,1.454,0,.443.443,0,0,0,.274-.565.444.444,0,0,0-.278-.276l-1.5-.865a1.607,1.607,0,0,0-1.456,0,.444.444,0,0,0-.273.565.44.44,0,0,0,.278.275Zm3.837,2.215,1.5.865a1.607,1.607,0,0,0,1.456,0,.443.443,0,0,0,.275-.563.441.441,0,0,0-.279-.276l-1.5-.868a1.61,1.61,0,0,0-1.456,0,.444.444,0,0,0-.277.563.443.443,0,0,0,.282.279Zm-50.231-24.979,1.3.75a1.825,1.825,0,0,0,1.656,0l1.292-.746c.456-.262.453-.691-.005-.955l-1.3-.75a1.831,1.831,0,0,0-1.657,0l-1.291.746c-.456.262-.454.69.005.954Zm6.715,2.923,1.292-.746a.5.5,0,0,0-.005-.955l-1.3-.751a1.832,1.832,0,0,0-1.656,0l-1.292.746a.505.505,0,0,0,.005.957l1.3.75a1.828,1.828,0,0,0,1.656,0Zm.8,1.416,1.3.751a1.831,1.831,0,0,0,1.656,0l1.292-.746a.5.5,0,0,0-.005-.956l-1.3-.75a1.825,1.825,0,0,0-1.656,0l-1.292.746c-.456.261-.454.689.005.954Zm3.758,2.171,1.3.75a1.834,1.834,0,0,0,1.657,0l1.292-.746a.5.5,0,0,0-.005-.955l-1.3-.751a1.829,1.829,0,0,0-1.656,0l-1.292.746c-.455.263-.453.689.005.954Zm8,1.221-1.3-.75a1.832,1.832,0,0,0-1.656,0l-1.292.746a.5.5,0,0,0,0,.955l1.3.751a1.831,1.831,0,0,0,1.657,0l1.291-.745a.506.506,0,0,0-.005-.959Zm3.758,2.17-1.3-.75a1.827,1.827,0,0,0-1.657,0l-1.292.746a.5.5,0,0,0,.005.955l1.3.75a1.828,1.828,0,0,0,1.656,0l1.292-.746a.507.507,0,0,0-.005-.959Zm3.759,2.17-1.3-.75a1.825,1.825,0,0,0-1.656,0l-1.292.746a.5.5,0,0,0,.005.955l1.3.751a1.834,1.834,0,0,0,1.657,0l1.292-.746a.507.507,0,0,0-.005-.959Zm3.758,2.17-1.3-.75a1.829,1.829,0,0,0-1.656,0l-1.291.746a.5.5,0,0,0,0,.956l1.3.75a1.826,1.826,0,0,0,1.656,0l1.291-.746a.506.506,0,0,0,0-.957Zm3.759,2.17-1.3-.751a1.831,1.831,0,0,0-1.657,0l-1.291.745a.505.505,0,0,0,0,.956l1.3.75a1.832,1.832,0,0,0,1.656,0l1.292-.746a.506.506,0,0,0-.005-.958Zm3.758,2.169-1.3-.75a1.834,1.834,0,0,0-1.657,0l-1.292.746a.5.5,0,0,0,.005.955l1.3.751a1.829,1.829,0,0,0,1.656,0l1.292-.746a.506.506,0,0,0-.005-.958Zm-.483,3.118,1.3.751a1.832,1.832,0,0,0,1.656,0l1.292-.746a.505.505,0,0,0-.005-.956l-1.3-.75a1.826,1.826,0,0,0-1.656,0l-1.292.746c-.455.26-.453.689.005.953Zm8,1.222-1.3-.75a1.831,1.831,0,0,0-1.657,0l-1.292.746a.505.505,0,0,0,.005.957l1.3.75a1.825,1.825,0,0,0,1.656,0l1.292-.746a.506.506,0,0,0-.006-.958Zm5.505,3.178-2.968-1.714a1.832,1.832,0,0,0-1.656,0l-1.292.746a.505.505,0,0,0,.005.956l2.967,1.714a1.834,1.834,0,0,0,1.657,0l1.292-.746a.506.506,0,0,0-.006-.958Zm-54.572-24.09,2.967,1.714a1.834,1.834,0,0,0,1.657,0l1.291-.746a.5.5,0,0,0-.005-.955l-2.967-1.714a1.826,1.826,0,0,0-1.656,0l-1.292.746c-.458.26-.457.689,0,.953Zm5.426,3.134,1.3.75a1.832,1.832,0,0,0,1.656,0l1.292-.746c.456-.264.454-.691-.005-.956l-1.3-.75a1.831,1.831,0,0,0-1.657,0l-1.292.745c-.457.26-.455.69,0,.954Zm5.058,2.919a1.834,1.834,0,0,0,1.657,0l1.292-.746a.505.505,0,0,0-.005-.957l-1.3-.75a1.831,1.831,0,0,0-1.656,0l-1.292.746a.505.505,0,0,0,.005.956Zm3.759,2.169a1.831,1.831,0,0,0,1.657,0l1.291-.746a.505.505,0,0,0-.005-.957l-1.3-.75a1.828,1.828,0,0,0-1.657,0l-1.292.746a.5.5,0,0,0,.005.955Zm3.746-.281-1.294.744a.5.5,0,0,0,.005.956l1.3.75a1.825,1.825,0,0,0,1.656,0l1.292-.746a.5.5,0,0,0,0-.955l-1.3-.75a1.831,1.831,0,0,0-1.657,0Zm3.837,2.125-1.45.837a.457.457,0,0,0-.283.58.457.457,0,0,0,.289.286l1.459.842a1.656,1.656,0,0,0,1.5,0l1.45-.838a.456.456,0,0,0,.284-.579.457.457,0,0,0-.289-.285l-1.46-.843a1.657,1.657,0,0,0-1.5,0Zm3.759,2.169-1.45.838a.456.456,0,0,0-.284.579.456.456,0,0,0,.29.285l1.459.843a1.653,1.653,0,0,0,1.5,0l1.451-.838a.457.457,0,0,0,.283-.579.454.454,0,0,0-.289-.285l-1.46-.843a1.657,1.657,0,0,0-1.5,0Zm3.758,2.17-1.45.838a.456.456,0,0,0-.284.578.455.455,0,0,0,.29.288l1.46.843a1.656,1.656,0,0,0,1.5,0l1.451-.838a.456.456,0,0,0,.284-.578.456.456,0,0,0-.29-.286l-1.46-.843a1.654,1.654,0,0,0-1.5,0Zm3.759,2.17-1.45.838a.457.457,0,0,0-.285.578.457.457,0,0,0,.291.286l1.46.844a1.656,1.656,0,0,0,1.5,0l1.451-.838a.456.456,0,0,0,.284-.578.451.451,0,0,0-.29-.286l-1.46-.844a1.656,1.656,0,0,0-1.5,0Zm3.759,2.17-1.451.838a.455.455,0,0,0-.283.579.455.455,0,0,0,.289.285l1.46.842a1.653,1.653,0,0,0,1.5,0l1.451-.837a.457.457,0,0,0,.283-.58.457.457,0,0,0-.289-.286l-1.459-.842a1.656,1.656,0,0,0-1.5-.005Zm5.269,4.717,1.45-.837a.456.456,0,0,0,.283-.58.457.457,0,0,0-.289-.286l-1.459-.842a1.655,1.655,0,0,0-1.5,0l-1.45.838a.456.456,0,0,0-.284.579.457.457,0,0,0,.289.286l1.461.842a1.65,1.65,0,0,0,1.493,0Zm3.758,2.17,1.45-.838a.455.455,0,0,0,.285-.578.455.455,0,0,0-.29-.286l-1.46-.843a1.652,1.652,0,0,0-1.5,0l-1.449.837a.456.456,0,0,0-.285.578.455.455,0,0,0,.29.288l1.46.843a1.658,1.658,0,0,0,1.494,0Zm5.283.514-1.46-.843a1.652,1.652,0,0,0-1.5,0l-1.45.837a.457.457,0,0,0-.284.579.458.458,0,0,0,.29.287l1.46.842a1.653,1.653,0,0,0,1.5,0l1.45-.838a.456.456,0,0,0,.285-.578.455.455,0,0,0-.293-.288Zm-54.733-24.182,4.712,2.72a1.653,1.653,0,0,0,1.5,0l1.451-.838a.458.458,0,0,0,.285-.579.46.46,0,0,0-.291-.287l-4.712-2.72a1.652,1.652,0,0,0-1.5,0l-1.451.838a.457.457,0,0,0-.283.579.458.458,0,0,0,.285.285Zm7.011,4.048,1.46.843a1.655,1.655,0,0,0,1.5,0l1.45-.838a.455.455,0,0,0,.283-.579.455.455,0,0,0-.289-.286l-1.462-.844a1.652,1.652,0,0,0-1.5,0l-1.451.838a.457.457,0,0,0-.282.58.457.457,0,0,0,.288.284Zm3.759,2.17,1.46.843a1.657,1.657,0,0,0,1.5,0l1.45-.837a.458.458,0,0,0,.284-.58.46.46,0,0,0-.289-.285l-1.46-.842a1.652,1.652,0,0,0-1.5,0l-1.45.838a.456.456,0,0,0-.282.58.454.454,0,0,0,.283.282Zm3.758,2.17,1.46.843a1.654,1.654,0,0,0,1.5,0l1.451-.838a.456.456,0,0,0,.285-.578.459.459,0,0,0-.291-.286l-1.46-.843a1.653,1.653,0,0,0-1.5,0l-1.45.838a.455.455,0,0,0-.283.579.456.456,0,0,0,.284.284Zm6.715,3.015,1.451-.838a.457.457,0,0,0,.285-.578.457.457,0,0,0-.291-.286l-1.46-.843a1.653,1.653,0,0,0-1.5,0l-1.451.838a.456.456,0,0,0-.283.579.454.454,0,0,0,.289.285l1.46.843a1.655,1.655,0,0,0,1.494,0Zm3.759,2.17,1.45-.838a.456.456,0,0,0,.284-.579.455.455,0,0,0-.289-.285l-1.46-.842a1.655,1.655,0,0,0-1.5,0l-1.45.837a.458.458,0,0,0-.284.58.459.459,0,0,0,.289.286l1.461.842a1.65,1.65,0,0,0,1.493,0Zm3.759,2.17,1.45-.838a.456.456,0,0,0,.284-.579.457.457,0,0,0-.289-.285l-1.46-.843a1.655,1.655,0,0,0-1.5,0l-1.45.839a.457.457,0,0,0-.285.578.461.461,0,0,0,.29.286l1.461.843a1.653,1.653,0,0,0,1.493,0Zm3.758,2.17,1.45-.838a.457.457,0,0,0,.285-.579.458.458,0,0,0-.29-.286l-1.46-.843a1.655,1.655,0,0,0-1.5,0l-1.45.838a.455.455,0,0,0-.284.578.456.456,0,0,0,.29.287l1.46.843a1.655,1.655,0,0,0,1.494,0Zm3.759,2.17,1.45-.839a.455.455,0,0,0,.284-.578.456.456,0,0,0-.29-.286l-1.459-.842a1.655,1.655,0,0,0-1.5,0l-1.45.837a.458.458,0,0,0-.284.58.46.46,0,0,0,.289.285l1.461.842a1.65,1.65,0,0,0,1.493,0Zm3.758,2.169,1.448-.839a.455.455,0,0,0,.283-.579.455.455,0,0,0-.289-.286l-1.46-.842a1.653,1.653,0,0,0-1.5,0l-1.45.837a.458.458,0,0,0-.284.58.46.46,0,0,0,.289.286l1.46.842a1.65,1.65,0,0,0,1.5,0Zm.8,1.324,1.46.843a1.652,1.652,0,0,0,1.5,0l1.45-.837a.456.456,0,0,0,.285-.578.455.455,0,0,0-.29-.288l-1.46-.843a1.655,1.655,0,0,0-1.5,0l-1.45.839a.456.456,0,0,0-.285.578A.455.455,0,0,0-39.135,1234.392Zm10.414,2.614-3.713-2.143a1.657,1.657,0,0,0-1.5,0l-1.451.838a.456.456,0,0,0-.284.578.455.455,0,0,0,.29.286l3.712,2.144a1.659,1.659,0,0,0,1.5,0l1.452-.841a.455.455,0,0,0,.281-.579.457.457,0,0,0-.288-.285Zm-54.72-24.078,6.688,3.861a1.871,1.871,0,0,0,1.69,0l1.258-.726a.516.516,0,0,0-.005-.976l-6.687-3.86a1.867,1.867,0,0,0-1.691,0l-1.257.725a.514.514,0,0,0,0,.974Zm9.181,5.3,1.265.73a1.864,1.864,0,0,0,1.69,0l1.258-.726a.515.515,0,0,0-.005-.976l-1.265-.73a1.87,1.87,0,0,0-1.691,0l-1.258.725c-.465.268-.463.7.006.975Zm3.758,2.17,1.265.729a1.867,1.867,0,0,0,1.691,0l1.258-.726a.516.516,0,0,0-.005-.976l-1.265-.73a1.867,1.867,0,0,0-1.691,0l-1.258.726a.515.515,0,0,0,.005.975Zm3.759,2.169,1.265.73a1.867,1.867,0,0,0,1.691,0l1.257-.725a.515.515,0,0,0,0-.976l-1.266-.73a1.867,1.867,0,0,0-1.691,0l-1.257.725a.515.515,0,0,0,.005.976Zm3.758,2.171,1.266.73a1.869,1.869,0,0,0,1.69,0l1.258-.725a.515.515,0,0,0-.005-.976l-1.265-.73a1.868,1.868,0,0,0-1.691,0l-1.258.726c-.465.267-.463.7.005.975Zm3.759,2.169,1.265.73a1.868,1.868,0,0,0,1.691,0l1.258-.725a.515.515,0,0,0-.006-.976l-1.264-.73a1.868,1.868,0,0,0-1.691,0l-1.258.725c-.466.268-.464.705.005.976Zm3.759,2.17,1.265.73a1.872,1.872,0,0,0,1.69,0l1.258-.726c.466-.269.463-.705-.005-.976l-1.265-.73a1.874,1.874,0,0,0-1.691,0l-1.257.726c-.467.268-.464.7.005.975Zm3.758,2.17,1.265.73a1.867,1.867,0,0,0,1.691,0l1.258-.725a.515.515,0,0,0-.005-.976l-1.265-.73a1.874,1.874,0,0,0-1.691,0l-1.258.726c-.467.267-.464.7.005.974Zm3.758,2.17,1.265.73a1.867,1.867,0,0,0,1.691,0l1.258-.726a.515.515,0,0,0-.005-.976l-1.265-.73a1.87,1.87,0,0,0-1.691,0l-1.258.726a.515.515,0,0,0,.005.975Zm3.759,2.17,1.265.73a1.87,1.87,0,0,0,1.691,0l1.258-.726a.516.516,0,0,0-.005-.976l-1.265-.73a1.867,1.867,0,0,0-1.691,0l-1.258.726c-.466.268-.464.7.005.975Zm3.758,2.169,1.265.729a1.87,1.87,0,0,0,1.691,0l1.257-.726a.515.515,0,0,0-.005-.976l-1.265-.73a1.874,1.874,0,0,0-1.691,0l-1.257.726a.515.515,0,0,0,.005.975Zm8.05,1.25-1.265-.73a1.865,1.865,0,0,0-1.69,0L-36.6,1239a.515.515,0,0,0,.005.976l1.265.73a1.87,1.87,0,0,0,1.691,0l1.257-.726c.467-.27.464-.706-.005-.978Zm-48.662-24.077-2.933-1.694a1.874,1.874,0,0,0-1.691,0l-1.258.726a.515.515,0,0,0,.005.976l2.933,1.694a1.868,1.868,0,0,0,1.691,0l1.257-.725A.515.515,0,0,0-81.046,1214.931Zm3.758,2.17-1.265-.731a1.868,1.868,0,0,0-1.691,0l-1.258.726a.515.515,0,0,0,.006.976l1.264.73a1.87,1.87,0,0,0,1.691,0l1.258-.726c.466-.268.464-.7-.005-.975Zm3.759,2.17-1.265-.73a1.868,1.868,0,0,0-1.691,0l-1.258.726a.514.514,0,0,0,.005.975l1.265.731a1.871,1.871,0,0,0,1.691,0l1.258-.725a.516.516,0,0,0-.005-.976Zm26.311,15.19-23.817-13.75a1.871,1.871,0,0,0-1.691,0l-1.257.727a.514.514,0,0,0,.005.975l23.815,13.749a1.871,1.871,0,0,0,1.691,0l1.258-.726a.515.515,0,0,0,0-.975Zm3.758,2.171-1.265-.731a1.87,1.87,0,0,0-1.691,0l-1.257.725a.515.515,0,0,0,0,.976l1.266.73a1.867,1.867,0,0,0,1.691,0l1.257-.726a.515.515,0,0,0-.005-.976Zm3.758,2.169-1.264-.73a1.867,1.867,0,0,0-1.691,0l-1.258.726c-.466.269-.463.705.005.976l1.265.73a1.871,1.871,0,0,0,1.691,0l1.257-.725c.467-.269.464-.705-.005-.976Zm3.837,2.215-1.265-.73a1.874,1.874,0,0,0-1.691,0l-1.258.726a.516.516,0,0,0,.005.976l1.265.73a1.867,1.867,0,0,0,1.691,0l1.258-.726a.515.515,0,0,0-.005-.976Z" transform="translate(105.425 -1152.659)" fill="#00223d"/>
        <g id="Group_35151-2" data-name="Group 35151" transform="translate(36.815)">
          <path id="Path_86491-2" data-name="Path 86491" d="M-16.079,1232.76-65.87,1204c-1.927-1.113-3.49-4.1-3.49-6.668v-39.06c0-2.569,1.563-3.752,3.49-2.638l49.791,28.763c1.927,1.113,3.49,4.1,3.49,6.668v39.06C-12.589,1232.692-14.152,1233.872-16.079,1232.76Z" transform="translate(69.36 -1154.692)" fill="url(#linear-gradient-5)"/>
          <path id="Path_86492-2" data-name="Path 86492" d="M-15.709,1230.661l-49.259-28.454a5.937,5.937,0,0,1-2.51-4.971v-39.249a.618.618,0,0,1,.619-.618.61.61,0,0,1,.313.085l.108.063,49.3,28.481a5.368,5.368,0,0,1,2.511,4.972v39.157a.669.669,0,0,1-.669.667.667.667,0,0,1-.33-.088C-15.662,1230.687-15.69,1230.672-15.709,1230.661Z" transform="translate(69.439 -1154.602)" fill="url(#linear-gradient-6)"/>
          <path id="Path_86493-2" data-name="Path 86493" d="M-17.138,1186l-49.3-28.479-.108-.065a.619.619,0,0,0-.847.221.623.623,0,0,0-.084.313v39.249a5.935,5.935,0,0,0,2.511,4.972l49.257,28.452.082.047a.668.668,0,0,0,.911-.249.671.671,0,0,0,.089-.33v-39.16A5.367,5.367,0,0,0-17.138,1186Zm2.118,44.13a.276.276,0,0,1-.276.275.262.262,0,0,1-.136-.036l-49.339-28.5a5.531,5.531,0,0,1-2.314-4.632v-39.249a.227.227,0,0,1,.228-.226.23.23,0,0,1,.114.031l49.41,28.546a5.063,5.063,0,0,1,2.315,4.633Z" transform="translate(69.439 -1154.602)" fill="#022652"/>
          <path id="Path_86494-2" data-name="Path 86494" d="M-15.142,1183.887l-49.792-28.763a2.357,2.357,0,0,0-2.041-.3c-.073.028-1.046.546-1.115.583h0a2.286,2.286,0,0,1,2.171.24l49.791,28.764c1.927,1.113,3.49,4.1,3.49,6.668v39.062c0,1.6-.608,2.667-1.535,2.969a.566.566,0,0,0,.305-.1c.045-.025,1.1-.621,1.143-.65a3.222,3.222,0,0,0,1.076-2.739v-39.06C-11.652,1187.988-13.215,1185-15.142,1183.887Z" transform="translate(69.413 -1154.713)" fill="#00223d"/>
          <path id="Path_86495-2" data-name="Path 86495" d="M-15.142,1183.887l-49.792-28.763a2.357,2.357,0,0,0-2.041-.3c-.073.028-1.046.546-1.115.583h0a2.286,2.286,0,0,1,2.171.24l49.791,28.764Z" transform="translate(69.413 -1154.713)" fill="#00223d"/>
          <path id="Path_86496-2" data-name="Path 86496" d="M-15.974,1184.311l-49.791-28.763a2.313,2.313,0,0,0-2.1-.269,2.579,2.579,0,0,1,1.684.394l49.791,28.764c1.927,1.113,3.49,4.1,3.49,6.668v39.06c0,1.516-.546,2.543-1.388,2.908,1.076-.171,1.807-1.277,1.807-3.033v-39.059C-12.485,1188.411-14.046,1185.425-15.974,1184.311Z" transform="translate(69.423 -1154.696)" fill="#fff"/>
        </g>
      </g>
      <g id="Group_35152-3" data-name="Group 35152" transform="translate(162.809 199.679)">
        <path id="Path_86482-3" data-name="Path 86482" d="M103.333,1263.209l-51.676-29.835a2.384,2.384,0,0,1-1.377-1.96v-2.559c.017-.893.676.657,1.949-.077l29.328-16.932c2.356-1.361,5.92-1.509,7.961-.33l51.676,29.835c.681.394,1.176-1.275,1.352-.745.059.177.022,2.518.025,2.7a3.242,3.242,0,0,1-1.948,2.64l-29.327,16.93C108.938,1264.24,105.374,1264.386,103.333,1263.209Z" transform="translate(-50.279 -1160.374)" fill="#00223d"/>
        <path id="Path_86483-3" data-name="Path 86483" d="M103.333,1260.8l-51.676-29.835c-2.04-1.178-1.784-3.236.572-4.6l29.328-16.932c2.356-1.361,5.92-1.507,7.961-.33l51.676,29.836c2.041,1.178,1.785,3.235-.572,4.6L111.3,1260.467C108.938,1261.828,105.374,1261.975,103.333,1260.8Z" transform="translate(-50.279 -1160.475)" fill="url(#linear-gradient-7)"/>
        <path id="Path_86484-3" data-name="Path 86484" d="M101.2,1261.213c2.041,1.178,5.605,1.031,7.962-.329v-2.513c-2.357,1.361-5.92,1.508-7.962.33Z" transform="translate(-48.146 -1158.378)" fill="#3f92d1" opacity="0.5" style="isolation: isolate"/>
        <path id="Path_86485-3" data-name="Path 86485" d="M103.333,1259.973l-51.676-29.835a2.3,2.3,0,0,1-1.366-2.148,1.067,1.067,0,0,0-.011.142v2.559a2.381,2.381,0,0,0,1.378,1.959l51.675,29.837Z" transform="translate(-50.279 -1159.651)" fill="#00223d"/>
        <path id="Path_86486-3" data-name="Path 86486" d="M140.622,1242.288,111.3,1259.22c-2.357,1.361-5.921,1.507-7.962.33l-51.677-29.835a2.438,2.438,0,0,1-1.362-1.809,2.278,2.278,0,0,0,1.362,2.235l51.676,29.835c2.041,1.178,5.605,1.031,7.962-.329l29.327-16.932c1.379-.8,2.034-1.832,1.934-2.789A3.476,3.476,0,0,1,140.622,1242.288Z" transform="translate(-50.279 -1159.654)" fill="#fff"/>
        <path id="Path_86487-3" data-name="Path 86487" d="M90.659,1249.313l-18.392-10.619c-.368-.213-.321-.583.1-.828l6.9-3.986a1.6,1.6,0,0,1,1.437-.059l18.393,10.617c.368.213.321.583-.1.829l-6.906,3.986A1.6,1.6,0,0,1,90.659,1249.313Z" transform="translate(-49.368 -1159.413)" fill="#fff" opacity="0.3" style="isolation: isolate"/>
        <path id="Path_86488-3" data-name="Path 86488" d="M72.371,1238.3l6.9-3.987a1.6,1.6,0,0,1,1.437-.059L99.1,1244.873a.568.568,0,0,1,.17.149.384.384,0,0,0-.083-.538.359.359,0,0,0-.086-.047l-18.391-10.62a1.6,1.6,0,0,0-1.437.06l-6.9,3.986c-.339.2-.432.469-.273.68A.8.8,0,0,1,72.371,1238.3Z" transform="translate(-49.368 -1159.413)" fill="#a8cff0"/>
        <path id="Path_86489-3" data-name="Path 86489" d="M85.424,1212.792l3.168,1.828a1.613,1.613,0,0,0,1.456,0,.444.444,0,0,0-.005-.841l-3.169-1.83a1.607,1.607,0,0,0-1.456,0,.443.443,0,0,0,.006.841Zm5.427,3.133,1.5.865a1.6,1.6,0,0,0,1.454,0,.443.443,0,0,0,0-.84l-1.5-.866a1.613,1.613,0,0,0-1.456,0,.443.443,0,0,0,.005.841Zm3.758,2.17,1.5.867a1.61,1.61,0,0,0,1.456,0,.443.443,0,0,0,0-.84l-1.5-.866a1.608,1.608,0,0,0-1.454,0,.443.443,0,0,0,.005.839Zm3.758,2.17,1.5.865a1.6,1.6,0,0,0,1.454,0,.442.442,0,0,0,0-.839l-1.5-.868a1.61,1.61,0,0,0-1.456,0,.443.443,0,0,0,.005.842Zm3.759,2.17,1.5.865a1.613,1.613,0,0,0,1.456,0,.444.444,0,0,0-.005-.841l-1.5-.865a1.614,1.614,0,0,0-1.456,0,.445.445,0,0,0,.005.841Zm3.759,2.169,1.5.868a1.608,1.608,0,0,0,1.454,0,.444.444,0,0,0,0-.841l-1.5-.865a1.613,1.613,0,0,0-1.456,0,.444.444,0,0,0,.005.839Zm3.758,2.17,1.5.867a1.606,1.606,0,0,0,1.456,0,.442.442,0,0,0-.005-.839l-1.5-.868a1.608,1.608,0,0,0-1.454,0,.443.443,0,0,0,0,.84Zm3.759,2.17,1.5.866a1.608,1.608,0,0,0,1.454,0,.443.443,0,0,0,.275-.564.448.448,0,0,0-.279-.276l-1.5-.867a1.607,1.607,0,0,0-1.456,0,.444.444,0,0,0,.005.842Zm3.759,2.17,1.5.865a1.6,1.6,0,0,0,1.454,0,.444.444,0,0,0,0-.84l-1.5-.866a1.608,1.608,0,0,0-1.454,0,.443.443,0,0,0,.005.84Zm3.758,2.17,1.5.867a1.61,1.61,0,0,0,1.456,0,.443.443,0,0,0,0-.84l-1.5-.866a1.61,1.61,0,0,0-1.456,0,.444.444,0,0,0,.005.839Zm3.758,2.17,1.5.865a1.607,1.607,0,0,0,1.456,0c.4-.23.4-.606-.005-.84l-1.5-.865a1.6,1.6,0,0,0-1.454,0,.443.443,0,0,0,.005.838Zm3.759,2.17,1.5.865a1.611,1.611,0,0,0,1.454,0,.444.444,0,0,0,0-.841l-1.5-.865a1.607,1.607,0,0,0-1.456,0,.444.444,0,0,0,.005.84Zm3.837,2.215,1.5.867a1.61,1.61,0,0,0,1.456,0,.444.444,0,0,0,0-.84l-1.5-.866a1.61,1.61,0,0,0-1.456,0,.443.443,0,0,0,.005.838Zm-50.231-24.979,1.3.75a1.832,1.832,0,0,0,1.656,0l1.292-.746c.456-.264.453-.691-.005-.956l-1.3-.75a1.831,1.831,0,0,0-1.657,0l-1.291.746c-.456.262-.454.69.005.954Zm6.715,2.922,1.292-.745a.505.505,0,0,0-.005-.956l-1.3-.75a1.833,1.833,0,0,0-1.656,0l-1.292.746a.5.5,0,0,0,.005.955l1.3.751a1.832,1.832,0,0,0,1.656,0Zm.8,1.417,1.3.75a1.828,1.828,0,0,0,1.656,0l1.292-.746a.5.5,0,0,0-.005-.956l-1.3-.75a1.825,1.825,0,0,0-1.656,0l-1.292.746c-.456.262-.454.689.005.954Zm3.757,2.17,1.3.751a1.831,1.831,0,0,0,1.657,0l1.292-.745a.505.505,0,0,0-.005-.956l-1.3-.75a1.828,1.828,0,0,0-1.656,0l-1.292.746c-.455.26-.453.69.005.955Zm8,1.222-1.3-.75a1.828,1.828,0,0,0-1.656,0l-1.292.746a.505.505,0,0,0,0,.956l1.3.75a1.828,1.828,0,0,0,1.657,0l1.291-.746a.505.505,0,0,0-.005-.958Zm3.758,2.169-1.3-.75a1.834,1.834,0,0,0-1.657,0l-1.292.746a.505.505,0,0,0,.005.956l1.3.75a1.825,1.825,0,0,0,1.656,0l1.292-.746a.506.506,0,0,0-.005-.958Zm3.759,2.17-1.3-.75a1.834,1.834,0,0,0-1.657,0l-1.292.746a.5.5,0,0,0,.005.955l1.3.751a1.831,1.831,0,0,0,1.657,0l1.292-.746a.506.506,0,0,0-.005-.958Zm3.758,2.171-1.3-.751a1.827,1.827,0,0,0-1.655,0l-1.292.746a.5.5,0,0,0,0,.956l1.3.75a1.832,1.832,0,0,0,1.656,0l1.292-.746a.506.506,0,0,0-.005-.958Zm3.759,2.169-1.3-.75a1.834,1.834,0,0,0-1.657,0l-1.291.746a.5.5,0,0,0,0,.955l1.3.751a1.828,1.828,0,0,0,1.656,0l1.292-.745a.505.505,0,0,0-.005-.957Zm3.758,2.17-1.3-.75a1.828,1.828,0,0,0-1.657,0l-1.292.746a.5.5,0,0,0,.005.955l1.3.75a1.829,1.829,0,0,0,1.656,0l1.292-.746a.506.506,0,0,0-.005-.958Zm-.483,3.118,1.3.75a1.826,1.826,0,0,0,1.656,0l1.292-.745a.505.505,0,0,0-.005-.956l-1.3-.75a1.826,1.826,0,0,0-1.656,0l-1.292.746c-.455.26-.453.689.005.953Zm8,1.222-1.3-.751a1.831,1.831,0,0,0-1.657,0l-1.292.746a.505.505,0,0,0,.005.957l1.3.75a1.831,1.831,0,0,0,1.656,0l1.292-.746a.506.506,0,0,0-.006-.958Zm5.505,3.178-2.968-1.714a1.832,1.832,0,0,0-1.656,0l-1.292.746a.5.5,0,0,0,.005.955l2.967,1.714a1.828,1.828,0,0,0,1.657,0l1.292-.746a.506.506,0,0,0-.006-.958Zm-54.572-24.09,2.967,1.714a1.833,1.833,0,0,0,1.657,0l1.291-.746a.5.5,0,0,0-.005-.956l-2.967-1.714a1.832,1.832,0,0,0-1.656,0l-1.292.746a.5.5,0,0,0,0,.954ZM83.991,1220l1.3.75a1.825,1.825,0,0,0,1.656,0l1.292-.746a.5.5,0,0,0-.005-.955l-1.3-.75a1.831,1.831,0,0,0-1.657,0l-1.292.746a.5.5,0,0,0,0,.954Zm5.058,2.919a1.827,1.827,0,0,0,1.657,0l1.292-.746a.5.5,0,0,0-.005-.955l-1.3-.75a1.827,1.827,0,0,0-1.657,0l-1.292.746a.5.5,0,0,0,.005.955Zm3.759,2.17a1.831,1.831,0,0,0,1.657,0l1.291-.746a.505.505,0,0,0-.005-.957l-1.3-.751a1.831,1.831,0,0,0-1.657,0l-1.292.745a.505.505,0,0,0,.005.956Zm3.746-.282-1.294.745a.5.5,0,0,0,.005.955l1.3.751a1.83,1.83,0,0,0,1.655,0l1.292-.746a.5.5,0,0,0,0-.955l-1.3-.751a1.828,1.828,0,0,0-1.657,0Zm3.837,2.124-1.45.838a.456.456,0,0,0,.005.865l1.459.843a1.655,1.655,0,0,0,1.5,0l1.45-.838a.456.456,0,0,0,0-.865l-1.46-.843a1.657,1.657,0,0,0-1.5,0Zm3.759,2.17-1.45.838a.456.456,0,0,0,.005.865l1.459.842a1.653,1.653,0,0,0,1.5,0l1.451-.837a.457.457,0,0,0-.005-.866l-1.46-.842a1.653,1.653,0,0,0-1.5,0Zm3.759,2.17-1.451.838a.456.456,0,0,0,.005.865l1.46.843a1.653,1.653,0,0,0,1.5,0l1.451-.838a.456.456,0,0,0,.284-.578.451.451,0,0,0-.29-.286l-1.46-.844a1.656,1.656,0,0,0-1.5,0Zm3.758,2.17-1.45.838a.456.456,0,0,0,.005.865l1.46.842a1.653,1.653,0,0,0,1.5,0l1.451-.838a.456.456,0,0,0,.284-.578.451.451,0,0,0-.29-.286l-1.46-.844a1.659,1.659,0,0,0-1.5,0Zm3.759,2.17-1.451.837a.457.457,0,0,0,.005.866l1.46.842a1.652,1.652,0,0,0,1.5,0l1.451-.838a.456.456,0,0,0-.005-.865l-1.459-.843a1.655,1.655,0,0,0-1.5,0Zm5.269,4.717,1.45-.838a.456.456,0,0,0-.005-.865l-1.459-.843a1.652,1.652,0,0,0-1.5,0l-1.45.838a.455.455,0,0,0,.005.865l1.46.843a1.653,1.653,0,0,0,1.493,0Zm3.758,2.17,1.451-.838a.456.456,0,0,0,.284-.578.451.451,0,0,0-.29-.286l-1.46-.844a1.658,1.658,0,0,0-1.5,0l-1.449.838a.456.456,0,0,0,0,.865l1.46.843a1.655,1.655,0,0,0,1.494,0Zm5.283.513-1.46-.842a1.654,1.654,0,0,0-1.5,0l-1.451.838a.456.456,0,0,0,.005.865l1.46.843a1.65,1.65,0,0,0,1.5,0l1.45-.837a.457.457,0,0,0-.007-.867ZM75,1218.835l4.712,2.721a1.657,1.657,0,0,0,1.5,0l1.451-.838a.455.455,0,0,0-.005-.865l-4.712-2.722a1.65,1.65,0,0,0-1.5,0L75,1217.97a.456.456,0,0,0,0,.864Zm7.011,4.049,1.46.842a1.656,1.656,0,0,0,1.5,0l1.45-.837a.457.457,0,0,0-.005-.866l-1.459-.842a1.655,1.655,0,0,0-1.5,0l-1.45.838a.456.456,0,0,0,0,.864Zm3.759,2.17,1.46.842a1.654,1.654,0,0,0,1.5,0l1.45-.838a.456.456,0,0,0,0-.865l-1.46-.843a1.654,1.654,0,0,0-1.5,0l-1.45.837a.456.456,0,0,0,0,.864Zm3.759,2.169,1.459.843a1.653,1.653,0,0,0,1.5,0l1.451-.838a.455.455,0,0,0-.005-.865l-1.46-.844a1.65,1.65,0,0,0-1.5,0l-1.45.838a.456.456,0,0,0,0,.864Zm6.714,3.016,1.451-.838a.456.456,0,0,0-.005-.866l-1.46-.843a1.656,1.656,0,0,0-1.5,0l-1.451.838a.456.456,0,0,0,.005.865l1.46.843a1.655,1.655,0,0,0,1.494,0Zm3.759,2.17,1.451-.838a.456.456,0,0,0-.005-.865l-1.46-.843a1.655,1.655,0,0,0-1.5,0l-1.45.838a.456.456,0,0,0,0,.865l1.461.843a1.653,1.653,0,0,0,1.493,0Zm3.759,2.169,1.45-.837a.457.457,0,0,0,0-.866l-1.46-.842a1.655,1.655,0,0,0-1.5,0l-1.45.838a.456.456,0,0,0,0,.865l1.461.842a1.653,1.653,0,0,0,1.493,0Zm3.758,2.17,1.45-.838a.456.456,0,0,0,0-.865l-1.46-.843a1.655,1.655,0,0,0-1.5,0l-1.45.838a.457.457,0,0,0,.005.866l1.46.843a1.659,1.659,0,0,0,1.494,0Zm3.759,2.17,1.45-.838a.456.456,0,0,0-.005-.865l-1.459-.843a1.656,1.656,0,0,0-1.5,0l-1.45.838a.456.456,0,0,0,0,.865l1.461.844a1.657,1.657,0,0,0,1.493,0Zm3.758,2.17,1.45-.838a.456.456,0,0,0,0-.865l-1.46-.843a1.659,1.659,0,0,0-1.5,0l-1.449.837a.457.457,0,0,0,0,.866l1.46.842a1.65,1.65,0,0,0,1.493,0Zm.8,1.324,1.46.843a1.655,1.655,0,0,0,1.5,0l1.45-.838a.456.456,0,0,0,0-.865l-1.461-.843a1.653,1.653,0,0,0-1.5,0l-1.45.839a.455.455,0,0,0,0,.86Zm10.413,2.615-3.712-2.144a1.657,1.657,0,0,0-1.5,0l-1.451.838a.456.456,0,0,0,.005.865l3.712,2.144a1.657,1.657,0,0,0,1.5,0l1.45-.841a.456.456,0,0,0-.006-.864Zm-54.719-24.078,6.687,3.86a1.867,1.867,0,0,0,1.691,0l1.257-.726a.515.515,0,0,0,0-.975l-6.687-3.861a1.867,1.867,0,0,0-1.691,0l-1.258.726c-.468.266-.466.7,0,.973Zm9.181,5.3,1.264.73a1.867,1.867,0,0,0,1.691,0l1.258-.726a.514.514,0,0,0-.005-.975l-1.265-.73a1.87,1.87,0,0,0-1.691,0l-1.258.726c-.468.269-.466.7,0,.975Zm3.758,2.17,1.265.73a1.867,1.867,0,0,0,1.691,0l1.258-.726a.516.516,0,0,0-.005-.976l-1.266-.73a1.863,1.863,0,0,0-1.69,0l-1.258.725c-.469.268-.466.7,0,.975Zm3.756,2.169,1.265.73a1.868,1.868,0,0,0,1.691,0l1.258-.726c.466-.269.463-.705-.005-.976l-1.265-.73a1.867,1.867,0,0,0-1.691,0l-1.258.726A.515.515,0,0,0,88.231,1230.588Zm3.759,2.17,1.265.73a1.867,1.867,0,0,0,1.691,0l1.258-.726a.515.515,0,0,0-.005-.975l-1.266-.731a1.871,1.871,0,0,0-1.691,0l-1.257.726c-.466.267-.464.7,0,.975Zm3.758,2.17,1.266.73a1.865,1.865,0,0,0,1.69,0l1.258-.726a.515.515,0,0,0-.005-.976l-1.265-.73a1.867,1.867,0,0,0-1.691,0l-1.258.725c-.466.268-.463.705.005.976Zm3.759,2.17,1.265.729a1.868,1.868,0,0,0,1.69,0l1.258-.726a.515.515,0,0,0-.005-.976l-1.265-.73a1.868,1.868,0,0,0-1.69,0l-1.258.726c-.467.269-.464.705.005.975Zm3.759,2.169,1.264.73a1.867,1.867,0,0,0,1.691,0l1.258-.727a.514.514,0,0,0-.005-.975l-1.265-.731a1.87,1.87,0,0,0-1.691,0l-1.258.725a.516.516,0,0,0,.005.977Zm3.758,2.171,1.265.729a1.867,1.867,0,0,0,1.691,0l1.257-.725a.515.515,0,0,0,0-.976l-1.266-.73a1.867,1.867,0,0,0-1.691,0l-1.257.726a.514.514,0,0,0,0,.974Zm3.758,2.169,1.266.73a1.869,1.869,0,0,0,1.69,0l1.258-.727a.515.515,0,0,0-.005-.975l-1.265-.73a1.871,1.871,0,0,0-1.691,0l-1.258.726c-.466.268-.464.705.005.976Zm3.759,2.17,1.265.73a1.867,1.867,0,0,0,1.691,0l1.258-.726a.515.515,0,0,0-.005-.976l-1.265-.73a1.87,1.87,0,0,0-1.691,0l-1.258.725a.514.514,0,0,0,.005.975Zm8.05,1.249-1.266-.73a1.868,1.868,0,0,0-1.69,0l-1.257.725a.515.515,0,0,0,0,.976l1.265.73a1.867,1.867,0,0,0,1.691,0L122.6,1248a.515.515,0,0,0-.006-.976Zm-48.663-24.076L71,1221.258a1.867,1.867,0,0,0-1.691,0l-1.258.726c-.466.269-.463.705.005.976l2.933,1.694a1.871,1.871,0,0,0,1.691,0l1.257-.725A.515.515,0,0,0,73.928,1222.952Zm3.758,2.17-1.265-.73a1.867,1.867,0,0,0-1.691,0l-1.258.725a.515.515,0,0,0,.006.976l1.265.73a1.868,1.868,0,0,0,1.69,0l1.258-.726A.515.515,0,0,0,77.686,1225.122Zm3.759,2.17-1.265-.73a1.868,1.868,0,0,0-1.691,0l-1.258.725a.515.515,0,0,0,.005.976l1.265.731a1.87,1.87,0,0,0,1.691,0l1.258-.725a.516.516,0,0,0-.005-.976Zm26.311,15.19-23.817-13.75a1.867,1.867,0,0,0-1.691,0l-1.257.725a.515.515,0,0,0,.005.976l23.815,13.751a1.871,1.871,0,0,0,1.691,0l1.258-.726A.515.515,0,0,0,107.756,1242.482Zm3.758,2.171-1.265-.73a1.867,1.867,0,0,0-1.691,0l-1.257.725a.515.515,0,0,0,0,.976l1.266.73a1.867,1.867,0,0,0,1.691,0l1.257-.725a.516.516,0,0,0-.005-.977Zm3.758,2.169-1.264-.729a1.871,1.871,0,0,0-1.691,0l-1.258.726c-.466.269-.463.705.005.976l1.265.73a1.867,1.867,0,0,0,1.691,0l1.257-.726a.515.515,0,0,0-.005-.976Zm3.837,2.215-1.265-.73a1.87,1.87,0,0,0-1.691,0l-1.258.725a.516.516,0,0,0,.005.976l1.265.73a1.873,1.873,0,0,0,1.691,0l1.257-.726a.515.515,0,0,0,0-.976Z" transform="translate(-49.549 -1160.33)" fill="#72b5e8"/>
        <path id="Path_86490-3" data-name="Path 86490" d="M85.424,1212.456l3.168,1.831a1.607,1.607,0,0,0,1.456,0,.443.443,0,0,0-.005-.84l-3.169-1.831a1.61,1.61,0,0,0-1.456,0,.444.444,0,0,0,.006.839Zm5.427,3.133,1.5.867a1.608,1.608,0,0,0,1.454,0,.444.444,0,0,0,0-.84l-1.5-.866a1.61,1.61,0,0,0-1.456,0,.443.443,0,0,0,.005.839Zm3.758,2.17,1.5.865a1.607,1.607,0,0,0,1.456,0,.443.443,0,0,0,0-.839l-1.5-.868a1.608,1.608,0,0,0-1.454,0,.444.444,0,0,0,.005.842Zm3.758,2.17,1.5.865a1.611,1.611,0,0,0,1.454,0,.444.444,0,0,0,0-.841l-1.5-.867a1.607,1.607,0,0,0-1.456,0,.443.443,0,0,0,.005.842Zm3.759,2.169,1.5.866a1.61,1.61,0,0,0,1.456,0,.443.443,0,0,0-.005-.84l-1.5-.865a1.607,1.607,0,0,0-1.456,0,.444.444,0,0,0,.005.84Zm3.759,2.17,1.5.868a1.61,1.61,0,0,0,1.456,0,.444.444,0,0,0-.005-.841l-1.5-.865a1.61,1.61,0,0,0-1.456,0,.443.443,0,0,0,.005.838Zm3.758,2.17,1.5.866a1.61,1.61,0,0,0,1.456,0,.443.443,0,0,0-.005-.84l-1.5-.867a1.6,1.6,0,0,0-1.454,0,.443.443,0,0,0,0,.841Zm3.759,2.17,1.5.865a1.6,1.6,0,0,0,1.454,0,.443.443,0,0,0,0-.84l-1.5-.866a1.61,1.61,0,0,0-1.456,0,.443.443,0,0,0,.005.84Zm3.759,2.17,1.5.865a1.611,1.611,0,0,0,1.454,0,.444.444,0,0,0,0-.841l-1.5-.865a1.611,1.611,0,0,0-1.454,0,.444.444,0,0,0,.005.841Zm3.758,2.169,1.5.868a1.61,1.61,0,0,0,1.456,0,.444.444,0,0,0,0-.841l-1.5-.865a1.61,1.61,0,0,0-1.456,0,.443.443,0,0,0,.005.838Zm3.758,2.171,1.5.865a1.61,1.61,0,0,0,1.456,0,.443.443,0,0,0-.005-.84l-1.5-.867a1.608,1.608,0,0,0-1.454,0,.444.444,0,0,0,.005.843Zm3.759,2.169,1.5.866a1.608,1.608,0,0,0,1.454,0,.443.443,0,0,0,.275-.564.448.448,0,0,0-.279-.276l-1.5-.865a1.607,1.607,0,0,0-1.456,0,.444.444,0,0,0,.005.84Zm3.837,2.216,1.5.865a1.61,1.61,0,0,0,1.456,0,.443.443,0,0,0,0-.84l-1.5-.867a1.61,1.61,0,0,0-1.456,0,.443.443,0,0,0,.005.841Zm-50.231-24.979,1.3.75a1.832,1.832,0,0,0,1.656,0l1.292-.746a.5.5,0,0,0-.005-.956l-1.3-.751a1.834,1.834,0,0,0-1.657,0l-1.291.746c-.456.261-.454.69.005.954Zm6.715,2.922,1.292-.745a.505.505,0,0,0-.005-.956l-1.3-.75a1.832,1.832,0,0,0-1.656,0l-1.292.746a.5.5,0,0,0,.005.955l1.3.751a1.825,1.825,0,0,0,1.656,0Zm.8,1.417,1.3.751a1.829,1.829,0,0,0,1.656,0l1.292-.745a.5.5,0,0,0-.005-.956l-1.3-.751a1.832,1.832,0,0,0-1.656,0l-1.292.746c-.456.261-.454.69.005.955Zm3.757,2.17,1.3.751a1.834,1.834,0,0,0,1.657,0l1.292-.746a.505.505,0,0,0-.005-.956l-1.3-.75a1.829,1.829,0,0,0-1.656,0l-1.292.746a.5.5,0,0,0,.005.954Zm8,1.222-1.3-.75a1.826,1.826,0,0,0-1.656,0l-1.292.746a.5.5,0,0,0,0,.955l1.3.75a1.828,1.828,0,0,0,1.657,0l1.291-.746a.505.505,0,0,0-.005-.958Zm3.758,2.17-1.3-.751a1.831,1.831,0,0,0-1.657,0l-1.292.745a.505.505,0,0,0,.005.957l1.3.75a1.828,1.828,0,0,0,1.656,0l1.292-.746a.506.506,0,0,0-.005-.958Zm3.759,2.17-1.3-.751a1.831,1.831,0,0,0-1.657,0l-1.292.745a.5.5,0,0,0,.005.957l1.3.75a1.828,1.828,0,0,0,1.657,0l1.292-.746a.506.506,0,0,0-.005-.957Zm3.758,2.17-1.3-.751a1.83,1.83,0,0,0-1.655,0l-1.292.746a.5.5,0,0,0,0,.957l1.3.75a1.832,1.832,0,0,0,1.656,0l1.292-.746a.507.507,0,0,0-.005-.959Zm3.759,2.169-1.3-.75a1.834,1.834,0,0,0-1.657,0l-1.291.746a.5.5,0,0,0,0,.955l1.3.751a1.832,1.832,0,0,0,1.656,0l1.292-.746a.506.506,0,0,0-.005-.959Zm3.758,2.17-1.3-.75a1.828,1.828,0,0,0-1.657,0l-1.292.746a.5.5,0,0,0,.005.955l1.3.75a1.829,1.829,0,0,0,1.656,0l1.292-.746a.506.506,0,0,0-.005-.958Zm-.483,3.118,1.3.75a1.825,1.825,0,0,0,1.656,0l1.292-.746a.5.5,0,0,0-.005-.956l-1.3-.751a1.828,1.828,0,0,0-1.656,0l-1.292.745c-.455.261-.453.69.005.954Zm8,1.222-1.3-.751a1.834,1.834,0,0,0-1.657,0l-1.292.746a.505.505,0,0,0,.005.956l1.3.75a1.832,1.832,0,0,0,1.656,0l1.292-.746a.506.506,0,0,0-.006-.957Zm5.505,3.178-2.968-1.714a1.831,1.831,0,0,0-1.656,0l-1.292.746a.5.5,0,0,0,.005.955l2.967,1.714a1.828,1.828,0,0,0,1.657,0l1.292-.746a.506.506,0,0,0-.006-.957Zm-54.572-24.09,2.967,1.714a1.834,1.834,0,0,0,1.657,0l1.291-.746a.5.5,0,0,0-.005-.956l-2.967-1.714a1.829,1.829,0,0,0-1.656,0l-1.292.745a.5.5,0,0,0,0,.954Zm5.426,3.133,1.3.751a1.829,1.829,0,0,0,1.656,0l1.292-.746a.5.5,0,0,0-.005-.955l-1.3-.75a1.831,1.831,0,0,0-1.657,0l-1.292.746c-.457.26-.455.69,0,.954Zm5.058,2.919a1.828,1.828,0,0,0,1.657,0l1.292-.746a.5.5,0,0,0-.005-.955l-1.3-.75a1.828,1.828,0,0,0-1.657,0l-1.292.746a.5.5,0,0,0,.005.955Zm3.759,2.17a1.831,1.831,0,0,0,1.657,0l1.291-.746a.505.505,0,0,0-.005-.956l-1.3-.751a1.831,1.831,0,0,0-1.657,0l-1.292.745a.505.505,0,0,0,.005.957Zm3.746-.282-1.294.745a.505.505,0,0,0,.005.956l1.3.75a1.83,1.83,0,0,0,1.655,0l1.292-.746a.5.5,0,0,0,0-.955l-1.3-.751a1.831,1.831,0,0,0-1.657,0Zm3.837,2.124-1.45.838a.456.456,0,0,0,.005.865l1.459.843a1.655,1.655,0,0,0,1.5,0l1.45-.838a.456.456,0,0,0,0-.865l-1.46-.843a1.653,1.653,0,0,0-1.5,0Zm3.759,2.17-1.45.838a.456.456,0,0,0,.005.865l1.459.842a1.654,1.654,0,0,0,1.5,0l1.451-.837a.457.457,0,0,0-.005-.866l-1.46-.842a1.653,1.653,0,0,0-1.5,0Zm3.759,2.17-1.451.838a.456.456,0,0,0,.005.865l1.46.844a1.656,1.656,0,0,0,1.5,0l1.451-.838a.456.456,0,0,0-.005-.865l-1.46-.844a1.653,1.653,0,0,0-1.5,0Zm3.758,2.17-1.45.838a.456.456,0,0,0,.005.865l1.46.843a1.654,1.654,0,0,0,1.5,0l1.451-.838a.457.457,0,0,0-.005-.866l-1.46-.843a1.658,1.658,0,0,0-1.5,0Zm3.759,2.17-1.451.837a.457.457,0,0,0,.005.866l1.46.842a1.653,1.653,0,0,0,1.5,0l1.451-.838a.456.456,0,0,0-.005-.865l-1.459-.843a1.655,1.655,0,0,0-1.5,0ZM120.7,1240l1.45-.838a.456.456,0,0,0-.005-.865l-1.459-.843a1.659,1.659,0,0,0-1.5,0l-1.45.837a.456.456,0,0,0,.005.866l1.46.842a1.653,1.653,0,0,0,1.493,0Zm3.758,2.17,1.451-.838a.456.456,0,0,0,.284-.578.451.451,0,0,0-.29-.287l-1.46-.844a1.659,1.659,0,0,0-1.5,0l-1.449.838a.456.456,0,0,0,0,.865l1.46.844a1.654,1.654,0,0,0,1.494,0Zm5.283.514-1.46-.843a1.653,1.653,0,0,0-1.5,0l-1.451.838a.456.456,0,0,0,.005.865l1.46.843a1.654,1.654,0,0,0,1.5,0l1.45-.838a.456.456,0,0,0-.007-.867ZM75,1218.5l4.712,2.721a1.653,1.653,0,0,0,1.5,0l1.451-.839a.456.456,0,0,0-.005-.865l-4.712-2.721a1.657,1.657,0,0,0-1.5,0l-1.451.838a.456.456,0,0,0,0,.864Zm7.011,4.049,1.46.843a1.658,1.658,0,0,0,1.5,0l1.45-.837a.457.457,0,0,0-.005-.866l-1.462-.843a1.654,1.654,0,0,0-1.5,0l-1.451.838a.456.456,0,0,0,.005.864Zm3.759,2.17,1.46.842a1.652,1.652,0,0,0,1.5,0l1.45-.838a.456.456,0,0,0,0-.865l-1.46-.842a1.653,1.653,0,0,0-1.5,0l-1.45.838a.456.456,0,0,0,0,.863Zm3.759,2.169,1.459.844a1.656,1.656,0,0,0,1.5,0l1.451-.838a.456.456,0,0,0-.005-.865l-1.46-.844a1.653,1.653,0,0,0-1.5,0l-1.45.838a.457.457,0,0,0,0,.864Zm6.714,3.016,1.451-.838a.456.456,0,0,0-.005-.866l-1.46-.842a1.653,1.653,0,0,0-1.5,0l-1.451.838a.456.456,0,0,0,.005.865l1.46.843a1.656,1.656,0,0,0,1.494,0Zm3.759,2.17,1.451-.838a.456.456,0,0,0-.005-.865l-1.46-.843a1.655,1.655,0,0,0-1.5,0l-1.45.838a.456.456,0,0,0,0,.865l1.461.843a1.653,1.653,0,0,0,1.493,0Zm3.759,2.169,1.45-.837a.457.457,0,0,0,0-.866l-1.46-.842a1.655,1.655,0,0,0-1.5,0l-1.45.838a.456.456,0,0,0,0,.866l1.461.842a1.653,1.653,0,0,0,1.493,0Zm3.758,2.171,1.45-.839a.456.456,0,0,0,0-.865l-1.46-.843a1.652,1.652,0,0,0-1.5,0l-1.45.837a.457.457,0,0,0,.005.866l1.46.843a1.658,1.658,0,0,0,1.494,0Zm3.759,2.169,1.45-.838a.456.456,0,0,0-.005-.865l-1.459-.843a1.655,1.655,0,0,0-1.5,0l-1.45.838a.456.456,0,0,0,0,.865l1.461.843a1.653,1.653,0,0,0,1.493,0Zm3.758,2.17,1.448-.839a.456.456,0,0,0-.005-.865l-1.46-.843a1.653,1.653,0,0,0-1.5,0l-1.45.838a.456.456,0,0,0,0,.865l1.46.843a1.653,1.653,0,0,0,1.5,0Zm.8,1.324,1.46.842a1.655,1.655,0,0,0,1.5,0l1.45-.838a.456.456,0,0,0,0-.865l-1.46-.843a1.655,1.655,0,0,0-1.5,0l-1.45.838a.456.456,0,0,0,0,.866Zm10.414,2.614-3.713-2.143a1.656,1.656,0,0,0-1.5,0l-1.451.838a.456.456,0,0,0,.005.865l3.712,2.143a1.655,1.655,0,0,0,1.5,0l1.452-.84a.456.456,0,0,0-.006-.864Zm-54.72-24.078,6.688,3.861a1.869,1.869,0,0,0,1.69,0l1.258-.725a.515.515,0,0,0-.005-.976l-6.687-3.861a1.87,1.87,0,0,0-1.691,0l-1.257.725a.514.514,0,0,0,0,.974Zm9.181,5.3,1.265.729a1.868,1.868,0,0,0,1.691,0l1.257-.725a.515.515,0,0,0-.005-.976l-1.265-.73a1.867,1.867,0,0,0-1.691,0l-1.258.726c-.465.268-.463.7.006.975Zm3.758,2.169,1.265.73a1.871,1.871,0,0,0,1.691,0l1.258-.726a.515.515,0,0,0-.005-.976l-1.265-.73a1.867,1.867,0,0,0-1.691,0l-1.258.725a.515.515,0,0,0,.005.976Zm3.759,2.17,1.265.73a1.867,1.867,0,0,0,1.691,0l1.258-.725a.516.516,0,0,0-.005-.976l-1.266-.731a1.87,1.87,0,0,0-1.691,0l-1.257.725a.514.514,0,0,0,.005.975Zm3.758,2.17,1.266.73a1.865,1.865,0,0,0,1.69,0l1.258-.725a.515.515,0,0,0-.005-.976l-1.265-.73a1.871,1.871,0,0,0-1.691,0l-1.258.726a.516.516,0,0,0,.005.976Zm3.759,2.17,1.265.73a1.867,1.867,0,0,0,1.691,0l1.258-.726a.515.515,0,0,0-.006-.976l-1.264-.73a1.87,1.87,0,0,0-1.691,0l-1.258.725c-.466.268-.463.7.005.975Zm3.759,2.17,1.265.73a1.872,1.872,0,0,0,1.69,0l1.258-.726a.515.515,0,0,0-.005-.976l-1.265-.73a1.868,1.868,0,0,0-1.691,0l-1.257.725c-.467.269-.464.7.005.976Zm3.758,2.17,1.265.73a1.874,1.874,0,0,0,1.691,0l1.258-.725a.515.515,0,0,0-.005-.976l-1.265-.73a1.871,1.871,0,0,0-1.691,0l-1.258.725c-.467.268-.464.7.005.975Zm3.758,2.17,1.266.73a1.869,1.869,0,0,0,1.69,0l1.258-.725a.515.515,0,0,0-.005-.976l-1.265-.73a1.867,1.867,0,0,0-1.691,0l-1.258.726c-.465.267-.463.7.005.975Zm3.759,2.169,1.265.73a1.87,1.87,0,0,0,1.691,0l1.258-.726a.516.516,0,0,0-.005-.976l-1.265-.73a1.867,1.867,0,0,0-1.691,0l-1.258.725c-.466.269-.464.7.005.975Zm3.759,2.17,1.264.729a1.868,1.868,0,0,0,1.691,0l1.257-.725a.515.515,0,0,0,0-.976l-1.266-.73a1.867,1.867,0,0,0-1.691,0l-1.257.725a.515.515,0,0,0,.006.976Zm8.049,1.249-1.265-.73a1.868,1.868,0,0,0-1.69,0l-1.258.725a.515.515,0,0,0,.005.976l1.265.73a1.868,1.868,0,0,0,1.691,0l1.257-.726c.467-.269.464-.706-.005-.977Zm-48.662-24.076L71,1220.922a1.868,1.868,0,0,0-1.691,0l-1.258.725a.515.515,0,0,0,.005.976l2.933,1.694a1.867,1.867,0,0,0,1.691,0l1.257-.725A.515.515,0,0,0,73.928,1222.616Zm3.758,2.169-1.265-.73a1.867,1.867,0,0,0-1.691,0l-1.258.726a.515.515,0,0,0,.006.975l1.265.73a1.869,1.869,0,0,0,1.69,0l1.258-.726c.466-.268.464-.705-.005-.976Zm3.759,2.171-1.265-.73a1.867,1.867,0,0,0-1.691,0l-1.258.725a.515.515,0,0,0,.005.976l1.265.73a1.867,1.867,0,0,0,1.691,0l1.258-.725a.516.516,0,0,0-.005-.977Zm26.311,15.19L83.939,1228.4a1.867,1.867,0,0,0-1.691,0l-1.257.726a.515.515,0,0,0,.005.976l23.815,13.749a1.867,1.867,0,0,0,1.691,0l1.258-.726c.466-.267.464-.7,0-.974Zm3.758,2.17-1.265-.73a1.867,1.867,0,0,0-1.691,0l-1.257.726a.515.515,0,0,0,0,.975l1.266.731a1.871,1.871,0,0,0,1.691,0l1.257-.725a.515.515,0,0,0-.005-.976Zm3.758,2.17-1.264-.73a1.867,1.867,0,0,0-1.691,0l-1.258.726a.515.515,0,0,0,.005.975l1.265.73a1.868,1.868,0,0,0,1.691,0l1.257-.725a.515.515,0,0,0-.005-.976Zm3.837,2.215-1.265-.73a1.867,1.867,0,0,0-1.691,0l-1.258.726a.515.515,0,0,0,.005.975l1.265.731a1.87,1.87,0,0,0,1.691,0l1.258-.725a.515.515,0,0,0-.005-.976Z" transform="translate(-49.549 -1160.344)" fill="#00223d"/>
        <g id="Group_35151-3" data-name="Group 35151" transform="translate(36.815)">
          <path id="Path_86491-3" data-name="Path 86491" d="M138.895,1240.443,89.1,1211.68c-1.927-1.113-3.49-4.1-3.49-6.668v-39.06c0-2.57,1.563-3.752,3.49-2.639l49.791,28.764c1.927,1.113,3.49,4.1,3.49,6.668V1237.8C142.385,1240.376,140.822,1241.557,138.895,1240.443Z" transform="translate(-85.614 -1162.377)" fill="url(#linear-gradient-8)"/>
          <path id="Path_86492-3" data-name="Path 86492" d="M139.265,1238.346l-49.258-28.454a5.937,5.937,0,0,1-2.511-4.972v-39.248a.619.619,0,0,1,.931-.533l.108.064,49.3,28.481a5.37,5.37,0,0,1,2.511,4.973v39.156a.67.67,0,0,1-.669.668.657.657,0,0,1-.33-.089Z" transform="translate(-85.535 -1162.287)" fill="url(#linear-gradient-9)"/>
          <path id="Path_86493-3" data-name="Path 86493" d="M137.836,1193.684l-49.3-28.48-.108-.064a.618.618,0,0,0-.931.534v39.249a5.936,5.936,0,0,0,2.511,4.972l49.257,28.452.082.046a.668.668,0,0,0,1-.579v-39.159A5.367,5.367,0,0,0,137.836,1193.684Zm2.118,44.129a.276.276,0,0,1-.413.24l-49.339-28.5a5.534,5.534,0,0,1-2.314-4.633v-39.248a.228.228,0,0,1,.228-.227.231.231,0,0,1,.114.032l49.41,28.546a5.062,5.062,0,0,1,2.315,4.632Z" transform="translate(-85.535 -1162.287)" fill="#022652"/>
          <path id="Path_86494-3" data-name="Path 86494" d="M139.832,1191.572,90.04,1162.808a2.356,2.356,0,0,0-2.041-.3c-.073.028-1.046.545-1.115.583h0a2.288,2.288,0,0,1,2.172.24l49.79,28.764c1.927,1.112,3.49,4.1,3.49,6.668v39.062c0,1.6-.608,2.667-1.535,2.969a.575.575,0,0,0,.305-.1c.045-.025,1.1-.621,1.143-.65a3.223,3.223,0,0,0,1.076-2.74v-39.06C143.322,1195.672,141.759,1192.684,139.832,1191.572Z" transform="translate(-85.561 -1162.398)" fill="#00223d"/>
          <path id="Path_86495-3" data-name="Path 86495" d="M139.832,1191.572,90.04,1162.808a2.356,2.356,0,0,0-2.041-.3c-.073.028-1.046.545-1.115.583h0a2.288,2.288,0,0,1,2.172.24l49.79,28.764Z" transform="translate(-85.561 -1162.398)" fill="#00223d"/>
          <path id="Path_86496-3" data-name="Path 86496" d="M139,1192,89.21,1163.232a2.319,2.319,0,0,0-2.1-.269,2.578,2.578,0,0,1,1.684.395l49.791,28.763c1.927,1.113,3.49,4.1,3.49,6.669v39.06c0,1.516-.546,2.543-1.388,2.908,1.076-.172,1.807-1.278,1.807-3.034v-39.059C142.489,1196.095,140.928,1193.11,139,1192Z" transform="translate(-85.551 -1162.381)" fill="#fff"/>
        </g>
      </g>
    </g>
  </g>
</svg>
