<svg xmlns="http://www.w3.org/2000/svg" xmlns:xlink="http://www.w3.org/1999/xlink" width="505" height="390" viewBox="0 0 505 390">
  <defs>
    <linearGradient id="linear-gradient" x1="-165.734" y1="-212.319" x2="-165.734" y2="-212.344" gradientUnits="objectBoundingBox">
      <stop offset="0" stop-color="#fff"/>
      <stop offset="1" stop-color="#d2e6ee"/>
    </linearGradient>
    <linearGradient id="linear-gradient-2" x1="-1828.522" y1="-1587.104" x2="-1828.522" y2="-1587.267" xlink:href="#linear-gradient"/>
    <linearGradient id="linear-gradient-3" x1="-1831.505" y1="-1587.245" x2="-1831.505" y2="-1587.407" xlink:href="#linear-gradient"/>
    <linearGradient id="linear-gradient-4" x1="-1832.022" y1="-1585.816" x2="-1832.022" y2="-1585.979" xlink:href="#linear-gradient"/>
    <linearGradient id="linear-gradient-5" x1="-1833.591" y1="-1586.947" x2="-1833.591" y2="-1587.109" xlink:href="#linear-gradient"/>
    <linearGradient id="linear-gradient-6" x1="-1836.754" y1="-1584.983" x2="-1836.754" y2="-1585.145" xlink:href="#linear-gradient"/>
    <linearGradient id="linear-gradient-7" x1="-1838.032" y1="-1585.119" x2="-1838.032" y2="-1585.281" xlink:href="#linear-gradient"/>
    <linearGradient id="linear-gradient-8" x1="-1840.076" y1="-1584" x2="-1840.076" y2="-1584.162" xlink:href="#linear-gradient"/>
    <linearGradient id="linear-gradient-9" x1="-762.701" y1="-222.909" x2="-762.701" y2="-222.936" xlink:href="#linear-gradient"/>
    <linearGradient id="linear-gradient-10" x1="-659.327" y1="-173.816" x2="-659.327" y2="-173.837" xlink:href="#linear-gradient"/>
    <linearGradient id="linear-gradient-11" x1="-765.047" y1="-222.812" x2="-765.047" y2="-222.838" xlink:href="#linear-gradient"/>
    <linearGradient id="linear-gradient-12" x1="-87.041" y1="-152.566" x2="-87.041" y2="-152.585" xlink:href="#linear-gradient"/>
    <linearGradient id="linear-gradient-13" x1="-167.117" y1="-127.399" x2="-167.117" y2="-127.408" xlink:href="#linear-gradient"/>
    <linearGradient id="linear-gradient-14" x1="-119.094" y1="-200.414" x2="-119.094" y2="-200.427" xlink:href="#linear-gradient"/>
    <linearGradient id="linear-gradient-15" x1="-293.162" y1="-96.738" x2="-293.162" y2="-96.749" xlink:href="#linear-gradient"/>
    <linearGradient id="linear-gradient-16" x1="-136.431" y1="-78.711" x2="-136.431" y2="-78.72" xlink:href="#linear-gradient"/>
    <linearGradient id="linear-gradient-17" x1="-92.745" y1="-79.193" x2="-92.736" y2="-79.193" gradientUnits="objectBoundingBox">
      <stop offset="0" stop-color="#c0bff6"/>
      <stop offset="0.294" stop-color="#c4c3f6"/>
      <stop offset="0.64" stop-color="#d2d2f9"/>
      <stop offset="1" stop-color="#e9e9fd"/>
    </linearGradient>
    <linearGradient id="linear-gradient-18" x1="-65.363" y1="-116.348" x2="-65.356" y2="-116.348" xlink:href="#linear-gradient"/>
    <linearGradient id="linear-gradient-19" x1="-252.306" y1="-472.922" x2="-252.281" y2="-472.922" xlink:href="#linear-gradient-17"/>
    <clipPath id="clip-path">
      <path id="Trazado_118875" data-name="Trazado 118875" d="M4260.736,4731.882l58.113,33.553-7.206,42.485-58.077-33.528Z" transform="translate(-4253.566 -4731.882)" fill="none"/>
    </clipPath>
    <linearGradient id="linear-gradient-20" x1="-65.753" y1="-115.973" x2="-65.747" y2="-115.973" xlink:href="#linear-gradient-17"/>
    <linearGradient id="linear-gradient-21" x1="-254.912" y1="-470.67" x2="-254.887" y2="-470.67" xlink:href="#linear-gradient-17"/>
    <linearGradient id="linear-gradient-22" x1="-94.707" y1="-79.893" x2="-94.698" y2="-79.893" xlink:href="#linear-gradient-17"/>
    <linearGradient id="linear-gradient-23" x1="-66.754" y1="-117.371" x2="-66.748" y2="-117.371" xlink:href="#linear-gradient"/>
    <linearGradient id="linear-gradient-24" x1="-257.641" y1="-477.017" x2="-257.616" y2="-477.017" xlink:href="#linear-gradient-17"/>
    <clipPath id="clip-path-2">
      <path id="Trazado_118876" data-name="Trazado 118876" d="M4358.427,4772.591l58.114,33.552-7.206,42.484L4351.26,4815.1Z" transform="translate(-4351.26 -4772.591)" fill="none"/>
    </clipPath>
    <linearGradient id="linear-gradient-25" x1="-67.144" y1="-116.995" x2="-67.138" y2="-116.995" xlink:href="#linear-gradient-17"/>
    <linearGradient id="linear-gradient-26" x1="-260.254" y1="-474.788" x2="-260.229" y2="-474.788" xlink:href="#linear-gradient-17"/>
  </defs>
  <g id="Grupo_1044627" data-name="Grupo 1044627" transform="translate(-1020 -6653.985)">
    <rect id="Rectángulo_356132" data-name="Rectángulo 356132" width="505" height="390" rx="13" transform="translate(1020 6653.985)" fill="#fda089"/>
    <g id="Grupo_55744" data-name="Grupo 55744" transform="translate(1049.084 6693.658)">
      <g id="Group_41936" data-name="Group 41936" transform="translate(4.379 33.815)">
        <path id="Path_95342" data-name="Path 95342" d="M4606.945,4872.389c-86.505,49.945-226.758,49.945-313.265,0s-86.509-130.919,0-180.864,226.759-49.937,313.265,0S4693.45,4822.442,4606.945,4872.389Z" transform="translate(-4228.8 -4654.068)" fill="none" stroke="#e8e8e8" stroke-linecap="round" stroke-linejoin="round" stroke-width="1"/>
        <path id="Path_95343" data-name="Path 95343" d="M4560.766,4845.728c-68.438,39.517-179.4,39.517-247.842,0s-68.442-103.577,0-143.093,179.4-39.514,247.842,0S4629.2,4806.213,4560.766,4845.728Z" transform="translate(-4215.332 -4646.293)" fill="none" stroke="#e8e8e8" stroke-linecap="round" stroke-linejoin="round" stroke-width="2"/>
        <path id="Path_95344" data-name="Path 95344" d="M4517,4820.459c-51.318,29.626-134.522,29.626-185.842,0s-51.319-77.663,0-107.3,134.524-29.624,185.842,0S4568.321,4790.83,4517,4820.459Z" transform="translate(-4202.569 -4638.925)" fill="none" stroke="#e8e8e8" stroke-linecap="round" stroke-linejoin="round" stroke-width="3"/>
        <path id="Path_95345" data-name="Path 95345" d="M4478.078,4797.99c-36.09,20.836-94.606,20.836-130.7,0s-36.092-54.623,0-75.46,94.608-20.838,130.7,0S4514.17,4777.151,4478.078,4797.99Z" transform="translate(-4191.217 -4632.371)" fill="none" stroke="#e8e8e8" stroke-linecap="round" stroke-linejoin="round" stroke-width="4"/>
        <path id="Path_95346" data-name="Path 95346" d="M4441.785,4777.036c-21.893,12.641-57.389,12.641-79.279,0s-21.893-33.136,0-45.775,57.393-12.641,79.279,0S4463.68,4764.4,4441.785,4777.036Z" transform="translate(-4180.632 -4626.259)" fill="none" stroke="#e8e8e8" stroke-linecap="round" stroke-linejoin="round" stroke-width="5"/>
      </g>
      <ellipse id="Elipse_3830" data-name="Elipse 3830" cx="201.782" cy="105.399" rx="201.782" ry="105.399" transform="translate(28.019 56.101)" fill="none" stroke="#00223d" stroke-linecap="round" stroke-linejoin="round" stroke-width="3"/>
      <g id="Group_41943" data-name="Group 41943" transform="translate(39.733 32.731)">
        <path id="Path_95404" data-name="Path 95404" d="M4289.812,4702.791l-33.334-19.245a5.311,5.311,0,0,1-1.77-1.822,2.177,2.177,0,0,1-.847.247v6.748a5.8,5.8,0,0,0,2.617,4.538l33.334,19.241c1.445.835,2.618-.25,2.618-1.921v-9.3C4292.429,4702.946,4291.257,4703.625,4289.812,4702.791Z" transform="translate(-4253.86 -4641.625)" fill="url(#linear-gradient)"/>
        <path id="Path_95405" data-name="Path 95405" d="M4317.575,4681.889h-.718a5.4,5.4,0,0,1-1.88,2.007l-33.332,18.093c-1.446.832-2.618,1.309-2.618-.363v9.294c0,1.67,1.167,2.346,2.618,1.513l33.329-19.243a5.8,5.8,0,0,0,2.622-4.537v-6.766Z" transform="translate(-4243.526 -4641.56)" fill="#e1eef2"/>
        <path id="Path_95406" data-name="Path 95406" d="M4310.5,4690.659l-27.572,15.918v-4.9l27.572-15.919Z" transform="translate(-4241.926 -4639.97)" fill="#00223d"/>
        <g id="Group_41941" data-name="Group 41941" transform="translate(41.911 47.054)">
          <path id="Path_95407" data-name="Path 95407" d="M4283.571,4700.639l.744-.429.058.579,1.08-.623.059-.647.745-.429v-3.1l-2.686,1.548Z" transform="translate(-4283.571 -4682.819)" fill="url(#linear-gradient-2)"/>
          <path id="Path_95408" data-name="Path 95408" d="M4286.266,4699.081l.744-.43.058.582,1.08-.624.057-.646.743-.43v-3.1l-2.683,1.548Z" transform="translate(-4282.464 -4683.459)" fill="url(#linear-gradient-3)"/>
          <path id="Path_95409" data-name="Path 95409" d="M4288.964,4697.527l.743-.429.06.58,1.081-.625.057-.647.743-.428v-3.1l-2.684,1.548Z" transform="translate(-4281.357 -4684.099)" fill="url(#linear-gradient-4)"/>
          <path id="Path_95410" data-name="Path 95410" d="M4291.655,4695.972l.744-.431.06.581,1.081-.624.057-.646.745-.432v-3.094l-2.686,1.548Z" transform="translate(-4280.25 -4684.736)" fill="url(#linear-gradient-5)"/>
          <path id="Path_95411" data-name="Path 95411" d="M4294.352,4694.415l.743-.429.058.58,1.079-.624.058-.646.743-.431v-3.1l-2.681,1.548Z" transform="translate(-4279.145 -4685.377)" fill="url(#linear-gradient-6)"/>
          <path id="Path_95412" data-name="Path 95412" d="M4297.046,4692.859l.744-.43.056.58,1.083-.624.057-.646.744-.429v-3.1l-2.683,1.549Z" transform="translate(-4278.037 -4686.017)" fill="url(#linear-gradient-7)"/>
          <path id="Path_95413" data-name="Path 95413" d="M4299.741,4688.2v3.1l.743-.43.059.582,1.081-.624.057-.648.743-.428v-3.1Z" transform="translate(-4276.93 -4686.654)" fill="url(#linear-gradient-8)"/>
        </g>
        <path id="Path_95414" data-name="Path 95414" d="M4261.143,4674.643l-3.375-13.076c-.088-.349-.562-.545-1.063-.455s-.875.443-.833.8l1.465,13.427a3.558,3.558,0,0,0,.133.66l2.375,13.017a1.922,1.922,0,0,0,3.782-.69h0l-2.375-13.017A3.727,3.727,0,0,0,4261.143,4674.643Z" transform="translate(-4253.037 -4650.1)" fill="url(#linear-gradient-9)"/>
        <g id="Group_41942" data-name="Group 41942" transform="translate(4.275 24.417)">
          <path id="Path_95415" data-name="Path 95415" d="M4259.718,4671.349a3.815,3.815,0,0,0-.1-.612l-.034-.129Z" transform="translate(-4255.786 -4670.608)" fill="#cfdade"/>
          <path id="Path_95416" data-name="Path 95416" d="M4263.206,4684.237l-1.537-8.409a1.92,1.92,0,0,1-3.784.659l-.995-5.452.024.219a3.624,3.624,0,0,0,.134.66l2.375,13.016a1.922,1.922,0,1,0,3.781-.69Z" transform="translate(-4256.891 -4670.432)" fill="#cfdade"/>
        </g>
        <path id="Path_95417" data-name="Path 95417" d="M4266.332,4670.64l-4.032-16.7a.98.98,0,0,0-1.9.348l2.125,17.044a6.251,6.251,0,0,0,.165.844l3.023,16.569a1.979,1.979,0,1,0,3.784-.689l-3.024-16.572A6.284,6.284,0,0,0,4266.332,4670.64Z" transform="translate(-4251.176 -4653.3)" fill="url(#linear-gradient-10)"/>
        <path id="Path_95418" data-name="Path 95418" d="M4268.924,4683.161l-1.492-8.178a2.083,2.083,0,0,1-1.5,2.187,2.234,2.234,0,0,1-2.332-2.063l-1.8-9.886.152,1.218a6.109,6.109,0,0,0,.167.843l3.022,16.571a1.98,1.98,0,1,0,3.784-.691Z" transform="translate(-4250.602 -4648.403)" fill="#cfdade"/>
        <path id="Path_95419" data-name="Path 95419" d="M4272.162,4671.878l-3.373-13.077a.886.886,0,0,0-1.064-.455c-.5.09-.875.441-.835.8l1.464,13.424a3.786,3.786,0,0,0,.134.66l2.374,13.014a1.922,1.922,0,0,0,3.782-.691h0l-2.372-13.018A4.024,4.024,0,0,0,4272.162,4671.878Z" transform="translate(-4248.512 -4651.236)" fill="url(#linear-gradient-11)"/>
        <path id="Path_95420" data-name="Path 95420" d="M4274.261,4681.8l-2.11-11.565a1.918,1.918,0,0,1-3.8.148l-.534-2.92.148,1.356a3.866,3.866,0,0,0,.134.661l2.374,13.012a1.922,1.922,0,0,0,3.783-.689Z" transform="translate(-4248.128 -4647.482)" fill="#cfdade"/>
        <path id="Path_95421" data-name="Path 95421" d="M4293.514,4708.741a5.79,5.79,0,0,1-5.238,0l-33.329-19.243c-1.446-.836-1.446-2.19,0-3.025l33.331-19.243a5.787,5.787,0,0,1,5.238,0l33.33,19.243c1.446.834,1.446,2.188,0,3.025Z" transform="translate(-4253.861 -4647.835)" fill="url(#linear-gradient-12)"/>
        <path id="Path_95422" data-name="Path 95422" d="M4292.188,4705.088a5.233,5.233,0,0,1-4.721,0l-30.027-17.338c-1.3-.753-1.3-1.972,0-2.729l30.027-17.335a5.23,5.23,0,0,1,4.721,0l30.029,17.338c1.3.752,1.3,1.972,0,2.727Z" transform="translate(-4252.793 -4647.622)" fill="#e1eef2"/>
        <path id="Path_95423" data-name="Path 95423" d="M4257.44,4686.615l4.8,2.772q9.716-9.758,19.449-19.5l-24.251,14C4256.137,4684.643,4256.137,4685.862,4257.44,4686.615Z" transform="translate(-4252.793 -4646.487)" fill="#e6f3f7"/>
        <path id="Path_95424" data-name="Path 95424" d="M4295.516,4671.181l-4.635-2.678q-12.716,12.717-25.409,25.457l4.6,2.659Z" transform="translate(-4249.093 -4647.056)" fill="#e6f3f7"/>
        <path id="Path_95425" data-name="Path 95425" d="M4303.726,4675.916l-4.633-2.676-25.44,25.437,4.637,2.676Q4291.008,4688.637,4303.726,4675.916Z" transform="translate(-4245.732 -4645.112)" fill="#e6f3f7"/>
        <path id="Path_95426" data-name="Path 95426" d="M4309.83,4680.569l-4.492-2.6-18.719,18.722,23.211-13.408C4311.135,4682.542,4311.135,4681.325,4309.83,4680.569Z" transform="translate(-4240.408 -4643.165)" fill="#e6f3f7"/>
      </g>
      <g id="Group_41951" data-name="Group 41951" transform="translate(226.511)">
        <path id="Path_95436" data-name="Path 95436" d="M4424.684,4630.342l-37.747,21.375a.91.91,0,0,0,0,1.725l2.067,1.565a.909.909,0,0,1,0-1.724l36.715-21.2c.825-.476,1.2-.16,1.741-.508,0,0,.31-.1.059-.618C4427.1,4630.087,4425.508,4629.866,4424.684,4630.342Z" transform="translate(-4386.245 -4630.097)" fill="#00223d"/>
        <path id="Path_95437" data-name="Path 95437" d="M4388.232,4673.276v-25.2c0-.954.669-1.339,1.5-.863l-1.969-1.507c-.825-.477-1.494-.09-1.494.861v25.2a3.123,3.123,0,0,0,1.494,2.588c1.45.69.942.173.942.173C4388.943,4674.532,4388.717,4674.071,4388.232,4673.276Z" transform="translate(-4386.265 -4623.77)" fill="#00223d"/>
        <path id="Path_95438" data-name="Path 95438" d="M4427.223,4656.75a3.3,3.3,0,0,1-1.494,2.586l-36.712,21.2c-.826.475-1.5.09-1.5-.863v-25.2a3.3,3.3,0,0,1,1.5-2.586l36.713-21.2c.826-.477,1.494-.092,1.494.862Z" transform="translate(-4385.75 -4629.938)" fill="url(#linear-gradient-13)"/>
        <path id="Path_95439" data-name="Path 95439" d="M4425.267,4655.337a2.982,2.982,0,0,1-1.382,2.313l-33.908,19.577c-.761.439-1.381.119-1.38-.718v-22.124a2.975,2.975,0,0,1,1.381-2.308l33.91-19.579c.762-.441,1.38-.119,1.38.718Z" transform="translate(-4385.307 -4629.19)" fill="#1e2729"/>
        <path id="Path_95440" data-name="Path 95440" d="M4390.16,4646.207l-.274.16a2.933,2.933,0,0,0-1.07,1.184Z" transform="translate(-4385.217 -4623.48)" fill="#2b383b"/>
        <path id="Path_95441" data-name="Path 95441" d="M4388.6,4657.617v4.425l25.659-25.66-10.473,6.048Z" transform="translate(-4385.307 -4627.515)" fill="#2b383b"/>
        <path id="Path_95442" data-name="Path 95442" d="M4425.268,4633.294v-.23a1.278,1.278,0,0,0-.058-.391q-18.306,18.308-36.615,36.614v.677Z" transform="translate(-4385.308 -4629.04)" fill="#2b383b"/>
        <path id="Path_95443" data-name="Path 95443" d="M4388.869,4673.565a2.386,2.386,0,0,1-.271.23v.718a.875.875,0,0,0,.395.829l36.273-36.271v-1.9Z" transform="translate(-4385.308 -4627.193)" fill="#2b383b"/>
        <path id="Path_95444" data-name="Path 95444" d="M4421.523,4644.679v-2.109l-23.812,23.813,4.989-2.881Q4412.11,4654.092,4421.523,4644.679Z" transform="translate(-4381.565 -4624.974)" fill="#2b383b"/>
        <g id="Group_41950" data-name="Group 41950" transform="translate(3.458 28.529)">
          <path id="Path_95445" data-name="Path 95445" d="M4444.591,4661.756v-1.587a1.05,1.05,0,0,0-.62-.868l-14.934-8.623a3.3,3.3,0,0,0-2.987,0l-36.715,21.2a1.044,1.044,0,0,0-.618.868v1.764a1.046,1.046,0,0,0,.618.868l14.933,8.622a3.306,3.306,0,0,0,2.987,0l36.714-21.2a1.053,1.053,0,0,0,.62-.87v-.175Z" transform="translate(-4388.716 -4650.32)" fill="#00223d"/>
          <path id="Path_95446" data-name="Path 95446" d="M4443.973,4659.3a.911.911,0,0,1,0,1.726l-36.715,21.2a3.3,3.3,0,0,1-2.987,0l-14.934-8.622a.911.911,0,0,1,0-1.726l36.716-21.2a3.3,3.3,0,0,1,2.986,0Z" transform="translate(-4388.717 -4650.319)" fill="url(#linear-gradient-14)"/>
          <path id="Path_95447" data-name="Path 95447" d="M4395.652,4666.6a.18.18,0,0,1,.115.229.177.177,0,0,1-.115.114l-2.177,1.257a.658.658,0,0,1-.6,0l-2.176-1.257a.181.181,0,0,1-.114-.229.189.189,0,0,1,.114-.116l2.176-1.256a.658.658,0,0,1,.6,0Z" transform="translate(-4387.953 -4644.182)" fill="#00223d"/>
          <g id="Group_41946" data-name="Group 41946" transform="translate(8.414 1.87)">
            <path id="Path_95448" data-name="Path 95448" d="M4396.982,4662.971l-2.177,1.256a.181.181,0,0,0,0,.344l2.177,1.258a.662.662,0,0,0,.6,0l2.176-1.258a.181.181,0,0,0,0-.344l-2.176-1.256A.65.65,0,0,0,4396.982,4662.971Z" transform="translate(-4394.681 -4647.026)" fill="#00223d"/>
            <path id="Path_95449" data-name="Path 95449" d="M4399.417,4661.565l-2.175,1.257a.183.183,0,0,0-.115.23.186.186,0,0,0,.115.115l2.175,1.256a.654.654,0,0,0,.6,0l2.175-1.256a.182.182,0,0,0,0-.345l-2.175-1.257A.66.66,0,0,0,4399.417,4661.565Z" transform="translate(-4393.681 -4647.603)" fill="#00223d"/>
            <path id="Path_95450" data-name="Path 95450" d="M4401.854,4660.157l-2.177,1.256a.183.183,0,0,0-.113.23.186.186,0,0,0,.113.114l2.177,1.257a.661.661,0,0,0,.6,0l2.176-1.257a.183.183,0,0,0,.115-.232.185.185,0,0,0-.115-.113l-2.176-1.256A.655.655,0,0,0,4401.854,4660.157Z" transform="translate(-4392.681 -4648.18)" fill="#00223d"/>
            <path id="Path_95451" data-name="Path 95451" d="M4404.291,4658.75l-2.176,1.256a.183.183,0,0,0,0,.346l2.178,1.256a.652.652,0,0,0,.6,0l2.178-1.256a.181.181,0,0,0,.112-.232.178.178,0,0,0-.112-.114l-2.178-1.255A.653.653,0,0,0,4404.291,4658.75Z" transform="translate(-4391.68 -4648.758)" fill="#00223d"/>
            <path id="Path_95452" data-name="Path 95452" d="M4406.727,4657.345l-2.177,1.257a.181.181,0,0,0-.113.23.189.189,0,0,0,.113.114l2.177,1.258a.667.667,0,0,0,.6,0l2.177-1.258a.183.183,0,0,0,0-.345l-2.179-1.257A.652.652,0,0,0,4406.727,4657.345Z" transform="translate(-4390.68 -4649.336)" fill="#00223d"/>
            <path id="Path_95453" data-name="Path 95453" d="M4409.163,4655.936l-2.176,1.257a.183.183,0,0,0-.114.232.176.176,0,0,0,.114.112l2.176,1.257a.666.666,0,0,0,.6,0l2.175-1.257a.182.182,0,0,0,0-.345l-2.175-1.257A.672.672,0,0,0,4409.163,4655.936Z" transform="translate(-4389.678 -4649.912)" fill="#00223d"/>
            <path id="Path_95454" data-name="Path 95454" d="M4411.6,4654.531l-2.176,1.257a.18.18,0,0,0-.114.231.182.182,0,0,0,.114.114l2.176,1.256a.657.657,0,0,0,.6,0l2.178-1.256a.182.182,0,0,0,0-.345l-2.18-1.257A.659.659,0,0,0,4411.6,4654.531Z" transform="translate(-4388.677 -4650.491)" fill="#00223d"/>
            <path id="Path_95455" data-name="Path 95455" d="M4414.037,4653.124l-2.178,1.257a.182.182,0,0,0-.112.232.18.18,0,0,0,.112.111l2.178,1.261a.652.652,0,0,0,.6,0l2.176-1.257a.183.183,0,0,0,.114-.231.181.181,0,0,0-.114-.115l-2.176-1.256A.655.655,0,0,0,4414.037,4653.124Z" transform="translate(-4387.677 -4651.068)" fill="#00223d"/>
            <path id="Path_95456" data-name="Path 95456" d="M4416.472,4651.718l-2.177,1.256a.182.182,0,0,0,0,.345l2.177,1.254a.654.654,0,0,0,.6,0l2.174-1.254a.181.181,0,0,0,0-.345l-2.174-1.256A.663.663,0,0,0,4416.472,4651.718Z" transform="translate(-4386.677 -4651.646)" fill="#00223d"/>
          </g>
          <g id="Group_41947" data-name="Group 41947" transform="translate(6.004 3.906)">
            <path id="Path_95457" data-name="Path 95457" d="M4401.21,4664.415l-8.113,4.685a.18.18,0,0,0-.114.229.187.187,0,0,0,.114.115l2.175,1.257a.665.665,0,0,0,.6,0l8.113-4.686a.18.18,0,0,0,.115-.228.177.177,0,0,0-.115-.115l-2.175-1.257A.665.665,0,0,0,4401.21,4664.415Z" transform="translate(-4392.973 -4648.469)" fill="#00223d"/>
            <path id="Path_95458" data-name="Path 95458" d="M4401.918,4663.006l-2.176,1.257a.183.183,0,0,0,0,.346l2.176,1.255a.662.662,0,0,0,.6,0l2.175-1.255a.182.182,0,0,0,0-.346l-2.175-1.257A.663.663,0,0,0,4401.918,4663.006Z" transform="translate(-4390.244 -4649.045)" fill="#00223d"/>
            <path id="Path_95459" data-name="Path 95459" d="M4404.355,4661.6l-2.178,1.256a.183.183,0,0,0-.114.23.19.19,0,0,0,.114.114l2.178,1.256a.652.652,0,0,0,.6,0l2.176-1.256a.183.183,0,0,0,.114-.233.177.177,0,0,0-.114-.111l-2.176-1.256A.652.652,0,0,0,4404.355,4661.6Z" transform="translate(-4389.244 -4649.623)" fill="#00223d"/>
            <path id="Path_95460" data-name="Path 95460" d="M4406.791,4660.2l-2.176,1.255a.182.182,0,0,0-.114.229.177.177,0,0,0,.114.116l2.176,1.258a.669.669,0,0,0,.6,0l2.178-1.258a.183.183,0,0,0,.115-.229.179.179,0,0,0-.115-.117l-2.176-1.255A.649.649,0,0,0,4406.791,4660.2Z" transform="translate(-4388.243 -4650.201)" fill="#00223d"/>
            <path id="Path_95461" data-name="Path 95461" d="M4409.228,4658.788l-2.177,1.257a.181.181,0,0,0,0,.343l2.177,1.257a.664.664,0,0,0,.6,0l2.177-1.257a.182.182,0,0,0,.114-.23.177.177,0,0,0-.114-.113l-2.177-1.257A.658.658,0,0,0,4409.228,4658.788Z" transform="translate(-4387.242 -4650.776)" fill="#00223d"/>
            <path id="Path_95462" data-name="Path 95462" d="M4411.663,4657.381l-2.176,1.255a.182.182,0,0,0,0,.345l2.176,1.257a.65.65,0,0,0,.6,0l2.177-1.257a.182.182,0,0,0,.114-.229.19.19,0,0,0-.114-.116l-2.177-1.255A.647.647,0,0,0,4411.663,4657.381Z" transform="translate(-4386.241 -4651.355)" fill="#00223d"/>
            <path id="Path_95463" data-name="Path 95463" d="M4414.1,4655.975l-2.177,1.258a.181.181,0,0,0-.114.229.185.185,0,0,0,.114.115l2.177,1.256a.661.661,0,0,0,.6,0l2.178-1.256a.183.183,0,0,0,.111-.232.171.171,0,0,0-.111-.112l-2.178-1.258A.652.652,0,0,0,4414.1,4655.975Z" transform="translate(-4385.241 -4651.935)" fill="#00223d"/>
            <path id="Path_95464" data-name="Path 95464" d="M4416.535,4654.567l-2.176,1.255a.182.182,0,0,0-.112.233.179.179,0,0,0,.112.114l2.176,1.257a.665.665,0,0,0,.6,0l2.176-1.257a.182.182,0,0,0,.114-.231.19.19,0,0,0-.114-.115l-2.176-1.256A.656.656,0,0,0,4416.535,4654.567Z" transform="translate(-4384.24 -4652.51)" fill="#00223d"/>
            <path id="Path_95465" data-name="Path 95465" d="M4418.972,4653.162l-2.177,1.254a.181.181,0,0,0-.113.231.174.174,0,0,0,.113.114l2.177,1.258a.661.661,0,0,0,.6,0l2.178-1.258a.184.184,0,0,0,.115-.23.2.2,0,0,0-.115-.115l-2.178-1.254A.655.655,0,0,0,4418.972,4653.162Z" transform="translate(-4383.241 -4653.089)" fill="#00223d"/>
          </g>
          <g id="Group_41948" data-name="Group 41948" transform="translate(13.346 8.144)">
            <path id="Path_95466" data-name="Path 95466" d="M4406.415,4667.418l-8.115,4.685a.183.183,0,0,0-.113.231.18.18,0,0,0,.113.114l2.177,1.257a.662.662,0,0,0,.6,0l8.115-4.685a.183.183,0,0,0,.115-.231.187.187,0,0,0-.115-.114l-2.176-1.257A.664.664,0,0,0,4406.415,4667.418Z" transform="translate(-4398.177 -4651.472)" fill="#00223d"/>
            <path id="Path_95467" data-name="Path 95467" d="M4407.121,4666.011l-2.176,1.257a.182.182,0,0,0-.114.23.174.174,0,0,0,.114.115l2.176,1.256a.66.66,0,0,0,.6,0l2.176-1.256a.182.182,0,0,0,.115-.229.185.185,0,0,0-.115-.116l-2.178-1.257A.665.665,0,0,0,4407.121,4666.011Z" transform="translate(-4395.448 -4652.05)" fill="#00223d"/>
            <path id="Path_95468" data-name="Path 95468" d="M4419.868,4660.385l-12.487,7.211a.181.181,0,0,0-.113.23.183.183,0,0,0,.113.113l2.176,1.257a.674.674,0,0,0,.6,0l12.487-7.211a.182.182,0,0,0,0-.344l-2.177-1.256A.655.655,0,0,0,4419.868,4660.385Z" transform="translate(-4394.448 -4654.359)" fill="#00223d"/>
            <path id="Path_95469" data-name="Path 95469" d="M4419.3,4658.978l-2.175,1.258a.18.18,0,0,0-.114.231.175.175,0,0,0,.114.114l2.175,1.256a.664.664,0,0,0,.6,0l2.177-1.256a.182.182,0,0,0,.112-.233.178.178,0,0,0-.112-.112l-2.177-1.258A.67.67,0,0,0,4419.3,4658.978Z" transform="translate(-4390.446 -4654.938)" fill="#00223d"/>
            <path id="Path_95470" data-name="Path 95470" d="M4425.173,4656.166l-5.611,3.24a.181.181,0,0,0-.113.229.179.179,0,0,0,.113.116l2.178,1.257a.657.657,0,0,0,.6,0l5.614-3.241a.179.179,0,0,0,.115-.23.182.182,0,0,0-.115-.115l-2.176-1.257A.66.66,0,0,0,4425.173,4656.166Z" transform="translate(-4389.445 -4656.093)" fill="#00223d"/>
          </g>
          <g id="Group_41949" data-name="Group 41949" transform="translate(9.628 6)">
            <path id="Path_95471" data-name="Path 95471" d="M4400.324,4667.311l-4.658,2.692a.182.182,0,0,0,0,.344l2.177,1.257a.665.665,0,0,0,.6,0l4.654-2.688a.182.182,0,0,0,.115-.231.187.187,0,0,0-.115-.114l-2.175-1.255A.66.66,0,0,0,4400.324,4667.311Z" transform="translate(-4395.542 -4649.371)" fill="#00223d"/>
            <path id="Path_95472" data-name="Path 95472" d="M4404.488,4664.492l-2.175,1.257a.182.182,0,0,0-.116.23.191.191,0,0,0,.116.114l2.175,1.257a.676.676,0,0,0,.6,0l2.177-1.257a.185.185,0,0,0,.114-.232.18.18,0,0,0-.114-.112l-2.177-1.257A.655.655,0,0,0,4404.488,4664.492Z" transform="translate(-4392.813 -4650.53)" fill="#00223d"/>
            <path id="Path_95473" data-name="Path 95473" d="M4402.051,4665.9l-2.176,1.257a.183.183,0,0,0-.115.23.188.188,0,0,0,.115.115l2.176,1.257a.662.662,0,0,0,.6,0l2.176-1.257a.182.182,0,0,0,.115-.232.184.184,0,0,0-.115-.113l-2.176-1.257A.656.656,0,0,0,4402.051,4665.9Z" transform="translate(-4393.813 -4649.953)" fill="#00223d"/>
            <path id="Path_95474" data-name="Path 95474" d="M4406.922,4663.084l-2.174,1.256a.185.185,0,0,0-.116.233.187.187,0,0,0,.116.113l2.174,1.255a.657.657,0,0,0,.6,0l2.176-1.255a.184.184,0,0,0,.114-.232.188.188,0,0,0-.114-.114l-2.176-1.256A.666.666,0,0,0,4406.922,4663.084Z" transform="translate(-4391.812 -4651.108)" fill="#00223d"/>
            <path id="Path_95475" data-name="Path 95475" d="M4409.361,4661.679l-2.177,1.257a.181.181,0,0,0,0,.343l2.177,1.257a.653.653,0,0,0,.6,0l2.176-1.257a.182.182,0,0,0,0-.343l-2.176-1.257A.659.659,0,0,0,4409.361,4661.679Z" transform="translate(-4390.812 -4651.686)" fill="#00223d"/>
            <path id="Path_95476" data-name="Path 95476" d="M4411.8,4660.27l-2.176,1.258a.181.181,0,0,0,0,.345l2.176,1.256a.659.659,0,0,0,.6,0l2.176-1.256a.182.182,0,0,0,0-.345l-2.176-1.258A.665.665,0,0,0,4411.8,4660.27Z" transform="translate(-4389.811 -4652.263)" fill="#00223d"/>
            <path id="Path_95477" data-name="Path 95477" d="M4414.233,4658.863l-2.175,1.258a.182.182,0,0,0,0,.346l2.175,1.256a.66.66,0,0,0,.6,0l2.177-1.256a.183.183,0,0,0,0-.346l-2.177-1.258A.669.669,0,0,0,4414.233,4658.863Z" transform="translate(-4388.811 -4652.84)" fill="#00223d"/>
            <path id="Path_95478" data-name="Path 95478" d="M4416.67,4657.458l-2.177,1.258a.181.181,0,0,0-.115.23.188.188,0,0,0,.115.114l2.177,1.257a.657.657,0,0,0,.6,0l2.175-1.257a.182.182,0,0,0,.116-.229.187.187,0,0,0-.116-.114l-2.175-1.258A.663.663,0,0,0,4416.67,4657.458Z" transform="translate(-4387.81 -4653.419)" fill="#00223d"/>
            <path id="Path_95479" data-name="Path 95479" d="M4419.105,4656.051l-2.176,1.257a.185.185,0,0,0-.114.232.181.181,0,0,0,.114.113l2.176,1.257a.661.661,0,0,0,.6,0l2.176-1.256a.182.182,0,0,0,.115-.23.185.185,0,0,0-.115-.116l-2.176-1.255A.661.661,0,0,0,4419.105,4656.051Z" transform="translate(-4386.809 -4653.995)" fill="#00223d"/>
            <path id="Path_95480" data-name="Path 95480" d="M4421.541,4654.645l-2.174,1.256a.183.183,0,0,0-.115.231.186.186,0,0,0,.115.113l2.174,1.257a.665.665,0,0,0,.6,0l2.176-1.257a.181.181,0,0,0,.114-.23.176.176,0,0,0-.114-.114l-2.176-1.256A.665.665,0,0,0,4421.541,4654.645Z" transform="translate(-4385.809 -4654.574)" fill="#00223d"/>
          </g>
        </g>
      </g>
      <g id="Grupo_55739" data-name="Grupo 55739" transform="translate(322.892 21.985)">
        <g id="Grupo_55728" data-name="Grupo 55728" transform="translate(41.697 11.757)">
          <g id="Grupo_55727" data-name="Grupo 55727" style="isolation: isolate">
            <g id="Grupo_55725" data-name="Grupo 55725" transform="translate(33.977 40.458)">
              <path id="Trazado_118851" data-name="Trazado 118851" d="M4508.234,4686.672l6.843-3.977,0,1.318-6.844,3.977Z" transform="translate(-4508.231 -4682.695)" fill="#fff"/>
            </g>
            <path id="Trazado_118852" data-name="Trazado 118852" d="M4503.6,4669.605l.181.148q.785.645,1.542,1.348c.06.055.121.11.18.167q.769.723,1.506,1.5c.042.042.083.084.125.129.522.561,1.036,1.139,1.534,1.737l.012.015a42.762,42.762,0,0,1,2.748,3.718c.252.379.487.771.729,1.161.2.329.411.651.606.985.091.157.176.316.266.474.315.558.624,1.12.914,1.688.032.062.066.125.1.188.346.693.679,1.395.986,2.1l.047.108q.454,1.038.845,2.093c.016.045.035.092.051.136q.4,1.077.724,2.161c.013.043.024.086.038.129q.311,1.042.554,2.083c.016.065.031.131.049.2.162.715.3,1.429.417,2.138l.006.036c.114.714.2,1.426.258,2.132,0,.057.01.115.013.173.056.707.087,1.405.083,2.1l6.844-3.977c0-.272,0-.544-.011-.818-.01-.292-.023-.583-.042-.878-.009-.133-.021-.267-.03-.4l-.014-.174c-.01-.1-.016-.2-.026-.307-.026-.3-.06-.591-.1-.889s-.08-.606-.128-.91l0-.026-.006-.034c-.045-.285-.094-.572-.148-.856-.06-.315-.124-.631-.192-.948-.024-.11-.053-.222-.077-.334-.017-.066-.031-.132-.047-.2-.032-.14-.062-.279-.1-.417-.079-.322-.164-.643-.253-.964-.064-.232-.136-.467-.2-.7-.014-.044-.026-.087-.039-.129s-.023-.086-.039-.127c-.093-.312-.194-.625-.3-.939s-.21-.616-.322-.922c-.02-.057-.043-.114-.063-.17s-.035-.093-.054-.139c-.071-.195-.142-.389-.217-.58-.115-.295-.233-.587-.354-.882-.088-.21-.179-.419-.269-.63-.018-.037-.033-.074-.05-.112s-.035-.081-.052-.123q-.193-.438-.4-.875-.226-.481-.463-.958c-.025-.049-.052-.1-.075-.144s-.065-.125-.1-.187c-.129-.253-.259-.506-.392-.757-.167-.313-.345-.62-.52-.929-.091-.158-.177-.318-.27-.478-.034-.061-.067-.125-.1-.187-.158-.269-.334-.527-.5-.794-.242-.39-.479-.782-.732-1.163-.039-.062-.076-.125-.115-.187q-.556-.828-1.142-1.627l-.007-.008h0c-.265-.356-.533-.711-.806-1.058-.223-.282-.449-.562-.677-.836l-.014-.016-.01-.013q-.343-.415-.7-.818t-.706-.782c-.039-.043-.078-.083-.117-.124s-.083-.087-.124-.13c-.167-.177-.332-.352-.5-.525-.253-.256-.507-.51-.765-.756-.078-.077-.161-.149-.239-.223-.059-.055-.12-.11-.179-.166-.125-.118-.251-.237-.378-.352q-.4-.36-.805-.7c-.12-.1-.238-.195-.359-.293-.059-.05-.121-.1-.183-.148-.088-.073-.177-.148-.267-.218-.263-.208-.529-.411-.8-.609-.193-.141-.388-.276-.583-.413l-.107-.077c-.032-.022-.067-.049-.1-.069-.254-.176-.512-.345-.77-.511s-.511-.317-.768-.469c-.06-.036-.12-.07-.179-.1l-15.838-9.144-6.844,3.977,15.837,9.145c.614.354,1.219.74,1.815,1.153l.107.076Q4502.785,4668.95,4503.6,4669.605Z" transform="translate(-4484.126 -4654.015)" fill="#fff"/>
            <g id="Grupo_55726" data-name="Grupo 55726" transform="translate(0 3.976)">
              <path id="Trazado_118853" data-name="Trazado 118853" d="M4500.046,4665.978c10.018,5.784,18.111,19.805,18.08,31.314l0,1.32-33.977-19.619.064-22.159Z" transform="translate(-4484.145 -4656.834)" fill="#d3d3d3"/>
            </g>
          </g>
        </g>
        <path id="Trazado_118854" data-name="Trazado 118854" d="M4460.879,4675.269l32.883-18.435,17.761,10.375v2.455c4.237,1.94,13.622,15.454,12.41,25.972-.407.162-32.852,18.447-32.852,18.447Z" transform="translate(-4452.003 -4641.102)" fill="#fff"/>
        <path id="Trazado_118855" data-name="Trazado 118855" d="M4480.053,4694.722l32.77-18.528.081,6.635-32.2,18.125Z" transform="translate(-4444.128 -4633.149)" fill="#21587b"/>
        <path id="Trazado_118856" data-name="Trazado 118856" d="M4507.819,4664.189l-37.918,21.144,1.78,1.538,36.138-20.228Z" transform="translate(-4448.298 -4638.083)" fill="#e5e5e5"/>
        <path id="Trazado_118857" data-name="Trazado 118857" d="M4454.587,4671.893" transform="translate(-4454.587 -4634.917)" fill="#0b0b0b"/>
        <g id="Grupo_55732" data-name="Grupo 55732" transform="translate(1.969 34.168)">
          <g id="Grupo_55731" data-name="Grupo 55731" style="isolation: isolate">
            <g id="Grupo_55729" data-name="Grupo 55729" transform="translate(33.977 40.46)">
              <path id="Trazado_118858" data-name="Trazado 118858" d="M4480.072,4702.56l6.843-3.977,0,1.318-6.843,3.977Z" transform="translate(-4480.068 -4698.583)" fill="#fff"/>
            </g>
            <path id="Trazado_118859" data-name="Trazado 118859" d="M4475.435,4685.493l.183.148q.782.643,1.54,1.348c.063.056.122.109.181.167.51.482,1.015.985,1.505,1.5l.123.128q.788.844,1.535,1.74l.013.016a42.778,42.778,0,0,1,2.748,3.714c.252.382.488.773.729,1.162.2.328.413.652.6.986.093.156.178.317.267.474.315.558.625,1.119.915,1.689.03.063.065.125.1.187q.522,1.042.986,2.1l.048.109q.452,1.042.843,2.093c.017.046.036.092.054.138q.394,1.078.723,2.161c.013.042.025.085.037.127.208.693.394,1.391.555,2.083.017.066.031.13.048.2.162.716.3,1.429.417,2.138l.007.036q.169,1.074.257,2.133c.006.058.01.115.014.173.056.706.087,1.407.085,2.1l6.842-3.977c0-.271,0-.545-.011-.817-.009-.292-.021-.585-.043-.879-.006-.132-.02-.266-.03-.4,0-.058-.007-.115-.013-.173-.01-.1-.016-.206-.025-.308-.027-.294-.062-.59-.1-.889s-.082-.606-.13-.911l0-.025-.007-.036c-.045-.285-.094-.568-.149-.855-.06-.314-.121-.63-.192-.945-.022-.111-.05-.224-.077-.335-.016-.067-.03-.131-.047-.2-.032-.141-.062-.278-.1-.418-.081-.32-.165-.643-.254-.962-.064-.233-.136-.468-.2-.7-.013-.044-.026-.086-.037-.131l-.039-.125c-.095-.313-.2-.626-.3-.938s-.212-.617-.324-.924c-.021-.056-.042-.113-.064-.171s-.035-.093-.05-.139c-.072-.193-.143-.386-.219-.58-.115-.293-.231-.588-.354-.88-.087-.212-.178-.42-.27-.63-.017-.039-.034-.075-.048-.114s-.035-.08-.051-.119c-.131-.294-.263-.586-.4-.878q-.224-.48-.463-.955c-.024-.051-.05-.1-.074-.146s-.066-.124-.1-.188c-.127-.252-.257-.507-.39-.756-.167-.312-.346-.62-.521-.93-.09-.158-.176-.32-.268-.478-.036-.061-.069-.125-.1-.188-.16-.269-.335-.528-.5-.794-.242-.39-.479-.781-.73-1.163-.041-.061-.076-.125-.117-.186q-.554-.828-1.142-1.627l-.006-.008h0q-.4-.538-.807-1.059c-.221-.283-.448-.561-.676-.837l-.012-.016-.01-.012q-.347-.417-.7-.822c-.23-.263-.467-.523-.7-.781l-.119-.122c-.042-.045-.083-.087-.125-.131-.166-.176-.33-.353-.5-.525-.25-.256-.507-.509-.767-.755-.078-.077-.159-.149-.239-.225-.059-.056-.119-.112-.179-.166-.125-.118-.249-.237-.377-.352-.268-.242-.535-.475-.807-.7-.118-.1-.238-.195-.357-.293l-.183-.148c-.091-.071-.177-.146-.267-.217q-.394-.313-.8-.608c-.192-.142-.389-.278-.581-.414-.039-.025-.073-.052-.11-.075s-.063-.049-.1-.071c-.256-.175-.514-.346-.771-.509s-.512-.319-.769-.472c-.061-.033-.12-.068-.179-.1l-15.837-9.145-6.844,3.978,15.839,9.144c.612.354,1.22.741,1.817,1.155.035.023.069.05.107.076C4474.346,4684.642,4474.894,4685.058,4475.435,4685.493Z" transform="translate(-4455.964 -4669.902)" fill="#fff"/>
            <g id="Grupo_55730" data-name="Grupo 55730" transform="translate(0 3.977)">
              <path id="Trazado_118860" data-name="Trazado 118860" d="M4471.884,4681.867c10.018,5.784,18.114,19.8,18.08,31.313l0,1.318-33.977-19.618.065-22.159Z" transform="translate(-4455.982 -4672.721)" fill="#d3d3d3"/>
            </g>
          </g>
        </g>
        <path id="Trazado_118861" data-name="Trazado 118861" d="M4504.965,4682.829l-5.583-3.439,5.5-3.2Z" transform="translate(-4436.192 -4633.149)" fill="#0e0e0e"/>
        <path id="Trazado_118862" data-name="Trazado 118862" d="M4483.9,4696.416l.031.513,14.848-.36,28.772-15.3.04-.525Z" transform="translate(-4442.55 -4631.284)" fill="#111"/>
        <path id="Trazado_118863" data-name="Trazado 118863" d="M4511.325,4680.968l-27.43,15.454,14.807-.324,28.967-15.372Z" transform="translate(-4442.55 -4631.289)" fill="#00223d"/>
        <path id="Trazado_118864" data-name="Trazado 118864" d="M4461.7,4675.608l10.8,6.307a7.469,7.469,0,0,0,7.4.073l26.265-14.657a2.383,2.383,0,0,0,.02-4.152l-11.133-6.342Z" transform="translate(-4451.667 -4641.1)" fill="#00223d"/>
        <g id="Grupo_55735" data-name="Grupo 55735" transform="translate(23.929 38.614)">
          <g id="Grupo_55734" data-name="Grupo 55734" style="isolation: isolate">
            <path id="Trazado_118865" data-name="Trazado 118865" d="M4471.608,4674.429l0,.007a.554.554,0,0,0,.173.152l.433.25a1.009,1.009,0,0,0,.254.1l.038.01a1.312,1.312,0,0,0,.288.032h.011a1.327,1.327,0,0,0,.3-.034l.01,0a.952.952,0,0,0,.27-.1l1.605-.927a.414.414,0,0,0,.245-.341l0,.4a.413.413,0,0,1-.245.341l-1.606.928a1.047,1.047,0,0,1-.118.056c-.033.012-.066.025-.1.035l-.052.013-.012,0-.022.005c-.029.006-.056.01-.083.014s-.056.008-.083.012l-.083,0h-.043a.342.342,0,0,1-.043,0,.863.863,0,0,1-.093,0c-.037-.005-.071-.009-.106-.016a.434.434,0,0,1-.045-.009l-.038-.01-.073-.019a.9.9,0,0,1-.179-.079l-.432-.252-.01-.005a.577.577,0,0,1-.1-.074.637.637,0,0,1-.051-.055l-.01-.018,0-.005-.017-.025a.33.33,0,0,1-.022-.046.315.315,0,0,1-.013-.047.389.389,0,0,1-.006-.048v-.4A.307.307,0,0,0,4471.608,4674.429Z" transform="translate(-4471.55 -4672.843)" fill="#d4e7ef"/>
            <g id="Grupo_55733" data-name="Grupo 55733">
              <path id="Trazado_118866" data-name="Trazado 118866" d="M4471.8,4674.123c-.322.186-.33.492-.01.677l.432.252a1.319,1.319,0,0,0,1.173,0l1.6-.929a.359.359,0,0,0,0-.679l-.431-.25a1.282,1.282,0,0,0-1.167,0Z" transform="translate(-4471.55 -4673.055)" fill="#dcecf3"/>
            </g>
          </g>
        </g>
        <g id="Grupo_55738" data-name="Grupo 55738" transform="translate(27.797 36.414)">
          <g id="Grupo_55737" data-name="Grupo 55737" style="isolation: isolate">
            <path id="Trazado_118867" data-name="Trazado 118867" d="M4474.349,4672.87l0,.005a.532.532,0,0,0,.175.154l.43.25a.907.907,0,0,0,.254.1l.04.01a1.392,1.392,0,0,0,.288.032h.012a1.4,1.4,0,0,0,.3-.034l.013,0a1.042,1.042,0,0,0,.269-.1l1.6-.926a.411.411,0,0,0,.244-.342l0,.395a.418.418,0,0,1-.246.344l-1.6.926a.929.929,0,0,1-.118.056.706.706,0,0,1-.1.032l-.051.014-.011,0-.024.006-.083.014c-.026,0-.055.007-.082.009a.689.689,0,0,1-.085,0,.142.142,0,0,1-.029,0h-.058c-.03,0-.061,0-.091-.006s-.073-.008-.108-.015l-.044-.011-.039-.01c-.023-.007-.049-.01-.074-.019a.987.987,0,0,1-.179-.078l-.43-.25-.01-.007a.624.624,0,0,1-.1-.075.734.734,0,0,1-.051-.053l-.012-.018,0-.007-.018-.025a.422.422,0,0,1-.02-.047.2.2,0,0,1-.016-.046.4.4,0,0,1,0-.047v-.007l0-.4A.333.333,0,0,0,4474.349,4672.87Z" transform="translate(-4474.292 -4671.283)" fill="#fafcfe"/>
            <g id="Grupo_55736" data-name="Grupo 55736" transform="translate(0.001)">
              <path id="Trazado_118868" data-name="Trazado 118868" d="M4474.538,4672.565c-.323.186-.33.491-.01.676l.43.25a1.306,1.306,0,0,0,1.176,0l1.6-.926a.359.359,0,0,0,0-.68l-.43-.251a1.27,1.27,0,0,0-1.166,0Z" transform="translate(-4474.292 -4671.495)" fill="#fafcfe"/>
            </g>
          </g>
        </g>
        <path id="Trazado_118869" data-name="Trazado 118869" d="M4466.115,4674.394l6.069,3.4L4498.6,4662.7l-5.785-3.6Z" transform="translate(-4449.852 -4640.169)" fill="#0d0d0d"/>
        <path id="Trazado_118870" data-name="Trazado 118870" d="M4467.859,4674.772l-5.988-16.587,1.421.692,6.023,16.643Z" transform="translate(-4451.595 -4640.546)" fill="#00223d"/>
        <path id="Trazado_118871" data-name="Trazado 118871" d="M4468.914,4679.766l26.367-15.292-6.069-16.627-26.366,15.292Z" transform="translate(-4451.195 -4644.792)" fill="#21587b"/>
        <path id="Trazado_118872" data-name="Trazado 118872" d="M4461.889,4662.634l26.367-15.293,1.35.713-26.368,15.293Z" transform="translate(-4451.589 -4644.999)" fill="#00223d"/>
        <path id="Trazado_118873" data-name="Trazado 118873" d="M4485.839,4659.632v5.522l4.661-2.67Z" transform="translate(-4441.754 -4639.951)" fill="#0a0a0a"/>
        <path id="Trazado_118874" data-name="Trazado 118874" d="M4482.043,4645.68c9.547,4.531,12.622,19.663,13.108,21.766a4.2,4.2,0,0,0,2.427,2.832l-22.008,12.46a4.192,4.192,0,0,1-2.426-2.833c-.487-2.1-3.562-17.234-13.109-21.764Z" transform="translate(-4452.35 -4645.68)" fill="#fff"/>
      </g>
      <g id="Group_41938" data-name="Group 41938" transform="translate(326.32 162.776)">
        <path id="Path_95352" data-name="Path 95352" d="M4514.585,4820.71l-22.714,13.114V4778.59l22.714-13.117Z" transform="translate(-4442.704 -4737.276)" fill="url(#linear-gradient-15)"/>
        <path id="Path_95353" data-name="Path 95353" d="M4514.585,4773.575l-22.714,13.114v-1.369l22.714-13.115Z" transform="translate(-4442.704 -4734.512)" fill="#00223d"/>
        <path id="Path_95354" data-name="Path 95354" d="M4514.585,4781.491l-22.714,13.115v-1.372l22.714-13.114Z" transform="translate(-4442.704 -4731.263)" fill="#00223d"/>
        <path id="Path_95355" data-name="Path 95355" d="M4514.585,4789.408l-22.714,13.115v-1.371l22.714-13.115Z" transform="translate(-4442.704 -4728.012)" fill="#00223d"/>
        <path id="Path_95356" data-name="Path 95356" d="M4514.585,4797.325l-22.714,13.116v-1.372l22.714-13.114Z" transform="translate(-4442.704 -4724.76)" fill="#00223d"/>
        <path id="Path_95357" data-name="Path 95357" d="M4501.943,4805.089a3.46,3.46,0,0,1-1.566,2.712c-.865.5-1.565.1-1.565-.9a3.456,3.456,0,0,1,1.565-2.711C4501.242,4803.686,4501.945,4804.089,4501.943,4805.089Z" transform="translate(-4439.853 -4721.467)" fill="#00223d"/>
        <g id="Group_41937" data-name="Group 41937" transform="translate(52.973 78.827)">
          <path id="Path_95358" data-name="Path 95358" d="M4496.135,4806.636a3.461,3.461,0,0,0-1.567,2.712c0,1,.7,1.4,1.567.9a3.464,3.464,0,0,0,1.567-2.714C4497.7,4806.541,4497,4806.136,4496.135,4806.636Z" transform="translate(-4494.568 -4799.289)" fill="#ff6148"/>
          <path id="Path_95359" data-name="Path 95359" d="M4504.893,4801.579a3.468,3.468,0,0,0-1.566,2.711c0,1,.7,1.4,1.566.9a3.461,3.461,0,0,0,1.567-2.712C4506.46,4801.484,4505.755,4801.081,4504.893,4801.579Z" transform="translate(-4490.973 -4801.365)" fill="#ff6148"/>
        </g>
        <path id="Path_95360" data-name="Path 95360" d="M4506.185,4838.27l-49.168-28.387v-55.235l49.168,28.386Z" transform="translate(-4457.017 -4741.725)" fill="url(#linear-gradient-16)"/>
        <path id="Path_95361" data-name="Path 95361" d="M4506.185,4786.986l-49.168-28.385,22.718-13.116,49.166,28.387Z" transform="translate(-4457.017 -4745.485)" fill="#d2e1f1"/>
        <path id="Path_95362" data-name="Path 95362" d="M4506.185,4791.134l-49.168-28.386v-1.369l49.168,28.387Z" transform="translate(-4457.017 -4738.96)" fill="#21587b"/>
        <path id="Path_95363" data-name="Path 95363" d="M4506.185,4799.053l-49.167-28.386V4769.3l49.167,28.385Z" transform="translate(-4457.015 -4735.709)" fill="#21587b"/>
        <path id="Path_95364" data-name="Path 95364" d="M4506.185,4806.97l-49.167-28.385v-1.372l49.167,28.389Z" transform="translate(-4457.015 -4732.458)" fill="#21587b"/>
        <path id="Path_95365" data-name="Path 95365" d="M4506.185,4814.886l-49.168-28.386v-1.371l49.168,28.386Z" transform="translate(-4457.017 -4729.206)" fill="#21587b"/>
      </g>
      <g id="Group_34948" data-name="Group 34948" transform="translate(0 140.038)">
        <g id="Group_34930" data-name="Group 34930" transform="translate(3.203 58.043)" opacity="0.8">
          <path id="Path_86148" data-name="Path 86148" d="M4285.729,4825.121a5.555,5.555,0,0,1-2.771-.74h0l-54.154-31.265a1.679,1.679,0,0,1,0-2.906l34.118-19.7.209.125,56.717,32.743a1.683,1.683,0,0,1,0,2.908l-31.348,18.1A5.568,5.568,0,0,1,4285.729,4825.121Zm-2.355-1.466a4.8,4.8,0,0,0,4.712,0l31.343-18.1a.843.843,0,0,0,.309-1.151.858.858,0,0,0-.309-.309l-56.5-32.623-.052.032-33.646,19.425a.841.841,0,0,0,0,1.458Z" transform="translate(-4227.966 -4770.512)" fill="#00223d"/>
        </g>
        <g id="Group_34943" data-name="Group 34943">
          <g id="Group_34942" data-name="Group 34942">
            <g id="Group_34941" data-name="Group 34941">
              <g id="Group_34935" data-name="Group 34935">
                <g id="Group_34932" data-name="Group 34932" transform="translate(37.144)">
                  <path id="Path_86149" data-name="Path 86149" d="M4252.7,4774.974l7.543-44.753-.6-.258.911-.521v0a.655.655,0,0,1,.7.049l60.29,34.808a1.7,1.7,0,0,1,.783,1.533l-7.605,45.11a.564.564,0,0,1-.319.459h0l-.89.516-.154-.833.052.016-59.927-34.6A1.7,1.7,0,0,1,4252.7,4774.974Z" transform="translate(-4251.75 -4729.366)" fill="url(#linear-gradient-17)"/>
                  <path id="Path_86150" data-name="Path 86150" d="M4304.411,4755.127l.991-.437a1.346,1.346,0,0,1,.127.745l-7.6,45.111a.573.573,0,0,1-.318.461h0l-.891.514-.152-.832.05.016-3.031-1.751Z" transform="translate(-4234.959 -4718.968)" fill="#dee4f0"/>
                  <path id="Path_86151" data-name="Path 86151" d="M4252.812,4776.891l60.29,34.808c.468.268.866.113.947-.369l7.6-45.113a1.7,1.7,0,0,0-.784-1.531l-60.289-34.809c-.466-.268-.865-.113-.947.369l-7.6,45.116A1.709,1.709,0,0,0,4252.812,4776.891Z" transform="translate(-4252.026 -4729.209)" fill="#00223d"/>
                  <g id="Group_34931" data-name="Group 34931" transform="translate(2.174 3.549)" opacity="0.51">
                    <path id="Path_86152" data-name="Path 86152" d="M4260.736,4731.882l58.113,33.554-7.208,42.483-58.075-33.528Z" transform="translate(-4253.566 -4731.882)" fill="#00223d"/>
                  </g>
                </g>
                <g id="Group_34934" data-name="Group 34934" transform="translate(0 47.527)">
                  <path id="Path_86153" data-name="Path 86153" d="M4225.717,4783.416l3.292,1.718L4262,4766.085a2.39,2.39,0,0,1,2.153.089l56.9,32.851c.545-.3,3.027-1.5,3.027-1.5l-1.2,3.139,0,0a.72.72,0,0,1-.337.374L4287.79,4821.1a2.4,2.4,0,0,1-2.154-.09l-58.23-33.618a1.041,1.041,0,0,1-.489-.52h0Z" transform="translate(-4225.686 -4761.902)" fill="#00223d"/>
                  <path id="Path_86154" data-name="Path 86154" d="M4226.238,4785.111l59.674,34.455a2.461,2.461,0,0,0,2.208.092l35.61-20.561c.566-.327.5-.9-.158-1.273l-59.677-34.455a2.447,2.447,0,0,0-2.206-.092l-35.613,20.561C4225.513,4784.163,4225.582,4784.732,4226.238,4785.111Z" transform="translate(-4225.696 -4763.057)" fill="url(#linear-gradient-18)"/>
                  <path id="Path_86155" data-name="Path 86155" d="M4226.234,4778.6l59.676,34.455a2.454,2.454,0,0,0,2.206.092l35.612-20.562a.725.725,0,0,0,.346-.384.6.6,0,0,1-.346.728l-35.612,20.561a2.449,2.449,0,0,1-2.206-.092l-59.676-34.455c-.439-.254-.609-.594-.5-.889A1.041,1.041,0,0,0,4226.234,4778.6Z" transform="translate(-4225.695 -4756.896)" fill="#fff"/>
                  <path id="Path_86156" data-name="Path 86156" d="M4281.862,4798.044v-.654c0-.061-.036-.09-.083-.061l-2.309,1.33a.2.2,0,0,0-.084.16v.657c0,.062.038.091.084.062l2.309-1.333A.2.2,0,0,0,4281.862,4798.044Z" transform="translate(-4203.645 -4748.988)" fill="#21587b"/>
                  <path id="Path_86157" data-name="Path 86157" d="M4279.416,4799.457v-.656c0-.062-.037-.091-.083-.062l-2.31,1.333a.2.2,0,0,0-.085.162v.653c0,.062.039.091.085.062l2.31-1.332A.2.2,0,0,0,4279.416,4799.457Z" transform="translate(-4204.65 -4748.409)" fill="#21587b"/>
                  <path id="Path_86158" data-name="Path 86158" d="M4308.555,4795.618l-49.594-28.632a1.067,1.067,0,0,0-1.069,0l-17.657,10.217a.379.379,0,0,0-.14.52.359.359,0,0,0,.14.139l49.565,28.62a1.076,1.076,0,0,0,1.069,0l17.683-10.2a.378.378,0,0,0,.144-.518A.361.361,0,0,0,4308.555,4795.618Z" transform="translate(-4219.804 -4761.503)" fill="#d2e1f1"/>
                  <path id="Path_86159" data-name="Path 86159" d="M4308.552,4796.275l-.178.1-49.413-28.529a1.066,1.066,0,0,0-1.068,0l-17.479,10.114-.176-.1a.38.38,0,0,1,0-.659l17.659-10.217a1.066,1.066,0,0,1,1.068,0l49.591,28.632a.376.376,0,0,1,.136.52A.349.349,0,0,1,4308.552,4796.275Z" transform="translate(-4219.803 -4761.503)" fill="#727997"/>
                  <g id="Group_34933" data-name="Group 34933" transform="translate(22.889 9.364)">
                    <path id="Path_86160" data-name="Path 86160" d="M4254.694,4770.8l41.977,24.236,1.813-1.165-41.867-24.172Z" transform="translate(-4236.676 -4769.696)" fill="#00223d"/>
                    <path id="Path_86161" data-name="Path 86161" d="M4252.762,4773.526l38.11,22,1.308-1.458-37.5-21.648Z" transform="translate(-4237.469 -4768.578)" fill="#00223d"/>
                    <path id="Path_86162" data-name="Path 86162" d="M4246.257,4772.274l47.572,27.466,1.914-1.105-47.572-27.466Z" transform="translate(-4240.141 -4769.091)" fill="#00223d"/>
                    <path id="Path_86163" data-name="Path 86163" d="M4244.088,4773.526l47.571,27.464,1.915-1.105L4246,4772.42Z" transform="translate(-4241.033 -4768.578)" fill="#00223d"/>
                    <path id="Path_86164" data-name="Path 86164" d="M4241.921,4774.778l47.572,27.463,1.916-1.1-47.574-27.462Z" transform="translate(-4241.921 -4768.063)" fill="#00223d"/>
                    <path id="Path_86165" data-name="Path 86165" d="M4284.135,4787.8l1.917,1.1,1.914-1.1-1.914-1.106Z" transform="translate(-4224.585 -4762.717)" fill="#00223d"/>
                    <path id="Path_86166" data-name="Path 86166" d="M4279.347,4788.875l3.976,2.3,1.913-1.106-3.975-2.3Z" transform="translate(-4226.552 -4762.274)" fill="#00223d"/>
                  </g>
                  <path id="Path_86167" data-name="Path 86167" d="M4256.109,4796.319l-13.374-7.719a.578.578,0,0,1,0-1.094l9.144-5.279a2.1,2.1,0,0,1,1.893,0l13.373,7.721a.577.577,0,0,1,0,1.093L4258,4796.32A2.087,2.087,0,0,1,4256.109,4796.319Z" transform="translate(-4218.858 -4755.278)" fill="url(#linear-gradient-19)"/>
                  <path id="Path_86168" data-name="Path 86168" d="M4267.144,4790.4l-13.374-7.72a2.087,2.087,0,0,0-1.892,0l-9.144,5.278a.786.786,0,0,0-.327.323c-.141-.264-.036-.56.327-.771l9.144-5.279a2.1,2.1,0,0,1,1.892,0l13.374,7.721c.364.208.466.506.33.771A.81.81,0,0,0,4267.144,4790.4Z" transform="translate(-4218.857 -4755.278)" fill="#727997"/>
                </g>
              </g>
              <g id="Group_34940" data-name="Group 34940" transform="translate(39.318 3.549)" opacity="0.11">
                <g id="Grupo_55741" data-name="Grupo 55741">
                  <g id="Grupo_55740" data-name="Grupo 55740" clip-path="url(#clip-path)">
                    <g id="Group_34939" data-name="Group 34939" transform="translate(-1.717 22.164)">
                      <g id="Group_34938" data-name="Group 34938">
                        <path id="Path_86169" data-name="Path 86169" d="M4252.889,4769.647l59.678,34.455a2.45,2.45,0,0,0,2.207.09l35.613-20.559c.565-.328.493-.9-.16-1.276l-59.675-34.454a2.461,2.461,0,0,0-2.209-.09l-35.612,20.56C4252.166,4768.7,4252.238,4769.269,4252.889,4769.647Z" transform="translate(-4252.35 -4747.594)" fill="url(#linear-gradient-20)"/>
                        <path id="Path_86170" data-name="Path 86170" d="M4299.171,4771.776l-13.373-7.722a.576.576,0,0,1,0-1.093l9.143-5.278a2.082,2.082,0,0,1,1.891,0l13.374,7.721a.576.576,0,0,1,0,1.091l-9.144,5.281A2.1,2.1,0,0,1,4299.171,4771.776Z" transform="translate(-4238.775 -4743.544)" fill="url(#linear-gradient-21)"/>
                        <path id="Path_86171" data-name="Path 86171" d="M4310.2,4765.851l-13.375-7.721a2.092,2.092,0,0,0-1.892,0l-9.144,5.279a.835.835,0,0,0-.33.322c-.137-.263-.031-.559.33-.769l9.144-5.278a2.083,2.083,0,0,1,1.892,0l13.375,7.721c.361.206.465.506.327.769A.8.8,0,0,0,4310.2,4765.851Z" transform="translate(-4238.775 -4743.544)" fill="#9198db"/>
                        <g id="Group_34937" data-name="Group 34937" transform="translate(8.804 11.52)">
                          <path id="Path_86172" data-name="Path 86172" d="M4327.1,4784.536l-49.592-28.633a1.069,1.069,0,0,0-1.067,0l-17.66,10.217a.383.383,0,0,0-.138.521.393.393,0,0,0,.138.138l49.569,28.618a1.068,1.068,0,0,0,1.067,0l17.684-10.2a.38.38,0,0,0,.148-.517A.371.371,0,0,0,4327.1,4784.536Z" transform="translate(-4258.592 -4755.761)" fill="#adb1f2"/>
                          <path id="Path_86173" data-name="Path 86173" d="M4327.1,4785.194l-.179.1-49.413-28.53a1.062,1.062,0,0,0-1.068,0l-17.48,10.115-.177-.1a.382.382,0,0,1-.139-.521.373.373,0,0,1,.139-.138l17.659-10.217a1.068,1.068,0,0,1,1.067,0l49.591,28.633a.378.378,0,0,1,.137.52A.357.357,0,0,1,4327.1,4785.194Z" transform="translate(-4258.591 -4755.761)" fill="#9198db"/>
                          <g id="Group_34936" data-name="Group 34936" transform="translate(3.097 2.097)">
                            <path id="Path_86174" data-name="Path 86174" d="M4262.5,4762.613l43.2,24.943-1.71.987-43.2-24.943Z" transform="translate(-4260.787 -4755.045)" fill="#24126a"/>
                            <path id="Path_86175" data-name="Path 86175" d="M4265.724,4760.75l41.064,23.708-1.711.987-41.062-23.708Z" transform="translate(-4259.461 -4755.81)" fill="#24126a"/>
                            <path id="Path_86176" data-name="Path 86176" d="M4297.006,4778.812l3.836,2.214-1.71.988-3.833-2.217Z" transform="translate(-4246.614 -4748.394)" fill="#24126a"/>
                            <path id="Path_86177" data-name="Path 86177" d="M4294.605,4781.149l2.671,1.542-1.71.987-2.671-1.542Z" transform="translate(-4247.601 -4747.431)" fill="#24126a"/>
                            <path id="Path_86178" data-name="Path 86178" d="M4267.747,4759.582l47.965,27.692-1.71.988-47.965-27.693Z" transform="translate(-4258.63 -4756.29)" fill="#24126a"/>
                            <path id="Path_86179" data-name="Path 86179" d="M4269.769,4758.413l47.965,27.693-1.711.988-47.964-27.693Z" transform="translate(-4257.8 -4756.769)" fill="#24126a"/>
                            <path id="Path_86180" data-name="Path 86180" d="M4271.79,4757.247l47.965,27.691-1.711.988-47.964-27.692Z" transform="translate(-4256.969 -4757.247)" fill="#24126a"/>
                          </g>
                        </g>
                      </g>
                    </g>
                  </g>
                </g>
              </g>
            </g>
          </g>
        </g>
        <g id="Group_34947" data-name="Group 34947" transform="translate(54.412 18.48)">
          <path id="Path_86181" data-name="Path 86181" d="M4267.871,4743.283l4.7,2.718.137-.815-4.7-2.718Z" transform="translate(-4262.786 -4742.467)" fill="#42e8e0"/>
          <path id="Path_86182" data-name="Path 86182" d="M4271.741,4745.518l2.561,1.48.138-.818-2.561-1.479Z" transform="translate(-4261.199 -4741.549)" fill="#42e8e0"/>
          <path id="Path_86183" data-name="Path 86183" d="M4276.38,4748.2l1.854,1.07.138-.814-1.854-1.072Z" transform="translate(-4259.293 -4740.449)" fill="#42e8e0"/>
          <path id="Path_86184" data-name="Path 86184" d="M4275.424,4747.643l.633.367.139-.817-.634-.365Z" transform="translate(-4259.686 -4740.677)" fill="#42e8e0"/>
          <path id="Path_86185" data-name="Path 86185" d="M4274.1,4746.879l1.152.665.137-.814-1.15-.667Z" transform="translate(-4260.229 -4740.991)" fill="#42e8e0"/>
          <path id="Path_86186" data-name="Path 86186" d="M4270.508,4747.71l1.854,1.072.137-.817-1.853-1.07Z" transform="translate(-4261.703 -4740.649)" fill="#42e8e0"/>
          <path id="Path_86187" data-name="Path 86187" d="M4267.425,4745.928l3.633,2.1.138-.816-3.632-2.1Z" transform="translate(-4262.969 -4741.381)" fill="#42e8e0"/>
          <g id="Group_34944" data-name="Group 34944" transform="translate(7.792 15.883)">
            <path id="Path_86188" data-name="Path 86188" d="M4271.116,4755.307l3.631,2.1.138-.816-3.634-2.1Z" transform="translate(-4269.246 -4753.412)" fill="#42e8e0"/>
            <path id="Path_86189" data-name="Path 86189" d="M4269.791,4754.543l1.15.664.138-.817-1.148-.665Z" transform="translate(-4269.791 -4753.725)" fill="#42e8e0"/>
          </g>
          <path id="Path_86190" data-name="Path 86190" d="M4271.545,4752.659l3.633,2.1.137-.815-3.632-2.1Z" transform="translate(-4261.278 -4738.617)" fill="#42e8e0"/>
          <path id="Path_86191" data-name="Path 86191" d="M4270.222,4751.894l1.149.665.138-.817-1.15-.663Z" transform="translate(-4261.822 -4738.931)" fill="#42e8e0"/>
          <path id="Path_86192" data-name="Path 86192" d="M4271.246,4767.647l-6.84-3.954-.139.816,6.842,3.954Z" transform="translate(-4264.267 -4733.75)" fill="#42e8e0"/>
          <path id="Path_86193" data-name="Path 86193" d="M4271.458,4767.769l-1.7-.977-.138.814,1.694.977Z" transform="translate(-4262.067 -4732.478)" fill="#42e8e0"/>
          <path id="Path_86194" data-name="Path 86194" d="M4281.478,4769.2l-6.841-3.953-.138.816,6.841,3.955Z" transform="translate(-4260.064 -4733.113)" fill="#42e8e0"/>
          <path id="Path_86195" data-name="Path 86195" d="M4281.691,4769.319l-1.694-.979-.137.817,1.692.978Z" transform="translate(-4257.865 -4731.841)" fill="#42e8e0"/>
          <path id="Path_86196" data-name="Path 86196" d="M4266.482,4763.443l-1.853-1.073-.138.817,1.853,1.07Z" transform="translate(-4264.176 -4734.292)" fill="#42e8e0"/>
          <path id="Path_86197" data-name="Path 86197" d="M4274.478,4765.158l-1.854-1.072-.138.817,1.854,1.07Z" transform="translate(-4260.894 -4733.588)" fill="#42e8e0"/>
          <path id="Path_86198" data-name="Path 86198" d="M4270.083,4765.524l-3.631-2.1-.138.816,3.631,2.1Z" transform="translate(-4263.426 -4733.86)" fill="#42e8e0"/>
          <path id="Path_86199" data-name="Path 86199" d="M4270.687,4765.871l-1.15-.665-.139.817,1.15.664Z" transform="translate(-4262.16 -4733.127)" fill="#42e8e0"/>
          <path id="Path_86200" data-name="Path 86200" d="M4274.516,4768.083l-3.63-2.1-.138.816,3.63,2.1Z" transform="translate(-4261.606 -4732.808)" fill="#42e8e0"/>
          <path id="Path_86201" data-name="Path 86201" d="M4275.118,4768.43l-1.15-.664-.138.816,1.15.664Z" transform="translate(-4260.339 -4732.077)" fill="#42e8e0"/>
          <path id="Path_86202" data-name="Path 86202" d="M4274.254,4766.479l-1.854-1.07-.138.814,1.854,1.071Z" transform="translate(-4260.983 -4733.045)" fill="#42e8e0"/>
          <path id="Path_86203" data-name="Path 86203" d="M4277.856,4768.562l-3.634-2.1-.136.816,3.631,2.1Z" transform="translate(-4260.235 -4732.614)" fill="#42e8e0"/>
          <path id="Path_86204" data-name="Path 86204" d="M4278.458,4768.91l-1.15-.665-.138.816,1.149.665Z" transform="translate(-4258.968 -4731.88)" fill="#42e8e0"/>
          <path id="Path_86205" data-name="Path 86205" d="M4268.645,4763.242l-3.792-2.193-.139.816,3.794,2.192Z" transform="translate(-4264.083 -4734.836)" fill="#42e8e0"/>
          <path id="Path_86206" data-name="Path 86206" d="M4270.793,4764.483l-2.744-1.584-.137.815,2.742,1.586Z" transform="translate(-4262.77 -4734.077)" fill="#42e8e0"/>
          <path id="Path_86207" data-name="Path 86207" d="M4272.356,4765.388l-1.854-1.073-.137.817,1.853,1.07Z" transform="translate(-4261.763 -4733.495)" fill="#42e8e0"/>
          <path id="Path_86208" data-name="Path 86208" d="M4285.667,4771.612l-3.794-2.193-.138.816,3.8,2.191Z" transform="translate(-4257.094 -4731.398)" fill="#42e8e0"/>
          <path id="Path_86209" data-name="Path 86209" d="M4287.811,4772.853l-2.742-1.585-.138.816,2.742,1.585Z" transform="translate(-4255.782 -4730.641)" fill="#42e8e0"/>
          <path id="Path_86210" data-name="Path 86210" d="M4289.378,4773.754l-1.855-1.07-.138.819,1.855,1.069Z" transform="translate(-4254.773 -4730.056)" fill="#42e8e0"/>
          <path id="Path_86211" data-name="Path 86211" d="M4283.47,4753.741l3.794,2.191.137-.816-3.794-2.191Z" transform="translate(-4256.381 -4738.171)" fill="#42e8e0"/>
          <path id="Path_86212" data-name="Path 86212" d="M4281.018,4752.323l2.742,1.587.138-.818-2.742-1.586Z" transform="translate(-4257.389 -4738.753)" fill="#42e8e0"/>
          <path id="Path_86213" data-name="Path 86213" d="M4279.194,4751.27l1.854,1.071.139-.817-1.854-1.07Z" transform="translate(-4258.137 -4739.187)" fill="#42e8e0"/>
          <path id="Path_86214" data-name="Path 86214" d="M4282.578,4751.771l3.795,2.191.139-.817-3.8-2.191Z" transform="translate(-4256.747 -4738.982)" fill="#42e8e0"/>
          <path id="Path_86215" data-name="Path 86215" d="M4280.125,4750.351l2.742,1.584.139-.816-2.743-1.584Z" transform="translate(-4257.755 -4739.563)" fill="#42e8e0"/>
          <path id="Path_86216" data-name="Path 86216" d="M4278.3,4749.3l1.854,1.07.138-.817-1.854-1.069Z" transform="translate(-4258.504 -4739.998)" fill="#42e8e0"/>
          <path id="Path_86217" data-name="Path 86217" d="M4271.722,4754.214l1.28.741.14-.815-1.28-.743Z" transform="translate(-4261.206 -4737.977)" fill="#42e8e0"/>
          <path id="Path_86218" data-name="Path 86218" d="M4270.013,4753.227l1.692.977.138-.815-1.692-.979Z" transform="translate(-4261.908 -4738.383)" fill="#42e8e0"/>
          <path id="Path_86219" data-name="Path 86219" d="M4268.887,4761.928l-3.8-2.192-.137.815,3.794,2.193Z" transform="translate(-4263.985 -4735.376)" fill="#42e8e0"/>
          <path id="Path_86220" data-name="Path 86220" d="M4271.034,4763.168l-2.744-1.585-.137.817,2.743,1.584Z" transform="translate(-4262.671 -4734.617)" fill="#42e8e0"/>
          <path id="Path_86221" data-name="Path 86221" d="M4272.6,4764.071l-1.854-1.071-.138.817,1.853,1.07Z" transform="translate(-4261.665 -4734.034)" fill="#42e8e0"/>
          <path id="Path_86222" data-name="Path 86222" d="M4266.6,4759.153l-1.282-.74-.138.816,1.282.741Z" transform="translate(-4263.892 -4735.917)" fill="#42e8e0"/>
          <path id="Path_86223" data-name="Path 86223" d="M4268.425,4760.211l-1.691-.979-.138.817,1.692.979Z" transform="translate(-4263.311 -4735.582)" fill="#42e8e0"/>
          <path id="Path_86224" data-name="Path 86224" d="M4271.169,4761.795l-2.729-1.577-.138.816,2.729,1.577Z" transform="translate(-4262.609 -4735.177)" fill="#42e8e0"/>
          <path id="Path_86225" data-name="Path 86225" d="M4272.958,4750.571l1.281.739.138-.818-1.28-.738Z" transform="translate(-4260.698 -4739.476)" fill="#42e8e0"/>
          <path id="Path_86226" data-name="Path 86226" d="M4271.25,4749.58l1.692.98.138-.818-1.692-.979Z" transform="translate(-4261.4 -4739.879)" fill="#42e8e0"/>
          <path id="Path_86227" data-name="Path 86227" d="M4268.806,4748.17l2.727,1.576.138-.816-2.728-1.577Z" transform="translate(-4262.402 -4740.462)" fill="#42e8e0"/>
          <path id="Path_86228" data-name="Path 86228" d="M4274.34,4752.716l2.728,1.576.139-.817-2.727-1.576Z" transform="translate(-4260.13 -4738.593)" fill="#42e8e0"/>
          <path id="Path_86229" data-name="Path 86229" d="M4271.178,4750.993l3.676,2.123.137-.816-3.676-2.124Z" transform="translate(-4261.43 -4739.302)" fill="#42e8e0"/>
          <path id="Path_86230" data-name="Path 86230" d="M4269.854,4750.228l1.149.664.139-.816-1.15-.664Z" transform="translate(-4261.974 -4739.616)" fill="#42e8e0"/>
          <path id="Path_86231" data-name="Path 86231" d="M4268.583,4749.49l1.148.666.139-.816-1.149-.664Z" transform="translate(-4262.495 -4739.918)" fill="#42e8e0"/>
          <g id="Group_34946" data-name="Group 34946" transform="translate(1.601 17.885)">
            <path id="Path_86232" data-name="Path 86232" d="M4268.758,4756.962l3.63,2.1.14-.818-3.633-2.1Z" transform="translate(-4264.023 -4754.734)" fill="#42e8e0"/>
            <path id="Path_86233" data-name="Path 86233" d="M4267.433,4756.2l1.15.664.139-.814-1.151-.667Z" transform="translate(-4264.567 -4755.049)" fill="#42e8e0"/>
            <path id="Path_86234" data-name="Path 86234" d="M4268.935,4758.517l1.28.741.139-.817-1.281-.741Z" transform="translate(-4263.951 -4754.095)" fill="#42e8e0"/>
            <path id="Path_86235" data-name="Path 86235" d="M4272.141,4757.457l1.281.74.138-.817-1.281-.738Z" transform="translate(-4262.636 -4754.531)" fill="#42e8e0"/>
            <path id="Path_86236" data-name="Path 86236" d="M4273.436,4758.2l3.072,1.775.138-.815-3.073-1.776Z" transform="translate(-4262.104 -4754.223)" fill="#42e8e0"/>
            <path id="Path_86237" data-name="Path 86237" d="M4276,4759.686l1.827,1.056.138-.817-1.828-1.056Z" transform="translate(-4261.048 -4753.616)" fill="#42e8e0"/>
            <path id="Path_86238" data-name="Path 86238" d="M4267.224,4757.529l1.692.979.138-.817-1.693-.979Z" transform="translate(-4264.653 -4754.502)" fill="#42e8e0"/>
            <g id="Group_34945" data-name="Group 34945" transform="translate(0 2.734)">
              <path id="Path_86239" data-name="Path 86239" d="M4267.113,4758.888l1.28.74.138-.817-1.277-.742Z" transform="translate(-4264.701 -4756.677)" fill="#42e8e0"/>
              <path id="Path_86240" data-name="Path 86240" d="M4265.4,4757.9l1.694.978.139-.816-1.694-.979Z" transform="translate(-4265.401 -4757.083)" fill="#42e8e0"/>
            </g>
            <path id="Path_86241" data-name="Path 86241" d="M4270.824,4756.7l1.149.667.138-.816-1.149-.666Z" transform="translate(-4263.176 -4754.843)" fill="#42e8e0"/>
            <path id="Path_86242" data-name="Path 86242" d="M4269.552,4755.962l1.15.663.138-.814-1.148-.667Z" transform="translate(-4263.698 -4755.144)" fill="#42e8e0"/>
          </g>
          <path id="Path_86243" data-name="Path 86243" d="M4275.815,4749.318l3.922,2.268.138-.819-3.923-2.265Z" transform="translate(-4259.525 -4739.989)" fill="#42e8e0"/>
          <path id="Path_86244" data-name="Path 86244" d="M4272.7,4747.517l3.677,2.124.138-.814-3.679-2.125Z" transform="translate(-4260.803 -4740.729)" fill="#42e8e0"/>
          <path id="Path_86245" data-name="Path 86245" d="M4271.375,4746.751l1.15.665.138-.816-1.149-.664Z" transform="translate(-4261.348 -4741.043)" fill="#42e8e0"/>
          <path id="Path_86246" data-name="Path 86246" d="M4270.1,4746.017l1.15.664.139-.814-1.151-.666Z" transform="translate(-4261.87 -4741.344)" fill="#42e8e0"/>
          <path id="Path_86247" data-name="Path 86247" d="M4270.131,4746.035l-2.482-1.434.138-.816,2.482,1.434Z" transform="translate(-4262.878 -4741.927)" fill="#42e8e0"/>
        </g>
      </g>
      <g id="Group_34948-2" data-name="Group 34948" transform="translate(137.813 197.462)">
        <g id="Group_34930-2" data-name="Group 34930" transform="translate(3.203 58.044)" opacity="0.8">
          <path id="Path_86148-2" data-name="Path 86148" d="M4383.423,4865.83a5.563,5.563,0,0,1-2.772-.742h0l-54.153-31.263a1.68,1.68,0,0,1,0-2.908l34.118-19.7.208.125,56.716,32.742a1.678,1.678,0,0,1,.612,2.295,1.648,1.648,0,0,1-.612.613l-31.343,18.1A5.568,5.568,0,0,1,4383.423,4865.83Zm-2.355-1.466a4.8,4.8,0,0,0,4.712,0l31.343-18.1a.842.842,0,0,0,.307-1.151.82.82,0,0,0-.307-.308l-56.5-32.624-.053.032-33.648,19.426a.844.844,0,0,0-.305,1.151.86.86,0,0,0,.305.307Z" transform="translate(-4325.66 -4811.22)" fill="#00223d"/>
        </g>
        <g id="Group_34943-2" data-name="Group 34943">
          <g id="Group_34942-2" data-name="Group 34942">
            <g id="Group_34941-2" data-name="Group 34941">
              <g id="Group_34935-2" data-name="Group 34935">
                <g id="Group_34932-2" data-name="Group 34932" transform="translate(37.145)">
                  <path id="Path_86149-2" data-name="Path 86149" d="M4350.395,4815.683l7.544-44.755-.606-.256.91-.524v.006a.656.656,0,0,1,.7.049l60.289,34.808a1.7,1.7,0,0,1,.783,1.531l-7.606,45.112a.562.562,0,0,1-.318.459h0l-.89.515-.153-.834.05.016-59.925-34.6A1.7,1.7,0,0,1,4350.395,4815.683Z" transform="translate(-4349.444 -4770.074)" fill="url(#linear-gradient-22)"/>
                  <path id="Path_86150-2" data-name="Path 86150" d="M4402.106,4795.836l.989-.439a1.361,1.361,0,0,1,.128.748l-7.6,45.11a.561.561,0,0,1-.316.459h0l-.891.515-.154-.833.051.015-3.031-1.749Z" transform="translate(-4332.652 -4759.674)" fill="#dee4f0"/>
                  <path id="Path_86151-2" data-name="Path 86151" d="M4350.5,4817.6l60.291,34.807c.467.269.865.113.946-.369l7.6-45.112a1.7,1.7,0,0,0-.783-1.531l-60.29-34.81c-.465-.268-.865-.113-.947.37l-7.6,45.115A1.708,1.708,0,0,0,4350.5,4817.6Z" transform="translate(-4349.719 -4769.917)" fill="#00223d"/>
                  <g id="Group_34931-2" data-name="Group 34931" transform="translate(2.173 3.551)" opacity="0.51">
                    <path id="Path_86152-2" data-name="Path 86152" d="M4358.427,4772.591l58.114,33.552-7.206,42.484L4351.26,4815.1Z" transform="translate(-4351.26 -4772.591)" fill="#00223d"/>
                  </g>
                </g>
                <g id="Group_34934-2" data-name="Group 34934" transform="translate(0 47.528)">
                  <path id="Path_86153-2" data-name="Path 86153" d="M4323.412,4824.123l3.289,1.719,32.992-19.049a2.387,2.387,0,0,1,2.152.088l56.9,32.852c.544-.305,3.026-1.5,3.026-1.5l-1.2,3.14-.006-.005a.7.7,0,0,1-.337.373l-34.747,20.062a2.392,2.392,0,0,1-2.152-.089L4325.1,4828.1a1.037,1.037,0,0,1-.489-.521h0Z" transform="translate(-4323.378 -4802.61)" fill="#00223d"/>
                  <path id="Path_86154-2" data-name="Path 86154" d="M4323.929,4825.819l59.676,34.455a2.459,2.459,0,0,0,2.208.091l35.61-20.561c.566-.326.5-.9-.158-1.273l-59.678-34.454a2.443,2.443,0,0,0-2.206-.093l-35.612,20.562C4323.2,4824.871,4323.276,4825.441,4323.929,4825.819Z" transform="translate(-4323.388 -4803.765)" fill="url(#linear-gradient-23)"/>
                  <path id="Path_86155-2" data-name="Path 86155" d="M4323.927,4819.313l59.678,34.455a2.452,2.452,0,0,0,2.206.092l35.612-20.561a.734.734,0,0,0,.345-.386.6.6,0,0,1-.345.729l-35.612,20.561a2.446,2.446,0,0,1-2.206-.091l-59.678-34.454c-.44-.254-.608-.594-.5-.889A1.051,1.051,0,0,0,4323.927,4819.313Z" transform="translate(-4323.387 -4797.604)" fill="#fff"/>
                  <path id="Path_86156-2" data-name="Path 86156" d="M4379.556,4838.752v-.654c0-.062-.037-.088-.083-.062l-2.309,1.332a.2.2,0,0,0-.083.16v.658c0,.06.037.09.083.06l2.309-1.333A.2.2,0,0,0,4379.556,4838.752Z" transform="translate(-4301.338 -4789.696)" fill="#21587b"/>
                  <path id="Path_86157-2" data-name="Path 86157" d="M4377.109,4840.164v-.654c0-.062-.038-.091-.083-.062l-2.31,1.332a.207.207,0,0,0-.084.162v.654c0,.062.039.091.084.062l2.31-1.331A.2.2,0,0,0,4377.109,4840.164Z" transform="translate(-4302.344 -4789.118)" fill="#21587b"/>
                  <path id="Path_86158-2" data-name="Path 86158" d="M4406.249,4836.325l-49.6-28.632a1.069,1.069,0,0,0-1.068,0l-17.659,10.217a.38.38,0,0,0-.14.52.351.351,0,0,0,.14.139l49.566,28.619a1.076,1.076,0,0,0,1.069,0l17.682-10.2a.381.381,0,0,0,.147-.518A.4.4,0,0,0,4406.249,4836.325Z" transform="translate(-4317.495 -4802.211)" fill="#d2e1f1"/>
                  <path id="Path_86159-2" data-name="Path 86159" d="M4406.245,4836.983l-.176.1-49.416-28.53a1.077,1.077,0,0,0-1.069,0l-17.479,10.114-.177-.1a.38.38,0,0,1-.139-.518.36.36,0,0,1,.139-.141l17.659-10.217a1.074,1.074,0,0,1,1.07,0l49.589,28.632a.377.377,0,0,1,.138.521A.353.353,0,0,1,4406.245,4836.983Z" transform="translate(-4317.494 -4802.211)" fill="#727997"/>
                  <g id="Group_34933-2" data-name="Group 34933" transform="translate(22.889 9.364)">
                    <path id="Path_86160-2" data-name="Path 86160" d="M4352.387,4811.505l41.977,24.235,1.813-1.164-41.868-24.173Z" transform="translate(-4334.368 -4810.404)" fill="#00223d"/>
                    <path id="Path_86161-2" data-name="Path 86161" d="M4350.455,4814.234l38.111,22,1.305-1.458-37.5-21.648Z" transform="translate(-4335.162 -4809.286)" fill="#00223d"/>
                    <path id="Path_86162-2" data-name="Path 86162" d="M4343.95,4812.982l47.571,27.465,1.914-1.1-47.57-27.467Z" transform="translate(-4337.833 -4809.799)" fill="#00223d"/>
                    <path id="Path_86163-2" data-name="Path 86163" d="M4341.78,4814.234l47.572,27.464,1.917-1.1-47.574-27.465Z" transform="translate(-4338.725 -4809.286)" fill="#00223d"/>
                    <path id="Path_86164-2" data-name="Path 86164" d="M4339.614,4815.483l47.572,27.466,1.915-1.1-47.572-27.462Z" transform="translate(-4339.614 -4808.771)" fill="#00223d"/>
                    <path id="Path_86165-2" data-name="Path 86165" d="M4381.828,4828.5l1.916,1.106,1.914-1.106-1.914-1.105Z" transform="translate(-4322.277 -4803.425)" fill="#00223d"/>
                    <path id="Path_86166-2" data-name="Path 86166" d="M4377.04,4829.584l3.974,2.295,1.916-1.106-3.976-2.3Z" transform="translate(-4324.245 -4802.982)" fill="#00223d"/>
                  </g>
                  <path id="Path_86167-2" data-name="Path 86167" d="M4353.8,4837.027l-13.373-7.719a.577.577,0,0,1,0-1.094l9.144-5.279a2.1,2.1,0,0,1,1.894,0l13.372,7.721a.577.577,0,0,1,0,1.092l-9.145,5.279A2.091,2.091,0,0,1,4353.8,4837.027Z" transform="translate(-4316.551 -4795.986)" fill="url(#linear-gradient-24)"/>
                  <path id="Path_86168-2" data-name="Path 86168" d="M4364.836,4831.1l-13.373-7.721a2.09,2.09,0,0,0-1.892,0l-9.144,5.279a.788.788,0,0,0-.329.323c-.14-.265-.034-.56.329-.771l9.144-5.279a2.093,2.093,0,0,1,1.892,0l13.373,7.721c.362.208.467.5.329.771A.807.807,0,0,0,4364.836,4831.1Z" transform="translate(-4316.55 -4795.986)" fill="#727997"/>
                </g>
              </g>
              <g id="Group_34940-2" data-name="Group 34940" transform="translate(39.318 3.551)" opacity="0.11">
                <g id="Grupo_55743" data-name="Grupo 55743">
                  <g id="Grupo_55742" data-name="Grupo 55742" clip-path="url(#clip-path-2)">
                    <g id="Group_34939-2" data-name="Group 34939" transform="translate(-1.717 22.164)">
                      <g id="Group_34938-2" data-name="Group 34938">
                        <path id="Path_86169-2" data-name="Path 86169" d="M4350.583,4810.356l59.677,34.453a2.445,2.445,0,0,0,2.207.092l35.612-20.56c.566-.328.494-.9-.159-1.275l-59.675-34.455a2.456,2.456,0,0,0-2.208-.088l-35.61,20.558C4349.86,4809.409,4349.93,4809.978,4350.583,4810.356Z" transform="translate(-4350.044 -4788.302)" fill="url(#linear-gradient-25)"/>
                        <path id="Path_86170-2" data-name="Path 86170" d="M4396.864,4812.482l-13.373-7.719a.577.577,0,0,1,0-1.093l9.143-5.278a2.083,2.083,0,0,1,1.893,0l13.373,7.719a.577.577,0,0,1,0,1.093l-9.144,5.279A2.082,2.082,0,0,1,4396.864,4812.482Z" transform="translate(-4336.469 -4784.252)" fill="url(#linear-gradient-26)"/>
                        <path id="Path_86171-2" data-name="Path 86171" d="M4407.9,4806.56l-13.375-7.721a2.084,2.084,0,0,0-1.892,0l-9.144,5.279a.833.833,0,0,0-.328.321c-.138-.261-.033-.558.328-.768l9.144-5.278a2.081,2.081,0,0,1,1.892,0l13.375,7.719c.361.208.466.506.329.769A.824.824,0,0,0,4407.9,4806.56Z" transform="translate(-4336.468 -4784.252)" fill="#9198db"/>
                        <g id="Group_34937-2" data-name="Group 34937" transform="translate(8.804 11.52)">
                          <path id="Path_86172-2" data-name="Path 86172" d="M4424.794,4825.244l-49.593-28.632a1.069,1.069,0,0,0-1.068,0l-17.659,10.217a.383.383,0,0,0-.14.521.393.393,0,0,0,.14.138l49.567,28.618a1.066,1.066,0,0,0,1.067,0l17.685-10.2a.38.38,0,0,0,.147-.515A.365.365,0,0,0,4424.794,4825.244Z" transform="translate(-4356.284 -4796.469)" fill="#adb1f2"/>
                          <path id="Path_86173-2" data-name="Path 86173" d="M4424.794,4825.9l-.178.1-49.416-28.53a1.059,1.059,0,0,0-1.067,0l-17.479,10.113-.178-.1a.38.38,0,0,1-.139-.52.372.372,0,0,1,.139-.139l17.658-10.217a1.072,1.072,0,0,1,1.069,0l49.591,28.632a.382.382,0,0,1,.137.521A.388.388,0,0,1,4424.794,4825.9Z" transform="translate(-4356.284 -4796.469)" fill="#9198db"/>
                          <g id="Group_34936-2" data-name="Group 34936" transform="translate(3.098 2.095)">
                            <path id="Path_86174-2" data-name="Path 86174" d="M4360.191,4803.32l43.2,24.943-1.711.988-43.2-24.943Z" transform="translate(-4358.48 -4795.75)" fill="#24126a"/>
                            <path id="Path_86175-2" data-name="Path 86175" d="M4363.417,4801.457l41.063,23.707-1.712.988-41.063-23.707Z" transform="translate(-4357.155 -4796.516)" fill="#24126a"/>
                            <path id="Path_86176-2" data-name="Path 86176" d="M4394.7,4819.517l3.836,2.216-1.712.987-3.834-2.215Z" transform="translate(-4344.309 -4789.097)" fill="#24126a"/>
                            <path id="Path_86177-2" data-name="Path 86177" d="M4392.3,4821.857l2.67,1.542-1.71.988-2.671-1.542Z" transform="translate(-4345.295 -4788.137)" fill="#24126a"/>
                            <path id="Path_86178-2" data-name="Path 86178" d="M4365.439,4800.289l47.964,27.694-1.71.987-47.964-27.693Z" transform="translate(-4356.324 -4796.995)" fill="#24126a"/>
                            <path id="Path_86179-2" data-name="Path 86179" d="M4367.461,4799.122l47.965,27.692-1.709.988-47.967-27.693Z" transform="translate(-4355.494 -4797.476)" fill="#24126a"/>
                            <path id="Path_86180-2" data-name="Path 86180" d="M4369.483,4797.955l47.965,27.694-1.711.986-47.964-27.693Z" transform="translate(-4354.664 -4797.955)" fill="#24126a"/>
                          </g>
                        </g>
                      </g>
                    </g>
                  </g>
                </g>
              </g>
            </g>
          </g>
        </g>
        <g id="Group_34947-2" data-name="Group 34947" transform="translate(54.412 18.481)">
          <path id="Path_86181-2" data-name="Path 86181" d="M4365.563,4783.992l4.7,2.718.14-.817-4.7-2.718Z" transform="translate(-4360.479 -4783.175)" fill="#42e8e0"/>
          <path id="Path_86182-2" data-name="Path 86182" d="M4369.434,4786.224l2.56,1.482.14-.817-2.563-1.479Z" transform="translate(-4358.893 -4782.258)" fill="#42e8e0"/>
          <path id="Path_86183-2" data-name="Path 86183" d="M4374.073,4788.9l1.853,1.07.138-.815-1.854-1.071Z" transform="translate(-4356.986 -4781.156)" fill="#42e8e0"/>
          <path id="Path_86184-2" data-name="Path 86184" d="M4373.117,4788.351l.633.368.138-.817-.634-.365Z" transform="translate(-4357.379 -4781.385)" fill="#42e8e0"/>
          <path id="Path_86185-2" data-name="Path 86185" d="M4371.792,4787.587l1.151.665.137-.816-1.149-.666Z" transform="translate(-4357.922 -4781.699)" fill="#42e8e0"/>
          <path id="Path_86186-2" data-name="Path 86186" d="M4368.2,4788.417l1.853,1.071.138-.817-1.856-1.07Z" transform="translate(-4359.396 -4781.356)" fill="#42e8e0"/>
          <path id="Path_86187-2" data-name="Path 86187" d="M4365.118,4786.634l3.632,2.1.138-.816-3.633-2.1Z" transform="translate(-4360.662 -4782.089)" fill="#42e8e0"/>
          <g id="Group_34944-2" data-name="Group 34944" transform="translate(7.792 15.883)">
            <path id="Path_86188-2" data-name="Path 86188" d="M4368.809,4796.017l3.63,2.1.139-.816-3.633-2.1Z" transform="translate(-4366.939 -4794.121)" fill="#42e8e0"/>
            <path id="Path_86189-2" data-name="Path 86189" d="M4367.484,4795.25l1.149.664.139-.816-1.15-.664Z" transform="translate(-4367.484 -4794.435)" fill="#42e8e0"/>
          </g>
          <path id="Path_86190-2" data-name="Path 86190" d="M4369.238,4793.368l3.634,2.1.138-.815-3.634-2.1Z" transform="translate(-4358.971 -4779.324)" fill="#42e8e0"/>
          <path id="Path_86191-2" data-name="Path 86191" d="M4367.914,4792.6l1.15.665.138-.817-1.15-.664Z" transform="translate(-4359.515 -4779.638)" fill="#42e8e0"/>
          <path id="Path_86192-2" data-name="Path 86192" d="M4368.941,4808.355l-6.842-3.955-.139.817,6.843,3.956Z" transform="translate(-4361.96 -4774.457)" fill="#42e8e0"/>
          <path id="Path_86193-2" data-name="Path 86193" d="M4369.153,4808.477l-1.7-.979-.138.815,1.694.976Z" transform="translate(-4359.76 -4773.186)" fill="#42e8e0"/>
          <path id="Path_86194-2" data-name="Path 86194" d="M4379.172,4809.9l-6.841-3.954-.139.817,6.842,3.954Z" transform="translate(-4357.757 -4773.821)" fill="#42e8e0"/>
          <path id="Path_86195-2" data-name="Path 86195" d="M4379.384,4810.026l-1.694-.977-.139.817,1.693.977Z" transform="translate(-4355.557 -4772.549)" fill="#42e8e0"/>
          <path id="Path_86196-2" data-name="Path 86196" d="M4364.176,4804.152l-1.854-1.073-.137.817,1.854,1.07Z" transform="translate(-4361.869 -4775.001)" fill="#42e8e0"/>
          <path id="Path_86197-2" data-name="Path 86197" d="M4372.169,4805.864l-1.854-1.07-.138.816,1.854,1.072Z" transform="translate(-4358.584 -4774.296)" fill="#42e8e0"/>
          <path id="Path_86198-2" data-name="Path 86198" d="M4367.775,4806.233l-3.63-2.1-.139.816,3.633,2.1Z" transform="translate(-4361.118 -4774.568)" fill="#42e8e0"/>
          <path id="Path_86199-2" data-name="Path 86199" d="M4368.377,4806.58l-1.148-.665-.137.817,1.149.664Z" transform="translate(-4359.854 -4773.836)" fill="#42e8e0"/>
          <path id="Path_86200-2" data-name="Path 86200" d="M4372.208,4808.791l-3.631-2.1-.138.817,3.632,2.1Z" transform="translate(-4359.298 -4773.519)" fill="#42e8e0"/>
          <path id="Path_86201-2" data-name="Path 86201" d="M4372.812,4809.139l-1.15-.665-.138.815,1.149.667Z" transform="translate(-4358.032 -4772.785)" fill="#42e8e0"/>
          <path id="Path_86202-2" data-name="Path 86202" d="M4371.947,4807.188l-1.854-1.071-.138.815,1.853,1.071Z" transform="translate(-4358.677 -4773.753)" fill="#42e8e0"/>
          <path id="Path_86203-2" data-name="Path 86203" d="M4375.548,4809.271l-3.633-2.1-.135.815,3.63,2.1Z" transform="translate(-4357.928 -4773.322)" fill="#42e8e0"/>
          <path id="Path_86204-2" data-name="Path 86204" d="M4376.149,4809.617l-1.149-.664-.139.814,1.152.667Z" transform="translate(-4356.66 -4772.588)" fill="#42e8e0"/>
          <path id="Path_86205-2" data-name="Path 86205" d="M4366.336,4803.95l-3.792-2.193-.138.817,3.794,2.191Z" transform="translate(-4361.776 -4775.544)" fill="#42e8e0"/>
          <path id="Path_86206-2" data-name="Path 86206" d="M4368.485,4805.19l-2.742-1.585-.139.816,2.742,1.584Z" transform="translate(-4360.463 -4774.784)" fill="#42e8e0"/>
          <path id="Path_86207-2" data-name="Path 86207" d="M4370.051,4806.1l-1.855-1.073-.138.817,1.854,1.071Z" transform="translate(-4359.456 -4774.203)" fill="#42e8e0"/>
          <path id="Path_86208-2" data-name="Path 86208" d="M4383.359,4812.319l-3.794-2.191-.136.816,3.793,2.191Z" transform="translate(-4354.787 -4772.106)" fill="#42e8e0"/>
          <path id="Path_86209-2" data-name="Path 86209" d="M4385.5,4813.56l-2.742-1.585-.138.817,2.743,1.584Z" transform="translate(-4353.475 -4771.348)" fill="#42e8e0"/>
          <path id="Path_86210-2" data-name="Path 86210" d="M4387.07,4814.464l-1.855-1.071-.137.817,1.853,1.071Z" transform="translate(-4352.467 -4770.764)" fill="#42e8e0"/>
          <path id="Path_86211-2" data-name="Path 86211" d="M4381.162,4794.45l3.795,2.192.139-.816-3.8-2.191Z" transform="translate(-4354.073 -4778.88)" fill="#42e8e0"/>
          <path id="Path_86212-2" data-name="Path 86212" d="M4378.71,4793.032l2.743,1.584.137-.816-2.741-1.585Z" transform="translate(-4355.082 -4779.462)" fill="#42e8e0"/>
          <path id="Path_86213-2" data-name="Path 86213" d="M4376.888,4791.978l1.854,1.07.137-.815-1.854-1.071Z" transform="translate(-4355.83 -4779.895)" fill="#42e8e0"/>
          <path id="Path_86214-2" data-name="Path 86214" d="M4380.271,4792.477l3.8,2.191.138-.816-3.8-2.191Z" transform="translate(-4354.439 -4779.689)" fill="#42e8e0"/>
          <path id="Path_86215-2" data-name="Path 86215" d="M4377.819,4791.06l2.742,1.583.137-.816-2.742-1.584Z" transform="translate(-4355.449 -4780.271)" fill="#42e8e0"/>
          <path id="Path_86216-2" data-name="Path 86216" d="M4375.993,4790.006l1.854,1.071.139-.818-1.854-1.07Z" transform="translate(-4356.197 -4780.706)" fill="#42e8e0"/>
          <path id="Path_86217-2" data-name="Path 86217" d="M4369.417,4794.922l1.28.74.138-.817-1.281-.739Z" transform="translate(-4358.898 -4778.687)" fill="#42e8e0"/>
          <path id="Path_86218-2" data-name="Path 86218" d="M4367.706,4793.935l1.692.979.139-.816-1.692-.979Z" transform="translate(-4359.601 -4779.092)" fill="#42e8e0"/>
          <path id="Path_86219-2" data-name="Path 86219" d="M4366.578,4802.634l-3.794-2.191-.138.816,3.794,2.192Z" transform="translate(-4361.678 -4776.083)" fill="#42e8e0"/>
          <path id="Path_86220-2" data-name="Path 86220" d="M4368.727,4803.876l-2.744-1.585-.138.816,2.746,1.584Z" transform="translate(-4360.363 -4775.325)" fill="#42e8e0"/>
          <path id="Path_86221-2" data-name="Path 86221" d="M4370.291,4804.779l-1.854-1.07-.138.816,1.854,1.071Z" transform="translate(-4359.357 -4774.743)" fill="#42e8e0"/>
          <path id="Path_86222-2" data-name="Path 86222" d="M4364.29,4799.862l-1.28-.74-.138.815,1.279.741Z" transform="translate(-4361.585 -4776.626)" fill="#42e8e0"/>
          <path id="Path_86223-2" data-name="Path 86223" d="M4366.119,4800.919l-1.693-.98-.135.817,1.69.978Z" transform="translate(-4361.005 -4776.289)" fill="#42e8e0"/>
          <path id="Path_86224-2" data-name="Path 86224" d="M4368.861,4802.5l-2.727-1.575-.138.815,2.728,1.577Z" transform="translate(-4360.303 -4775.886)" fill="#42e8e0"/>
          <path id="Path_86225-2" data-name="Path 86225" d="M4370.65,4791.276l1.282.74.138-.816-1.282-.739Z" transform="translate(-4358.39 -4780.183)" fill="#42e8e0"/>
          <path id="Path_86226-2" data-name="Path 86226" d="M4368.942,4790.289l1.693.979.139-.817-1.694-.979Z" transform="translate(-4359.093 -4780.588)" fill="#42e8e0"/>
          <path id="Path_86227-2" data-name="Path 86227" d="M4366.5,4788.876l2.727,1.577.137-.814-2.726-1.579Z" transform="translate(-4360.096 -4781.169)" fill="#42e8e0"/>
          <path id="Path_86228-2" data-name="Path 86228" d="M4372.035,4793.424l2.725,1.576.14-.816-2.728-1.577Z" transform="translate(-4357.822 -4779.301)" fill="#42e8e0"/>
          <path id="Path_86229-2" data-name="Path 86229" d="M4368.872,4791.7l3.676,2.124.138-.817-3.676-2.124Z" transform="translate(-4359.124 -4780.009)" fill="#42e8e0"/>
          <path id="Path_86230-2" data-name="Path 86230" d="M4367.548,4790.933l1.148.666.139-.816-1.15-.664Z" transform="translate(-4359.667 -4780.324)" fill="#42e8e0"/>
          <path id="Path_86231-2" data-name="Path 86231" d="M4366.275,4790.2l1.15.667.138-.817-1.149-.665Z" transform="translate(-4360.187 -4780.625)" fill="#42e8e0"/>
          <g id="Group_34946-2" data-name="Group 34946" transform="translate(1.601 17.885)">
            <path id="Path_86232-2" data-name="Path 86232" d="M4366.451,4797.67l3.63,2.1.139-.817-3.633-2.1Z" transform="translate(-4361.717 -4795.442)" fill="#42e8e0"/>
            <path id="Path_86233-2" data-name="Path 86233" d="M4365.126,4796.9l1.148.666.14-.816-1.149-.666Z" transform="translate(-4362.262 -4795.757)" fill="#42e8e0"/>
            <path id="Path_86234-2" data-name="Path 86234" d="M4366.628,4799.226l1.282.739.136-.816-1.279-.74Z" transform="translate(-4361.645 -4794.803)" fill="#42e8e0"/>
            <path id="Path_86235-2" data-name="Path 86235" d="M4369.834,4798.167l1.279.737.138-.816-1.282-.74Z" transform="translate(-4360.329 -4795.238)" fill="#42e8e0"/>
            <path id="Path_86236-2" data-name="Path 86236" d="M4371.128,4798.913l3.074,1.773.138-.815-3.073-1.774Z" transform="translate(-4359.796 -4794.932)" fill="#42e8e0"/>
            <path id="Path_86237-2" data-name="Path 86237" d="M4373.694,4800.395l1.829,1.057.136-.817-1.826-1.057Z" transform="translate(-4358.743 -4794.324)" fill="#42e8e0"/>
            <path id="Path_86238-2" data-name="Path 86238" d="M4364.917,4798.236l1.693.979.138-.817-1.693-.979Z" transform="translate(-4362.348 -4795.209)" fill="#42e8e0"/>
            <g id="Group_34945-2" data-name="Group 34945" transform="translate(0 2.734)">
              <path id="Path_86239-2" data-name="Path 86239" d="M4364.806,4799.6l1.281.741.139-.817-1.279-.744Z" transform="translate(-4362.394 -4797.386)" fill="#42e8e0"/>
              <path id="Path_86240-2" data-name="Path 86240" d="M4363.1,4798.607l1.692.979.138-.817-1.692-.977Z" transform="translate(-4363.096 -4797.792)" fill="#42e8e0"/>
            </g>
            <path id="Path_86241-2" data-name="Path 86241" d="M4368.516,4797.4l1.149.666.139-.814-1.149-.667Z" transform="translate(-4360.869 -4795.551)" fill="#42e8e0"/>
            <path id="Path_86242-2" data-name="Path 86242" d="M4367.246,4796.67l1.148.663.14-.814-1.15-.667Z" transform="translate(-4361.392 -4795.853)" fill="#42e8e0"/>
          </g>
          <path id="Path_86243-2" data-name="Path 86243" d="M4373.508,4790.026l3.926,2.268.137-.818-3.924-2.266Z" transform="translate(-4357.218 -4780.697)" fill="#42e8e0"/>
          <path id="Path_86244-2" data-name="Path 86244" d="M4370.393,4788.225l3.676,2.125.138-.815-3.676-2.125Z" transform="translate(-4358.496 -4781.436)" fill="#42e8e0"/>
          <path id="Path_86245-2" data-name="Path 86245" d="M4369.069,4787.459l1.149.665.138-.817-1.149-.664Z" transform="translate(-4359.042 -4781.751)" fill="#42e8e0"/>
          <path id="Path_86246-2" data-name="Path 86246" d="M4367.8,4786.725l1.149.664.138-.815-1.148-.666Z" transform="translate(-4359.563 -4782.052)" fill="#42e8e0"/>
          <path id="Path_86247-2" data-name="Path 86247" d="M4367.825,4786.743l-2.482-1.436.137-.815,2.484,1.433Z" transform="translate(-4360.571 -4782.635)" fill="#42e8e0"/>
        </g>
      </g>
    </g>
  </g>
</svg>
