<svg xmlns="http://www.w3.org/2000/svg" xmlns:xlink="http://www.w3.org/1999/xlink" width="505" height="338.957" viewBox="0 0 505 338.957">
  <defs>
    <clipPath id="clip-path">
      <path id="Trazado_118906" data-name="Trazado 118906" d="M1442.753,393.046l-.029,4.256c-.016,5.483-3.618,10.956-10.818,15.139-14.49,8.421-38.058,8.421-52.643,0-7.338-4.236-11-9.8-10.987-15.353l.029-4.254c-.016,5.552,3.651,11.115,10.989,15.351,14.583,8.421,38.152,8.421,52.643,0C1439.133,404,1442.737,398.529,1442.753,393.046Z" transform="translate(-1368.276 -392.835)" fill="none"/>
    </clipPath>
    <clipPath id="clip-path-2">
      <path id="Trazado_118907" data-name="Trazado 118907" d="M1442.753,380.211l-.029,4.254c-.016,5.483-3.618,10.956-10.818,15.139-14.49,8.421-38.058,8.421-52.643,0-7.338-4.238-11-9.8-10.987-15.353l.029-4.258c-.016,5.554,3.651,11.117,10.989,15.353,14.583,8.421,38.152,8.421,52.643,0C1439.133,391.163,1442.737,385.694,1442.753,380.211Z" transform="translate(-1368.276 -379.994)" fill="none"/>
    </clipPath>
    <linearGradient id="linear-gradient" x1="-114.823" y1="-68.227" x2="-114.808" y2="-68.227" gradientUnits="objectBoundingBox">
      <stop offset="0" stop-color="#c0bff6"/>
      <stop offset="0.294" stop-color="#c4c3f6"/>
      <stop offset="0.64" stop-color="#d2d2f9"/>
      <stop offset="1" stop-color="#e9e9fd"/>
    </linearGradient>
    <linearGradient id="linear-gradient-2" x1="-81.132" y1="-100.628" x2="-81.122" y2="-100.628" gradientUnits="objectBoundingBox">
      <stop offset="0" stop-color="#fff"/>
      <stop offset="1" stop-color="#d2e6ee"/>
    </linearGradient>
    <linearGradient id="linear-gradient-3" x1="-309.695" y1="-419.569" x2="-309.655" y2="-419.569" xlink:href="#linear-gradient"/>
    <clipPath id="clip-path-3">
      <path id="Trazado_118912" data-name="Trazado 118912" d="M1251.788,435.326l61.492,35.5-7.625,44.955L1244.2,480.306Z" transform="translate(-1244.204 -435.326)" fill="none"/>
    </clipPath>
    <linearGradient id="linear-gradient-4" x1="-81.525" y1="-100.249" x2="-81.515" y2="-100.249" xlink:href="#linear-gradient"/>
    <linearGradient id="linear-gradient-5" x1="-312.397" y1="-417.233" x2="-312.357" y2="-417.233" xlink:href="#linear-gradient"/>
    <linearGradient id="linear-gradient-6" x1="-126.905" y1="-155.266" x2="-126.905" y2="-155.277" xlink:href="#linear-gradient-2"/>
  </defs>
  <g id="Grupo_1044632" data-name="Grupo 1044632" transform="translate(4704 4293)">
    <path id="Trazado_770871" data-name="Trazado 770871" d="M14.887,0H490.113A14.887,14.887,0,0,1,505,14.887V324.07a14.887,14.887,0,0,1-14.887,14.887H14.887A14.887,14.887,0,0,1,0,324.07V14.887A14.887,14.887,0,0,1,14.887,0Z" transform="translate(-4704 -4293)" fill="#fda089" opacity="0.998"/>
    <g id="Grupo_1043805" data-name="Grupo 1043805" transform="translate(-4683.388 -4257.077)">
      <g id="Grupo_55773" data-name="Grupo 55773" transform="translate(0 0)">
        <g id="Grupo_55762" data-name="Grupo 55762" transform="translate(352.365 150.953)">
          <g id="Grupo_55751" data-name="Grupo 55751" transform="translate(53.877 15.19)">
            <g id="Grupo_55750" data-name="Grupo 55750" style="isolation: isolate">
              <g id="Grupo_55748" data-name="Grupo 55748" transform="translate(43.9 52.276)">
                <path id="Trazado_118877" data-name="Trazado 118877" d="M1468.347,493.2l8.842-5.138,0,1.7-8.842,5.138Z" transform="translate(-1468.342 -488.058)" fill="#fff"/>
              </g>
              <path id="Trazado_118878" data-name="Trazado 118878" d="M1469.377,479.521l.233.191q1.014.831,1.994,1.741c.076.073.155.144.231.215q.993.935,1.945,1.945c.053.055.108.109.158.166.678.724,1.341,1.473,1.983,2.245l.017.02a55.041,55.041,0,0,1,3.551,4.8c.324.492.63,1,.94,1.5.262.425.532.844.784,1.274.117.2.228.408.342.612.408.72.806,1.447,1.182,2.182.042.082.084.162.125.242q.675,1.342,1.278,2.714l.06.14q.585,1.345,1.09,2.7c.022.058.044.118.066.177q.511,1.392.937,2.792c.016.055.031.109.047.166q.4,1.345.718,2.69c.02.084.04.169.058.253.211.924.4,1.846.541,2.763l.007.046c.148.924.255,1.845.334,2.754.005.077.011.151.018.226.071.911.109,1.817.107,2.708l8.842-5.138c0-.352,0-.7-.015-1.057-.011-.377-.029-.755-.053-1.134-.011-.173-.027-.346-.042-.518l-.016-.226c-.011-.131-.02-.264-.033-.4q-.055-.571-.128-1.146t-.167-1.177l-.006-.033-.008-.046q-.087-.552-.191-1.106-.115-.61-.248-1.223c-.033-.144-.067-.288-.1-.432-.018-.086-.038-.171-.058-.257-.042-.179-.082-.357-.126-.538-.1-.414-.211-.829-.326-1.243-.084-.3-.175-.605-.266-.908-.016-.055-.031-.111-.049-.168s-.031-.109-.047-.164c-.124-.4-.253-.807-.388-1.21s-.272-.8-.415-1.2c-.027-.073-.057-.146-.084-.219s-.044-.12-.067-.18c-.093-.25-.184-.5-.281-.747q-.221-.571-.457-1.139c-.113-.272-.231-.543-.35-.813-.02-.049-.04-.1-.062-.146s-.044-.106-.068-.157c-.166-.379-.339-.756-.514-1.132-.195-.414-.394-.827-.6-1.238-.031-.062-.063-.124-.095-.186-.042-.082-.086-.162-.126-.242-.168-.326-.332-.654-.5-.979-.217-.4-.448-.8-.674-1.2-.115-.206-.228-.414-.346-.618-.046-.08-.087-.162-.135-.241-.206-.35-.432-.684-.645-1.028-.309-.5-.616-1.01-.942-1.5-.051-.078-.1-.162-.151-.241q-.714-1.069-1.476-2.1l-.007-.011v0q-.511-.692-1.041-1.367-.432-.547-.875-1.081l-.016-.02-.013-.016q-.446-.536-.906-1.059c-.3-.343-.6-.678-.911-1.01-.049-.055-.1-.106-.151-.159s-.108-.113-.16-.169c-.215-.226-.429-.456-.647-.678-.326-.332-.656-.656-.988-.977-.1-.1-.208-.191-.31-.288-.076-.071-.155-.142-.231-.215-.164-.151-.324-.306-.488-.454q-.517-.465-1.042-.909c-.153-.128-.308-.252-.463-.377-.078-.064-.157-.129-.235-.191-.115-.093-.228-.191-.345-.283-.341-.268-.684-.53-1.028-.784-.25-.184-.5-.359-.753-.536-.046-.031-.091-.066-.139-.1s-.085-.062-.127-.091q-.495-.339-1-.658t-.992-.607l-.229-.135-20.465-11.815-8.842,5.138,20.465,11.815c.793.457,1.575.957,2.346,1.491.047.033.093.067.138.1Q1468.33,478.674,1469.377,479.521Z" transform="translate(-1444.221 -459.377)" fill="#fff"/>
              <g id="Grupo_55749" data-name="Grupo 55749" transform="translate(0 5.138)">
                <path id="Trazado_118879" data-name="Trazado 118879" d="M1464.8,474.011c12.943,7.473,23.4,25.589,23.359,40.462l-.005,1.7-43.9-25.346.08-28.633Z" transform="translate(-1444.257 -462.196)" fill="#d3d3d3"/>
              </g>
            </g>
          </g>
          <path id="Trazado_118880" data-name="Trazado 118880" d="M1420.99,486.017l42.489-23.821,22.949,13.4v3.172c5.474,2.51,17.6,19.968,16.033,33.558-.523.21-42.445,23.837-42.445,23.837Z" transform="translate(-1409.522 -441.867)" fill="#fff"/>
          <path id="Trazado_118881" data-name="Trazado 118881" d="M1440.164,505.5l42.34-23.94.1,8.572L1441,513.547Z" transform="translate(-1393.747 -425.939)" fill="#21587b"/>
          <path id="Trazado_118882" data-name="Trazado 118882" d="M1479.006,469.55l-48.994,27.32,2.3,1.986,46.694-26.136Z" transform="translate(-1402.099 -435.817)" fill="#e5e5e5"/>
          <path id="Trazado_118883" data-name="Trazado 118883" d="M1414.7,477.255" transform="translate(-1414.698 -429.479)" fill="#0b0b0b"/>
          <g id="Grupo_55755" data-name="Grupo 55755" transform="translate(2.546 44.149)">
            <g id="Grupo_55754" data-name="Grupo 55754" style="isolation: isolate">
              <g id="Grupo_55752" data-name="Grupo 55752" transform="translate(43.901 52.275)">
                <path id="Trazado_118884" data-name="Trazado 118884" d="M1440.186,509.084l8.841-5.138,0,1.7-8.842,5.138Z" transform="translate(-1440.181 -503.945)" fill="#fff"/>
              </g>
              <path id="Trazado_118885" data-name="Trazado 118885" d="M1441.215,495.408c.078.064.157.128.233.191q1.014.831,1.994,1.742c.077.071.155.142.231.215q.993.935,1.947,1.943c.051.056.106.111.159.168.676.724,1.34,1.473,1.981,2.246l.016.02a54.482,54.482,0,0,1,3.551,4.8c.327.49.631,1,.941,1.5.262.425.532.842.784,1.274.119.2.228.408.344.612.406.72.8,1.445,1.179,2.182l.126.242c.45.9.878,1.8,1.278,2.714l.06.14q.585,1.343,1.09,2.7c.022.058.045.117.067.177q.511,1.392.935,2.791c.016.056.031.111.047.168q.405,1.345.718,2.69c.02.084.04.168.06.253.21.924.394,1.846.54,2.763l.008.046q.221,1.386.334,2.754c.005.075.013.15.018.224.071.913.111,1.817.107,2.709l8.842-5.138c0-.35,0-.7-.015-1.057-.011-.375-.029-.753-.053-1.134-.011-.171-.027-.345-.04-.518-.007-.075-.013-.149-.018-.224-.011-.133-.02-.264-.031-.4q-.055-.572-.13-1.148c-.049-.39-.106-.784-.167-1.177l-.005-.033-.007-.046c-.058-.366-.122-.736-.192-1.1-.077-.408-.158-.815-.248-1.223-.031-.144-.068-.288-.1-.434-.02-.084-.04-.169-.06-.255-.042-.179-.082-.359-.126-.538-.1-.416-.211-.829-.326-1.245-.084-.3-.175-.6-.264-.906-.018-.057-.033-.111-.049-.168s-.031-.109-.05-.164c-.124-.4-.253-.807-.388-1.212s-.271-.8-.416-1.194c-.027-.073-.056-.146-.082-.219s-.046-.12-.069-.18c-.091-.25-.184-.5-.281-.749q-.221-.569-.457-1.137c-.113-.272-.232-.543-.348-.815-.022-.047-.042-.1-.062-.144s-.046-.106-.069-.159q-.249-.566-.514-1.132-.292-.621-.6-1.236c-.033-.062-.066-.124-.1-.186l-.126-.244c-.166-.326-.332-.653-.5-.977-.217-.4-.448-.8-.673-1.2-.117-.206-.228-.414-.348-.618-.046-.08-.088-.162-.135-.242-.206-.348-.432-.682-.645-1.026-.31-.5-.616-1.01-.942-1.5-.051-.08-.1-.162-.15-.241q-.716-1.072-1.476-2.1l-.007-.011h0q-.511-.695-1.041-1.367-.432-.547-.875-1.081l-.017-.02-.013-.016c-.3-.359-.6-.711-.906-1.059s-.6-.68-.911-1.012c-.049-.053-.1-.1-.151-.159s-.107-.111-.16-.168c-.215-.228-.428-.456-.647-.678-.326-.332-.654-.658-.988-.977-.1-.1-.208-.191-.309-.288-.077-.073-.155-.144-.232-.215-.162-.151-.324-.306-.489-.454-.345-.31-.691-.614-1.041-.91-.153-.129-.31-.252-.463-.377-.078-.066-.156-.129-.237-.193-.115-.093-.228-.19-.344-.281-.339-.27-.683-.53-1.028-.786-.25-.182-.5-.359-.753-.534l-.139-.1-.127-.091c-.33-.226-.661-.447-.995-.658s-.66-.412-.994-.607c-.077-.046-.153-.091-.229-.135l-20.465-11.815-8.84,5.138,20.463,11.815c.793.457,1.575.957,2.346,1.491l.138.1Q1440.168,494.562,1441.215,495.408Z" transform="translate(-1416.058 -475.265)" fill="#fff"/>
              <g id="Grupo_55753" data-name="Grupo 55753" transform="translate(0 5.138)">
                <path id="Trazado_118886" data-name="Trazado 118886" d="M1436.64,489.9c12.945,7.473,23.4,25.587,23.359,40.46l0,1.7-43.9-25.346.082-28.633Z" transform="translate(-1416.095 -478.084)" fill="#d3d3d3"/>
              </g>
            </g>
          </g>
          <path id="Trazado_118887" data-name="Trazado 118887" d="M1466.707,490.129l-7.214-4.443,7.109-4.129Z" transform="translate(-1377.845 -425.939)" fill="#0e0e0e"/>
          <path id="Trazado_118888" data-name="Trazado 118888" d="M1444.007,506.357l.039.66,19.184-.464,37.178-19.772.052-.68Z" transform="translate(-1390.586 -422.2)" fill="#111"/>
          <path id="Trazado_118889" data-name="Trazado 118889" d="M1479.447,486.4l-35.44,19.968,19.131-.418,37.426-19.863Z" transform="translate(-1390.586 -422.212)" fill="#00223d"/>
          <path id="Trazado_118890" data-name="Trazado 118890" d="M1421.81,486.454l13.96,8.149a9.641,9.641,0,0,0,9.56.093l33.938-18.936a3.08,3.08,0,0,0,.024-5.366l-14.385-8.195Z" transform="translate(-1408.847 -441.865)" fill="#00223d"/>
          <g id="Grupo_55758" data-name="Grupo 55758" transform="translate(30.92 49.893)">
            <g id="Grupo_55757" data-name="Grupo 55757" style="isolation: isolate">
              <path id="Trazado_118891" data-name="Trazado 118891" d="M1431.737,480.044l.006.007a.708.708,0,0,0,.224.2l.558.324a1.337,1.337,0,0,0,.326.126l.051.013a1.8,1.8,0,0,0,.372.04h.015a1.718,1.718,0,0,0,.39-.044l.015,0a1.34,1.34,0,0,0,.348-.133l2.074-1.2a.537.537,0,0,0,.317-.443l0,.512a.535.535,0,0,1-.317.441l-2.074,1.2a1.064,1.064,0,0,1-.151.073c-.042.016-.086.031-.13.044l-.067.016-.015,0-.031.007a1.043,1.043,0,0,1-.106.018c-.035.006-.071.009-.106.013s-.071.005-.108.005h-.111c-.042,0-.082-.005-.122-.009s-.091-.011-.137-.018c-.02,0-.038-.011-.057-.015l-.051-.013a.929.929,0,0,1-.1-.024,1.14,1.14,0,0,1-.229-.1l-.558-.323-.013-.007a.862.862,0,0,1-.133-.1.562.562,0,0,1-.064-.069l-.015-.022-.005-.009-.024-.033a.473.473,0,0,1-.027-.06c-.007-.02-.013-.04-.018-.06a.319.319,0,0,1-.006-.062v-.009l0-.51A.4.4,0,0,0,1431.737,480.044Z" transform="translate(-1431.662 -477.992)" fill="#d4e7ef"/>
              <g id="Grupo_55756" data-name="Grupo 55756">
                <path id="Trazado_118892" data-name="Trazado 118892" d="M1431.979,479.8c-.416.241-.427.632-.013.873l.558.324a1.683,1.683,0,0,0,1.516,0l2.074-1.2a.464.464,0,0,0,.005-.879l-.558-.324a1.651,1.651,0,0,0-1.509.005Z" transform="translate(-1431.662 -478.416)" fill="#dcecf3"/>
              </g>
            </g>
          </g>
          <g id="Grupo_55761" data-name="Grupo 55761" transform="translate(35.918 47.051)">
            <g id="Grupo_55760" data-name="Grupo 55760" style="isolation: isolate">
              <path id="Trazado_118893" data-name="Trazado 118893" d="M1434.479,478.483l.005.009a.729.729,0,0,0,.224.2l.557.323a1.24,1.24,0,0,0,.328.126l.049.013a1.805,1.805,0,0,0,.374.042h.013a1.749,1.749,0,0,0,.392-.044l.015,0a1.232,1.232,0,0,0,.346-.133l2.074-1.2a.534.534,0,0,0,.317-.441l0,.51a.535.535,0,0,1-.317.443l-2.074,1.2a1.311,1.311,0,0,1-.151.073c-.042.016-.086.031-.13.044l-.065.016-.015,0-.031.007c-.036.007-.071.013-.107.018a1.043,1.043,0,0,1-.106.011c-.035,0-.071.005-.108.007h-.055c-.018,0-.038,0-.056,0-.04,0-.081,0-.12-.007s-.093-.011-.139-.02l-.057-.013-.051-.013c-.031-.009-.064-.015-.095-.024a1.22,1.22,0,0,1-.232-.1l-.558-.324-.013-.007a.74.74,0,0,1-.131-.1.6.6,0,0,1-.066-.071l-.015-.022-.005-.007-.022-.033a.455.455,0,0,1-.029-.06.325.325,0,0,1-.016-.06.356.356,0,0,1-.008-.062v-.009l0-.512A.393.393,0,0,0,1434.479,478.483Z" transform="translate(-1434.404 -476.433)" fill="#fafcfe"/>
              <g id="Grupo_55759" data-name="Grupo 55759">
                <path id="Trazado_118894" data-name="Trazado 118894" d="M1434.723,478.238c-.417.241-.428.634-.014.875l.557.323a1.684,1.684,0,0,0,1.517,0l2.074-1.2a.464.464,0,0,0,.005-.878l-.556-.323a1.657,1.657,0,0,0-1.509,0Z" transform="translate(-1434.404 -476.857)" fill="#fafcfe"/>
              </g>
            </g>
          </g>
          <path id="Trazado_118895" data-name="Trazado 118895" d="M1426.227,484.223l7.841,4.391,34.133-19.5-7.475-4.652Z" transform="translate(-1405.213 -440.001)" fill="#0d0d0d"/>
          <path id="Trazado_118896" data-name="Trazado 118896" d="M1429.719,484.978l-7.736-21.431,1.836.9,7.782,21.5Z" transform="translate(-1408.705 -440.756)" fill="#00223d"/>
          <path id="Trazado_118897" data-name="Trazado 118897" d="M1430.8,494.451l34.068-19.758-7.841-21.484-34.068,19.759Z" transform="translate(-1407.903 -449.261)" fill="#21587b"/>
          <path id="Trazado_118898" data-name="Trazado 118898" d="M1422,472.462l34.067-19.758,1.745.921-34.068,19.759Z" transform="translate(-1408.69 -449.677)" fill="#00223d"/>
          <path id="Trazado_118899" data-name="Trazado 118899" d="M1445.95,465v7.135l6.024-3.45Z" transform="translate(-1388.987 -439.564)" fill="#0a0a0a"/>
          <path id="Trazado_118900" data-name="Trazado 118900" d="M1448.583,451.043c12.336,5.854,16.307,25.4,16.936,28.122a5.428,5.428,0,0,0,3.135,3.66l-28.436,16.1a5.428,5.428,0,0,1-3.135-3.66c-.627-2.718-4.6-22.268-16.937-28.122Z" transform="translate(-1410.215 -451.043)" fill="#fff"/>
        </g>
        <g id="Grupo_55763" data-name="Grupo 55763" transform="translate(77.92 68.777)">
          <path id="Trazado_118901" data-name="Trazado 118901" d="M1286.927,420.14a8.6,8.6,0,0,0-2.872,16.7h5.745a8.6,8.6,0,0,0-2.873-16.7Z" transform="translate(-1252.459 -394.291)" fill="#ff6148"/>
          <path id="Trazado_118902" data-name="Trazado 118902" d="M1284.009,457.065a2.154,2.154,0,0,1-2.154-2.154V429.779a2.154,2.154,0,0,1,4.309,0v25.131A2.155,2.155,0,0,1,1284.009,457.065Z" transform="translate(-1249.542 -388.133)" fill="#00223d"/>
          <path id="Trazado_118903" data-name="Trazado 118903" d="M1286.927,437.374a8.617,8.617,0,1,1,8.616-8.616A8.627,8.627,0,0,1,1286.927,437.374Zm0-12.925a4.308,4.308,0,1,0,4.309,4.309A4.313,4.313,0,0,0,1286.927,424.449Z" transform="translate(-1252.459 -394.291)" fill="#00223d"/>
          <path id="Trazado_118904" data-name="Trazado 118904" d="M1321.429,465.412a2.155,2.155,0,0,1-1.524-3.682,29.836,29.836,0,0,0,8.847-21.305,30.158,30.158,0,1,0-60.316,0,29.855,29.855,0,0,0,8.844,21.309,2.155,2.155,0,0,1-3.042,3.053,34.136,34.136,0,0,1-10.11-24.362,34.466,34.466,0,1,1,68.932,0,34.107,34.107,0,0,1-10.112,24.358A2.139,2.139,0,0,1,1321.429,465.412Z" transform="translate(-1264.127 -405.958)" fill="#00223d"/>
          <path id="Trazado_118905" data-name="Trazado 118905" d="M1308.114,452.1a2.156,2.156,0,0,1-1.517-3.685,18.431,18.431,0,0,0,5.481-13.174,18.67,18.67,0,0,0-37.34,0,18.441,18.441,0,0,0,5.481,13.178,2.155,2.155,0,0,1-3.037,3.058,22.717,22.717,0,0,1-6.753-16.237,22.978,22.978,0,1,1,45.955,0,22.7,22.7,0,0,1-6.755,16.233A2.136,2.136,0,0,1,1308.114,452.1Z" transform="translate(-1258.941 -400.773)" fill="#00223d"/>
        </g>
        <g id="Group_55121" data-name="Group 55121" transform="translate(215.282 117.764)">
          <g id="Group_55110" data-name="Group 55110">
            <g id="Group_55107" data-name="Group 55107" transform="translate(2.867 48.454)">
              <path id="Path_118841" data-name="Path 118841" d="M1372.391,477.915l-31.328-18.5v10.154l70.653,41.479v2.986l2.229-1.351v-9.981l-41.679-24.79Z" transform="translate(-1341.062 -459.418)" fill="#bdc3c7"/>
            </g>
            <g id="Group_55108" data-name="Group 55108" transform="translate(16.869 75.182)">
              <path id="Path_118842" data-name="Path 118842" d="M1370.571,492.666l4.137-2.32v-3.372l-4.137,2.34Z" transform="translate(-1330.787 -463.476)" fill="#bdc3c7"/>
              <path id="Path_118843" data-name="Path 118843" d="M1369.47,486.35l-4.138,2.32v-7.8l4.138,2.426Z" transform="translate(-1335.097 -468.498)" fill="#bdc3c7"/>
              <path id="Path_118844" data-name="Path 118844" d="M1392.665,497.578l-4.137,2.34-39.784-23.507,4.138-2.329Z" transform="translate(-1348.744 -474.082)" fill="#bdc3c7"/>
            </g>
            <g id="Group_55109" data-name="Group 55109">
              <path id="Path_118845" data-name="Path 118845" d="M1342,432.834l-2.515,1.1V434l73.469,43.152,2.278-1.28Z" transform="translate(-1339.489 -432.834)" fill="#21587b"/>
              <path id="Path_118846" data-name="Path 118846" d="M1382.17,456.513l-.248-.146-2.24,1.425h.206v48.637l2.279-1.216Z" transform="translate(-1306.422 -413.474)" fill="#21587b"/>
            </g>
            <path id="Path_118847" data-name="Path 118847" d="M1413.009,476.642l-73.52-43.2V482.05l73.52,43.2Z" transform="translate(-1339.489 -432.336)" fill="#00223d"/>
            <path id="Path_118848" data-name="Path 118848" d="M1340.886,481.386v-45.25L1408.677,476v45.252Z" transform="translate(-1338.34 -430.118)" fill="#21587b"/>
            <path id="Path_118849" data-name="Path 118849" d="M1413.009,513.465V503.311l-73.52-43.2v10.156l26.414,15.52v7.759l-9.547-5.643v3.361l39.782,23.505v-3.355l-9.547-5.643v-7.827Z" transform="translate(-1339.489 -410.393)" fill="#ecf0f1"/>
          </g>
          <g id="Group_55112" data-name="Group 55112" transform="translate(2.546 6.017)">
            <path id="Path_118850" data-name="Path 118850" d="M1340.886,439.645v-3.51L1408.677,476v3.509Z" transform="translate(-1340.886 -436.135)" fill="#ecf0f1"/>
            <g id="Group_55111" data-name="Group 55111" transform="translate(59.398 37.19)">
              <path id="Path_118851" data-name="Path 118851" d="M1375.814,458.422l1.94-.946.273.51-1.939.946Z" transform="translate(-1371.549 -455.768)" fill="#21587b"/>
              <path id="Path_118852" data-name="Path 118852" d="M1378.026,460.168l-1.937-3.23-.273.188,1.939,3.23Z" transform="translate(-1371.548 -456.211)" fill="#21587b"/>
              <path id="Path_118853" data-name="Path 118853" d="M1376.113,458.535l-2.636-1.518,0-.477,2.635,1.518Z" transform="translate(-1373.474 -456.539)" fill="#21587b"/>
            </g>
          </g>
          <g id="Group_55120" data-name="Group 55120" transform="translate(5.729 15.427)">
            <path id="Path_118854" data-name="Path 118854" d="M1362.562,487.633l-19.93-11.5V441.3l19.93,11.507Z" transform="translate(-1342.632 -441.298)" fill="#ecf0f1"/>
            <path id="Path_118855" data-name="Path 118855" d="M1380.828,498.178l-10.245-5.915V457.435l10.245,5.915Z" transform="translate(-1319.637 -428.022)" fill="#ecf0f1"/>
            <path id="Path_118856" data-name="Path 118856" d="M1380.312,471.5l-25.064-14.47v-8.443l25.064,14.47Z" transform="translate(-1332.253 -435.306)" fill="#ecf0f1"/>
            <g id="Group_55113" data-name="Group 55113" transform="translate(23.303 25.855)">
              <path id="Path_118857" data-name="Path 118857" d="M1380.173,471.182l-24.756-14.292v-1.407l24.756,14.292Z" transform="translate(-1355.417 -455.483)" fill="#ecf0f1"/>
            </g>
            <g id="Group_55114" data-name="Group 55114" transform="translate(23.303 29.373)">
              <path id="Path_118858" data-name="Path 118858" d="M1380.173,473.114l-24.756-14.294v-1.407l24.756,14.292Z" transform="translate(-1355.417 -457.413)" fill="#ecf0f1"/>
            </g>
            <g id="Group_55115" data-name="Group 55115" transform="translate(23.303 32.89)">
              <path id="Path_118859" data-name="Path 118859" d="M1380.173,475.044l-24.756-14.294v-1.407l24.756,14.294Z" transform="translate(-1355.417 -459.343)" fill="#ecf0f1"/>
            </g>
            <g id="Group_55116" data-name="Group 55116" transform="translate(23.303 36.406)">
              <path id="Path_118860" data-name="Path 118860" d="M1380.173,476.974l-24.756-14.293v-1.409l24.756,14.294Z" transform="translate(-1355.417 -461.272)" fill="#ecf0f1"/>
            </g>
            <g id="Group_55117" data-name="Group 55117" transform="translate(23.303 39.926)">
              <path id="Path_118861" data-name="Path 118861" d="M1380.173,478.9l-24.756-14.294V463.2l24.756,14.292Z" transform="translate(-1355.417 -463.203)" fill="#ecf0f1"/>
            </g>
            <g id="Group_55118" data-name="Group 55118" transform="translate(23.303 43.444)">
              <path id="Path_118862" data-name="Path 118862" d="M1380.173,480.834l-24.756-14.294v-1.407l24.756,14.294Z" transform="translate(-1355.417 -465.133)" fill="#ecf0f1"/>
            </g>
            <g id="Group_55119" data-name="Group 55119" transform="translate(23.303 46.962)">
              <path id="Path_118863" data-name="Path 118863" d="M1380.173,482.764l-24.756-14.294v-1.407l24.756,14.294Z" transform="translate(-1355.417 -467.063)" fill="#ecf0f1"/>
            </g>
          </g>
        </g>
        <g id="Group_55122" data-name="Group 55122" transform="translate(177.295 192.188)">
          <path id="Path_118864" data-name="Path 118864" d="M1387.462,531.88l-68.814-39.729,31.522-17.585,68.814,39.729Z" transform="translate(-1318.648 -472.926)" fill="#bdc3c7"/>
          <path id="Path_118865" data-name="Path 118865" d="M1318.648,483.314v1.637l1.912.333,1.42-1.566Z" transform="translate(-1318.648 -465.729)" fill="#bcbec0"/>
          <path id="Path_118866" data-name="Path 118866" d="M1374.745,495.463V497.1l-2.323-.552Z" transform="translate(-1274.407 -455.734)" fill="#bcbec0"/>
          <path id="Path_118867" data-name="Path 118867" d="M1387.462,530.981l-68.814-39.729,31.522-17.585,68.814,39.729Z" transform="translate(-1318.648 -473.666)" fill="#ecf0f1"/>
        </g>
        <g id="Group_55125" data-name="Group 55125" transform="translate(259.562 240.92)">
          <g id="Group_55123" data-name="Group 55123">
            <path id="Path_118868" data-name="Path 118868" d="M1382.171,512.357c-5.1,2.944-12.311,3.549-16.107,1.36s-2.744-6.356,2.355-9.3,12.308-3.549,16.107-1.36S1387.268,509.411,1382.171,512.357Z" transform="translate(-1363.783 -499.3)" fill="#bdc3c7"/>
            <path id="Path_118869" data-name="Path 118869" d="M1377.308,503.023v2.79h-1.981Z" transform="translate(-1354.286 -498.247)" fill="#bcbec0"/>
            <path id="Path_118870" data-name="Path 118870" d="M1363.783,505.2v2.534h1.391l1.015-1.015Z" transform="translate(-1363.783 -496.456)" fill="#bcbec0"/>
            <path id="Path_118871" data-name="Path 118871" d="M1382.171,511.017c-5.1,2.944-12.311,3.549-16.107,1.36s-2.744-6.356,2.355-9.3,12.308-3.549,16.107-1.36S1387.268,508.073,1382.171,511.017Z" transform="translate(-1363.783 -500.402)" fill="#e2e2e2"/>
          </g>
          <path id="Path_118872" data-name="Path 118872" d="M1370.625,505.441l-.016-.009a.51.51,0,0,1-.006-.966l4.09-2.36a1.838,1.838,0,0,1,1.672,0l.016.011a.509.509,0,0,1,.323.643.518.518,0,0,1-.317.321l-4.092,2.362A1.846,1.846,0,0,1,1370.625,505.441Z" transform="translate(-1358.454 -499.167)" fill="#bdc3c7"/>
          <path id="Path_118873" data-name="Path 118873" d="M1376.811,501.194c-.093-.055-.19-.1-.286-.155l-3.364,1.939.348.607,3.708-2.134C1377.086,501.362,1376.953,501.276,1376.811,501.194Z" transform="translate(-1356.068 -499.879)" fill="#bdc3c7"/>
          <g id="Group_55124" data-name="Group 55124" transform="translate(13.201 2.661)">
            <path id="Path_118874" data-name="Path 118874" d="M1374.958,502.1l-1.471.807.14.018-1.5.864v-.009l-1.1-.2v.977h0a.407.407,0,0,0,.206.228l.016.009a.808.808,0,0,0,.707.067l2.909-1.679a.16.16,0,0,0,.082-.106h.006Z" transform="translate(-1371.021 -501.666)" fill="#262626"/>
            <path id="Path_118875" data-name="Path 118875" d="M1371.24,504c-.229-.131-.282-.315-.122-.408l2.911-1.681a.807.807,0,0,1,.707.068c.246.142.3.326.137.417l-2.911,1.68a.812.812,0,0,1-.707-.067Z" transform="translate(-1371.025 -501.863)" fill="#2b2b2b"/>
          </g>
        </g>
        <g id="Group_55262" data-name="Group 55262" transform="translate(183.974 196.006)">
          <g id="Group_55127" data-name="Group 55127" transform="translate(20.298)">
            <g id="Group_55126" data-name="Group 55126">
              <path id="Path_118876" data-name="Path 118876" d="M1340.213,478.178c.117.067.12.175.011.239L1338,479.693a.452.452,0,0,1-.41-.009l-4.046-2.36c-.117-.069-.122-.177-.013-.241l2.227-1.278a.46.46,0,0,1,.414.011Z" transform="translate(-1333.449 -475.761)" fill="#00223d"/>
            </g>
          </g>
          <g id="Group_55129" data-name="Group 55129" transform="translate(25.56 3.077)">
            <g id="Group_55128" data-name="Group 55128">
              <path id="Path_118877" data-name="Path 118877" d="M1342.326,479.412c.117.069.124.177.013.239l-2.226,1.28a.453.453,0,0,1-.413-.009l-3.272-1.912c-.117-.067-.124-.175-.013-.239l2.227-1.278a.462.462,0,0,1,.412.009Z" transform="translate(-1336.336 -477.449)" fill="#00223d"/>
            </g>
          </g>
          <g id="Group_55131" data-name="Group 55131" transform="translate(30.027 5.688)">
            <g id="Group_55130" data-name="Group 55130">
              <path id="Path_118878" data-name="Path 118878" d="M1344.78,480.847c.117.069.124.177.013.241l-2.226,1.276a.454.454,0,0,1-.414-.009l-3.277-1.91c-.115-.069-.122-.177-.011-.241l2.226-1.278a.465.465,0,0,1,.414.009Z" transform="translate(-1338.786 -478.882)" fill="#00223d"/>
            </g>
          </g>
          <g id="Group_55133" data-name="Group 55133" transform="translate(34.494 8.302)">
            <g id="Group_55132" data-name="Group 55132">
              <path id="Path_118879" data-name="Path 118879" d="M1347.231,482.281c.119.067.124.175.013.239l-2.227,1.278a.454.454,0,0,1-.414-.009l-3.276-1.912c-.117-.067-.12-.175-.011-.239l2.227-1.278a.454.454,0,0,1,.408.009Z" transform="translate(-1341.237 -480.316)" fill="#00223d"/>
            </g>
          </g>
          <g id="Group_55135" data-name="Group 55135" transform="translate(38.967 10.913)">
            <g id="Group_55134" data-name="Group 55134">
              <path id="Path_118880" data-name="Path 118880" d="M1349.68,483.715c.118.067.124.177.013.239l-2.225,1.278a.465.465,0,0,1-.414-.009l-3.272-1.912c-.115-.067-.122-.177-.011-.239l2.226-1.278a.454.454,0,0,1,.414.009Z" transform="translate(-1343.691 -481.748)" fill="#00223d"/>
            </g>
          </g>
          <g id="Group_55137" data-name="Group 55137" transform="translate(43.43 13.528)">
            <g id="Group_55136" data-name="Group 55136">
              <path id="Path_118881" data-name="Path 118881" d="M1352.137,485.148c.115.068.122.177.011.239l-2.226,1.278a.465.465,0,0,1-.414-.009l-3.277-1.912c-.117-.067-.122-.175-.013-.239l2.227-1.278a.465.465,0,0,1,.414.009Z" transform="translate(-1346.14 -483.183)" fill="#00223d"/>
            </g>
          </g>
          <g id="Group_55139" data-name="Group 55139" transform="translate(47.899 16.142)">
            <g id="Group_55138" data-name="Group 55138">
              <path id="Path_118882" data-name="Path 118882" d="M1354.587,486.58c.117.069.124.177.013.241l-2.225,1.276a.458.458,0,0,1-.416-.009l-3.275-1.91c-.119-.069-.122-.175-.011-.239l2.226-1.276a.446.446,0,0,1,.41.009Z" transform="translate(-1348.592 -484.617)" fill="#00223d"/>
            </g>
          </g>
          <g id="Group_55141" data-name="Group 55141" transform="translate(52.37 18.752)">
            <g id="Group_55140" data-name="Group 55140">
              <path id="Path_118883" data-name="Path 118883" d="M1357.035,488.014c.119.067.124.177.013.239l-2.226,1.278a.452.452,0,0,1-.41-.007l-3.276-1.912c-.117-.067-.124-.177-.013-.239l2.225-1.278a.454.454,0,0,1,.414.009Z" transform="translate(-1351.044 -486.049)" fill="#00223d"/>
            </g>
          </g>
          <g id="Group_55143" data-name="Group 55143" transform="translate(56.836 21.366)">
            <g id="Group_55142" data-name="Group 55142">
              <path id="Path_118884" data-name="Path 118884" d="M1359.49,489.448c.118.067.124.177.015.239l-2.228,1.279a.459.459,0,0,1-.413-.011l-3.276-1.91c-.119-.069-.124-.175-.013-.241l2.226-1.278a.459.459,0,0,1,.414.011Z" transform="translate(-1353.495 -487.483)" fill="#00223d"/>
            </g>
          </g>
          <g id="Group_55145" data-name="Group 55145" transform="translate(61.309 23.98)">
            <g id="Group_55144" data-name="Group 55144">
              <path id="Path_118885" data-name="Path 118885" d="M1361.94,490.882c.117.067.122.177.013.239l-2.228,1.278a.465.465,0,0,1-.414-.009l-3.272-1.912c-.118-.067-.122-.175-.011-.237l2.225-1.278a.452.452,0,0,1,.41.009Z" transform="translate(-1355.949 -488.917)" fill="#00223d"/>
            </g>
          </g>
          <g id="Group_55147" data-name="Group 55147" transform="translate(65.777 26.592)">
            <g id="Group_55146" data-name="Group 55146">
              <path id="Path_118886" data-name="Path 118886" d="M1364.392,492.315c.117.069.122.175.011.239l-2.225,1.278a.444.444,0,0,1-.414-.009l-3.272-1.91c-.117-.069-.124-.177-.013-.241l2.227-1.276a.454.454,0,0,1,.414.009Z" transform="translate(-1358.401 -490.35)" fill="#00223d"/>
            </g>
          </g>
          <g id="Group_55149" data-name="Group 55149" transform="translate(70.242 29.201)">
            <g id="Group_55148" data-name="Group 55148">
              <path id="Path_118887" data-name="Path 118887" d="M1366.845,493.747c.117.068.124.177.013.239l-2.228,1.278a.45.45,0,0,1-.412-.009l-3.277-1.912c-.117-.067-.122-.175-.013-.239l2.227-1.278a.46.46,0,0,1,.414.011Z" transform="translate(-1360.85 -491.782)" fill="#00223d"/>
            </g>
          </g>
          <g id="Group_55151" data-name="Group 55151" transform="translate(74.714 31.819)">
            <g id="Group_55150" data-name="Group 55150">
              <path id="Path_118888" data-name="Path 118888" d="M1369.3,495.183c.118.067.124.175.013.239l-2.226,1.278a.465.465,0,0,1-.414-.009l-3.276-1.912c-.118-.067-.122-.175-.011-.239l2.225-1.278a.46.46,0,0,1,.414.011Z" transform="translate(-1363.304 -493.218)" fill="#00223d"/>
            </g>
          </g>
          <g id="Group_55153" data-name="Group 55153" transform="translate(78.761 34.181)">
            <g id="Group_55152" data-name="Group 55152">
              <path id="Path_118889" data-name="Path 118889" d="M1372.383,496.989c.117.067.124.175.013.239l-2.225,1.278a.465.465,0,0,1-.414-.009l-4.141-2.421c-.117-.069-.124-.177-.013-.241l2.227-1.276a.451.451,0,0,1,.412.009Z" transform="translate(-1365.524 -494.514)" fill="#00223d"/>
            </g>
          </g>
          <g id="Group_55155" data-name="Group 55155" transform="translate(16.236 1.885)">
            <g id="Group_55154" data-name="Group 55154">
              <path id="Path_118890" data-name="Path 118890" d="M1338.753,479.214c.119.067.122.177.011.239l-3,1.721a.451.451,0,0,1-.41-.007l-4.043-2.366c-.118-.067-.124-.175-.013-.239l3-1.721a.454.454,0,0,1,.414.009Z" transform="translate(-1331.22 -476.795)" fill="#00223d"/>
            </g>
          </g>
          <g id="Group_55157" data-name="Group 55157" transform="translate(21.482 4.956)">
            <g id="Group_55156" data-name="Group 55156">
              <path id="Path_118891" data-name="Path 118891" d="M1340.922,480.48c.117.068.122.177.013.239l-3,1.722a.46.46,0,0,1-.414-.011l-3.326-1.945c-.117-.069-.124-.177-.013-.241l3-1.721a.46.46,0,0,1,.414.011Z" transform="translate(-1334.099 -478.48)" fill="#00223d"/>
            </g>
          </g>
          <g id="Group_55159" data-name="Group 55159" transform="translate(26.015 7.603)">
            <g id="Group_55158" data-name="Group 55158">
              <path id="Path_118892" data-name="Path 118892" d="M1343.407,481.933c.117.069.122.177.011.241l-3,1.721a.454.454,0,0,1-.414-.009l-3.328-1.947c-.119-.069-.124-.177-.015-.241l3-1.721a.454.454,0,0,1,.414.009Z" transform="translate(-1336.585 -479.932)" fill="#00223d"/>
            </g>
          </g>
          <g id="Group_55161" data-name="Group 55161" transform="translate(30.545 10.254)">
            <g id="Group_55160" data-name="Group 55160">
              <path id="Path_118893" data-name="Path 118893" d="M1345.891,483.387c.117.069.124.177.013.241l-3,1.721a.454.454,0,0,1-.414-.009l-3.33-1.948c-.117-.067-.122-.175-.013-.239l3-1.721a.465.465,0,0,1,.414.009Z" transform="translate(-1339.071 -481.387)" fill="#00223d"/>
            </g>
          </g>
          <g id="Group_55163" data-name="Group 55163" transform="translate(35.069 12.901)">
            <g id="Group_55162" data-name="Group 55162">
              <path id="Path_118894" data-name="Path 118894" d="M1348.378,484.84c.118.067.124.177.012.239l-3,1.722a.465.465,0,0,1-.414-.009l-3.33-1.948c-.117-.067-.124-.175-.013-.239l3-1.721a.458.458,0,0,1,.416.009Z" transform="translate(-1341.552 -482.839)" fill="#00223d"/>
            </g>
          </g>
          <g id="Group_55165" data-name="Group 55165" transform="translate(39.608 15.551)">
            <g id="Group_55164" data-name="Group 55164">
              <path id="Path_118895" data-name="Path 118895" d="M1350.862,486.294c.117.067.124.177.013.239l-3,1.721a.455.455,0,0,1-.414-.009l-3.326-1.947c-.117-.068-.122-.175-.013-.239l3-1.721a.455.455,0,0,1,.412.007Z" transform="translate(-1344.043 -484.293)" fill="#00223d"/>
            </g>
          </g>
          <g id="Group_55167" data-name="Group 55167" transform="translate(44.136 18.2)">
            <g id="Group_55166" data-name="Group 55166">
              <path id="Path_118896" data-name="Path 118896" d="M1353.349,487.747c.117.069.122.177.013.241l-3,1.721a.465.465,0,0,1-.413-.009l-3.329-1.948c-.119-.067-.124-.175-.013-.239l3-1.721a.453.453,0,0,1,.414.009Z" transform="translate(-1346.527 -485.746)" fill="#00223d"/>
            </g>
          </g>
          <g id="Group_55169" data-name="Group 55169" transform="translate(48.667 20.848)">
            <g id="Group_55168" data-name="Group 55168">
              <path id="Path_118897" data-name="Path 118897" d="M1355.835,489.2c.117.069.122.177.013.241l-3,1.721a.454.454,0,0,1-.414-.011l-3.33-1.947c-.117-.067-.122-.175-.013-.239l3-1.721a.454.454,0,0,1,.414.009Z" transform="translate(-1349.013 -487.199)" fill="#00223d"/>
            </g>
          </g>
          <g id="Group_55171" data-name="Group 55171" transform="translate(53.199 23.5)">
            <g id="Group_55170" data-name="Group 55170">
              <path id="Path_118898" data-name="Path 118898" d="M1358.319,490.654c.119.069.124.175.013.241l-3,1.721a.454.454,0,0,1-.408-.009l-3.332-1.947c-.119-.069-.122-.177-.011-.239l3-1.721a.452.452,0,0,1,.41.007Z" transform="translate(-1351.5 -488.654)" fill="#00223d"/>
            </g>
          </g>
          <g id="Group_55173" data-name="Group 55173" transform="translate(57.731 26.148)">
            <g id="Group_55172" data-name="Group 55172">
              <path id="Path_118899" data-name="Path 118899" d="M1360.807,492.108c.117.069.12.175.011.239l-3,1.721a.453.453,0,0,1-.408-.009l-3.332-1.948c-.117-.067-.122-.173-.011-.239l3-1.721a.457.457,0,0,1,.41.009Z" transform="translate(-1353.986 -490.107)" fill="#00223d"/>
            </g>
          </g>
          <g id="Group_55175" data-name="Group 55175" transform="translate(62.26 28.797)">
            <g id="Group_55174" data-name="Group 55174">
              <path id="Path_118900" data-name="Path 118900" d="M1363.294,493.561c.117.069.124.177.013.241l-3,1.721a.47.47,0,0,1-.416-.009l-3.332-1.948c-.115-.069-.12-.175-.011-.239l3-1.721a.452.452,0,0,1,.41.007Z" transform="translate(-1356.471 -491.56)" fill="#00223d"/>
            </g>
          </g>
          <g id="Group_55177" data-name="Group 55177" transform="translate(66.788 31.447)">
            <g id="Group_55176" data-name="Group 55176">
              <path id="Path_118901" data-name="Path 118901" d="M1365.779,495.015c.118.069.122.177.014.241l-3,1.721a.459.459,0,0,1-.414-.011l-3.33-1.947c-.117-.067-.122-.177-.013-.239l3-1.721a.454.454,0,0,1,.414.009Z" transform="translate(-1358.955 -493.014)" fill="#00223d"/>
            </g>
          </g>
          <g id="Group_55179" data-name="Group 55179" transform="translate(12.232 4.181)">
            <g id="Group_55178" data-name="Group 55178">
              <path id="Path_118902" data-name="Path 118902" d="M1337.345,480.937c.117.067.124.175.013.239l-3,1.721a.458.458,0,0,1-.41-.011l-4.835-2.823c-.117-.068-.12-.177-.013-.239l3-1.722a.454.454,0,0,1,.413.009Z" transform="translate(-1329.023 -478.055)" fill="#00223d"/>
            </g>
          </g>
          <g id="Group_55181" data-name="Group 55181" transform="translate(18.335 7.752)">
            <g id="Group_55180" data-name="Group 55180">
              <path id="Path_118903" data-name="Path 118903" d="M1339.193,482.015c.117.069.122.177.013.241l-3,1.721a.46.46,0,0,1-.414-.011l-3.328-1.947c-.118-.069-.122-.177-.013-.241l3-1.721a.459.459,0,0,1,.414.011Z" transform="translate(-1332.372 -480.014)" fill="#00223d"/>
            </g>
          </g>
          <g id="Group_55183" data-name="Group 55183" transform="translate(8.229 6.48)">
            <g id="Group_55182" data-name="Group 55182">
              <path id="Path_118904" data-name="Path 118904" d="M1336.069,482.734c.117.067.124.175.013.239l-3,1.721a.458.458,0,0,1-.416-.009l-5.749-3.363c-.119-.068-.124-.175-.013-.239l3-1.721a.455.455,0,0,1,.414.009Z" transform="translate(-1326.827 -479.316)" fill="#00223d"/>
            </g>
          </g>
          <g id="Group_55185" data-name="Group 55185" transform="translate(22.866 10.397)">
            <g id="Group_55184" data-name="Group 55184">
              <path id="Path_118905" data-name="Path 118905" d="M1341.677,483.466c.118.069.124.177.013.241l-3,1.721a.466.466,0,0,1-.414-.009l-3.329-1.948c-.118-.069-.12-.177-.012-.239l3-1.721a.454.454,0,0,1,.414.009Z" transform="translate(-1334.858 -481.465)" fill="#00223d"/>
            </g>
          </g>
          <g id="Group_55187" data-name="Group 55187" transform="translate(27.396 13.051)">
            <g id="Group_55186" data-name="Group 55186">
              <path id="Path_118906" data-name="Path 118906" d="M1344.163,484.922c.119.067.124.175.013.239l-3,1.721a.465.465,0,0,1-.414-.009l-3.33-1.945c-.117-.069-.122-.179-.013-.241l3-1.721a.453.453,0,0,1,.414.009Z" transform="translate(-1337.343 -482.921)" fill="#00223d"/>
            </g>
          </g>
          <g id="Group_55189" data-name="Group 55189" transform="translate(31.923 15.699)">
            <g id="Group_55188" data-name="Group 55188">
              <path id="Path_118907" data-name="Path 118907" d="M1346.651,486.374c.117.069.122.177.013.241l-3,1.721a.466.466,0,0,1-.414-.009l-3.328-1.947c-.118-.069-.122-.177-.013-.241l3-1.721a.459.459,0,0,1,.413.011Z" transform="translate(-1339.827 -484.374)" fill="#00223d"/>
            </g>
          </g>
          <g id="Group_55191" data-name="Group 55191" transform="translate(36.457 18.347)">
            <g id="Group_55190" data-name="Group 55190">
              <path id="Path_118908" data-name="Path 118908" d="M1349.136,487.828c.117.067.122.175.011.239l-3,1.721a.454.454,0,0,1-.414-.009l-3.33-1.947c-.117-.067-.12-.177-.013-.239l3-1.721a.454.454,0,0,1,.414.009Z" transform="translate(-1342.314 -485.827)" fill="#00223d"/>
            </g>
          </g>
          <g id="Group_55193" data-name="Group 55193" transform="translate(40.989 20.997)">
            <g id="Group_55192" data-name="Group 55192">
              <path id="Path_118909" data-name="Path 118909" d="M1351.62,489.283c.119.067.124.175.013.239l-3,1.721a.454.454,0,0,1-.414-.009l-3.33-1.947c-.117-.067-.12-.179-.011-.239l3-1.721a.454.454,0,0,1,.414.007Z" transform="translate(-1344.8 -487.281)" fill="#00223d"/>
            </g>
          </g>
          <g id="Group_55195" data-name="Group 55195" transform="translate(45.515 23.646)">
            <g id="Group_55194" data-name="Group 55194">
              <path id="Path_118910" data-name="Path 118910" d="M1354.108,490.735c.117.069.122.177.013.239l-3,1.722a.46.46,0,0,1-.414-.011l-3.328-1.947c-.118-.067-.122-.177-.013-.239l3-1.721a.453.453,0,0,1,.413.009Z" transform="translate(-1347.283 -488.734)" fill="#00223d"/>
            </g>
          </g>
          <g id="Group_55197" data-name="Group 55197" transform="translate(50.049 26.294)">
            <g id="Group_55196" data-name="Group 55196">
              <path id="Path_118911" data-name="Path 118911" d="M1356.591,492.188c.119.069.124.177.013.241l-3,1.721a.466.466,0,0,1-.414-.009l-3.33-1.947c-.117-.069-.121-.179-.013-.241l3-1.721a.454.454,0,0,1,.414.009Z" transform="translate(-1349.771 -490.187)" fill="#00223d"/>
            </g>
          </g>
          <g id="Group_55199" data-name="Group 55199" transform="translate(54.583 28.944)">
            <g id="Group_55198" data-name="Group 55198">
              <path id="Path_118912" data-name="Path 118912" d="M1359.078,493.643c.118.069.122.175.011.239l-3,1.721a.452.452,0,0,1-.41-.007l-3.332-1.948c-.115-.069-.12-.177-.011-.241l3-1.721a.457.457,0,0,1,.41.009Z" transform="translate(-1352.259 -491.641)" fill="#00223d"/>
            </g>
          </g>
          <g id="Group_55201" data-name="Group 55201" transform="translate(59.109 31.592)">
            <g id="Group_55200" data-name="Group 55200">
              <path id="Path_118913" data-name="Path 118913" d="M1361.566,495.1c.117.069.122.175.011.239l-3,1.722a.464.464,0,0,1-.41-.009l-3.336-1.952c-.118-.067-.12-.177-.011-.239l3-1.721a.457.457,0,0,1,.41.007Z" transform="translate(-1354.742 -493.093)" fill="#00223d"/>
            </g>
          </g>
          <g id="Group_55203" data-name="Group 55203" transform="translate(63.642 34.243)">
            <g id="Group_55202" data-name="Group 55202">
              <path id="Path_118914" data-name="Path 118914" d="M1364.052,496.549c.115.067.122.177.011.239l-3,1.721a.454.454,0,0,1-.414-.009l-3.33-1.947c-.117-.067-.122-.177-.013-.239l3-1.721a.454.454,0,0,1,.414.009Z" transform="translate(-1357.229 -494.548)" fill="#00223d"/>
            </g>
          </g>
          <g id="Group_55205" data-name="Group 55205" transform="translate(15.187 10.548)">
            <g id="Group_55204" data-name="Group 55204">
              <path id="Path_118915" data-name="Path 118915" d="M1337.468,483.548c.115.069.122.177.011.241l-3,1.721a.454.454,0,0,1-.414-.009l-3.332-1.948c-.115-.069-.122-.175-.011-.239l3-1.721a.466.466,0,0,1,.414.009Z" transform="translate(-1330.644 -481.548)" fill="#00223d"/>
            </g>
          </g>
          <g id="Group_55207" data-name="Group 55207" transform="translate(19.718 13.195)">
            <g id="Group_55206" data-name="Group 55206">
              <path id="Path_118916" data-name="Path 118916" d="M1339.952,485c.117.069.124.177.013.241l-3,1.721a.465.465,0,0,1-.414-.009l-3.33-1.948c-.117-.067-.124-.175-.013-.239l3-1.721a.453.453,0,0,1,.414.009Z" transform="translate(-1333.13 -483)" fill="#00223d"/>
            </g>
          </g>
          <g id="Group_55209" data-name="Group 55209" transform="translate(24.248 15.845)">
            <g id="Group_55208" data-name="Group 55208">
              <path id="Path_118917" data-name="Path 118917" d="M1342.438,486.455c.117.067.122.177.011.239l-3,1.721a.454.454,0,0,1-.414-.009l-3.33-1.947c-.117-.067-.122-.175-.013-.239l3-1.721a.453.453,0,0,1,.413.009Z" transform="translate(-1335.616 -484.454)" fill="#00223d"/>
            </g>
          </g>
          <g id="Group_55211" data-name="Group 55211" transform="translate(28.778 18.493)">
            <g id="Group_55210" data-name="Group 55210">
              <path id="Path_118918" data-name="Path 118918" d="M1344.923,487.908c.117.067.122.177.013.239l-3,1.721a.454.454,0,0,1-.414-.009l-3.328-1.947c-.118-.067-.124-.177-.013-.239l3-1.722a.459.459,0,0,1,.413.011Z" transform="translate(-1338.101 -485.907)" fill="#00223d"/>
            </g>
          </g>
          <g id="Group_55213" data-name="Group 55213" transform="translate(33.309 21.143)">
            <g id="Group_55212" data-name="Group 55212">
              <path id="Path_118919" data-name="Path 118919" d="M1347.409,489.362c.117.067.122.177.013.239l-3,1.722a.466.466,0,0,1-.414-.009l-3.33-1.948c-.116-.067-.122-.175-.011-.239l3-1.721a.454.454,0,0,1,.414.009Z" transform="translate(-1340.587 -487.361)" fill="#00223d"/>
            </g>
          </g>
          <g id="Group_55215" data-name="Group 55215" transform="translate(37.84 23.792)">
            <g id="Group_55214" data-name="Group 55214">
              <path id="Path_118920" data-name="Path 118920" d="M1349.9,490.815c.117.069.122.177.013.241l-3,1.721a.449.449,0,0,1-.414-.011l-3.33-1.947c-.117-.067-.122-.175-.013-.239l3-1.721a.454.454,0,0,1,.414.009Z" transform="translate(-1343.073 -488.814)" fill="#00223d"/>
            </g>
          </g>
          <g id="Group_55217" data-name="Group 55217" transform="translate(42.37 26.442)">
            <g id="Group_55216" data-name="Group 55216">
              <path id="Path_118921" data-name="Path 118921" d="M1352.38,492.269c.117.069.124.177.013.241l-3,1.721a.46.46,0,0,1-.414-.011l-3.328-1.947c-.119-.067-.124-.175-.013-.239l3-1.721a.454.454,0,0,1,.414.009Z" transform="translate(-1345.558 -490.268)" fill="#00223d"/>
            </g>
          </g>
          <g id="Group_55219" data-name="Group 55219" transform="translate(46.898 29.09)">
            <g id="Group_55218" data-name="Group 55218">
              <path id="Path_118922" data-name="Path 118922" d="M1354.864,493.722c.117.067.124.177.013.239l-3,1.721a.454.454,0,0,1-.414-.009l-3.33-1.947c-.117-.067-.124-.177-.011-.239l3-1.721a.453.453,0,0,1,.413.009Z" transform="translate(-1348.043 -491.721)" fill="#00223d"/>
            </g>
          </g>
          <g id="Group_55221" data-name="Group 55221" transform="translate(51.431 31.74)">
            <g id="Group_55220" data-name="Group 55220">
              <path id="Path_118923" data-name="Path 118923" d="M1357.351,495.176c.119.067.124.175.013.239l-3,1.721a.454.454,0,0,1-.414-.009l-3.33-1.947c-.117-.067-.124-.177-.013-.239l3-1.723a.47.47,0,0,1,.416.009Z" transform="translate(-1350.529 -493.175)" fill="#00223d"/>
            </g>
          </g>
          <g id="Group_55223" data-name="Group 55223" transform="translate(55.964 34.391)">
            <g id="Group_55222" data-name="Group 55222">
              <path id="Path_118924" data-name="Path 118924" d="M1359.838,496.63c.116.068.12.175.009.239l-3,1.721a.457.457,0,0,1-.41-.009l-3.332-1.948c-.117-.067-.121-.175-.011-.237l3-1.721a.452.452,0,0,1,.41.007Z" transform="translate(-1353.016 -494.629)" fill="#00223d"/>
            </g>
          </g>
          <g id="Group_55225" data-name="Group 55225" transform="translate(4.257 8.76)">
            <g id="Group_55224" data-name="Group 55224">
              <path id="Path_118925" data-name="Path 118925" d="M1333.167,483.558c.117.069.124.177.013.241l-3,1.721a.465.465,0,0,1-.414-.009l-5.027-2.94c-.117-.069-.12-.177-.013-.241l3-1.717a.453.453,0,0,1,.413.009Z" transform="translate(-1324.648 -480.567)" fill="#00223d"/>
            </g>
          </g>
          <g id="Group_55227" data-name="Group 55227" transform="translate(10.516 12.415)">
            <g id="Group_55226" data-name="Group 55226">
              <path id="Path_118926" data-name="Path 118926" d="M1334.9,484.577c.119.069.124.177.013.241l-3,1.721a.465.465,0,0,1-.414-.009l-3.33-1.952c-.117-.067-.122-.177-.013-.239l3-1.721a.458.458,0,0,1,.416.009Z" transform="translate(-1328.082 -482.572)" fill="#00223d"/>
            </g>
          </g>
          <g id="Group_55229" data-name="Group 55229" transform="translate(15.044 15.067)">
            <g id="Group_55228" data-name="Group 55228">
              <path id="Path_118927" data-name="Path 118927" d="M1337.388,486.028c.117.069.122.177.011.241l-3,1.721a.46.46,0,0,1-.414-.011l-3.33-1.947c-.117-.068-.12-.177-.013-.239l3-1.721a.454.454,0,0,1,.414.009Z" transform="translate(-1330.566 -484.027)" fill="#00223d"/>
            </g>
          </g>
          <g id="Group_55231" data-name="Group 55231" transform="translate(19.577 17.711)">
            <g id="Group_55230" data-name="Group 55230">
              <path id="Path_118928" data-name="Path 118928" d="M1339.875,487.485c.118.069.122.175.011.237l-3,1.722a.465.465,0,0,1-.413-.009l-3.33-1.948c-.117-.067-.12-.177-.011-.239l3-1.724a.45.45,0,0,1,.412.009Z" transform="translate(-1333.053 -485.478)" fill="#00223d"/>
            </g>
          </g>
          <g id="Group_55233" data-name="Group 55233" transform="translate(24.111 20.366)">
            <g id="Group_55232" data-name="Group 55232">
              <path id="Path_118929" data-name="Path 118929" d="M1342.36,488.935c.119.069.122.177.011.239l-3,1.721a.452.452,0,0,1-.41-.007l-3.332-1.948c-.116-.067-.118-.175-.011-.239l3-1.721a.452.452,0,0,1,.41.009Z" transform="translate(-1335.541 -486.934)" fill="#00223d"/>
            </g>
          </g>
          <g id="Group_55235" data-name="Group 55235" transform="translate(28.637 23.015)">
            <g id="Group_55234" data-name="Group 55234">
              <path id="Path_118930" data-name="Path 118930" d="M1344.848,490.39c.117.067.122.175.013.239l-3,1.721a.459.459,0,0,1-.413-.009l-3.327-1.947c-.12-.068-.122-.179-.015-.239l3-1.721a.446.446,0,0,1,.41.007Z" transform="translate(-1338.024 -488.388)" fill="#00223d"/>
            </g>
          </g>
          <g id="Group_55237" data-name="Group 55237" transform="translate(33.17 25.661)">
            <g id="Group_55236" data-name="Group 55236">
              <path id="Path_118931" data-name="Path 118931" d="M1347.332,491.843c.118.067.124.177.013.239l-3,1.719a.465.465,0,0,1-.414-.009l-3.33-1.948c-.117-.067-.122-.177-.013-.239l3-1.721a.465.465,0,0,1,.414.009Z" transform="translate(-1340.511 -489.84)" fill="#00223d"/>
            </g>
          </g>
          <g id="Group_55239" data-name="Group 55239" transform="translate(37.702 28.312)">
            <g id="Group_55238" data-name="Group 55238">
              <path id="Path_118932" data-name="Path 118932" d="M1349.817,493.3c.119.069.124.177.013.241l-3,1.721a.459.459,0,0,1-.414-.011l-3.33-1.945c-.117-.069-.12-.179-.011-.241l3-1.721a.453.453,0,0,1,.413.009Z" transform="translate(-1342.998 -491.294)" fill="#00223d"/>
            </g>
          </g>
          <g id="Group_55241" data-name="Group 55241" transform="translate(42.228 30.962)">
            <g id="Group_55240" data-name="Group 55240">
              <path id="Path_118933" data-name="Path 118933" d="M1352.306,494.749c.117.067.122.177.013.239l-3,1.721a.453.453,0,0,1-.413-.009l-3.329-1.947c-.119-.067-.122-.179-.013-.239l3-1.722a.459.459,0,0,1,.414.011Z" transform="translate(-1345.481 -492.748)" fill="#00223d"/>
            </g>
          </g>
          <g id="Group_55243" data-name="Group 55243" transform="translate(46.763 33.611)">
            <g id="Group_55242" data-name="Group 55242">
              <path id="Path_118934" data-name="Path 118934" d="M1354.788,496.2c.119.067.124.177.013.239l-3,1.722a.459.459,0,0,1-.414-.011l-3.33-1.947c-.117-.067-.12-.177-.013-.239l3-1.721a.454.454,0,0,1,.414.009Z" transform="translate(-1347.968 -494.201)" fill="#00223d"/>
            </g>
          </g>
          <g id="Group_55245" data-name="Group 55245" transform="translate(51.292 36.259)">
            <g id="Group_55244" data-name="Group 55244">
              <path id="Path_118935" data-name="Path 118935" d="M1357.273,497.655c.119.069.124.177.015.241l-3,1.721a.466.466,0,0,1-.414-.009l-3.33-1.947c-.117-.069-.12-.179-.013-.241l3-1.721a.448.448,0,0,1,.413.011Z" transform="translate(-1350.453 -495.654)" fill="#00223d"/>
            </g>
          </g>
          <g id="Group_55247" data-name="Group 55247" transform="translate(71.325 34.099)">
            <g id="Group_55246" data-name="Group 55246">
              <path id="Path_118936" data-name="Path 118936" d="M1372.447,498.915c.117.069.122.177.013.241l-3,1.721a.46.46,0,0,1-.414-.011l-3.7-2.164-.424-.248-3.387-1.979c-.117-.067-.122-.177-.011-.239l3-1.722a.459.459,0,0,1,.414.011l3.385,1.979.425.246Z" transform="translate(-1361.444 -494.469)" fill="#00223d"/>
            </g>
          </g>
          <g id="Group_55249" data-name="Group 55249" transform="translate(68.199 36.911)">
            <g id="Group_55248" data-name="Group 55248">
              <path id="Path_118937" data-name="Path 118937" d="M1369.856,499.942c.117.069.124.177.013.241l-3,1.721a.454.454,0,0,1-.408-.011L1363.21,500l-.426-.25-2.962-1.733c-.117-.069-.124-.177-.015-.239l3-1.721a.457.457,0,0,1,.41.009l2.966,1.733.427.25Z" transform="translate(-1359.729 -496.012)" fill="#00223d"/>
            </g>
          </g>
          <g id="Group_55251" data-name="Group 55251" transform="translate(60.958 37.311)">
            <g id="Group_55250" data-name="Group 55250">
              <path id="Path_118938" data-name="Path 118938" d="M1369.121,502.058c.117.069.124.177.013.241l-3,1.721a.466.466,0,0,1-.414-.009l-6.119-3.578-.426-.25-1.451-.849-.426-.25-1.451-.848c-.117-.067-.124-.177-.013-.239l3-1.721a.453.453,0,0,1,.414.009l1.453.849.425.248,1.453.849.427.25Z" transform="translate(-1355.757 -496.231)" fill="#00223d"/>
            </g>
          </g>
          <g id="Group_55253" data-name="Group 55253" transform="translate(55.824 38.911)">
            <g id="Group_55252" data-name="Group 55252">
              <path id="Path_118939" data-name="Path 118939" d="M1359.764,499.112c.118.067.124.175.013.239l-3,1.721a.465.465,0,0,1-.414-.009l-3.33-1.947c-.117-.069-.122-.179-.013-.241l3-1.721a.454.454,0,0,1,.414.009Z" transform="translate(-1352.94 -497.109)" fill="#00223d"/>
            </g>
          </g>
          <g id="Group_55255" data-name="Group 55255" transform="translate(60.324 41.541)">
            <g id="Group_55254" data-name="Group 55254">
              <path id="Path_118940" data-name="Path 118940" d="M1365.436,502.429c.117.068.122.175.011.239l-3,1.721a.455.455,0,0,1-.414-.009l-4-2.339-.423-.248-.844-.494-.427-.248-.842-.494c-.118-.069-.12-.177-.015-.239l3-1.723a.46.46,0,0,1,.414.011l.844.492.425.25.844.494.425.248Z" transform="translate(-1355.409 -498.552)" fill="#00223d"/>
            </g>
          </g>
          <path id="Path_118941" data-name="Path 118941" d="M1329.017,483.824c.117.069.12.175.009.239l-3,1.721a.454.454,0,0,1-.408-.009l-3.215-1.879c-.119-.067-.122-.177-.013-.239l3-1.721a.46.46,0,0,1,.414.007Z" transform="translate(-1322.313 -470.719)" fill="#00223d"/>
          <path id="Path_118942" data-name="Path 118942" d="M1331.591,485.328c.119.069.124.177.013.241l-3,1.721a.454.454,0,0,1-.414-.009l-3.33-1.945c-.117-.067-.122-.175-.011-.239l3-1.721a.454.454,0,0,1,.414.009Z" transform="translate(-1320.29 -469.534)" fill="#00223d"/>
          <path id="Path_118943" data-name="Path 118943" d="M1334.081,486.783c.117.069.122.177.013.241l-3,1.721a.46.46,0,0,1-.414-.011l-3.328-1.947c-.119-.069-.124-.177-.015-.239l3-1.723a.46.46,0,0,1,.414.011Z" transform="translate(-1318.246 -468.339)" fill="#00223d"/>
          <path id="Path_118944" data-name="Path 118944" d="M1336.563,488.235c.12.067.124.177.014.239l-3,1.721a.459.459,0,0,1-.414-.007l-3.328-1.948c-.118-.067-.124-.175-.013-.239l3-1.719a.46.46,0,0,1,.414.011Z" transform="translate(-1316.2 -467.142)" fill="#00223d"/>
          <path id="Path_118945" data-name="Path 118945" d="M1362.541,503.425c.127.075.142.188.031.252l-2.995,1.721a.471.471,0,0,1-.432-.02l-26.89-15.721c-.129-.077-.144-.188-.035-.253l3-1.721a.48.48,0,0,1,.434.022Z" transform="translate(-1314.222 -465.987)" fill="#00223d"/>
          <path id="Path_118946" data-name="Path 118946" d="M1354.221,498.563c.119.067.124.175.013.239l-3,1.721a.454.454,0,0,1-.414-.009l-3.33-1.947c-.117-.069-.122-.177-.013-.241l3-1.721a.46.46,0,0,1,.414.009Z" transform="translate(-1301.673 -458.649)" fill="#00223d"/>
          <g id="Group_55257" data-name="Group 55257" transform="translate(50.258 40.559)">
            <g id="Group_55256" data-name="Group 55256">
              <path id="Path_118947" data-name="Path 118947" d="M1356.708,500.014c.117.069.122.177.013.241l-3,1.721a.466.466,0,0,1-.414-.009l-3.33-1.948c-.117-.067-.122-.175-.013-.239l3-1.721a.454.454,0,0,1,.414.009Z" transform="translate(-1349.886 -498.013)" fill="#00223d"/>
            </g>
          </g>
          <g id="Group_55259" data-name="Group 55259" transform="translate(56.613 43.209)">
            <g id="Group_55258" data-name="Group 55258">
              <path id="Path_118948" data-name="Path 118948" d="M1358.369,501.466c.119.069.124.177.013.241l-1.176.674a.454.454,0,0,1-.414-.009l-3.33-1.947c-.115-.069-.122-.177-.011-.241l1.176-.674a.46.46,0,0,1,.414.011Z" transform="translate(-1353.372 -499.467)" fill="#00223d"/>
            </g>
          </g>
          <g id="Group_55261" data-name="Group 55261" transform="translate(54.788 44.257)">
            <g id="Group_55260" data-name="Group 55260">
              <path id="Path_118949" data-name="Path 118949" d="M1357.37,502.042c.117.069.12.179.013.241l-1.176.674a.454.454,0,0,1-.414-.011l-3.33-1.947c-.117-.067-.124-.175-.013-.239l1.176-.674a.465.465,0,0,1,.413.009Z" transform="translate(-1352.372 -500.042)" fill="#00223d"/>
            </g>
          </g>
          <path id="Path_118950" data-name="Path 118950" d="M1361.683,502.922c.118.069.122.175.011.239l-3,1.721a.452.452,0,0,1-.41-.007l-3.335-1.947c-.119-.067-.122-.173-.011-.239l3-1.721a.451.451,0,0,1,.41.009Z" transform="translate(-1295.537 -455.06)" fill="#00223d"/>
        </g>
        <line id="Lnea_1638" data-name="Lnea 1638" x1="136.025" y2="38.828" transform="translate(137.979 48.486)" fill="none" stroke="#00223d" stroke-miterlimit="10" stroke-width="1"/>
        <line id="Lnea_1639" data-name="Lnea 1639" x2="49.815" y2="92.956" transform="translate(327.615 66.381)" fill="none" stroke="#00223d" stroke-miterlimit="10" stroke-width="1"/>
        <line id="Lnea_1640" data-name="Lnea 1640" x1="45.74" y2="70.519" transform="translate(252.793 70.444)" fill="none" stroke="#00223d" stroke-miterlimit="10" stroke-width="1"/>
        <g id="Grupo_55769" data-name="Grupo 55769" transform="translate(267.752 0)">
          <g id="Grupo_55768" data-name="Grupo 55768">
            <g id="Group_34510" data-name="Group 34510" transform="translate(0 23.402)">
              <g id="Group_34509" data-name="Group 34509">
                <g id="Group_34507" data-name="Group 34507" transform="translate(0 21.456)">
                  <path id="Path_85365" data-name="Path 85365" d="M1442.753,393.046l-.029,4.256c-.016,5.483-3.618,10.956-10.818,15.139-14.49,8.421-38.058,8.421-52.643,0-7.338-4.236-11-9.8-10.987-15.353l.029-4.254c-.016,5.552,3.651,11.115,10.989,15.351,14.583,8.421,38.152,8.421,52.643,0C1439.133,404,1442.737,398.529,1442.753,393.046Z" transform="translate(-1368.276 -392.835)" fill="#cdd1f6"/>
                  <g id="Grupo_55765" data-name="Grupo 55765">
                    <g id="Grupo_55764" data-name="Grupo 55764" clip-path="url(#clip-path)">
                      <g id="Group_34506" data-name="Group 34506">
                        <g id="Group_34505" data-name="Group 34505">
                          <path id="Path_85366" data-name="Path 85366" d="M1410.911,392.95l-.029,4.254a14.7,14.7,0,0,1-3.9,9.578l.031-4.254a14.7,14.7,0,0,0,3.9-9.578Z" transform="translate(-1336.434 -392.74)" fill="#cdd1f6"/>
                          <path id="Path_85367" data-name="Path 85367" d="M1411.833,398.207l-.031,4.254a26.818,26.818,0,0,1-6.913,5.561,38.506,38.506,0,0,1-3.769,1.916l.029-4.254a38.3,38.3,0,0,0,3.769-1.916A26.9,26.9,0,0,0,1411.833,398.207Z" transform="translate(-1341.256 -388.415)" fill="#cdd1f6"/>
                          <path id="Path_85368" data-name="Path 85368" d="M1414.273,402.308l-.029,4.256c-8.452,3.744-19.053,5.1-29.08,4.065l.031-4.256c10.025,1.034,20.627-.321,29.077-4.065Z" transform="translate(-1354.382 -385.042)" fill="#cdd1f6"/>
                          <path id="Path_85369" data-name="Path 85369" d="M1392.119,406.243l-.031,4.256a54.271,54.271,0,0,1-15.339-3.778l.031-4.254A54.189,54.189,0,0,0,1392.119,406.243Z" transform="translate(-1361.306 -384.912)" fill="#cdd1f6"/>
                          <path id="Path_85370" data-name="Path 85370" d="M1383.749,410.389l-.031,4.254a39.792,39.792,0,0,1-4.455-2.2c-7.338-4.236-11-9.8-10.987-15.353l.029-4.254c-.016,5.552,3.651,11.115,10.989,15.351A39.768,39.768,0,0,0,1383.749,410.389Z" transform="translate(-1368.276 -392.835)" fill="#cdd1f6"/>
                        </g>
                      </g>
                    </g>
                  </g>
                </g>
                <g id="Group_34508" data-name="Group 34508" transform="translate(0.027)">
                  <path id="Path_85372" data-name="Path 85372" d="M1431.75,387.378c14.585,8.421,14.662,22.073.173,30.492s-38.059,8.421-52.643,0-14.662-22.073-.173-30.492S1417.167,378.957,1431.75,387.378Z" transform="translate(-1368.291 -381.063)" fill="#e8ecf2"/>
                </g>
              </g>
            </g>
            <g id="Group_34512" data-name="Group 34512" transform="translate(0.709 7.609)">
              <g id="Group_34511" data-name="Group 34511">
                <path id="Path_85373" data-name="Path 85373" d="M1430.939,386.125c14.31,8.262,14.385,21.659.167,29.921s-37.345,8.264-51.657,0-14.386-21.659-.168-29.921S1416.627,377.863,1430.939,386.125Z" transform="translate(-1368.665 -366.204)" fill="#00223d"/>
                <path id="Path_85374" data-name="Path 85374" d="M1430.939,385.655c14.31,8.262,14.385,21.659.167,29.921s-37.345,8.262-51.657,0-14.388-21.659-.169-29.923S1416.627,377.391,1430.939,385.655Z" transform="translate(-1368.665 -366.592)" fill="#00223d"/>
                <path id="Path_85375" data-name="Path 85375" d="M1430.939,385.184c14.31,8.262,14.385,21.657.167,29.92s-37.345,8.264-51.657,0-14.388-21.659-.169-29.921S1416.627,376.922,1430.939,385.184Z" transform="translate(-1368.665 -366.979)" fill="#00223d"/>
                <path id="Path_85376" data-name="Path 85376" d="M1430.939,384.713c14.31,8.262,14.385,21.659.167,29.921s-37.345,8.262-51.657,0-14.388-21.659-.169-29.921S1416.627,376.451,1430.939,384.713Z" transform="translate(-1368.665 -367.366)" fill="#00223d"/>
                <path id="Path_85377" data-name="Path 85377" d="M1430.939,384.243c14.31,8.262,14.385,21.659.167,29.919s-37.345,8.262-51.657,0-14.388-21.657-.169-29.919S1416.627,375.981,1430.939,384.243Z" transform="translate(-1368.665 -367.753)" fill="#00223d"/>
                <path id="Path_85378" data-name="Path 85378" d="M1430.939,383.772c14.31,8.262,14.385,21.659.167,29.921s-37.345,8.262-51.657,0-14.388-21.659-.169-29.921S1416.627,375.51,1430.939,383.772Z" transform="translate(-1368.665 -368.14)" fill="#00223d"/>
                <path id="Path_85379" data-name="Path 85379" d="M1430.939,383.3c14.31,8.262,14.385,21.659.167,29.923s-37.345,8.262-51.657,0-14.388-21.659-.169-29.921S1416.627,375.038,1430.939,383.3Z" transform="translate(-1368.665 -368.527)" fill="#00223d"/>
                <path id="Path_85380" data-name="Path 85380" d="M1430.939,382.831c14.31,8.262,14.385,21.659.167,29.921s-37.345,8.262-51.657,0-14.388-21.661-.169-29.923S1416.627,374.569,1430.939,382.831Z" transform="translate(-1368.665 -368.915)" fill="#00223d"/>
                <path id="Path_85381" data-name="Path 85381" d="M1430.939,382.36c14.31,8.262,14.385,21.659.167,29.921s-37.345,8.264-51.657,0-14.388-21.659-.169-29.921S1416.627,374.1,1430.939,382.36Z" transform="translate(-1368.665 -369.302)" fill="#00223d"/>
                <path id="Path_85382" data-name="Path 85382" d="M1430.939,381.89c14.31,8.262,14.385,21.657.167,29.919s-37.345,8.264-51.657,0-14.388-21.659-.169-29.919S1416.627,373.626,1430.939,381.89Z" transform="translate(-1368.665 -369.689)" fill="#00223d"/>
                <path id="Path_85383" data-name="Path 85383" d="M1430.939,381.419c14.31,8.262,14.385,21.659.167,29.921s-37.345,8.262-51.657,0-14.388-21.659-.169-29.921S1416.627,373.157,1430.939,381.419Z" transform="translate(-1368.665 -370.076)" fill="#00223d"/>
                <path id="Path_85384" data-name="Path 85384" d="M1430.939,380.948c14.31,8.264,14.385,21.659.167,29.923s-37.345,8.262-51.657,0-14.388-21.659-.169-29.921S1416.627,372.685,1430.939,380.948Z" transform="translate(-1368.665 -370.463)" fill="#00223d"/>
                <path id="Path_85385" data-name="Path 85385" d="M1430.939,380.479c14.31,8.262,14.385,21.659.167,29.921s-37.345,8.262-51.657,0-14.388-21.659-.169-29.921S1416.627,372.214,1430.939,380.479Z" transform="translate(-1368.665 -370.851)" fill="#00223d"/>
                <path id="Path_85386" data-name="Path 85386" d="M1430.939,380.007c14.31,8.262,14.385,21.659.167,29.923s-37.345,8.262-51.657,0-14.388-21.659-.169-29.923S1416.627,371.745,1430.939,380.007Z" transform="translate(-1368.665 -371.238)" fill="#00223d"/>
                <path id="Path_85387" data-name="Path 85387" d="M1430.939,379.538c14.31,8.262,14.385,21.657.167,29.921-6.939,4.032-16,6.1-25.321,6.2-9.37.1-19.007-1.965-26.336-6.2-14.312-8.264-14.388-21.659-.168-29.921S1416.627,371.273,1430.939,379.538Z" transform="translate(-1368.665 -371.625)" fill="#00223d"/>
                <path id="Path_85388" data-name="Path 85388" d="M1430.939,379.065c14.31,8.262,14.385,21.659.167,29.921s-37.345,8.264-51.657,0-14.386-21.663-.168-29.921S1416.627,370.8,1430.939,379.065Z" transform="translate(-1368.665 -372.011)" fill="#00223d"/>
                <path id="Path_85389" data-name="Path 85389" d="M1430.939,378.595c14.31,8.264,14.385,21.659.167,29.923s-37.345,8.262-51.657,0-14.388-21.659-.169-29.921S1416.627,370.332,1430.939,378.595Z" transform="translate(-1368.665 -372.399)" fill="#00223d"/>
              </g>
            </g>
            <g id="Group_34518" data-name="Group 34518">
              <g id="Group_34517" data-name="Group 34517">
                <g id="Group_34515" data-name="Group 34515" transform="translate(0 21.452)">
                  <path id="Path_85390" data-name="Path 85390" d="M1442.753,380.211l-.029,4.254c-.016,5.483-3.618,10.956-10.818,15.139-14.49,8.421-38.058,8.421-52.643,0-7.338-4.238-11-9.8-10.987-15.353l.029-4.258c-.016,5.554,3.651,11.117,10.989,15.353,14.583,8.421,38.152,8.421,52.643,0C1439.133,391.163,1442.737,385.694,1442.753,380.211Z" transform="translate(-1368.276 -379.994)" fill="#cdd1f6"/>
                  <g id="Grupo_55767" data-name="Grupo 55767">
                    <g id="Grupo_55766" data-name="Grupo 55766" clip-path="url(#clip-path-2)">
                      <g id="Group_34514" data-name="Group 34514">
                        <g id="Group_34513" data-name="Group 34513">
                          <path id="Path_85391" data-name="Path 85391" d="M1410.911,380.113l-.029,4.254a14.7,14.7,0,0,1-3.9,9.578l.031-4.256a14.7,14.7,0,0,0,3.9-9.576Z" transform="translate(-1336.434 -379.896)" fill="#cdd1f6"/>
                          <path id="Path_85392" data-name="Path 85392" d="M1411.833,385.367l-.031,4.256a26.863,26.863,0,0,1-6.913,5.563,39.32,39.32,0,0,1-3.769,1.916l.029-4.256a39.365,39.365,0,0,0,3.769-1.916,26.908,26.908,0,0,0,6.915-5.563Z" transform="translate(-1341.256 -375.574)" fill="#cdd1f6"/>
                          <path id="Path_85393" data-name="Path 85393" d="M1414.273,389.47l-.029,4.256c-8.452,3.742-19.053,5.1-29.08,4.063l.031-4.254c10.025,1.033,20.627-.323,29.077-4.065Z" transform="translate(-1354.382 -372.198)" fill="#cdd1f6"/>
                          <path id="Path_85394" data-name="Path 85394" d="M1392.119,393.405l-.031,4.254a54.147,54.147,0,0,1-15.339-3.778l.031-4.254A54.192,54.192,0,0,0,1392.119,393.405Z" transform="translate(-1361.306 -372.069)" fill="#cdd1f6"/>
                          <path id="Path_85395" data-name="Path 85395" d="M1383.749,397.552l-.031,4.254a39.49,39.49,0,0,1-4.455-2.2c-7.338-4.238-11-9.8-10.987-15.353l.029-4.258c-.016,5.554,3.651,11.117,10.989,15.353a39.636,39.636,0,0,0,4.455,2.2Z" transform="translate(-1368.276 -379.994)" fill="#cdd1f6"/>
                        </g>
                      </g>
                    </g>
                  </g>
                </g>
                <g id="Group_34516" data-name="Group 34516" transform="translate(0.027)">
                  <path id="Path_85397" data-name="Path 85397" d="M1431.75,374.539c14.585,8.421,14.662,22.073.173,30.494s-38.059,8.421-52.643,0-14.662-22.073-.173-30.494S1417.167,366.12,1431.75,374.539Z" transform="translate(-1368.291 -368.224)" fill="#e8ecf2"/>
                </g>
              </g>
            </g>
          </g>
          <path id="Trazado_118908" data-name="Trazado 118908" d="M1373.833,373.164l16.162,9.846L1383.772,387h16.255l1.115-10.589-7.059,4.83-16.905-10.032Z" transform="translate(-1363.704 -365.765)" fill="#00223d"/>
          <path id="Trazado_118909" data-name="Trazado 118909" d="M1382.46,388.779l-7.152-4.737L1374.75,395H1392.4l-6.316-4.18,13.84-8.638-3.251-1.951Z" transform="translate(-1362.95 -358.344)" fill="#00223d"/>
          <path id="Trazado_118910" data-name="Trazado 118910" d="M1390.347,381.163l-1.022,9.01,6.781-4.5,16.441,9.892,2.786-2.136-15.512-9.474,5.48-3.715Z" transform="translate(-1350.959 -358.344)" fill="#00223d"/>
          <path id="Trazado_118911" data-name="Trazado 118911" d="M1389.325,384.695c.558-.465,14.119-8.638,14.119-8.638l-7.059-4.181H1414.5v10.5l-8.08-4.644-14.583,9.381Z" transform="translate(-1350.959 -365.22)" fill="#00223d"/>
        </g>
        <g id="Group_34948" data-name="Group 34948" transform="translate(0 118.55)">
          <g id="Group_34930" data-name="Group 34930" transform="translate(3.393 61.419)" opacity="0.8">
            <path id="Path_86148" data-name="Path 86148" d="M1284.356,524.745a5.9,5.9,0,0,1-2.934-.784h0l-57.3-33.08a1.778,1.778,0,0,1,0-3.075l36.1-20.844.22.128,60.011,34.646a1.778,1.778,0,0,1,.649,2.428,1.8,1.8,0,0,1-.649.649l-33.171,19.147A5.885,5.885,0,0,1,1284.356,524.745Zm-2.492-1.551a5.089,5.089,0,0,0,4.985,0l33.164-19.149a.891.891,0,0,0,0-1.544l-59.786-34.516-.058.031-35.6,20.555a.89.89,0,0,0,0,1.544Z" transform="translate(-1223.239 -466.962)" fill="#00223d"/>
          </g>
          <g id="Group_34943" data-name="Group 34943">
            <g id="Group_34942" data-name="Group 34942">
              <g id="Group_34941" data-name="Group 34941">
                <g id="Group_34935" data-name="Group 34935">
                  <g id="Group_34932" data-name="Group 34932" transform="translate(39.303)">
                    <path id="Path_86149" data-name="Path 86149" d="M1243.492,481.526l7.982-47.359-.647-.27.966-.554v.005a.693.693,0,0,1,.742.053l63.8,36.829a1.8,1.8,0,0,1,.827,1.615l-8.045,47.733a.6.6,0,0,1-.337.487h0l-.944.545-.162-.882.055.016-63.408-36.609A1.8,1.8,0,0,1,1243.492,481.526Z" transform="translate(-1242.489 -433.265)" fill="url(#linear-gradient)"/>
                    <path id="Path_86150" data-name="Path 86150" d="M1288.431,454.468l1.048-.465a1.439,1.439,0,0,1,.135.789l-8.045,47.733a.6.6,0,0,1-.335.487h0l-.944.545-.162-.88.053.015-3.208-1.852Z" transform="translate(-1214.943 -416.205)" fill="#dee4f0"/>
                    <path id="Path_86151" data-name="Path 86151" d="M1243.776,483.461l63.787,36.831c.492.286.913.12,1-.39l8.046-47.731a1.8,1.8,0,0,0-.83-1.617l-63.791-36.837c-.492-.284-.913-.12-1,.39l-8.046,47.733A1.8,1.8,0,0,0,1243.776,483.461Z" transform="translate(-1242.94 -433.007)" fill="#00223d"/>
                    <g id="Group_34931" data-name="Group 34931" transform="translate(2.301 3.756)" opacity="0.51">
                      <path id="Path_86152" data-name="Path 86152" d="M1251.787,435.326l61.492,35.5-7.624,44.955L1244.2,480.306Z" transform="translate(-1244.203 -435.326)" fill="#00223d"/>
                    </g>
                  </g>
                  <g id="Group_34934" data-name="Group 34934" transform="translate(0 50.29)">
                    <path id="Path_86153" data-name="Path 86153" d="M1221.4,481.725l3.482,1.817,34.91-20.155a2.538,2.538,0,0,1,2.28.093l60.209,34.762c.576-.323,3.2-1.586,3.2-1.586l-1.279,3.321h0a.762.762,0,0,1-.355.4L1287.078,521.6a2.529,2.529,0,0,1-2.278-.095l-61.612-35.572a1.106,1.106,0,0,1-.518-.549h0Z" transform="translate(-1221.361 -458.961)" fill="#00223d"/>
                    <path id="Path_86154" data-name="Path 86154" d="M1221.947,484.191l63.142,36.458a2.6,2.6,0,0,0,2.335.1l37.682-21.756c.6-.345.523-.95-.168-1.347l-63.14-36.458a2.592,2.592,0,0,0-2.335-.1l-37.682,21.756C1221.182,483.189,1221.258,483.792,1221.947,484.191Z" transform="translate(-1221.377 -460.857)" fill="url(#linear-gradient-2)"/>
                    <path id="Path_86155" data-name="Path 86155" d="M1221.946,473.719l63.142,36.458a2.592,2.592,0,0,0,2.335.1l37.682-21.756a.773.773,0,0,0,.365-.406.635.635,0,0,1-.365.771l-37.682,21.756a2.6,2.6,0,0,1-2.335-.1l-63.142-36.458c-.465-.268-.645-.627-.538-.94A1.113,1.113,0,0,0,1221.946,473.719Z" transform="translate(-1221.376 -450.749)" fill="#fff"/>
                    <path id="Path_86156" data-name="Path 86156" d="M1267.968,489.68v-.689c0-.066-.04-.1-.089-.067l-2.442,1.411a.213.213,0,0,0-.089.17v.693c0,.066.04.1.089.067l2.442-1.409A.228.228,0,0,0,1267.968,489.68Z" transform="translate(-1185.203 -437.775)" fill="#21587b"/>
                    <path id="Path_86157" data-name="Path 86157" d="M1265.964,490.839v-.693c0-.066-.04-.095-.087-.067l-2.443,1.411a.211.211,0,0,0-.091.17v.693c0,.066.04.1.091.067l2.443-1.411A.221.221,0,0,0,1265.964,490.839Z" transform="translate(-1186.852 -436.824)" fill="#21587b"/>
                    <path id="Path_86158" data-name="Path 86158" d="M1305.62,494.4l-52.474-30.295a1.128,1.128,0,0,0-1.13,0l-18.686,10.814a.4.4,0,0,0-.15.549.419.419,0,0,0,.15.149l52.448,30.277a1.125,1.125,0,0,0,1.128,0l18.712-10.8a.4.4,0,0,0,.146-.55A.411.411,0,0,0,1305.62,494.4Z" transform="translate(-1211.71 -458.307)" fill="#d2e1f1"/>
                    <path id="Path_86159" data-name="Path 86159" d="M1305.619,495.1l-.186.107-52.287-30.187a1.129,1.129,0,0,0-1.13,0l-18.5,10.7-.186-.107a.4.4,0,0,1-.15-.549.419.419,0,0,1,.15-.149l18.684-10.81a1.128,1.128,0,0,1,1.13,0l52.474,30.295a.4.4,0,0,1,.147.55A.41.41,0,0,1,1305.619,495.1Z" transform="translate(-1211.71 -458.306)" fill="#727997"/>
                    <g id="Group_34933" data-name="Group 34933" transform="translate(24.22 9.909)">
                      <path id="Path_86160" data-name="Path 86160" d="M1245.125,467.458l44.417,25.645,1.919-1.234-44.3-25.576Z" transform="translate(-1226.06 -466.293)" fill="#00223d"/>
                      <path id="Path_86161" data-name="Path 86161" d="M1243.543,469.694l40.325,23.283,1.382-1.544-39.684-22.909Z" transform="translate(-1227.361 -464.458)" fill="#00223d"/>
                      <path id="Path_86162" data-name="Path 86162" d="M1238.215,468.674l50.338,29.061,2.027-1.17L1240.242,467.5Z" transform="translate(-1231.745 -465.302)" fill="#00223d"/>
                      <path id="Path_86163" data-name="Path 86163" d="M1236.438,469.694l50.337,29.061,2.027-1.17-50.337-29.061Z" transform="translate(-1233.206 -464.458)" fill="#00223d"/>
                      <path id="Path_86164" data-name="Path 86164" d="M1234.665,470.717,1285,499.778l2.027-1.17-50.339-29.056Z" transform="translate(-1234.665 -463.612)" fill="#00223d"/>
                      <path id="Path_86165" data-name="Path 86165" d="M1269.235,481.38l2.027,1.17,2.027-1.17-2.027-1.17Z" transform="translate(-1206.224 -454.844)" fill="#00223d"/>
                      <path id="Path_86166" data-name="Path 86166" d="M1265.314,482.263l4.2,2.43,2.027-1.17-4.2-2.43Z" transform="translate(-1209.45 -454.117)" fill="#00223d"/>
                    </g>
                    <path id="Path_86167" data-name="Path 86167" d="M1249.578,491.52l-14.15-8.166a.609.609,0,0,1,0-1.156l9.675-5.586a2.212,2.212,0,0,1,2,0l14.148,8.169a.609.609,0,0,1,0,1.156l-9.675,5.587A2.215,2.215,0,0,1,1249.578,491.52Z" transform="translate(-1210.16 -448.092)" fill="url(#linear-gradient-3)"/>
                    <path id="Path_86168" data-name="Path 86168" d="M1261.25,485.251l-14.148-8.167a2.2,2.2,0,0,0-2,0l-9.675,5.585a.85.85,0,0,0-.348.343c-.148-.281-.037-.6.348-.815l9.675-5.586a2.212,2.212,0,0,1,2,0l14.148,8.169c.383.215.5.538.348.815A.853.853,0,0,0,1261.25,485.251Z" transform="translate(-1210.157 -448.093)" fill="#727997"/>
                  </g>
                </g>
                <g id="Group_34940" data-name="Group 34940" transform="translate(41.606 3.757)" opacity="0.11">
                  <g id="Grupo_55771" data-name="Grupo 55771">
                    <g id="Grupo_55770" data-name="Grupo 55770" clip-path="url(#clip-path-3)">
                      <g id="Group_34939" data-name="Group 34939" transform="translate(-1.819 23.452)">
                        <g id="Group_34938" data-name="Group 34938">
                          <path id="Path_86169" data-name="Path 86169" d="M1243.777,471.527l63.142,36.458a2.6,2.6,0,0,0,2.335.1l37.68-21.756c.6-.346.525-.95-.166-1.349l-63.142-36.458a2.6,2.6,0,0,0-2.335-.1l-37.681,21.756C1243.011,470.526,1243.086,471.13,1243.777,471.527Z" transform="translate(-1243.206 -448.193)" fill="url(#linear-gradient-4)"/>
                          <path id="Path_86170" data-name="Path 86170" d="M1284.84,471.42l-14.148-8.169a.61.61,0,0,1,0-1.156l9.675-5.587a2.216,2.216,0,0,1,2,0l14.148,8.169a.61.61,0,0,1,0,1.156l-9.675,5.587A2.217,2.217,0,0,1,1284.84,471.42Z" transform="translate(-1220.933 -441.548)" fill="url(#linear-gradient-5)"/>
                          <path id="Path_86171" data-name="Path 86171" d="M1296.515,465.151l-14.147-8.168a2.2,2.2,0,0,0-2,0l-9.677,5.585a.87.87,0,0,0-.348.341c-.146-.279-.035-.594.348-.813l9.677-5.587a2.212,2.212,0,0,1,2,0l14.147,8.169c.383.215.494.538.348.813A.857.857,0,0,0,1296.515,465.151Z" transform="translate(-1220.933 -441.548)" fill="#9198db"/>
                          <g id="Group_34937" data-name="Group 34937" transform="translate(9.311 12.19)">
                            <path id="Path_86172" data-name="Path 86172" d="M1320.806,485.329l-52.474-30.3a1.131,1.131,0,0,0-1.132,0l-18.684,10.812a.4.4,0,0,0,0,.7l52.45,30.279a1.133,1.133,0,0,0,1.128,0l18.71-10.8a.4.4,0,0,0,.142-.552A.4.4,0,0,0,1320.806,485.329Z" transform="translate(-1248.314 -454.881)" fill="#adb1f2"/>
                            <path id="Path_86173" data-name="Path 86173" d="M1320.806,486.027l-.188.108-52.286-30.189a1.131,1.131,0,0,0-1.132,0l-18.5,10.7-.187-.108a.4.4,0,0,1-.148-.55.411.411,0,0,1,.148-.148l18.684-10.81a1.131,1.131,0,0,1,1.132,0l52.474,30.295a.4.4,0,0,1,.158.545A.381.381,0,0,1,1320.806,486.027Z" transform="translate(-1248.314 -454.881)" fill="#9198db"/>
                            <g id="Group_34936" data-name="Group 34936" transform="translate(3.28 2.219)">
                              <path id="Path_86174" data-name="Path 86174" d="M1251.92,460.491l45.715,26.393-1.812,1.046-45.71-26.391Z" transform="translate(-1250.114 -452.484)" fill="#24126a"/>
                              <path id="Path_86175" data-name="Path 86175" d="M1254.567,458.966l43.451,25.086-1.812,1.044-43.449-25.086Z" transform="translate(-1247.94 -453.738)" fill="#24126a"/>
                              <path id="Path_86176" data-name="Path 86176" d="M1280.185,473.756l4.059,2.344-1.812,1.044-4.057-2.342Z" transform="translate(-1226.864 -441.571)" fill="#24126a"/>
                              <path id="Path_86177" data-name="Path 86177" d="M1278.22,475.673l2.827,1.631-1.812,1.044-2.827-1.631Z" transform="translate(-1228.482 -439.994)" fill="#24126a"/>
                              <path id="Path_86178" data-name="Path 86178" d="M1256.224,458.009l50.749,29.3-1.812,1.044-50.749-29.3Z" transform="translate(-1246.578 -454.526)" fill="#24126a"/>
                              <path id="Path_86179" data-name="Path 86179" d="M1257.878,457.053l50.749,29.3-1.81,1.046-50.749-29.3Z" transform="translate(-1245.216 -455.312)" fill="#24126a"/>
                              <path id="Path_86180" data-name="Path 86180" d="M1259.536,456.1l50.749,29.3-1.812,1.044-50.749-29.3Z" transform="translate(-1243.853 -456.098)" fill="#24126a"/>
                            </g>
                          </g>
                        </g>
                      </g>
                    </g>
                  </g>
                </g>
              </g>
            </g>
          </g>
          <g id="Group_34947" data-name="Group 34947" transform="translate(57.575 19.559)">
            <path id="Path_86181" data-name="Path 86181" d="M1255.916,444.858l4.976,2.874.144-.862L1256.062,444Z" transform="translate(-1250.537 -443.996)" fill="#42e8e0"/>
            <path id="Path_86182" data-name="Path 86182" d="M1259.085,446.687l2.71,1.567.146-.862-2.71-1.568Z" transform="translate(-1247.93 -442.491)" fill="#42e8e0"/>
            <path id="Path_86183" data-name="Path 86183" d="M1262.884,448.882l1.959,1.134.146-.862-1.961-1.134Z" transform="translate(-1244.805 -440.686)" fill="#42e8e0"/>
            <path id="Path_86184" data-name="Path 86184" d="M1262.1,448.429l.671.386.146-.86-.67-.388Z" transform="translate(-1245.449 -441.058)" fill="#42e8e0"/>
            <path id="Path_86185" data-name="Path 86185" d="M1261.017,447.8l1.218.7.146-.86-1.219-.7Z" transform="translate(-1246.34 -441.574)" fill="#42e8e0"/>
            <path id="Path_86186" data-name="Path 86186" d="M1258.076,448.481l1.961,1.134.146-.862-1.961-1.134Z" transform="translate(-1248.76 -441.015)" fill="#42e8e0"/>
            <path id="Path_86187" data-name="Path 86187" d="M1255.551,447.023l3.844,2.22.144-.862-3.843-2.22Z" transform="translate(-1250.837 -442.215)" fill="#42e8e0"/>
            <g id="Group_34944" data-name="Group 34944" transform="translate(8.246 16.805)">
              <path id="Path_86188" data-name="Path 86188" d="M1258.573,454.7l3.844,2.222.144-.862-3.842-2.222Z" transform="translate(-1256.597 -452.701)" fill="#42e8e0"/>
              <path id="Path_86189" data-name="Path 86189" d="M1257.489,454.078l1.218.7.146-.862-1.218-.7Z" transform="translate(-1257.489 -453.216)" fill="#42e8e0"/>
            </g>
            <path id="Path_86190" data-name="Path 86190" d="M1258.925,452.537l3.842,2.22.146-.862-3.842-2.22Z" transform="translate(-1248.062 -437.679)" fill="#42e8e0"/>
            <path id="Path_86191" data-name="Path 86191" d="M1257.84,451.908l1.218.7.146-.862-1.217-.7Z" transform="translate(-1248.954 -438.196)" fill="#42e8e0"/>
            <path id="Path_86192" data-name="Path 86192" d="M1260.35,465.562l-7.24-4.185-.146.862,7.24,4.185Z" transform="translate(-1252.965 -429.697)" fill="#42e8e0"/>
            <path id="Path_86193" data-name="Path 86193" d="M1259.291,464.949l-1.792-1.035-.144.862,1.79,1.035Z" transform="translate(-1249.353 -427.61)" fill="#42e8e0"/>
            <path id="Path_86194" data-name="Path 86194" d="M1268.731,466.83l-7.24-4.183-.146.862,7.24,4.183Z" transform="translate(-1246.071 -428.652)" fill="#42e8e0"/>
            <path id="Path_86195" data-name="Path 86195" d="M1267.67,466.218l-1.79-1.035-.146.862,1.792,1.035Z" transform="translate(-1242.46 -426.566)" fill="#42e8e0"/>
            <path id="Path_86196" data-name="Path 86196" d="M1255.251,461.429l-1.962-1.134-.144.862,1.959,1.134Z" transform="translate(-1252.816 -430.587)" fill="#42e8e0"/>
            <path id="Path_86197" data-name="Path 86197" d="M1261.8,462.833l-1.961-1.134-.146.862,1.961,1.134Z" transform="translate(-1247.428 -429.432)" fill="#42e8e0"/>
            <path id="Path_86198" data-name="Path 86198" d="M1258.631,463.378l-3.844-2.22-.146.862,3.844,2.22Z" transform="translate(-1251.586 -429.877)" fill="#42e8e0"/>
            <path id="Path_86199" data-name="Path 86199" d="M1258.528,463.321l-1.218-.7-.144.862,1.218.7Z" transform="translate(-1249.508 -428.677)" fill="#42e8e0"/>
            <path id="Path_86200" data-name="Path 86200" d="M1262.259,465.473l-3.842-2.22-.146.862,3.842,2.22Z" transform="translate(-1248.6 -428.153)" fill="#42e8e0"/>
            <path id="Path_86201" data-name="Path 86201" d="M1262.159,465.416l-1.217-.7-.146.862,1.218.7Z" transform="translate(-1246.522 -426.953)" fill="#42e8e0"/>
            <path id="Path_86202" data-name="Path 86202" d="M1261.62,463.916l-1.961-1.134-.146.862,1.962,1.134Z" transform="translate(-1247.578 -428.541)" fill="#42e8e0"/>
            <path id="Path_86203" data-name="Path 86203" d="M1264.993,465.867l-3.842-2.222-.146.862,3.844,2.222Z" transform="translate(-1246.35 -427.831)" fill="#42e8e0"/>
            <path id="Path_86204" data-name="Path 86204" d="M1264.893,465.808l-1.218-.7-.146.862,1.218.7Z" transform="translate(-1244.273 -426.631)" fill="#42e8e0"/>
            <path id="Path_86205" data-name="Path 86205" d="M1257.49,461.532l-4.012-2.32-.146.862,4.012,2.318Z" transform="translate(-1252.663 -431.478)" fill="#42e8e0"/>
            <path id="Path_86206" data-name="Path 86206" d="M1259,462.4l-2.9-1.679-.146.862,2.9,1.677Z" transform="translate(-1250.509 -430.233)" fill="#42e8e0"/>
            <path id="Path_86207" data-name="Path 86207" d="M1260.066,463.021l-1.961-1.134-.146.862,1.961,1.134Z" transform="translate(-1248.856 -429.277)" fill="#42e8e0"/>
            <path id="Path_86208" data-name="Path 86208" d="M1271.427,468.386l-4.012-2.32-.146.862,4.012,2.32Z" transform="translate(-1241.196 -425.839)" fill="#42e8e0"/>
            <path id="Path_86209" data-name="Path 86209" d="M1272.935,469.258l-2.9-1.679-.146.862,2.9,1.679Z" transform="translate(-1239.043 -424.594)" fill="#42e8e0"/>
            <path id="Path_86210" data-name="Path 86210" d="M1274,469.875l-1.961-1.134-.146.862,1.961,1.134Z" transform="translate(-1237.39 -423.638)" fill="#42e8e0"/>
            <path id="Path_86211" data-name="Path 86211" d="M1268.689,453.422l4.012,2.32.146-.862-4.014-2.32Z" transform="translate(-1240.029 -436.951)" fill="#42e8e0"/>
            <path id="Path_86212" data-name="Path 86212" d="M1266.682,452.259l2.9,1.679.144-.862-2.9-1.677Z" transform="translate(-1241.68 -437.906)" fill="#42e8e0"/>
            <path id="Path_86213" data-name="Path 86213" d="M1265.188,451.4l1.961,1.134.146-.862-1.962-1.134Z" transform="translate(-1242.909 -438.616)" fill="#42e8e0"/>
            <path id="Path_86214" data-name="Path 86214" d="M1267.96,451.807l4.014,2.32.146-.862-4.013-2.32Z" transform="translate(-1240.629 -438.279)" fill="#42e8e0"/>
            <path id="Path_86215" data-name="Path 86215" d="M1265.951,450.644l2.9,1.679.146-.862-2.9-1.677Z" transform="translate(-1242.281 -439.234)" fill="#42e8e0"/>
            <path id="Path_86216" data-name="Path 86216" d="M1264.456,449.783l1.961,1.134.146-.862-1.961-1.134Z" transform="translate(-1243.511 -439.944)" fill="#42e8e0"/>
            <path id="Path_86217" data-name="Path 86217" d="M1259.07,453.809l1.356.784.146-.862-1.356-.784Z" transform="translate(-1247.942 -436.632)" fill="#42e8e0"/>
            <path id="Path_86218" data-name="Path 86218" d="M1257.67,453l1.792,1.035.144-.862-1.79-1.035Z" transform="translate(-1249.094 -437.298)" fill="#42e8e0"/>
            <path id="Path_86219" data-name="Path 86219" d="M1257.686,460.455l-4.011-2.32-.146.862,4.012,2.32Z" transform="translate(-1252.502 -432.364)" fill="#42e8e0"/>
            <path id="Path_86220" data-name="Path 86220" d="M1259.195,461.328l-2.9-1.677-.146.862,2.9,1.677Z" transform="translate(-1250.347 -431.117)" fill="#42e8e0"/>
            <path id="Path_86221" data-name="Path 86221" d="M1260.263,461.944l-1.961-1.134-.146.862,1.961,1.134Z" transform="translate(-1248.694 -430.163)" fill="#42e8e0"/>
            <path id="Path_86222" data-name="Path 86222" d="M1255.211,457.837l-1.356-.784-.144.862,1.354.784Z" transform="translate(-1252.351 -433.254)" fill="#42e8e0"/>
            <path id="Path_86223" data-name="Path 86223" d="M1256.808,458.759l-1.79-1.035-.146.862,1.79,1.035Z" transform="translate(-1251.396 -432.702)" fill="#42e8e0"/>
            <path id="Path_86224" data-name="Path 86224" d="M1259.3,460.2l-2.885-1.668-.146.862,2.887,1.668Z" transform="translate(-1250.245 -432.037)" fill="#42e8e0"/>
            <path id="Path_86225" data-name="Path 86225" d="M1260.082,450.823l1.356.784.146-.862-1.356-.784Z" transform="translate(-1247.11 -439.089)" fill="#42e8e0"/>
            <path id="Path_86226" data-name="Path 86226" d="M1258.682,450.013l1.792,1.035.146-.862-1.792-1.035Z" transform="translate(-1248.261 -439.755)" fill="#42e8e0"/>
            <path id="Path_86227" data-name="Path 86227" d="M1256.682,448.859l2.885,1.668.146-.862L1256.828,448Z" transform="translate(-1249.907 -440.704)" fill="#42e8e0"/>
            <path id="Path_86228" data-name="Path 86228" d="M1261.214,452.58l2.885,1.67.146-.862-2.887-1.668Z" transform="translate(-1246.178 -437.642)" fill="#42e8e0"/>
            <path id="Path_86229" data-name="Path 86229" d="M1258.624,451.169l3.89,2.249.146-.862-3.89-2.249Z" transform="translate(-1248.309 -438.804)" fill="#42e8e0"/>
            <path id="Path_86230" data-name="Path 86230" d="M1257.54,450.543l1.218.7.144-.862-1.218-.7Z" transform="translate(-1249.201 -439.319)" fill="#42e8e0"/>
            <path id="Path_86231" data-name="Path 86231" d="M1256.5,449.941l1.218.7.146-.86-1.218-.705Z" transform="translate(-1250.058 -439.814)" fill="#42e8e0"/>
            <g id="Group_34946" data-name="Group 34946" transform="translate(1.693 18.923)">
              <path id="Path_86232" data-name="Path 86232" d="M1256.642,456.062l3.844,2.22.146-.862-3.844-2.22Z" transform="translate(-1251.633 -453.702)" fill="#42e8e0"/>
              <path id="Path_86233" data-name="Path 86233" d="M1255.557,455.432l1.217.7.146-.862-1.218-.7Z" transform="translate(-1252.526 -454.22)" fill="#42e8e0"/>
              <path id="Path_86234" data-name="Path 86234" d="M1256.788,457.332l1.354.784.146-.862-1.356-.784Z" transform="translate(-1251.513 -452.657)" fill="#42e8e0"/>
              <path id="Path_86235" data-name="Path 86235" d="M1259.413,456.464l1.356.782.144-.862-1.354-.782Z" transform="translate(-1249.354 -453.371)" fill="#42e8e0"/>
              <path id="Path_86236" data-name="Path 86236" d="M1260.473,457.076l3.252,1.877.146-.862-3.254-1.877Z" transform="translate(-1248.481 -452.868)" fill="#42e8e0"/>
              <path id="Path_86237" data-name="Path 86237" d="M1262.574,458.29l1.939,1.117.146-.862-1.939-1.117Z" transform="translate(-1246.753 -451.869)" fill="#42e8e0"/>
              <path id="Path_86238" data-name="Path 86238" d="M1255.385,456.523l1.792,1.035.146-.862-1.792-1.035Z" transform="translate(-1252.667 -453.322)" fill="#42e8e0"/>
              <g id="Group_34945" data-name="Group 34945" transform="translate(0 2.893)">
                <path id="Path_86239" data-name="Path 86239" d="M1255.3,457.636l1.356.784.144-.862-1.354-.784Z" transform="translate(-1252.742 -455.299)" fill="#42e8e0"/>
                <path id="Path_86240" data-name="Path 86240" d="M1253.894,456.827l1.79,1.035.146-.862-1.79-1.035Z" transform="translate(-1253.894 -455.965)" fill="#42e8e0"/>
              </g>
              <path id="Path_86241" data-name="Path 86241" d="M1258.333,455.841l1.218.7.146-.862-1.218-.7Z" transform="translate(-1250.242 -453.884)" fill="#42e8e0"/>
              <path id="Path_86242" data-name="Path 86242" d="M1257.292,455.24l1.218.7.146-.862-1.218-.7Z" transform="translate(-1251.099 -454.378)" fill="#42e8e0"/>
            </g>
            <path id="Path_86243" data-name="Path 86243" d="M1262.421,449.8l4.152,2.4.146-.862-4.152-2.4Z" transform="translate(-1245.186 -439.932)" fill="#42e8e0"/>
            <path id="Path_86244" data-name="Path 86244" d="M1259.87,448.324l3.89,2.249.146-.862-3.89-2.249Z" transform="translate(-1247.284 -441.145)" fill="#42e8e0"/>
            <path id="Path_86245" data-name="Path 86245" d="M1258.786,447.7l1.218.7.146-.86-1.218-.705Z" transform="translate(-1248.176 -441.66)" fill="#42e8e0"/>
            <path id="Path_86246" data-name="Path 86246" d="M1257.745,447.1l1.218.7.146-.862-1.218-.7Z" transform="translate(-1249.032 -442.155)" fill="#42e8e0"/>
            <path id="Path_86247" data-name="Path 86247" d="M1258.358,447.451l-2.624-1.518.144-.862,2.627,1.518Z" transform="translate(-1250.687 -443.112)" fill="#42e8e0"/>
          </g>
        </g>
        <g id="Grupo_55772" data-name="Grupo 55772" transform="translate(91.285 218.666)">
          <g id="Group_35154" data-name="Group 35154">
            <path id="Path_86498" data-name="Path 86498" d="M1320.677,527.209l16.975-9.8a2.229,2.229,0,0,0,1.292-1.845c0-.062,0-1.393-.005-1.453-.071-.8-.687-.361-1.823-1.017L1297.2,490.048a8.294,8.294,0,0,0-7.469-.31l-16.975,9.8c-.855.494-1.28-.374-1.29.315,0,.06,0,1.648.005,1.71a3.2,3.2,0,0,0,1.823,2.289l39.919,23.046A8.3,8.3,0,0,0,1320.677,527.209Z" transform="translate(-1271.458 -487.537)" fill="#00223d"/>
            <path id="Path_86499" data-name="Path 86499" d="M1320.678,526.411l16.975-9.8c1.916-1.106,1.675-3.038-.536-4.314L1297.2,489.25a8.294,8.294,0,0,0-7.469-.31l-16.975,9.8c-1.914,1.106-1.673,3.037.538,4.313l39.919,23.048A8.305,8.305,0,0,0,1320.678,526.411Z" transform="translate(-1271.459 -488.193)" fill="url(#linear-gradient-6)"/>
            <path id="Path_86500" data-name="Path 86500" d="M1337.653,510.854l-16.975,9.8a8.3,8.3,0,0,1-7.471-.31L1273.288,497.3a3.149,3.149,0,0,1-1.826-2.342,2.992,2.992,0,0,0,1.826,2.534l39.919,23.048a8.31,8.31,0,0,0,7.471.31l16.975-9.8a2.184,2.184,0,0,0,1.291-1.97A2.259,2.259,0,0,1,1337.653,510.854Z" transform="translate(-1271.459 -482.629)" fill="#fff"/>
            <path id="Path_86501" data-name="Path 86501" d="M1335.122,512.47l-39.767-22.96a6.1,6.1,0,0,0-5.481-.23l-16.527,9.545c-1.405.811-1.228,2.227.394,3.164l39.767,22.961a6.113,6.113,0,0,0,5.483.23l16.524-9.542C1336.921,514.825,1336.746,513.407,1335.122,512.47Z" transform="translate(-1270.687 -487.748)" fill="#022652"/>
            <path id="Path_86502" data-name="Path 86502" d="M1289.8,489.463a5.28,5.28,0,0,1,4.781-.009l40.205,23.212c1.316.76,1.309,2-.015,2.761l-16.144,9.319a5.281,5.281,0,0,1-4.781.009l-40.205-23.214c-1.316-.758-1.311-1.994.015-2.76Z" transform="translate(-1270.471 -487.623)" fill="#00223d"/>
          </g>
          <rect id="Rectngulo_31148" data-name="Rectngulo 31148" width="2.549" height="1.052" rx="0.289" transform="matrix(0.866, -0.5, 0.5, 0.866, 11.465, 7.15)" fill="#a8cff0"/>
        </g>
      </g>
    </g>
  </g>
</svg>
