<svg id="subir" xmlns="http://www.w3.org/2000/svg" width="112.605" height="112.605" viewBox="0 0 112.605 112.605">
  <g id="Grupo_107086" data-name="Grupo 107086" transform="translate(1.649 1.649)">
    <path id="Trazado_162974" data-name="Trazado 162974" d="M135.366,193.793v-63.04a7.287,7.287,0,0,0-7.287-7.287H47.921a7.287,7.287,0,0,0-7.287,7.287v63.04Z" transform="translate(-33.347 -97.961)" fill="#7f13ba"/>
    <path id="Trazado_162975" data-name="Trazado 162975" d="M420.292,123.466h-5.058a7.287,7.287,0,0,1,7.287,7.287v63.04h5.059v-63.04A7.287,7.287,0,0,0,420.292,123.466Z" transform="translate(-325.56 -97.961)" fill="#083142"/>
    <path id="Trazado_162976" data-name="Trazado 162976" d="M73.765,218.541V158.423a1.822,1.822,0,0,1,1.822-1.822H152.1a1.822,1.822,0,0,1,1.822,1.822v60.118H73.765Z" transform="translate(-59.191 -123.809)" fill="#c0a4ee"/>
    <path id="Trazado_162977" data-name="Trazado 162977" d="M412.009,156.6H406.95a1.822,1.822,0,0,1,1.822,1.822v60.118h5.059V158.423A1.822,1.822,0,0,0,412.009,156.6Z" transform="translate(-319.098 -123.809)" fill="#a173ee"/>
    <path id="Trazado_162978" data-name="Trazado 162978" d="M109.769,452.807H14.538A7.038,7.038,0,0,1,7.5,445.769v-5.777a1.76,1.76,0,0,1,1.759-1.759H115.047a1.76,1.76,0,0,1,1.759,1.759v5.777A7.038,7.038,0,0,1,109.769,452.807Z" transform="translate(-7.5 -343.501)" fill="#e9efff"/>
    <path id="Trazado_162979" data-name="Trazado 162979" d="M459.837,438.233h-5.058a1.76,1.76,0,0,1,1.759,1.759v5.777a7.038,7.038,0,0,1-7.038,7.038h5.058a7.038,7.038,0,0,0,7.038-7.038v-5.777A1.76,1.76,0,0,0,459.837,438.233Z" transform="translate(-352.29 -343.501)" fill="#d3dcfb"/>
    <path id="Trazado_162980" data-name="Trazado 162980" d="M147.32,62.153h-3.644a3.644,3.644,0,0,1-3.644-3.644V11.144A3.644,3.644,0,0,1,143.677,7.5h36.436a3.644,3.644,0,0,1,3.644,3.644v3.7Z" transform="translate(-110.885 -7.5)" fill="#d2e1f1"/>
    <path id="Trazado_162982" data-name="Trazado 162982" d="M304.325,7.5h-5.058a3.644,3.644,0,0,1,3.644,3.644V21.412l5.058-6.568v-3.7A3.644,3.644,0,0,0,304.325,7.5Z" transform="translate(-235.098 -7.5)" fill="#b0c0d2"/>
    <path id="Trazado_162983" data-name="Trazado 162983" d="M213.371,106.547H176.686a3.519,3.519,0,0,1-3.519-3.519V44.152a3.519,3.519,0,0,1,3.519-3.519h36.685a3.519,3.519,0,0,1,3.519,3.519v58.876A3.519,3.519,0,0,1,213.371,106.547Z" transform="translate(-136.731 -33.346)" fill="#f3f9ff"/>
    <path id="Trazado_162984" data-name="Trazado 162984" d="M252.248,81.054H241.192a1.76,1.76,0,0,1-1.759-1.759V75.526a1.76,1.76,0,0,1,1.759-1.759h11.055a1.76,1.76,0,0,1,1.759,1.759v3.768A1.76,1.76,0,0,1,252.248,81.054Z" transform="translate(-188.423 -59.193)" fill="#ffca54"/>
    <path id="Trazado_162985" data-name="Trazado 162985" d="M338.025,40.633h-5.058a3.519,3.519,0,0,1,3.519,3.519v58.876a3.519,3.519,0,0,1-3.519,3.519h5.058a3.519,3.519,0,0,0,3.519-3.519V44.152A3.519,3.519,0,0,0,338.025,40.633Z" transform="translate(-261.386 -33.346)" fill="#dee4f0"/>
    <path id="Trazado_162986" data-name="Trazado 162986" d="M279.758,73.767H274.7a1.76,1.76,0,0,1,1.759,1.759v3.768a1.76,1.76,0,0,1-1.759,1.759h5.058a1.76,1.76,0,0,0,1.759-1.759V75.526A1.759,1.759,0,0,0,279.758,73.767Z" transform="translate(-215.934 -59.193)" fill="#ffb476"/>
  </g>
  <g id="Grupo_107087" data-name="Grupo 107087">
    <path id="Trazado_162988" data-name="Trazado 162988" d="M109.2,94.732h-3.878V34.441A8.947,8.947,0,0,0,96.382,25.5H83.457V12.455a5.174,5.174,0,0,0-5.168-5.168H76.17V5.293A5.3,5.3,0,0,0,70.877,0H34.441a5.3,5.3,0,0,0-5.293,5.293V25.5H16.224a8.946,8.946,0,0,0-8.936,8.937V94.732H3.409A3.413,3.413,0,0,0,0,98.141v5.777a8.7,8.7,0,0,0,8.687,8.687h84.4a1.649,1.649,0,1,0,0-3.3H28.8v-1.994a1.649,1.649,0,0,0-3.3,0v1.994H21.517v-1.994a1.649,1.649,0,0,0-3.3,0v1.994H14.23v-1.994a1.649,1.649,0,0,0-3.3,0v1.994H8.687A5.4,5.4,0,0,1,3.3,103.918V98.141a.11.11,0,0,1,.11-.11H43.723v3.816a3.475,3.475,0,0,0,3.471,3.471H65.412a3.475,3.475,0,0,0,3.471-3.471V98.031H109.2a.11.11,0,0,1,.11.11v5.777a5.4,5.4,0,0,1-5.388,5.388H99.681a1.649,1.649,0,0,0,0,3.3h4.237a8.7,8.7,0,0,0,8.687-8.687V98.141A3.413,3.413,0,0,0,109.2,94.732ZM96.382,28.8a5.644,5.644,0,0,1,5.637,5.638V94.732H98.032V36.263a3.475,3.475,0,0,0-3.471-3.471h-11.1V28.8ZM80.158,12.455V71.331A1.872,1.872,0,0,1,78.289,73.2H41.6a1.872,1.872,0,0,1-1.869-1.869V12.455A1.872,1.872,0,0,1,41.6,10.586H74.1a1.6,1.6,0,0,0,.847,0h3.345a1.872,1.872,0,0,1,1.869,1.869ZM34.441,3.3H70.877a2,2,0,0,1,1.994,1.994V7.287H41.6a5.174,5.174,0,0,0-5.168,5.168v42.2H34.441a2,2,0,0,1-1.994-1.994V5.293A2,2,0,0,1,34.441,3.3ZM10.586,34.441A5.644,5.644,0,0,1,16.224,28.8H29.148v3.988h-11.1a3.475,3.475,0,0,0-3.471,3.471V47.538a1.649,1.649,0,1,0,3.3,0V36.263a.173.173,0,0,1,.172-.172h11.1V52.659a5.3,5.3,0,0,0,5.293,5.293h1.994V71.331A5.174,5.174,0,0,0,41.6,76.5H78.289a5.174,5.174,0,0,0,5.168-5.168V36.091h11.1a.172.172,0,0,1,.172.172V94.732H17.873v-40.6a1.649,1.649,0,1,0-3.3,0v40.6H10.586Zm55,67.406a.173.173,0,0,1-.172.172H47.194a.173.173,0,0,1-.172-.172V98.031H65.584v3.816Z" transform="translate(0 0)"/>
    <path id="Trazado_162989" data-name="Trazado 162989" d="M235.342,76.853H246.4a3.413,3.413,0,0,0,3.409-3.409V69.676a3.413,3.413,0,0,0-3.409-3.409H235.342a3.413,3.413,0,0,0-3.409,3.409v3.768a3.413,3.413,0,0,0,3.409,3.409Zm-.11-7.177a.11.11,0,0,1,.11-.11H246.4a.11.11,0,0,1,.11.11v3.768a.11.11,0,0,1-.11.11H235.342a.11.11,0,0,1-.11-.11Z" transform="translate(-180.923 -51.693)"/>
    <path id="Trazado_162990" data-name="Trazado 162990" d="M229.6,132.533H200.449a1.65,1.65,0,0,0,0,3.3H229.6a1.65,1.65,0,1,0,0-3.3Z" transform="translate(-155.077 -101.133)"/>
    <path id="Trazado_162991" data-name="Trazado 162991" d="M229.6,165.667H200.449a1.649,1.649,0,0,0,0,3.3H229.6a1.649,1.649,0,1,0,0-3.3Z" transform="translate(-155.077 -126.979)"/>
    <path id="Trazado_162993" data-name="Trazado 162993" d="M229.6,165.667H200.449a1.649,1.649,0,0,0,0,3.3H229.6a1.649,1.649,0,1,0,0-3.3Z" transform="translate(-155.077 -110.154)"/>
    <path id="Trazado_162992" data-name="Trazado 162992" d="M238.878,198.8H217.017a1.649,1.649,0,1,0,0,3.3h21.861a1.649,1.649,0,0,0,0-3.3Z" transform="translate(-168.001 -152.825)"/>
    <path id="Trazado_162994" data-name="Trazado 162994" d="M238.878,198.8H217.017a1.649,1.649,0,1,0,0,3.3h21.861a1.649,1.649,0,0,0,0-3.3Z" transform="translate(-168.001 -136)"/>
  </g>
</svg>
