<svg xmlns="http://www.w3.org/2000/svg" width="195" height="183.901" viewBox="0 0 195 183.901">
  <g id="Graphics" transform="translate(-2132.75 -620.153)">
    <g id="Grupo_1044022" data-name="Grupo 1044022" transform="translate(2253.708 649.188)">
      <path id="Trazado_771430" data-name="Trazado 771430" d="M3529.03,1000.52v7.842l.434-.268v-7.334a.23.23,0,0,1-.063-.024Z" transform="translate(-3527.899 -996.296)" fill="#396caa"/>
      <path id="Trazado_771431" data-name="Trazado 771431" d="M3523.629,958.76v2.378h0V958.76a.489.489,0,0,0-.222-.383l-.947-.547h0l.947.547A.489.489,0,0,1,3523.629,958.76Z" transform="translate(-3521.904 -957.339)" fill="none"/>
      <path id="Trazado_771432" data-name="Trazado 771432" d="M3518.731,952.984l-1.281-.74a.157.157,0,0,0-.155-.017h0l0,0-.432.267a.159.159,0,0,1,.156.017l.212.122.122.07h0l.947.547a.491.491,0,0,1,.222.383v2.378h0v.511a.171.171,0,0,1-.042.123h0l.408-.247h0a.152.152,0,0,0,.069-.144v-2.89A.493.493,0,0,0,3518.731,952.984Z" transform="translate(-3516.793 -952.214)" fill="#396caa"/>
      <path id="Trazado_771433" data-name="Trazado 771433" d="M3517.825,959.062v-2.626a.49.49,0,0,0-.222-.383l-.947-.547-.121-.07-.213-.122a.159.159,0,0,0-.156-.017l0,0v0a.154.154,0,0,0-.062.14v2.89a.49.49,0,0,0,.222.383l.36.207v7.842l.55.318v-7.842l.372.215a.2.2,0,0,0,.063.024.12.12,0,0,0,.118-.028.169.169,0,0,0,.042-.123v-.264Z" transform="translate(-3516.1 -955.015)" fill="#173d7a"/>
    </g>
    <g id="Grupo_1044023" data-name="Grupo 1044023" transform="translate(2258.238 651.406)">
      <path id="Trazado_771434" data-name="Trazado 771434" d="M3580.829,1025.88v7.842l.435-.268v-7.334a.233.233,0,0,1-.063-.024Z" transform="translate(-3579.698 -1021.656)" fill="#396caa"/>
      <path id="Trazado_771435" data-name="Trazado 771435" d="M3575.429,984.13v2.378h0V984.13a.491.491,0,0,0-.222-.383l-.947-.547h0l.947.547A.49.49,0,0,1,3575.429,984.13Z" transform="translate(-3573.704 -982.708)" fill="none"/>
      <path id="Trazado_771436" data-name="Trazado 771436" d="M3570.531,978.344l-1.281-.74a.157.157,0,0,0-.155-.017h0l0,0-.432.267a.158.158,0,0,1,.155.016l.213.123.122.07h0l.947.547a.49.49,0,0,1,.222.383v2.378h0v.512a.172.172,0,0,1-.042.123h0l.408-.247h0a.152.152,0,0,0,.069-.144v-2.89A.493.493,0,0,0,3570.531,978.344Z" transform="translate(-3568.594 -977.574)" fill="#396caa"/>
      <path id="Trazado_771437" data-name="Trazado 771437" d="M3569.625,984.422V981.8a.49.49,0,0,0-.222-.383l-.947-.547-.121-.07-.212-.122a.159.159,0,0,0-.156-.017l0,0v0a.155.155,0,0,0-.062.14v2.89a.489.489,0,0,0,.222.383l.36.207v7.842l.549.317V984.6l.372.215a.2.2,0,0,0,.063.024.122.122,0,0,0,.118-.028.17.17,0,0,0,.042-.123v-.264Z" transform="translate(-3567.9 -980.375)" fill="#173d7a"/>
    </g>
    <g id="Grupo_1044024" data-name="Grupo 1044024" transform="translate(2238.649 620.153)">
      <path id="Trazado_771438" data-name="Trazado 771438" d="M3546.333,645.521a6.369,6.369,0,0,0-2.731-.909c0-.058.008-.111.008-.17,0-8.266-5.84-18.34-13.044-22.5-4.1-2.365-7.749-2.3-10.139-.293a6.619,6.619,0,0,0-.887.909,10.882,10.882,0,0,1,7,1.7c7.2,4.159,13.044,14.232,13.044,22.5,0,.059-.007.112-.008.17a6.376,6.376,0,0,1,2.732.909c.057.033.115.067.171.1l.056.035.115.071.068.044.1.066.073.049.1.065.074.052.093.066.075.055.09.066.076.058.088.067.076.06.087.069.076.062.085.071.076.065.084.072.076.066c.027.024.055.048.082.073l.076.069.082.074.075.07.08.076.074.072.08.078.073.073c.026.026.053.052.078.08l.073.075.077.08.073.077.076.082.072.079.074.083.071.08.073.084.071.082.072.085.07.083.071.087c.023.028.046.056.069.085s.046.058.069.087l.068.086.068.088c.023.029.046.059.067.088l.067.088.067.09.065.089.065.091c.022.03.043.06.064.09l.065.092.062.09.064.094.06.089.065.1.055.086.066.1.046.074q.087.139.172.28l.014.024c.023.039.045.078.069.116l.046.076.064.113c.015.027.031.054.046.082s.041.073.061.111l.047.085.059.11c.016.029.031.058.047.087l.057.11.046.088c.018.037.037.074.056.11l.045.089c.018.037.036.073.053.111s.029.06.044.09l.052.111.042.09.051.112c.014.031.027.06.04.091l.049.112.04.091.047.113c.013.031.025.061.037.092s.031.075.045.113l.037.092.044.114c.011.031.024.061.035.092l.042.114c.011.031.022.061.033.092l.041.115.031.091c.013.038.026.077.039.114s.02.061.03.091l.038.115c.01.031.019.06.028.091s.024.078.036.116l.027.09c.011.038.022.078.033.116s.017.06.025.09.022.078.031.117l.024.089c.011.039.02.079.03.117s.014.059.021.088.02.079.028.118.013.058.019.086.018.08.026.12.011.057.018.085.016.08.024.121l.016.082c.008.041.016.082.023.123l.013.079c.007.042.015.085.021.127,0,.024.008.049.011.073.007.044.013.088.02.13,0,.022.006.045.009.066.006.045.012.092.018.137,0,.017,0,.034.006.052.006.051.012.1.017.151,0,0,0,.006,0,.01.019.191.034.381.042.569,0,.005,0,.011,0,.015h0c.006.138.01.276.01.413a6.667,6.667,0,0,1-.4,2.39c-.034.089-.07.176-.108.261a3.62,3.62,0,0,1-1.289,1.564h0l3.53-2.05a3.22,3.22,0,0,0,.652-.379h0a3.692,3.692,0,0,0,1.129-1.451,6.42,6.42,0,0,0,.506-2.651A14.843,14.843,0,0,0,3546.333,645.521Z" transform="translate(-3504.179 -620.153)" fill="#0affc6"/>
      <path id="Trazado_771439" data-name="Trazado 771439" d="M3378.178,655.192a7.62,7.62,0,0,1,3.315.947l.124.065.084.045c.072.039.145.08.216.122a13,13,0,0,1,1.362.922,8.769,8.769,0,0,1,.949-1.976,6.827,6.827,0,0,1,1.306-1.487c-2.066-1.082-3.942-1.217-5.375-.55h0a4.012,4.012,0,0,0-.613.353l-3.406,1.961A4.583,4.583,0,0,1,3378.178,655.192Z" transform="translate(-3373.318 -650.012)" fill="#0affc6"/>
      <path id="Trazado_771440" data-name="Trazado 771440" d="M3388.725,683.238c0-.005,0-.01,0-.015q-.013-.282-.042-.569s0-.006,0-.01c0-.05-.011-.1-.016-.151,0-.018,0-.034-.007-.052-.005-.045-.012-.092-.018-.137,0-.022-.006-.045-.009-.066-.006-.044-.013-.087-.019-.13,0-.025-.007-.049-.011-.074l-.021-.127c0-.026-.009-.053-.013-.079-.007-.041-.015-.082-.023-.123s-.01-.055-.016-.082-.017-.081-.024-.121-.011-.057-.018-.085-.017-.08-.026-.12-.013-.058-.019-.087-.018-.079-.028-.118-.014-.059-.022-.088-.02-.079-.03-.117l-.024-.089-.031-.117c-.008-.03-.016-.06-.026-.09s-.021-.078-.033-.116l-.026-.09c-.011-.038-.024-.078-.036-.116l-.028-.091-.037-.115-.03-.091-.039-.115-.031-.091c-.013-.039-.027-.076-.041-.115l-.034-.092-.042-.114c-.011-.031-.023-.061-.035-.092s-.029-.076-.044-.114l-.037-.092-.045-.113c-.012-.031-.025-.061-.037-.092l-.047-.113-.04-.091c-.016-.038-.032-.075-.049-.112s-.027-.06-.041-.091-.033-.074-.051-.112l-.041-.09c-.018-.037-.035-.074-.053-.111s-.029-.06-.043-.09l-.054-.111-.044-.089c-.018-.037-.037-.073-.056-.11s-.031-.059-.045-.088-.038-.073-.057-.11-.031-.058-.046-.087l-.06-.11c-.015-.029-.031-.057-.047-.085l-.062-.111-.046-.082c-.021-.038-.043-.075-.065-.113s-.03-.051-.045-.076-.046-.078-.069-.116l-.014-.024c-.057-.094-.114-.187-.173-.28l-.046-.074-.067-.1-.055-.086c-.021-.032-.043-.065-.064-.1l-.059-.089L3386.1,676c-.021-.03-.042-.06-.062-.09l-.065-.092-.063-.09-.066-.091-.065-.089-.067-.09-.066-.088-.067-.088-.069-.088-.068-.086-.069-.087c-.023-.028-.045-.057-.069-.085l-.071-.087-.07-.083c-.023-.029-.048-.057-.072-.085l-.071-.082-.073-.084-.071-.08-.075-.083-.071-.079-.076-.082c-.023-.025-.048-.052-.073-.077l-.077-.08-.073-.075-.078-.079-.073-.073-.079-.078-.074-.072-.081-.076c-.024-.024-.05-.047-.075-.07l-.081-.074-.076-.069-.082-.073-.076-.066-.084-.072-.076-.065-.084-.071-.077-.062-.086-.069-.076-.06-.088-.067-.076-.058-.09-.066-.075-.055-.093-.065-.075-.052-.1-.065-.072-.049-.1-.066-.068-.044c-.037-.025-.076-.047-.114-.071l-.056-.035c-.057-.034-.114-.068-.172-.1a6.368,6.368,0,0,0-2.731-.909c0-.058.008-.111.008-.17,0-8.266-5.84-18.34-13.044-22.5a10.882,10.882,0,0,0-7-1.7,6.315,6.315,0,0,0-3.138,1.409l0,.005a6.821,6.821,0,0,0-1.306,1.487,8.637,8.637,0,0,0-.949,1.976,13.008,13.008,0,0,0-1.362-.922c-.073-.042-.145-.082-.216-.122l-.085-.045-.123-.065a7.621,7.621,0,0,0-3.316-.947,4.551,4.551,0,0,0-2.038.4,4.073,4.073,0,0,0-.626.361c-1.365.959-2.2,2.788-2.2,5.318,0,5.451,3.851,12.093,8.6,14.835L3382,687.495c1.953,1.128,3.712,1.188,4.943.374a3.63,3.63,0,0,0,1.289-1.564c.038-.085.074-.171.108-.261a6.673,6.673,0,0,0,.4-2.391C3388.735,683.515,3388.731,683.377,3388.725,683.238Z" transform="translate(-3343.869 -644.346)" fill="#173d7a"/>
    </g>
    <ellipse id="Elipse_6124" data-name="Elipse 6124" cx="0.59" cy="1.021" rx="0.59" ry="1.021" transform="translate(2253.374 637.09) rotate(-30.357)" fill="#ff6041"/>
    <ellipse id="Elipse_6125" data-name="Elipse 6125" cx="0.59" cy="1.021" rx="0.59" ry="1.021" transform="translate(2256.074 638.689) rotate(-30.357)" fill="#ff6041"/>
    <ellipse id="Elipse_6126" data-name="Elipse 6126" cx="0.59" cy="1.021" rx="0.59" ry="1.021" transform="translate(2258.76 640.268) rotate(-30.357)" fill="#0affc6"/>
    <ellipse id="Elipse_6127" data-name="Elipse 6127" cx="0.59" cy="1.021" rx="0.59" ry="1.021" transform="translate(2261.49 641.804) rotate(-30.357)" fill="#0affc6"/>
    <g id="Grupo_1044026" data-name="Grupo 1044026" transform="translate(2209.399 635.509)">
      <path id="Trazado_771441" data-name="Trazado 771441" d="M3090.9,839.853l-74.935-43.675c-1.975-1.151-6.4.173-6.4,3.364l1.944,70.268,78.137,47.751a2.478,2.478,0,0,0,3.742-1.589,4.038,4.038,0,0,0,.063-.71V844.294A5.144,5.144,0,0,0,3090.9,839.853Z" transform="translate(-3009.551 -795.769)" fill="#396caa"/>
      <g id="Grupo_1044025" data-name="Grupo 1044025" transform="translate(0 1.208)">
        <path id="Trazado_771442" data-name="Trazado 771442" d="M3088.7,853.643l-74.9-43.654a2.961,2.961,0,0,0-4.452,2.558V882.8a1.435,1.435,0,0,0,.712,1.239l79.073,46.086a1.434,1.434,0,0,0,2.156-1.239V858.149A5.218,5.218,0,0,0,3088.7,853.643Z" transform="translate(-3009.35 -809.582)" fill="#173d7a"/>
      </g>
      <path id="Trazado_771443" data-name="Trazado 771443" d="M3053.81,932.465l41.766,24.346,3.9,2.273,28.5,16.617v-66.89L3053.81,865.57Z" transform="translate(-3049.922 -859.467)" fill="#396caa"/>
    </g>
    <g id="Grupo_1044027" data-name="Grupo 1044027" transform="translate(2157.769 716.822)">
      <path id="Trazado_771444" data-name="Trazado 771444" d="M2419.493,1755.163a.9.9,0,0,0-.011,1.7l78.875,45.837a3.229,3.229,0,0,0,2.933,0l50.4-29.1a.9.9,0,0,0,.01-1.7l-78.876-45.837a3.228,3.228,0,0,0-2.931,0Z" transform="translate(-2418.88 -1725.711)" fill="#c4dbf2"/>
    </g>
    <path id="Trazado_771445" data-name="Trazado 771445" d="M2549.954,2029.665a1.038,1.038,0,0,1-.612.855l-50.4,29.1a3.228,3.228,0,0,1-2.933,0l-78.875-45.837h0a1.03,1.03,0,0,1-.6-.843l.008,2.791a1.029,1.029,0,0,0,.6.843h0l78.875,45.837a3.228,3.228,0,0,0,2.933,0l50.4-29.1a1.039,1.039,0,0,0,.612-.855Z" transform="translate(-258.967 -1271.003)" fill="#396caa"/>
    <g id="Grupo_1044028" data-name="Grupo 1044028" transform="translate(2157.563 711.629)">
      <path id="Trazado_771446" data-name="Trazado 771446" d="M2417.134,1695.773a.9.9,0,0,0-.011,1.7L2496,1743.308a3.229,3.229,0,0,0,2.933,0l50.4-29.1a.9.9,0,0,0,.01-1.7l-78.876-45.837a3.227,3.227,0,0,0-2.931,0Z" transform="translate(-2416.521 -1666.321)" fill="#0affc6"/>
    </g>
    <g id="Grupo_1044163" data-name="Grupo 1044163" transform="translate(2179.595 716.339)">
      <g id="Grupo_1044030" data-name="Grupo 1044030" transform="translate(27.517 0)">
        <g id="Grupo_1044029" data-name="Grupo 1044029">
          <path id="Trazado_771447" data-name="Trazado 771447" d="M2983.2,1722.737l4.387,2.549,4.412-2.546-4.387-2.55Z" transform="translate(-2983.199 -1720.19)" fill="#4984bf"/>
        </g>
      </g>
      <g id="Grupo_1044032" data-name="Grupo 1044032" transform="translate(33.025 3.2)">
        <g id="Grupo_1044031" data-name="Grupo 1044031">
          <path id="Trazado_771448" data-name="Trazado 771448" d="M3046.19,1759.337l4.386,2.55,4.412-2.547-4.387-2.55Z" transform="translate(-3046.19 -1756.79)" fill="#4984bf"/>
        </g>
      </g>
      <g id="Grupo_1044034" data-name="Grupo 1044034" transform="translate(38.533 6.401)">
        <g id="Grupo_1044033" data-name="Grupo 1044033">
          <path id="Trazado_771449" data-name="Trazado 771449" d="M3109.18,1795.937l4.385,2.55,4.412-2.547-4.386-2.55Z" transform="translate(-3109.18 -1793.39)" fill="#4984bf"/>
        </g>
      </g>
      <g id="Grupo_1044036" data-name="Grupo 1044036" transform="translate(44.043 9.603)">
        <g id="Grupo_1044035" data-name="Grupo 1044035">
          <path id="Trazado_771450" data-name="Trazado 771450" d="M3172.2,1832.567l4.384,2.547,4.412-2.547-4.384-2.547Z" transform="translate(-3172.2 -1830.02)" fill="#4984bf"/>
        </g>
      </g>
      <g id="Grupo_1044038" data-name="Grupo 1044038" transform="translate(49.551 12.805)">
        <g id="Grupo_1044037" data-name="Grupo 1044037">
          <path id="Trazado_771451" data-name="Trazado 771451" d="M3235.189,1869.176l4.384,2.548,4.411-2.548-4.383-2.546Z" transform="translate(-3235.189 -1866.63)" fill="#4984bf"/>
        </g>
      </g>
      <g id="Grupo_1044040" data-name="Grupo 1044040" transform="translate(55.058 16.005)">
        <g id="Grupo_1044039" data-name="Grupo 1044039">
          <path id="Trazado_771452" data-name="Trazado 771452" d="M3298.17,1905.777l4.388,2.55,4.411-2.548-4.387-2.549Z" transform="translate(-3298.17 -1903.23)" fill="#4984bf"/>
        </g>
      </g>
      <g id="Grupo_1044042" data-name="Grupo 1044042" transform="translate(60.565 19.205)">
        <g id="Grupo_1044041" data-name="Grupo 1044041">
          <path id="Trazado_771453" data-name="Trazado 771453" d="M3361.16,1942.377l4.387,2.55,4.412-2.547-4.388-2.55Z" transform="translate(-3361.16 -1939.83)" fill="#4984bf"/>
        </g>
      </g>
      <g id="Grupo_1044044" data-name="Grupo 1044044" transform="translate(66.072 22.405)">
        <g id="Grupo_1044043" data-name="Grupo 1044043">
          <path id="Trazado_771454" data-name="Trazado 771454" d="M3424.14,1978.978l4.387,2.549,4.412-2.547-4.386-2.549Z" transform="translate(-3424.14 -1976.43)" fill="#4984bf"/>
        </g>
      </g>
      <g id="Grupo_1044046" data-name="Grupo 1044046" transform="translate(71.58 25.606)">
        <g id="Grupo_1044045" data-name="Grupo 1044045">
          <path id="Trazado_771455" data-name="Trazado 771455" d="M3487.13,2015.587l4.386,2.55,4.412-2.548-4.387-2.549Z" transform="translate(-3487.13 -2013.04)" fill="#4984bf"/>
        </g>
      </g>
      <g id="Grupo_1044048" data-name="Grupo 1044048" transform="translate(77.091 28.809)">
        <g id="Grupo_1044047" data-name="Grupo 1044047">
          <path id="Trazado_771456" data-name="Trazado 771456" d="M3550.16,2052.217l4.383,2.547,4.412-2.547-4.383-2.547Z" transform="translate(-3550.16 -2049.67)" fill="#4984bf"/>
        </g>
      </g>
      <g id="Grupo_1044050" data-name="Grupo 1044050" transform="translate(82.598 32.01)">
        <g id="Grupo_1044049" data-name="Grupo 1044049">
          <path id="Trazado_771457" data-name="Trazado 771457" d="M3613.14,2088.817l4.384,2.547,4.412-2.547-4.384-2.547Z" transform="translate(-3613.14 -2086.27)" fill="#4984bf"/>
        </g>
      </g>
      <g id="Grupo_1044052" data-name="Grupo 1044052" transform="translate(88.106 35.21)">
        <g id="Grupo_1044051" data-name="Grupo 1044051">
          <path id="Trazado_771458" data-name="Trazado 771458" d="M3676.129,2125.417l4.384,2.548,4.412-2.548-4.383-2.547Z" transform="translate(-3676.129 -2122.87)" fill="#4984bf"/>
        </g>
      </g>
      <g id="Grupo_1044054" data-name="Grupo 1044054" transform="translate(93.614 38.411)">
        <g id="Grupo_1044053" data-name="Grupo 1044053">
          <path id="Trazado_771459" data-name="Trazado 771459" d="M3739.12,2162.027l4.386,2.549,4.412-2.547-4.388-2.549Z" transform="translate(-3739.12 -2159.48)" fill="#4984bf"/>
        </g>
      </g>
      <g id="Grupo_1044056" data-name="Grupo 1044056" transform="translate(22.251 3.325)">
        <g id="Grupo_1044055" data-name="Grupo 1044055">
          <path id="Trazado_771460" data-name="Trazado 771460" d="M2922.97,1760.768l8.925,5.187,4.412-2.548-8.926-5.187Z" transform="translate(-2922.97 -1758.22)" fill="#4984bf"/>
        </g>
      </g>
      <g id="Grupo_1044058" data-name="Grupo 1044058" transform="translate(32.17 9.091)">
        <g id="Grupo_1044057" data-name="Grupo 1044057">
          <path id="Trazado_771461" data-name="Trazado 771461" d="M3036.42,1826.707l4.388,2.55,4.412-2.548-4.388-2.549Z" transform="translate(-3036.42 -1824.16)" fill="#4984bf"/>
        </g>
      </g>
      <g id="Grupo_1044060" data-name="Grupo 1044060" transform="translate(37.425 12.144)">
        <g id="Grupo_1044059" data-name="Grupo 1044059">
          <path id="Trazado_771462" data-name="Trazado 771462" d="M3096.51,1861.627l4.387,2.55,4.412-2.547-4.387-2.55Z" transform="translate(-3096.51 -1859.08)" fill="#4984bf"/>
        </g>
      </g>
      <g id="Grupo_1044062" data-name="Grupo 1044062" transform="translate(42.679 15.197)">
        <g id="Grupo_1044061" data-name="Grupo 1044061">
          <path id="Trazado_771463" data-name="Trazado 771463" d="M3156.6,1896.538l4.387,2.549,4.412-2.547-4.388-2.55Z" transform="translate(-3156.6 -1893.99)" fill="#4984bf"/>
        </g>
      </g>
      <g id="Grupo_1044064" data-name="Grupo 1044064" transform="translate(47.937 18.253)">
        <g id="Grupo_1044063" data-name="Grupo 1044063">
          <path id="Trazado_771464" data-name="Trazado 771464" d="M3216.73,1931.487l4.382,2.547,4.412-2.547-4.384-2.547Z" transform="translate(-3216.73 -1928.94)" fill="#4984bf"/>
        </g>
      </g>
      <g id="Grupo_1044066" data-name="Grupo 1044066" transform="translate(53.19 21.305)">
        <g id="Grupo_1044065" data-name="Grupo 1044065">
          <path id="Trazado_771465" data-name="Trazado 771465" d="M3276.81,1966.4l4.383,2.547,4.412-2.547-4.383-2.548Z" transform="translate(-3276.81 -1963.85)" fill="#4984bf"/>
        </g>
      </g>
      <g id="Grupo_1044068" data-name="Grupo 1044068" transform="translate(58.443 24.359)">
        <g id="Grupo_1044067" data-name="Grupo 1044067">
          <path id="Trazado_771466" data-name="Trazado 771466" d="M3336.89,2001.318l4.383,2.547,4.412-2.547-4.383-2.548Z" transform="translate(-3336.89 -1998.77)" fill="#4984bf"/>
        </g>
      </g>
      <g id="Grupo_1044070" data-name="Grupo 1044070" transform="translate(63.697 27.412)">
        <g id="Grupo_1044069" data-name="Grupo 1044069">
          <path id="Trazado_771467" data-name="Trazado 771467" d="M3396.98,2036.237l4.386,2.55,4.412-2.547-4.387-2.55Z" transform="translate(-3396.98 -2033.69)" fill="#4984bf"/>
        </g>
      </g>
      <g id="Grupo_1044072" data-name="Grupo 1044072" transform="translate(68.952 30.465)">
        <g id="Grupo_1044071" data-name="Grupo 1044071">
          <path id="Trazado_771468" data-name="Trazado 771468" d="M3457.07,2071.157l4.387,2.549,4.411-2.546-4.387-2.55Z" transform="translate(-3457.07 -2068.61)" fill="#4984bf"/>
        </g>
      </g>
      <g id="Grupo_1044074" data-name="Grupo 1044074" transform="translate(74.205 33.519)">
        <g id="Grupo_1044073" data-name="Grupo 1044073">
          <path id="Trazado_771469" data-name="Trazado 771469" d="M3517.15,2106.077l4.387,2.55,4.412-2.548-4.387-2.549Z" transform="translate(-3517.15 -2103.53)" fill="#4984bf"/>
        </g>
      </g>
      <g id="Grupo_1044076" data-name="Grupo 1044076" transform="translate(79.458 36.571)">
        <g id="Grupo_1044075" data-name="Grupo 1044075">
          <path id="Trazado_771470" data-name="Trazado 771470" d="M3577.23,2140.988l4.388,2.549,4.412-2.547-4.388-2.55Z" transform="translate(-3577.23 -2138.44)" fill="#4984bf"/>
        </g>
      </g>
      <g id="Grupo_1044078" data-name="Grupo 1044078" transform="translate(84.766 39.655)">
        <g id="Grupo_1044077" data-name="Grupo 1044077">
          <path id="Trazado_771471" data-name="Trazado 771471" d="M3637.929,2176.257l7.745,4.5,4.411-2.547-7.744-4.5Z" transform="translate(-3637.929 -2173.71)" fill="#4984bf"/>
        </g>
      </g>
      <g id="Grupo_1044080" data-name="Grupo 1044080" transform="translate(16.733 6.508)">
        <g id="Grupo_1044079" data-name="Grupo 1044079">
          <path id="Trazado_771472" data-name="Trazado 771472" d="M2859.87,1797.17l11.117,6.461,4.417-2.55-11.118-6.461Z" transform="translate(-2859.87 -1794.62)" fill="#4984bf"/>
        </g>
      </g>
      <g id="Grupo_1044082" data-name="Grupo 1044082" transform="translate(28.846 13.548)">
        <g id="Grupo_1044081" data-name="Grupo 1044081">
          <path id="Trazado_771473" data-name="Trazado 771473" d="M2998.4,1877.679l4.387,2.549,4.416-2.55-4.387-2.549Z" transform="translate(-2998.4 -1875.13)" fill="#4984bf"/>
        </g>
      </g>
      <g id="Grupo_1044084" data-name="Grupo 1044084" transform="translate(34.028 16.559)">
        <g id="Grupo_1044083" data-name="Grupo 1044083">
          <path id="Trazado_771474" data-name="Trazado 771474" d="M3057.66,1912.119l4.383,2.547,4.416-2.549-4.383-2.547Z" transform="translate(-3057.66 -1909.57)" fill="#4984bf"/>
        </g>
      </g>
      <g id="Grupo_1044086" data-name="Grupo 1044086" transform="translate(39.206 19.568)">
        <g id="Grupo_1044085" data-name="Grupo 1044085">
          <path id="Trazado_771475" data-name="Trazado 771475" d="M3116.88,1946.53l4.383,2.547,4.416-2.55-4.383-2.547Z" transform="translate(-3116.88 -1943.98)" fill="#4984bf"/>
        </g>
      </g>
      <g id="Grupo_1044088" data-name="Grupo 1044088" transform="translate(44.384 22.577)">
        <g id="Grupo_1044087" data-name="Grupo 1044087">
          <path id="Trazado_771476" data-name="Trazado 771476" d="M3176.1,1980.939l4.383,2.547,4.416-2.549-4.383-2.548Z" transform="translate(-3176.1 -1978.39)" fill="#4984bf"/>
        </g>
      </g>
      <g id="Grupo_1044090" data-name="Grupo 1044090" transform="translate(49.562 25.586)">
        <g id="Grupo_1044089" data-name="Grupo 1044089">
          <path id="Trazado_771477" data-name="Trazado 771477" d="M3235.32,2015.359l4.384,2.547,4.415-2.55-4.383-2.547Z" transform="translate(-3235.32 -2012.81)" fill="#4984bf"/>
        </g>
      </g>
      <g id="Grupo_1044092" data-name="Grupo 1044092" transform="translate(54.74 28.596)">
        <g id="Grupo_1044091" data-name="Grupo 1044091">
          <path id="Trazado_771478" data-name="Trazado 771478" d="M3294.54,2049.779l4.383,2.547,4.416-2.549-4.383-2.547Z" transform="translate(-3294.54 -2047.23)" fill="#4984bf"/>
        </g>
      </g>
      <g id="Grupo_1044094" data-name="Grupo 1044094" transform="translate(59.918 31.605)">
        <g id="Grupo_1044093" data-name="Grupo 1044093">
          <path id="Trazado_771479" data-name="Trazado 771479" d="M3353.76,2084.189l4.384,2.547,4.415-2.55-4.383-2.547Z" transform="translate(-3353.76 -2081.64)" fill="#4984bf"/>
        </g>
      </g>
      <g id="Grupo_1044096" data-name="Grupo 1044096" transform="translate(65.096 34.614)">
        <g id="Grupo_1044095" data-name="Grupo 1044095">
          <path id="Trazado_771480" data-name="Trazado 771480" d="M3412.979,2118.609l4.387,2.55,4.416-2.55-4.387-2.549Z" transform="translate(-3412.979 -2116.06)" fill="#4984bf"/>
        </g>
      </g>
      <g id="Grupo_1044098" data-name="Grupo 1044098" transform="translate(70.275 37.623)">
        <g id="Grupo_1044097" data-name="Grupo 1044097">
          <path id="Trazado_771481" data-name="Trazado 771481" d="M3472.2,2153.019l4.387,2.55,4.416-2.55-4.387-2.549Z" transform="translate(-3472.199 -2150.47)" fill="#4984bf"/>
        </g>
      </g>
      <g id="Grupo_1044100" data-name="Grupo 1044100" transform="translate(75.816 40.844)">
        <g id="Grupo_1044099" data-name="Grupo 1044099">
          <path id="Trazado_771482" data-name="Trazado 771482" d="M3535.57,2189.849l11.179,6.5,4.415-2.549-11.178-6.5Z" transform="translate(-3535.57 -2187.3)" fill="#4984bf"/>
        </g>
      </g>
      <g id="Grupo_1044102" data-name="Grupo 1044102" transform="translate(5.707 9.692)">
        <g id="Grupo_1044101" data-name="Grupo 1044101">
          <path id="Trazado_771483" data-name="Trazado 771483" d="M2733.77,1836.762l5.561,3.232,5.6-3.232,2.517,1.463,4.332-2.5-8.077-4.694Z" transform="translate(-2733.77 -1831.03)" fill="#4984bf"/>
        </g>
      </g>
      <g id="Grupo_1044104" data-name="Grupo 1044104" transform="translate(20.305 14.97)">
        <g id="Grupo_1044103" data-name="Grupo 1044103">
          <path id="Trazado_771484" data-name="Trazado 771484" d="M2900.72,1893.949l4.384,2.547,4.415-2.55-4.382-2.547Z" transform="translate(-2900.72 -1891.4)" fill="#4984bf"/>
        </g>
      </g>
      <g id="Grupo_1044106" data-name="Grupo 1044106" transform="translate(12.369 16.746)">
        <g id="Grupo_1044105" data-name="Grupo 1044105">
          <path id="Trazado_771485" data-name="Trazado 771485" d="M2809.96,1914.259l4.388,2.55,4.415-2.55-4.387-2.549Z" transform="translate(-2809.96 -1911.71)" fill="#4984bf"/>
        </g>
      </g>
      <g id="Grupo_1044108" data-name="Grupo 1044108" transform="translate(0 16.169)">
        <g id="Grupo_1044107" data-name="Grupo 1044107">
          <path id="Trazado_771486" data-name="Trazado 771486" d="M2668.5,1907.66l11.118,6.46,4.415-2.549-11.117-6.461Z" transform="translate(-2668.5 -1905.11)" fill="#4984bf"/>
        </g>
      </g>
      <g id="Grupo_1044110" data-name="Grupo 1044110" transform="translate(25.532 18.008)">
        <g id="Grupo_1044109" data-name="Grupo 1044109">
          <path id="Trazado_771487" data-name="Trazado 771487" d="M2960.5,1928.69l4.383,2.547,4.416-2.549-4.383-2.548Z" transform="translate(-2960.5 -1926.14)" fill="#4984bf"/>
        </g>
      </g>
      <g id="Grupo_1044112" data-name="Grupo 1044112" transform="translate(30.759 21.047)">
        <g id="Grupo_1044111" data-name="Grupo 1044111">
          <path id="Trazado_771488" data-name="Trazado 771488" d="M3020.28,1963.438l4.387,2.55,4.417-2.55-4.388-2.549Z" transform="translate(-3020.28 -1960.89)" fill="#4984bf"/>
        </g>
      </g>
      <g id="Grupo_1044114" data-name="Grupo 1044114" transform="translate(35.986 24.084)">
        <g id="Grupo_1044113" data-name="Grupo 1044113">
          <path id="Trazado_771489" data-name="Trazado 771489" d="M3080.06,1998.179l4.387,2.549,4.416-2.549-4.386-2.55Z" transform="translate(-3080.06 -1995.63)" fill="#4984bf"/>
        </g>
      </g>
      <g id="Grupo_1044116" data-name="Grupo 1044116" transform="translate(41.214 27.122)">
        <g id="Grupo_1044115" data-name="Grupo 1044115">
          <path id="Trazado_771490" data-name="Trazado 771490" d="M3139.85,2032.92l4.386,2.549,4.416-2.549-4.388-2.55Z" transform="translate(-3139.85 -2030.37)" fill="#4984bf"/>
        </g>
      </g>
      <g id="Grupo_1044118" data-name="Grupo 1044118" transform="translate(46.441 30.159)">
        <g id="Grupo_1044117" data-name="Grupo 1044117">
          <path id="Trazado_771491" data-name="Trazado 771491" d="M3199.63,2067.66l4.387,2.55,4.416-2.55-4.387-2.55Z" transform="translate(-3199.63 -2065.11)" fill="#4984bf"/>
        </g>
      </g>
      <g id="Grupo_1044120" data-name="Grupo 1044120" transform="translate(51.673 33.2)">
        <g id="Grupo_1044119" data-name="Grupo 1044119">
          <path id="Trazado_771492" data-name="Trazado 771492" d="M3259.46,2102.429l4.382,2.547,4.416-2.549-4.384-2.547Z" transform="translate(-3259.46 -2099.88)" fill="#4984bf"/>
        </g>
      </g>
      <g id="Grupo_1044122" data-name="Grupo 1044122" transform="translate(56.899 36.237)">
        <g id="Grupo_1044121" data-name="Grupo 1044121">
          <path id="Trazado_771493" data-name="Trazado 771493" d="M3319.23,2137.17l4.383,2.547,4.416-2.55-4.382-2.547Z" transform="translate(-3319.23 -2134.62)" fill="#4984bf"/>
        </g>
      </g>
      <g id="Grupo_1044124" data-name="Grupo 1044124" transform="translate(62.127 39.275)">
        <g id="Grupo_1044123" data-name="Grupo 1044123">
          <path id="Trazado_771494" data-name="Trazado 771494" d="M3379.02,2171.91l4.387,2.549,4.415-2.549-4.387-2.55Z" transform="translate(-3379.02 -2169.36)" fill="#4984bf"/>
        </g>
      </g>
      <g id="Grupo_1044126" data-name="Grupo 1044126" transform="translate(67.354 42.313)">
        <g id="Grupo_1044125" data-name="Grupo 1044125">
          <path id="Trazado_771495" data-name="Trazado 771495" d="M3438.8,2206.65l4.387,2.55,4.416-2.55-4.387-2.55Z" transform="translate(-3438.8 -2204.1)" fill="#4984bf"/>
        </g>
      </g>
      <g id="Grupo_1044128" data-name="Grupo 1044128" transform="translate(72.816 45.487)">
        <g id="Grupo_1044127" data-name="Grupo 1044127">
          <path id="Trazado_771496" data-name="Trazado 771496" d="M3501.27,2242.959l8.664,5.035,4.416-2.55-8.665-5.035Z" transform="translate(-3501.27 -2240.41)" fill="#4984bf"/>
        </g>
      </g>
      <g id="Grupo_1044130" data-name="Grupo 1044130" transform="translate(17.596 19.784)">
        <g id="Grupo_1044129" data-name="Grupo 1044129">
          <path id="Trazado_771497" data-name="Trazado 771497" d="M2869.74,1949l4.388,2.55,4.416-2.55-4.387-2.549Z" transform="translate(-2869.74 -1946.45)" fill="#4984bf"/>
        </g>
      </g>
      <g id="Grupo_1044132" data-name="Grupo 1044132" transform="translate(22.828 22.823)">
        <g id="Grupo_1044131" data-name="Grupo 1044131">
          <path id="Trazado_771498" data-name="Trazado 771498" d="M2929.57,1983.76l4.383,2.547,4.416-2.55-4.383-2.547Z" transform="translate(-2929.57 -1981.21)" fill="#4984bf"/>
        </g>
      </g>
      <g id="Grupo_1044134" data-name="Grupo 1044134" transform="translate(28.055 25.861)">
        <g id="Grupo_1044133" data-name="Grupo 1044133">
          <path id="Trazado_771499" data-name="Trazado 771499" d="M2989.35,2018.5l4.383,2.547,4.416-2.549-4.383-2.548Z" transform="translate(-2989.35 -2015.95)" fill="#4984bf"/>
        </g>
      </g>
      <g id="Grupo_1044136" data-name="Grupo 1044136" transform="translate(33.283 28.899)">
        <g id="Grupo_1044135" data-name="Grupo 1044135">
          <path id="Trazado_771500" data-name="Trazado 771500" d="M3049.14,2053.249l4.387,2.55,4.416-2.55-4.387-2.549Z" transform="translate(-3049.14 -2050.7)" fill="#4984bf"/>
        </g>
      </g>
      <g id="Grupo_1044138" data-name="Grupo 1044138" transform="translate(38.51 31.937)">
        <g id="Grupo_1044137" data-name="Grupo 1044137">
          <path id="Trazado_771501" data-name="Trazado 771501" d="M3108.92,2087.989l4.386,2.549,4.416-2.549-4.387-2.549Z" transform="translate(-3108.92 -2085.44)" fill="#4984bf"/>
        </g>
      </g>
      <g id="Grupo_1044140" data-name="Grupo 1044140" transform="translate(43.737 34.975)">
        <g id="Grupo_1044139" data-name="Grupo 1044139">
          <path id="Trazado_771502" data-name="Trazado 771502" d="M3168.7,2122.729l4.387,2.549,4.416-2.549-4.387-2.549Z" transform="translate(-3168.7 -2120.18)" fill="#4984bf"/>
        </g>
      </g>
      <g id="Grupo_1044142" data-name="Grupo 1044142" transform="translate(48.964 38.012)">
        <g id="Grupo_1044141" data-name="Grupo 1044141">
          <path id="Trazado_771503" data-name="Trazado 771503" d="M3228.48,2157.469l4.387,2.549,4.415-2.549-4.386-2.55Z" transform="translate(-3228.48 -2154.92)" fill="#4984bf"/>
        </g>
      </g>
      <g id="Grupo_1044144" data-name="Grupo 1044144" transform="translate(54.195 41.053)">
        <g id="Grupo_1044143" data-name="Grupo 1044143">
          <path id="Trazado_771504" data-name="Trazado 771504" d="M3288.31,2192.239l4.383,2.547,4.415-2.549-4.382-2.547Z" transform="translate(-3288.31 -2189.69)" fill="#4984bf"/>
        </g>
      </g>
      <g id="Grupo_1044146" data-name="Grupo 1044146" transform="translate(59.423 44.09)">
        <g id="Grupo_1044145" data-name="Grupo 1044145">
          <path id="Trazado_771505" data-name="Trazado 771505" d="M3348.09,2226.979l4.384,2.546,4.415-2.549-4.383-2.547Z" transform="translate(-3348.09 -2224.43)" fill="#4984bf"/>
        </g>
      </g>
      <g id="Grupo_1044148" data-name="Grupo 1044148" transform="translate(64.79 47.209)">
        <g id="Grupo_1044147" data-name="Grupo 1044147">
          <path id="Trazado_771506" data-name="Trazado 771506" d="M3409.469,2262.65l11.178,6.5,4.416-2.55-11.178-6.5Z" transform="translate(-3409.469 -2260.1)" fill="#4984bf"/>
        </g>
      </g>
      <g id="Grupo_1044150" data-name="Grupo 1044150" transform="translate(12.116 23.211)">
        <g id="Grupo_1044149" data-name="Grupo 1044149">
          <path id="Trazado_771507" data-name="Trazado 771507" d="M2807.07,1988.189l4.388,2.55,4.415-2.548-4.387-2.55Z" transform="translate(-2807.07 -1985.64)" fill="#4984bf"/>
        </g>
      </g>
      <g id="Grupo_1044152" data-name="Grupo 1044152" transform="translate(17.306 26.226)">
        <g id="Grupo_1044151" data-name="Grupo 1044151">
          <path id="Trazado_771508" data-name="Trazado 771508" d="M2866.42,2022.679l4.387,2.55,4.416-2.549-4.387-2.55Z" transform="translate(-2866.42 -2020.13)" fill="#4984bf"/>
        </g>
      </g>
      <g id="Grupo_1044154" data-name="Grupo 1044154" transform="translate(22.495 29.242)">
        <g id="Grupo_1044153" data-name="Grupo 1044153">
          <path id="Trazado_771509" data-name="Trazado 771509" d="M2925.77,2057.169l4.383,2.548,4.416-2.55-4.384-2.547Z" transform="translate(-2925.77 -2054.62)" fill="#4984bf"/>
        </g>
      </g>
      <g id="Grupo_1044156" data-name="Grupo 1044156" transform="translate(27.681 32.256)">
        <g id="Grupo_1044155" data-name="Grupo 1044155">
          <path id="Trazado_771510" data-name="Trazado 771510" d="M2985.08,2091.639l4.386,2.55,4.416-2.55-4.387-2.549Z" transform="translate(-2985.08 -2089.09)" fill="#4984bf"/>
        </g>
      </g>
      <g id="Grupo_1044158" data-name="Grupo 1044158" transform="translate(32.852 35.261)">
        <g id="Grupo_1044157" data-name="Grupo 1044157">
          <path id="Trazado_771511" data-name="Trazado 771511" d="M3044.209,2126l19.9,11.567,4.416-2.549-19.9-11.567Z" transform="translate(-3044.209 -2123.45)" fill="#4984bf"/>
        </g>
      </g>
      <g id="Grupo_1044160" data-name="Grupo 1044160" transform="translate(53.791 47.429)">
        <g id="Grupo_1044159" data-name="Grupo 1044159">
          <path id="Trazado_771512" data-name="Trazado 771512" d="M3283.68,2265.16l4.388,2.55,4.416-2.55-4.388-2.55Z" transform="translate(-3283.68 -2262.61)" fill="#4984bf"/>
        </g>
      </g>
      <g id="Grupo_1044162" data-name="Grupo 1044162" transform="translate(59.082 50.505)">
        <g id="Grupo_1044161" data-name="Grupo 1044161">
          <path id="Trazado_771513" data-name="Trazado 771513" d="M3344.2,2300.339l11.178,6.5,4.416-2.55-11.178-6.5Z" transform="translate(-3344.199 -2297.79)" fill="#4984bf"/>
        </g>
      </g>
    </g>
    <path id="Trazado_771514" data-name="Trazado 771514" d="M2803.86,2142.861a1.5,1.5,0,0,0,.518.463l18.24,10.528a3.61,3.61,0,0,0,3.272,0l8.508-4.91a1.529,1.529,0,0,0,.517-.458c.327-.479.153-1.045-.517-1.432l-18.24-10.533a3.629,3.629,0,0,0-3.267,0l-8.513,4.916C2803.713,2141.822,2803.539,2142.382,2803.86,2142.861Z" transform="translate(-612.286 -1383.422)" fill="#396caa"/>
    <path id="Trazado_771515" data-name="Trazado 771515" d="M2805.49,2152.947a1.5,1.5,0,0,0,.517.462l18.241,10.528a3.609,3.609,0,0,0,3.272,0l8.508-4.911a1.529,1.529,0,0,0,.517-.457,1.492,1.492,0,0,0-.517-.463l-18.24-10.533a3.6,3.6,0,0,0-3.267,0l-8.513,4.916A1.438,1.438,0,0,0,2805.49,2152.947Z" transform="translate(-613.916 -1393.508)" fill="#4984bf"/>
    <path id="Trazado_771516" data-name="Trazado 771516" d="M3506.49,993.081h0s0,0,0,0Z" transform="translate(-1253.621 -340.319)" fill="#396caa"/>
    <path id="Trazado_771517" data-name="Trazado 771517" d="M2344.373,1813.9c-.924-.533-1.672-.107-1.672.952a3.686,3.686,0,0,0,1.672,2.884c.924.533,1.673.107,1.673-.952A3.682,3.682,0,0,0,2344.373,1813.9Zm0,3.05a2.172,2.172,0,0,1-.987-1.7c0-.625.442-.876.987-.562a2.172,2.172,0,0,1,.988,1.7C2345.36,1817.013,2344.918,1817.264,2344.373,1816.95Z" transform="translate(-191.592 -1089.157)" fill="#ff6041"/>
    <g id="Grupo_1044170" data-name="Grupo 1044170" transform="translate(2266.584 762.919)">
      <path id="Trazado_771518" data-name="Trazado 771518" d="M3692.684,2319.8l-28.761,16.605a.83.83,0,0,0-.01,1.572l28.552,16.485a3.009,3.009,0,0,0,2.724-.006l28.761-16.606a.83.83,0,0,0,.01-1.573l-28.552-16.485A3.014,3.014,0,0,0,3692.684,2319.8Z" transform="translate(-3663.354 -2313.654)" fill="#c4dbf2"/>
      <g id="Grupo_1044169" data-name="Grupo 1044169" transform="translate(1.538 0)">
        <g id="Grupo_1044166" data-name="Grupo 1044166">
          <g id="Grupo_1044164" data-name="Grupo 1044164">
            <path id="Trazado_771519" data-name="Trazado 771519" d="M3752.256,2272.615a6.431,6.431,0,0,0-2.685-5.129l-24.7-14.261a1.726,1.726,0,0,0-1.739-.149h0l-29.07,16.892a1.832,1.832,0,0,1,1.539.241l24.7,14.262a6.428,6.428,0,0,1,2.685,5.129,2.477,2.477,0,0,1-.828,2.106h0l29.057-16.865a1.336,1.336,0,0,0,.257-.149h0A2.521,2.521,0,0,0,3752.256,2272.615Z" transform="translate(-3692.913 -2252.905)" fill="#0affc6"/>
            <path id="Trazado_771520" data-name="Trazado 771520" d="M3721.218,2460.193l-24.7-14.261a1.707,1.707,0,0,0-1.776-.126,1.866,1.866,0,0,1,1.478.26l24.7,14.261a6.428,6.428,0,0,1,2.684,5.129h0a2.39,2.39,0,0,1-.909,2.155c.727-.221,1.207-1.042,1.207-2.29h0A6.431,6.431,0,0,0,3721.218,2460.193Z" transform="translate(-3693.534 -2428.761)" fill="#fff"/>
            <path id="Trazado_771521" data-name="Trazado 771521" d="M4045.5,2448.517a6.6,6.6,0,0,0-.723-2.857l-29.3,16.918a6.615,6.615,0,0,1,.755,2.923,2.478,2.478,0,0,1-.828,2.105h0l29.057-16.865a1.423,1.423,0,0,0,.257-.149h0A2.525,2.525,0,0,0,4045.5,2448.517Z" transform="translate(-3986.156 -2428.806)" fill="#396caa"/>
            <path id="Trazado_771522" data-name="Trazado 771522" d="M3711.021,2466.856a6.618,6.618,0,0,0-.755-2.923,5.349,5.349,0,0,0-1.93-2.206l-24.7-14.261a1.829,1.829,0,0,0-1.538-.241c-.693.248-1.146,1.057-1.146,2.271a6.43,6.43,0,0,0,2.684,5.13l24.7,14.261a1.671,1.671,0,0,0,1.857.076h0A2.48,2.48,0,0,0,3711.021,2466.856Z" transform="translate(-3680.949 -2430.16)" fill="#173d7a"/>
          </g>
          <g id="Grupo_1044165" data-name="Grupo 1044165" transform="translate(15.49 28.211)">
            <ellipse id="Elipse_6128" data-name="Elipse 6128" cx="0.59" cy="1.021" rx="0.59" ry="1.021" transform="translate(0 0.597) rotate(-30.357)" fill="#ff6041"/>
            <ellipse id="Elipse_6129" data-name="Elipse 6129" cx="0.59" cy="1.021" rx="0.59" ry="1.021" transform="translate(2.7 2.196) rotate(-30.357)" fill="#ff6041"/>
            <ellipse id="Elipse_6130" data-name="Elipse 6130" cx="0.59" cy="1.021" rx="0.59" ry="1.021" transform="translate(5.386 3.775) rotate(-30.357)" fill="#0affc6"/>
            <ellipse id="Elipse_6131" data-name="Elipse 6131" cx="0.59" cy="1.021" rx="0.59" ry="1.021" transform="translate(8.116 5.311) rotate(-30.357)" fill="#0affc6"/>
          </g>
        </g>
        <g id="Grupo_1044168" data-name="Grupo 1044168" transform="translate(19.583 8.802)">
          <g id="Grupo_1044167" data-name="Grupo 1044167">
            <path id="Trazado_771523" data-name="Trazado 771523" d="M3914.662,2365.815l-9.358-5.4c-.575-.331-.5-.911.161-1.293l9.035-5.217a2.488,2.488,0,0,1,2.24-.093l9.358,5.4c.574.331.5.911-.161,1.293l-9.034,5.216A2.493,2.493,0,0,1,3914.662,2365.815Z" transform="translate(-3904.916 -2353.584)" fill="#396caa"/>
            <path id="Trazado_771524" data-name="Trazado 771524" d="M3905.3,2360.4l.027.015a1.508,1.508,0,0,1,.135-.093l9.035-5.217a2.491,2.491,0,0,1,2.24-.093l9.33,5.387c.529-.379.557-.894.027-1.2l-9.358-5.4a2.488,2.488,0,0,0-2.24.093l-9.035,5.217C3904.8,2359.486,3904.729,2360.066,3905.3,2360.4Z" transform="translate(-3904.916 -2353.569)" fill="#173d7a"/>
          </g>
          <path id="Trazado_771525" data-name="Trazado 771525" d="M3993.762,2398.441a.4.4,0,0,1-.027-.094c.006-1.083.015-2.164.019-3.247,0-.187.105-.337.4-.427.465-.139,1.015.035,1.06.335a.809.809,0,0,1,0,.115q-.023,1.824-.047,3.649c0,.3-.266.461-.786.476l-3.164.092a.988.988,0,0,1-.733-.209c-.257-.246.021-.578.525-.606.541-.03,1.087-.036,1.63-.052Z" transform="translate(-3982.921 -2391.034)" fill="#0affc6"/>
        </g>
      </g>
    </g>
    <g id="Grupo_1044174" data-name="Grupo 1044174" transform="translate(2178.737 632.571)">
      <g id="Grupo_1044171" data-name="Grupo 1044171">
        <path id="Trazado_771526" data-name="Trazado 771526" d="M2684.17,806.041v-.154l0-.7-.108-20.868a2,2,0,0,0-.917-1.555l-23.5-13.123-.06-.033c-.346-.2-.644-.147-.8.089a.788.788,0,0,0-.106.433l.114,21.718a2,2,0,0,0,.917,1.555l23.559,13.157a.616.616,0,0,0,.676.038A.655.655,0,0,0,2684.17,806.041Z" transform="translate(-2658.68 -768.85)" fill="#173d7a"/>
        <path id="Trazado_771527" data-name="Trazado 771527" d="M2687.687,798.66,2687.573,777a2,2,0,0,0-.917-1.555L2663.1,762.291a.968.968,0,0,0-.264-.106v0a.422.422,0,0,0-.142-.006l-1.21.7h0a.629.629,0,0,1,.657.052l.059.033,23.5,13.123a2,2,0,0,1,.917,1.555l.108,20.868,0,.7v.154a.653.653,0,0,1-.226.56l.014,0,.923-.532A.954.954,0,0,0,2687.687,798.66Z" transform="translate(-2661.235 -762.172)" fill="#396caa"/>
      </g>
      <g id="Grupo_1044173" data-name="Grupo 1044173" transform="translate(6.605 9.966)">
        <path id="Trazado_771528" data-name="Trazado 771528" d="M2754.29,936.144v-.031c.06-.236.121-.472.18-.709a.554.554,0,0,1,.72-.47c.405.081.809.158,1.214.24a.3.3,0,0,0,.284-.077,1.018,1.018,0,0,0,.25-.553.235.235,0,0,0-.038-.12,2.584,2.584,0,0,1-.39-1.137.327.327,0,0,0-.078-.2.325.325,0,0,1-.059-.126c-.048-.206-.1-.414-.135-.617-.033-.174-.026-.318.083-.379a.119.119,0,0,0,.044-.1c0-.254,0-.512,0-.769a1.228,1.228,0,0,1,.213-.752c.4-.529,1.173-.375,1.91.367a1.786,1.786,0,0,1,.516.922.221.221,0,0,0,.031.078,1.629,1.629,0,0,1,.267.884c.009.328,0,.648.009.974a.406.406,0,0,0,.044.149.658.658,0,0,1,.1.343,1.871,1.871,0,0,1-.149.588.094.094,0,0,1-.065.06c-.053,0-.07.047-.074.106a.76.76,0,0,1-.387.688c-.039.019-.053.051-.037.116.041.161.073.321.123.483a1.8,1.8,0,0,0,.51.83c.376.342.744.709,1.115,1.067a2.385,2.385,0,0,1,.714,1.294l.155.8c.036.186.023.216-.1.227l-6.846-3.953Z" transform="translate(-2752.535 -925.319)" fill="#0affc6"/>
        <g id="Grupo_1044172" data-name="Grupo 1044172">
          <path id="Trazado_771529" data-name="Trazado 771529" d="M2744.418,894.538l-9.057-5.229a2.518,2.518,0,0,1-1.141-1.967V876.96c0-.721.512-1.013,1.141-.65l9.057,5.229a2.518,2.518,0,0,1,1.141,1.967v10.382C2745.559,894.609,2745.047,894.9,2744.418,894.538Zm-9.057-17.8c-.422-.244-.765-.048-.765.436v10.382a1.687,1.687,0,0,0,.765,1.319l9.057,5.229c.421.244.765.048.765-.435V883.289a1.688,1.688,0,0,0-.765-1.319Z" transform="translate(-2734.22 -876.154)" fill="#0affc6"/>
        </g>
      </g>
    </g>
    <g id="Grupo_1044177" data-name="Grupo 1044177" transform="translate(2284.653 706.046)">
      <path id="Trazado_771530" data-name="Trazado 771530" d="M3892.59,1608.9l.008,0Z" transform="translate(-3890.615 -1608.338)" fill="#0affc6"/>
      <path id="Trazado_771531" data-name="Trazado 771531" d="M3894.26,1609.61l0,0Z" transform="translate(-3892.139 -1608.986)" fill="#0affc6"/>
      <path id="Trazado_771532" data-name="Trazado 771532" d="M3891.07,1608.34Z" transform="translate(-3889.228 -1607.827)" fill="#0affc6"/>
      <path id="Trazado_771533" data-name="Trazado 771533" d="M3895.73,1610.32l.031.016Z" transform="translate(-3893.48 -1609.633)" fill="#0affc6"/>
      <path id="Trazado_771534" data-name="Trazado 771534" d="M3916.249,1628.065a4.977,4.977,0,0,0-2.411-3.769l-37.149-21.448a2.216,2.216,0,0,0-1.482-.353h0a2.275,2.275,0,0,0-1.267.712,1.071,1.071,0,0,1,.615-.32,1.829,1.829,0,0,1,.884.1h0c.044.015.088.031.133.049l.009,0,.137.059,0,0c.041.019.083.039.125.061l.031.016c.043.023.087.046.132.072l37.148,21.448a4.974,4.974,0,0,1,2.411,3.77v20.819a1.516,1.516,0,0,1-.277.946,1.04,1.04,0,0,1-.524.359h0c1.348-.323,1.444-1.3,1.444-1.3h0a1.99,1.99,0,0,0,.039-.4v-20.819Z" transform="translate(-3873.595 -1602.47)" fill="#0affc6"/>
      <path id="Trazado_771535" data-name="Trazado 771535" d="M3872.86,1612.144h0l0,0Z" transform="translate(-3872.609 -1611.294)" fill="#fff"/>
      <path id="Trazado_771536" data-name="Trazado 771536" d="M3911.694,1654.352a1.517,1.517,0,0,0,.277-.946v-20.819a4.977,4.977,0,0,0-2.411-3.77l-37.148-21.448-.132-.073-.031-.016c-.042-.022-.084-.042-.125-.061l0,0c-.046-.021-.091-.04-.137-.059l-.009,0c-.045-.018-.089-.034-.133-.049h0a1.826,1.826,0,0,0-.884-.1,1.073,1.073,0,0,0-.615.32,1.111,1.111,0,0,0-.09.109s0,0,0,0a1.552,1.552,0,0,0-.251.91v20.819a4.977,4.977,0,0,0,2.412,3.769l37.148,21.448a2.086,2.086,0,0,0,1.612.321A1.021,1.021,0,0,0,3911.694,1654.352Z" transform="translate(-3869.999 -1606.595)" fill="#173d7a"/>
      <g id="Grupo_1044175" data-name="Grupo 1044175" transform="translate(2.597 20.261)">
        <path id="Trazado_771537" data-name="Trazado 771537" d="M3911.434,1841.677,3899.7,1834.9v-.712l11.734,6.776Z" transform="translate(-3899.699 -1834.19)" fill="#0affc6"/>
        <path id="Trazado_771538" data-name="Trazado 771538" d="M3917.65,1864.635l-17.95-10.364v-.711l17.95,10.363Z" transform="translate(-3899.699 -1851.866)" fill="#0affc6"/>
      </g>
      <g id="Grupo_1044176" data-name="Grupo 1044176" transform="translate(2.559 16.2)">
        <path id="Trazado_771539" data-name="Trazado 771539" d="M3904.82,1792.373l-5.56-3.21v-1.423l5.56,3.209Z" transform="translate(-3899.26 -1787.74)" fill="#0affc6"/>
        <path id="Trazado_771540" data-name="Trazado 771540" d="M4019.63,1858.133l-5.56-3.21V1853.5l5.56,3.209Z" transform="translate(-4004.031 -1847.75)" fill="#0affc6"/>
        <path id="Trazado_771541" data-name="Trazado 771541" d="M4138.689,1927.713l-5.56-3.209v-1.425l5.56,3.21Z" transform="translate(-4112.681 -1911.246)" fill="#0affc6"/>
        <path id="Trazado_771542" data-name="Trazado 771542" d="M4260.55,1998.294l-5.56-3.21v-1.424l5.56,3.21Z" transform="translate(-4223.885 -1975.655)" fill="#0affc6"/>
      </g>
      <path id="Trazado_771543" data-name="Trazado 771543" d="M4264.39,1873.376l-5.42-3.13v-2.157l5.42,3.129Z" transform="translate(-4224.958 -1844.864)" fill="#0affc6"/>
      <path id="Trazado_771544" data-name="Trazado 771544" d="M3906.17,1668.306l-6.231-3.6v-4.859l6.231,3.6Z" transform="translate(-3897.321 -1654.833)" fill="#0affc6"/>
    </g>
    <g id="Grupo_1044181" data-name="Grupo 1044181" transform="translate(2296.679 676.054)">
      <g id="Grupo_1044178" data-name="Grupo 1044178" transform="translate(0 0)">
        <path id="Trazado_771545" data-name="Trazado 771545" d="M4063.9,1345.653c1.325.761,2.469.538,3.009-.431a3,3,0,0,1-1.562-.455,7.416,7.416,0,0,1-3.356-5.772,2.984,2.984,0,0,1,.334-1.474c-1.06.038-1.786.9-1.783,2.36A7.42,7.42,0,0,0,4063.9,1345.653Z" transform="translate(-4055.906 -1330.695)" fill="#396caa"/>
        <path id="Trazado_771546" data-name="Trazado 771546" d="M4098.208,1469.269l.007-.016-.055-.032Z" transform="translate(-4090.236 -1450.88)" fill="#396caa"/>
        <path id="Trazado_771547" data-name="Trazado 771547" d="M4186.79,1413.871h0Z" transform="translate(-4171.117 -1400.369)" fill="#396caa"/>
        <path id="Trazado_771548" data-name="Trazado 771548" d="M4185.02,1401.5c.011.082.024.162.035.243C4185.043,1401.662,4185.032,1401.581,4185.02,1401.5Z" transform="translate(-4169.501 -1389.081)" fill="#396caa"/>
        <path id="Trazado_771549" data-name="Trazado 771549" d="M4109.71,1289.74l.366.212Z" transform="translate(-4100.776 -1287.093)" fill="#396caa"/>
        <path id="Trazado_771550" data-name="Trazado 771550" d="M4094.457,1277.391c-.075-.529-.151-1.058-.231-1.616-.5-.187-.964-.356-1.432-.544a.532.532,0,0,1-.24-.219c-.278-.711-.539-1.423-.818-2.173l1.029-.818-2.007-3.088c-.314.247-.621.475-.912.723-.108.093-.189.081-.364-.108-.4-.435-.82-.853-1.241-1.24a.557.557,0,0,1-.237-.5c.013-.524,0-1.062,0-1.6l-2.622-1.514-1.449.886,1.449.836.806.465.366.212c0,.536.008,1.074,0,1.6a.558.558,0,0,0,.237.5c.423.386.837.8,1.24,1.24.175.188.255.2.364.108.291-.249.6-.476.912-.723l2.007,3.088-1.029.818c.28.749.541,1.462.818,2.173a.541.541,0,0,0,.24.219c.468.188.934.357,1.433.544.011.082.023.163.035.243.041.284.08.562.12.839h0c.025.178.05.356.076.532.012.085.023.17.035.254.063.439.124.881.19,1.349l1.449-.887C4094.6,1278.436,4094.531,1277.913,4094.457,1277.391Z" transform="translate(-4077.259 -1264.243)" fill="#396caa"/>
        <path id="Trazado_771551" data-name="Trazado 771551" d="M4031.756,1315.5l-.006,0Z" transform="translate(-4029.633 -1310.601)" fill="#396caa"/>
        <path id="Trazado_771552" data-name="Trazado 771552" d="M4031.357,1315.72l-.008,0Z" transform="translate(-4029.268 -1310.801)" fill="#396caa"/>
        <path id="Trazado_771553" data-name="Trazado 771553" d="M4031.6,1315.61l-.005,0S4031.594,1315.612,4031.6,1315.61Z" transform="translate(-4029.487 -1310.701)" fill="#396caa"/>
        <path id="Trazado_771554" data-name="Trazado 771554" d="M4031.934,1315.36l0,0Z" transform="translate(-4029.797 -1310.473)" fill="#396caa"/>
        <path id="Trazado_771555" data-name="Trazado 771555" d="M4032.134,1315.13l0,.005S4032.132,1315.132,4032.134,1315.13Z" transform="translate(-4029.979 -1310.263)" fill="#396caa"/>
        <path id="Trazado_771556" data-name="Trazado 771556" d="M4032.294,1314.92s0,0,0,.006A.03.03,0,0,1,4032.294,1314.92Z" transform="translate(-4030.126 -1310.071)" fill="#396caa"/>
        <path id="Trazado_771557" data-name="Trazado 771557" d="M4031.189,1315.76h0Z" transform="translate(-4029.113 -1310.838)" fill="#396caa"/>
        <path id="Trazado_771558" data-name="Trazado 771558" d="M4030.859,1315.76l.023,0A.1.1,0,0,1,4030.859,1315.76Z" transform="translate(-4028.82 -1310.838)" fill="#396caa"/>
        <path id="Trazado_771559" data-name="Trazado 771559" d="M4030.149,1315.5a.161.161,0,0,0,.032.014.161.161,0,0,1-.032-.014Z" transform="translate(-4028.172 -1310.601)" fill="#396caa"/>
        <path id="Trazado_771560" data-name="Trazado 771560" d="M4030.722,1315.733l-.011,0Z" transform="translate(-4028.684 -1310.811)" fill="#396caa"/>
        <path id="Trazado_771561" data-name="Trazado 771561" d="M4030.523,1315.674l-.013,0Z" transform="translate(-4028.502 -1310.756)" fill="#396caa"/>
        <path id="Trazado_771562" data-name="Trazado 771562" d="M4014.141,1293.913a.71.71,0,0,0,.113.078h0a.154.154,0,0,0,.031.014h0l.013,0h0l.012,0h0l.023,0h.014l.006,0,.008,0,.012-.005.006,0,.008-.005.007,0,.009-.008,0,0,.013-.015,0-.005a.072.072,0,0,0,.01-.013l0-.006.014-.021a8.258,8.258,0,0,1,.688-.964.231.231,0,0,0,.05-.239c-.334-.261-.672-.519-1.018-.787l-1.449.886c.391.3.772.593,1.149.89C4013.967,1293.774,4014.053,1293.843,4014.141,1293.913Z" transform="translate(-4012.277 -1289.092)" fill="#396caa"/>
        <path id="Trazado_771563" data-name="Trazado 771563" d="M4060.184,1284.6l-.045-.088Z" transform="translate(-4055.54 -1282.32)" fill="#396caa"/>
        <path id="Trazado_771564" data-name="Trazado 771564" d="M4061.432,1287.079c-.033-.07-.067-.139-.1-.209C4061.364,1286.94,4061.4,1287.009,4061.432,1287.079Z" transform="translate(-4056.626 -1284.474)" fill="#396caa"/>
        <path id="Trazado_771565" data-name="Trazado 771565" d="M4057.79,1279.91h0Z" transform="translate(-4053.396 -1278.123)" fill="#396caa"/>
        <path id="Trazado_771566" data-name="Trazado 771566" d="M4058.98,1282.229c-.007-.013-.013-.026-.02-.039C4058.967,1282.2,4058.973,1282.216,4058.98,1282.229Z" transform="translate(-4054.463 -1280.203)" fill="#396caa"/>
        <path id="Trazado_771567" data-name="Trazado 771567" d="M4031.478,1260.355c.155.3.313.6.468.9h0l.1.2c.007.013.013.026.02.039.028.055.056.11.083.164l.044.088c.02.04.04.079.058.118.034.07.069.139.1.209.135.277.237.358.444.372a7.7,7.7,0,0,1,1.22.2c.167.039.219-.006.214-.2-.006-.3-.007-.588-.006-.884-.193-.017-.294-.1-.423-.37-.279-.574-.582-1.14-.879-1.72l-2.008.774-1.449.887,1.589-.612Z" transform="translate(-4027.552 -1259.47)" fill="#396caa"/>
        <path id="Trazado_771568" data-name="Trazado 771568" d="M4138.91,1485.39c.017.064.033.129.05.193h0Z" transform="translate(-4127.423 -1465.636)" fill="#396caa"/>
        <path id="Trazado_771569" data-name="Trazado 771569" d="M4138,1474.666c-.045.017-.062.145-.04.232s.049.193.075.29c.017.065.033.129.05.193h0c.021.081.043.164.064.246.1.383.207.77.313,1.167l1.449-.887c-.13-.489-.259-.963-.382-1.432l-.215-.265C4138.863,1474.363,4138.427,1474.5,4138,1474.666Z" transform="translate(-4126.547 -1455.433)" fill="#396caa"/>
        <path id="Trazado_771570" data-name="Trazado 771570" d="M4169.365,1454.066l-.745-.926.745.926Z" transform="translate(-4154.536 -1436.206)" fill="#396caa"/>
        <path id="Trazado_771571" data-name="Trazado 771571" d="M4170.059,1433.08q.037-.277.075-.547c-.359-.136-.714-.268-1.066-.391-.076-.027-.193-.01-.2.054-.094.571-.17,1.157-.254,1.771.238.3.488.605.745.926h0l.639.793q-.15.21-.3.419c-.336.475-.672.947-1.013,1.425l1.449-.887,1.309-1.844C4170.955,1434.192,4170.488,1433.612,4170.059,1433.08Z" transform="translate(-4154.525 -1417.032)" fill="#396caa"/>
        <path id="Trazado_771572" data-name="Trazado 771572" d="M4014.714,1365.438c-.016-.076-.03-.152-.043-.228h0l-1.312.771c.391-.034.76-.094,1.152-.092C4014.753,1365.891,4014.781,1365.764,4014.714,1365.438Z" transform="translate(-4012.851 -1355.964)" fill="#396caa"/>
        <path id="Trazado_771573" data-name="Trazado 771573" d="M4083.559,1464.5q-.31-.182-.62-.38c-.178-.115-.241-.091-.294.057-.15.42-.316.823-.486,1.258l1.512-.869h0l-.057-.032Z" transform="translate(-4075.635 -1446.156)" fill="#396caa"/>
        <path id="Trazado_771574" data-name="Trazado 771574" d="M4022.081,1283.8c.352.122.705.256,1.066.391l.367.138c-.066-.468-.128-.91-.19-1.349-.012-.085-.023-.17-.036-.255-.025-.177-.051-.354-.076-.532h0c-.039-.276-.08-.554-.12-.839-.011-.081-.022-.162-.034-.243-.5-.187-.964-.356-1.433-.544a.538.538,0,0,1-.24-.22c-.278-.711-.538-1.423-.817-2.173l1.029-.818-2.007-3.088c-.315.248-.621.475-.912.723-.109.093-.19.081-.364-.107-.4-.436-.82-.854-1.241-1.24a.556.556,0,0,1-.237-.5c.013-.524,0-1.062,0-1.6l-.366-.212-.806-.465-1.449-.836c0,.252,0,.5,0,.743,0,.3,0,.589.006.884,0,.2-.047.24-.214.2a7.637,7.637,0,0,0-1.22-.2c-.206-.013-.309-.095-.444-.372-.033-.07-.068-.139-.1-.209l-.059-.118-.044-.088-.083-.164c-.007-.013-.013-.026-.02-.039l-.1-.2h0c-.155-.3-.312-.6-.468-.9l-.419.162-1.59.612c.322.626.622,1.221.934,1.809a.794.794,0,0,1,.067.156.232.232,0,0,1-.049.239,8.469,8.469,0,0,0-.688.964.152.152,0,0,1-.014.021l0,.006-.01.013,0,.005-.013.015,0,0-.01.008-.006,0-.008.005-.006,0-.012.005-.007,0-.006,0h-.014a.1.1,0,0,1-.023,0h0l-.012,0h0l-.013,0h0l-.031-.014a.827.827,0,0,1-.113-.078l-.261-.208c-.377-.3-.758-.588-1.149-.89-.154.915-.3,1.794-.454,2.691.482.378.939.748,1.4,1.089a.56.56,0,0,1,.256.466c.043.421.087.844.164,1.276.013.076.028.152.043.228.066.326.039.453-.2.452-.391,0-.761.057-1.152.092.446,1.14.874,2.238,1.31,3.357l1.405-.115,1.388,2.141c-.177.461-.36.935-.55,1.429l2.462,2.448c.169-.436.336-.84.485-1.258.052-.148.115-.171.295-.057.207.132.413.26.62.38l.055.032.057.032c.2.114.4.222.594.323a.577.577,0,0,1,.346.459c.144.589.316,1.182.478,1.781l2.46.392c-.106-.4-.211-.784-.312-1.167-.022-.082-.043-.163-.065-.246-.016-.065-.034-.13-.051-.193-.025-.1-.05-.193-.074-.29s-.005-.214.041-.232c.427-.161.863-.3,1.313-.455l.214.265,1.177,1.456c.339-.479.676-.951,1.012-1.425l.3-.419-.638-.793-.745-.926c.085-.614.16-1.2.254-1.771C4021.888,1283.786,4022,1283.769,4022.081,1283.8Zm-3.542-.582c-.541.969-1.683,1.193-3.009.431a7.416,7.416,0,0,1-3.355-5.772c0-1.46.723-2.322,1.783-2.36a2.972,2.972,0,0,1,1.567.452,7.381,7.381,0,0,1,3.347,5.768A3.019,3.019,0,0,1,4018.539,1283.213Z" transform="translate(-4007.538 -1268.687)" fill="#173d7a"/>
      </g>
      <g id="Grupo_1044179" data-name="Grupo 1044179" transform="translate(13.519 20.525)">
        <path id="Trazado_771575" data-name="Trazado 771575" d="M4206.98,1562.769c1.055.606,1.964.428,2.394-.343a2.386,2.386,0,0,1-1.242-.362,5.9,5.9,0,0,1-2.669-4.592,2.366,2.366,0,0,1,.266-1.172c-.843.031-1.42.716-1.418,1.877A5.9,5.9,0,0,0,4206.98,1562.769Z" transform="translate(-4200.624 -1550.87)" fill="#396caa"/>
        <path id="Trazado_771576" data-name="Trazado 771576" d="M4234.288,1661.108a.064.064,0,0,0,0-.013l-.043-.025Z" transform="translate(-4227.946 -1646.479)" fill="#396caa"/>
        <path id="Trazado_771577" data-name="Trazado 771577" d="M4304.741,1617.031h0Z" transform="translate(-4292.271 -1606.29)" fill="#396caa"/>
        <path id="Trazado_771578" data-name="Trazado 771578" d="M4303.34,1607.19c.009.065.018.129.027.193C4303.358,1607.319,4303.349,1607.255,4303.34,1607.19Z" transform="translate(-4290.994 -1597.31)" fill="#396caa"/>
        <path id="Trazado_771579" data-name="Trazado 771579" d="M4243.43,1518.29l.292.169Z" transform="translate(-4236.323 -1516.184)" fill="#396caa"/>
        <path id="Trazado_771580" data-name="Trazado 771580" d="M4231.278,1508.465c-.06-.421-.121-.842-.184-1.285-.4-.149-.768-.283-1.14-.433a.429.429,0,0,1-.191-.175c-.221-.566-.429-1.132-.651-1.728l.818-.65-1.6-2.457c-.25.2-.494.378-.726.575-.087.073-.151.064-.29-.086-.32-.346-.651-.678-.987-.986a.447.447,0,0,1-.189-.4c.011-.417,0-.845,0-1.271l-2.084-1.2-1.152.7,1.152.665.641.37.292.169c0,.427.006.854,0,1.271a.445.445,0,0,0,.188.4c.336.308.667.64.988.986.138.15.2.159.29.086.231-.2.475-.379.726-.575l1.6,2.457-.818.65c.223.6.43,1.163.651,1.728a.432.432,0,0,0,.191.175c.372.15.743.283,1.14.433.009.065.018.13.028.193.032.226.063.448.1.667h0c.02.142.041.282.06.424.01.067.019.135.029.2.049.349.1.7.151,1.074l1.152-.7C4231.4,1509.3,4231.337,1508.881,4231.278,1508.465Z" transform="translate(-4217.597 -1498.005)" fill="#396caa"/>
        <path id="Trazado_771581" data-name="Trazado 771581" d="M4181.415,1538.78l0,0Z" transform="translate(-4179.726 -1534.882)" fill="#396caa"/>
        <path id="Trazado_771582" data-name="Trazado 771582" d="M4181.106,1538.95l-.007,0Z" transform="translate(-4179.443 -1535.037)" fill="#396caa"/>
        <path id="Trazado_771583" data-name="Trazado 771583" d="M4181.285,1538.87l0,0Z" transform="translate(-4179.607 -1534.964)" fill="#396caa"/>
        <path id="Trazado_771584" data-name="Trazado 771584" d="M4181.563,1538.67l0,0S4181.561,1538.671,4181.563,1538.67Z" transform="translate(-4179.863 -1534.781)" fill="#396caa"/>
        <path id="Trazado_771585" data-name="Trazado 771585" d="M4181.713,1538.49l0,0Z" transform="translate(-4179.999 -1534.617)" fill="#396caa"/>
        <path id="Trazado_771586" data-name="Trazado 771586" d="M4181.843,1538.32s0,0,0,0S4181.843,1538.322,4181.843,1538.32Z" transform="translate(-4180.118 -1534.462)" fill="#396caa"/>
        <path id="Trazado_771587" data-name="Trazado 771587" d="M4180.966,1538.99h0Z" transform="translate(-4179.315 -1535.074)" fill="#396caa"/>
        <path id="Trazado_771588" data-name="Trazado 771588" d="M4180.7,1538.99h0Z" transform="translate(-4179.078 -1535.074)" fill="#396caa"/>
        <path id="Trazado_771589" data-name="Trazado 771589" d="M4180.14,1538.78a.223.223,0,0,0,.025.011.223.223,0,0,1-.025-.011Z" transform="translate(-4178.567 -1534.882)" fill="#396caa"/>
        <path id="Trazado_771590" data-name="Trazado 771590" d="M4180.59,1538.972l-.01,0Z" transform="translate(-4178.968 -1535.055)" fill="#396caa"/>
        <path id="Trazado_771591" data-name="Trazado 771591" d="M4180.439,1538.913l-.01,0Z" transform="translate(-4178.831 -1535)" fill="#396caa"/>
        <path id="Trazado_771592" data-name="Trazado 771592" d="M4167.383,1521.6a.64.64,0,0,0,.089.062h0l.024.011h0l.011,0h0l.01,0h0a.055.055,0,0,0,.017,0h.017l.006,0,.01,0,0,0,.006,0,.005,0,.007-.006s0,0,0,0l.011-.011s0,0,0,0l.008-.01a.01.01,0,0,1,0,0,.161.161,0,0,0,.01-.017,6.7,6.7,0,0,1,.547-.768.182.182,0,0,0,.04-.19c-.266-.208-.534-.413-.81-.626l-1.152.7c.311.241.613.472.914.708C4167.245,1521.488,4167.314,1521.543,4167.383,1521.6Z" transform="translate(-4165.9 -1517.762)" fill="#396caa"/>
        <path id="Trazado_771593" data-name="Trazado 771593" d="M4204.034,1514.21c-.01-.024-.023-.047-.034-.07C4204.012,1514.163,4204.024,1514.186,4204.034,1514.21Z" transform="translate(-4200.34 -1512.396)" fill="#396caa"/>
        <path id="Trazado_771594" data-name="Trazado 771594" d="M4205.021,1516.176c-.026-.055-.054-.111-.081-.166C4204.967,1516.065,4204.994,1516.12,4205.021,1516.176Z" transform="translate(-4201.198 -1514.103)" fill="#396caa"/>
        <path id="Trazado_771595" data-name="Trazado 771595" d="M4202.13,1510.47h0Z" transform="translate(-4198.634 -1509.047)" fill="#396caa"/>
        <path id="Trazado_771596" data-name="Trazado 771596" d="M4203.076,1512.311l-.016-.031Z" transform="translate(-4199.483 -1510.699)" fill="#396caa"/>
        <path id="Trazado_771597" data-name="Trazado 771597" d="M4181.2,1494.9c.124.241.25.479.371.718h0c.028.052.054.105.082.158l.016.031c.022.044.045.087.066.13.013.024.023.047.036.07l.046.094c.027.055.055.111.081.166.107.22.189.285.353.3a6.043,6.043,0,0,1,.97.158c.134.031.174-.005.171-.161,0-.235,0-.469,0-.7-.153-.013-.234-.081-.338-.295-.22-.456-.461-.907-.7-1.367l-1.6.615-1.153.7,1.265-.487Z" transform="translate(-4178.074 -1494.2)" fill="#396caa"/>
        <path id="Trazado_771598" data-name="Trazado 771598" d="M4266.66,1673.92c.013.052.025.1.04.154h0C4266.686,1674.022,4266.673,1673.971,4266.66,1673.92Z" transform="translate(-4257.521 -1658.206)" fill="#396caa"/>
        <path id="Trazado_771599" data-name="Trazado 771599" d="M4265.937,1665.392c-.037.014-.049.115-.033.185s.04.154.06.231c.014.052.026.1.041.154h0c.017.065.034.13.051.195.081.3.164.613.249.929l1.152-.7c-.1-.389-.207-.766-.3-1.139-.058-.071-.115-.142-.17-.211C4266.623,1665.151,4266.275,1665.264,4265.937,1665.392Z" transform="translate(-4256.826 -1650.093)" fill="#396caa"/>
        <path id="Trazado_771600" data-name="Trazado 771600" d="M4290.882,1649l-.592-.737.592.737Z" transform="translate(-4279.085 -1634.789)" fill="#396caa"/>
        <path id="Trazado_771601" data-name="Trazado 771601" d="M4291.452,1632.307l.06-.435c-.286-.108-.567-.213-.847-.311-.062-.021-.154-.008-.162.043-.076.454-.135.921-.2,1.409l.592.737h0l.508.631c-.078.111-.158.222-.237.333-.269.378-.535.753-.8,1.134l1.152-.7c.349-.493.694-.977,1.042-1.468C4292.163,1633.191,4291.792,1632.731,4291.452,1632.307Z" transform="translate(-4279.095 -1619.54)" fill="#396caa"/>
        <path id="Trazado_771602" data-name="Trazado 771602" d="M4167.848,1578.511c-.012-.06-.023-.121-.033-.181h0l-1.045.614c.312-.027.606-.075.917-.072C4167.879,1578.871,4167.9,1578.771,4167.848,1578.511Z" transform="translate(-4166.366 -1570.974)" fill="#396caa"/>
        <path id="Trazado_771603" data-name="Trazado 771603" d="M4222.624,1657.3c-.165-.1-.33-.2-.494-.3-.142-.091-.192-.073-.234.045-.119.333-.251.655-.386,1l1.2-.692h0l-.045-.026Z" transform="translate(-4216.319 -1642.713)" fill="#396caa"/>
        <path id="Trazado_771604" data-name="Trazado 771604" d="M4173.718,1513.556c.28.1.562.2.848.311l.291.109c-.052-.372-.1-.724-.15-1.074-.009-.067-.019-.135-.028-.2-.02-.141-.041-.282-.061-.424h0c-.031-.219-.063-.441-.1-.667-.008-.064-.018-.129-.027-.193-.4-.149-.767-.283-1.14-.433a.438.438,0,0,1-.191-.175c-.221-.566-.429-1.132-.65-1.728l.818-.65-1.6-2.457c-.25.2-.495.378-.726.575-.086.073-.151.064-.289-.086-.321-.346-.652-.679-.987-.986a.444.444,0,0,1-.188-.4c.01-.417,0-.845,0-1.271l-.292-.169-.641-.37-1.153-.666c0,.2,0,.4,0,.591,0,.235,0,.468,0,.7,0,.156-.037.191-.171.161a6.172,6.172,0,0,0-.971-.158c-.164-.01-.246-.075-.353-.3-.026-.055-.054-.111-.081-.166-.015-.031-.031-.062-.047-.094l-.036-.07c-.021-.044-.043-.086-.066-.13l-.016-.031-.082-.158h0c-.122-.238-.248-.476-.372-.718l-.333.129-1.264.487c.255.5.494.97.743,1.439a.717.717,0,0,1,.053.124.186.186,0,0,1-.04.19,6.649,6.649,0,0,0-.547.768l-.01.017,0,0-.008.01s0,0,0,0l-.011.011,0,0s0,0-.006.006l-.005,0-.007,0,0,0-.01,0-.006,0h-.034l-.01,0h0l-.011,0h0l-.025-.011a.594.594,0,0,1-.089-.062c-.069-.056-.138-.11-.208-.165-.3-.236-.6-.467-.913-.708-.123.727-.241,1.427-.362,2.141.384.3.747.6,1.114.866a.444.444,0,0,1,.2.371c.034.334.069.672.13,1.015q.015.091.034.181c.054.26.031.36-.161.359-.311,0-.606.046-.917.073.354.907.7,1.78,1.043,2.67l1.118-.092,1.1,1.7-.438,1.137,1.959,1.947c.134-.346.267-.667.386-1,.042-.118.091-.137.234-.045.165.1.329.206.493.3l.044.025.045.026q.236.136.472.256a.458.458,0,0,1,.276.365c.114.468.251.941.38,1.417l1.957.312c-.083-.316-.167-.624-.248-.929-.018-.065-.034-.13-.052-.195s-.027-.1-.04-.154c-.02-.077-.041-.154-.06-.231s0-.171.033-.185c.34-.128.687-.24,1.045-.362l.171.211.936,1.158c.271-.381.538-.756.806-1.134l.237-.333-.508-.631c-.2-.255-.4-.5-.592-.737.068-.488.126-.954.2-1.409C4173.565,1513.548,4173.657,1513.535,4173.718,1513.556Zm-2.817-.464c-.43.77-1.339.949-2.393.343a5.9,5.9,0,0,1-2.67-4.591c0-1.162.576-1.848,1.418-1.877a2.373,2.373,0,0,1,1.247.359,5.865,5.865,0,0,1,2.663,4.588A2.412,2.412,0,0,1,4170.9,1513.093Z" transform="translate(-4162.15 -1501.537)" fill="#173d7a"/>
      </g>
      <g id="Grupo_1044180" data-name="Grupo 1044180" transform="translate(18.467 9.519)">
        <path id="Trazado_771605" data-name="Trazado 771605" d="M4252.467,1419.9c.793.456,1.477.322,1.8-.258a1.791,1.791,0,0,1-.934-.273,4.436,4.436,0,0,1-2.008-3.453,1.789,1.789,0,0,1,.2-.882c-.634.023-1.068.539-1.066,1.412A4.431,4.431,0,0,0,4252.467,1419.9Z" transform="translate(-4247.687 -1410.947)" fill="#396caa"/>
        <path id="Trazado_771606" data-name="Trazado 771606" d="M4272.979,1493.859a.076.076,0,0,0,0-.01l-.033-.019Z" transform="translate(-4268.211 -1482.857)" fill="#396caa"/>
        <path id="Trazado_771607" data-name="Trazado 771607" d="M4325.98,1460.711h0Z" transform="translate(-4316.603 -1452.633)" fill="#396caa"/>
        <path id="Trazado_771608" data-name="Trazado 771608" d="M4324.92,1453.31c.006.049.014.1.021.146C4324.934,1453.408,4324.926,1453.359,4324.92,1453.31Z" transform="translate(-4315.635 -1445.88)" fill="#396caa"/>
        <path id="Trazado_771609" data-name="Trazado 771609" d="M4279.87,1386.45l.22.127Z" transform="translate(-4274.525 -1384.866)" fill="#396caa"/>
        <path id="Trazado_771610" data-name="Trazado 771610" d="M4270.731,1379.09c-.044-.317-.089-.633-.138-.966-.3-.112-.576-.213-.856-.325a.325.325,0,0,1-.145-.131c-.166-.425-.321-.851-.49-1.3l.616-.489-1.2-1.848c-.188.148-.372.284-.546.433-.064.055-.114.048-.218-.065-.241-.261-.49-.51-.742-.741a.333.333,0,0,1-.142-.3c.008-.313,0-.635,0-.956l-1.567-.905-.867.53.867.5.481.278.22.127c0,.321,0,.643,0,.956a.334.334,0,0,0,.142.3c.252.231.5.482.742.741.1.113.153.12.218.065.174-.149.357-.285.546-.433.4.616.792,1.221,1.2,1.848l-.616.489c.167.449.324.875.491,1.3a.319.319,0,0,0,.144.131c.28.112.559.213.857.325.007.049.014.1.021.146l.072.5h0l.045.318q.01.076.022.152c.037.262.074.527.114.807l.867-.53C4270.82,1379.716,4270.776,1379.4,4270.731,1379.09Z" transform="translate(-4260.443 -1371.224)" fill="#396caa"/>
        <path id="Trazado_771611" data-name="Trazado 771611" d="M4233.233,1401.87l0,0Z" transform="translate(-4231.963 -1398.938)" fill="#396caa"/>
        <path id="Trazado_771612" data-name="Trazado 771612" d="M4232.985,1402l-.005,0Z" transform="translate(-4231.735 -1399.057)" fill="#396caa"/>
        <path id="Trazado_771613" data-name="Trazado 771613" d="M4233.133,1401.93l0,0Z" transform="translate(-4231.872 -1398.993)" fill="#396caa"/>
        <path id="Trazado_771614" data-name="Trazado 771614" d="M4233.332,1401.78l0,0Z" transform="translate(-4232.054 -1398.856)" fill="#396caa"/>
        <path id="Trazado_771615" data-name="Trazado 771615" d="M4233.453,1401.65l0,0Z" transform="translate(-4232.164 -1398.737)" fill="#396caa"/>
        <path id="Trazado_771616" data-name="Trazado 771616" d="M4233.553,1401.52l0,0Z" transform="translate(-4232.255 -1398.619)" fill="#396caa"/>
        <path id="Trazado_771617" data-name="Trazado 771617" d="M4232.885,1402.02h0Z" transform="translate(-4231.644 -1399.075)" fill="#396caa"/>
        <path id="Trazado_771618" data-name="Trazado 771618" d="M4232.69,1402.02h0Z" transform="translate(-4231.47 -1399.075)" fill="#396caa"/>
        <path id="Trazado_771619" data-name="Trazado 771619" d="M4232.27,1401.87l.018.009-.018-.009Z" transform="translate(-4231.086 -1398.938)" fill="#396caa"/>
        <path id="Trazado_771620" data-name="Trazado 771620" d="M4232.616,1402l-.006,0Z" transform="translate(-4231.397 -1399.057)" fill="#396caa"/>
        <path id="Trazado_771621" data-name="Trazado 771621" d="M4232.488,1401.963l-.008,0Z" transform="translate(-4231.279 -1399.02)" fill="#396caa"/>
        <path id="Trazado_771622" data-name="Trazado 771622" d="M4222.682,1388.928a.435.435,0,0,0,.068.046h0l.017.009h0l.008,0h0l.007,0h.025l.005,0,.007,0a.007.007,0,0,0,0,0l0,0,0,0,0-.005,0,0a.035.035,0,0,0,.008-.009,0,0,0,0,0,0,0l.006-.008,0,0a.082.082,0,0,0,.007-.012,5.231,5.231,0,0,1,.412-.577.135.135,0,0,0,.03-.143c-.2-.157-.4-.31-.608-.471l-.866.53c.233.181.461.355.687.533Z" transform="translate(-4221.567 -1386.043)" fill="#396caa"/>
        <path id="Trazado_771623" data-name="Trazado 771623" d="M4250.246,1383.383l-.025-.052Z" transform="translate(-4247.468 -1382.019)" fill="#396caa"/>
        <path id="Trazado_771624" data-name="Trazado 771624" d="M4250.98,1384.865c-.021-.042-.042-.083-.061-.125C4250.941,1384.781,4250.96,1384.823,4250.98,1384.865Z" transform="translate(-4248.106 -1383.306)" fill="#396caa"/>
        <path id="Trazado_771625" data-name="Trazado 771625" d="M4248.81,1380.57h0Z" transform="translate(-4246.181 -1379.5)" fill="#396caa"/>
        <path id="Trazado_771626" data-name="Trazado 771626" d="M4249.512,1381.963c0-.008-.008-.016-.012-.023Z" transform="translate(-4246.81 -1380.751)" fill="#396caa"/>
        <path id="Trazado_771627" data-name="Trazado 771627" d="M4233.062,1368.87l.28.539h0l.062.119.012.024.05.1.026.052q.017.036.035.071l.061.125c.081.165.142.215.265.222a4.505,4.505,0,0,1,.73.119c.1.023.13,0,.128-.121,0-.177,0-.352,0-.529-.116-.01-.176-.061-.253-.221-.168-.344-.349-.682-.527-1.029l-1.2.463-.867.53.951-.366Z" transform="translate(-4230.712 -1368.34)" fill="#396caa"/>
        <path id="Trazado_771628" data-name="Trazado 771628" d="M4297.34,1503.5c.009.039.02.077.029.115h0C4297.359,1503.577,4297.349,1503.539,4297.34,1503.5Z" transform="translate(-4290.467 -1491.682)" fill="#396caa"/>
        <path id="Trazado_771629" data-name="Trazado 771629" d="M4296.793,1497.1c-.027.011-.037.087-.023.139s.029.116.045.174c.009.039.021.077.029.115h0c.014.049.025.1.039.147.061.229.124.461.188.7l.866-.53c-.078-.292-.155-.576-.229-.857-.042-.053-.085-.107-.128-.158C4297.31,1496.92,4297.048,1497,4296.793,1497.1Z" transform="translate(-4289.941 -1485.595)" fill="#396caa"/>
        <path id="Trazado_771630" data-name="Trazado 771630" d="M4315.556,1484.754l-.447-.554c.143.178.291.363.447.554Z" transform="translate(-4306.683 -1474.069)" fill="#396caa"/>
        <path id="Trazado_771631" data-name="Trazado 771631" d="M4315.977,1472.206c.015-.111.029-.219.044-.327-.215-.081-.426-.161-.637-.234-.046-.016-.115-.006-.122.033-.056.341-.1.692-.152,1.059.143.177.292.362.446.555h0l.382.475c-.059.084-.119.167-.179.25l-.605.852.867-.53.783-1.1Z" transform="translate(-4306.683 -1462.605)" fill="#396caa"/>
        <path id="Trazado_771632" data-name="Trazado 771632" d="M4223.022,1431.746c-.01-.046-.018-.091-.027-.136h0l-.785.462c.234-.021.456-.056.69-.055C4223.044,1432.017,4223.062,1431.941,4223.022,1431.746Z" transform="translate(-4221.907 -1426.078)" fill="#396caa"/>
        <path id="Trazado_771633" data-name="Trazado 771633" d="M4264.227,1491.008c-.124-.072-.248-.149-.371-.227-.106-.068-.144-.054-.176.034-.089.251-.188.492-.29.753l.905-.52h0l-.035-.019Z" transform="translate(-4259.486 -1480.036)" fill="#396caa"/>
        <path id="Trazado_771634" data-name="Trazado 771634" d="M4227.442,1382.918c.21.074.421.153.636.234l.22.082c-.039-.28-.076-.545-.114-.807-.006-.051-.013-.1-.021-.152-.016-.106-.03-.212-.046-.318h0c-.023-.165-.047-.331-.072-.5-.006-.048-.014-.1-.021-.146-.3-.112-.576-.214-.857-.325a.328.328,0,0,1-.144-.131c-.166-.425-.322-.852-.49-1.3l.616-.489-1.2-1.848c-.187.147-.371.284-.546.432-.064.055-.113.048-.217-.065-.242-.26-.49-.511-.743-.741a.334.334,0,0,1-.142-.3c.008-.313,0-.635,0-.956l-.22-.127-.482-.278-.866-.5c0,.15,0,.3,0,.444,0,.177,0,.352,0,.529,0,.117-.028.144-.129.121a4.593,4.593,0,0,0-.73-.119c-.123-.008-.185-.057-.265-.222l-.061-.125c-.011-.024-.024-.047-.035-.071s-.018-.035-.025-.052l-.051-.1-.012-.024c-.02-.039-.04-.079-.062-.119h0l-.28-.54-.25.1-.951.366c.192.374.372.73.559,1.083a.572.572,0,0,1,.041.094.139.139,0,0,1-.03.142,5.049,5.049,0,0,0-.412.577.073.073,0,0,1-.007.012l0,0-.006.008,0,0-.008.009,0,0,0,.005,0,0,0,0,0,0-.008,0,0,0h-.025l-.007,0h0l-.008,0h0l-.019-.009a.548.548,0,0,1-.067-.046l-.156-.124c-.226-.177-.454-.351-.687-.532-.093.547-.182,1.074-.272,1.61.288.225.563.448.837.652a.333.333,0,0,1,.153.279c.025.251.053.5.1.763.008.046.017.091.026.137.041.195.024.271-.122.27-.234,0-.455.034-.69.055.267.682.523,1.339.784,2.008l.84-.069c.282.434.554.854.832,1.281l-.33.854,1.473,1.465c.1-.261.2-.5.29-.753.032-.089.069-.1.176-.034.123.079.248.155.371.227l.033.019.034.019c.119.068.237.133.355.193a.347.347,0,0,1,.207.275c.086.352.189.707.286,1.066l1.472.235c-.063-.238-.126-.47-.187-.7-.013-.049-.025-.1-.038-.147s-.02-.077-.03-.116l-.045-.174c-.012-.052,0-.129.024-.139.255-.1.517-.181.787-.272l.128.158.7.871.606-.853c.059-.083.118-.167.178-.25l-.382-.475-.446-.554c.05-.367.1-.718.152-1.059C4227.326,1382.912,4227.4,1382.9,4227.442,1382.918Zm-2.12-.349c-.324.58-1.007.713-1.8.258a4.439,4.439,0,0,1-2.008-3.453c0-.874.433-1.39,1.067-1.412a1.769,1.769,0,0,1,.937.27,4.414,4.414,0,0,1,2,3.45A1.813,1.813,0,0,1,4225.323,1382.57Z" transform="translate(-4218.742 -1373.879)" fill="#173d7a"/>
      </g>
    </g>
    <g id="Grupo_1044185" data-name="Grupo 1044185" transform="translate(2132.75 698.95)">
      <path id="Trazado_771635" data-name="Trazado 771635" d="M2177.562,1641.422l-21.289,12.291c-.559.323-.562.844-.007,1.164l21.135,12.2a2.227,2.227,0,0,0,2.015,0l21.289-12.291c.558-.323.562-.844.007-1.164l-21.135-12.2A2.226,2.226,0,0,0,2177.562,1641.422Z" transform="translate(-2153.832 -1630.698)" fill="#c4dbf2"/>
      <g id="Grupo_1044184" data-name="Grupo 1044184" transform="translate(0)">
        <g id="Grupo_1044182" data-name="Grupo 1044182">
          <path id="Trazado_771636" data-name="Trazado 771636" d="M2197.431,1540.621c0-2.8-1.7-6.06-3.806-7.273l-19.208-11.577a2.441,2.441,0,0,0-2.466-.211h0l-20.61,12a2.6,2.6,0,0,1,2.181.343l19.208,11.577c2.1,1.214,3.807,4.47,3.807,7.273a3.51,3.51,0,0,1-1.173,2.985h0l20.592-11.957a1.873,1.873,0,0,0,.364-.212h0A3.579,3.579,0,0,0,2197.431,1540.621Z" transform="translate(-2149.714 -1521.315)" fill="#0affc6"/>
          <path id="Trazado_771637" data-name="Trazado 771637" d="M2174.025,1669.849l-19.208-11.577a2.415,2.415,0,0,0-2.517-.178,2.643,2.643,0,0,1,2.1.37l19.208,11.577c2.1,1.214,3.807,4.471,3.807,7.273h0a3.391,3.391,0,0,1-1.289,3.055c1.03-.314,1.71-1.478,1.71-3.248h0C2177.832,1674.32,2176.127,1671.064,2174.025,1669.849Z" transform="translate(-2150.591 -1645.883)" fill="#fff"/>
          <path id="Trazado_771638" data-name="Trazado 771638" d="M2448.13,1699.821a9.351,9.351,0,0,0-1.026-4.051l-20.942,12.033a9.381,9.381,0,0,1,1.071,4.145,3.51,3.51,0,0,1-1.174,2.985h0l20.592-11.957a1.863,1.863,0,0,0,.364-.212h0A3.577,3.577,0,0,0,2448.13,1699.821Z" transform="translate(-2400.413 -1680.516)" fill="#396caa"/>
          <path id="Trazado_771639" data-name="Trazado 771639" d="M2159.57,1679.291a9.382,9.382,0,0,0-1.071-4.145,7.6,7.6,0,0,0-2.736-3.129l-19.208-11.577a2.6,2.6,0,0,0-2.18-.343c-.983.351-1.625,1.5-1.625,3.22,0,2.8,1.7,6.059,3.807,7.273l19.207,11.577a2.371,2.371,0,0,0,2.634.107h0A3.518,3.518,0,0,0,2159.57,1679.291Z" transform="translate(-2132.75 -1647.859)" fill="#173d7a"/>
        </g>
        <path id="Trazado_771640" data-name="Trazado 771640" d="M2329.987,1613.063a11.772,11.772,0,0,0-10.652.023c-2.952,1.705-2.969,4.458-.038,6.15.049.028.1.054.149.082-2.279-1.536-2.145-3.859.392-5.324a10.618,10.618,0,0,1,9.606-.02c2.569,1.483,2.626,3.87.183,5.414.109-.056.217-.114.321-.174C2332.9,1617.509,2332.917,1614.755,2329.987,1613.063Z" transform="translate(-2300.99 -1603.889)" fill="#173d7a"/>
        <path id="Trazado_771641" data-name="Trazado 771641" d="M2336.95,1624.767a10.617,10.617,0,0,0-9.606.02c-2.536,1.465-2.671,3.788-.392,5.324.113.076.232.151.357.222a10.617,10.617,0,0,0,9.607-.02c.075-.044.147-.087.218-.133C2339.577,1628.636,2339.52,1626.25,2336.95,1624.767Z" transform="translate(-2308.498 -1614.682)" fill="#396caa"/>
        <g id="Grupo_1044183" data-name="Grupo 1044183" transform="translate(19.277 10.442)">
          <path id="Trazado_771642" data-name="Trazado 771642" d="M2360.131,1641.446a1.061,1.061,0,0,1-.538.162,10.463,10.463,0,0,0-1.255.1,6.527,6.527,0,0,0-1.729.494c-1.155.531-1.788,1.22-1.875,2.072,0,.046-.009.093-.016.139-.039.248-.375.427-.783.418-.424-.01-.73-.2-.726-.452a2.215,2.215,0,0,1,.3-1.074c.833-1.467,3.049-2.46,5.712-2.558a3.427,3.427,0,0,1,.492.007.655.655,0,0,1,.558.3A.292.292,0,0,1,2360.131,1641.446Z" transform="translate(-2353.209 -1640.738)" fill="#0affc6"/>
          <path id="Trazado_771643" data-name="Trazado 771643" d="M2382.119,1657.43a5.615,5.615,0,0,1,2.728-.661c.424,0,.751.176.771.419s-.286.432-.7.449a4.444,4.444,0,0,0-1.1.149c-.8.244-1.249.625-1.324,1.147a.421.421,0,0,1-.159.333,1.12,1.12,0,0,1-.869.156c-.3-.059-.5-.231-.495-.424A1.976,1.976,0,0,1,2382.119,1657.43Z" transform="translate(-2378.54 -1655.367)" fill="#0affc6"/>
          <path id="Trazado_771644" data-name="Trazado 771644" d="M2412.153,1675.689a.486.486,0,0,1,0-.916,1.772,1.772,0,0,1,1.588-.007.485.485,0,0,1,0,.917A1.776,1.776,0,0,1,2412.153,1675.689Z" transform="translate(-2406.703 -1671.622)" fill="#0affc6"/>
        </g>
      </g>
    </g>
    <path id="Trazado_771645" data-name="Trazado 771645" d="M3026.725,1829.281l-42.577,23.945c-.7.405-.7,1.058-.01,1.459l26.506,15.3a2.793,2.793,0,0,0,2.528-.005l42.578-23.945c.7-.405.7-1.058.009-1.459l-26.505-15.3A2.8,2.8,0,0,0,3026.725,1829.281Z" transform="translate(-776.471 -1103.125)" fill="#173d7a" opacity="0.77"/>
    <path id="Trazado_771646" data-name="Trazado 771646" d="M2874.136,2202.025l6.4,3.695c.188.109.189.283,0,.391l-2.2,1.271a.747.747,0,0,1-.677,0l-6.4-3.7a.206.206,0,0,1,0-.391l2.2-1.27A.746.746,0,0,1,2874.136,2202.025Z" transform="translate(-673.808 -1443.48)" fill="#173d7a" opacity="0.54"/>
    <g id="Grupo_1044200" data-name="Grupo 1044200" transform="translate(2184.977 660.036)">
      <g id="Grupo_1044189" data-name="Grupo 1044189" transform="translate(46.718 0)">
        <path id="Trazado_771647" data-name="Trazado 771647" d="M3264.35,1081.739v18.507h3.823V1078.28l-3.211,2.276A1.452,1.452,0,0,0,3264.35,1081.739Z" transform="translate(-3264.349 -1078.105)" fill="#0affc6"/>
        <path id="Trazado_771648" data-name="Trazado 771648" d="M3345.784,1107.874l-27.465-15.895,0-6.712a.776.776,0,0,0-.353-.642l-14.349-8.3c-.2-.118-1.438-.01-1.438,1l1.049,40.46a2.246,2.246,0,0,0,1.016,1.853l41.311,24.964s1.237-.031,1.237-1.605l.008-33.264A2.239,2.239,0,0,0,3345.784,1107.874Z" transform="translate(-3298.872 -1076.282)" fill="#0affc6"/>
        <path id="Trazado_771649" data-name="Trazado 771649" d="M3344.741,1119.725l-27.465-15.895v-6.712a.777.777,0,0,0-.351-.642l-14.351-8.305a.237.237,0,0,0-.387.214v11.521c0,.021.006.043.007.064l-.006,29.659a2.235,2.235,0,0,0,1.015,1.85l41.428,23.976a.685.685,0,0,0,1.12-.615l.008-33.263A2.24,2.24,0,0,0,3344.741,1119.725Z" transform="translate(-3298.876 -1087.086)" fill="#396caa"/>
        <path id="Trazado_771650" data-name="Trazado 771650" d="M3307.954,1136.022l-27.465-15.894,0-6.714a.775.775,0,0,0-.351-.64l-14.351-8.3c-.2-.118-1.439-.011-1.439,1l1.05,40.459a2.236,2.236,0,0,0,1.016,1.852l40.975,24.989a1.6,1.6,0,0,0,1.572-1.63l.008-33.264A2.234,2.234,0,0,0,3307.954,1136.022Z" transform="translate(-3264.349 -1101.969)" fill="#0affc6"/>
        <path id="Trazado_771651" data-name="Trazado 771651" d="M3306.9,1145.823l-27.464-15.894v-6.714a.772.772,0,0,0-.352-.64l-14.352-8.305a.236.236,0,0,0-.387.213l0,41.244a2.238,2.238,0,0,0,1.017,1.852l41.427,23.976a.685.685,0,0,0,1.119-.617l.008-33.263A2.235,2.235,0,0,0,3306.9,1145.823Z" transform="translate(-3264.346 -1110.901)" fill="#173d7a"/>
        <path id="Trazado_771652" data-name="Trazado 771652" d="M3602.842,1662.328l-9.473-5.482a.9.9,0,0,0-1.347.777l0,6.526a.9.9,0,0,0,.453.779l9.473,5.422a.9.9,0,0,0,1.344-.779l0-6.466A.9.9,0,0,0,3602.842,1662.328Z" transform="translate(-3563.368 -1605.97)" fill="#0affc6"/>
        <path id="Trazado_771653" data-name="Trazado 771653" d="M3766.74,1491.43l3.456-2.473.368-35.017-3.824,2.434Z" transform="translate(-3722.811 -1420.918)" fill="#0affc6"/>
        <g id="Grupo_1044186" data-name="Grupo 1044186" transform="translate(30.379 53.84)">
          <path id="Trazado_771654" data-name="Trazado 771654" d="M3611.78,1693.028l2.81,1.719v-1l-2.81-1.719Z" transform="translate(-3611.78 -1692.03)" fill="#396caa" fill-rule="evenodd"/>
        </g>
        <g id="Grupo_1044187" data-name="Grupo 1044187" transform="translate(34.392 56.296)">
          <path id="Trazado_771655" data-name="Trazado 771655" d="M3657.669,1721.108l3.475,2.125v-1l-3.475-2.125Z" transform="translate(-3657.669 -1720.11)" fill="#396caa" fill-rule="evenodd"/>
        </g>
        <g id="Grupo_1044188" data-name="Grupo 1044188" transform="translate(30.364 56.402)">
          <path id="Trazado_771656" data-name="Trazado 771656" d="M3611.61,1722.328l6.257,3.829v-1l-6.257-3.829Z" transform="translate(-3611.61 -1721.33)" fill="#396caa" fill-rule="evenodd"/>
        </g>
      </g>
      <g id="Grupo_1044193" data-name="Grupo 1044193" transform="translate(33.494 13.8)">
        <path id="Trazado_771657" data-name="Trazado 771657" d="M3113.12,1239.559v18.507h3.823V1236.1l-3.211,2.276A1.451,1.451,0,0,0,3113.12,1239.559Z" transform="translate(-3113.119 -1235.925)" fill="#0affc6"/>
        <path id="Trazado_771658" data-name="Trazado 771658" d="M3194.544,1265.694l-27.465-15.895,0-6.712a.775.775,0,0,0-.354-.642l-14.349-8.3c-.2-.118-1.438-.01-1.438,1l1.049,40.461a2.247,2.247,0,0,0,1.016,1.853l41.31,24.964s1.237-.031,1.237-1.605l.008-33.263A2.234,2.234,0,0,0,3194.544,1265.694Z" transform="translate(-3147.632 -1234.103)" fill="#0affc6"/>
        <path id="Trazado_771659" data-name="Trazado 771659" d="M3193.51,1277.553l-27.464-15.895v-6.712a.778.778,0,0,0-.351-.642l-14.352-8.3a.237.237,0,0,0-.387.214l0,11.521c0,.021.006.043.007.064l-.006,29.659a2.236,2.236,0,0,0,1.015,1.85l41.429,23.976a.684.684,0,0,0,1.119-.615l.008-33.264A2.239,2.239,0,0,0,3193.51,1277.553Z" transform="translate(-3147.645 -1244.913)" fill="#396caa"/>
        <path id="Trazado_771660" data-name="Trazado 771660" d="M3156.713,1293.842l-27.464-15.895,0-6.714a.774.774,0,0,0-.352-.64l-14.351-8.3c-.2-.118-1.438-.012-1.438,1l1.049,40.459a2.239,2.239,0,0,0,1.016,1.852l40.975,24.989a1.6,1.6,0,0,0,1.572-1.63l.008-33.263A2.227,2.227,0,0,0,3156.713,1293.842Z" transform="translate(-3113.109 -1259.789)" fill="#0affc6"/>
        <path id="Trazado_771661" data-name="Trazado 771661" d="M3155.672,1303.643l-27.465-15.895,0-6.713a.773.773,0,0,0-.352-.64l-14.351-8.3a.237.237,0,0,0-.387.212l0,41.244a2.239,2.239,0,0,0,1.017,1.852l41.428,23.976a.685.685,0,0,0,1.119-.616l.008-33.264A2.236,2.236,0,0,0,3155.672,1303.643Z" transform="translate(-3113.115 -1268.722)" fill="#173d7a"/>
        <path id="Trazado_771662" data-name="Trazado 771662" d="M3451.612,1820.148l-9.473-5.483a.9.9,0,0,0-1.348.777v6.526a.9.9,0,0,0,.452.779l9.473,5.422a.9.9,0,0,0,1.344-.779l0-6.466A.9.9,0,0,0,3451.612,1820.148Z" transform="translate(-3412.138 -1763.79)" fill="#0affc6"/>
        <path id="Trazado_771663" data-name="Trazado 771663" d="M3615.51,1649.25l3.456-2.473.368-35.017-3.824,2.435Z" transform="translate(-3571.581 -1578.738)" fill="#0affc6"/>
        <g id="Grupo_1044190" data-name="Grupo 1044190" transform="translate(30.38 53.84)">
          <path id="Trazado_771664" data-name="Trazado 771664" d="M3460.55,1850.848l2.808,1.719v-1l-2.808-1.719Z" transform="translate(-3460.55 -1849.85)" fill="#396caa" fill-rule="evenodd"/>
        </g>
        <g id="Grupo_1044191" data-name="Grupo 1044191" transform="translate(34.392 56.296)">
          <path id="Trazado_771665" data-name="Trazado 771665" d="M3506.44,1878.938l3.475,2.125v-1l-3.475-2.125Z" transform="translate(-3506.44 -1877.94)" fill="#396caa" fill-rule="evenodd"/>
        </g>
        <g id="Grupo_1044192" data-name="Grupo 1044192" transform="translate(30.364 56.402)">
          <path id="Trazado_771666" data-name="Trazado 771666" d="M3460.37,1880.148l6.258,3.829v-1l-6.258-3.829Z" transform="translate(-3460.37 -1879.15)" fill="#396caa" fill-rule="evenodd"/>
        </g>
      </g>
      <g id="Grupo_1044197" data-name="Grupo 1044197" transform="translate(17.732 28.683)">
        <path id="Trazado_771667" data-name="Trazado 771667" d="M2932.84,1409.789V1428.3h3.823V1406.33l-3.21,2.276A1.449,1.449,0,0,0,2932.84,1409.789Z" transform="translate(-2932.84 -1406.154)" fill="#0affc6"/>
        <path id="Trazado_771668" data-name="Trazado 771668" d="M3014.274,1435.914l-27.464-15.895v-6.712a.776.776,0,0,0-.353-.642l-14.35-8.3c-.2-.118-1.438-.01-1.438,1l1.049,40.461a2.246,2.246,0,0,0,1.016,1.853l41.311,24.964s1.236-.031,1.236-1.605l.008-33.264A2.238,2.238,0,0,0,3014.274,1435.914Z" transform="translate(-2967.362 -1404.322)" fill="#0affc6"/>
        <path id="Trazado_771669" data-name="Trazado 771669" d="M3013.231,1447.773l-27.465-15.895v-6.712a.779.779,0,0,0-.352-.642l-14.352-8.3a.237.237,0,0,0-.387.214l0,11.521a.576.576,0,0,0,.007.064l-.006,29.659a2.236,2.236,0,0,0,1.015,1.85l41.429,23.976a.685.685,0,0,0,1.119-.615l.008-33.264A2.239,2.239,0,0,0,3013.231,1447.773Z" transform="translate(-2967.367 -1415.133)" fill="#396caa"/>
        <path id="Trazado_771670" data-name="Trazado 771670" d="M2976.444,1464.062l-27.464-15.895,0-6.713a.773.773,0,0,0-.351-.64l-14.351-8.305c-.2-.118-1.438-.011-1.438,1l1.049,40.459a2.237,2.237,0,0,0,1.016,1.852l40.974,24.989a1.6,1.6,0,0,0,1.572-1.63l.008-33.264A2.231,2.231,0,0,0,2976.444,1464.062Z" transform="translate(-2932.84 -1430.009)" fill="#0affc6"/>
        <path id="Trazado_771671" data-name="Trazado 771671" d="M2975.392,1473.863l-27.465-15.895,0-6.714a.775.775,0,0,0-.352-.64l-14.352-8.3a.237.237,0,0,0-.387.213l0,41.244a2.241,2.241,0,0,0,1.017,1.852l41.427,23.976a.685.685,0,0,0,1.119-.616l.008-33.263A2.231,2.231,0,0,0,2975.392,1473.863Z" transform="translate(-2932.836 -1438.942)" fill="#173d7a"/>
        <path id="Trazado_771672" data-name="Trazado 771672" d="M3271.332,1990.378l-9.473-5.482a.9.9,0,0,0-1.347.777l0,6.526a.9.9,0,0,0,.452.779l9.473,5.422a.9.9,0,0,0,1.344-.779l0-6.466A.9.9,0,0,0,3271.332,1990.378Z" transform="translate(-3231.858 -1934.02)" fill="#0affc6"/>
        <path id="Trazado_771673" data-name="Trazado 771673" d="M3435.24,1819.48l3.455-2.474.369-35.017-3.824,2.434Z" transform="translate(-3391.311 -1748.967)" fill="#0affc6"/>
        <g id="Grupo_1044194" data-name="Grupo 1044194" transform="translate(30.38 53.84)">
          <path id="Trazado_771674" data-name="Trazado 771674" d="M3280.28,2021.067l2.808,1.72v-1l-2.808-1.719Z" transform="translate(-3280.28 -2020.07)" fill="#396caa" fill-rule="evenodd"/>
        </g>
        <g id="Grupo_1044195" data-name="Grupo 1044195" transform="translate(34.393 56.296)">
          <path id="Trazado_771675" data-name="Trazado 771675" d="M3326.17,2049.157l3.475,2.125v-1l-3.475-2.125Z" transform="translate(-3326.17 -2048.16)" fill="#396caa" fill-rule="evenodd"/>
        </g>
        <g id="Grupo_1044196" data-name="Grupo 1044196" transform="translate(30.364 56.402)">
          <path id="Trazado_771676" data-name="Trazado 771676" d="M3280.1,2050.369l6.257,3.828v-1l-6.257-3.829Z" transform="translate(-3280.1 -2049.37)" fill="#396caa" fill-rule="evenodd"/>
        </g>
      </g>
      <g id="Grupo_1044199" data-name="Grupo 1044199" transform="translate(0 48.673)">
        <g id="Grupo_1044198" data-name="Grupo 1044198">
          <path id="Trazado_771677" data-name="Trazado 771677" d="M2762.28,1691.737a35.732,35.732,0,0,0,.574-6.052c.089-2.817.026-5.727.032-8.6l-16.411-17.269-12.611-1.292-3.8-.389c.006,2.876-.057,5.713.032,8.633a48.7,48.7,0,0,0,.574,6.715c2,11.8,7.32,22.568,15.8,32.271a14.888,14.888,0,0,0,10.119-3.23Q2760.731,1699.04,2762.28,1691.737Z" transform="translate(-2730.048 -1655.936)" fill="#0affc6"/>
          <path id="Trazado_771678" data-name="Trazado 771678" d="M2797.118,1735.147l-12.789-13.457-12.789-1.31c.005,2.241-.044,4.452.025,6.727a37.96,37.96,0,0,0,.448,5.233,50.65,50.65,0,0,0,12.316,25.147c6.611.073,10.759-3.526,12.316-10.927a27.8,27.8,0,0,0,.448-4.715C2797.162,1739.65,2797.113,1737.382,2797.118,1735.147Z" transform="translate(-2767.902 -1712.734)" fill="#173d7a"/>
          <path id="Trazado_771679" data-name="Trazado 771679" d="M2766.869,1651.864l-16.411-17.269-16.248-1.665-3.97,2.2,16.411,1.682,16.412,17.269c-.006,2.868.057,5.779-.032,8.6a35.783,35.783,0,0,1-.575,6.052q-1.538,7.315-5.685,10.793c4.862-1.828,8.047-6.144,9.492-13.014a35.711,35.711,0,0,0,.574-6.052C2766.927,1657.643,2766.863,1654.733,2766.869,1651.864Z" transform="translate(-2730.223 -1632.93)" fill="#396caa"/>
        </g>
        <path id="Trazado_771680" data-name="Trazado 771680" d="M2854.086,1891.594l-10.455-6.036c-.382-.22-.692-.045-.692.394h0a1.523,1.523,0,0,0,.692,1.193l10.455,6.036c.382.221.692.045.692-.393h0A1.523,1.523,0,0,0,2854.086,1891.594Z" transform="translate(-2833.069 -1863.382)" fill="#ffb0a2"/>
      </g>
    </g>
    <g id="Grupo_1044206" data-name="Grupo 1044206" transform="translate(2171.571 664.373)">
      <path id="Trazado_771681" data-name="Trazado 771681" d="M2577.212,1448.818l2.266-1.309a2.369,2.369,0,0,1,2.017.021l17.56,10.2a.643.643,0,0,1,.4.611.8.8,0,0,1-.41.578l-.431.249-1.211.7-.589.34h0a2.945,2.945,0,0,1-2.229.111,71.287,71.287,0,0,1-17.575-10.214A.759.759,0,0,1,2577.212,1448.818Z" transform="translate(-2576.734 -1419.19)" fill="#c4dbf2"/>
      <g id="Grupo_1044205" data-name="Grupo 1044205" transform="translate(0.226 0)">
        <g id="Grupo_1044204" data-name="Grupo 1044204">
          <g id="Grupo_1044203" data-name="Grupo 1044203">
            <g id="Grupo_1044202" data-name="Grupo 1044202">
              <g id="Grupo_1044201" data-name="Grupo 1044201" transform="translate(0 10.074)">
                <path id="Trazado_771682" data-name="Trazado 771682" d="M2579.373,1259.822l-.053-18.732a.637.637,0,0,0,0,.074c0,.008,0,.016,0,.024s.005.032.009.047a.687.687,0,0,0,.031.1.23.23,0,0,0,.01.023.789.789,0,0,0,.045.092.042.042,0,0,1,.006.011.881.881,0,0,0,.067.1l.018.022a1.151,1.151,0,0,0,.085.09,71.321,71.321,0,0,0,17.575,10.214,1.493,1.493,0,0,0,.158.058l.047.014c.042.012.088.024.132.034l.042.01c.058.012.116.022.177.03l.037,0c.05.006.1.011.149.013a3.02,3.02,0,0,0,1.487-.274l.053,18.732a3,3,0,0,1-1.459.276h0l-.028,0-.15-.013-.037,0c-.061-.008-.119-.017-.177-.03l-.042-.01c-.045-.01-.089-.021-.132-.034l-.048-.014c-.054-.017-.107-.036-.158-.058a71.266,71.266,0,0,1-17.575-10.214.991.991,0,0,1-.085-.09l-.018-.022a.994.994,0,0,1-.067-.1.073.073,0,0,1-.006-.011.858.858,0,0,1-.046-.092l-.009-.023a.76.76,0,0,1-.032-.1.013.013,0,0,1,0-.005c0-.014,0-.028-.007-.042s0-.016,0-.023C2579.375,1259.872,2579.374,1259.846,2579.373,1259.822Z" transform="translate(-2579.32 -1241.09)" fill="#396caa"/>
                <path id="Trazado_771683" data-name="Trazado 771683" d="M2792.33,1363.556l.053,18.732a3,3,0,0,0,1.458-.276l-.053-18.732a3,3,0,0,1-1.458.276Z" transform="translate(-2773.705 -1352.596)" fill="#396caa"/>
              </g>
              <path id="Trazado_771684" data-name="Trazado 771684" d="M2815.75,1352.09l1.211-.7h0Z" transform="translate(-2795.077 -1331.672)" fill="none"/>
              <path id="Trazado_771685" data-name="Trazado 771685" d="M2809.608,1343.457l1.211-.7h0l.431-.249a.8.8,0,0,0,.41-.578h0v19.1l-.541.312h0l-2.049,1.183-.053-18.732h0Z" transform="translate(-2788.935 -1323.039)" fill="#173d7a"/>
              <path id="Trazado_771686" data-name="Trazado 771686" d="M2579.806,1217.068l2.266-1.309a2.369,2.369,0,0,1,2.017.021l17.56,10.2a.643.643,0,0,1,.4.611.8.8,0,0,1-.41.578l-.431.249-1.211.7-.589.34h0a2.944,2.944,0,0,1-2.229.111,71.267,71.267,0,0,1-17.575-10.214A.759.759,0,0,1,2579.806,1217.068Z" transform="translate(-2579.327 -1207.704)" fill="#0affc6"/>
              <path id="Trazado_771687" data-name="Trazado 771687" d="M2625.87,1131.017v6.141a.711.711,0,0,0,.414.584,2.2,2.2,0,0,0,2,0,.711.711,0,0,0,.415-.587v-6.139a1.828,1.828,0,0,1,3.1-1.787l1.562.9a10.143,10.143,0,0,1,4.512,7.816v6.142a.711.711,0,0,0,.415.584,2.154,2.154,0,0,0,1.308.223,1.843,1.843,0,0,0,.7-.223,1.166,1.166,0,0,0,.194-.14.6.6,0,0,0,.221-.446v-6.14a12.986,12.986,0,0,0-5.93-10.27l-1.562-.9a6.373,6.373,0,0,0-2.613-.88,4.079,4.079,0,0,0-4.187,2.419A6.345,6.345,0,0,0,2625.87,1131.017Z" transform="translate(-2621.8 -1125.878)" fill="#173d7a"/>
            </g>
            <ellipse id="Elipse_6132" data-name="Elipse 6132" cx="0.607" cy="1.052" rx="0.607" ry="1.052" transform="translate(7.526 30.636) rotate(-30.357)" fill="#ff6041"/>
            <ellipse id="Elipse_6133" data-name="Elipse 6133" cx="0.607" cy="1.052" rx="0.607" ry="1.052" transform="translate(7.525 27.292) rotate(-30.357)" fill="#ff6041"/>
            <ellipse id="Elipse_6134" data-name="Elipse 6134" cx="0.607" cy="1.052" rx="0.607" ry="1.052" transform="translate(7.773 23.949) rotate(-30.357)" fill="#0affc6"/>
          </g>
          <path id="Trazado_771688" data-name="Trazado 771688" d="M2681.363,1278.464l2.516,1.452a.285.285,0,0,1,0,.54,1.031,1.031,0,0,1-.934,0l-2.516-1.452a.285.285,0,0,1,0-.54A1.032,1.032,0,0,1,2681.363,1278.464Z" transform="translate(-2671.413 -1265.019)" fill="#396caa"/>
        </g>
      </g>
    </g>
  </g>
</svg>
